<?xml version="1.0" encoding="UTF-8"?>
<svg height="200" version="1.1" width="800" xmlns="http://www.w3.org/2000/svg" xmlns:xlink="http://www.w3.org/1999/xlink">
 <path d="M0,0 l800,0 l0,200 l-800,0 Z M0,0" fill="rgb(255,255,255)" transform="matrix(1,0,0,-1,0,200)"/>
 <path d="M267.85,97.62 l-0.45,5.5 c-2,0.4,-3.95,1.95,-4.3,4.7 l-2.5,17.55 l-6.15,0 l2.55,-17.95 c0.95,-7,5.65,-9.75,10.85,-9.8 Z M277.8,97.48 l5.2,2.2 c-0.8,1.2,-1.4,3.2,-1.75,5.65 l-2.85,20.05 l-6.2,0 l3.4,-24.15 c0.4,-1.85,1.6,-3.15,2.2,-3.75 Z M287.85,109.12 l6.2,0 l-1,6.45 c1.3,2.65,3.45,4.5,6.4,4.5 c2.7,0,5.2,-2.1,5.65,-5.15 l2.3,-16.6 l6.15,0 l-2.35,17 c-1.05,7.4,-4.5,10.7,-10.65,10.7 c-4.25,0,-7.05,-2.65,-8.15,-4.5 l-0.65,3.85 l-6.2,0 Z M332.25,97.62 l-0.4,5.15 c-4,0.45,-7.8,4,-8.55,9.25 c-0.8,5.5,2.15,9.1,6.6,9.1 c3.85,0,6.6,-2.4,7.9,-4.55 l2.2,-15.5 c0.3,-1.75,1.7,-3,2.45,-3.55 l4.9,2.15 c-0.8,1.2,-1.4,3.2,-1.75,5.65 l-4.55,32.35 l-6.1,-0.35 l2.1,-14.4 c-1.3,1.4,-3.85,3.1,-8,3.1 c-7.8,0,-12.95,-6.45,-11.8,-14.7 c1.15,-8.1,6.95,-13.7,15,-13.7 Z M363.8,97.62 l-0.45,5.5 c-2,0.4,-3.95,1.95,-4.3,4.7 l-2.5,17.55 l-6.15,0 l2.55,-17.95 c0.95,-7,5.65,-9.75,10.85,-9.8 Z M373.75,97.48 l5.2,2.2 c-0.8,1.2,-1.4,3.2,-1.75,5.65 l-2.85,20.05 l-6.2,0 l3.4,-24.15 c0.4,-1.85,1.6,-3.15,2.2,-3.75 Z M399.5,97.78 c7.15,0.9,11.5,6.5,10.2,15.45 c-1.05,7.85,-6.85,12.8,-13.35,12.8 c-4.65,0,-7.35,-2.85,-8.05,-4.35 l-2.35,16 l-6.1,-0.35 l4.05,-28.95 c0.55,-3.9,3.25,-7.65,7.35,-9.55 l-2.35,17.35 c0.6,2.25,2.85,4.75,5.85,4.75 c4.85,0,8.25,-4.1,8.85,-8.4 c0.65,-4.65,-1,-8.25,-4.55,-9.3 Z M417.3,98.33 l6.2,0 l-5.5,39.35 l-6.15,-0.35 Z M429.05,130.72 c2.45,0,3.6,1.95,3.3,3.85 c-0.2,1.65,-1.65,3.2,-3.65,3.2 c-2.4,0,-3.7,-1.95,-3.45,-3.9 c0.25,-1.6,1.6,-3.15,3.8,-3.15 Z M430.7,98.33 l6.2,0 l-3.8,27.2 l-6.15,-0.4 Z M447.55,110.58 l-0.9,7.5 c-0.25,1.8,2.1,2.95,5.3,2.95 c3.95,0,7.55,-1.95,8.35,-3 l1,4.95 c-0.65,0.65,-4.1,3.05,-9.4,3.05 c-6.75,0,-12.1,-3.4,-11.35,-8.8 c0.55,-3.8,3.4,-5.6,7,-6.65 Z M460.2,98.53 c3.8,1.3,5.65,4.2,5,8.65 c-0.6,4.35,-3.85,5.95,-9.8,7.25 l0.5,-5.75 c1.9,-0.6,3.25,-1.55,3.4,-2.75 Z M452.2,97.67 l-0.4,5.25 c-4.05,0.4,-7.65,2.3,-8.85,3.55 l-0.15,-5.95 c1.25,-0.85,4.3,-2.55,9.4,-2.85 Z M467.9,120.18 l17.35,0 l-0.75,5.2 l-6.9,0 l-1.15,8.25 l-6.15,-0.35 l1.1,-7.9 l-4.25,0 Z M483.75,97.62 c3,0,5.1,1.1,6.15,2.35 l-2,4.55 c-0.75,-0.85,-1.85,-1.25,-3.4,-1.25 c-2.15,0,-4,1.6,-4.4,4.3 l-0.2,1.55 l-6.2,0 l0.25,-1.95 c1,-6.8,4.45,-9.55,9.8,-9.55 Z M505.5,125.93 l0.4,-5.15 c3.2,-0.65,5.7,-3.1,6.15,-6.5 l-5.1,0.2 l0.65,-4.7 l10.45,0.15 c0.15,0.7,0.2,2.3,0.05,3.65 c-0.85,6,-5.05,11.55,-12.6,12.35 Z M491.9,111.23 c1.15,-8.3,7.5,-13.6,16.25,-13.6 c5.2,0,9.25,1.3,11.25,3.05 l-1.9,4.7 c-1.8,-1.6,-5.25,-2.4,-9.05,-2.4 c-4.55,0,-9.05,2.55,-9.85,7 l-1.85,14.15 c-3.9,-2.5,-5.65,-7.35,-4.85,-12.9 Z M537.4,97.62 l-0.4,5.15 c-4,0.45,-7.8,4,-8.55,9.25 c-0.8,5.5,2.15,9.1,6.6,9.1 c3.85,0,6.6,-2.4,7.9,-4.55 l2.2,-15.5 c0.3,-1.75,1.7,-3,2.45,-3.55 l4.9,2.15 c-0.8,1.2,-1.4,3.2,-1.75,5.65 l-4.55,32.35 l-6.1,-0.35 l2.1,-14.4 c-1.3,1.4,-3.85,3.1,-8,3.1 c-7.8,0,-12.95,-6.45,-11.8,-14.7 c1.15,-8.1,6.95,-13.7,15,-13.7 Z M537.4,97.62" fill="rgb(0,0,0)" transform="matrix(1,0,0,-1,0,200)"/>
</svg>