<?xml version="1.0" encoding="UTF-8"?>
<svg height="200" version="1.1" width="800" xmlns="http://www.w3.org/2000/svg" xmlns:xlink="http://www.w3.org/1999/xlink">
 <path d="M0,0 l800,0 l0,200 l-800,0 Z M0,0" fill="rgb(255,255,255)" transform="matrix(1,0,0,-1,0,200)"/>
 <path d="M330.27,98.33 l-14.6,27.05 l-6.45,0 l14.6,-27.05 Z M328.88,116.88 l4.15,-7.75 l4.3,16.25 l-6.3,0 Z M343.73,130.72 c2.45,0,3.6,1.95,3.3,3.85 c-0.2,1.65,-1.65,3.2,-3.65,3.2 c-2.4,0,-3.7,-1.95,-3.45,-3.9 c0.25,-1.6,1.6,-3.15,3.8,-3.15 Z M345.38,98.33 l6.2,0 l-3.8,27.2 l-6.15,-0.4 Z M376.22,98.12 c6.6,1.55,10.05,7.35,9.1,14.15 c-0.85,6.2,-5.75,11.65,-12.65,13.35 l0.5,-5.9 c3.2,-1.5,5.55,-4.7,6.05,-8.25 c0.5,-3.4,-0.65,-6.35,-3.5,-7.7 Z M368.12,98.03 l-0.5,5.9 c-3.2,1.4,-5.5,4.5,-6.05,8.25 c-0.45,3.25,0.75,6.2,3.5,7.7 l-0.5,5.6 c-6.35,-1.7,-9.95,-7.5,-9.05,-14 c0.95,-6.55,5.6,-11.9,12.6,-13.45 Z M392.77,98.33 l6.2,0 l-5.5,39.35 l-6.15,-0.35 Z M416.27,125.93 l0.4,-5.15 c3.2,-0.65,5.7,-3.1,6.15,-6.5 l-5.1,0.2 l0.65,-4.7 l10.45,0.15 c0.15,0.7,0.2,2.3,0.05,3.65 c-0.85,6,-5.05,11.55,-12.6,12.35 Z M402.67,111.23 c1.15,-8.3,7.5,-13.6,16.25,-13.6 c5.2,0,9.25,1.3,11.25,3.05 l-1.9,4.7 c-1.8,-1.6,-5.25,-2.4,-9.05,-2.4 c-4.55,0,-9.05,2.55,-9.85,7 l-1.85,14.15 c-3.9,-2.5,-5.65,-7.35,-4.85,-12.9 Z M431.92,120.18 l17.35,0 l-0.75,5.2 l-6.9,0 l-1.15,8.25 l-6.15,-0.35 l1.1,-7.9 l-4.25,0 Z M447.77,97.62 c3,0,5.1,1.1,6.15,2.35 l-2,4.55 c-0.75,-0.85,-1.85,-1.25,-3.4,-1.25 c-2.15,0,-4,1.6,-4.4,4.3 l-0.2,1.55 l-6.2,0 l0.25,-1.95 c1,-6.8,4.45,-9.55,9.8,-9.55 Z M457.77,130.72 c2.45,0,3.6,1.95,3.3,3.85 c-0.2,1.65,-1.65,3.2,-3.65,3.2 c-2.4,0,-3.7,-1.95,-3.45,-3.9 c0.25,-1.6,1.6,-3.15,3.8,-3.15 Z M459.42,98.33 l6.2,0 l-3.8,27.2 l-6.15,-0.4 Z M483.32,120.62 c3.05,0,5.75,-1,7.25,-2.25 l1.25,5.55 c-2.4,1.35,-5.6,2.1,-8.95,2.1 Z M469.57,111.48 c1.05,-7.4,7.45,-13.85,16.8,-13.85 c4.5,0,7.3,1.25,9.25,2.75 l-2.2,5.1 c-1.05,-1.55,-3.7,-2.5,-7.15,-2.5 c-5.95,0,-9.95,4.4,-10.6,9.05 l-1.45,11.35 c-3.6,-2.6,-5.3,-7.05,-4.65,-11.9 Z M469.57,111.48" fill="rgb(0,0,0)" transform="matrix(1,0,0,-1,0,200)"/>
</svg>