<?xml version="1.0" encoding="UTF-8"?>
<svg height="200" version="1.1" width="800" xmlns="http://www.w3.org/2000/svg" xmlns:xlink="http://www.w3.org/1999/xlink">
 <path d="M0,0 l800,0 l0,200 l-800,0 Z M0,0" fill="rgb(255,255,255)" transform="matrix(1,0,0,-1,0,200)"/>
 <path d="M316.36,88.74 c5.72,0.72,9.2,5.2,8.16,12.36 c-0.84,6.28,-5.48,10.24,-10.68,10.24 c-3.72,0,-5.88,-2.28,-6.44,-3.48 l-1.88,12.8 l-4.88,-0.28 l3.24,-23.16 c0.44,-3.12,2.6,-6.12,5.88,-7.64 l-1.88,13.88 c0.48,1.8,2.28,3.8,4.68,3.8 c3.88,0,6.6,-3.28,7.08,-6.72 c0.52,-3.72,-0.8,-6.6,-3.64,-7.44 Z M329.4,97.82 l4.92,0 l-0.84,5.72 c0.64,2.08,1.88,3.44,3.96,3.44 c1.2,0,2,-0.6,2.48,-1.16 l0.76,4.84 c-0.72,0.44,-1.64,0.68,-2.52,0.68 c-2.96,0,-4.48,-1.36,-5.24,-3.04 l-0.44,2.52 l-4.92,0 Z M355.28,88.62 l-0.36,4.4 c-1.6,0.32,-3.16,1.56,-3.44,3.76 l-2,14.04 l-4.92,0 l2.04,-14.36 c0.76,-5.6,4.52,-7.8,8.68,-7.84 Z M363.24,88.5 l4.16,1.76 c-0.64,0.96,-1.12,2.56,-1.4,4.52 l-2.28,16.04 l-4.96,0 l2.72,-19.32 c0.32,-1.48,1.28,-2.52,1.76,-3 Z M385.92,89.18 l4.96,0 l-2.16,14.88 c0.76,1.56,2.32,2.8,4.24,2.8 c2.16,0,4,-1.76,4.36,-4.28 l0.68,-4.76 l4.88,0 l-0.72,5.08 c-0.76,5.44,-3.52,8.44,-8.2,8.44 c-3.44,0,-5.48,-1.76,-6.64,-3.2 c-1.08,1.68,-2.92,3.2,-6,3.2 c-2.96,0,-5.4,-1.8,-6.44,-3.28 l-0.48,2.76 l-4.96,0 l1.84,-13 l4.96,0 l-0.92,6 c0.88,1.64,2.8,2.92,4.64,2.92 c2.12,0,3.72,-1.64,4.08,-4.04 Z M422.32,89.18 l4.96,0 l-2.16,14.88 c0.76,1.56,2.32,2.8,4.24,2.8 c2.16,0,4,-1.76,4.36,-4.28 l0.68,-4.76 l4.88,0 l-0.72,5.08 c-0.76,5.44,-3.52,8.44,-8.2,8.44 c-3.44,0,-5.48,-1.76,-6.64,-3.2 c-1.08,1.68,-2.92,3.2,-6,3.2 c-2.96,0,-5.4,-1.8,-6.44,-3.28 l-0.48,2.76 l-4.96,0 l1.84,-13 l4.96,0 l-0.92,6 c0.88,1.64,2.8,2.92,4.64,2.92 c2.12,0,3.72,-1.64,4.08,-4.04 Z M444.52,115.1 c1.96,0,2.88,1.56,2.64,3.08 c-0.16,1.32,-1.32,2.56,-2.92,2.56 c-1.92,0,-2.96,-1.56,-2.76,-3.12 c0.2,-1.28,1.28,-2.52,3.04,-2.52 Z M445.84,89.18 l4.96,0 l-3.04,21.76 l-4.92,-0.32 Z M453,106.66 l13.88,0 l-0.6,4.16 l-5.52,0 l-0.92,6.6 l-4.92,-0.28 l0.88,-6.32 l-3.4,0 Z M465.68,88.62 c2.4,0,4.08,0.88,4.92,1.88 l-1.6,3.64 c-0.6,-0.68,-1.48,-1,-2.72,-1 c-1.72,0,-3.2,1.28,-3.52,3.44 l-0.16,1.24 l-4.96,0 l0.2,-1.56 c0.8,-5.44,3.56,-7.64,7.84,-7.64 Z M473.68,115.1 c1.96,0,2.88,1.56,2.64,3.08 c-0.16,1.32,-1.32,2.56,-2.92,2.56 c-1.92,0,-2.96,-1.56,-2.76,-3.12 c0.2,-1.28,1.28,-2.52,3.04,-2.52 Z M475,89.18 l4.96,0 l-3.04,21.76 l-4.92,-0.32 Z M494.12,107.02 c2.44,0,4.6,-0.8,5.8,-1.8 l1,4.44 c-1.92,1.08,-4.48,1.68,-7.16,1.68 Z M483.12,99.7 c0.84,-5.92,5.96,-11.08,13.44,-11.08 c3.6,0,5.84,1,7.4,2.2 l-1.76,4.08 c-0.84,-1.24,-2.96,-2,-5.72,-2 c-4.76,0,-7.96,3.52,-8.48,7.24 l-1.16,9.08 c-2.88,-2.08,-4.24,-5.64,-3.72,-9.52 Z M483.12,99.7" fill="rgb(0,0,0)" transform="matrix(1,0,0,-1,0,200)"/>
</svg>