<?xml version="1.0" encoding="UTF-8"?>
<svg height="200" version="1.1" width="800" xmlns="http://www.w3.org/2000/svg" xmlns:xlink="http://www.w3.org/1999/xlink">
 <path d="M0,0 l800,0 l0,200 l-800,0 Z M0,0" fill="rgb(255,255,255)" transform="matrix(1,0,0,-1,0,200)"/>
 <path d="M302.55,140.25 c6.1,0,11.5,-2,14.5,-4.5 l2.5,11.1 c-4.8,2.7,-11.2,4.2,-17.9,4.2 Z M275.05,121.95 c2.1,-14.8,14.9,-27.7,33.6,-27.7 c9,0,14.6,2.5,18.5,5.5 l-4.4,10.2 c-2.1,-3.1,-7.4,-5,-14.3,-5 c-11.9,0,-19.9,8.8,-21.2,18.1 l-2.9,22.7 c-7.2,-5.2,-10.6,-14.1,-9.3,-23.8 Z M338.95,95.65 l12.4,0 l-11,78.7 l-12.3,-0.7 Z M385.95,150.85 l0.8,-10.3 c6.4,-1.3,11.4,-6.2,12.3,-13 l-10.2,0.4 l1.3,-9.4 l20.9,0.3 c0.3,1.4,0.4,4.6,0.1,7.3 c-1.7,12,-10.1,23.1,-25.2,24.7 Z M358.75,121.45 c2.3,-16.6,15,-27.2,32.5,-27.2 c10.4,0,18.5,2.6,22.5,6.1 l-3.8,9.4 c-3.6,-3.2,-10.5,-4.8,-18.1,-4.8 c-9.1,0,-18.1,5.1,-19.7,14 l-3.7,28.3 c-7.8,-5,-11.3,-14.7,-9.7,-25.8 Z M446.95,150.85 l0.8,-10.3 c6.4,-1.3,11.4,-6.2,12.3,-13 l-10.2,0.4 l1.3,-9.4 l20.9,0.3 c0.3,1.4,0.4,4.6,0.1,7.3 c-1.7,12,-10.1,23.1,-25.2,24.7 Z M419.75,121.45 c2.3,-16.6,15,-27.2,32.5,-27.2 c10.4,0,18.5,2.6,22.5,6.1 l-3.8,9.4 c-3.6,-3.2,-10.5,-4.8,-18.1,-4.8 c-9.1,0,-18.1,5.1,-19.7,14 l-3.7,28.3 c-7.8,-5,-11.3,-14.7,-9.7,-25.8 Z M490.45,74.05 l12.4,0 l-8.1,56.7 c1.2,4.2,5.6,10,13,10 c10,0,17.1,-7.3,18.7,-18.2 c1,-7.8,-1.7,-16.9,-11.4,-17.9 l0.8,-10.4 c15.7,0.3,25.1,12.7,22.6,29.9 c-2.1,14.9,-12.5,26.9,-28.4,26.9 c-8.4,0,-14.1,-4.8,-16.7,-9.3 l-1.3,8 l-12.3,0 Z M490.45,74.05" fill="rgb(0,0,0)" transform="matrix(1,0,0,-1,0,200)"/>
</svg>