<?xml version="1.0" encoding="UTF-8"?>
<svg height="200" version="1.1" width="800" xmlns="http://www.w3.org/2000/svg" xmlns:xlink="http://www.w3.org/1999/xlink">
 <path d="M0,0 l800,0 l0,200 l-800,0 Z M0,0" fill="rgb(255,255,255)" transform="matrix(1,0,0,-1,0,200)"/>
 <path d="M268.83,120.62 c3.05,0,5.75,-1,7.25,-2.25 l1.25,5.55 c-2.4,1.35,-5.6,2.1,-8.95,2.1 Z M255.08,111.48 c1.05,-7.4,7.45,-13.85,16.8,-13.85 c4.5,0,7.3,1.25,9.25,2.75 l-2.2,5.1 c-1.05,-1.55,-3.7,-2.5,-7.15,-2.5 c-5.95,0,-9.95,4.4,-10.6,9.05 l-1.45,11.35 c-3.6,-2.6,-5.3,-7.05,-4.65,-11.9 Z M304.12,98.12 c6.6,1.55,10.05,7.35,9.1,14.15 c-0.85,6.2,-5.75,11.65,-12.65,13.35 l0.5,-5.9 c3.2,-1.5,5.55,-4.7,6.05,-8.25 c0.5,-3.4,-0.65,-6.35,-3.5,-7.7 Z M296.03,98.03 l-0.5,5.9 c-3.2,1.4,-5.5,4.5,-6.05,8.25 c-0.45,3.25,0.75,6.2,3.5,7.7 l-0.5,5.6 c-6.35,-1.7,-9.95,-7.5,-9.05,-14 c0.95,-6.55,5.6,-11.9,12.6,-13.45 Z M336.98,98.33 l6.2,0 l-2.7,18.6 c0.95,1.95,2.9,3.5,5.3,3.5 c2.7,0,5,-2.2,5.45,-5.35 l0.85,-5.95 l6.1,0 l-0.9,6.35 c-0.95,6.8,-4.4,10.55,-10.25,10.55 c-4.3,0,-6.85,-2.2,-8.3,-4 c-1.35,2.1,-3.65,4,-7.5,4 c-3.7,0,-6.75,-2.25,-8.05,-4.1 l-0.6,3.45 l-6.2,0 l2.3,-16.25 l6.2,0 l-1.15,7.5 c1.1,2.05,3.5,3.65,5.8,3.65 c2.65,0,4.65,-2.05,5.1,-5.05 Z M367.73,87.53 l6.2,0 l-4.05,28.35 c0.6,2.1,2.8,5,6.5,5 c5,0,8.55,-3.65,9.35,-9.1 c0.5,-3.9,-0.85,-8.45,-5.7,-8.95 l0.4,-5.2 c7.85,0.15,12.55,6.35,11.3,14.95 c-1.05,7.45,-6.25,13.45,-14.2,13.45 c-4.2,0,-7.05,-2.4,-8.35,-4.65 l-0.65,4 l-6.15,0 Z M399.23,98.33 l6.2,0 l-5.5,39.35 l-6.15,-0.35 Z M424.12,97.73 l-0.4,5.05 c-4.3,0.55,-7.95,4.65,-8.65,9.5 c-0.75,5.25,2.2,8.8,6.7,8.8 c3.85,0,6.65,-2.35,7.9,-4.5 l2.15,-15.2 c1,-2.75,3.95,-3.65,5.75,-3.65 c2.8,0,4.5,1.2,5.1,2.55 l-1.9,3.05 c-0.15,-0.3,-0.55,-0.4,-1,-0.4 c-1.45,0,-2.15,1.4,-2.5,3.65 l-2.7,18.8 l-6,0 l0.45,-3.25 c-1.05,1.5,-4.05,3.9,-8.15,3.9 c-7.75,0,-12.95,-6.15,-11.8,-14.35 c1.05,-7.6,7.55,-13.75,15.05,-13.95 Z M442.98,120.18 l17.35,0 l-0.75,5.2 l-6.9,0 l-1.15,8.25 l-6.15,-0.35 l1.1,-7.9 l-4.25,0 Z M458.83,97.62 c3,0,5.1,1.1,6.15,2.35 l-2,4.55 c-0.75,-0.85,-1.85,-1.25,-3.4,-1.25 c-2.15,0,-4,1.6,-4.4,4.3 l-0.2,1.55 l-6.2,0 l0.25,-1.95 c1,-6.8,4.45,-9.55,9.8,-9.55 Z M468.83,130.72 c2.45,0,3.6,1.95,3.3,3.85 c-0.2,1.65,-1.65,3.2,-3.65,3.2 c-2.4,0,-3.7,-1.95,-3.45,-3.9 c0.25,-1.6,1.6,-3.15,3.8,-3.15 Z M470.48,98.33 l6.2,0 l-3.8,27.2 l-6.15,-0.4 Z M497.68,97.78 c7.15,0.9,11.5,6.5,10.2,15.45 c-1.05,7.85,-6.85,12.8,-13.35,12.8 c-4.65,0,-7.35,-2.85,-8.05,-4.35 l-2.35,16 l-6.1,-0.35 l4.05,-28.95 c0.55,-3.9,3.25,-7.65,7.35,-9.55 l-2.35,17.35 c0.6,2.25,2.85,4.75,5.85,4.75 c4.85,0,8.25,-4.1,8.85,-8.4 c0.65,-4.65,-1,-8.25,-4.55,-9.3 Z M515.47,98.33 l6.2,0 l-5.5,39.35 l-6.15,-0.35 Z M538.98,125.93 l0.4,-5.15 c3.2,-0.65,5.7,-3.1,6.15,-6.5 l-5.1,0.2 l0.65,-4.7 l10.45,0.15 c0.15,0.7,0.2,2.3,0.05,3.65 c-0.85,6,-5.05,11.55,-12.6,12.35 Z M525.38,111.23 c1.15,-8.3,7.5,-13.6,16.25,-13.6 c5.2,0,9.25,1.3,11.25,3.05 l-1.9,4.7 c-1.8,-1.6,-5.25,-2.4,-9.05,-2.4 c-4.55,0,-9.05,2.55,-9.85,7 l-1.85,14.15 c-3.9,-2.5,-5.65,-7.35,-4.85,-12.9 Z M525.38,111.23" fill="rgb(0,0,0)" transform="matrix(1,0,0,-1,0,200)"/>
</svg>