<?xml version="1.0" encoding="UTF-8"?>
<svg height="200" version="1.1" width="800" xmlns="http://www.w3.org/2000/svg" xmlns:xlink="http://www.w3.org/1999/xlink">
 <path d="M0,0 l800,0 l0,200 l-800,0 Z M0,0" fill="rgb(255,255,255)" transform="matrix(1,0,0,-1,0,200)"/>
 <path d="M293.56,107.02 c2.44,0,4.6,-0.8,5.8,-1.8 l1,4.44 c-1.92,1.08,-4.48,1.68,-7.16,1.68 Z M282.56,99.7 c0.84,-5.92,5.96,-11.08,13.44,-11.08 c3.6,0,5.84,1,7.4,2.2 l-1.76,4.08 c-0.84,-1.24,-2.96,-2,-5.72,-2 c-4.76,0,-7.96,3.52,-8.48,7.24 l-1.16,9.08 c-2.88,-2.08,-4.24,-5.64,-3.72,-9.52 Z M321.8,89.02 c5.28,1.24,8.04,5.88,7.28,11.32 c-0.68,4.96,-4.6,9.32,-10.12,10.68 l0.4,-4.72 c2.56,-1.2,4.44,-3.76,4.84,-6.6 c0.4,-2.72,-0.52,-5.08,-2.8,-6.16 Z M315.32,88.94 l-0.4,4.72 c-2.56,1.12,-4.4,3.6,-4.84,6.6 c-0.36,2.6,0.6,4.96,2.8,6.16 l-0.4,4.48 c-5.08,-1.36,-7.96,-6,-7.24,-11.2 c0.76,-5.24,4.48,-9.52,10.08,-10.76 Z M333.44,97.82 l4.96,0 l-0.8,5.16 c1.04,2.12,2.76,3.6,5.12,3.6 c2.16,0,4.16,-1.68,4.52,-4.12 l1.84,-13.28 l4.92,0 l-1.88,13.6 c-0.84,5.92,-3.6,8.56,-8.52,8.56 c-3.4,0,-5.64,-2.12,-6.52,-3.6 l-0.52,3.08 l-4.96,0 Z M357.04,106.7 l14.08,0 l-0.6,4.12 l-5.76,0 l-0.32,2.32 c-0.36,2.64,0.56,3.6,1.96,3.6 c1.6,0,2.52,-0.44,3.04,-0.76 l0.6,3.88 c-0.92,0.64,-2.32,1.12,-4.28,1.12 c-4.2,0,-6.92,-2.72,-6.2,-8.16 l0.28,-2 l-3.4,0 Z M362.12,80.1 c4.2,0,6.44,3.52,5.6,9.36 l-1.16,8.36 l-4.88,0 l1.28,-9 c0.28,-2.24,-0.6,-4,-2.64,-4 c-0.72,0,-1.52,0.16,-2.04,0.44 l2.2,-4.76 c0.28,-0.16,1.08,-0.4,1.64,-0.4 Z M387.32,111.26 l0.32,-4.12 c2.56,-0.52,4.56,-2.48,4.92,-5.2 l-4.08,0.16 l0.52,-3.76 l8.36,0.12 c0.12,0.56,0.16,1.84,0.04,2.92 c-0.68,4.8,-4.04,9.24,-10.08,9.88 Z M376.44,99.5 c0.92,-6.64,6,-10.88,13,-10.88 c4.16,0,7.4,1.04,9,2.44 l-1.52,3.76 c-1.44,-1.28,-4.2,-1.92,-7.24,-1.92 c-3.64,0,-7.24,2.04,-7.88,5.6 l-1.48,11.32 c-3.12,-2,-4.52,-5.88,-3.88,-10.32 Z M402.28,97.82 l4.92,0 l-0.84,5.72 c0.64,2.08,1.88,3.44,3.96,3.44 c1.2,0,2,-0.6,2.48,-1.16 l0.76,4.84 c-0.72,0.44,-1.64,0.68,-2.52,0.68 c-2.96,0,-4.48,-1.36,-5.24,-3.04 l-0.44,2.52 l-4.92,0 Z M429.28,88.7 l-0.32,4.04 c-3.44,0.44,-6.36,3.72,-6.92,7.6 c-0.6,4.2,1.76,7.04,5.36,7.04 c3.08,0,5.32,-1.88,6.32,-3.6 l1.72,-12.16 c0.8,-2.2,3.16,-2.92,4.6,-2.92 c2.24,0,3.6,0.96,4.08,2.04 l-1.52,2.44 c-0.12,-0.24,-0.44,-0.32,-0.8,-0.32 c-1.16,0,-1.72,1.12,-2,2.92 l-2.16,15.04 l-4.8,0 l0.36,-2.6 c-0.84,1.2,-3.24,3.12,-6.52,3.12 c-6.2,0,-10.36,-4.92,-9.44,-11.48 c0.84,-6.08,6.04,-11,12.04,-11.16 Z M444.36,106.66 l13.88,0 l-0.6,4.16 l-5.52,0 l-0.92,6.6 l-4.92,-0.28 l0.88,-6.32 l-3.4,0 Z M457.04,88.62 c2.4,0,4.08,0.88,4.92,1.88 l-1.6,3.64 c-0.6,-0.68,-1.48,-1,-2.72,-1 c-1.72,0,-3.2,1.28,-3.52,3.44 l-0.16,1.24 l-4.96,0 l0.2,-1.56 c0.8,-5.44,3.56,-7.64,7.84,-7.64 Z M465.04,115.1 c1.96,0,2.88,1.56,2.64,3.08 c-0.16,1.32,-1.32,2.56,-2.92,2.56 c-1.92,0,-2.96,-1.56,-2.76,-3.12 c0.2,-1.28,1.28,-2.52,3.04,-2.52 Z M466.36,89.18 l4.96,0 l-3.04,21.76 l-4.92,-0.32 Z M491.04,89.02 c5.28,1.24,8.04,5.88,7.28,11.32 c-0.68,4.96,-4.6,9.32,-10.12,10.68 l0.4,-4.72 c2.56,-1.2,4.44,-3.76,4.84,-6.6 c0.4,-2.72,-0.52,-5.08,-2.8,-6.16 Z M484.56,88.94 l-0.4,4.72 c-2.56,1.12,-4.4,3.6,-4.84,6.6 c-0.36,2.6,0.6,4.96,2.8,6.16 l-0.4,4.48 c-5.08,-1.36,-7.96,-6,-7.24,-11.2 c0.76,-5.24,4.48,-9.52,10.08,-10.76 Z M502.68,97.82 l4.96,0 l-0.8,5.16 c1.04,2.12,2.76,3.6,5.12,3.6 c2.16,0,4.16,-1.68,4.52,-4.12 l1.84,-13.28 l4.92,0 l-1.88,13.6 c-0.84,5.92,-3.6,8.56,-8.52,8.56 c-3.4,0,-5.64,-2.12,-6.52,-3.6 l-0.52,3.08 l-4.96,0 Z M502.68,97.82" fill="rgb(0,0,0)" transform="matrix(1,0,0,-1,0,200)"/>
</svg>