<?xml version="1.0" encoding="UTF-8"?>
<svg height="200" version="1.1" width="800" xmlns="http://www.w3.org/2000/svg" xmlns:xlink="http://www.w3.org/1999/xlink">
 <path d="M0,0 l800,0 l0,200 l-800,0 Z M0,0" fill="rgb(255,255,255)" transform="matrix(1,0,0,-1,0,200)"/>
 <path d="M317.1,88.62 l-0.32,4.12 c-3.2,0.36,-6.24,3.2,-6.84,7.4 c-0.64,4.4,1.72,7.28,5.28,7.28 c3.08,0,5.28,-1.92,6.32,-3.64 l1.76,-12.4 c0.24,-1.4,1.36,-2.4,1.96,-2.84 l3.92,1.72 c-0.64,0.96,-1.12,2.56,-1.4,4.52 l-3.64,25.88 l-4.88,-0.28 l1.68,-11.52 c-1.04,1.12,-3.08,2.48,-6.4,2.48 c-6.24,0,-10.36,-5.16,-9.44,-11.76 c0.92,-6.48,5.56,-10.96,12,-10.96 Z M342.9,111.26 l0.32,-4.12 c2.56,-0.52,4.56,-2.48,4.92,-5.2 l-4.08,0.16 l0.52,-3.76 l8.36,0.12 c0.12,0.56,0.16,1.84,0.04,2.92 c-0.68,4.8,-4.04,9.24,-10.08,9.88 Z M332.02,99.5 c0.92,-6.64,6,-10.88,13,-10.88 c4.16,0,7.4,1.04,9,2.44 l-1.52,3.76 c-1.44,-1.28,-4.2,-1.92,-7.24,-1.92 c-3.64,0,-7.24,2.04,-7.88,5.6 l-1.48,11.32 c-3.12,-2,-4.52,-5.88,-3.88,-10.32 Z M369.66,89.18 l-11.68,21.64 l-5.16,0 l11.68,-21.64 Z M368.54,104.02 l3.32,-6.2 l3.44,13 l-5.04,0 Z M389.26,88.62 l-0.36,4.4 c-1.6,0.32,-3.16,1.56,-3.44,3.76 l-2,14.04 l-4.92,0 l2.04,-14.36 c0.76,-5.6,4.52,-7.8,8.68,-7.84 Z M397.22,88.5 l4.16,1.76 c-0.64,0.96,-1.12,2.56,-1.4,4.52 l-2.28,16.04 l-4.96,0 l2.72,-19.32 c0.32,-1.48,1.28,-2.52,1.76,-3 Z M406.86,89.18 l4.96,0 l-4.4,31.48 l-4.92,-0.28 Z M426.78,88.7 l-0.32,4.04 c-3.44,0.44,-6.36,3.72,-6.92,7.6 c-0.6,4.2,1.76,7.04,5.36,7.04 c3.08,0,5.32,-1.88,6.32,-3.6 l1.72,-12.16 c0.8,-2.2,3.16,-2.92,4.6,-2.92 c2.24,0,3.6,0.96,4.08,2.04 l-1.52,2.44 c-0.12,-0.24,-0.44,-0.32,-0.8,-0.32 c-1.16,0,-1.72,1.12,-2,2.92 l-2.16,15.04 l-4.8,0 l0.36,-2.6 c-0.84,1.2,-3.24,3.12,-6.52,3.12 c-6.2,0,-10.36,-4.92,-9.44,-11.48 c0.84,-6.08,6.04,-11,12.04,-11.16 Z M444.34,115.1 c1.96,0,2.88,1.56,2.64,3.08 c-0.16,1.32,-1.32,2.56,-2.92,2.56 c-1.92,0,-2.96,-1.56,-2.76,-3.12 c0.2,-1.28,1.28,-2.52,3.04,-2.52 Z M445.66,89.18 l4.96,0 l-3.04,21.76 l-4.92,-0.32 Z M454.86,97.82 l4.96,0 l-0.8,5.16 c1.04,2.12,2.76,3.6,5.12,3.6 c2.16,0,4.16,-1.68,4.52,-4.12 l1.84,-13.28 l4.92,0 l-1.88,13.6 c-0.84,5.92,-3.6,8.56,-8.52,8.56 c-3.4,0,-5.64,-2.12,-6.52,-3.6 l-0.52,3.08 l-4.96,0 Z M491.66,96.62 c4.32,0.72,6.56,3.68,6.04,7.48 c-0.16,1.08,-0.68,2.24,-1.36,2.88 c0.44,0.56,1.32,0.8,2.48,0.8 l-0.24,3.56 c-2.24,0,-3.6,-0.96,-4.32,-1.92 c-1.2,0.92,-2.56,1.52,-4.4,1.8 l0.32,-4.08 c1.6,-0.56,2.84,-1.92,3.08,-3.6 c0.2,-1.4,-0.4,-2.44,-1.88,-3 Z M480.02,94.94 c0.44,-3,4.8,-5.16,10.08,-4.84 c2.8,0.16,4.68,-0.32,5.76,-1 l5.64,0.2 c-1.28,3,-4.48,4.84,-9.92,4.6 c-4.36,-0.16,-7.12,0.68,-7.36,2.36 c-0.04,0.52,0.16,1.08,0.36,1.2 c0.72,-0.4,1.64,-0.68,2.76,-0.88 l-0.32,4.04 c-1.6,0.6,-2.84,1.88,-3.08,3.48 c-0.2,1.44,0.52,2.52,1.92,3.08 l-0.32,3.92 c-3.92,-0.76,-6.68,-3.68,-6.12,-7.56 c0.32,-2.36,1.76,-3.8,2.68,-4.48 c-0.88,-0.36,-2.36,-1.96,-2.08,-4.12 Z M480.94,87.14 c0.6,-4.36,4.64,-7.12,11.56,-7.12 c4.76,0,8.16,1.6,9.2,4.4 l-9.44,-0.12 c-4.36,0,-6.44,1.52,-6.76,2.8 l-4.52,1.32 c-0.08,-0.36,-0.12,-0.8,-0.04,-1.28 Z M480.94,87.14" fill="rgb(0,0,0)" transform="matrix(1,0,0,-1,0,200)"/>
</svg>