<?xml version="1.0" encoding="UTF-8"?>
<svg height="200" version="1.1" width="800" xmlns="http://www.w3.org/2000/svg" xmlns:xlink="http://www.w3.org/1999/xlink">
 <path d="M0,0 l800,0 l0,200 l-800,0 Z M0,0" fill="rgb(255,255,255)" transform="matrix(1,0,0,-1,0,200)"/>
 <path d="M303.4,160.45 c4.9,0,7.2,3.9,6.6,7.7 c-0.4,3.3,-3.3,6.4,-7.3,6.4 c-4.8,0,-7.4,-3.9,-6.9,-7.8 c0.5,-3.2,3.2,-6.3,7.6,-6.3 Z M306.7,95.65 l12.4,0 l-7.6,54.4 l-12.3,-0.8 Z M362.1,95.65 l-29.2,54.1 l-12.9,0 l29.2,-54.1 Z M359.3,132.75 l8.3,-15.5 l8.6,32.5 l-12.6,0 Z M425.9,95.25 c13.2,3.1,20.1,14.7,18.2,28.3 c-1.7,12.4,-11.5,23.3,-25.3,26.7 l1,-11.8 c6.4,-3,11.1,-9.4,12.1,-16.5 c1,-6.8,-1.3,-12.7,-7,-15.4 Z M409.7,95.05 l-1,11.8 c-6.4,2.8,-11,9,-12.1,16.5 c-0.9,6.5,1.5,12.4,7,15.4 l-1,11.2 c-12.7,-3.4,-19.9,-15,-18.1,-28.0 c1.9,-13.1,11.2,-23.8,25.2,-26.9 Z M456.1,160.45 c4.9,0,7.2,3.9,6.6,7.7 c-0.4,3.3,-3.3,6.4,-7.3,6.4 c-4.8,0,-7.4,-3.9,-6.9,-7.8 c0.5,-3.2,3.2,-6.3,7.6,-6.3 Z M459.4,95.65 l12.4,0 l-7.6,54.4 l-12.3,-0.8 Z M483.4,117.25 l12.3,0 l-2.1,14.3 c1.6,5.2,4.7,8.6,9.9,8.6 c3,0,5,-1.5,6.2,-2.9 l1.9,12.1 c-1.8,1.1,-4.1,1.7,-6.3,1.7 c-7.4,0,-11.2,-3.4,-13.1,-7.6 l-1.1,6.3 l-12.3,0 Z M483.4,117.25" fill="rgb(0,0,0)" transform="matrix(1,0,0,-1,0,200)"/>
</svg>