<?xml version="1.0" encoding="UTF-8"?>
<svg height="200" version="1.1" width="800" xmlns="http://www.w3.org/2000/svg" xmlns:xlink="http://www.w3.org/1999/xlink">
 <path d="M0,0 l800,0 l0,200 l-800,0 Z M0,0" fill="rgb(255,255,255)" transform="matrix(1,0,0,-1,0,200)"/>
 <path d="M334.7,95.65 l12.4,0 l-11,78.7 l-12.3,-0.7 Z M358.2,160.45 c4.9,0,7.2,3.9,6.6,7.7 c-0.4,3.3,-3.3,6.4,-7.3,6.4 c-4.8,0,-7.4,-3.9,-6.9,-7.8 c0.5,-3.2,3.2,-6.3,7.6,-6.3 Z M361.5,95.65 l12.4,0 l-7.6,54.4 l-12.3,-0.8 Z M416.9,95.65 l-29.2,54.1 l-12.9,0 l29.2,-54.1 Z M414.1,132.75 l8.3,-15.5 l8.6,32.5 l-12.6,0 Z M443.8,160.45 c4.9,0,7.2,3.9,6.6,7.7 c-0.4,3.3,-3.3,6.4,-7.3,6.4 c-4.8,0,-7.4,-3.9,-6.9,-7.8 c0.5,-3.2,3.2,-6.3,7.6,-6.3 Z M447.1,95.65 l12.4,0 l-7.6,54.4 l-12.3,-0.8 Z M474.1,95.65 l12.4,0 l-11,78.7 l-12.3,-0.7 Z M474.1,95.65" fill="rgb(0,0,0)" transform="matrix(1,0,0,-1,0,200)"/>
</svg>