<?xml version="1.0" encoding="UTF-8"?>
<svg height="200" version="1.1" width="800" xmlns="http://www.w3.org/2000/svg" xmlns:xlink="http://www.w3.org/1999/xlink">
 <path d="M0,0 l800,0 l0,200 l-800,0 Z M0,0" fill="rgb(255,255,255)" transform="matrix(1,0,0,-1,0,200)"/>
 <path d="M344.64,88.62 l-0.32,4.12 c-3.2,0.36,-6.24,3.2,-6.84,7.4 c-0.64,4.4,1.72,7.28,5.28,7.28 c3.08,0,5.28,-1.92,6.32,-3.64 l1.76,-12.4 c0.24,-1.4,1.36,-2.4,1.96,-2.84 l3.92,1.72 c-0.64,0.96,-1.12,2.56,-1.4,4.52 l-3.64,25.88 l-4.88,-0.28 l1.68,-11.52 c-1.04,1.12,-3.08,2.48,-6.4,2.48 c-6.24,0,-10.36,-5.16,-9.44,-11.76 c0.92,-6.48,5.56,-10.96,12,-10.96 Z M361.04,115.1 c1.96,0,2.88,1.56,2.64,3.08 c-0.16,1.32,-1.32,2.56,-2.92,2.56 c-1.92,0,-2.96,-1.56,-2.76,-3.12 c0.2,-1.28,1.28,-2.52,3.04,-2.52 Z M362.36,89.18 l4.96,0 l-3.04,21.76 l-4.92,-0.32 Z M375.84,98.98 l-0.72,6 c-0.2,1.44,1.68,2.36,4.24,2.36 c3.16,0,6.04,-1.56,6.68,-2.4 l0.8,3.96 c-0.52,0.52,-3.28,2.44,-7.52,2.44 c-5.4,0,-9.68,-2.72,-9.08,-7.04 c0.44,-3.04,2.72,-4.48,5.6,-5.32 Z M385.96,89.34 c3.04,1.04,4.52,3.36,4,6.92 c-0.48,3.48,-3.08,4.76,-7.84,5.8 l0.4,-4.6 c1.52,-0.48,2.6,-1.24,2.72,-2.2 Z M379.56,88.66 l-0.32,4.2 c-3.24,0.32,-6.12,1.84,-7.08,2.84 l-0.12,-4.76 c1,-0.68,3.44,-2.04,7.52,-2.28 Z M392.12,106.66 l13.88,0 l-0.6,4.16 l-5.52,0 l-0.92,6.6 l-4.92,-0.28 l0.88,-6.32 l-3.4,0 Z M404.8,88.62 c2.4,0,4.08,0.88,4.92,1.88 l-1.6,3.64 c-0.6,-0.68,-1.48,-1,-2.72,-1 c-1.72,0,-3.2,1.28,-3.52,3.44 l-0.16,1.24 l-4.96,0 l0.2,-1.56 c0.8,-5.44,3.56,-7.64,7.84,-7.64 Z M422.2,111.26 l0.32,-4.12 c2.56,-0.52,4.56,-2.48,4.92,-5.2 l-4.08,0.16 l0.52,-3.76 l8.36,0.12 c0.12,0.56,0.16,1.84,0.04,2.92 c-0.68,4.8,-4.04,9.24,-10.08,9.88 Z M411.32,99.5 c0.92,-6.64,6,-10.88,13,-10.88 c4.16,0,7.4,1.04,9,2.44 l-1.52,3.76 c-1.44,-1.28,-4.2,-1.92,-7.24,-1.92 c-3.64,0,-7.24,2.04,-7.88,5.6 l-1.48,11.32 c-3.12,-2,-4.52,-5.88,-3.88,-10.32 Z M437.16,97.82 l4.92,0 l-0.84,5.72 c0.64,2.08,1.88,3.44,3.96,3.44 c1.2,0,2,-0.6,2.48,-1.16 l0.76,4.84 c-0.72,0.44,-1.64,0.68,-2.52,0.68 c-2.96,0,-4.48,-1.36,-5.24,-3.04 l-0.44,2.52 l-4.92,0 Z M458.64,97.82 l1.52,5.92 l-4.36,7.08 l-5.44,0 Z M457.32,80.1 c5.12,0,8.44,3.52,10.16,10.52 l5.04,20.2 l-5.2,0 l-4.64,-19.24 c-1.28,-5.04,-4,-7.36,-6.92,-7.36 c-1,0,-1.64,0.24,-2.04,0.44 l1.88,-4.2 c0.28,-0.16,1.08,-0.36,1.72,-0.36 Z M457.32,80.1" fill="rgb(0,0,0)" transform="matrix(1,0,0,-1,0,200)"/>
</svg>