<?xml version="1.0" encoding="UTF-8"?>
<svg height="200" version="1.1" width="800" xmlns="http://www.w3.org/2000/svg" xmlns:xlink="http://www.w3.org/1999/xlink">
 <path d="M0,0 l800,0 l0,200 l-800,0 Z M0,0" fill="rgb(255,255,255)" transform="matrix(1,0,0,-1,0,200)"/>
 <path d="M240.35,95.25 c13.2,3.1,20.1,14.7,18.2,28.3 c-1.7,12.4,-11.5,23.3,-25.3,26.7 l1,-11.8 c6.4,-3,11.1,-9.4,12.1,-16.5 c1,-6.8,-1.3,-12.7,-7,-15.4 Z M224.15,95.05 l-1,11.8 c-6.4,2.8,-11,9,-12.1,16.5 c-0.9,6.5,1.5,12.4,7,15.4 l-1,11.2 c-12.7,-3.4,-19.9,-15,-18.1,-28.0 c1.9,-13.1,11.2,-23.8,25.2,-26.9 Z M276.55,74.05 l12.4,0 l-8.1,56.7 c1.2,4.2,5.6,10,13,10 c10,0,17.1,-7.3,18.7,-18.2 c1,-7.8,-1.7,-16.9,-11.4,-17.9 l0.8,-10.4 c15.7,0.3,25.1,12.7,22.6,29.9 c-2.1,14.9,-12.5,26.9,-28.4,26.9 c-8.4,0,-14.1,-4.8,-16.7,-9.3 l-1.3,8 l-12.3,0 Z M360.15,150.85 l0.8,-10.3 c6.4,-1.3,11.4,-6.2,12.3,-13 l-10.2,0.4 l1.3,-9.4 l20.9,0.3 c0.3,1.4,0.4,4.6,0.1,7.3 c-1.7,12,-10.1,23.1,-25.2,24.7 Z M332.95,121.45 c2.3,-16.6,15,-27.2,32.5,-27.2 c10.4,0,18.5,2.6,22.5,6.1 l-3.8,9.4 c-3.6,-3.2,-10.5,-4.8,-18.1,-4.8 c-9.1,0,-18.1,5.1,-19.7,14 l-3.7,28.3 c-7.8,-5,-11.3,-14.7,-9.7,-25.8 Z M423.95,94.45 l-0.8,10.1 c-8.6,1.1,-15.9,9.3,-17.3,19 c-1.5,10.5,4.4,17.6,13.4,17.6 c7.7,0,13.3,-4.7,15.8,-9 l4.3,-30.4 c2,-5.5,7.9,-7.3,11.5,-7.3 c5.6,0,9,2.4,10.2,5.1 l-3.8,6.1 c-0.3,-0.6,-1.1,-0.8,-2,-0.8 c-2.9,0,-4.3,2.8,-5,7.3 l-5.4,37.6 l-12,0 l0.9,-6.5 c-2.1,3,-8.1,7.8,-16.3,7.8 c-15.5,0,-25.9,-12.3,-23.6,-28.7 c2.1,-15.2,15.1,-27.5,30.1,-27.9 Z M503.35,95.65 l12.4,0 l-5.4,37.2 c1.9,3.9,5.8,7,10.6,7 c5.4,0,10.0,-4.4,10.9,-10.7 l1.7,-11.9 l12.2,0 l-1.8,12.7 c-1.9,13.6,-8.8,21.1,-20.5,21.1 c-8.6,0,-13.7,-4.4,-16.6,-8 c-2.7,4.2,-7.3,8,-15,8 c-7.4,0,-13.5,-4.5,-16.1,-8.2 l-1.2,6.9 l-12.4,0 l4.6,-32.5 l12.4,0 l-2.3,15 c2.2,4.1,7,7.3,11.6,7.3 c5.3,0,9.3,-4.1,10.2,-10.1 Z M596.45,95.25 c13.2,3.1,20.1,14.7,18.2,28.3 c-1.7,12.4,-11.5,23.3,-25.3,26.7 l1,-11.8 c6.4,-3,11.1,-9.4,12.1,-16.5 c1,-6.8,-1.3,-12.7,-7,-15.4 Z M580.25,95.05 l-1,11.8 c-6.4,2.8,-11,9,-12.1,16.5 c-0.9,6.5,1.5,12.4,7,15.4 l-1,11.2 c-12.7,-3.4,-19.9,-15,-18.1,-28.0 c1.9,-13.1,11.2,-23.8,25.2,-26.9 Z M580.25,95.05" fill="rgb(0,0,0)" transform="matrix(1,0,0,-1,0,200)"/>
</svg>