<?xml version="1.0" encoding="UTF-8"?>
<svg height="200" version="1.1" width="800" xmlns="http://www.w3.org/2000/svg" xmlns:xlink="http://www.w3.org/1999/xlink">
 <path d="M0,0 l800,0 l0,200 l-800,0 Z M0,0" fill="rgb(255,255,255)" transform="matrix(1,0,0,-1,0,200)"/>
 <path d="M184,128.15 l0.8,-10.3 c6.4,-1.3,11.4,-6.2,12.3,-13 l-10.2,0.4 l1.3,-9.4 l20.9,0.3 c0.3,1.4,0.4,4.6,0.1,7.3 c-1.7,12,-10.1,23.1,-25.2,24.7 Z M156.8,98.75 c2.3,-16.6,15,-27.2,32.5,-27.2 c10.4,0,18.5,2.6,22.5,6.1 l-3.8,9.4 c-3.6,-3.2,-10.5,-4.8,-18.1,-4.8 c-9.1,0,-18.1,5.1,-19.7,14 l-3.7,28.3 c-7.8,-5,-11.3,-14.7,-9.7,-25.8 Z M259.2,72.95 l14.6,0 l-47.2,54.1 l-14.4,0 Z M254.8,111.45 l8.1,15.6 l-13.4,0 l-2.9,-5.8 Z M219.6,72.95 l13.8,0 l4,6.8 l-9.1,10.4 Z M285.7,51.35 l12.4,0 l-8.1,56.7 c1.2,4.2,5.6,10,13,10 c10,0,17.1,-7.3,18.7,-18.2 c1,-7.8,-1.7,-16.9,-11.4,-17.9 l0.8,-10.4 c15.7,0.3,25.1,12.7,22.6,29.9 c-2.1,14.9,-12.5,26.9,-28.4,26.9 c-8.4,0,-14.1,-4.8,-16.7,-9.3 l-1.3,8 l-12.3,0 Z M369.3,128.15 l0.8,-10.3 c6.4,-1.3,11.4,-6.2,12.3,-13 l-10.2,0.4 l1.3,-9.4 l20.9,0.3 c0.3,1.4,0.4,4.6,0.1,7.3 c-1.7,12,-10.1,23.1,-25.2,24.7 Z M342.1,98.75 c2.3,-16.6,15,-27.2,32.5,-27.2 c10.4,0,18.5,2.6,22.5,6.1 l-3.8,9.4 c-3.6,-3.2,-10.5,-4.8,-18.1,-4.8 c-9.1,0,-18.1,5.1,-19.7,14 l-3.7,28.3 c-7.8,-5,-11.3,-14.7,-9.7,-25.8 Z M433.1,71.75 l-0.8,10.1 c-8.6,1.1,-15.9,9.3,-17.3,19 c-1.5,10.5,4.4,17.6,13.4,17.6 c7.7,0,13.3,-4.7,15.8,-9 l4.3,-30.4 c2,-5.5,7.9,-7.3,11.5,-7.3 c5.6,0,9,2.4,10.2,5.1 l-3.8,6.1 c-0.3,-0.6,-1.1,-0.8,-2,-0.8 c-2.9,0,-4.3,2.8,-5,7.3 l-5.4,37.6 l-12,0 l0.9,-6.5 c-2.1,3,-8.1,7.8,-16.3,7.8 c-15.5,0,-25.9,-12.3,-23.6,-28.7 c2.1,-15.2,15.1,-27.5,30.1,-27.9 Z M475.9,94.55 l12.4,0 l-2,12.9 c2.6,5.3,6.9,9,12.8,9 c5.4,0,10.4,-4.2,11.3,-10.3 l4.6,-33.2 l12.3,0 l-4.7,34 c-2.1,14.8,-9,21.4,-21.3,21.4 c-8.5,0,-14.1,-5.3,-16.3,-9 l-1.3,7.7 l-12.4,0 Z M532.2,116.65 l34.7,0 l-1.5,10.4 l-13.8,0 l-2.3,16.5 l-12.3,-0.7 l2.2,-15.8 l-8.5,0 Z M563.9,71.55 c6,0,10.2,2.2,12.3,4.7 l-4,9.1 c-1.5,-1.7,-3.7,-2.5,-6.8,-2.5 c-4.3,0,-8,3.2,-8.8,8.6 l-0.4,3.1 l-12.4,0 l0.5,-3.9 c2,-13.6,8.9,-19.1,19.6,-19.1 Z M586.8,72.95 l12.4,0 l-11,78.7 l-12.3,-0.7 Z M621.4,94.55 l3.8,14.8 l-10.9,17.7 l-13.6,0 Z M618.1,50.25 c12.8,0,21.1,8.8,25.4,26.3 l12.6,50.5 l-13,0 l-11.6,-48.1 c-3.2,-12.6,-10,-18.4,-17.3,-18.4 c-2.5,0,-4.1,0.6,-5.1,1.1 l4.7,-10.5 c0.7,-0.4,2.7,-0.9,4.3,-0.9 Z M618.1,50.25" fill="rgb(0,0,0)" transform="matrix(1,0,0,-1,0,200)"/>
</svg>