<?xml version="1.0" encoding="UTF-8"?>
<svg height="200" version="1.1" width="800" xmlns="http://www.w3.org/2000/svg" xmlns:xlink="http://www.w3.org/1999/xlink">
 <path d="M0,0 l800,0 l0,200 l-800,0 Z M0,0" fill="rgb(255,255,255)" transform="matrix(1,0,0,-1,0,200)"/>
 <path d="M274.12,125.93 l0.4,-5.15 c3.2,-0.65,5.7,-3.1,6.15,-6.5 l-5.1,0.2 l0.65,-4.7 l10.45,0.15 c0.15,0.7,0.2,2.3,0.05,3.65 c-0.85,6,-5.05,11.55,-12.6,12.35 Z M260.52,111.23 c1.15,-8.3,7.5,-13.6,16.25,-13.6 c5.2,0,9.25,1.3,11.25,3.05 l-1.9,4.7 c-1.8,-1.6,-5.25,-2.4,-9.05,-2.4 c-4.55,0,-9.05,2.55,-9.85,7 l-1.85,14.15 c-3.9,-2.5,-5.65,-7.35,-4.85,-12.9 Z M311.72,98.33 l7.3,0 l-23.6,27.05 l-7.2,0 Z M309.52,117.58 l4.05,7.8 l-6.7,0 l-1.45,-2.9 Z M291.92,98.33 l6.9,0 l2,3.4 l-4.55,5.2 Z M324.98,87.53 l6.2,0 l-4.05,28.35 c0.6,2.1,2.8,5,6.5,5 c5,0,8.55,-3.65,9.35,-9.1 c0.5,-3.9,-0.85,-8.45,-5.7,-8.95 l0.4,-5.2 c7.85,0.15,12.55,6.35,11.3,14.95 c-1.05,7.45,-6.25,13.45,-14.2,13.45 c-4.2,0,-7.05,-2.4,-8.35,-4.65 l-0.65,4 l-6.15,0 Z M366.78,125.93 l0.4,-5.15 c3.2,-0.65,5.7,-3.1,6.15,-6.5 l-5.1,0.2 l0.65,-4.7 l10.45,0.15 c0.15,0.7,0.2,2.3,0.05,3.65 c-0.85,6,-5.05,11.55,-12.6,12.35 Z M353.18,111.23 c1.15,-8.3,7.5,-13.6,16.25,-13.6 c5.2,0,9.25,1.3,11.25,3.05 l-1.9,4.7 c-1.8,-1.6,-5.25,-2.4,-9.05,-2.4 c-4.55,0,-9.05,2.55,-9.85,7 l-1.85,14.15 c-3.9,-2.5,-5.65,-7.35,-4.85,-12.9 Z M397.38,120.62 c3.05,0,5.75,-1,7.25,-2.25 l1.25,5.55 c-2.4,1.35,-5.6,2.1,-8.95,2.1 Z M383.62,111.48 c1.05,-7.4,7.45,-13.85,16.8,-13.85 c4.5,0,7.3,1.25,9.25,2.75 l-2.2,5.1 c-1.05,-1.55,-3.7,-2.5,-7.15,-2.5 c-5.95,0,-9.95,4.4,-10.6,9.05 l-1.45,11.35 c-3.6,-2.6,-5.3,-7.05,-4.65,-11.9 Z M411.02,120.18 l17.35,0 l-0.75,5.2 l-6.9,0 l-1.15,8.25 l-6.15,-0.35 l1.1,-7.9 l-4.25,0 Z M426.88,97.62 c3,0,5.1,1.1,6.15,2.35 l-2,4.55 c-0.75,-0.85,-1.85,-1.25,-3.4,-1.25 c-2.15,0,-4,1.6,-4.4,4.3 l-0.2,1.55 l-6.2,0 l0.25,-1.95 c1,-6.8,4.45,-9.55,9.8,-9.55 Z M436.88,130.72 c2.45,0,3.6,1.95,3.3,3.85 c-0.2,1.65,-1.65,3.2,-3.65,3.2 c-2.4,0,-3.7,-1.95,-3.45,-3.9 c0.25,-1.6,1.6,-3.15,3.8,-3.15 Z M438.52,98.33 l6.2,0 l-3.8,27.2 l-6.15,-0.4 Z M466.23,98.33 l-14.6,27.05 l-6.45,0 l14.6,-27.05 Z M464.83,116.88 l4.15,-7.75 l4.3,16.25 l-6.3,0 Z M491.08,125.93 l0.4,-5.15 c3.2,-0.65,5.7,-3.1,6.15,-6.5 l-5.1,0.2 l0.65,-4.7 l10.45,0.15 c0.15,0.7,0.2,2.3,0.05,3.65 c-0.85,6,-5.05,11.55,-12.6,12.35 Z M477.48,111.23 c1.15,-8.3,7.5,-13.6,16.25,-13.6 c5.2,0,9.25,1.3,11.25,3.05 l-1.9,4.7 c-1.8,-1.6,-5.25,-2.4,-9.05,-2.4 c-4.55,0,-9.05,2.55,-9.85,7 l-1.85,14.15 c-3.9,-2.5,-5.65,-7.35,-4.85,-12.9 Z M511.28,98.33 l6.2,0 l-5.5,39.35 l-6.15,-0.35 Z M528.57,109.12 l1.9,7.4 l-5.45,8.85 l-6.8,0 Z M526.92,86.97 c6.4,0,10.55,4.4,12.7,13.15 l6.3,25.25 l-6.5,0 l-5.8,-24.05 c-1.6,-6.3,-5,-9.2,-8.65,-9.2 c-1.25,0,-2.05,0.3,-2.55,0.55 l2.35,-5.25 c0.35,-0.2,1.35,-0.45,2.15,-0.45 Z M526.92,86.97" fill="rgb(0,0,0)" transform="matrix(1,0,0,-1,0,200)"/>
</svg>