<?xml version="1.0" encoding="UTF-8"?>
<svg height="200" version="1.1" width="800" xmlns="http://www.w3.org/2000/svg" xmlns:xlink="http://www.w3.org/1999/xlink">
 <path d="M0,0 l800,0 l0,200 l-800,0 Z M0,0" fill="rgb(255,255,255)" transform="matrix(1,0,0,-1,0,200)"/>
 <path d="M341.78,120.23 l17.6,0 l-0.75,5.15 l-7.2,0 l-0.4,2.9 c-0.45,3.3,0.7,4.5,2.45,4.5 c2,0,3.15,-0.55,3.8,-0.95 l0.75,4.85 c-1.15,0.8,-2.9,1.4,-5.35,1.4 c-5.25,0,-8.65,-3.4,-7.75,-10.2 l0.35,-2.5 l-4.25,0 Z M348.12,86.97 c5.25,0,8.05,4.4,7,11.7 l-1.45,10.45 l-6.1,0 l1.6,-11.25 c0.35,-2.8,-0.75,-5,-3.3,-5 c-0.9,0,-1.9,0.2,-2.55,0.55 l2.75,-5.95 c0.35,-0.2,1.35,-0.5,2.05,-0.5 Z M386.68,98.12 c6.6,1.55,10.05,7.35,9.1,14.15 c-0.85,6.2,-5.75,11.65,-12.65,13.35 l0.5,-5.9 c3.2,-1.5,5.55,-4.7,6.05,-8.25 c0.5,-3.4,-0.65,-6.35,-3.5,-7.7 Z M378.58,98.03 l-0.5,5.9 c-3.2,1.4,-5.5,4.5,-6.05,8.25 c-0.45,3.25,0.75,6.2,3.5,7.7 l-0.5,5.6 c-6.35,-1.7,-9.95,-7.5,-9.05,-14 c0.95,-6.55,5.6,-11.9,12.6,-13.45 Z M401.78,130.72 c2.45,0,3.6,1.95,3.3,3.85 c-0.2,1.65,-1.65,3.2,-3.65,3.2 c-2.4,0,-3.7,-1.95,-3.45,-3.9 c0.25,-1.6,1.6,-3.15,3.8,-3.15 Z M403.43,98.33 l6.2,0 l-3.8,27.2 l-6.15,-0.4 Z M416.93,98.33 l6.2,0 l-5.5,39.35 l-6.15,-0.35 Z M430.13,98.33 l6.2,0 l-5.5,39.35 l-6.15,-0.35 Z M447.43,109.12 l1.9,7.4 l-5.45,8.85 l-6.8,0 Z M445.78,86.97 c6.4,0,10.55,4.4,12.7,13.15 l6.3,25.25 l-6.5,0 l-5.8,-24.05 c-1.6,-6.3,-5,-9.2,-8.65,-9.2 c-1.25,0,-2.05,0.3,-2.55,0.55 l2.35,-5.25 c0.35,-0.2,1.35,-0.45,2.15,-0.45 Z M445.78,86.97" fill="rgb(0,0,0)" transform="matrix(1,0,0,-1,0,200)"/>
</svg>