<?xml version="1.0" encoding="UTF-8"?>
<svg height="200" version="1.1" width="800" xmlns="http://www.w3.org/2000/svg" xmlns:xlink="http://www.w3.org/1999/xlink">
 <path d="M0,0 l800,0 l0,200 l-800,0 Z M0,0" fill="rgb(255,255,255)" transform="matrix(1,0,0,-1,0,200)"/>
 <path d="M244.9,139.45 l35.2,0 l-1.5,10.3 l-14.4,0 l-0.8,5.8 c-0.9,6.6,1.4,9,4.9,9 c4,0,6.3,-1.1,7.6,-1.9 l1.5,9.7 c-2.3,1.6,-5.8,2.8,-10.7,2.8 c-10.5,0,-17.3,-6.8,-15.5,-20.4 l0.7,-5 l-8.5,0 Z M257.6,72.95 c10.5,0,16.1,8.8,14,23.4 l-2.9,20.9 l-12.2,0 l3.2,-22.5 c0.7,-5.6,-1.5,-10,-6.6,-10 c-1.8,0,-3.8,0.4,-5.1,1.1 l5.5,-11.9 c0.7,-0.4,2.7,-1,4.1,-1 Z M334.7,95.25 c13.2,3.1,20.1,14.7,18.2,28.3 c-1.7,12.4,-11.5,23.3,-25.3,26.7 l1,-11.8 c6.4,-3,11.1,-9.4,12.1,-16.5 c1,-6.8,-1.3,-12.7,-7,-15.4 Z M318.5,95.05 l-1,11.8 c-6.4,2.8,-11,9,-12.1,16.5 c-0.9,6.5,1.5,12.4,7,15.4 l-1,11.2 c-12.7,-3.4,-19.9,-15,-18.1,-28.0 c1.9,-13.1,11.2,-23.8,25.2,-26.9 Z M367.8,95.65 l12.4,0 l-11,78.7 l-12.3,-0.7 Z M414.8,150.85 l0.8,-10.3 c6.4,-1.3,11.4,-6.2,12.3,-13 l-10.2,0.4 l1.3,-9.4 l20.9,0.3 c0.3,1.4,0.4,4.6,0.1,7.3 c-1.7,12,-10.1,23.1,-25.2,24.7 Z M387.6,121.45 c2.3,-16.6,15,-27.2,32.5,-27.2 c10.4,0,18.5,2.6,22.5,6.1 l-3.8,9.4 c-3.6,-3.2,-10.5,-4.8,-18.1,-4.8 c-9.1,0,-18.1,5.1,-19.7,14 l-3.7,28.3 c-7.8,-5,-11.3,-14.7,-9.7,-25.8 Z M451.2,117.25 l12.4,0 l-2,12.9 c2.6,5.3,6.9,9,12.8,9 c5.4,0,10.4,-4.2,11.3,-10.3 l4.6,-33.2 l12.3,0 l-4.7,34 c-2.1,14.8,-9,21.4,-21.3,21.4 c-8.5,0,-14.1,-5.3,-16.3,-9 l-1.3,7.7 l-12.4,0 Z M540,94.25 l-0.8,10.3 c-8,0.9,-15.6,8,-17.1,18.5 c-1.6,11,4.3,18.2,13.2,18.2 c7.7,0,13.2,-4.8,15.8,-9.1 l4.4,-31 c0.6,-3.5,3.4,-6,4.9,-7.1 l9.8,4.3 c-1.6,2.4,-2.8,6.4,-3.5,11.3 l-9.1,64.7 l-12.2,-0.7 l4.2,-28.8 c-2.6,2.8,-7.7,6.2,-16,6.2 c-15.6,0,-25.9,-12.9,-23.6,-29.4 c2.3,-16.2,13.9,-27.4,30,-27.4 Z M540,94.25" fill="rgb(0,0,0)" transform="matrix(1,0,0,-1,0,200)"/>
</svg>