<?xml version="1.0" encoding="UTF-8"?>
<svg height="200" version="1.1" width="800" xmlns="http://www.w3.org/2000/svg" xmlns:xlink="http://www.w3.org/1999/xlink">
 <path d="M0,0 l800,0 l0,200 l-800,0 Z M0,0" fill="rgb(255,255,255)" transform="matrix(1,0,0,-1,0,200)"/>
 <path d="M265.65,130.72 c2.45,0,3.6,1.95,3.3,3.85 c-0.2,1.65,-1.65,3.2,-3.65,3.2 c-2.4,0,-3.7,-1.95,-3.45,-3.9 c0.25,-1.6,1.6,-3.15,3.8,-3.15 Z M267.3,98.33 l6.2,0 l-3.8,27.2 l-6.15,-0.4 Z M278.8,109.12 l6.2,0 l-1,6.45 c1.3,2.65,3.45,4.5,6.4,4.5 c2.7,0,5.2,-2.1,5.65,-5.15 l2.3,-16.6 l6.15,0 l-2.35,17 c-1.05,7.4,-4.5,10.7,-10.65,10.7 c-4.25,0,-7.05,-2.65,-8.15,-4.5 l-0.65,3.85 l-6.2,0 Z M323.2,97.62 l-0.4,5.15 c-4,0.45,-7.8,4,-8.55,9.25 c-0.8,5.5,2.15,9.1,6.6,9.1 c3.85,0,6.6,-2.4,7.9,-4.55 l2.2,-15.5 c0.3,-1.75,1.7,-3,2.45,-3.55 l4.9,2.15 c-0.8,1.2,-1.4,3.2,-1.75,5.65 l-4.55,32.35 l-6.1,-0.35 l2.1,-14.4 c-1.3,1.4,-3.85,3.1,-8,3.1 c-7.8,0,-12.95,-6.45,-11.8,-14.7 c1.15,-8.1,6.95,-13.7,15,-13.7 Z M343.7,130.72 c2.45,0,3.6,1.95,3.3,3.85 c-0.2,1.65,-1.65,3.2,-3.65,3.2 c-2.4,0,-3.7,-1.95,-3.45,-3.9 c0.25,-1.6,1.6,-3.15,3.8,-3.15 Z M345.35,98.33 l6.2,0 l-3.8,27.2 l-6.15,-0.4 Z M373.05,98.33 l-14.6,27.05 l-6.45,0 l14.6,-27.05 Z M371.65,116.88 l4.15,-7.75 l4.3,16.25 l-6.3,0 Z M386.5,130.72 c2.45,0,3.6,1.95,3.3,3.85 c-0.2,1.65,-1.65,3.2,-3.65,3.2 c-2.4,0,-3.7,-1.95,-3.45,-3.9 c0.25,-1.6,1.6,-3.15,3.8,-3.15 Z M388.15,98.33 l6.2,0 l-3.8,27.2 l-6.15,-0.4 Z M413.35,97.62 l-0.4,5.15 c-4,0.45,-7.8,4,-8.55,9.25 c-0.8,5.5,2.15,9.1,6.6,9.1 c3.85,0,6.6,-2.4,7.9,-4.55 l2.2,-15.5 c0.3,-1.75,1.7,-3,2.45,-3.55 l4.9,2.15 c-0.8,1.2,-1.4,3.2,-1.75,5.65 l-4.55,32.35 l-6.1,-0.35 l2.1,-14.4 c-1.3,1.4,-3.85,3.1,-8,3.1 c-7.8,0,-12.95,-6.45,-11.8,-14.7 c1.15,-8.1,6.95,-13.7,15,-13.7 Z M445.6,125.93 l0.4,-5.15 c3.2,-0.65,5.7,-3.1,6.15,-6.5 l-5.1,0.2 l0.65,-4.7 l10.45,0.15 c0.15,0.7,0.2,2.3,0.05,3.65 c-0.85,6,-5.05,11.55,-12.6,12.35 Z M432,111.23 c1.15,-8.3,7.5,-13.6,16.25,-13.6 c5.2,0,9.25,1.3,11.25,3.05 l-1.9,4.7 c-1.8,-1.6,-5.25,-2.4,-9.05,-2.4 c-4.55,0,-9.05,2.55,-9.85,7 l-1.85,14.15 c-3.9,-2.5,-5.65,-7.35,-4.85,-12.9 Z M464.3,109.12 l6.15,0 l-1.05,7.15 c0.8,2.6,2.35,4.3,4.95,4.3 c1.5,0,2.5,-0.75,3.1,-1.45 l0.95,6.05 c-0.9,0.55,-2.05,0.85,-3.15,0.85 c-3.7,0,-5.6,-1.7,-6.55,-3.8 l-0.55,3.15 l-6.15,0 Z M496.65,125.93 l0.4,-5.15 c3.2,-0.65,5.7,-3.1,6.15,-6.5 l-5.1,0.2 l0.65,-4.7 l10.45,0.15 c0.15,0.7,0.2,2.3,0.05,3.65 c-0.85,6,-5.05,11.55,-12.6,12.35 Z M483.05,111.23 c1.15,-8.3,7.5,-13.6,16.25,-13.6 c5.2,0,9.25,1.3,11.25,3.05 l-1.9,4.7 c-1.8,-1.6,-5.25,-2.4,-9.05,-2.4 c-4.55,0,-9.05,2.55,-9.85,7 l-1.85,14.15 c-3.9,-2.5,-5.65,-7.35,-4.85,-12.9 Z M528.55,97.62 l-0.4,5.15 c-4,0.45,-7.8,4,-8.55,9.25 c-0.8,5.5,2.15,9.1,6.6,9.1 c3.85,0,6.6,-2.4,7.9,-4.55 l2.2,-15.5 c0.3,-1.75,1.7,-3,2.45,-3.55 l4.9,2.15 c-0.8,1.2,-1.4,3.2,-1.75,5.65 l-4.55,32.35 l-6.1,-0.35 l2.1,-14.4 c-1.3,1.4,-3.85,3.1,-8,3.1 c-7.8,0,-12.95,-6.45,-11.8,-14.7 c1.15,-8.1,6.95,-13.7,15,-13.7 Z M528.55,97.62" fill="rgb(0,0,0)" transform="matrix(1,0,0,-1,0,200)"/>
</svg>