<?xml version="1.0" encoding="UTF-8"?>
<svg height="200" version="1.1" width="800" xmlns="http://www.w3.org/2000/svg" xmlns:xlink="http://www.w3.org/1999/xlink">
 <path d="M0,0 l800,0 l0,200 l-800,0 Z M0,0" fill="rgb(255,255,255)" transform="matrix(1,0,0,-1,0,200)"/>
 <path d="M242.8,72.95 l12.4,0 l-11,78.7 l-12.3,-0.7 Z M289.8,128.15 l0.8,-10.3 c6.4,-1.3,11.4,-6.2,12.3,-13 l-10.2,0.4 l1.3,-9.4 l20.9,0.3 c0.3,1.4,0.4,4.6,0.1,7.3 c-1.7,12,-10.1,23.1,-25.2,24.7 Z M262.6,98.75 c2.3,-16.6,15,-27.2,32.5,-27.2 c10.4,0,18.5,2.6,22.5,6.1 l-3.8,9.4 c-3.6,-3.2,-10.5,-4.8,-18.1,-4.8 c-9.1,0,-18.1,5.1,-19.7,14 l-3.7,28.3 c-7.8,-5,-11.3,-14.7,-9.7,-25.8 Z M351,117.55 c6.1,0,11.5,-2,14.5,-4.5 l2.5,11.1 c-4.8,2.7,-11.2,4.2,-17.9,4.2 Z M323.5,99.25 c2.1,-14.8,14.9,-27.7,33.6,-27.7 c9,0,14.6,2.5,18.5,5.5 l-4.4,10.2 c-2.1,-3.1,-7.4,-5,-14.3,-5 c-11.9,0,-19.9,8.8,-21.2,18.1 l-2.9,22.7 c-7.2,-5.2,-10.6,-14.1,-9.3,-23.8 Z M384.5,137.75 c4.9,0,7.2,3.9,6.6,7.7 c-0.4,3.3,-3.3,6.4,-7.3,6.4 c-4.8,0,-7.4,-3.9,-6.9,-7.8 c0.5,-3.2,3.2,-6.3,7.6,-6.3 Z M387.8,72.95 l12.4,0 l-7.6,54.4 l-12.3,-0.8 Z M435.4,128.15 l0.8,-10.3 c6.4,-1.3,11.4,-6.2,12.3,-13 l-10.2,0.4 l1.3,-9.4 l20.9,0.3 c0.3,1.4,0.4,4.6,0.1,7.3 c-1.7,12,-10.1,23.1,-25.2,24.7 Z M408.2,98.75 c2.3,-16.6,15,-27.2,32.5,-27.2 c10.4,0,18.5,2.6,22.5,6.1 l-3.8,9.4 c-3.6,-3.2,-10.5,-4.8,-18.1,-4.8 c-9.1,0,-18.1,5.1,-19.7,14 l-3.7,28.3 c-7.8,-5,-11.3,-14.7,-9.7,-25.8 Z M502.3,72.95 l-29.2,54.1 l-12.9,0 l29.2,-54.1 Z M499.5,110.05 l8.3,-15.5 l8.6,32.5 l-12.6,0 Z M552,128.15 l0.8,-10.3 c6.4,-1.3,11.4,-6.2,12.3,-13 l-10.2,0.4 l1.3,-9.4 l20.9,0.3 c0.3,1.4,0.4,4.6,0.1,7.3 c-1.7,12,-10.1,23.1,-25.2,24.7 Z M524.8,98.75 c2.3,-16.6,15,-27.2,32.5,-27.2 c10.4,0,18.5,2.6,22.5,6.1 l-3.8,9.4 c-3.6,-3.2,-10.5,-4.8,-18.1,-4.8 c-9.1,0,-18.1,5.1,-19.7,14 l-3.7,28.3 c-7.8,-5,-11.3,-14.7,-9.7,-25.8 Z M524.8,98.75" fill="rgb(0,0,0)" transform="matrix(1,0,0,-1,0,200)"/>
</svg>