<?xml version="1.0" encoding="UTF-8"?>
<svg height="200" version="1.1" width="800" xmlns="http://www.w3.org/2000/svg" xmlns:xlink="http://www.w3.org/1999/xlink">
 <path d="M0,0 l800,0 l0,200 l-800,0 Z M0,0" fill="rgb(255,255,255)" transform="matrix(1,0,0,-1,0,200)"/>
 <path d="M278.15,95.65 l12.4,0 l-5.4,37.2 c1.9,3.9,5.8,7,10.6,7 c5.4,0,10,-4.4,10.9,-10.7 l1.7,-11.9 l12.2,0 l-1.8,12.7 c-1.9,13.6,-8.8,21.1,-20.5,21.1 c-8.6,0,-13.7,-4.4,-16.6,-8 c-2.7,4.2,-7.3,8,-15,8 c-7.4,0,-13.5,-4.5,-16.1,-8.2 l-1.2,6.9 l-12.4,0 l4.6,-32.5 l12.4,0 l-2.3,15 c2.2,4.1,7,7.3,11.6,7.3 c5.3,0,9.3,-4.1,10.2,-10.1 Z M333.65,160.45 c4.9,0,7.2,3.9,6.6,7.7 c-0.4,3.3,-3.3,6.4,-7.3,6.4 c-4.8,0,-7.4,-3.9,-6.9,-7.8 c0.5,-3.2,3.2,-6.3,7.6,-6.3 Z M336.95,95.65 l12.4,0 l-7.6,54.4 l-12.3,-0.8 Z M363.95,95.65 l12.4,0 l-11,78.7 l-12.3,-0.7 Z M390.35,95.65 l12.4,0 l-11,78.7 l-12.3,-0.7 Z M440.15,94.45 l-0.8,10.1 c-8.6,1.1,-15.9,9.3,-17.3,19 c-1.5,10.5,4.4,17.6,13.4,17.6 c7.7,0,13.3,-4.7,15.8,-9 l4.3,-30.4 c2,-5.5,7.9,-7.3,11.5,-7.3 c5.6,0,9,2.4,10.2,5.1 l-3.8,6.1 c-0.3,-0.6,-1.1,-0.8,-2,-0.8 c-2.9,0,-4.3,2.8,-5,7.3 l-5.4,37.6 l-12,0 l0.9,-6.5 c-2.1,3,-8.1,7.8,-16.3,7.8 c-15.5,0,-25.9,-12.3,-23.6,-28.7 c2.1,-15.2,15.1,-27.5,30.1,-27.9 Z M507.75,140.25 c6.1,0,11.5,-2,14.5,-4.5 l2.5,11.1 c-4.8,2.7,-11.2,4.2,-17.9,4.2 Z M480.25,121.95 c2.1,-14.8,14.9,-27.7,33.6,-27.7 c9,0,14.6,2.5,18.5,5.5 l-4.4,10.2 c-2.1,-3.1,-7.4,-5,-14.3,-5 c-11.9,0,-19.9,8.8,-21.2,18.1 l-2.9,22.7 c-7.2,-5.2,-10.6,-14.1,-9.3,-23.8 Z M535.05,139.35 l34.7,0 l-1.5,10.4 l-13.8,0 l-2.3,16.5 l-12.3,-0.7 l2.2,-15.8 l-8.5,0 Z M566.75,94.25 c6,0,10.2,2.2,12.3,4.7 l-4,9.1 c-1.5,-1.7,-3.7,-2.5,-6.8,-2.5 c-4.3,0,-8,3.2,-8.8,8.6 l-0.4,3.1 l-12.4,0 l0.5,-3.9 c2,-13.6,8.9,-19.1,19.6,-19.1 Z M566.75,94.25" fill="rgb(0,0,0)" transform="matrix(1,0,0,-1,0,200)"/>
</svg>