<?xml version="1.0" encoding="UTF-8"?>
<svg height="200" version="1.1" width="800" xmlns="http://www.w3.org/2000/svg" xmlns:xlink="http://www.w3.org/1999/xlink">
 <path d="M0,0 l800,0 l0,200 l-800,0 Z M0,0" fill="rgb(255,255,255)" transform="matrix(1,0,0,-1,0,200)"/>
 <path d="M274.4,117.25 l3.8,17.7 l-6.1,14.8 l-12.6,0 Z M284.7,95.65 l10.4,0 l7.3,36.9 l17.1,-36.9 l11.9,0 l-25.1,54.1 l-11.7,0 Z M335.2,117.35 l5.9,32.4 l-12.3,0 l-1.9,-13.6 Z M356.8,95.65 l12.4,0 l-5,34.5 c2.1,5.3,6.7,9,12.7,9 c6.4,0,10.4,-4.7,11.1,-10.1 l1.7,-11.8 l12.2,0 l-1.8,12.6 c-1.8,13.4,-9.1,21.2,-20.8,21.2 c-8.7,0,-14.2,-5.1,-16.4,-8.9 l-4.7,32.2 l-12.3,-0.7 Z M414,160.45 c4.9,0,7.2,3.9,6.6,7.7 c-0.4,3.3,-3.3,6.4,-7.3,6.4 c-4.8,0,-7.4,-3.9,-6.9,-7.8 c0.5,-3.2,3.2,-6.3,7.6,-6.3 Z M417.3,95.65 l12.4,0 l-7.6,54.4 l-12.3,-0.8 Z M465.1,140.25 c6.1,0,11.5,-2,14.5,-4.5 l2.5,11.1 c-4.8,2.7,-11.2,4.2,-17.9,4.2 Z M437.6,121.95 c2.1,-14.8,14.9,-27.7,33.6,-27.7 c9,0,14.6,2.5,18.5,5.5 l-4.4,10.2 c-2.1,-3.1,-7.4,-5,-14.3,-5 c-11.9,0,-19.9,8.8,-21.2,18.1 l-2.9,22.7 c-7.2,-5.2,-10.6,-14.1,-9.3,-23.8 Z M521.6,150.85 l0.8,-10.3 c6.4,-1.3,11.4,-6.2,12.3,-13 l-10.2,0.4 l1.3,-9.4 l20.9,0.3 c0.3,1.4,0.4,4.6,0.1,7.3 c-1.7,12,-10.1,23.1,-25.2,24.7 Z M494.4,121.45 c2.3,-16.6,15,-27.2,32.5,-27.2 c10.4,0,18.5,2.6,22.5,6.1 l-3.8,9.4 c-3.6,-3.2,-10.5,-4.8,-18.1,-4.8 c-9.1,0,-18.1,5.1,-19.7,14 l-3.7,28.3 c-7.8,-5,-11.3,-14.7,-9.7,-25.8 Z M494.4,121.45" fill="rgb(0,0,0)" transform="matrix(1,0,0,-1,0,200)"/>
</svg>