<?xml version="1.0" encoding="UTF-8"?>
<svg height="200" version="1.1" width="800" xmlns="http://www.w3.org/2000/svg" xmlns:xlink="http://www.w3.org/1999/xlink">
 <path d="M0,0 l800,0 l0,200 l-800,0 Z M0,0" fill="rgb(255,255,255)" transform="matrix(1,0,0,-1,0,200)"/>
 <path d="M198.4,117.25 l3.8,17.7 l-6.1,14.8 l-12.6,0 Z M208.7,95.65 l10.4,0 l7.3,36.9 l17.1,-36.9 l11.9,0 l-25.1,54.1 l-11.7,0 Z M259.2,117.35 l5.9,32.4 l-12.3,0 l-1.9,-13.6 Z M314.8,95.25 c13.2,3.1,20.1,14.7,18.2,28.3 c-1.7,12.4,-11.5,23.3,-25.3,26.7 l1,-11.8 c6.4,-3,11.1,-9.4,12.1,-16.5 c1,-6.8,-1.3,-12.7,-7,-15.4 Z M298.6,95.05 l-1,11.8 c-6.4,2.8,-11,9,-12.1,16.5 c-0.9,6.5,1.5,12.4,7,15.4 l-1,11.2 c-12.7,-3.4,-19.9,-15,-18.1,-28.0 c1.9,-13.1,11.2,-23.8,25.2,-26.9 Z M344.9,117.25 l12.3,0 l-2.1,14.3 c1.6,5.2,4.7,8.6,9.9,8.6 c3,0,5,-1.5,6.2,-2.9 l1.9,12.1 c-1.8,1.1,-4.1,1.7,-6.3,1.7 c-7.4,0,-11.2,-3.4,-13.1,-7.6 l-1.1,6.3 l-12.3,0 Z M423.7,95.25 c13.2,3.1,20.1,14.7,18.2,28.3 c-1.7,12.4,-11.5,23.3,-25.3,26.7 l1,-11.8 c6.4,-3,11.1,-9.4,12.1,-16.5 c1,-6.8,-1.3,-12.7,-7,-15.4 Z M407.5,95.05 l-1,11.8 c-6.4,2.8,-11,9,-12.1,16.5 c-0.9,6.5,1.5,12.4,7,15.4 l-1,11.2 c-12.7,-3.4,-19.9,-15,-18.1,-28.0 c1.9,-13.1,11.2,-23.8,25.2,-26.9 Z M477.6,140.25 c6.1,0,11.5,-2,14.5,-4.5 l2.5,11.1 c-4.8,2.7,-11.2,4.2,-17.9,4.2 Z M450.1,121.95 c2.1,-14.8,14.9,-27.7,33.6,-27.7 c9,0,14.6,2.5,18.5,5.5 l-4.4,10.2 c-2.1,-3.1,-7.4,-5,-14.3,-5 c-11.9,0,-19.9,8.8,-21.2,18.1 l-2.9,22.7 c-7.2,-5.2,-10.6,-14.1,-9.3,-23.8 Z M534.3,140.25 c6.1,0,11.5,-2,14.5,-4.5 l2.5,11.1 c-4.8,2.7,-11.2,4.2,-17.9,4.2 Z M506.8,121.95 c2.1,-14.8,14.9,-27.7,33.6,-27.7 c9,0,14.6,2.5,18.5,5.5 l-4.4,10.2 c-2.1,-3.1,-7.4,-5,-14.3,-5 c-11.9,0,-19.9,8.8,-21.2,18.1 l-2.9,22.7 c-7.2,-5.2,-10.6,-14.1,-9.3,-23.8 Z M604.9,95.25 c13.2,3.1,20.1,14.7,18.2,28.3 c-1.7,12.4,-11.5,23.3,-25.3,26.7 l1,-11.8 c6.4,-3,11.1,-9.4,12.1,-16.5 c1,-6.8,-1.3,-12.7,-7,-15.4 Z M588.7,95.05 l-1,11.8 c-6.4,2.8,-11,9,-12.1,16.5 c-0.9,6.5,1.5,12.4,7,15.4 l-1,11.2 c-12.7,-3.4,-19.9,-15,-18.1,-28.0 c1.9,-13.1,11.2,-23.8,25.2,-26.9 Z M588.7,95.05" fill="rgb(0,0,0)" transform="matrix(1,0,0,-1,0,200)"/>
</svg>