<?xml version="1.0" encoding="UTF-8"?>
<svg height="200" version="1.1" width="800" xmlns="http://www.w3.org/2000/svg" xmlns:xlink="http://www.w3.org/1999/xlink">
 <path d="M0,0 l800,0 l0,200 l-800,0 Z M0,0" fill="rgb(255,255,255)" transform="matrix(1,0,0,-1,0,200)"/>
 <path d="M219.7,74.05 l12.4,0 l-8.1,56.7 c1.2,4.2,5.6,10,13,10 c10,0,17.1,-7.3,18.7,-18.2 c1,-7.8,-1.7,-16.9,-11.4,-17.9 l0.8,-10.4 c15.7,0.3,25.1,12.7,22.6,29.9 c-2.1,14.9,-12.5,26.9,-28.4,26.9 c-8.4,0,-14.1,-4.8,-16.7,-9.3 l-1.3,8 l-12.3,0 Z M279.7,117.25 l12.3,0 l-2.1,14.3 c1.6,5.2,4.7,8.6,9.9,8.6 c3,0,5,-1.5,6.2,-2.9 l1.9,12.1 c-1.8,1.1,-4.1,1.7,-6.3,1.7 c-7.4,0,-11.2,-3.4,-13.1,-7.6 l-1.1,6.3 l-12.3,0 Z M344.4,150.85 l0.8,-10.3 c6.4,-1.3,11.4,-6.2,12.3,-13 l-10.2,0.4 l1.3,-9.4 l20.9,0.3 c0.3,1.4,0.4,4.6,0.1,7.3 c-1.7,12,-10.1,23.1,-25.2,24.7 Z M317.2,121.45 c2.3,-16.6,15,-27.2,32.5,-27.2 c10.4,0,18.5,2.6,22.5,6.1 l-3.8,9.4 c-3.6,-3.2,-10.5,-4.8,-18.1,-4.8 c-9.1,0,-18.1,5.1,-19.7,14 l-3.7,28.3 c-7.8,-5,-11.3,-14.7,-9.7,-25.8 Z M384.1,117.25 l3.8,17.7 l-6.1,14.8 l-12.6,0 Z M394.4,95.65 l10.4,0 l7.3,36.9 l17.1,-36.9 l11.9,0 l-25.1,54.1 l-11.7,0 Z M444.9,117.35 l5.9,32.4 l-12.3,0 l-1.9,-13.6 Z M463.6,160.45 c4.9,0,7.2,3.9,6.6,7.7 c-0.4,3.3,-3.3,6.4,-7.3,6.4 c-4.8,0,-7.4,-3.9,-6.9,-7.8 c0.5,-3.2,3.2,-6.3,7.6,-6.3 Z M466.9,95.65 l12.4,0 l-7.6,54.4 l-12.3,-0.8 Z M489.9,117.25 l12.4,0 l-2,12.9 c2.6,5.3,6.9,9,12.8,9 c5.4,0,10.4,-4.2,11.3,-10.3 l4.6,-33.2 l12.3,0 l-4.7,34 c-2.1,14.8,-9,21.4,-21.3,21.4 c-8.5,0,-14.1,-5.3,-16.3,-9 l-1.3,7.7 l-12.4,0 Z M581.9,114.25 c10.8,1.8,16.4,9.2,15.1,18.7 c-0.4,2.7,-1.7,5.6,-3.4,7.2 c1.1,1.4,3.3,2,6.2,2 l-0.6,8.9 c-5.6,0,-9,-2.4,-10.8,-4.8 c-3,2.3,-6.4,3.8,-11,4.5 l0.8,-10.2 c4,-1.4,7.1,-4.8,7.7,-9 c0.5,-3.5,-1,-6.1,-4.7,-7.5 Z M552.8,110.05 c1.1,-7.5,12,-12.9,25.2,-12.1 c7,0.4,11.7,-0.8,14.4,-2.5 l14.1,0.5 c-3.2,7.5,-11.2,12.1,-24.8,11.5 c-10.9,-0.4,-17.8,1.7,-18.4,5.9 c-0.1,1.3,0.4,2.7,0.9,3 c1.8,-1,4.1,-1.7,6.9,-2.2 l-0.8,10.1 c-4,1.5,-7.1,4.7,-7.7,8.7 c-0.5,3.6,1.3,6.3,4.8,7.7 l-0.8,9.8 c-9.8,-1.9,-16.7,-9.2,-15.3,-18.9 c0.8,-5.9,4.4,-9.5,6.7,-11.2 c-2.2,-0.9,-5.9,-4.9,-5.2,-10.3 Z M555.1,90.55 c1.5,-10.9,11.6,-17.8,28.9,-17.8 c11.9,0,20.4,4,23,11 l-23.6,-0.3 c-10.9,0,-16.1,3.8,-16.9,7 l-11.3,3.3 c-0.2,-0.9,-0.3,-2,-0.1,-3.2 Z M555.1,90.55" fill="rgb(0,0,0)" transform="matrix(1,0,0,-1,0,200)"/>
</svg>