<?xml version="1.0" encoding="UTF-8"?>
<svg height="200" version="1.1" width="800" xmlns="http://www.w3.org/2000/svg" xmlns:xlink="http://www.w3.org/1999/xlink">
 <path d="M0,0 l800,0 l0,200 l-800,0 Z M0,0" fill="rgb(255,255,255)" transform="matrix(1,0,0,-1,0,200)"/>
 <path d="M172.1,117.25 l12.3,0 l-2.1,14.3 c1.6,5.2,4.7,8.6,9.9,8.6 c3,0,5,-1.5,6.2,-2.9 l1.9,12.1 c-1.8,1.1,-4.1,1.7,-6.3,1.7 c-7.4,0,-11.2,-3.4,-13.1,-7.6 l-1.1,6.3 l-12.3,0 Z M236.8,150.85 l0.8,-10.3 c6.4,-1.3,11.4,-6.2,12.3,-13 l-10.2,0.4 l1.3,-9.4 l20.9,0.3 c0.3,1.4,0.4,4.6,0.1,7.3 c-1.7,12,-10.1,23.1,-25.2,24.7 Z M209.6,121.45 c2.3,-16.6,15,-27.2,32.5,-27.2 c10.4,0,18.5,2.6,22.5,6.1 l-3.8,9.4 c-3.6,-3.2,-10.5,-4.8,-18.1,-4.8 c-9.1,0,-18.1,5.1,-19.7,14 l-3.7,28.3 c-7.8,-5,-11.3,-14.7,-9.7,-25.8 Z M321.9,74.05 l12.3,0 l-10.7,75.7 l-12.3,0 l1,-5.8 c-1.8,2.4,-7.5,7.1,-16.8,7.1 c-17.1,0,-27.2,-12.6,-24.8,-29.3 c2.2,-16,15.4,-27.5,31.2,-27.5 l1,0 l-1.1,10.7 c-9.5,0.3,-17.5,7.7,-19,18.2 c-1.5,10.5,5,17.7,14.4,17.7 c8.8,0,14.5,-5.3,16.6,-9.6 Z M364.3,94.25 l-0.9,11 c-4,0.8,-7.9,3.9,-8.6,9.4 l-5,35.1 l-12.3,0 l5.1,-35.9 c1.9,-14,11.3,-19.5,21.7,-19.6 Z M384.2,93.95 l10.4,4.4 c-1.6,2.4,-2.8,6.4,-3.5,11.3 l-5.7,40.1 l-12.4,0 l6.8,-48.3 c0.8,-3.7,3.2,-6.3,4.4,-7.5 Z M405.4,160.45 c4.9,0,7.2,3.9,6.6,7.7 c-0.4,3.3,-3.3,6.4,-7.3,6.4 c-4.8,0,-7.4,-3.9,-6.9,-7.8 c0.5,-3.2,3.2,-6.3,7.6,-6.3 Z M408.7,95.65 l12.4,0 l-7.6,54.4 l-12.3,-0.8 Z M431.7,117.25 l12.4,0 l-2,12.9 c2.6,5.3,6.9,9,12.8,9 c5.4,0,10.4,-4.2,11.3,-10.3 l4.6,-33.2 l12.3,0 l-4.7,34 c-2.1,14.8,-9,21.4,-21.3,21.4 c-8.5,0,-14.1,-5.3,-16.3,-9 l-1.3,7.7 l-12.4,0 Z M517.7,150.85 l0.8,-10.3 c6.4,-1.3,11.4,-6.2,12.3,-13 l-10.2,0.4 l1.3,-9.4 l20.9,0.3 c0.3,1.4,0.4,4.6,0.1,7.3 c-1.7,12,-10.1,23.1,-25.2,24.7 Z M490.5,121.45 c2.3,-16.6,15,-27.2,32.5,-27.2 c10.4,0,18.5,2.6,22.5,6.1 l-3.8,9.4 c-3.6,-3.2,-10.5,-4.8,-18.1,-4.8 c-9.1,0,-18.1,5.1,-19.7,14 l-3.7,28.3 c-7.8,-5,-11.3,-14.7,-9.7,-25.8 Z M564.8,120.15 l-1.8,15 c-0.5,3.6,4.2,5.9,10.6,5.9 c7.9,0,15.1,-3.9,16.7,-6 l2,9.9 c-1.3,1.3,-8.2,6.1,-18.8,6.1 c-13.5,0,-24.2,-6.8,-22.7,-17.6 c1.1,-7.6,6.8,-11.2,14,-13.3 Z M590.1,96.05 c7.6,2.6,11.3,8.4,10,17.3 c-1.2,8.7,-7.7,11.9,-19.6,14.5 l1,-11.5 c3.8,-1.2,6.5,-3.1,6.8,-5.5 Z M574.1,94.35 l-0.8,10.5 c-8.1,0.8,-15.3,4.6,-17.7,7.1 l-0.3,-11.9 c2.5,-1.7,8.6,-5.1,18.8,-5.7 Z M605.5,139.35 l34.7,0 l-1.5,10.4 l-13.8,0 l-2.3,16.5 l-12.3,-0.7 l2.2,-15.8 l-8.5,0 Z M637.2,94.25 c6,0,10.2,2.2,12.3,4.7 l-4,9.1 c-1.5,-1.7,-3.7,-2.5,-6.8,-2.5 c-4.3,0,-8,3.2,-8.8,8.6 l-0.4,3.1 l-12.4,0 l0.5,-3.9 c2,-13.6,8.9,-19.1,19.6,-19.1 Z M637.2,94.25" fill="rgb(0,0,0)" transform="matrix(1,0,0,-1,0,200)"/>
</svg>