<?xml version="1.0" encoding="UTF-8"?>
<svg height="200" version="1.1" width="800" xmlns="http://www.w3.org/2000/svg" xmlns:xlink="http://www.w3.org/1999/xlink">
 <path d="M0,0 l800,0 l0,200 l-800,0 Z M0,0" fill="rgb(255,255,255)" transform="matrix(1,0,0,-1,0,200)"/>
 <path d="M274.75,117.25 l12.3,0 l-2.1,14.3 c1.6,5.2,4.7,8.6,9.9,8.6 c3,0,5,-1.5,6.2,-2.9 l1.9,12.1 c-1.8,1.1,-4.1,1.7,-6.3,1.7 c-7.4,0,-11.2,-3.4,-13.1,-7.6 l-1.1,6.3 l-12.3,0 Z M339.45,94.25 l-0.9,11 c-4,0.8,-7.9,3.9,-8.6,9.4 l-5,35.1 l-12.3,0 l5.1,-35.9 c1.9,-14,11.3,-19.5,21.7,-19.6 Z M359.35,93.95 l10.4,4.4 c-1.6,2.4,-2.8,6.4,-3.5,11.3 l-5.7,40.1 l-12.4,0 l6.8,-48.3 c0.8,-3.7,3.2,-6.3,4.4,-7.5 Z M410.85,94.55 c14.3,1.8,23,13,20.4,30.9 c-2.1,15.7,-13.7,25.6,-26.7,25.6 c-9.3,0,-14.7,-5.7,-16.1,-8.7 l-4.7,32 l-12.2,-0.7 l8.1,-57.9 c1.1,-7.8,6.5,-15.3,14.7,-19.1 l-4.7,34.7 c1.2,4.5,5.7,9.5,11.7,9.5 c9.7,0,16.5,-8.2,17.7,-16.8 c1.3,-9.3,-2,-16.5,-9.1,-18.6 Z M446.45,95.65 l12.4,0 l-11,78.7 l-12.3,-0.7 Z M469.95,160.45 c4.9,0,7.2,3.9,6.6,7.7 c-0.4,3.3,-3.3,6.4,-7.3,6.4 c-4.8,0,-7.4,-3.9,-6.9,-7.8 c0.5,-3.2,3.2,-6.3,7.6,-6.3 Z M473.25,95.65 l12.4,0 l-7.6,54.4 l-12.3,-0.8 Z M521.05,140.25 c6.1,0,11.5,-2,14.5,-4.5 l2.5,11.1 c-4.8,2.7,-11.2,4.2,-17.9,4.2 Z M493.55,121.95 c2.1,-14.8,14.9,-27.7,33.6,-27.7 c9,0,14.6,2.5,18.5,5.5 l-4.4,10.2 c-2.1,-3.1,-7.4,-5,-14.3,-5 c-11.9,0,-19.9,8.8,-21.2,18.1 l-2.9,22.7 c-7.2,-5.2,-10.6,-14.1,-9.3,-23.8 Z M493.55,121.95" fill="rgb(0,0,0)" transform="matrix(1,0,0,-1,0,200)"/>
</svg>