<?xml version="1.0" encoding="UTF-8"?>
<svg height="200" version="1.1" width="800" xmlns="http://www.w3.org/2000/svg" xmlns:xlink="http://www.w3.org/1999/xlink">
 <path d="M0,0 l800,0 l0,200 l-800,0 Z M0,0" fill="rgb(255,255,255)" transform="matrix(1,0,0,-1,0,200)"/>
 <path d="M329.9,97.78 c7.15,0.9,11.5,6.5,10.2,15.45 c-1.05,7.85,-6.85,12.8,-13.35,12.8 c-4.65,0,-7.35,-2.85,-8.05,-4.35 l-2.35,16 l-6.1,-0.35 l4.05,-28.95 c0.55,-3.9,3.25,-7.65,7.35,-9.55 l-2.35,17.35 c0.6,2.25,2.85,4.75,5.85,4.75 c4.85,0,8.25,-4.1,8.85,-8.4 c0.65,-4.65,-1,-8.25,-4.55,-9.3 Z M359.4,97.73 l-0.4,5.05 c-4.3,0.55,-7.95,4.65,-8.65,9.5 c-0.75,5.25,2.2,8.8,6.7,8.8 c3.85,0,6.65,-2.35,7.9,-4.5 l2.15,-15.2 c1,-2.75,3.95,-3.65,5.75,-3.65 c2.8,0,4.5,1.2,5.1,2.55 l-1.9,3.05 c-0.15,-0.3,-0.55,-0.4,-1,-0.4 c-1.45,0,-2.15,1.4,-2.5,3.65 l-2.7,18.8 l-6,0 l0.45,-3.25 c-1.05,1.5,-4.05,3.9,-8.15,3.9 c-7.75,0,-12.95,-6.15,-11.8,-14.35 c1.05,-7.6,7.55,-13.75,15.05,-13.95 Z M400.15,98.12 c6.6,1.55,10.05,7.35,9.1,14.15 c-0.85,6.2,-5.75,11.65,-12.65,13.35 l0.5,-5.9 c3.2,-1.5,5.55,-4.7,6.05,-8.25 c0.5,-3.4,-0.65,-6.35,-3.5,-7.7 Z M392.05,98.03 l-0.5,5.9 c-3.2,1.4,-5.5,4.5,-6.05,8.25 c-0.45,3.25,0.75,6.2,3.5,7.7 l-0.5,5.6 c-6.35,-1.7,-9.95,-7.5,-9.05,-14 c0.95,-6.55,5.6,-11.9,12.6,-13.45 Z M415.2,109.12 l6.15,0 l-1.05,7.15 c0.8,2.6,2.35,4.3,4.95,4.3 c1.5,0,2.5,-0.75,3.1,-1.45 l0.95,6.05 c-0.9,0.55,-2.05,0.85,-3.15,0.85 c-3.7,0,-5.6,-1.7,-6.55,-3.8 l-0.55,3.15 l-6.15,0 Z M447.55,125.93 l0.4,-5.15 c3.2,-0.65,5.7,-3.1,6.15,-6.5 l-5.1,0.2 l0.65,-4.7 l10.45,0.15 c0.15,0.7,0.2,2.3,0.05,3.65 c-0.85,6,-5.05,11.55,-12.6,12.35 Z M433.95,111.23 c1.15,-8.3,7.5,-13.6,16.25,-13.6 c5.2,0,9.25,1.3,11.25,3.05 l-1.9,4.7 c-1.8,-1.6,-5.25,-2.4,-9.05,-2.4 c-4.55,0,-9.05,2.55,-9.85,7 l-1.85,14.15 c-3.9,-2.5,-5.65,-7.35,-4.85,-12.9 Z M479.45,97.62 l-0.4,5.15 c-4,0.45,-7.8,4,-8.55,9.25 c-0.8,5.5,2.15,9.1,6.6,9.1 c3.85,0,6.6,-2.4,7.9,-4.55 l2.2,-15.5 c0.3,-1.75,1.7,-3,2.45,-3.55 l4.9,2.15 c-0.8,1.2,-1.4,3.2,-1.75,5.65 l-4.55,32.35 l-6.1,-0.35 l2.1,-14.4 c-1.3,1.4,-3.85,3.1,-8,3.1 c-7.8,0,-12.95,-6.45,-11.8,-14.7 c1.15,-8.1,6.95,-13.7,15,-13.7 Z M479.45,97.62" fill="rgb(0,0,0)" transform="matrix(1,0,0,-1,0,200)"/>
</svg>