<?xml version="1.0" encoding="UTF-8"?>
<svg height="200" version="1.1" width="800" xmlns="http://www.w3.org/2000/svg" xmlns:xlink="http://www.w3.org/1999/xlink">
 <path d="M0,0 l800,0 l0,200 l-800,0 Z M0,0" fill="rgb(255,255,255)" transform="matrix(1,0,0,-1,0,200)"/>
 <path d="M201.8,120.15 l-1.8,15 c-0.5,3.6,4.2,5.9,10.6,5.9 c7.9,0,15.1,-3.9,16.7,-6 l2,9.9 c-1.3,1.3,-8.2,6.1,-18.8,6.1 c-13.5,0,-24.2,-6.8,-22.7,-17.6 c1.1,-7.6,6.8,-11.2,14,-13.3 Z M227.1,96.05 c7.6,2.6,11.3,8.4,10,17.3 c-1.2,8.7,-7.7,11.9,-19.6,14.5 l1,-11.5 c3.8,-1.2,6.5,-3.1,6.8,-5.5 Z M211.1,94.35 l-0.8,10.5 c-8.1,0.8,-15.3,4.6,-17.7,7.1 l-0.3,-11.9 c2.5,-1.7,8.6,-5.1,18.8,-5.7 Z M242.5,139.35 l34.7,0 l-1.5,10.4 l-13.8,0 l-2.3,16.5 l-12.3,-0.7 l2.2,-15.8 l-8.5,0 Z M274.2,94.25 c6,0,10.2,2.2,12.3,4.7 l-4,9.1 c-1.5,-1.7,-3.7,-2.5,-6.8,-2.5 c-4.3,0,-8,3.2,-8.8,8.6 l-0.4,3.1 l-12.4,0 l0.5,-3.9 c2.0,-13.6,8.9,-19.1,19.6,-19.1 Z M294.1,117.25 l12.3,0 l-2.1,14.3 c1.6,5.2,4.7,8.6,9.9,8.6 c3,0,5,-1.5,6.2,-2.9 l1.9,12.1 c-1.8,1.1,-4.1,1.7,-6.3,1.7 c-7.4,0,-11.2,-3.4,-13.1,-7.6 l-1.1,6.3 l-12.3,0 Z M358.8,94.25 l-0.9,11 c-4,0.8,-7.9,3.9,-8.6,9.4 l-5,35.1 l-12.3,0 l5.1,-35.9 c1.9,-14,11.3,-19.5,21.7,-19.6 Z M378.7,93.95 l10.4,4.4 c-1.6,2.4,-2.8,6.4,-3.5,11.3 l-5.7,40.1 l-12.4,0 l6.8,-48.3 c0.8,-3.7,3.2,-6.3,4.4,-7.5 Z M429.4,114.25 c10.8,1.8,16.4,9.2,15.1,18.7 c-0.4,2.7,-1.7,5.6,-3.4,7.2 c1.1,1.4,3.3,2,6.2,2 l-0.6,8.9 c-5.6,0,-9,-2.4,-10.8,-4.8 c-3,2.3,-6.4,3.8,-11,4.5 l0.8,-10.2 c4,-1.4,7.1,-4.8,7.7,-9 c0.5,-3.5,-1,-6.1,-4.7,-7.5 Z M400.3,110.05 c1.1,-7.5,12,-12.9,25.2,-12.1 c7,0.4,11.7,-0.8,14.4,-2.5 l14.1,0.5 c-3.2,7.5,-11.2,12.1,-24.8,11.5 c-10.9,-0.4,-17.8,1.7,-18.4,5.9 c-0.1,1.3,0.4,2.7,0.9,3 c1.8,-1,4.1,-1.7,6.9,-2.2 l-0.8,10.1 c-4,1.5,-7.1,4.7,-7.7,8.7 c-0.5,3.6,1.3,6.3,4.8,7.7 l-0.8,9.8 c-9.8,-1.9,-16.7,-9.2,-15.3,-18.9 c0.8,-5.9,4.4,-9.5,6.7,-11.2 c-2.2,-0.9,-5.9,-4.9,-5.2,-10.3 Z M402.6,90.55 c1.5,-10.9,11.6,-17.8,28.9,-17.8 c11.9,0,20.4,4,23,11 l-23.6,-0.3 c-10.9,0,-16.1,3.8,-16.9,7 l-11.3,3.3 c-0.2,-0.9,-0.3,-2,-0.1,-3.2 Z M486.7,150.85 l0.8,-10.3 c6.4,-1.3,11.4,-6.2,12.3,-13 l-10.2,0.4 l1.3,-9.4 l20.9,0.3 c0.3,1.4,0.4,4.6,0.1,7.3 c-1.7,12,-10.1,23.1,-25.2,24.7 Z M459.5,121.45 c2.3,-16.6,15,-27.2,32.5,-27.2 c10.4,0,18.5,2.6,22.5,6.1 l-3.8,9.4 c-3.6,-3.2,-10.5,-4.8,-18.1,-4.8 c-9.1,0,-18.1,5.1,-19.7,14 l-3.7,28.3 c-7.8,-5,-11.3,-14.7,-9.7,-25.8 Z M533.8,120.15 l-1.8,15 c-0.5,3.6,4.2,5.9,10.6,5.9 c7.9,0,15.1,-3.9,16.7,-6 l2,9.9 c-1.3,1.3,-8.2,6.1,-18.8,6.1 c-13.5,0,-24.2,-6.8,-22.7,-17.6 c1.1,-7.6,6.8,-11.2,14,-13.3 Z M559.1,96.05 c7.6,2.6,11.3,8.4,10,17.3 c-1.2,8.7,-7.7,11.9,-19.6,14.5 l1,-11.5 c3.8,-1.2,6.5,-3.1,6.8,-5.5 Z M543.1,94.35 l-0.8,10.5 c-8.1,0.8,-15.3,4.6,-17.7,7.1 l-0.3,-11.9 c2.5,-1.7,8.6,-5.1,18.8,-5.7 Z M590.3,120.15 l-1.8,15 c-0.5,3.6,4.2,5.9,10.6,5.9 c7.9,0,15.1,-3.9,16.7,-6 l2,9.9 c-1.3,1.3,-8.2,6.1,-18.8,6.1 c-13.5,0,-24.2,-6.8,-22.7,-17.6 c1.1,-7.6,6.8,-11.2,14,-13.3 Z M615.6,96.05 c7.6,2.6,11.3,8.4,10,17.3 c-1.2,8.7,-7.7,11.9,-19.6,14.5 l1,-11.5 c3.8,-1.2,6.5,-3.1,6.8,-5.5 Z M599.6,94.35 l-0.8,10.5 c-8.1,0.8,-15.3,4.6,-17.7,7.1 l-0.3,-11.9 c2.5,-1.7,8.6,-5.1,18.8,-5.7 Z M599.6,94.35" fill="rgb(0,0,0)" transform="matrix(1,0,0,-1,0,200)"/>
</svg>