<?xml version="1.0" encoding="UTF-8"?>
<svg height="200" version="1.1" width="800" xmlns="http://www.w3.org/2000/svg" xmlns:xlink="http://www.w3.org/1999/xlink">
 <path d="M0,0 l800,0 l0,200 l-800,0 Z M0,0" fill="rgb(255,255,255)" transform="matrix(1,0,0,-1,0,200)"/>
 <path d="M361.82,109.12 l6.15,0 l-1.05,7.15 c0.8,2.6,2.35,4.3,4.95,4.3 c1.5,0,2.5,-0.75,3.1,-1.45 l0.95,6.05 c-0.9,0.55,-2.05,0.85,-3.15,0.85 c-3.7,0,-5.6,-1.7,-6.55,-3.8 l-0.55,3.15 l-6.15,0 Z M383.12,130.72 c2.45,0,3.6,1.95,3.3,3.85 c-0.2,1.65,-1.65,3.2,-3.65,3.2 c-2.4,0,-3.7,-1.95,-3.45,-3.9 c0.25,-1.6,1.6,-3.15,3.8,-3.15 Z M384.77,98.33 l6.2,0 l-3.8,27.2 l-6.15,-0.4 Z M412.47,98.33 l-14.6,27.05 l-6.45,0 l14.6,-27.05 Z M411.07,116.88 l4.15,-7.75 l4.3,16.25 l-6.3,0 Z M425.93,130.72 c2.45,0,3.6,1.95,3.3,3.85 c-0.2,1.65,-1.65,3.2,-3.65,3.2 c-2.4,0,-3.7,-1.95,-3.45,-3.9 c0.25,-1.6,1.6,-3.15,3.8,-3.15 Z M427.57,98.33 l6.2,0 l-3.8,27.2 l-6.15,-0.4 Z M441.07,98.33 l6.2,0 l-5.5,39.35 l-6.15,-0.35 Z M441.07,98.33" fill="rgb(0,0,0)" transform="matrix(1,0,0,-1,0,200)"/>
</svg>