<?xml version="1.0" encoding="UTF-8"?>
<svg height="200" version="1.1" width="800" xmlns="http://www.w3.org/2000/svg" xmlns:xlink="http://www.w3.org/1999/xlink">
 <path d="M0,0 l800,0 l0,200 l-800,0 Z M0,0" fill="rgb(255,255,255)" transform="matrix(1,0,0,-1,0,200)"/>
 <path d="M297.75,110.58 l-0.9,7.5 c-0.25,1.8,2.1,2.95,5.3,2.95 c3.95,0,7.55,-1.95,8.35,-3 l1,4.95 c-0.65,0.65,-4.1,3.05,-9.4,3.05 c-6.75,0,-12.1,-3.4,-11.35,-8.8 c0.55,-3.8,3.4,-5.6,7,-6.65 Z M310.4,98.53 c3.8,1.3,5.65,4.2,5,8.65 c-0.6,4.35,-3.85,5.95,-9.8,7.25 l0.5,-5.75 c1.9,-0.6,3.25,-1.55,3.4,-2.75 Z M302.4,97.67 l-0.4,5.25 c-4.05,0.4,-7.65,2.3,-8.85,3.55 l-0.15,-5.95 c1.25,-0.85,4.3,-2.55,9.4,-2.85 Z M340,98.12 c6.6,1.55,10.05,7.35,9.1,14.15 c-0.85,6.2,-5.75,11.65,-12.65,13.35 l0.5,-5.9 c3.2,-1.5,5.55,-4.7,6.05,-8.25 c0.5,-3.4,-0.65,-6.35,-3.5,-7.7 Z M331.9,98.03 l-0.5,5.9 c-3.2,1.4,-5.5,4.5,-6.05,8.25 c-0.45,3.25,0.75,6.2,3.5,7.7 l-0.5,5.6 c-6.35,-1.7,-9.95,-7.5,-9.05,-14 c0.95,-6.55,5.6,-11.9,12.6,-13.45 Z M366.95,120.62 c3.05,0,5.75,-1,7.25,-2.25 l1.25,5.55 c-2.4,1.35,-5.6,2.1,-8.95,2.1 Z M353.2,111.48 c1.05,-7.4,7.45,-13.85,16.8,-13.85 c4.5,0,7.3,1.25,9.25,2.75 l-2.2,5.1 c-1.05,-1.55,-3.7,-2.5,-7.15,-2.5 c-5.95,0,-9.95,4.4,-10.6,9.05 l-1.45,11.35 c-3.6,-2.6,-5.3,-7.05,-4.65,-11.9 Z M383.7,130.72 c2.45,0,3.6,1.95,3.3,3.85 c-0.2,1.65,-1.65,3.2,-3.65,3.2 c-2.4,0,-3.7,-1.95,-3.45,-3.9 c0.25,-1.6,1.6,-3.15,3.8,-3.15 Z M385.35,98.33 l6.2,0 l-3.8,27.2 l-6.15,-0.4 Z M410.55,97.73 l-0.4,5.05 c-4.3,0.55,-7.95,4.65,-8.65,9.5 c-0.75,5.25,2.2,8.8,6.7,8.8 c3.85,0,6.65,-2.35,7.9,-4.5 l2.15,-15.2 c1,-2.75,3.95,-3.65,5.75,-3.65 c2.8,0,4.5,1.2,5.1,2.55 l-1.9,3.05 c-0.15,-0.3,-0.55,-0.4,-1,-0.4 c-1.45,0,-2.15,1.4,-2.5,3.65 l-2.7,18.8 l-6,0 l0.45,-3.25 c-1.05,1.5,-4.05,3.9,-8.15,3.9 c-7.75,0,-12.95,-6.15,-11.8,-14.35 c1.05,-7.6,7.55,-13.75,15.05,-13.95 Z M433.95,98.33 l6.2,0 l-5.5,39.35 l-6.15,-0.35 Z M445.7,130.72 c2.45,0,3.6,1.95,3.3,3.85 c-0.2,1.65,-1.65,3.2,-3.65,3.2 c-2.4,0,-3.7,-1.95,-3.45,-3.9 c0.25,-1.6,1.6,-3.15,3.8,-3.15 Z M447.35,98.33 l6.2,0 l-3.8,27.2 l-6.15,-0.4 Z M458.85,109.12 l6.2,0 l-1,6.45 c1.3,2.65,3.45,4.5,6.4,4.5 c2.7,0,5.2,-2.1,5.65,-5.15 l2.3,-16.6 l6.15,0 l-2.35,17 c-1.05,7.4,-4.5,10.7,-10.65,10.7 c-4.25,0,-7.05,-2.65,-8.15,-4.5 l-0.65,3.85 l-6.2,0 Z M504.85,107.62 c5.4,0.9,8.2,4.6,7.55,9.35 c-0.2,1.35,-0.85,2.8,-1.7,3.6 c0.55,0.7,1.65,1,3.1,1 l-0.3,4.45 c-2.8,0,-4.5,-1.2,-5.4,-2.4 c-1.5,1.15,-3.2,1.9,-5.5,2.25 l0.4,-5.1 c2,-0.7,3.55,-2.4,3.85,-4.5 c0.25,-1.75,-0.5,-3.05,-2.35,-3.75 Z M490.3,105.53 c0.55,-3.75,6,-6.45,12.6,-6.05 c3.5,0.2,5.85,-0.4,7.2,-1.25 l7.05,0.25 c-1.6,3.75,-5.6,6.05,-12.4,5.75 c-5.45,-0.2,-8.9,0.85,-9.2,2.95 c-0.05,0.65,0.2,1.35,0.45,1.5 c0.9,-0.5,2.05,-0.85,3.45,-1.1 l-0.4,5.05 c-2,0.75,-3.55,2.35,-3.85,4.35 c-0.25,1.8,0.65,3.15,2.4,3.85 l-0.4,4.9 c-4.9,-0.95,-8.35,-4.6,-7.65,-9.45 c0.4,-2.95,2.2,-4.75,3.35,-5.6 c-1.1,-0.45,-2.95,-2.45,-2.6,-5.15 Z M491.45,95.78 c0.75,-5.45,5.8,-8.9,14.45,-8.9 c5.95,0,10.2,2,11.5,5.5 l-11.8,-0.15 c-5.45,0,-8.05,1.9,-8.45,3.5 l-5.65,1.65 c-0.1,-0.45,-0.15,-1,-0.05,-1.6 Z M491.45,95.78" fill="rgb(0,0,0)" transform="matrix(1,0,0,-1,0,200)"/>
</svg>