<?xml version="1.0" encoding="UTF-8"?>
<svg height="200" version="1.1" width="500" xmlns="http://www.w3.org/2000/svg" xmlns:xlink="http://www.w3.org/1999/xlink">
 <path d="M0,0 l500,0 l0,200 l-500,0 Z M0,0" fill="rgb(255,255,255)" transform="matrix(1,0,0,-1,0,200)"/>
 <path d="M141.9,116.9 c2.44,0,4.6,-0.8,5.8,-1.8 l1,4.44 c-1.92,1.08,-4.48,1.68,-7.16,1.68 Z M130.9,109.58 c0.84,-5.92,5.96,-11.08,13.44,-11.08 c3.6,0,5.84,1,7.4,2.2 l-1.76,4.08 c-0.84,-1.24,-2.96,-2,-5.72,-2 c-4.76,0,-7.96,3.52,-8.48,7.24 l-1.16,9.08 c-2.88,-2.08,-4.24,-5.64,-3.72,-9.52 Z M170.14,98.9 c5.28,1.24,8.04,5.88,7.28,11.32 c-0.68,4.96,-4.6,9.32,-10.12,10.68 l0.4,-4.72 c2.56,-1.2,4.44,-3.76,4.84,-6.6 c0.4,-2.72,-0.52,-5.08,-2.8,-6.16 Z M163.66,98.82 l-0.4,4.72 c-2.56,1.12,-4.4,3.6,-4.84,6.6 c-0.36,2.6,0.6,4.96,2.8,6.16 l-0.4,4.48 c-5.08,-1.36,-7.96,-6,-7.24,-11.2 c0.76,-5.24,4.48,-9.52,10.08,-10.76 Z M196.42,99.06 l4.96,0 l-2.16,14.88 c0.76,1.56,2.32,2.8,4.24,2.8 c2.16,0,4,-1.76,4.36,-4.28 l0.68,-4.76 l4.88,0 l-0.72,5.08 c-0.76,5.44,-3.52,8.44,-8.2,8.44 c-3.44,0,-5.48,-1.76,-6.64,-3.2 c-1.08,1.68,-2.92,3.2,-6,3.2 c-2.96,0,-5.4,-1.8,-6.44,-3.28 l-0.48,2.76 l-4.96,0 l1.84,-13 l4.96,0 l-0.92,6 c0.88,1.64,2.8,2.92,4.64,2.92 c2.12,0,3.72,-1.64,4.08,-4.04 Z M232.82,99.06 l4.96,0 l-2.16,14.88 c0.76,1.56,2.32,2.8,4.24,2.8 c2.16,0,4,-1.76,4.36,-4.28 l0.68,-4.76 l4.88,0 l-0.72,5.08 c-0.76,5.44,-3.52,8.44,-8.2,8.44 c-3.44,0,-5.48,-1.76,-6.64,-3.2 c-1.08,1.68,-2.92,3.2,-6,3.2 c-2.96,0,-5.4,-1.8,-6.44,-3.28 l-0.48,2.76 l-4.96,0 l1.84,-13 l4.96,0 l-0.92,6 c0.88,1.64,2.8,2.92,4.64,2.92 c2.12,0,3.72,-1.64,4.08,-4.04 Z M255.02,124.98 c1.96,0,2.88,1.56,2.64,3.08 c-0.16,1.32,-1.32,2.56,-2.92,2.56 c-1.92,0,-2.96,-1.56,-2.76,-3.12 c0.2,-1.28,1.28,-2.52,3.04,-2.52 Z M256.34,99.06 l4.96,0 l-3.04,21.76 l-4.92,-0.32 Z M269.82,108.86 l-0.72,6 c-0.2,1.44,1.68,2.36,4.24,2.36 c3.16,0,6.04,-1.56,6.68,-2.4 l0.8,3.96 c-0.52,0.52,-3.28,2.44,-7.52,2.44 c-5.4,0,-9.68,-2.72,-9.08,-7.04 c0.44,-3.04,2.72,-4.48,5.6,-5.32 Z M279.94,99.22 c3.04,1.04,4.52,3.36,4,6.92 c-0.48,3.48,-3.08,4.76,-7.84,5.8 l0.4,-4.6 c1.52,-0.48,2.6,-1.24,2.72,-2.2 Z M273.54,98.54 l-0.32,4.2 c-3.24,0.32,-6.12,1.84,-7.08,2.84 l-0.12,-4.76 c1,-0.68,3.44,-2.04,7.52,-2.28 Z M289.74,99.06 l4.96,0 l-2,13.8 c0.84,2.12,2.68,3.6,5.08,3.6 c2.56,0,4.16,-1.88,4.44,-4.04 l0.68,-4.72 l4.88,0 l-0.72,5.04 c-0.72,5.36,-3.64,8.48,-8.32,8.48 c-3.48,0,-5.68,-2.04,-6.56,-3.56 l-1.88,12.88 l-4.92,-0.28 Z M327.66,98.9 c5.28,1.24,8.04,5.88,7.28,11.32 c-0.68,4.96,-4.6,9.32,-10.12,10.68 l0.4,-4.72 c2.56,-1.2,4.44,-3.76,4.84,-6.6 c0.4,-2.72,-0.52,-5.08,-2.8,-6.16 Z M321.18,98.82 l-0.4,4.72 c-2.56,1.12,-4.4,3.6,-4.84,6.6 c-0.36,2.6,0.6,4.96,2.8,6.16 l-0.4,4.48 c-5.08,-1.36,-7.96,-6,-7.24,-11.2 c0.76,-5.24,4.48,-9.52,10.08,-10.76 Z M339.7,107.7 l4.92,0 l-0.84,5.72 c0.64,2.08,1.88,3.44,3.96,3.44 c1.2,0,2,-0.6,2.48,-1.16 l0.76,4.84 c-0.72,0.44,-1.64,0.68,-2.52,0.68 c-2.96,0,-4.48,-1.36,-5.24,-3.04 l-0.44,2.52 l-4.92,0 Z M360.58,108.86 l-0.72,6 c-0.2,1.44,1.68,2.36,4.24,2.36 c3.16,0,6.04,-1.56,6.68,-2.4 l0.8,3.96 c-0.52,0.52,-3.28,2.44,-7.52,2.44 c-5.4,0,-9.68,-2.72,-9.08,-7.04 c0.44,-3.04,2.72,-4.48,5.6,-5.32 Z M370.7,99.22 c3.04,1.04,4.52,3.36,4,6.92 c-0.48,3.48,-3.08,4.76,-7.84,5.8 l0.4,-4.6 c1.52,-0.48,2.6,-1.24,2.72,-2.2 Z M364.3,98.54 l-0.32,4.2 c-3.24,0.32,-6.12,1.84,-7.08,2.84 l-0.12,-4.76 c1,-0.68,3.44,-2.04,7.52,-2.28 Z M364.3,98.54" fill="rgb(0,0,0)" transform="matrix(1,0,0,-1,0,200)"/>
</svg>