<?xml version="1.0" encoding="UTF-8"?>
<svg height="200" version="1.1" width="800" xmlns="http://www.w3.org/2000/svg" xmlns:xlink="http://www.w3.org/1999/xlink">
 <path d="M0,0 l800,0 l0,200 l-800,0 Z M0,0" fill="rgb(255,255,255)" transform="matrix(1,0,0,-1,0,200)"/>
 <path d="M326.96,98.62 l-0.32,4.12 c-3.2,0.36,-6.24,3.2,-6.84,7.4 c-0.64,4.4,1.72,7.28,5.28,7.28 c3.08,0,5.28,-1.92,6.32,-3.64 l1.76,-12.4 c0.24,-1.4,1.36,-2.4,1.96,-2.84 l3.92,1.72 c-0.64,0.96,-1.12,2.56,-1.4,4.52 l-3.64,25.88 l-4.88,-0.28 l1.68,-11.52 c-1.04,1.12,-3.08,2.48,-6.4,2.48 c-6.24,0,-10.36,-5.16,-9.44,-11.76 c0.92,-6.48,5.56,-10.96,12,-10.96 Z M343.36,125.1 c1.96,0,2.88,1.56,2.64,3.08 c-0.16,1.32,-1.32,2.56,-2.92,2.56 c-1.92,0,-2.96,-1.56,-2.76,-3.12 c0.2,-1.28,1.28,-2.52,3.04,-2.52 Z M344.68,99.18 l4.96,0 l-3.04,21.76 l-4.92,-0.32 Z M358.16,108.98 l-0.72,6 c-0.2,1.44,1.68,2.36,4.24,2.36 c3.16,0,6.04,-1.56,6.68,-2.4 l0.8,3.96 c-0.52,0.52,-3.28,2.44,-7.52,2.44 c-5.4,0,-9.68,-2.72,-9.08,-7.04 c0.44,-3.04,2.72,-4.48,5.6,-5.32 Z M368.28,99.34 c3.04,1.04,4.52,3.36,4,6.92 c-0.48,3.48,-3.08,4.76,-7.84,5.8 l0.4,-4.6 c1.52,-0.48,2.6,-1.24,2.72,-2.2 Z M361.88,98.66 l-0.32,4.2 c-3.24,0.32,-6.12,1.84,-7.08,2.84 l-0.12,-4.76 c1,-0.68,3.44,-2.04,7.52,-2.28 Z M386.4,117.02 c2.44,0,4.6,-0.8,5.8,-1.8 l1,4.44 c-1.92,1.08,-4.48,1.68,-7.16,1.68 Z M375.4,109.7 c0.84,-5.92,5.96,-11.08,13.44,-11.08 c3.6,0,5.84,1,7.4,2.2 l-1.76,4.08 c-0.84,-1.24,-2.96,-2,-5.72,-2 c-4.76,0,-7.96,3.52,-8.48,7.24 l-1.16,9.08 c-2.88,-2.08,-4.24,-5.64,-3.72,-9.52 Z M399.76,107.82 l4.92,0 l-0.84,5.72 c0.64,2.08,1.88,3.44,3.96,3.44 c1.2,0,2,-0.6,2.48,-1.16 l0.76,4.84 c-0.72,0.44,-1.64,0.68,-2.52,0.68 c-2.96,0,-4.48,-1.36,-5.24,-3.04 l-0.44,2.52 l-4.92,0 Z M416.8,125.1 c1.96,0,2.88,1.56,2.64,3.08 c-0.16,1.32,-1.32,2.56,-2.92,2.56 c-1.92,0,-2.96,-1.56,-2.76,-3.12 c0.2,-1.28,1.28,-2.52,3.04,-2.52 Z M418.12,99.18 l4.96,0 l-3.04,21.76 l-4.92,-0.32 Z M439.56,106.62 c4.32,0.72,6.56,3.68,6.04,7.48 c-0.16,1.08,-0.68,2.24,-1.36,2.88 c0.44,0.56,1.32,0.8,2.48,0.8 l-0.24,3.56 c-2.24,0,-3.6,-0.96,-4.32,-1.92 c-1.2,0.92,-2.56,1.52,-4.4,1.8 l0.32,-4.08 c1.6,-0.56,2.84,-1.92,3.08,-3.6 c0.2,-1.4,-0.4,-2.44,-1.88,-3 Z M427.92,104.94 c0.44,-3,4.8,-5.16,10.08,-4.84 c2.8,0.16,4.68,-0.32,5.76,-1 l5.64,0.2 c-1.28,3,-4.48,4.84,-9.92,4.6 c-4.36,-0.16,-7.12,0.68,-7.36,2.36 c-0.04,0.52,0.16,1.08,0.36,1.2 c0.72,-0.4,1.64,-0.68,2.76,-0.88 l-0.32,4.04 c-1.6,0.6,-2.84,1.88,-3.08,3.48 c-0.2,1.44,0.52,2.52,1.92,3.08 l-0.32,3.92 c-3.92,-0.76,-6.68,-3.68,-6.12,-7.56 c0.32,-2.36,1.76,-3.8,2.68,-4.48 c-0.88,-0.36,-2.36,-1.96,-2.08,-4.12 Z M428.84,97.14 c0.6,-4.36,4.64,-7.12,11.56,-7.12 c4.76,0,8.16,1.6,9.2,4.4 l-9.44,-0.12 c-4.36,0,-6.44,1.52,-6.76,2.8 l-4.52,1.32 c-0.08,-0.36,-0.12,-0.8,-0.04,-1.28 Z M454.24,99.18 l4.96,0 l-2,13.8 c0.84,2.12,2.68,3.6,5.08,3.6 c2.56,0,4.16,-1.88,4.44,-4.04 l0.68,-4.72 l4.88,0 l-0.72,5.04 c-0.72,5.36,-3.64,8.48,-8.32,8.48 c-3.48,0,-5.68,-2.04,-6.56,-3.56 l-1.88,12.88 l-4.92,-0.28 Z M474.64,116.66 l13.88,0 l-0.6,4.16 l-5.52,0 l-0.92,6.6 l-4.92,-0.28 l0.88,-6.32 l-3.4,0 Z M487.32,98.62 c2.4,0,4.08,0.88,4.92,1.88 l-1.6,3.64 c-0.6,-0.68,-1.48,-1,-2.72,-1 c-1.72,0,-3.2,1.28,-3.52,3.44 l-0.16,1.24 l-4.96,0 l0.2,-1.56 c0.8,-5.44,3.56,-7.64,7.84,-7.64 Z M487.32,98.62" fill="rgb(0,0,0)" transform="matrix(1,0,0,-1,0,200)"/>
</svg>