<?xml version="1.0" encoding="UTF-8"?>
<svg height="200" version="1.1" width="800" xmlns="http://www.w3.org/2000/svg" xmlns:xlink="http://www.w3.org/1999/xlink">
 <path d="M0,0 l800,0 l0,200 l-800,0 Z M0,0" fill="rgb(255,255,255)" transform="matrix(1,0,0,-1,0,200)"/>
 <path d="M310.12,99.18 l4.96,0 l-2.16,14.88 c0.76,1.56,2.32,2.8,4.24,2.8 c2.16,0,4,-1.76,4.36,-4.28 l0.68,-4.76 l4.88,0 l-0.72,5.08 c-0.76,5.44,-3.52,8.44,-8.2,8.44 c-3.44,0,-5.48,-1.76,-6.64,-3.2 c-1.08,1.68,-2.92,3.2,-6,3.2 c-2.96,0,-5.4,-1.8,-6.44,-3.28 l-0.48,2.76 l-4.96,0 l1.84,-13 l4.96,0 l-0.92,6 c0.88,1.64,2.8,2.92,4.64,2.92 c2.12,0,3.72,-1.64,4.08,-4.04 Z M347.36,99.02 c5.28,1.24,8.04,5.88,7.28,11.32 c-0.68,4.96,-4.6,9.32,-10.12,10.68 l0.4,-4.72 c2.56,-1.2,4.44,-3.76,4.84,-6.6 c0.4,-2.72,-0.52,-5.08,-2.8,-6.16 Z M340.88,98.94 l-0.4,4.72 c-2.56,1.12,-4.4,3.6,-4.84,6.6 c-0.36,2.6,0.6,4.96,2.8,6.16 l-0.4,4.48 c-5.08,-1.36,-7.96,-6,-7.24,-11.2 c0.76,-5.24,4.48,-9.52,10.08,-10.76 Z M373.64,99.18 l4.96,0 l-2.16,14.88 c0.76,1.56,2.32,2.8,4.24,2.8 c2.16,0,4,-1.76,4.36,-4.28 l0.68,-4.76 l4.88,0 l-0.72,5.08 c-0.76,5.44,-3.52,8.44,-8.2,8.44 c-3.44,0,-5.48,-1.76,-6.64,-3.2 c-1.08,1.68,-2.92,3.2,-6,3.2 c-2.96,0,-5.4,-1.8,-6.44,-3.28 l-0.48,2.76 l-4.96,0 l1.84,-13 l4.96,0 l-0.92,6 c0.88,1.64,2.8,2.92,4.64,2.92 c2.12,0,3.72,-1.64,4.08,-4.04 Z M410.88,99.02 c5.28,1.24,8.04,5.88,7.28,11.32 c-0.68,4.96,-4.6,9.32,-10.12,10.68 l0.4,-4.72 c2.56,-1.2,4.44,-3.76,4.84,-6.6 c0.4,-2.72,-0.52,-5.08,-2.8,-6.16 Z M404.4,98.94 l-0.4,4.72 c-2.56,1.12,-4.4,3.6,-4.84,6.6 c-0.36,2.6,0.6,4.96,2.8,6.16 l-0.4,4.48 c-5.08,-1.36,-7.96,-6,-7.24,-11.2 c0.76,-5.24,4.48,-9.52,10.08,-10.76 Z M422.92,107.82 l4.92,0 l-0.84,5.72 c0.64,2.08,1.88,3.44,3.96,3.44 c1.2,0,2,-0.6,2.48,-1.16 l0.76,4.84 c-0.72,0.44,-1.64,0.68,-2.52,0.68 c-2.96,0,-4.48,-1.36,-5.24,-3.04 l-0.44,2.52 l-4.92,0 Z M439.52,107.82 l4.96,0 l-0.8,5.16 c1.04,2.12,2.76,3.6,5.12,3.6 c2.16,0,4.16,-1.68,4.52,-4.12 l1.84,-13.28 l4.92,0 l-1.88,13.6 c-0.84,5.92,-3.6,8.56,-8.52,8.56 c-3.4,0,-5.64,-2.12,-6.52,-3.6 l-0.52,3.08 l-4.96,0 Z M473.92,121.26 l0.32,-4.12 c2.56,-0.52,4.56,-2.48,4.92,-5.2 l-4.08,0.16 l0.52,-3.76 l8.36,0.12 c0.12,0.56,0.16,1.84,0.04,2.92 c-0.68,4.8,-4.04,9.24,-10.08,9.88 Z M463.04,109.5 c0.92,-6.64,6,-10.88,13,-10.88 c4.16,0,7.4,1.04,9,2.44 l-1.52,3.76 c-1.44,-1.28,-4.2,-1.92,-7.24,-1.92 c-3.64,0,-7.24,2.04,-7.88,5.6 l-1.48,11.32 c-3.12,-2,-4.52,-5.88,-3.88,-10.32 Z M499.44,98.62 l-0.32,4.12 c-3.2,0.36,-6.24,3.2,-6.84,7.4 c-0.64,4.4,1.72,7.28,5.28,7.28 c3.08,0,5.28,-1.92,6.32,-3.64 l1.76,-12.4 c0.24,-1.4,1.36,-2.4,1.96,-2.84 l3.92,1.72 c-0.64,0.96,-1.12,2.56,-1.4,4.52 l-3.64,25.88 l-4.88,-0.28 l1.68,-11.52 c-1.04,1.12,-3.08,2.48,-6.4,2.48 c-6.24,0,-10.36,-5.16,-9.44,-11.76 c0.92,-6.48,5.56,-10.96,12,-10.96 Z M499.44,98.62" fill="rgb(0,0,0)" transform="matrix(1,0,0,-1,0,200)"/>
</svg>