<?xml version="1.0" encoding="UTF-8"?>
<svg height="200" version="1.1" width="800" xmlns="http://www.w3.org/2000/svg" xmlns:xlink="http://www.w3.org/1999/xlink">
 <path d="M0,0 l800,0 l0,200 l-800,0 Z M0,0" fill="rgb(255,255,255)" transform="matrix(1,0,0,-1,0,200)"/>
 <path d="M332.1,108.98 l-0.72,6 c-0.2,1.44,1.68,2.36,4.24,2.36 c3.16,0,6.04,-1.56,6.68,-2.4 l0.8,3.96 c-0.52,0.52,-3.28,2.44,-7.52,2.44 c-5.4,0,-9.68,-2.72,-9.08,-7.04 c0.44,-3.04,2.72,-4.48,5.6,-5.32 Z M342.22,99.34 c3.04,1.04,4.52,3.36,4,6.92 c-0.48,3.48,-3.08,4.76,-7.84,5.8 l0.4,-4.6 c1.52,-0.48,2.6,-1.24,2.72,-2.2 Z M335.82,98.66 l-0.32,4.2 c-3.24,0.32,-6.12,1.84,-7.08,2.84 l-0.12,-4.76 c1,-0.68,3.44,-2.04,7.52,-2.28 Z M365.06,99.18 l4.96,0 l-2.16,14.88 c0.76,1.56,2.32,2.8,4.24,2.8 c2.16,0,4,-1.76,4.36,-4.28 l0.68,-4.76 l4.88,0 l-0.72,5.08 c-0.76,5.44,-3.52,8.44,-8.2,8.44 c-3.44,0,-5.48,-1.76,-6.64,-3.2 c-1.08,1.68,-2.92,3.2,-6,3.2 c-2.96,0,-5.4,-1.8,-6.44,-3.28 l-0.48,2.76 l-4.96,0 l1.84,-13 l4.96,0 l-0.92,6 c0.88,1.64,2.8,2.92,4.64,2.92 c2.12,0,3.72,-1.64,4.08,-4.04 Z M397.78,98.7 l-0.32,4.04 c-3.44,0.44,-6.36,3.72,-6.92,7.6 c-0.6,4.2,1.76,7.04,5.36,7.04 c3.08,0,5.32,-1.88,6.32,-3.6 l1.72,-12.16 c0.8,-2.2,3.16,-2.92,4.6,-2.92 c2.24,0,3.6,0.96,4.08,2.04 l-1.52,2.44 c-0.12,-0.24,-0.44,-0.32,-0.8,-0.32 c-1.16,0,-1.72,1.12,-2,2.92 l-2.16,15.04 l-4.8,0 l0.36,-2.6 c-0.84,1.2,-3.24,3.12,-6.52,3.12 c-6.2,0,-10.36,-4.92,-9.44,-11.48 c0.84,-6.08,6.04,-11,12.04,-11.16 Z M416.5,99.18 l4.96,0 l-4.4,31.48 l-4.92,-0.28 Z M425.9,125.1 c1.96,0,2.88,1.56,2.64,3.08 c-0.16,1.32,-1.32,2.56,-2.92,2.56 c-1.92,0,-2.96,-1.56,-2.76,-3.12 c0.2,-1.28,1.28,-2.52,3.04,-2.52 Z M427.22,99.18 l4.96,0 l-3.04,21.76 l-4.92,-0.32 Z M440.7,108.98 l-0.72,6 c-0.2,1.44,1.68,2.36,4.24,2.36 c3.16,0,6.04,-1.56,6.68,-2.4 l0.8,3.96 c-0.52,0.52,-3.28,2.44,-7.52,2.44 c-5.4,0,-9.68,-2.72,-9.08,-7.04 c0.44,-3.04,2.72,-4.48,5.6,-5.32 Z M450.82,99.34 c3.04,1.04,4.52,3.36,4,6.92 c-0.48,3.48,-3.08,4.76,-7.84,5.8 l0.4,-4.6 c1.52,-0.48,2.6,-1.24,2.72,-2.2 Z M444.42,98.66 l-0.32,4.2 c-3.24,0.32,-6.12,1.84,-7.08,2.84 l-0.12,-4.76 c1,-0.68,3.44,-2.04,7.52,-2.28 Z M460.62,99.18 l4.96,0 l-2,13.8 c0.84,2.12,2.68,3.6,5.08,3.6 c2.56,0,4.16,-1.88,4.44,-4.04 l0.68,-4.72 l4.88,0 l-0.72,5.04 c-0.72,5.36,-3.64,8.48,-8.32,8.48 c-3.48,0,-5.68,-2.04,-6.56,-3.56 l-1.88,12.88 l-4.92,-0.28 Z M460.62,99.18" fill="rgb(0,0,0)" transform="matrix(1,0,0,-1,0,200)"/>
</svg>