<?xml version="1.0" encoding="UTF-8"?>
<svg height="200" version="1.1" width="800" xmlns="http://www.w3.org/2000/svg" xmlns:xlink="http://www.w3.org/1999/xlink">
 <path d="M0,0 l800,0 l0,200 l-800,0 Z M0,0" fill="rgb(255,255,255)" transform="matrix(1,0,0,-1,0,200)"/>
 <path d="M313.1,98.62 l-0.36,4.4 c-1.6,0.32,-3.16,1.56,-3.44,3.76 l-2,14.04 l-4.92,0 l2.04,-14.36 c0.76,-5.6,4.52,-7.8,8.68,-7.84 Z M321.06,98.5 l4.16,1.76 c-0.64,0.96,-1.12,2.56,-1.4,4.52 l-2.28,16.04 l-4.96,0 l2.72,-19.32 c0.32,-1.48,1.28,-2.52,1.76,-3 Z M329.1,107.82 l4.96,0 l-0.8,5.16 c1.04,2.12,2.76,3.6,5.12,3.6 c2.16,0,4.16,-1.68,4.52,-4.12 l1.84,-13.28 l4.92,0 l-1.88,13.6 c-0.84,5.92,-3.6,8.56,-8.52,8.56 c-3.4,0,-5.64,-2.12,-6.52,-3.6 l-0.52,3.08 l-4.96,0 Z M356.5,90.54 l4.96,0 l-3.24,22.68 c0.48,1.68,2.24,4.0,5.2,4.0 c4,0,6.84,-2.92,7.48,-7.28 c0.4,-3.12,-0.68,-6.76,-4.56,-7.16 l0.32,-4.16 c6.28,0.12,10.04,5.08,9.04,11.96 c-0.84,5.96,-5,10.76,-11.36,10.76 c-3.36,0,-5.64,-1.92,-6.68,-3.72 l-0.52,3.2 l-4.92,0 Z M381.7,99.18 l4.96,0 l-4.4,31.48 l-4.92,-0.28 Z M391.1,125.1 c1.96,0,2.88,1.56,2.64,3.08 c-0.16,1.32,-1.32,2.56,-2.92,2.56 c-1.92,0,-2.96,-1.56,-2.76,-3.12 c0.2,-1.28,1.28,-2.52,3.04,-2.52 Z M392.42,99.18 l4.96,0 l-3.04,21.76 l-4.92,-0.32 Z M413.86,106.62 c4.32,0.72,6.56,3.68,6.04,7.48 c-0.16,1.08,-0.68,2.24,-1.36,2.88 c0.44,0.56,1.32,0.8,2.48,0.8 l-0.24,3.56 c-2.24,0,-3.6,-0.96,-4.32,-1.92 c-1.2,0.92,-2.56,1.52,-4.4,1.8 l0.32,-4.08 c1.6,-0.56,2.84,-1.92,3.08,-3.6 c0.2,-1.4,-0.4,-2.44,-1.88,-3 Z M402.22,104.94 c0.44,-3,4.8,-5.16,10.08,-4.84 c2.8,0.16,4.68,-0.32,5.76,-1 l5.64,0.2 c-1.28,3,-4.48,4.84,-9.92,4.6 c-4.36,-0.16,-7.12,0.68,-7.36,2.36 c-0.04,0.52,0.16,1.08,0.36,1.2 c0.72,-0.4,1.64,-0.68,2.76,-0.88 l-0.32,4.04 c-1.6,0.6,-2.84,1.88,-3.08,3.48 c-0.2,1.44,0.52,2.52,1.92,3.08 l-0.32,3.92 c-3.92,-0.76,-6.68,-3.68,-6.12,-7.56 c0.32,-2.36,1.76,-3.8,2.68,-4.48 c-0.88,-0.36,-2.36,-1.96,-2.08,-4.12 Z M403.14,97.14 c0.6,-4.36,4.64,-7.12,11.56,-7.12 c4.76,0,8.16,1.6,9.2,4.4 l-9.44,-0.12 c-4.36,0,-6.44,1.52,-6.76,2.8 l-4.52,1.32 c-0.08,-0.36,-0.12,-0.8,-0.04,-1.28 Z M437.9,98.7 l-0.32,4.04 c-3.44,0.44,-6.36,3.72,-6.92,7.6 c-0.6,4.2,1.76,7.04,5.36,7.04 c3.08,0,5.32,-1.88,6.32,-3.6 l1.72,-12.16 c0.8,-2.2,3.16,-2.92,4.6,-2.92 c2.24,0,3.6,0.96,4.08,2.04 l-1.52,2.44 c-0.12,-0.24,-0.44,-0.32,-0.8,-0.32 c-1.16,0,-1.72,1.12,-2,2.92 l-2.16,15.04 l-4.8,0 l0.36,-2.6 c-0.84,1.2,-3.24,3.12,-6.52,3.12 c-6.2,0,-10.36,-4.92,-9.44,-11.48 c0.84,-6.08,6.04,-11,12.04,-11.16 Z M452.98,116.66 l13.88,0 l-0.6,4.16 l-5.52,0 l-0.92,6.6 l-4.92,-0.28 l0.88,-6.32 l-3.4,0 Z M465.66,98.62 c2.4,0,4.08,0.88,4.92,1.88 l-1.6,3.64 c-0.6,-0.68,-1.48,-1,-2.72,-1 c-1.72,0,-3.2,1.28,-3.52,3.44 l-0.16,1.24 l-4.96,0 l0.2,-1.56 c0.8,-5.44,3.56,-7.64,7.84,-7.64 Z M473.66,125.1 c1.96,0,2.88,1.56,2.64,3.08 c-0.16,1.32,-1.32,2.56,-2.92,2.56 c-1.92,0,-2.96,-1.56,-2.76,-3.12 c0.2,-1.28,1.28,-2.52,3.04,-2.52 Z M474.98,99.18 l4.96,0 l-3.04,21.76 l-4.92,-0.32 Z M494.1,117.02 c2.44,0,4.6,-0.8,5.8,-1.8 l1,4.44 c-1.92,1.08,-4.48,1.68,-7.16,1.68 Z M483.1,109.7 c0.84,-5.92,5.96,-11.08,13.44,-11.08 c3.6,0,5.84,1,7.4,2.2 l-1.76,4.08 c-0.84,-1.24,-2.96,-2,-5.72,-2 c-4.76,0,-7.96,3.52,-8.48,7.24 l-1.16,9.08 c-2.88,-2.08,-4.24,-5.64,-3.72,-9.52 Z M483.1,109.7" fill="rgb(0,0,0)" transform="matrix(1,0,0,-1,0,200)"/>
</svg>