<?xml version="1.0" encoding="UTF-8"?>
<svg height="200" version="1.1" width="500" xmlns="http://www.w3.org/2000/svg" xmlns:xlink="http://www.w3.org/1999/xlink">
 <path d="M0,0 l500,0 l0,200 l-500,0 Z M0,0" fill="rgb(255,255,255)" transform="matrix(1,0,0,-1,0,200)"/>
 <path d="M165.61,80 l-5.3,0 l0,46.53 l5.71,0 l0,-16.6 c2.41,3.03,5.49,4.54,9.24,4.54 c2.07,0,4.04,-0.42,5.89,-1.25 c1.85,-0.84,3.37,-2.01,4.57,-3.52 c1.2,-1.51,2.13,-3.34,2.81,-5.47 c0.68,-2.14,1.02,-4.42,1.02,-6.86 c0,-5.78,-1.43,-10.24,-4.28,-13.39 c-2.86,-3.15,-6.28,-4.73,-10.28,-4.73 c-3.98,0,-7.1,1.66,-9.36,4.98 Z M165.54,97.11 c0,-4.04,0.55,-6.96,1.65,-8.76 c1.8,-2.94,4.23,-4.41,7.3,-4.41 c2.5,0,4.65,1.08,6.47,3.25 c1.82,2.17,2.73,5.4,2.73,9.7 c0,4.4,-0.87,7.65,-2.62,9.74 c-1.75,2.09,-3.86,3.14,-6.33,3.14 c-2.5,0,-4.65,-1.08,-6.47,-3.25 c-1.82,-2.17,-2.73,-5.31,-2.73,-9.41 Z M219.56,90.85 l5.9,-0.73 c-0.93,-3.45,-2.66,-6.13,-5.17,-8.03 c-2.52,-1.9,-5.73,-2.86,-9.65,-2.86 c-4.93,0,-8.84,1.52,-11.73,4.55 c-2.89,3.04,-4.33,7.29,-4.33,12.77 c0,5.67,1.46,10.07,4.38,13.2 c2.92,3.13,6.71,4.7,11.36,4.7 c4.51,0,8.19,-1.53,11.04,-4.6 c2.86,-3.07,4.28,-7.38,4.28,-12.95 c0,-0.34,-0.01,-0.85,-0.03,-1.52 l-25.14,0 c0.21,-3.7,1.26,-6.54,3.14,-8.51 c1.88,-1.97,4.23,-2.95,7.05,-2.95 c2.09,0,3.88,0.55,5.36,1.65 c1.48,1.1,2.66,2.86,3.52,5.27 Z M200.81,100.09 l18.82,0 c-0.25,2.84,-0.97,4.96,-2.16,6.38 c-1.82,2.2,-4.18,3.3,-7.08,3.3 c-2.62,0,-4.83,-0.88,-6.62,-2.63 c-1.79,-1.76,-2.78,-4.1,-2.97,-7.05 Z M232.51,80 l0,46.53 l5.71,0 l0,-46.53 Z M247.11,119.96 l0,6.57 l5.71,0 l0,-6.57 Z M247.11,80 l0,33.71 l5.71,0 l0,-33.71 Z M284.59,90.85 l5.9,-0.73 c-0.93,-3.45,-2.66,-6.13,-5.17,-8.03 c-2.52,-1.9,-5.73,-2.86,-9.65,-2.86 c-4.93,0,-8.84,1.52,-11.73,4.55 c-2.89,3.04,-4.33,7.29,-4.33,12.77 c0,5.67,1.46,10.07,4.38,13.2 c2.92,3.13,6.71,4.7,11.36,4.7 c4.51,0,8.19,-1.53,11.04,-4.6 c2.86,-3.07,4.28,-7.38,4.28,-12.95 c0,-0.34,-0.01,-0.85,-0.03,-1.52 l-25.14,0 c0.21,-3.7,1.26,-6.54,3.14,-8.51 c1.88,-1.97,4.23,-2.95,7.05,-2.95 c2.09,0,3.88,0.55,5.36,1.65 c1.48,1.1,2.66,2.86,3.52,5.27 Z M265.84,100.09 l18.82,0 c-0.25,2.84,-0.97,4.96,-2.16,6.38 c-1.82,2.2,-4.18,3.3,-7.08,3.3 c-2.62,0,-4.83,-0.88,-6.62,-2.63 c-1.79,-1.76,-2.78,-4.1,-2.97,-7.05 Z M310.14,85.11 l0.83,-5.05 c-1.61,-0.34,-3.05,-0.51,-4.32,-0.51 c-2.07,0,-3.68,0.33,-4.82,0.98 c-1.14,0.66,-1.95,1.52,-2.41,2.59 c-0.47,1.07,-0.7,3.32,-0.7,6.74 l0,19.39 l-4.19,0 l0,4.44 l4.19,0 l0,8.35 l5.68,3.43 l0,-11.77 l5.74,0 l0,-4.44 l-5.74,0 l0,-19.71 c0,-1.63,0.1,-2.68,0.3,-3.14 c0.2,-0.47,0.53,-0.84,0.98,-1.11 c0.45,-0.28,1.11,-0.41,1.95,-0.41 c0.63,0,1.47,0.07,2.51,0.22 Z M313.44,90.06 l5.65,0.89 c0.32,-2.26,1.2,-4.0,2.65,-5.21 c1.45,-1.21,3.48,-1.81,6.08,-1.81 c2.62,0,4.57,0.53,5.84,1.6 c1.27,1.07,1.9,2.32,1.9,3.76 c0,1.29,-0.56,2.31,-1.68,3.05 c-0.78,0.51,-2.73,1.15,-5.84,1.94 c-4.19,1.06,-7.09,1.97,-8.71,2.75 c-1.62,0.77,-2.85,1.84,-3.68,3.21 c-0.84,1.36,-1.25,2.87,-1.25,4.52 c0,1.5,0.34,2.89,1.03,4.17 c0.69,1.28,1.62,2.34,2.81,3.19 c0.89,0.66,2.1,1.21,3.63,1.67 c1.53,0.45,3.18,0.68,4.94,0.68 c2.64,0,4.97,-0.38,6.97,-1.14 c2.0,-0.76,3.48,-1.79,4.43,-3.09 c0.95,-1.3,1.61,-3.04,1.97,-5.22 l-5.59,-0.76 c-0.25,1.74,-0.99,3.09,-2.21,4.06 c-1.22,0.97,-2.94,1.46,-5.16,1.46 c-2.62,0,-4.5,-0.43,-5.62,-1.3 c-1.12,-0.87,-1.68,-1.88,-1.68,-3.05 c0,-0.74,0.23,-1.41,0.7,-2.0 c0.47,-0.61,1.2,-1.12,2.19,-1.52 c0.57,-0.21,2.25,-0.7,5.05,-1.46 c4.04,-1.08,6.86,-1.96,8.46,-2.65 c1.6,-0.69,2.85,-1.69,3.76,-3.0 c0.91,-1.31,1.36,-2.94,1.36,-4.89 c0,-1.9,-0.56,-3.7,-1.67,-5.38 c-1.11,-1.68,-2.71,-2.98,-4.81,-3.9 c-2.09,-0.92,-4.46,-1.38,-7.11,-1.38 c-4.38,0,-7.72,0.91,-10.01,2.73 c-2.3,1.82,-3.76,4.52,-4.4,8.09 Z M313.44,90.06" fill="rgb(0,0,0)" transform="matrix(1,0,0,-1,0,200)"/>
</svg>