<?xml version="1.0" encoding="UTF-8"?>
<svg height="200" version="1.1" width="500" xmlns="http://www.w3.org/2000/svg" xmlns:xlink="http://www.w3.org/1999/xlink">
 <path d="M0,0 l500,0 l0,200 l-500,0 Z M0,0" fill="rgb(255,255,255)" transform="matrix(1,0,0,-1,0,200)"/>
 <path d="M118.71,80 l-5.3,0 l0,46.53 l5.71,0 l0,-16.6 c2.41,3.03,5.49,4.54,9.24,4.54 c2.07,0,4.04,-0.42,5.89,-1.25 c1.85,-0.84,3.37,-2.01,4.57,-3.52 c1.2,-1.51,2.13,-3.34,2.81,-5.47 c0.68,-2.14,1.02,-4.42,1.02,-6.86 c0,-5.78,-1.43,-10.24,-4.28,-13.39 c-2.86,-3.15,-6.28,-4.73,-10.28,-4.73 c-3.98,0,-7.1,1.66,-9.36,4.98 Z M118.65,97.11 c0,-4.04,0.55,-6.96,1.65,-8.76 c1.8,-2.94,4.23,-4.41,7.3,-4.41 c2.5,0,4.65,1.08,6.47,3.25 c1.82,2.17,2.73,5.4,2.73,9.7 c0,4.4,-0.87,7.65,-2.62,9.74 c-1.75,2.09,-3.86,3.14,-6.33,3.14 c-2.5,0,-4.65,-1.08,-6.47,-3.25 c-1.82,-2.17,-2.73,-5.31,-2.73,-9.41 Z M149.53,80 l0,33.71 l5.14,0 l0,-5.11 c1.31,2.39,2.52,3.97,3.63,4.73 c1.11,0.76,2.33,1.14,3.67,1.14 c1.93,0,3.88,-0.61,5.87,-1.84 l-1.97,-5.3 c-1.4,0.83,-2.79,1.24,-4.19,1.24 c-1.25,0,-2.37,-0.38,-3.36,-1.13 c-0.99,-0.75,-1.7,-1.79,-2.13,-3.13 c-0.63,-2.03,-0.95,-4.25,-0.95,-6.67 l0,-17.65 Z M193.33,80 l0,4.95 c-2.62,-3.81,-6.19,-5.71,-10.7,-5.71 c-1.99,0,-3.85,0.38,-5.57,1.14 c-1.72,0.76,-3.0,1.72,-3.84,2.87 c-0.84,1.15,-1.42,2.57,-1.76,4.24 c-0.23,1.12,-0.35,2.9,-0.35,5.33 l0,20.88 l5.71,0 l0,-18.69 c0,-2.98,0.12,-4.99,0.35,-6.03 c0.36,-1.5,1.12,-2.68,2.29,-3.54 c1.16,-0.86,2.6,-1.29,4.32,-1.29 c1.71,0,3.32,0.44,4.82,1.32 c1.5,0.88,2.57,2.07,3.19,3.59 c0.62,1.51,0.94,3.71,0.94,6.59 l0,18.06 l5.71,0 l0,-33.71 Z M207.39,80 l0,33.71 l5.11,0 l0,-4.73 c1.06,1.65,2.46,2.98,4.22,3.98 c1.76,1.01,3.76,1.51,6.0,1.51 c2.5,0,4.54,-0.52,6.14,-1.56 c1.6,-1.04,2.72,-2.49,3.38,-4.35 c2.67,3.94,6.14,5.9,10.41,5.9 c3.34,0,5.91,-0.93,7.71,-2.78 c1.8,-1.85,2.7,-4.7,2.7,-8.55 l0,-23.14 l-5.68,0 l0,21.23 c0,2.29,-0.19,3.93,-0.56,4.94 c-0.37,1.01,-1.04,1.81,-2.02,2.43 c-0.97,0.61,-2.12,0.92,-3.43,0.92 c-2.37,0,-4.34,-0.79,-5.9,-2.36 c-1.57,-1.58,-2.35,-4.1,-2.35,-7.57 l0,-19.58 l-5.71,0 l0,21.9 c0,2.54,-0.47,4.44,-1.4,5.71 c-0.93,1.27,-2.45,1.9,-4.57,1.9 c-1.61,0,-3.09,-0.42,-4.46,-1.27 c-1.36,-0.85,-2.35,-2.08,-2.97,-3.71 c-0.61,-1.63,-0.92,-3.98,-0.92,-7.05 l0,-17.49 Z M261.54,80 l0,33.71 l5.11,0 l0,-4.73 c1.06,1.65,2.46,2.98,4.22,3.98 c1.76,1.01,3.76,1.51,6.0,1.51 c2.5,0,4.54,-0.52,6.14,-1.56 c1.6,-1.04,2.72,-2.49,3.38,-4.35 c2.67,3.94,6.14,5.9,10.41,5.9 c3.34,0,5.91,-0.93,7.71,-2.78 c1.8,-1.85,2.7,-4.7,2.7,-8.55 l0,-23.14 l-5.68,0 l0,21.23 c0,2.29,-0.19,3.93,-0.56,4.94 c-0.37,1.01,-1.04,1.81,-2.02,2.43 c-0.97,0.61,-2.12,0.92,-3.43,0.92 c-2.37,0,-4.34,-0.79,-5.9,-2.36 c-1.57,-1.58,-2.35,-4.1,-2.35,-7.57 l0,-19.58 l-5.71,0 l0,21.9 c0,2.54,-0.47,4.44,-1.4,5.71 c-0.93,1.27,-2.45,1.9,-4.57,1.9 c-1.61,0,-3.09,-0.42,-4.46,-1.27 c-1.36,-0.85,-2.35,-2.08,-2.97,-3.71 c-0.61,-1.63,-0.92,-3.98,-0.92,-7.05 l0,-17.49 Z M315.71,119.96 l0,6.57 l5.71,0 l0,-6.57 Z M315.71,80 l0,33.71 l5.71,0 l0,-33.71 Z M342.6,85.11 l0.83,-5.05 c-1.61,-0.34,-3.05,-0.51,-4.32,-0.51 c-2.07,0,-3.68,0.33,-4.82,0.98 c-1.14,0.66,-1.95,1.52,-2.41,2.59 c-0.47,1.07,-0.7,3.32,-0.7,6.74 l0,19.39 l-4.19,0 l0,4.44 l4.19,0 l0,8.35 l5.68,3.43 l0,-11.77 l5.74,0 l0,-4.44 l-5.74,0 l0,-19.71 c0,-1.63,0.1,-2.68,0.3,-3.14 c0.2,-0.47,0.53,-0.84,0.98,-1.11 c0.45,-0.28,1.11,-0.41,1.95,-0.41 c0.63,0,1.47,0.07,2.51,0.22 Z M348.21,119.96 l0,6.57 l5.71,0 l0,-6.57 Z M348.21,80 l0,33.71 l5.71,0 l0,-33.71 Z M384.62,92.35 l5.62,-0.73 c-0.61,-3.87,-2.18,-6.9,-4.71,-9.09 c-2.53,-2.19,-5.63,-3.28,-9.32,-3.28 c-4.61,0,-8.32,1.51,-11.12,4.52 c-2.8,3.02,-4.21,7.34,-4.21,12.97 c0,3.64,0.6,6.82,1.81,9.55 c1.21,2.73,3.04,4.78,5.51,6.14 c2.47,1.36,5.15,2.05,8.05,2.05 c3.66,0,6.65,-0.93,8.98,-2.78 c2.33,-1.85,3.82,-4.48,4.48,-7.89 l-5.55,-0.86 c-0.53,2.26,-1.47,3.97,-2.81,5.11 c-1.34,1.14,-2.97,1.71,-4.87,1.71 c-2.88,0,-5.22,-1.03,-7.01,-3.09 c-1.8,-2.06,-2.7,-5.33,-2.7,-9.79 c0,-4.53,0.87,-7.82,2.6,-9.87 c1.74,-2.05,4.0,-3.08,6.79,-3.08 c2.24,0,4.12,0.69,5.62,2.06 c1.5,1.38,2.45,3.49,2.86,6.35 Z M384.62,92.35" fill="rgb(0,0,0)" transform="matrix(1,0,0,-1,0,200)"/>
</svg>