<?xml version="1.0" encoding="UTF-8"?>
<svg height="200" version="1.1" width="500" xmlns="http://www.w3.org/2000/svg" xmlns:xlink="http://www.w3.org/1999/xlink">
 <path d="M0,0 l500,0 l0,200 l-500,0 Z M0,0" fill="rgb(255,255,255)" transform="matrix(1,0,0,-1,0,200)"/>
 <path d="M140.04,90.85 l5.9,-0.73 c-0.93,-3.45,-2.66,-6.13,-5.17,-8.03 c-2.52,-1.9,-5.73,-2.86,-9.65,-2.86 c-4.93,0,-8.84,1.52,-11.73,4.55 c-2.89,3.04,-4.33,7.29,-4.33,12.77 c0,5.67,1.46,10.07,4.38,13.2 c2.92,3.13,6.71,4.7,11.36,4.7 c4.51,0,8.19,-1.53,11.04,-4.6 c2.86,-3.07,4.28,-7.38,4.28,-12.95 c0,-0.34,-0.01,-0.85,-0.03,-1.52 l-25.14,0 c0.21,-3.7,1.26,-6.54,3.14,-8.51 c1.88,-1.97,4.23,-2.95,7.05,-2.95 c2.09,0,3.88,0.55,5.36,1.65 c1.48,1.1,2.66,2.86,3.52,5.27 Z M121.29,100.09 l18.82,0 c-0.25,2.84,-0.97,4.96,-2.16,6.38 c-1.82,2.2,-4.18,3.3,-7.08,3.3 c-2.62,0,-4.83,-0.88,-6.62,-2.63 c-1.79,-1.76,-2.78,-4.1,-2.97,-7.05 Z M149.31,80 l12.31,17.52 l-11.39,16.19 l7.14,0 l5.17,-7.9 c0.97,-1.5,1.76,-2.76,2.35,-3.78 c0.93,1.4,1.79,2.63,2.57,3.71 l5.68,7.97 l6.82,0 l-11.65,-15.87 l12.54,-17.84 l-7.01,0 l-6.92,10.47 l-1.84,2.82 l-8.85,-13.3 Z M185.62,67.08 l0,46.62 l5.21,0 l0,-4.38 c1.23,1.71,2.61,3.0,4.16,3.86 c1.54,0.86,3.42,1.29,5.62,1.29 c2.88,0,5.42,-0.74,7.62,-2.22 c2.2,-1.48,3.86,-3.57,4.98,-6.27 c1.12,-2.7,1.68,-5.65,1.68,-8.87 c0,-3.45,-0.62,-6.55,-1.86,-9.32 c-1.24,-2.76,-3.04,-4.88,-5.4,-6.35 c-2.36,-1.47,-4.84,-2.21,-7.44,-2.21 c-1.9,0,-3.61,0.4,-5.13,1.21 c-1.51,0.8,-2.76,1.82,-3.73,3.05 l0,-16.41 Z M190.79,96.66 c0,-4.34,0.88,-7.54,2.63,-9.62 c1.76,-2.07,3.88,-3.11,6.38,-3.11 c2.54,0,4.71,1.07,6.52,3.22 c1.81,2.15,2.71,5.47,2.71,9.98 c0,4.3,-0.88,7.51,-2.65,9.65 c-1.77,2.14,-3.88,3.21,-6.33,3.21 c-2.43,0,-4.59,-1.14,-6.46,-3.41 c-1.87,-2.27,-2.81,-5.58,-2.81,-9.92 Z M221.64,80 l0,46.53 l5.71,0 l0,-46.53 Z M234.08,96.85 c0,6.24,1.74,10.87,5.21,13.87 c2.9,2.5,6.43,3.75,10.6,3.75 c4.63,0,8.42,-1.52,11.36,-4.55 c2.94,-3.04,4.41,-7.23,4.41,-12.58 c0,-4.34,-0.65,-7.75,-1.95,-10.24 c-1.3,-2.49,-3.19,-4.42,-5.68,-5.79 c-2.49,-1.38,-5.2,-2.06,-8.14,-2.06 c-4.72,0,-8.53,1.51,-11.44,4.54 c-2.91,3.03,-4.36,7.38,-4.36,13.08 Z M239.95,96.85 c0,-4.32,0.94,-7.55,2.82,-9.7 c1.88,-2.15,4.25,-3.22,7.11,-3.22 c2.84,0,5.19,1.08,7.08,3.24 c1.88,2.16,2.82,5.45,2.82,9.87 c0,4.17,-0.95,7.33,-2.84,9.47 c-1.89,2.15,-4.25,3.22,-7.06,3.22 c-2.86,0,-5.23,-1.07,-7.11,-3.21 c-1.88,-2.14,-2.82,-5.36,-2.82,-9.68 Z M278.58,80 l-10.31,33.71 l5.9,0 l5.36,-19.46 l2.0,-7.24 c0.08,0.36,0.67,2.68,1.75,6.95 l5.36,19.74 l5.87,0 l5.05,-19.55 l1.68,-6.44 l1.94,6.51 l5.78,19.49 l5.55,0 l-10.54,-33.71 l-5.94,0 l-5.36,20.19 l-1.3,5.74 l-6.82,-25.93 Z M342.37,90.85 l5.9,-0.73 c-0.93,-3.45,-2.66,-6.13,-5.17,-8.03 c-2.52,-1.9,-5.73,-2.86,-9.65,-2.86 c-4.93,0,-8.84,1.52,-11.73,4.55 c-2.89,3.04,-4.33,7.29,-4.33,12.77 c0,5.67,1.46,10.07,4.38,13.2 c2.92,3.13,6.71,4.7,11.36,4.7 c4.51,0,8.19,-1.53,11.04,-4.6 c2.86,-3.07,4.28,-7.38,4.28,-12.95 c0,-0.34,-0.01,-0.85,-0.03,-1.52 l-25.14,0 c0.21,-3.7,1.26,-6.54,3.14,-8.51 c1.88,-1.97,4.23,-2.95,7.05,-2.95 c2.09,0,3.88,0.55,5.36,1.65 c1.48,1.1,2.66,2.86,3.52,5.27 Z M323.62,100.09 l18.82,0 c-0.25,2.84,-0.97,4.96,-2.16,6.38 c-1.82,2.2,-4.18,3.3,-7.08,3.3 c-2.62,0,-4.83,-0.88,-6.62,-2.63 c-1.79,-1.76,-2.78,-4.1,-2.97,-7.05 Z M377.32,80 l0,4.25 c-2.14,-3.34,-5.28,-5.01,-9.43,-5.01 c-2.69,0,-5.16,0.74,-7.41,2.22 c-2.25,1.48,-4.0,3.55,-5.24,6.2 c-1.24,2.66,-1.86,5.71,-1.86,9.16 c0,3.36,0.56,6.42,1.68,9.16 c1.12,2.74,2.8,4.84,5.05,6.3 c2.24,1.46,4.75,2.19,7.52,2.19 c2.03,0,3.84,-0.43,5.43,-1.29 c1.59,-0.86,2.88,-1.97,3.87,-3.35 l0,16.69 l5.68,0 l0,-46.53 Z M359.26,96.82 c0,-4.32,0.91,-7.54,2.73,-9.68 c1.82,-2.14,3.97,-3.21,6.44,-3.21 c2.5,0,4.62,1.02,6.36,3.06 c1.75,2.04,2.62,5.16,2.62,9.35 c0,4.61,-0.89,8.0,-2.67,10.16 c-1.78,2.16,-3.97,3.24,-6.57,3.24 c-2.54,0,-4.66,-1.04,-6.36,-3.11 c-1.7,-2.07,-2.55,-5.34,-2.55,-9.81 Z M359.26,96.82" fill="rgb(0,0,0)" transform="matrix(1,0,0,-1,0,200)"/>
</svg>