<?xml version="1.0" encoding="UTF-8"?>
<svg height="200" version="1.1" width="500" xmlns="http://www.w3.org/2000/svg" xmlns:xlink="http://www.w3.org/1999/xlink">
 <path d="M0,0 l500,0 l0,200 l-500,0 Z M0,0" fill="rgb(255,255,255)" transform="matrix(1,0,0,-1,0,200)"/>
 <path d="M123.22,80 l-10.31,33.71 l5.9,0 l5.36,-19.46 l2.0,-7.24 c0.08,0.36,0.67,2.68,1.75,6.95 l5.36,19.74 l5.87,0 l5.05,-19.55 l1.68,-6.44 l1.94,6.51 l5.78,19.49 l5.55,0 l-10.54,-33.71 l-5.94,0 l-5.36,20.19 l-1.3,5.74 l-6.82,-25.93 Z M163.94,80 l0,46.53 l5.71,0 l0,-16.69 c2.67,3.09,6.03,4.63,10.09,4.63 c2.5,0,4.67,-0.49,6.51,-1.48 c1.84,-0.98,3.16,-2.34,3.95,-4.08 c0.79,-1.74,1.19,-4.25,1.19,-7.55 l0,-21.36 l-5.71,0 l0,21.36 c0,2.86,-0.62,4.94,-1.86,6.24 c-1.24,1.3,-2.99,1.95,-5.25,1.95 c-1.69,0,-3.28,-0.44,-4.78,-1.32 c-1.49,-0.88,-2.55,-2.07,-3.19,-3.57 c-0.63,-1.5,-0.95,-3.58,-0.95,-6.22 l0,-18.44 Z M222.09,84.16 c-2.12,-1.8,-4.15,-3.07,-6.11,-3.81 c-1.96,-0.74,-4.06,-1.11,-6.3,-1.11 c-3.7,0,-6.55,0.9,-8.54,2.71 c-1.99,1.81,-2.98,4.12,-2.98,6.93 c0,1.65,0.38,3.16,1.13,4.52 c0.75,1.36,1.74,2.46,2.95,3.28 c1.22,0.83,2.59,1.45,4.11,1.87 c1.12,0.3,2.81,0.58,5.08,0.86 c4.61,0.55,8.01,1.21,10.19,1.97 c0.02,0.78,0.03,1.28,0.03,1.49 c0,2.33,-0.54,3.97,-1.62,4.92 c-1.46,1.29,-3.63,1.94,-6.51,1.94 c-2.69,0,-4.67,-0.47,-5.95,-1.41 c-1.28,-0.94,-2.23,-2.61,-2.84,-5.0 l-5.59,0.76 c0.51,2.39,1.34,4.32,2.51,5.79 c1.16,1.47,2.85,2.6,5.05,3.4 c2.2,0.79,4.75,1.19,7.65,1.19 c2.88,0,5.22,-0.34,7.01,-1.02 c1.8,-0.68,3.12,-1.53,3.97,-2.55 c0.85,-1.03,1.44,-2.32,1.78,-3.89 c0.19,-0.97,0.29,-2.73,0.29,-5.27 l0,-7.62 c0,-5.31,0.12,-8.67,0.36,-10.08 c0.24,-1.41,0.72,-2.76,1.44,-4.05 l-5.97,0 c-0.59,1.18,-0.97,2.57,-1.14,4.16 Z M221.61,96.92 c-2.07,-0.85,-5.18,-1.57,-9.33,-2.16 c-2.35,-0.34,-4.01,-0.72,-4.98,-1.14 c-0.97,-0.42,-1.72,-1.04,-2.25,-1.86 c-0.53,-0.81,-0.79,-1.72,-0.79,-2.71 c0,-1.52,0.58,-2.79,1.73,-3.81 c1.15,-1.02,2.84,-1.52,5.06,-1.52 c2.2,0,4.16,0.48,5.87,1.44 c1.71,0.96,2.97,2.28,3.78,3.95 c0.61,1.29,0.92,3.19,0.92,5.71 Z M236.27,119.96 l0,6.57 l5.71,0 l0,-6.57 Z M236.27,80 l0,33.71 l5.71,0 l0,-33.71 Z M250.68,80 l0,33.71 l5.11,0 l0,-4.73 c1.06,1.65,2.46,2.98,4.22,3.98 c1.76,1.01,3.76,1.51,6.0,1.51 c2.5,0,4.54,-0.52,6.14,-1.56 c1.6,-1.04,2.72,-2.49,3.38,-4.35 c2.67,3.94,6.14,5.9,10.41,5.9 c3.34,0,5.91,-0.93,7.71,-2.78 c1.8,-1.85,2.7,-4.7,2.7,-8.55 l0,-23.14 l-5.68,0 l0,21.23 c0,2.29,-0.19,3.93,-0.56,4.94 c-0.37,1.01,-1.04,1.81,-2.02,2.43 c-0.97,0.61,-2.12,0.92,-3.43,0.92 c-2.37,0,-4.34,-0.79,-5.9,-2.36 c-1.57,-1.58,-2.35,-4.1,-2.35,-7.57 l0,-19.58 l-5.71,0 l0,21.9 c0,2.54,-0.47,4.44,-1.4,5.71 c-0.93,1.27,-2.45,1.9,-4.57,1.9 c-1.61,0,-3.09,-0.42,-4.46,-1.27 c-1.36,-0.85,-2.35,-2.08,-2.97,-3.71 c-0.61,-1.63,-0.92,-3.98,-0.92,-7.05 l0,-17.49 Z M304.86,119.96 l0,6.57 l5.71,0 l0,-6.57 Z M304.86,80 l0,33.71 l5.71,0 l0,-33.71 Z M319.27,80 l0,33.71 l5.14,0 l0,-4.79 c2.48,3.7,6.05,5.55,10.73,5.55 c2.03,0,3.9,-0.36,5.6,-1.09 c1.7,-0.73,2.98,-1.69,3.82,-2.87 c0.85,-1.18,1.44,-2.59,1.78,-4.22 c0.21,-1.06,0.32,-2.91,0.32,-5.55 l0,-20.73 l-5.71,0 l0,20.5 c0,2.33,-0.22,4.07,-0.67,5.22 c-0.44,1.15,-1.23,2.07,-2.36,2.76 c-1.13,0.69,-2.46,1.03,-3.98,1.03 c-2.43,0,-4.53,-0.77,-6.3,-2.32 c-1.77,-1.54,-2.65,-4.48,-2.65,-8.79 l0,-18.41 Z M354.37,77.21 l5.55,-0.83 c0.23,-1.71,0.88,-2.96,1.94,-3.75 c1.42,-1.06,3.35,-1.59,5.81,-1.59 c2.64,0,4.69,0.53,6.13,1.59 c1.44,1.06,2.41,2.54,2.92,4.44 c0.3,1.16,0.43,3.61,0.41,7.33 c-2.5,-2.94,-5.61,-4.41,-9.33,-4.41 c-4.63,0,-8.22,1.67,-10.76,5.01 c-2.54,3.34,-3.81,7.35,-3.81,12.03 c0,3.22,0.58,6.18,1.75,8.9 c1.16,2.72,2.85,4.82,5.06,6.3 c2.21,1.48,4.81,2.22,7.79,2.22 c3.98,0,7.26,-1.61,9.84,-4.82 l0,4.06 l5.27,0 l0,-29.14 c0,-5.25,-0.53,-8.97,-1.6,-11.16 c-1.07,-2.19,-2.76,-3.92,-5.08,-5.19 c-2.32,-1.27,-5.17,-1.9,-8.55,-1.9 c-4.02,0,-7.27,0.9,-9.74,2.71 c-2.48,1.81,-3.67,4.53,-3.59,8.17 Z M359.1,97.46 c0,-4.42,0.88,-7.65,2.63,-9.68 c1.76,-2.03,3.96,-3.05,6.6,-3.05 c2.62,0,4.82,1.01,6.6,3.03 c1.78,2.02,2.67,5.19,2.67,9.51 c0,4.13,-0.92,7.24,-2.75,9.33 c-1.83,2.09,-4.04,3.14,-6.62,3.14 c-2.54,0,-4.7,-1.03,-6.47,-3.09 c-1.78,-2.06,-2.67,-5.13,-2.67,-9.19 Z M359.1,97.46" fill="rgb(0,0,0)" transform="matrix(1,0,0,-1,0,200)"/>
</svg>