<?xml version="1.0" encoding="UTF-8"?>
<svg height="200" version="1.1" width="800" xmlns="http://www.w3.org/2000/svg" xmlns:xlink="http://www.w3.org/1999/xlink">
 <path d="M0,0 l800,0 l0,200 l-800,0 Z M0,0" fill="rgb(255,255,255)" transform="matrix(1,0,0,-1,0,200)"/>
 <path d="M348.34,87.04 l-7.93,25.93 l4.54,0 l4.13,-14.97 l1.54,-5.57 c0.07,0.28,0.51,2.06,1.34,5.35 l4.13,15.19 l4.52,0 l3.88,-15.04 l1.29,-4.96 l1.49,5.0 l4.44,14.99 l4.27,0 l-8.11,-25.93 l-4.57,0 l-4.13,15.53 l-1.0,4.42 l-5.25,-19.95 Z M378.03,100 c0,4.8,1.33,8.36,4.0,10.67 c2.23,1.92,4.95,2.88,8.15,2.88 c3.56,0,6.48,-1.17,8.74,-3.5 c2.26,-2.34,3.39,-5.56,3.39,-9.68 c0,-3.34,-0.5,-5.96,-1.5,-7.87 c-1.0,-1.91,-2.46,-3.4,-4.37,-4.46 c-1.91,-1.06,-4.0,-1.59,-6.26,-1.59 c-3.63,0,-6.56,1.16,-8.8,3.49 c-2.24,2.33,-3.36,5.68,-3.36,10.06 Z M382.54,100 c0,-3.32,0.72,-5.81,2.17,-7.46 c1.45,-1.65,3.27,-2.48,5.47,-2.48 c2.18,0,4.0,0.83,5.44,2.49 c1.45,1.66,2.17,4.19,2.17,7.59 c0,3.21,-0.73,5.64,-2.19,7.29 c-1.46,1.65,-3.27,2.48,-5.43,2.48 c-2.2,0,-4.02,-0.82,-5.47,-2.47 c-1.45,-1.64,-2.17,-4.13,-2.17,-7.45 Z M407.42,87.04 l0,25.93 l3.96,0 l0,-3.93 c1.01,1.84,1.94,3.05,2.8,3.64 c0.85,0.59,1.79,0.88,2.82,0.88 c1.48,0,2.99,-0.47,4.52,-1.42 l-1.51,-4.08 c-1.07,0.63,-2.15,0.95,-3.22,0.95 c-0.96,0,-1.82,-0.29,-2.59,-0.87 c-0.76,-0.58,-1.31,-1.38,-1.64,-2.4 c-0.49,-1.56,-0.73,-3.27,-0.73,-5.13 l0,-13.57 Z M424.02,87.04 l0,35.79 l4.39,0 l0,-35.79 Z M452.05,87.04 l0,3.27 c-1.64,-2.57,-4.06,-3.86,-7.25,-3.86 c-2.07,0,-3.97,0.57,-5.7,1.71 c-1.73,1.14,-3.08,2.73,-4.03,4.77 c-0.95,2.04,-1.43,4.39,-1.43,7.04 c0,2.59,0.43,4.94,1.29,7.04 c0.86,2.11,2.16,3.72,3.88,4.85 c1.73,1.12,3.65,1.68,5.79,1.68 c1.56,0,2.95,-0.33,4.17,-0.99 c1.22,-0.66,2.21,-1.52,2.98,-2.58 l0,12.84 l4.37,0 l0,-35.79 Z M438.16,99.98 c0,-3.32,0.7,-5.8,2.1,-7.45 c1.4,-1.64,3.05,-2.47,4.96,-2.47 c1.92,0,3.55,0.79,4.9,2.36 c1.34,1.57,2.01,3.97,2.01,7.19 c0,3.55,-0.68,6.15,-2.05,7.81 c-1.37,1.66,-3.05,2.49,-5.05,2.49 c-1.95,0,-3.58,-0.8,-4.9,-2.39 c-1.31,-1.6,-1.97,-4.11,-1.97,-7.54 Z M438.16,99.98" fill="rgb(0,0,0)" transform="matrix(1,0,0,-1,0,200)"/>
</svg>