<?xml version="1.0" encoding="UTF-8"?>
<svg height="200" version="1.1" width="800" xmlns="http://www.w3.org/2000/svg" xmlns:xlink="http://www.w3.org/1999/xlink">
 <path d="M0,0 l800,0 l0,200 l-800,0 Z M0,0" fill="rgb(255,255,255)" transform="matrix(1,0,0,-1,0,200)"/>
 <path d="M346.18,87.04 l-4.08,0 l0,35.79 l4.39,0 l0,-12.77 c1.86,2.33,4.22,3.49,7.1,3.49 c1.6,0,3.1,-0.32,4.53,-0.96 c1.42,-0.64,2.6,-1.55,3.52,-2.71 c0.92,-1.16,1.64,-2.57,2.16,-4.21 c0.52,-1.64,0.78,-3.4,0.78,-5.27 c0,-4.44,-1.1,-7.88,-3.3,-10.3 c-2.2,-2.43,-4.83,-3.64,-7.91,-3.64 c-3.06,0,-5.46,1.28,-7.2,3.83 Z M346.13,100.2 c0,-3.11,0.42,-5.35,1.27,-6.74 c1.38,-2.26,3.26,-3.39,5.62,-3.39 c1.92,0,3.58,0.83,4.98,2.5 c1.4,1.67,2.1,4.15,2.1,7.46 c0,3.39,-0.67,5.88,-2.01,7.5 c-1.34,1.61,-2.97,2.42,-4.87,2.42 c-1.92,0,-3.58,-0.83,-4.98,-2.5 c-1.4,-1.67,-2.1,-4.08,-2.1,-7.24 Z M369.84,87.04 l0,35.79 l4.39,0 l0,-35.79 Z M379.41,100 c0,4.8,1.33,8.36,4.0,10.67 c2.23,1.92,4.95,2.88,8.15,2.88 c3.56,0,6.48,-1.17,8.74,-3.5 c2.26,-2.34,3.39,-5.56,3.39,-9.68 c0,-3.34,-0.5,-5.96,-1.5,-7.87 c-1.0,-1.91,-2.46,-3.4,-4.37,-4.46 c-1.91,-1.06,-4.0,-1.59,-6.26,-1.59 c-3.63,0,-6.56,1.16,-8.8,3.49 c-2.24,2.33,-3.36,5.68,-3.36,10.06 Z M383.92,100 c0,-3.32,0.72,-5.81,2.17,-7.46 c1.45,-1.65,3.27,-2.48,5.47,-2.48 c2.18,0,4.0,0.83,5.44,2.49 c1.45,1.66,2.17,4.19,2.17,7.59 c0,3.21,-0.73,5.64,-2.19,7.29 c-1.46,1.65,-3.27,2.48,-5.43,2.48 c-2.2,0,-4.02,-0.82,-5.47,-2.47 c-1.45,-1.64,-2.17,-4.13,-2.17,-7.45 Z M407.21,100 c0,4.8,1.33,8.36,4.0,10.67 c2.23,1.92,4.95,2.88,8.15,2.88 c3.56,0,6.48,-1.17,8.74,-3.5 c2.26,-2.34,3.39,-5.56,3.39,-9.68 c0,-3.34,-0.5,-5.96,-1.5,-7.87 c-1.0,-1.91,-2.46,-3.4,-4.37,-4.46 c-1.91,-1.06,-4.0,-1.59,-6.26,-1.59 c-3.63,0,-6.56,1.16,-8.8,3.49 c-2.24,2.33,-3.36,5.68,-3.36,10.06 Z M411.73,100 c0,-3.32,0.72,-5.81,2.17,-7.46 c1.45,-1.65,3.27,-2.48,5.47,-2.48 c2.18,0,4.0,0.83,5.44,2.49 c1.45,1.66,2.17,4.19,2.17,7.59 c0,3.21,-0.73,5.64,-2.19,7.29 c-1.46,1.65,-3.27,2.48,-5.43,2.48 c-2.2,0,-4.02,-0.82,-5.47,-2.47 c-1.45,-1.64,-2.17,-4.13,-2.17,-7.45 Z M453.48,87.04 l0,3.27 c-1.64,-2.57,-4.06,-3.86,-7.25,-3.86 c-2.07,0,-3.97,0.57,-5.7,1.71 c-1.73,1.14,-3.08,2.73,-4.03,4.77 c-0.95,2.04,-1.43,4.39,-1.43,7.04 c0,2.59,0.43,4.94,1.29,7.04 c0.86,2.11,2.16,3.72,3.88,4.85 c1.73,1.12,3.65,1.68,5.79,1.68 c1.56,0,2.95,-0.33,4.17,-0.99 c1.22,-0.66,2.21,-1.52,2.98,-2.58 l0,12.84 l4.37,0 l0,-35.79 Z M439.59,99.98 c0,-3.32,0.7,-5.8,2.1,-7.45 c1.4,-1.64,3.05,-2.47,4.96,-2.47 c1.92,0,3.55,0.79,4.9,2.36 c1.34,1.57,2.01,3.97,2.01,7.19 c0,3.55,-0.68,6.15,-2.05,7.81 c-1.37,1.66,-3.05,2.49,-5.05,2.49 c-1.95,0,-3.58,-0.8,-4.9,-2.39 c-1.31,-1.6,-1.97,-4.11,-1.97,-7.54 Z M439.59,99.98" fill="rgb(0,0,0)" transform="matrix(1,0,0,-1,0,200)"/>
</svg>