<?xml version="1.0" encoding="UTF-8"?>
<svg height="200" version="1.1" width="800" xmlns="http://www.w3.org/2000/svg" xmlns:xlink="http://www.w3.org/1999/xlink">
 <path d="M0,0 l800,0 l0,200 l-800,0 Z M0,0" fill="rgb(255,255,255)" transform="matrix(1,0,0,-1,0,200)"/>
 <path d="M283.57,74.07 l0,45.02 l-7.76,0 l0,6.84 l7.76,0 l0,5.52 c0,3.48,0.31,6.07,0.93,7.76 c0.85,2.28,2.34,4.13,4.47,5.54 c2.13,1.42,5.12,2.12,8.96,2.12 c2.47,0,5.21,-0.29,8.2,-0.88 l-1.32,-7.67 c-1.82,0.33,-3.55,0.49,-5.18,0.49 c-2.67,0,-4.56,-0.57,-5.66,-1.71 c-1.11,-1.14,-1.66,-3.27,-1.66,-6.4 l0,-4.79 l10.11,0 l0,-6.84 l-10.11,0 l0,-45.02 Z M305.98,100 c0,9.6,2.67,16.72,8.01,21.34 c4.46,3.84,9.9,5.76,16.31,5.76 c7.13,0,12.96,-2.34,17.48,-7.01 c4.52,-4.67,6.79,-11.12,6.79,-19.36 c0,-6.67,-1.0,-11.92,-3.0,-15.75 c-2.0,-3.82,-4.92,-6.8,-8.74,-8.91 c-3.82,-2.12,-8.0,-3.17,-12.52,-3.17 c-7.26,0,-13.13,2.33,-17.6,6.98 c-4.48,4.65,-6.71,11.36,-6.71,20.12 Z M315.01,100 c0,-6.64,1.45,-11.61,4.35,-14.92 c2.9,-3.3,6.54,-4.96,10.94,-4.96 c4.36,0,7.99,1.66,10.89,4.98 c2.9,3.32,4.35,8.38,4.35,15.19 c0,6.41,-1.46,11.27,-4.37,14.58 c-2.91,3.3,-6.53,4.96,-10.86,4.96 c-4.39,0,-8.04,-1.64,-10.94,-4.93 c-2.9,-3.29,-4.35,-8.25,-4.35,-14.89 Z M398.85,74.07 l0,7.62 c-4.04,-5.86,-9.52,-8.79,-16.46,-8.79 c-3.06,0,-5.92,0.59,-8.57,1.76 c-2.65,1.17,-4.62,2.64,-5.91,4.42 c-1.29,1.77,-2.19,3.95,-2.71,6.52 c-0.36,1.73,-0.54,4.46,-0.54,8.2 l0,32.13 l8.79,0 l0,-28.76 c0,-4.59,0.18,-7.68,0.54,-9.28 c0.55,-2.31,1.73,-4.13,3.52,-5.44 c1.79,-1.32,4.0,-1.98,6.64,-1.98 c2.64,0,5.11,0.68,7.42,2.03 c2.31,1.35,3.95,3.19,4.91,5.52 c0.96,2.33,1.44,5.7,1.44,10.13 l0,27.78 l8.79,0 l0,-51.86 Z M420.48,74.07 l0,51.86 l7.91,0 l0,-7.37 c3.81,5.7,9.31,8.54,16.5,8.54 c3.13,0,6.0,-0.56,8.62,-1.68 c2.62,-1.12,4.58,-2.6,5.88,-4.42 c1.3,-1.82,2.21,-3.99,2.73,-6.49 c0.33,-1.63,0.49,-4.48,0.49,-8.54 l0,-31.88 l-8.79,0 l0,31.54 c0,3.58,-0.34,6.26,-1.03,8.03 c-0.68,1.77,-1.9,3.19,-3.64,4.25 c-1.74,1.06,-3.78,1.59,-6.13,1.59 c-3.74,0,-6.97,-1.19,-9.69,-3.56 c-2.72,-2.38,-4.08,-6.88,-4.08,-13.53 l0,-28.32 Z M509.74,74.07 l0,6.54 c-3.29,-5.14,-8.12,-7.71,-14.5,-7.71 c-4.13,0,-7.93,1.14,-11.4,3.42 c-3.47,2.28,-6.15,5.46,-8.06,9.55 c-1.9,4.09,-2.86,8.78,-2.86,14.09 c0,5.18,0.86,9.87,2.59,14.09 c1.73,4.22,4.31,7.45,7.76,9.69 c3.45,2.25,7.31,3.37,11.57,3.37 c3.13,0,5.91,-0.66,8.35,-1.98 c2.44,-1.32,4.43,-3.04,5.96,-5.15 l0,25.68 l8.74,0 l0,-71.58 Z M481.96,99.95 c0,-6.64,1.4,-11.6,4.2,-14.89 c2.8,-3.29,6.1,-4.93,9.91,-4.93 c3.84,0,7.1,1.57,9.79,4.71 c2.69,3.14,4.03,7.93,4.03,14.38 c0,7.1,-1.37,12.3,-4.1,15.62 c-2.73,3.32,-6.1,4.98,-10.11,4.98 c-3.91,0,-7.17,-1.6,-9.79,-4.79 c-2.62,-3.19,-3.93,-8.22,-3.93,-15.09 Z M481.96,99.95" fill="rgb(0,0,0)" transform="matrix(1,0,0,-1,0,200)"/>
</svg>