<?xml version="1.0" encoding="UTF-8"?>
<svg height="200" version="1.1" width="800" xmlns="http://www.w3.org/2000/svg" xmlns:xlink="http://www.w3.org/1999/xlink">
 <path d="M0,0 l800,0 l0,200 l-800,0 Z M0,0" fill="rgb(255,255,255)" transform="matrix(1,0,0,-1,0,200)"/>
 <path d="M273.17,74.07 l0,71.58 l8.79,0 l0,-25.68 c4.1,4.75,9.28,7.13,15.53,7.13 c3.84,0,7.18,-0.76,10.01,-2.27 c2.83,-1.51,4.86,-3.61,6.08,-6.27 c1.22,-2.67,1.83,-6.54,1.83,-11.62 l0,-32.86 l-8.79,0 l0,32.86 c0,4.39,-0.95,7.59,-2.86,9.59 c-1.9,2.0,-4.6,3.0,-8.08,3.0 c-2.6,0,-5.05,-0.68,-7.35,-2.03 c-2.29,-1.35,-3.93,-3.18,-4.91,-5.49 c-0.98,-2.31,-1.46,-5.5,-1.46,-9.57 l0,-28.37 Z M364.28,90.77 l9.08,-1.12 c-1.43,-5.31,-4.09,-9.42,-7.96,-12.35 c-3.87,-2.93,-8.82,-4.39,-14.84,-4.39 c-7.58,0,-13.6,2.34,-18.04,7.01 c-4.44,4.67,-6.67,11.22,-6.67,19.65 c0,8.72,2.25,15.49,6.74,20.31 c4.49,4.82,10.32,7.23,17.48,7.23 c6.93,0,12.6,-2.36,16.99,-7.08 c4.39,-4.72,6.59,-11.36,6.59,-19.92 c0,-0.52,-0.02,-1.3,-0.05,-2.34 l-38.67,0 c0.33,-5.7,1.94,-10.06,4.83,-13.09 c2.9,-3.03,6.51,-4.54,10.84,-4.54 c3.22,0,5.97,0.85,8.25,2.54 c2.28,1.69,4.09,4.39,5.42,8.11 Z M335.42,104.98 l28.96,0 c-0.39,4.36,-1.5,7.63,-3.32,9.81 c-2.8,3.39,-6.43,5.08,-10.89,5.08 c-4.04,0,-7.43,-1.35,-10.18,-4.05 c-2.75,-2.7,-4.27,-6.32,-4.57,-10.84 Z M418.24,80.47 c-3.26,-2.77,-6.39,-4.72,-9.4,-5.86 c-3.01,-1.14,-6.24,-1.71,-9.69,-1.71 c-5.7,0,-10.07,1.39,-13.13,4.17 c-3.06,2.78,-4.59,6.34,-4.59,10.67 c0,2.54,0.58,4.86,1.73,6.96 c1.16,2.1,2.67,3.78,4.54,5.05 c1.87,1.27,3.98,2.23,6.32,2.88 c1.73,0.46,4.33,0.9,7.81,1.32 c7.1,0.85,12.32,1.86,15.67,3.03 c0.03,1.2,0.05,1.97,0.05,2.29 c0,3.58,-0.83,6.1,-2.49,7.57 c-2.25,1.99,-5.58,2.98,-10.01,2.98 c-4.13,0,-7.19,-0.72,-9.16,-2.17 c-1.97,-1.45,-3.43,-4.01,-4.37,-7.69 l-8.59,1.17 c0.78,3.68,2.07,6.65,3.86,8.91 c1.79,2.26,4.38,4.0,7.76,5.22 c3.39,1.22,7.31,1.83,11.77,1.83 c4.43,0,8.02,-0.52,10.79,-1.56 c2.77,-1.04,4.8,-2.35,6.1,-3.93 c1.3,-1.58,2.21,-3.57,2.73,-5.98 c0.29,-1.5,0.44,-4.2,0.44,-8.11 l0,-11.72 c0,-8.17,0.19,-13.34,0.56,-15.5 c0.37,-2.16,1.11,-4.24,2.22,-6.23 l-9.18,0 c-0.91,1.82,-1.5,3.96,-1.76,6.4 Z M417.5,100.1 c-3.19,-1.3,-7.98,-2.41,-14.36,-3.32 c-3.61,-0.52,-6.17,-1.11,-7.67,-1.76 c-1.5,-0.65,-2.65,-1.6,-3.47,-2.86 c-0.81,-1.25,-1.22,-2.64,-1.22,-4.17 c0,-2.34,0.89,-4.3,2.66,-5.86 c1.77,-1.56,4.37,-2.34,7.79,-2.34 c3.39,0,6.4,0.74,9.03,2.22 c2.64,1.48,4.57,3.51,5.81,6.08 c0.94,1.99,1.42,4.92,1.42,8.79 Z M454.42,74.07 l-19.73,51.86 l9.28,0 l11.13,-31.05 c1.2,-3.35,2.31,-6.84,3.32,-10.45 c0.78,2.73,1.87,6.02,3.27,9.86 l11.52,31.64 l9.03,0 l-19.63,-51.86 Z M489.62,54.1 l-0.98,8.25 c1.92,-0.52,3.6,-0.78,5.03,-0.78 c1.95,0,3.52,0.33,4.69,0.98 c1.17,0.65,2.13,1.56,2.88,2.73 c0.55,0.88,1.45,3.06,2.69,6.54 c0.16,0.49,0.42,1.2,0.78,2.15 l-19.68,51.95 l9.47,0 l10.79,-30.03 c1.4,-3.81,2.65,-7.81,3.76,-12.01 c1.01,4.04,2.21,7.98,3.61,11.82 l11.08,30.22 l8.79,0 l-19.73,-52.73 c-2.12,-5.7,-3.76,-9.62,-4.93,-11.77 c-1.56,-2.9,-3.35,-5.02,-5.37,-6.37 c-2.02,-1.35,-4.43,-2.03,-7.23,-2.03 c-1.69,0,-3.58,0.36,-5.66,1.07 Z M489.62,54.1" fill="rgb(0,0,0)" transform="matrix(1,0,0,-1,0,200)"/>
</svg>