<?xml version="1.0" encoding="UTF-8"?>
<svg height="200" version="1.1" width="800" xmlns="http://www.w3.org/2000/svg" xmlns:xlink="http://www.w3.org/1999/xlink">
 <path d="M0,0 l800,0 l0,200 l-800,0 Z M0,0" fill="rgb(255,255,255)" transform="matrix(1,0,0,-1,0,200)"/>
 <path d="M343.82,89.63 l0,2.62 c-1.32,-2.06,-3.25,-3.09,-5.8,-3.09 c-1.65,0,-3.17,0.46,-4.56,1.37 c-1.39,0.91,-2.46,2.18,-3.22,3.82 c-0.76,1.63,-1.14,3.51,-1.14,5.63 c0,2.07,0.35,3.95,1.04,5.63 c0.69,1.69,1.73,2.98,3.11,3.88 c1.38,0.9,2.92,1.35,4.63,1.35 c1.25,0,2.36,-0.26,3.34,-0.79 c0.98,-0.53,1.77,-1.21,2.38,-2.06 l0,10.27 l3.5,0 l0,-28.63 Z M332.71,99.98 c0,-2.66,0.56,-4.64,1.68,-5.96 c1.12,-1.32,2.44,-1.97,3.96,-1.97 c1.54,0,2.84,0.63,3.92,1.88 c1.07,1.26,1.61,3.17,1.61,5.75 c0,2.84,-0.55,4.92,-1.64,6.25 c-1.09,1.33,-2.44,1.99,-4.04,1.99 c-1.56,0,-2.87,-0.64,-3.92,-1.91 c-1.05,-1.28,-1.57,-3.29,-1.57,-6.04 Z M366.14,92.19 c-1.3,-1.11,-2.56,-1.89,-3.76,-2.34 c-1.2,-0.46,-2.5,-0.68,-3.88,-0.68 c-2.28,0,-4.03,0.56,-5.25,1.67 c-1.22,1.11,-1.84,2.54,-1.84,4.27 c0,1.02,0.23,1.94,0.69,2.78 c0.46,0.84,1.07,1.51,1.82,2.02 c0.75,0.51,1.59,0.89,2.53,1.15 c0.69,0.18,1.73,0.36,3.12,0.53 c2.84,0.34,4.93,0.74,6.27,1.21 c0.01,0.48,0.02,0.79,0.02,0.92 c0,1.43,-0.33,2.44,-1.0,3.03 c-0.9,0.79,-2.23,1.19,-4.0,1.19 c-1.65,0,-2.87,-0.29,-3.66,-0.87 c-0.79,-0.58,-1.37,-1.6,-1.75,-3.08 l-3.44,0.47 c0.31,1.47,0.83,2.66,1.54,3.56 c0.72,0.9,1.75,1.6,3.11,2.09 c1.35,0.49,2.92,0.73,4.71,0.73 c1.77,0,3.21,-0.21,4.32,-0.62 c1.11,-0.42,1.92,-0.94,2.44,-1.57 c0.52,-0.63,0.89,-1.43,1.09,-2.39 c0.12,-0.6,0.18,-1.68,0.18,-3.24 l0,-4.69 c0,-3.27,0.07,-5.34,0.22,-6.2 c0.15,-0.87,0.45,-1.7,0.89,-2.49 l-3.67,0 c-0.36,0.73,-0.6,1.58,-0.7,2.56 Z M365.85,100.04 c-1.28,-0.52,-3.19,-0.96,-5.74,-1.33 c-1.45,-0.21,-2.47,-0.44,-3.07,-0.7 c-0.6,-0.26,-1.06,-0.64,-1.39,-1.14 c-0.33,-0.5,-0.49,-1.06,-0.49,-1.67 c0,-0.94,0.35,-1.72,1.06,-2.34 c0.71,-0.63,1.75,-0.94,3.12,-0.94 c1.35,0,2.56,0.3,3.61,0.89 c1.05,0.59,1.83,1.4,2.32,2.43 c0.38,0.79,0.57,1.97,0.57,3.52 Z M374.85,89.63 l0,20.74 l3.14,0 l0,-2.91 c0.65,1.02,1.52,1.83,2.6,2.45 c1.08,0.62,2.31,0.93,3.69,0.93 c1.54,0,2.8,-0.32,3.78,-0.96 c0.98,-0.64,1.68,-1.53,2.08,-2.68 c1.64,2.42,3.78,3.63,6.41,3.63 c2.06,0,3.64,-0.57,4.75,-1.71 c1.11,-1.14,1.66,-2.89,1.66,-5.26 l0,-14.24 l-3.5,0 l0,13.07 c0,1.41,-0.11,2.42,-0.34,3.04 c-0.23,0.62,-0.64,1.12,-1.24,1.49 c-0.6,0.38,-1.3,0.57,-2.11,0.57 c-1.46,0,-2.67,-0.49,-3.63,-1.46 c-0.96,-0.97,-1.45,-2.52,-1.45,-4.66 l0,-12.05 l-3.52,0 l0,13.48 c0,1.56,-0.29,2.73,-0.86,3.52 c-0.57,0.78,-1.51,1.17,-2.81,1.17 c-0.99,0,-1.9,-0.26,-2.74,-0.78 c-0.84,-0.52,-1.45,-1.28,-1.83,-2.29 c-0.38,-1.0,-0.57,-2.45,-0.57,-4.34 l0,-10.76 Z M421.71,92.19 c-1.3,-1.11,-2.56,-1.89,-3.76,-2.34 c-1.2,-0.46,-2.5,-0.68,-3.88,-0.68 c-2.28,0,-4.03,0.56,-5.25,1.67 c-1.22,1.11,-1.84,2.54,-1.84,4.27 c0,1.02,0.23,1.94,0.69,2.78 c0.46,0.84,1.07,1.51,1.82,2.02 c0.75,0.51,1.59,0.89,2.53,1.15 c0.69,0.18,1.73,0.36,3.12,0.53 c2.84,0.34,4.93,0.74,6.27,1.21 c0.01,0.48,0.02,0.79,0.02,0.92 c0,1.43,-0.33,2.44,-1.0,3.03 c-0.9,0.79,-2.23,1.19,-4.0,1.19 c-1.65,0,-2.87,-0.29,-3.66,-0.87 c-0.79,-0.58,-1.37,-1.6,-1.75,-3.08 l-3.44,0.47 c0.31,1.47,0.83,2.66,1.54,3.56 c0.72,0.9,1.75,1.6,3.11,2.09 c1.35,0.49,2.92,0.73,4.71,0.73 c1.77,0,3.21,-0.21,4.32,-0.62 c1.11,-0.42,1.92,-0.94,2.44,-1.57 c0.52,-0.63,0.89,-1.43,1.09,-2.39 c0.12,-0.6,0.18,-1.68,0.18,-3.24 l0,-4.69 c0,-3.27,0.07,-5.34,0.22,-6.2 c0.15,-0.87,0.45,-1.7,0.89,-2.49 l-3.67,0 c-0.36,0.73,-0.6,1.58,-0.7,2.56 Z M421.42,100.04 c-1.28,-0.52,-3.19,-0.96,-5.74,-1.33 c-1.45,-0.21,-2.47,-0.44,-3.07,-0.7 c-0.6,-0.26,-1.06,-0.64,-1.39,-1.14 c-0.33,-0.5,-0.49,-1.06,-0.49,-1.67 c0,-0.94,0.35,-1.72,1.06,-2.34 c0.71,-0.63,1.75,-0.94,3.12,-0.94 c1.35,0,2.56,0.3,3.61,0.89 c1.05,0.59,1.83,1.4,2.32,2.43 c0.38,0.79,0.57,1.97,0.57,3.52 Z M429.78,87.91 l3.42,-0.51 c0.14,-1.05,0.54,-1.82,1.19,-2.3 c0.87,-0.65,2.06,-0.98,3.57,-0.98 c1.63,0,2.88,0.33,3.77,0.98 c0.89,0.65,1.48,1.56,1.8,2.73 c0.18,0.72,0.27,2.22,0.25,4.51 c-1.54,-1.81,-3.45,-2.71,-5.74,-2.71 c-2.85,0,-5.06,1.03,-6.62,3.09 c-1.56,2.06,-2.34,4.52,-2.34,7.4 c0,1.98,0.36,3.81,1.07,5.48 c0.72,1.67,1.75,2.97,3.12,3.88 c1.36,0.91,2.96,1.37,4.79,1.37 c2.45,0,4.47,-0.99,6.05,-2.97 l0,2.5 l3.24,0 l0,-17.93 c0,-3.23,-0.33,-5.52,-0.99,-6.87 c-0.66,-1.35,-1.7,-2.41,-3.12,-3.19 c-1.43,-0.78,-3.18,-1.17,-5.26,-1.17 c-2.47,0,-4.47,0.56,-6.0,1.67 c-1.52,1.11,-2.26,2.79,-2.21,5.03 Z M432.69,100.37 c0,-2.72,0.54,-4.71,1.62,-5.96 c1.08,-1.25,2.43,-1.88,4.06,-1.88 c1.61,0,2.97,0.62,4.06,1.87 c1.09,1.24,1.64,3.19,1.64,5.85 c0,2.54,-0.56,4.45,-1.69,5.74 c-1.13,1.29,-2.48,1.93,-4.07,1.93 c-1.56,0,-2.89,-0.63,-3.98,-1.9 c-1.09,-1.27,-1.64,-3.15,-1.64,-5.65 Z M466.87,96.31 l3.63,-0.45 c-0.57,-2.12,-1.63,-3.77,-3.18,-4.94 c-1.55,-1.17,-3.53,-1.76,-5.94,-1.76 c-3.03,0,-5.44,0.93,-7.22,2.8 c-1.78,1.87,-2.67,4.49,-2.67,7.86 c0,3.49,0.9,6.2,2.7,8.12 c1.8,1.93,4.13,2.89,6.99,2.89 c2.77,0,5.04,-0.94,6.8,-2.83 c1.76,-1.89,2.64,-4.54,2.64,-7.97 c0,-0.21,-0.01,-0.52,-0.02,-0.94 l-15.47,0 c0.13,-2.28,0.77,-4.02,1.93,-5.23 c1.16,-1.21,2.6,-1.82,4.34,-1.82 c1.29,0,2.39,0.34,3.3,1.02 c0.91,0.68,1.63,1.76,2.17,3.24 Z M455.32,101.99 l11.58,0 c-0.16,1.74,-0.6,3.05,-1.33,3.93 c-1.12,1.35,-2.57,2.03,-4.36,2.03 c-1.61,0,-2.97,-0.54,-4.07,-1.62 c-1.1,-1.08,-1.71,-2.53,-1.83,-4.34 Z M455.32,101.99" fill="rgb(0,0,0)" transform="matrix(1,0,0,-1,0,200)"/>
</svg>