<?xml version="1.0" encoding="UTF-8"?>
<svg height="200" version="1.1" width="800" xmlns="http://www.w3.org/2000/svg" xmlns:xlink="http://www.w3.org/1999/xlink">
 <path d="M0,0 l800,0 l0,200 l-800,0 Z M0,0" fill="rgb(255,255,255)" transform="matrix(1,0,0,-1,0,200)"/>
 <path d="M265.09,74.07 l0,6.54 c-3.29,-5.14,-8.12,-7.71,-14.5,-7.71 c-4.13,0,-7.93,1.14,-11.4,3.42 c-3.47,2.28,-6.15,5.46,-8.06,9.55 c-1.9,4.09,-2.86,8.78,-2.86,14.09 c0,5.18,0.86,9.87,2.59,14.09 c1.73,4.22,4.31,7.45,7.76,9.69 c3.45,2.25,7.31,3.37,11.57,3.37 c3.13,0,5.91,-0.66,8.35,-1.98 c2.44,-1.32,4.43,-3.04,5.96,-5.15 l0,25.68 l8.74,0 l0,-71.58 Z M237.3,99.95 c0,-6.64,1.4,-11.6,4.2,-14.89 c2.8,-3.29,6.1,-4.93,9.91,-4.93 c3.84,0,7.1,1.57,9.79,4.71 c2.69,3.14,4.03,7.93,4.03,14.38 c0,7.1,-1.37,12.3,-4.1,15.62 c-2.73,3.32,-6.1,4.98,-10.11,4.98 c-3.91,0,-7.17,-1.6,-9.79,-4.79 c-2.62,-3.19,-3.93,-8.22,-3.93,-15.09 Z M322.56,90.77 l9.08,-1.12 c-1.43,-5.31,-4.09,-9.42,-7.96,-12.35 c-3.87,-2.93,-8.82,-4.39,-14.84,-4.39 c-7.58,0,-13.6,2.34,-18.04,7.01 c-4.44,4.67,-6.67,11.22,-6.67,19.65 c0,8.72,2.25,15.49,6.74,20.31 c4.49,4.82,10.32,7.23,17.48,7.23 c6.93,0,12.6,-2.36,16.99,-7.08 c4.39,-4.72,6.59,-11.36,6.59,-19.92 c0,-0.52,-0.02,-1.3,-0.05,-2.34 l-38.67,0 c0.33,-5.7,1.94,-10.06,4.83,-13.09 c2.9,-3.03,6.51,-4.54,10.84,-4.54 c3.22,0,5.97,0.85,8.25,2.54 c2.28,1.69,4.09,4.39,5.42,8.11 Z M293.7,104.98 l28.96,0 c-0.39,4.36,-1.5,7.63,-3.32,9.81 c-2.8,3.39,-6.43,5.08,-10.89,5.08 c-4.04,0,-7.43,-1.35,-10.18,-4.05 c-2.75,-2.7,-4.27,-6.32,-4.57,-10.84 Z M376.51,93.07 l8.64,-1.12 c-0.94,-5.96,-3.36,-10.62,-7.25,-13.99 c-3.89,-3.37,-8.67,-5.05,-14.33,-5.05 c-7.1,0,-12.8,2.32,-17.11,6.96 c-4.31,4.64,-6.47,11.29,-6.47,19.95 c0,5.6,0.93,10.5,2.78,14.7 c1.86,4.2,4.68,7.35,8.47,9.45 c3.79,2.1,7.92,3.15,12.38,3.15 c5.63,0,10.24,-1.42,13.82,-4.27 c3.58,-2.85,5.88,-6.89,6.88,-12.13 l-8.54,-1.32 c-0.81,3.48,-2.25,6.1,-4.32,7.86 c-2.07,1.76,-4.57,2.64,-7.5,2.64 c-4.43,0,-8.02,-1.59,-10.79,-4.76 c-2.77,-3.17,-4.15,-8.19,-4.15,-15.06 c0,-6.97,1.33,-12.03,4.0,-15.19 c2.67,-3.16,6.15,-4.74,10.45,-4.74 c3.45,0,6.33,1.06,8.64,3.17 c2.31,2.12,3.78,5.37,4.39,9.77 Z M392.72,135.55 l0,10.11 l8.79,0 l0,-10.11 Z M392.72,74.07 l0,51.86 l8.79,0 l0,-51.86 Z M448.54,74.07 l0,6.54 c-3.29,-5.14,-8.12,-7.71,-14.5,-7.71 c-4.13,0,-7.93,1.14,-11.4,3.42 c-3.47,2.28,-6.15,5.46,-8.06,9.55 c-1.9,4.09,-2.86,8.78,-2.86,14.09 c0,5.18,0.86,9.87,2.59,14.09 c1.73,4.22,4.31,7.45,7.76,9.69 c3.45,2.25,7.31,3.37,11.57,3.37 c3.13,0,5.91,-0.66,8.35,-1.98 c2.44,-1.32,4.43,-3.04,5.96,-5.15 l0,25.68 l8.74,0 l0,-71.58 Z M420.75,99.95 c0,-6.64,1.4,-11.6,4.2,-14.89 c2.8,-3.29,6.1,-4.93,9.91,-4.93 c3.84,0,7.1,1.57,9.79,4.71 c2.69,3.14,4.03,7.93,4.03,14.38 c0,7.1,-1.37,12.3,-4.1,15.62 c-2.73,3.32,-6.1,4.98,-10.11,4.98 c-3.91,0,-7.17,-1.6,-9.79,-4.79 c-2.62,-3.19,-3.93,-8.22,-3.93,-15.09 Z M506.01,90.77 l9.08,-1.12 c-1.43,-5.31,-4.09,-9.42,-7.96,-12.35 c-3.87,-2.93,-8.82,-4.39,-14.84,-4.39 c-7.58,0,-13.6,2.34,-18.04,7.01 c-4.44,4.67,-6.67,11.22,-6.67,19.65 c0,8.72,2.25,15.49,6.74,20.31 c4.49,4.82,10.32,7.23,17.48,7.23 c6.93,0,12.6,-2.36,16.99,-7.08 c4.39,-4.72,6.59,-11.36,6.59,-19.92 c0,-0.52,-0.02,-1.3,-0.05,-2.34 l-38.67,0 c0.33,-5.7,1.94,-10.06,4.83,-13.09 c2.9,-3.03,6.51,-4.54,10.84,-4.54 c3.22,0,5.97,0.85,8.25,2.54 c2.28,1.69,4.09,4.39,5.42,8.11 Z M477.15,104.98 l28.96,0 c-0.39,4.36,-1.5,7.63,-3.32,9.81 c-2.8,3.39,-6.43,5.08,-10.89,5.08 c-4.04,0,-7.43,-1.35,-10.18,-4.05 c-2.75,-2.7,-4.27,-6.32,-4.57,-10.84 Z M559.77,74.07 l0,6.54 c-3.29,-5.14,-8.12,-7.71,-14.5,-7.71 c-4.13,0,-7.93,1.14,-11.4,3.42 c-3.47,2.28,-6.15,5.46,-8.06,9.55 c-1.9,4.09,-2.86,8.78,-2.86,14.09 c0,5.18,0.86,9.87,2.59,14.09 c1.73,4.22,4.31,7.45,7.76,9.69 c3.45,2.25,7.31,3.37,11.57,3.37 c3.13,0,5.91,-0.66,8.35,-1.98 c2.44,-1.32,4.43,-3.04,5.96,-5.15 l0,25.68 l8.74,0 l0,-71.58 Z M531.98,99.95 c0,-6.64,1.4,-11.6,4.2,-14.89 c2.8,-3.29,6.1,-4.93,9.91,-4.93 c3.84,0,7.1,1.57,9.79,4.71 c2.69,3.14,4.03,7.93,4.03,14.38 c0,7.1,-1.37,12.3,-4.1,15.62 c-2.73,3.32,-6.1,4.98,-10.11,4.98 c-3.91,0,-7.17,-1.6,-9.79,-4.79 c-2.62,-3.19,-3.93,-8.22,-3.93,-15.09 Z M531.98,99.95" fill="rgb(0,0,0)" transform="matrix(1,0,0,-1,0,200)"/>
</svg>