<?xml version="1.0" encoding="UTF-8"?>
<svg height="200" version="1.1" width="800" xmlns="http://www.w3.org/2000/svg" xmlns:xlink="http://www.w3.org/1999/xlink">
 <path d="M0,0 l800,0 l0,200 l-800,0 Z M0,0" fill="rgb(255,255,255)" transform="matrix(1,0,0,-1,0,200)"/>
 <path d="M256.52,74.07 l0,51.86 l7.86,0 l0,-7.28 c1.63,2.54,3.79,4.58,6.49,6.13 c2.7,1.55,5.78,2.32,9.23,2.32 c3.84,0,6.99,-0.8,9.45,-2.39 c2.46,-1.6,4.19,-3.82,5.2,-6.69 c4.1,6.05,9.44,9.08,16.02,9.08 c5.14,0,9.1,-1.42,11.87,-4.27 c2.77,-2.85,4.15,-7.23,4.15,-13.16 l0,-35.6 l-8.74,0 l0,32.67 c0,3.52,-0.28,6.05,-0.85,7.59 c-0.57,1.55,-1.6,2.79,-3.1,3.74 c-1.5,0.94,-3.26,1.42,-5.27,1.42 c-3.65,0,-6.67,-1.21,-9.08,-3.64 c-2.41,-2.43,-3.61,-6.31,-3.61,-11.65 l0,-30.13 l-8.79,0 l0,33.69 c0,3.91,-0.72,6.84,-2.15,8.79 c-1.43,1.95,-3.78,2.93,-7.03,2.93 c-2.47,0,-4.76,-0.65,-6.86,-1.95 c-2.1,-1.3,-3.62,-3.21,-4.57,-5.71 c-0.94,-2.51,-1.42,-6.12,-1.42,-10.84 l0,-26.9 Z M339.87,135.55 l0,10.11 l8.79,0 l0,-10.11 Z M339.87,74.07 l0,51.86 l8.79,0 l0,-51.86 Z M362.04,74.07 l0,51.86 l7.91,0 l0,-7.37 c3.81,5.7,9.31,8.54,16.5,8.54 c3.13,0,6.0,-0.56,8.62,-1.68 c2.62,-1.12,4.58,-2.6,5.88,-4.42 c1.3,-1.82,2.21,-3.99,2.73,-6.49 c0.33,-1.63,0.49,-4.48,0.49,-8.54 l0,-31.88 l-8.79,0 l0,31.54 c0,3.58,-0.34,6.26,-1.03,8.03 c-0.68,1.77,-1.9,3.19,-3.64,4.25 c-1.74,1.06,-3.78,1.59,-6.13,1.59 c-3.74,0,-6.97,-1.19,-9.69,-3.56 c-2.72,-2.38,-4.08,-6.88,-4.08,-13.53 l0,-28.32 Z M451.64,74.07 l0,7.62 c-4.04,-5.86,-9.52,-8.79,-16.46,-8.79 c-3.06,0,-5.92,0.59,-8.57,1.76 c-2.65,1.17,-4.62,2.64,-5.91,4.42 c-1.29,1.77,-2.19,3.95,-2.71,6.52 c-0.36,1.73,-0.54,4.46,-0.54,8.2 l0,32.13 l8.79,0 l0,-28.76 c0,-4.59,0.18,-7.68,0.54,-9.28 c0.55,-2.31,1.73,-4.13,3.52,-5.44 c1.79,-1.32,4.0,-1.98,6.64,-1.98 c2.64,0,5.11,0.68,7.42,2.03 c2.31,1.35,3.95,3.19,4.91,5.52 c0.96,2.33,1.44,5.7,1.44,10.13 l0,27.78 l8.79,0 l0,-51.86 Z M492.46,81.93 l1.27,-7.76 c-2.47,-0.52,-4.69,-0.78,-6.64,-0.78 c-3.19,0,-5.66,0.5,-7.42,1.51 c-1.76,1.01,-2.99,2.34,-3.71,3.98 c-0.72,1.64,-1.07,5.1,-1.07,10.38 l0,29.83 l-6.45,0 l0,6.84 l6.45,0 l0,12.84 l8.74,5.27 l0,-18.12 l8.84,0 l0,-6.84 l-8.84,0 l0,-30.32 c0,-2.51,0.15,-4.12,0.46,-4.83 c0.31,-0.72,0.81,-1.29,1.51,-1.71 c0.7,-0.42,1.7,-0.63,3.0,-0.63 c0.98,0,2.26,0.11,3.86,0.34 Z M536.55,90.77 l9.08,-1.12 c-1.43,-5.31,-4.09,-9.42,-7.96,-12.35 c-3.87,-2.93,-8.82,-4.39,-14.84,-4.39 c-7.58,0,-13.6,2.34,-18.04,7.01 c-4.44,4.67,-6.67,11.22,-6.67,19.65 c0,8.72,2.25,15.49,6.74,20.31 c4.49,4.82,10.32,7.23,17.48,7.23 c6.93,0,12.6,-2.36,16.99,-7.08 c4.39,-4.72,6.59,-11.36,6.59,-19.92 c0,-0.52,-0.02,-1.3,-0.05,-2.34 l-38.67,0 c0.33,-5.7,1.94,-10.06,4.83,-13.09 c2.9,-3.03,6.51,-4.54,10.84,-4.54 c3.22,0,5.97,0.85,8.25,2.54 c2.28,1.69,4.09,4.39,5.42,8.11 Z M507.69,104.98 l28.96,0 c-0.39,4.36,-1.5,7.63,-3.32,9.81 c-2.8,3.39,-6.43,5.08,-10.89,5.08 c-4.04,0,-7.43,-1.35,-10.18,-4.05 c-2.75,-2.7,-4.27,-6.32,-4.57,-10.84 Z M507.69,104.98" fill="rgb(0,0,0)" transform="matrix(1,0,0,-1,0,200)"/>
</svg>