<?xml version="1.0" encoding="UTF-8"?>
<svg height="200" version="1.1" width="800" xmlns="http://www.w3.org/2000/svg" xmlns:xlink="http://www.w3.org/1999/xlink">
 <path d="M0,0 l800,0 l0,200 l-800,0 Z M0,0" fill="rgb(255,255,255)" transform="matrix(1,0,0,-1,0,200)"/>
 <path d="M267.63,74.07 l0,51.86 l7.86,0 l0,-7.28 c1.63,2.54,3.79,4.58,6.49,6.13 c2.7,1.55,5.78,2.32,9.23,2.32 c3.84,0,6.99,-0.8,9.45,-2.39 c2.46,-1.6,4.19,-3.82,5.2,-6.69 c4.1,6.05,9.44,9.08,16.02,9.08 c5.14,0,9.1,-1.42,11.87,-4.27 c2.77,-2.85,4.15,-7.23,4.15,-13.16 l0,-35.6 l-8.74,0 l0,32.67 c0,3.52,-0.28,6.05,-0.85,7.59 c-0.57,1.55,-1.6,2.79,-3.1,3.74 c-1.5,0.94,-3.26,1.42,-5.27,1.42 c-3.65,0,-6.67,-1.21,-9.08,-3.64 c-2.41,-2.43,-3.61,-6.31,-3.61,-11.65 l0,-30.13 l-8.79,0 l0,33.69 c0,3.91,-0.72,6.84,-2.15,8.79 c-1.43,1.95,-3.78,2.93,-7.03,2.93 c-2.47,0,-4.76,-0.65,-6.86,-1.95 c-2.1,-1.3,-3.62,-3.21,-4.57,-5.71 c-0.94,-2.51,-1.42,-6.12,-1.42,-10.84 l0,-26.9 Z M347.66,100 c0,9.6,2.67,16.72,8.01,21.34 c4.46,3.84,9.9,5.76,16.31,5.76 c7.13,0,12.96,-2.34,17.48,-7.01 c4.52,-4.67,6.79,-11.12,6.79,-19.36 c0,-6.67,-1.0,-11.92,-3.0,-15.75 c-2.0,-3.82,-4.92,-6.8,-8.74,-8.91 c-3.82,-2.12,-8.0,-3.17,-12.52,-3.17 c-7.26,0,-13.13,2.33,-17.6,6.98 c-4.48,4.65,-6.71,11.36,-6.71,20.12 Z M356.69,100 c0,-6.64,1.45,-11.61,4.35,-14.92 c2.9,-3.3,6.54,-4.96,10.94,-4.96 c4.36,0,7.99,1.66,10.89,4.98 c2.9,3.32,4.35,8.38,4.35,15.19 c0,6.41,-1.46,11.27,-4.37,14.58 c-2.91,3.3,-6.53,4.96,-10.86,4.96 c-4.39,0,-8.04,-1.64,-10.94,-4.93 c-2.9,-3.29,-4.35,-8.25,-4.35,-14.89 Z M440.53,74.07 l0,7.62 c-4.04,-5.86,-9.52,-8.79,-16.46,-8.79 c-3.06,0,-5.92,0.59,-8.57,1.76 c-2.65,1.17,-4.62,2.64,-5.91,4.42 c-1.29,1.77,-2.19,3.95,-2.71,6.52 c-0.36,1.73,-0.54,4.46,-0.54,8.2 l0,32.13 l8.79,0 l0,-28.76 c0,-4.59,0.18,-7.68,0.54,-9.28 c0.55,-2.31,1.73,-4.13,3.52,-5.44 c1.79,-1.32,4.0,-1.98,6.64,-1.98 c2.64,0,5.11,0.68,7.42,2.03 c2.31,1.35,3.95,3.19,4.91,5.52 c0.96,2.33,1.44,5.7,1.44,10.13 l0,27.78 l8.79,0 l0,-51.86 Z M481.35,81.93 l1.27,-7.76 c-2.47,-0.52,-4.69,-0.78,-6.64,-0.78 c-3.19,0,-5.66,0.5,-7.42,1.51 c-1.76,1.01,-2.99,2.34,-3.71,3.98 c-0.72,1.64,-1.07,5.1,-1.07,10.38 l0,29.83 l-6.45,0 l0,6.84 l6.45,0 l0,12.84 l8.74,5.27 l0,-18.12 l8.84,0 l0,-6.84 l-8.84,0 l0,-30.32 c0,-2.51,0.15,-4.12,0.46,-4.83 c0.31,-0.72,0.81,-1.29,1.51,-1.71 c0.7,-0.42,1.7,-0.63,3.0,-0.63 c0.98,0,2.26,0.11,3.86,0.34 Z M489.94,74.07 l0,71.58 l8.79,0 l0,-25.68 c4.1,4.75,9.28,7.13,15.53,7.13 c3.84,0,7.18,-0.76,10.01,-2.27 c2.83,-1.51,4.86,-3.61,6.08,-6.27 c1.22,-2.67,1.83,-6.54,1.83,-11.62 l0,-32.86 l-8.79,0 l0,32.86 c0,4.39,-0.95,7.59,-2.86,9.59 c-1.9,2.0,-4.6,3.0,-8.08,3.0 c-2.6,0,-5.05,-0.68,-7.35,-2.03 c-2.29,-1.35,-3.93,-3.18,-4.91,-5.49 c-0.98,-2.31,-1.46,-5.5,-1.46,-9.57 l0,-28.37 Z M489.94,74.07" fill="rgb(0,0,0)" transform="matrix(1,0,0,-1,0,200)"/>
</svg>