<?xml version="1.0" encoding="UTF-8"?>
<svg height="200" version="1.1" width="800" xmlns="http://www.w3.org/2000/svg" xmlns:xlink="http://www.w3.org/1999/xlink">
 <path d="M0,0 l800,0 l0,200 l-800,0 Z M0,0" fill="rgb(255,255,255)" transform="matrix(1,0,0,-1,0,200)"/>
 <path d="M359.91,95.39 l4.54,-0.56 c-0.72,-2.65,-2.04,-4.71,-3.98,-6.18 c-1.94,-1.46,-4.41,-2.2,-7.42,-2.2 c-3.79,0,-6.8,1.17,-9.02,3.5 c-2.22,2.34,-3.33,5.61,-3.33,9.83 c0,4.36,1.12,7.75,3.37,10.16 c2.25,2.41,5.16,3.61,8.74,3.61 c3.47,0,6.3,-1.18,8.5,-3.54 c2.2,-2.36,3.3,-5.68,3.3,-9.96 c0,-0.26,-0.01,-0.65,-0.02,-1.17 l-19.34,0 c0.16,-2.85,0.97,-5.03,2.42,-6.54 c1.45,-1.51,3.26,-2.27,5.42,-2.27 c1.61,0,2.99,0.42,4.13,1.27 c1.14,0.85,2.04,2.2,2.71,4.05 Z M345.48,102.49 l14.48,0 c-0.2,2.18,-0.75,3.82,-1.66,4.91 c-1.4,1.69,-3.21,2.54,-5.44,2.54 c-2.02,0,-3.71,-0.68,-5.09,-2.03 c-1.38,-1.35,-2.14,-3.16,-2.28,-5.42 Z M377.17,87.04 l-9.86,25.93 l4.64,0 l5.57,-15.53 c0.6,-1.68,1.16,-3.42,1.66,-5.22 c0.39,1.37,0.94,3.01,1.64,4.93 l5.76,15.82 l4.52,0 l-9.81,-25.93 Z M412.72,95.39 l4.54,-0.56 c-0.72,-2.65,-2.04,-4.71,-3.98,-6.18 c-1.94,-1.46,-4.41,-2.2,-7.42,-2.2 c-3.79,0,-6.8,1.17,-9.02,3.5 c-2.22,2.34,-3.33,5.61,-3.33,9.83 c0,4.36,1.12,7.75,3.37,10.16 c2.25,2.41,5.16,3.61,8.74,3.61 c3.47,0,6.3,-1.18,8.5,-3.54 c2.2,-2.36,3.3,-5.68,3.3,-9.96 c0,-0.26,-0.01,-0.65,-0.02,-1.17 l-19.34,0 c0.16,-2.85,0.97,-5.03,2.42,-6.54 c1.45,-1.51,3.26,-2.27,5.42,-2.27 c1.61,0,2.99,0.42,4.13,1.27 c1.14,0.85,2.04,2.2,2.71,4.05 Z M398.29,102.49 l14.48,0 c-0.2,2.18,-0.75,3.82,-1.66,4.91 c-1.4,1.69,-3.21,2.54,-5.44,2.54 c-2.02,0,-3.71,-0.68,-5.09,-2.03 c-1.38,-1.35,-2.14,-3.16,-2.28,-5.42 Z M422.73,87.04 l0,25.93 l3.96,0 l0,-3.93 c1.01,1.84,1.94,3.05,2.8,3.64 c0.85,0.59,1.79,0.88,2.82,0.88 c1.48,0,2.99,-0.47,4.52,-1.42 l-1.51,-4.08 c-1.07,0.63,-2.15,0.95,-3.22,0.95 c-0.96,0,-1.82,-0.29,-2.59,-0.87 c-0.76,-0.58,-1.31,-1.38,-1.64,-2.4 c-0.49,-1.56,-0.73,-3.27,-0.73,-5.13 l0,-13.57 Z M439.23,77.05 l-0.49,4.13 c0.96,-0.26,1.8,-0.39,2.51,-0.39 c0.98,0,1.76,0.16,2.34,0.49 c0.59,0.33,1.07,0.78,1.44,1.37 c0.28,0.44,0.72,1.53,1.34,3.27 c0.08,0.24,0.21,0.6,0.39,1.07 l-9.84,25.98 l4.74,0 l5.4,-15.01 c0.7,-1.9,1.33,-3.91,1.88,-6.01 c0.5,2.02,1.11,3.99,1.81,5.91 l5.54,15.11 l4.39,0 l-9.86,-26.37 c-1.06,-2.85,-1.88,-4.81,-2.47,-5.88 c-0.78,-1.45,-1.68,-2.51,-2.69,-3.19 c-1.01,-0.68,-2.21,-1.01,-3.61,-1.01 c-0.85,0,-1.79,0.18,-2.83,0.54 Z M439.23,77.05" fill="rgb(0,0,0)" transform="matrix(1,0,0,-1,0,200)"/>
</svg>