<?xml version="1.0" encoding="UTF-8"?>
<svg height="200" version="1.1" width="800" xmlns="http://www.w3.org/2000/svg" xmlns:xlink="http://www.w3.org/1999/xlink">
 <path d="M0,0 l800,0 l0,200 l-800,0 Z M0,0" fill="rgb(255,255,255)" transform="matrix(1,0,0,-1,0,200)"/>
 <path d="M358.48,87.04 l0,22.51 l-3.88,0 l0,3.42 l3.88,0 l0,2.76 c0,1.74,0.15,3.04,0.46,3.88 c0.42,1.14,1.17,2.06,2.23,2.77 c1.07,0.71,2.56,1.06,4.48,1.06 c1.24,0,2.6,-0.15,4.1,-0.44 l-0.66,-3.83 c-0.91,0.16,-1.77,0.24,-2.59,0.24 c-1.33,0,-2.28,-0.28,-2.83,-0.85 c-0.55,-0.57,-0.83,-1.64,-0.83,-3.2 l0,-2.39 l5.05,0 l0,-3.42 l-5.05,0 l0,-22.51 Z M371.35,117.77 l0,5.05 l4.39,0 l0,-5.05 Z M371.35,87.04 l0,25.93 l4.39,0 l0,-25.93 Z M400.18,95.39 l4.54,-0.56 c-0.72,-2.65,-2.04,-4.71,-3.98,-6.18 c-1.94,-1.46,-4.41,-2.2,-7.42,-2.2 c-3.79,0,-6.8,1.17,-9.02,3.5 c-2.22,2.34,-3.33,5.61,-3.33,9.83 c0,4.36,1.12,7.75,3.37,10.16 c2.25,2.41,5.16,3.61,8.74,3.61 c3.47,0,6.3,-1.18,8.5,-3.54 c2.2,-2.36,3.3,-5.68,3.3,-9.96 c0,-0.26,-0.01,-0.65,-0.02,-1.17 l-19.34,0 c0.16,-2.85,0.97,-5.03,2.42,-6.54 c1.45,-1.51,3.26,-2.27,5.42,-2.27 c1.61,0,2.99,0.42,4.13,1.27 c1.14,0.85,2.04,2.2,2.71,4.05 Z M385.75,102.49 l14.48,0 c-0.2,2.18,-0.75,3.82,-1.66,4.91 c-1.4,1.69,-3.21,2.54,-5.44,2.54 c-2.02,0,-3.71,-0.68,-5.09,-2.03 c-1.38,-1.35,-2.14,-3.16,-2.28,-5.42 Z M410.14,87.04 l0,35.79 l4.39,0 l0,-35.79 Z M438.17,87.04 l0,3.27 c-1.64,-2.57,-4.06,-3.86,-7.25,-3.86 c-2.07,0,-3.97,0.57,-5.7,1.71 c-1.73,1.14,-3.08,2.73,-4.03,4.77 c-0.95,2.04,-1.43,4.39,-1.43,7.04 c0,2.59,0.43,4.94,1.29,7.04 c0.86,2.11,2.16,3.72,3.88,4.85 c1.73,1.12,3.65,1.68,5.79,1.68 c1.56,0,2.95,-0.33,4.17,-0.99 c1.22,-0.66,2.21,-1.52,2.98,-2.58 l0,12.84 l4.37,0 l0,-35.79 Z M424.28,99.98 c0,-3.32,0.7,-5.8,2.1,-7.45 c1.4,-1.64,3.05,-2.47,4.96,-2.47 c1.92,0,3.55,0.79,4.9,2.36 c1.34,1.57,2.01,3.97,2.01,7.19 c0,3.55,-0.68,6.15,-2.05,7.81 c-1.37,1.66,-3.05,2.49,-5.05,2.49 c-1.95,0,-3.58,-0.8,-4.9,-2.39 c-1.31,-1.6,-1.97,-4.11,-1.97,-7.54 Z M424.28,99.98" fill="rgb(0,0,0)" transform="matrix(1,0,0,-1,0,200)"/>
</svg>