<?xml version="1.0" encoding="UTF-8"?>
<svg height="200" version="1.1" width="800" xmlns="http://www.w3.org/2000/svg" xmlns:xlink="http://www.w3.org/1999/xlink">
 <path d="M0,0 l800,0 l0,200 l-800,0 Z M0,0" fill="rgb(255,255,255)" transform="matrix(1,0,0,-1,0,200)"/>
 <path d="M372.36,89.63 l0,18.01 l-3.11,0 l0,2.73 l3.11,0 l0,2.21 c0,1.39,0.12,2.43,0.37,3.11 c0.34,0.91,0.93,1.65,1.79,2.22 c0.85,0.57,2.05,0.85,3.58,0.85 c0.99,0,2.08,-0.12,3.28,-0.35 l-0.53,-3.07 c-0.73,0.13,-1.42,0.2,-2.07,0.2 c-1.07,0,-1.82,-0.23,-2.27,-0.68 c-0.44,-0.46,-0.66,-1.31,-0.66,-2.56 l0,-1.91 l4.04,0 l0,-2.73 l-4.04,0 l0,-18.01 Z M382.66,114.22 l0,4.04 l3.52,0 l0,-4.04 Z M382.66,89.63 l0,20.74 l3.52,0 l0,-20.74 Z M392.36,89.63 l0,18.01 l-3.11,0 l0,2.73 l3.11,0 l0,2.21 c0,1.39,0.12,2.43,0.37,3.11 c0.34,0.91,0.93,1.65,1.79,2.22 c0.85,0.57,2.05,0.85,3.58,0.85 c0.99,0,2.08,-0.12,3.28,-0.35 l-0.53,-3.07 c-0.73,0.13,-1.42,0.2,-2.07,0.2 c-1.07,0,-1.82,-0.23,-2.27,-0.68 c-0.44,-0.46,-0.66,-1.31,-0.66,-2.56 l0,-1.91 l4.04,0 l0,-2.73 l-4.04,0 l0,-18.01 Z M410.31,92.77 l0.51,-3.11 c-0.99,-0.21,-1.87,-0.31,-2.66,-0.31 c-1.28,0,-2.27,0.2,-2.97,0.61 c-0.7,0.4,-1.2,0.93,-1.48,1.59 c-0.29,0.66,-0.43,2.04,-0.43,4.15 l0,11.93 l-2.58,0 l0,2.73 l2.58,0 l0,5.14 l3.5,2.11 l0,-7.25 l3.54,0 l0,-2.73 l-3.54,0 l0,-12.13 c0,-1.0,0.06,-1.65,0.19,-1.93 c0.12,-0.29,0.33,-0.51,0.61,-0.68 c0.28,-0.17,0.68,-0.25,1.2,-0.25 c0.39,0,0.9,0.05,1.54,0.14 Z M413.59,81.64 l-0.39,3.3 c0.77,-0.21,1.44,-0.31,2.01,-0.31 c0.78,0,1.41,0.13,1.88,0.39 c0.47,0.26,0.85,0.62,1.15,1.09 c0.22,0.35,0.58,1.22,1.07,2.62 c0.07,0.2,0.17,0.48,0.31,0.86 l-7.87,20.78 l3.79,0 l4.32,-12.01 c0.56,-1.52,1.06,-3.12,1.5,-4.8 c0.4,1.61,0.89,3.19,1.45,4.73 l4.43,12.09 l3.52,0 l-7.89,-21.09 c-0.85,-2.28,-1.5,-3.85,-1.97,-4.71 c-0.63,-1.16,-1.34,-2.01,-2.15,-2.55 c-0.81,-0.54,-1.77,-0.81,-2.89,-0.81 c-0.68,0,-1.43,0.14,-2.27,0.43 Z M413.59,81.64" fill="rgb(0,0,0)" transform="matrix(1,0,0,-1,0,200)"/>
</svg>