<?xml version="1.0" encoding="UTF-8"?>
<svg height="200" version="1.1" width="800" xmlns="http://www.w3.org/2000/svg" xmlns:xlink="http://www.w3.org/1999/xlink">
 <path d="M0,0 l800,0 l0,200 l-800,0 Z M0,0" fill="rgb(255,255,255)" transform="matrix(1,0,0,-1,0,200)"/>
 <path d="M298.22,54.2 l0,71.73 l8.01,0 l0,-6.74 c1.89,2.64,4.02,4.61,6.4,5.93 c2.38,1.32,5.26,1.98,8.64,1.98 c4.43,0,8.33,-1.14,11.72,-3.42 c3.39,-2.28,5.94,-5.49,7.67,-9.64 c1.73,-4.15,2.59,-8.7,2.59,-13.65 c0,-5.31,-0.95,-10.08,-2.86,-14.33 c-1.9,-4.25,-4.67,-7.5,-8.3,-9.77 c-3.63,-2.26,-7.45,-3.39,-11.45,-3.39 c-2.93,0,-5.56,0.62,-7.89,1.86 c-2.33,1.24,-4.24,2.8,-5.74,4.69 l0,-25.24 Z M306.18,99.71 c0,-6.67,1.35,-11.6,4.05,-14.79 c2.7,-3.19,5.97,-4.79,9.81,-4.79 c3.91,0,7.25,1.65,10.03,4.96 c2.78,3.3,4.17,8.42,4.17,15.36 c0,6.61,-1.36,11.56,-4.08,14.84 c-2.72,3.29,-5.97,4.93,-9.74,4.93 c-3.74,0,-7.06,-1.75,-9.94,-5.25 c-2.88,-3.5,-4.32,-8.59,-4.32,-15.26 Z M353.74,74.07 l0,51.86 l7.91,0 l0,-7.86 c2.02,3.68,3.88,6.1,5.59,7.28 c1.71,1.17,3.59,1.76,5.64,1.76 c2.96,0,5.97,-0.94,9.03,-2.83 l-3.03,-8.15 c-2.15,1.27,-4.3,1.9,-6.45,1.9 c-1.92,0,-3.65,-0.58,-5.18,-1.73 c-1.53,-1.16,-2.62,-2.76,-3.27,-4.81 c-0.98,-3.13,-1.46,-6.54,-1.46,-10.25 l0,-27.15 Z M387.18,135.55 l0,10.11 l8.79,0 l0,-10.11 Z M387.18,74.07 l0,51.86 l8.79,0 l0,-51.86 Z M443.19,93.07 l8.64,-1.12 c-0.94,-5.96,-3.36,-10.62,-7.25,-13.99 c-3.89,-3.37,-8.67,-5.05,-14.33,-5.05 c-7.1,0,-12.8,2.32,-17.11,6.96 c-4.31,4.64,-6.47,11.29,-6.47,19.95 c0,5.6,0.93,10.5,2.78,14.7 c1.86,4.2,4.68,7.35,8.47,9.45 c3.79,2.1,7.92,3.15,12.38,3.15 c5.63,0,10.24,-1.42,13.82,-4.27 c3.58,-2.85,5.88,-6.89,6.88,-12.13 l-8.54,-1.32 c-0.81,3.48,-2.25,6.1,-4.32,7.86 c-2.07,1.76,-4.57,2.64,-7.5,2.64 c-4.43,0,-8.02,-1.59,-10.79,-4.76 c-2.77,-3.17,-4.15,-8.19,-4.15,-15.06 c0,-6.97,1.33,-12.03,4.0,-15.19 c2.67,-3.16,6.15,-4.74,10.45,-4.74 c3.45,0,6.33,1.06,8.64,3.17 c2.31,2.12,3.78,5.37,4.39,9.77 Z M494.85,90.77 l9.08,-1.12 c-1.43,-5.31,-4.09,-9.42,-7.96,-12.35 c-3.87,-2.93,-8.82,-4.39,-14.84,-4.39 c-7.58,0,-13.6,2.34,-18.04,7.01 c-4.44,4.67,-6.67,11.22,-6.67,19.65 c0,8.72,2.25,15.49,6.74,20.31 c4.49,4.82,10.32,7.23,17.48,7.23 c6.93,0,12.6,-2.36,16.99,-7.08 c4.39,-4.72,6.59,-11.36,6.59,-19.92 c0,-0.52,-0.02,-1.3,-0.05,-2.34 l-38.67,0 c0.33,-5.7,1.94,-10.06,4.83,-13.09 c2.9,-3.03,6.51,-4.54,10.84,-4.54 c3.22,0,5.97,0.85,8.25,2.54 c2.28,1.69,4.09,4.39,5.42,8.11 Z M465.99,104.98 l28.96,0 c-0.39,4.36,-1.5,7.63,-3.32,9.81 c-2.8,3.39,-6.43,5.08,-10.89,5.08 c-4.04,0,-7.43,-1.35,-10.18,-4.05 c-2.75,-2.7,-4.27,-6.32,-4.57,-10.84 Z M465.99,104.98" fill="rgb(0,0,0)" transform="matrix(1,0,0,-1,0,200)"/>
</svg>