<?xml version="1.0" encoding="UTF-8"?>
<svg height="200" version="1.1" width="800" xmlns="http://www.w3.org/2000/svg" xmlns:xlink="http://www.w3.org/1999/xlink">
 <path d="M0,0 l800,0 l0,200 l-800,0 Z M0,0" fill="rgb(255,255,255)" transform="matrix(1,0,0,-1,0,200)"/>
 <path d="M325.34,74.07 l0,45.02 l-7.76,0 l0,6.84 l7.76,0 l0,5.52 c0,3.48,0.31,6.07,0.93,7.76 c0.85,2.28,2.34,4.13,4.47,5.54 c2.13,1.42,5.12,2.12,8.96,2.12 c2.47,0,5.21,-0.29,8.2,-0.88 l-1.32,-7.67 c-1.82,0.33,-3.55,0.49,-5.18,0.49 c-2.67,0,-4.56,-0.57,-5.66,-1.71 c-1.11,-1.14,-1.66,-3.27,-1.66,-6.4 l0,-4.79 l10.11,0 l0,-6.84 l-10.11,0 l0,-45.02 Z M350.93,74.07 l0,51.86 l7.91,0 l0,-7.86 c2.02,3.68,3.88,6.1,5.59,7.28 c1.71,1.17,3.59,1.76,5.64,1.76 c2.96,0,5.97,-0.94,9.03,-2.83 l-3.03,-8.15 c-2.15,1.27,-4.3,1.9,-6.45,1.9 c-1.92,0,-3.65,-0.58,-5.18,-1.73 c-1.53,-1.16,-2.62,-2.76,-3.27,-4.81 c-0.98,-3.13,-1.46,-6.54,-1.46,-10.25 l0,-27.15 Z M418.31,74.07 l0,7.62 c-4.04,-5.86,-9.52,-8.79,-16.46,-8.79 c-3.06,0,-5.92,0.59,-8.57,1.76 c-2.65,1.17,-4.62,2.64,-5.91,4.42 c-1.29,1.77,-2.19,3.95,-2.71,6.52 c-0.36,1.73,-0.54,4.46,-0.54,8.2 l0,32.13 l8.79,0 l0,-28.76 c0,-4.59,0.18,-7.68,0.54,-9.28 c0.55,-2.31,1.73,-4.13,3.52,-5.44 c1.79,-1.32,4.0,-1.98,6.64,-1.98 c2.64,0,5.11,0.68,7.42,2.03 c2.31,1.35,3.95,3.19,4.91,5.52 c0.96,2.33,1.44,5.7,1.44,10.13 l0,27.78 l8.79,0 l0,-51.86 Z M439.99,135.55 l0,10.11 l8.79,0 l0,-10.11 Z M439.99,74.07 l0,51.86 l8.79,0 l0,-51.86 Z M481.35,81.93 l1.27,-7.76 c-2.47,-0.52,-4.69,-0.78,-6.64,-0.78 c-3.19,0,-5.66,0.5,-7.42,1.51 c-1.76,1.01,-2.99,2.34,-3.71,3.98 c-0.72,1.64,-1.07,5.1,-1.07,10.38 l0,29.83 l-6.45,0 l0,6.84 l6.45,0 l0,12.84 l8.74,5.27 l0,-18.12 l8.84,0 l0,-6.84 l-8.84,0 l0,-30.32 c0,-2.51,0.15,-4.12,0.46,-4.83 c0.31,-0.72,0.81,-1.29,1.51,-1.71 c0.7,-0.42,1.7,-0.63,3.0,-0.63 c0.98,0,2.26,0.11,3.86,0.34 Z M481.35,81.93" fill="rgb(0,0,0)" transform="matrix(1,0,0,-1,0,200)"/>
</svg>