<?xml version="1.0" encoding="UTF-8"?>
<svg height="200" version="1.1" width="800" xmlns="http://www.w3.org/2000/svg" xmlns:xlink="http://www.w3.org/1999/xlink">
 <path d="M0,0 l800,0 l0,200 l-800,0 Z M0,0" fill="rgb(255,255,255)" transform="matrix(1,0,0,-1,0,200)"/>
 <path d="M359.27,89.63 l0,28.63 l3.52,0 l0,-10.27 c1.64,1.9,3.71,2.85,6.21,2.85 c1.54,0,2.87,-0.3,4.0,-0.91 c1.13,-0.61,1.94,-1.44,2.43,-2.51 c0.49,-1.07,0.73,-2.62,0.73,-4.65 l0,-13.14 l-3.52,0 l0,13.14 c0,1.76,-0.38,3.04,-1.14,3.84 c-0.76,0.8,-1.84,1.2,-3.23,1.2 c-1.04,0,-2.02,-0.27,-2.94,-0.81 c-0.92,-0.54,-1.57,-1.27,-1.96,-2.2 c-0.39,-0.92,-0.59,-2.2,-0.59,-3.83 l0,-11.35 Z M380.21,100 c0,3.84,1.07,6.69,3.2,8.54 c1.78,1.54,3.96,2.3,6.52,2.3 c2.85,0,5.18,-0.93,6.99,-2.8 c1.81,-1.87,2.71,-4.45,2.71,-7.74 c0,-2.67,-0.4,-4.77,-1.2,-6.3 c-0.8,-1.53,-1.97,-2.72,-3.5,-3.56 c-1.53,-0.85,-3.2,-1.27,-5.01,-1.27 c-2.9,0,-5.25,0.93,-7.04,2.79 c-1.79,1.86,-2.69,4.54,-2.69,8.05 Z M383.82,100 c0,-2.66,0.58,-4.65,1.74,-5.97 c1.16,-1.32,2.62,-1.98,4.38,-1.98 c1.74,0,3.2,0.66,4.36,1.99 c1.16,1.33,1.74,3.35,1.74,6.07 c0,2.57,-0.58,4.51,-1.75,5.83 c-1.17,1.32,-2.61,1.98,-4.35,1.98 c-1.76,0,-3.22,-0.66,-4.38,-1.97 c-1.16,-1.32,-1.74,-3.3,-1.74,-5.96 Z M411.44,92.77 l0.51,-3.11 c-0.99,-0.21,-1.87,-0.31,-2.66,-0.31 c-1.28,0,-2.27,0.2,-2.97,0.61 c-0.7,0.4,-1.2,0.93,-1.48,1.59 c-0.29,0.66,-0.43,2.04,-0.43,4.15 l0,11.93 l-2.58,0 l0,2.73 l2.58,0 l0,5.14 l3.5,2.11 l0,-7.25 l3.54,0 l0,-2.73 l-3.54,0 l0,-12.13 c0,-1.0,0.06,-1.65,0.19,-1.93 c0.12,-0.29,0.33,-0.51,0.61,-0.68 c0.28,-0.17,0.68,-0.25,1.2,-0.25 c0.39,0,0.9,0.05,1.54,0.14 Z M429.07,96.31 l3.63,-0.45 c-0.57,-2.12,-1.63,-3.77,-3.18,-4.94 c-1.55,-1.17,-3.53,-1.76,-5.94,-1.76 c-3.03,0,-5.44,0.93,-7.22,2.8 c-1.78,1.87,-2.67,4.49,-2.67,7.86 c0,3.49,0.9,6.2,2.7,8.12 c1.8,1.93,4.13,2.89,6.99,2.89 c2.77,0,5.04,-0.94,6.8,-2.83 c1.76,-1.89,2.64,-4.54,2.64,-7.97 c0,-0.21,-0.01,-0.52,-0.02,-0.94 l-15.47,0 c0.13,-2.28,0.77,-4.02,1.93,-5.23 c1.16,-1.21,2.6,-1.82,4.34,-1.82 c1.29,0,2.39,0.34,3.3,1.02 c0.91,0.68,1.63,1.76,2.17,3.24 Z M417.53,101.99 l11.58,0 c-0.16,1.74,-0.6,3.05,-1.33,3.93 c-1.12,1.35,-2.57,2.03,-4.36,2.03 c-1.61,0,-2.97,-0.54,-4.07,-1.62 c-1.1,-1.08,-1.71,-2.53,-1.83,-4.34 Z M437.04,89.63 l0,28.63 l3.52,0 l0,-28.63 Z M437.04,89.63" fill="rgb(0,0,0)" transform="matrix(1,0,0,-1,0,200)"/>
</svg>