<?xml version="1.0" encoding="UTF-8"?>
<svg height="200" version="1.1" width="800" xmlns="http://www.w3.org/2000/svg" xmlns:xlink="http://www.w3.org/1999/xlink">
 <path d="M0,0 l800,0 l0,200 l-800,0 Z M0,0" fill="rgb(255,255,255)" transform="matrix(1,0,0,-1,0,200)"/>
 <path d="M341.48,89.63 l0,28.63 l3.52,0 l0,-10.27 c1.64,1.9,3.71,2.85,6.21,2.85 c1.54,0,2.87,-0.3,4.0,-0.91 c1.13,-0.61,1.94,-1.44,2.43,-2.51 c0.49,-1.07,0.73,-2.62,0.73,-4.65 l0,-13.14 l-3.52,0 l0,13.14 c0,1.76,-0.38,3.04,-1.14,3.84 c-0.76,0.8,-1.84,1.2,-3.23,1.2 c-1.04,0,-2.02,-0.27,-2.94,-0.81 c-0.92,-0.54,-1.57,-1.27,-1.96,-2.2 c-0.39,-0.92,-0.59,-2.2,-0.59,-3.83 l0,-11.35 Z M377.32,89.63 l0,3.05 c-1.61,-2.34,-3.81,-3.52,-6.58,-3.52 c-1.22,0,-2.37,0.23,-3.43,0.7 c-1.06,0.47,-1.85,1.06,-2.36,1.77 c-0.51,0.71,-0.88,1.58,-1.08,2.61 c-0.14,0.69,-0.21,1.78,-0.21,3.28 l0,12.85 l3.52,0 l0,-11.5 c0,-1.84,0.07,-3.07,0.21,-3.71 c0.22,-0.92,0.69,-1.65,1.41,-2.18 c0.72,-0.53,1.6,-0.79,2.66,-0.79 c1.05,0,2.04,0.27,2.97,0.81 c0.92,0.54,1.58,1.28,1.96,2.21 c0.38,0.93,0.58,2.28,0.58,4.05 l0,11.11 l3.52,0 l0,-20.74 Z M385.98,89.63 l0,20.74 l3.14,0 l0,-2.91 c0.65,1.02,1.52,1.83,2.6,2.45 c1.08,0.62,2.31,0.93,3.69,0.93 c1.54,0,2.8,-0.32,3.78,-0.96 c0.98,-0.64,1.68,-1.53,2.08,-2.68 c1.64,2.42,3.78,3.63,6.41,3.63 c2.06,0,3.64,-0.57,4.75,-1.71 c1.11,-1.14,1.66,-2.89,1.66,-5.26 l0,-14.24 l-3.5,0 l0,13.07 c0,1.41,-0.11,2.42,-0.34,3.04 c-0.23,0.62,-0.64,1.12,-1.24,1.49 c-0.6,0.38,-1.3,0.57,-2.11,0.57 c-1.46,0,-2.67,-0.49,-3.63,-1.46 c-0.96,-0.97,-1.45,-2.52,-1.45,-4.66 l0,-12.05 l-3.52,0 l0,13.48 c0,1.56,-0.29,2.73,-0.86,3.52 c-0.57,0.78,-1.51,1.17,-2.81,1.17 c-0.99,0,-1.9,-0.26,-2.74,-0.78 c-0.84,-0.52,-1.45,-1.28,-1.83,-2.29 c-0.38,-1.0,-0.57,-2.45,-0.57,-4.34 l0,-10.76 Z M432.83,92.19 c-1.3,-1.11,-2.56,-1.89,-3.76,-2.34 c-1.2,-0.46,-2.5,-0.68,-3.88,-0.68 c-2.28,0,-4.03,0.56,-5.25,1.67 c-1.22,1.11,-1.84,2.54,-1.84,4.27 c0,1.02,0.23,1.94,0.69,2.78 c0.46,0.84,1.07,1.51,1.82,2.02 c0.75,0.51,1.59,0.89,2.53,1.15 c0.69,0.18,1.73,0.36,3.12,0.53 c2.84,0.34,4.93,0.74,6.27,1.21 c0.01,0.48,0.02,0.79,0.02,0.92 c0,1.43,-0.33,2.44,-1.0,3.03 c-0.9,0.79,-2.23,1.19,-4.0,1.19 c-1.65,0,-2.87,-0.29,-3.66,-0.87 c-0.79,-0.58,-1.37,-1.6,-1.75,-3.08 l-3.44,0.47 c0.31,1.47,0.83,2.66,1.54,3.56 c0.72,0.9,1.75,1.6,3.11,2.09 c1.35,0.49,2.92,0.73,4.71,0.73 c1.77,0,3.21,-0.21,4.32,-0.62 c1.11,-0.42,1.92,-0.94,2.44,-1.57 c0.52,-0.63,0.89,-1.43,1.09,-2.39 c0.12,-0.6,0.18,-1.68,0.18,-3.24 l0,-4.69 c0,-3.27,0.07,-5.34,0.22,-6.2 c0.15,-0.87,0.45,-1.7,0.89,-2.49 l-3.67,0 c-0.36,0.73,-0.6,1.58,-0.7,2.56 Z M432.54,100.04 c-1.28,-0.52,-3.19,-0.96,-5.74,-1.33 c-1.45,-0.21,-2.47,-0.44,-3.07,-0.7 c-0.6,-0.26,-1.06,-0.64,-1.39,-1.14 c-0.33,-0.5,-0.49,-1.06,-0.49,-1.67 c0,-0.94,0.35,-1.72,1.06,-2.34 c0.71,-0.63,1.75,-0.94,3.12,-0.94 c1.35,0,2.56,0.3,3.61,0.89 c1.05,0.59,1.83,1.4,2.32,2.43 c0.38,0.79,0.57,1.97,0.57,3.52 Z M441.54,89.63 l0,20.74 l3.16,0 l0,-2.95 c1.52,2.28,3.72,3.42,6.6,3.42 c1.25,0,2.4,-0.22,3.45,-0.67 c1.05,-0.45,1.83,-1.04,2.35,-1.77 c0.52,-0.73,0.89,-1.6,1.09,-2.6 c0.13,-0.65,0.2,-1.79,0.2,-3.42 l0,-12.75 l-3.52,0 l0,12.62 c0,1.43,-0.14,2.5,-0.41,3.21 c-0.27,0.71,-0.76,1.28,-1.46,1.7 c-0.7,0.42,-1.51,0.63,-2.45,0.63 c-1.5,0,-2.79,-0.48,-3.88,-1.43 c-1.09,-0.95,-1.63,-2.75,-1.63,-5.41 l0,-11.33 Z M441.54,89.63" fill="rgb(0,0,0)" transform="matrix(1,0,0,-1,0,200)"/>
</svg>