<?xml version="1.0" encoding="UTF-8"?>
<svg height="200" version="1.1" width="800" xmlns="http://www.w3.org/2000/svg" xmlns:xlink="http://www.w3.org/1999/xlink">
 <path d="M0,0 l800,0 l0,200 l-800,0 Z M0,0" fill="rgb(255,255,255)" transform="matrix(1,0,0,-1,0,200)"/>
 <path d="M311.47,87.04 l0,35.79 l4.39,0 l0,-35.79 Z M322.71,117.77 l0,5.05 l4.39,0 l0,-5.05 Z M322.71,87.04 l0,25.93 l4.39,0 l0,-25.93 Z M332.03,94.78 l4.35,0.68 c0.24,-1.74,0.92,-3.08,2.04,-4.0 c1.11,-0.93,2.67,-1.39,4.68,-1.39 c2.02,0,3.52,0.41,4.49,1.23 c0.98,0.82,1.46,1.79,1.46,2.89 c0,0.99,-0.43,1.77,-1.29,2.34 c-0.6,0.39,-2.1,0.89,-4.49,1.49 c-3.22,0.81,-5.46,1.52,-6.7,2.11 c-1.25,0.59,-2.19,1.42,-2.83,2.47 c-0.64,1.05,-0.96,2.21,-0.96,3.48 c0,1.16,0.26,2.23,0.79,3.21 c0.53,0.98,1.25,1.8,2.16,2.45 c0.68,0.5,1.62,0.93,2.8,1.28 c1.18,0.35,2.45,0.52,3.8,0.52 c2.03,0,3.82,-0.29,5.36,-0.88 c1.54,-0.59,2.67,-1.38,3.41,-2.38 c0.73,-1.0,1.24,-2.34,1.51,-4.02 l-4.3,-0.59 c-0.2,1.33,-0.76,2.38,-1.7,3.12 c-0.94,0.75,-2.26,1.12,-3.97,1.12 c-2.02,0,-3.46,-0.33,-4.32,-1.0 c-0.86,-0.67,-1.29,-1.45,-1.29,-2.34 c0,-0.57,0.18,-1.08,0.54,-1.54 c0.36,-0.47,0.92,-0.86,1.68,-1.17 c0.44,-0.16,1.73,-0.54,3.88,-1.12 c3.11,-0.83,5.28,-1.51,6.51,-2.04 c1.23,-0.53,2.19,-1.3,2.89,-2.31 c0.7,-1.01,1.05,-2.26,1.05,-3.76 c0,-1.46,-0.43,-2.84,-1.28,-4.14 c-0.85,-1.29,-2.09,-2.29,-3.7,-3.0 c-1.61,-0.71,-3.43,-1.06,-5.47,-1.06 c-3.37,0,-5.94,0.7,-7.7,2.1 c-1.77,1.4,-2.89,3.47,-3.38,6.23 Z M368.38,90.97 l0.63,-3.88 c-1.24,-0.26,-2.34,-0.39,-3.32,-0.39 c-1.6,0,-2.83,0.25,-3.71,0.76 c-0.88,0.5,-1.5,1.17,-1.86,1.99 c-0.36,0.82,-0.54,2.55,-0.54,5.19 l0,14.92 l-3.22,0 l0,3.42 l3.22,0 l0,6.42 l4.37,2.64 l0,-9.06 l4.42,0 l0,-3.42 l-4.42,0 l0,-15.16 c0,-1.25,0.08,-2.06,0.23,-2.42 c0.15,-0.36,0.41,-0.64,0.76,-0.85 c0.35,-0.21,0.85,-0.32,1.5,-0.32 c0.49,0,1.13,0.06,1.93,0.17 Z M390.43,95.39 l4.54,-0.56 c-0.72,-2.65,-2.04,-4.71,-3.98,-6.18 c-1.94,-1.46,-4.41,-2.2,-7.42,-2.2 c-3.79,0,-6.8,1.17,-9.02,3.5 c-2.22,2.34,-3.33,5.61,-3.33,9.83 c0,4.36,1.12,7.75,3.37,10.16 c2.25,2.41,5.16,3.61,8.74,3.61 c3.47,0,6.3,-1.18,8.5,-3.54 c2.2,-2.36,3.3,-5.68,3.3,-9.96 c0,-0.26,-0.01,-0.65,-0.02,-1.17 l-19.34,0 c0.16,-2.85,0.97,-5.03,2.42,-6.54 c1.45,-1.51,3.26,-2.27,5.42,-2.27 c1.61,0,2.99,0.42,4.13,1.27 c1.14,0.85,2.04,2.2,2.71,4.05 Z M376.0,102.49 l14.48,0 c-0.2,2.18,-0.75,3.82,-1.66,4.91 c-1.4,1.69,-3.21,2.54,-5.44,2.54 c-2.02,0,-3.71,-0.68,-5.09,-2.03 c-1.38,-1.35,-2.14,-3.16,-2.28,-5.42 Z M400.49,87.04 l0,25.93 l3.96,0 l0,-3.69 c1.9,2.85,4.65,4.27,8.25,4.27 c1.56,0,3.0,-0.28,4.31,-0.84 c1.31,-0.56,2.29,-1.3,2.94,-2.21 c0.65,-0.91,1.11,-1.99,1.37,-3.25 c0.16,-0.81,0.24,-2.24,0.24,-4.27 l0,-15.94 l-4.39,0 l0,15.77 c0,1.79,-0.17,3.13,-0.51,4.02 c-0.34,0.89,-0.95,1.6,-1.82,2.12 c-0.87,0.53,-1.89,0.79,-3.06,0.79 c-1.87,0,-3.49,-0.59,-4.85,-1.78 c-1.36,-1.19,-2.04,-3.44,-2.04,-6.76 l0,-14.16 Z M428.32,117.77 l0,5.05 l4.39,0 l0,-5.05 Z M428.32,87.04 l0,25.93 l4.39,0 l0,-25.93 Z M439.4,87.04 l0,25.93 l3.96,0 l0,-3.69 c1.9,2.85,4.65,4.27,8.25,4.27 c1.56,0,3.0,-0.28,4.31,-0.84 c1.31,-0.56,2.29,-1.3,2.94,-2.21 c0.65,-0.91,1.11,-1.99,1.37,-3.25 c0.16,-0.81,0.24,-2.24,0.24,-4.27 l0,-15.94 l-4.39,0 l0,15.77 c0,1.79,-0.17,3.13,-0.51,4.02 c-0.34,0.89,-0.95,1.6,-1.82,2.12 c-0.87,0.53,-1.89,0.79,-3.06,0.79 c-1.87,0,-3.49,-0.59,-4.85,-1.78 c-1.36,-1.19,-2.04,-3.44,-2.04,-6.76 l0,-14.16 Z M466.41,84.89 l4.27,-0.63 c0.18,-1.32,0.68,-2.28,1.49,-2.88 c1.09,-0.81,2.58,-1.22,4.47,-1.22 c2.03,0,3.61,0.41,4.71,1.22 c1.11,0.81,1.86,1.95,2.25,3.42 c0.23,0.9,0.33,2.78,0.32,5.64 c-1.92,-2.26,-4.31,-3.39,-7.18,-3.39 c-3.56,0,-6.32,1.29,-8.28,3.86 c-1.95,2.57,-2.93,5.66,-2.93,9.25 c0,2.47,0.45,4.76,1.34,6.85 c0.9,2.09,2.19,3.71,3.89,4.85 c1.7,1.14,3.7,1.71,5.99,1.71 c3.06,0,5.58,-1.24,7.57,-3.71 l0,3.12 l4.05,0 l0,-22.41 c0,-4.04,-0.41,-6.9,-1.23,-8.58 c-0.82,-1.68,-2.12,-3.02,-3.91,-3.99 c-1.78,-0.98,-3.98,-1.46,-6.58,-1.46 c-3.09,0,-5.59,0.7,-7.5,2.09 c-1.9,1.39,-2.82,3.49,-2.76,6.29 Z M470.04,100.46 c0,-3.4,0.68,-5.88,2.03,-7.45 c1.35,-1.56,3.04,-2.34,5.08,-2.34 c2.02,0,3.71,0.78,5.08,2.33 c1.37,1.55,2.05,3.99,2.05,7.31 c0,3.17,-0.7,5.57,-2.11,7.18 c-1.41,1.61,-3.1,2.42,-5.09,2.42 c-1.95,0,-3.61,-0.79,-4.98,-2.38 c-1.37,-1.59,-2.05,-3.94,-2.05,-7.07 Z M470.04,100.46" fill="rgb(0,0,0)" transform="matrix(1,0,0,-1,0,200)"/>
</svg>