<?xml version="1.0" encoding="UTF-8"?>
<svg height="200" version="1.1" width="800" xmlns="http://www.w3.org/2000/svg" xmlns:xlink="http://www.w3.org/1999/xlink">
 <path d="M0,0 l800,0 l0,200 l-800,0 Z M0,0" fill="rgb(255,255,255)" transform="matrix(1,0,0,-1,0,200)"/>
 <path d="M272.46,89.55 l8.69,1.37 c0.49,-3.48,1.85,-6.15,4.08,-8.01 c2.23,-1.86,5.35,-2.78,9.35,-2.78 c4.04,0,7.03,0.82,8.98,2.47 c1.95,1.64,2.93,3.57,2.93,5.79 c0,1.99,-0.86,3.55,-2.59,4.69 c-1.2,0.78,-4.2,1.77,-8.98,2.98 c-6.45,1.63,-10.91,3.04,-13.4,4.22 c-2.49,1.19,-4.38,2.83,-5.66,4.93 c-1.29,2.1,-1.93,4.42,-1.93,6.96 c0,2.31,0.53,4.45,1.59,6.42 c1.06,1.97,2.5,3.61,4.32,4.91 c1.37,1.01,3.23,1.86,5.59,2.56 c2.36,0.7,4.89,1.05,7.59,1.05 c4.07,0,7.64,-0.59,10.72,-1.76 c3.08,-1.17,5.35,-2.76,6.81,-4.76 c1.46,-2.0,2.47,-4.68,3.03,-8.03 l-8.59,-1.17 c-0.39,2.67,-1.52,4.75,-3.39,6.25 c-1.87,1.5,-4.52,2.25,-7.93,2.25 c-4.04,0,-6.92,-0.67,-8.64,-2.0 c-1.73,-1.33,-2.59,-2.9,-2.59,-4.69 c0,-1.14,0.36,-2.16,1.07,-3.08 c0.72,-0.94,1.84,-1.73,3.37,-2.34 c0.88,-0.33,3.47,-1.07,7.76,-2.25 c6.22,-1.66,10.56,-3.02,13.01,-4.08 c2.46,-1.06,4.39,-2.6,5.79,-4.61 c1.4,-2.02,2.1,-4.52,2.1,-7.52 c0,-2.93,-0.85,-5.69,-2.56,-8.28 c-1.71,-2.59,-4.17,-4.59,-7.4,-6.01 c-3.22,-1.42,-6.87,-2.12,-10.94,-2.12 c-6.74,0,-11.87,1.4,-15.41,4.2 c-3.53,2.8,-5.79,6.95,-6.76,12.45 Z M325.98,74.07 l0,71.58 l8.79,0 l0,-25.68 c4.1,4.75,9.28,7.13,15.53,7.13 c3.84,0,7.18,-0.76,10.01,-2.27 c2.83,-1.51,4.86,-3.61,6.08,-6.27 c1.22,-2.67,1.83,-6.54,1.83,-11.62 l0,-32.86 l-8.79,0 l0,32.86 c0,4.39,-0.95,7.59,-2.86,9.59 c-1.9,2.0,-4.6,3.0,-8.08,3.0 c-2.6,0,-5.05,-0.68,-7.35,-2.03 c-2.29,-1.35,-3.93,-3.18,-4.91,-5.49 c-0.98,-2.31,-1.46,-5.5,-1.46,-9.57 l0,-28.37 Z M378.32,100 c0,9.6,2.67,16.72,8.01,21.34 c4.46,3.84,9.9,5.76,16.31,5.76 c7.13,0,12.96,-2.34,17.48,-7.01 c4.52,-4.67,6.79,-11.12,6.79,-19.36 c0,-6.67,-1.0,-11.92,-3.0,-15.75 c-2.0,-3.82,-4.92,-6.8,-8.74,-8.91 c-3.82,-2.12,-8.0,-3.17,-12.52,-3.17 c-7.26,0,-13.13,2.33,-17.6,6.98 c-4.48,4.65,-6.71,11.36,-6.71,20.12 Z M387.35,100 c0,-6.64,1.45,-11.61,4.35,-14.92 c2.9,-3.3,6.54,-4.96,10.94,-4.96 c4.36,0,7.99,1.66,10.89,4.98 c2.9,3.32,4.35,8.38,4.35,15.19 c0,6.41,-1.46,11.27,-4.37,14.58 c-2.91,3.3,-6.53,4.96,-10.86,4.96 c-4.39,0,-8.04,-1.64,-10.94,-4.93 c-2.9,-3.29,-4.35,-8.25,-4.35,-14.89 Z M471.04,93.07 l8.64,-1.12 c-0.94,-5.96,-3.36,-10.62,-7.25,-13.99 c-3.89,-3.37,-8.67,-5.05,-14.33,-5.05 c-7.1,0,-12.8,2.32,-17.11,6.96 c-4.31,4.64,-6.47,11.29,-6.47,19.95 c0,5.6,0.93,10.5,2.78,14.7 c1.86,4.2,4.68,7.35,8.47,9.45 c3.79,2.1,7.92,3.15,12.38,3.15 c5.63,0,10.24,-1.42,13.82,-4.27 c3.58,-2.85,5.88,-6.89,6.88,-12.13 l-8.54,-1.32 c-0.81,3.48,-2.25,6.1,-4.32,7.86 c-2.07,1.76,-4.57,2.64,-7.5,2.64 c-4.43,0,-8.02,-1.59,-10.79,-4.76 c-2.77,-3.17,-4.15,-8.19,-4.15,-15.06 c0,-6.97,1.33,-12.03,4.0,-15.19 c2.67,-3.16,6.15,-4.74,10.45,-4.74 c3.45,0,6.33,1.06,8.64,3.17 c2.31,2.12,3.78,5.37,4.39,9.77 Z M487.26,74.07 l0,71.58 l8.79,0 l0,-40.82 l20.8,21.09 l11.38,0 l-19.82,-19.24 l21.83,-32.62 l-10.84,0 l-17.14,26.51 l-6.2,-5.96 l0,-20.56 Z M487.26,74.07" fill="rgb(0,0,0)" transform="matrix(1,0,0,-1,0,200)"/>
</svg>