<?xml version="1.0" encoding="UTF-8"?>
<svg height="200" version="1.1" width="800" xmlns="http://www.w3.org/2000/svg" xmlns:xlink="http://www.w3.org/1999/xlink">
 <path d="M0,0 l800,0 l0,200 l-800,0 Z M0,0" fill="rgb(255,255,255)" transform="matrix(1,0,0,-1,0,200)"/>
 <path d="M359.19,89.63 l-3.26,0 l0,28.63 l3.52,0 l0,-10.21 c1.48,1.86,3.38,2.79,5.68,2.79 c1.28,0,2.48,-0.26,3.62,-0.77 c1.14,-0.51,2.08,-1.24,2.81,-2.17 c0.74,-0.93,1.31,-2.05,1.73,-3.37 c0.42,-1.32,0.62,-2.72,0.62,-4.22 c0,-3.55,-0.88,-6.3,-2.64,-8.24 c-1.76,-1.94,-3.87,-2.91,-6.33,-2.91 c-2.45,0,-4.37,1.02,-5.76,3.07 Z M359.15,100.16 c0,-2.49,0.34,-4.28,1.02,-5.39 c1.11,-1.81,2.6,-2.71,4.49,-2.71 c1.54,0,2.86,0.67,3.98,2.0 c1.12,1.33,1.68,3.32,1.68,5.97 c0,2.71,-0.54,4.71,-1.61,6.0 c-1.07,1.29,-2.37,1.93,-3.9,1.93 c-1.54,0,-2.86,-0.67,-3.98,-2.0 c-1.12,-1.33,-1.68,-3.26,-1.68,-5.79 Z M391.73,92.19 c-1.3,-1.11,-2.56,-1.89,-3.76,-2.34 c-1.2,-0.46,-2.5,-0.68,-3.88,-0.68 c-2.28,0,-4.03,0.56,-5.25,1.67 c-1.22,1.11,-1.84,2.54,-1.84,4.27 c0,1.02,0.23,1.94,0.69,2.78 c0.46,0.84,1.07,1.51,1.82,2.02 c0.75,0.51,1.59,0.89,2.53,1.15 c0.69,0.18,1.73,0.36,3.12,0.53 c2.84,0.34,4.93,0.74,6.27,1.21 c0.01,0.48,0.02,0.79,0.02,0.92 c0,1.43,-0.33,2.44,-1.0,3.03 c-0.9,0.79,-2.23,1.19,-4.0,1.19 c-1.65,0,-2.87,-0.29,-3.66,-0.87 c-0.79,-0.58,-1.37,-1.6,-1.75,-3.08 l-3.44,0.47 c0.31,1.47,0.83,2.66,1.54,3.56 c0.72,0.9,1.75,1.6,3.11,2.09 c1.35,0.49,2.92,0.73,4.71,0.73 c1.77,0,3.21,-0.21,4.32,-0.62 c1.11,-0.42,1.92,-0.94,2.44,-1.57 c0.52,-0.63,0.89,-1.43,1.09,-2.39 c0.12,-0.6,0.18,-1.68,0.18,-3.24 l0,-4.69 c0,-3.27,0.07,-5.34,0.22,-6.2 c0.15,-0.87,0.45,-1.7,0.89,-2.49 l-3.67,0 c-0.36,0.73,-0.6,1.58,-0.7,2.56 Z M391.44,100.04 c-1.28,-0.52,-3.19,-0.96,-5.74,-1.33 c-1.45,-0.21,-2.47,-0.44,-3.07,-0.7 c-0.6,-0.26,-1.06,-0.64,-1.39,-1.14 c-0.33,-0.5,-0.49,-1.06,-0.49,-1.67 c0,-0.94,0.35,-1.72,1.06,-2.34 c0.71,-0.63,1.75,-0.94,3.12,-0.94 c1.35,0,2.56,0.3,3.61,0.89 c1.05,0.59,1.83,1.4,2.32,2.43 c0.38,0.79,0.57,1.97,0.57,3.52 Z M399.03,95.82 l3.48,0.55 c0.2,-1.39,0.74,-2.46,1.63,-3.2 c0.89,-0.74,2.14,-1.11,3.74,-1.11 c1.61,0,2.81,0.33,3.59,0.99 c0.78,0.66,1.17,1.43,1.17,2.31 c0,0.79,-0.35,1.42,-1.04,1.88 c-0.48,0.31,-1.68,0.71,-3.59,1.19 c-2.58,0.65,-4.37,1.21,-5.36,1.69 c-1.0,0.48,-1.75,1.13,-2.27,1.97 c-0.51,0.84,-0.77,1.77,-0.77,2.78 c0,0.92,0.21,1.78,0.63,2.57 c0.42,0.79,1.0,1.44,1.73,1.96 c0.55,0.4,1.29,0.75,2.24,1.03 c0.94,0.28,1.96,0.42,3.04,0.42 c1.63,0,3.06,-0.23,4.29,-0.7 c1.23,-0.47,2.14,-1.1,2.72,-1.9 c0.59,-0.8,0.99,-1.87,1.21,-3.21 l-3.44,-0.47 c-0.16,1.07,-0.61,1.9,-1.36,2.5 c-0.75,0.6,-1.81,0.9,-3.17,0.9 c-1.61,0,-2.77,-0.27,-3.46,-0.8 c-0.69,-0.53,-1.04,-1.16,-1.04,-1.88 c0,-0.46,0.14,-0.87,0.43,-1.23 c0.29,-0.38,0.74,-0.69,1.35,-0.94 c0.35,-0.13,1.39,-0.43,3.11,-0.9 c2.49,-0.66,4.22,-1.21,5.21,-1.63 c0.98,-0.42,1.75,-1.04,2.31,-1.85 c0.56,-0.81,0.84,-1.81,0.84,-3.01 c0,-1.17,-0.34,-2.28,-1.03,-3.31 c-0.68,-1.04,-1.67,-1.84,-2.96,-2.4 c-1.29,-0.57,-2.75,-0.85,-4.38,-0.85 c-2.7,0,-4.75,0.56,-6.16,1.68 c-1.41,1.12,-2.31,2.78,-2.71,4.98 Z M420.46,114.22 l0,4.04 l3.52,0 l0,-4.04 Z M420.46,89.63 l0,20.74 l3.52,0 l0,-20.74 Z M442.86,97.23 l3.46,-0.45 c-0.38,-2.38,-1.34,-4.25,-2.9,-5.6 c-1.56,-1.35,-3.47,-2.02,-5.73,-2.02 c-2.84,0,-5.12,0.93,-6.85,2.78 c-1.73,1.86,-2.59,4.51,-2.59,7.98 c0,2.24,0.37,4.2,1.11,5.88 c0.74,1.68,1.87,2.94,3.39,3.78 c1.52,0.84,3.17,1.26,4.95,1.26 c2.25,0,4.1,-0.57,5.53,-1.71 c1.43,-1.14,2.35,-2.76,2.75,-4.85 l-3.42,-0.53 c-0.33,1.39,-0.9,2.44,-1.73,3.14 c-0.83,0.7,-1.83,1.05,-3.0,1.05 c-1.77,0,-3.21,-0.63,-4.32,-1.9 c-1.11,-1.27,-1.66,-3.28,-1.66,-6.03 c0,-2.79,0.53,-4.81,1.6,-6.07 c1.07,-1.26,2.46,-1.89,4.18,-1.89 c1.38,0,2.53,0.42,3.46,1.27 c0.92,0.85,1.51,2.15,1.76,3.91 Z M442.86,97.23" fill="rgb(0,0,0)" transform="matrix(1,0,0,-1,0,200)"/>
</svg>