<?xml version="1.0" encoding="UTF-8"?>
<svg height="200" version="1.1" width="800" xmlns="http://www.w3.org/2000/svg" xmlns:xlink="http://www.w3.org/1999/xlink">
 <path d="M0,0 l800,0 l0,200 l-800,0 Z M0,0" fill="rgb(255,255,255)" transform="matrix(1,0,0,-1,0,200)"/>
 <path d="M290.31,93.07 l8.64,-1.12 c-0.94,-5.96,-3.36,-10.62,-7.25,-13.99 c-3.89,-3.37,-8.67,-5.05,-14.33,-5.05 c-7.1,0,-12.8,2.32,-17.11,6.96 c-4.31,4.64,-6.47,11.29,-6.47,19.95 c0,5.6,0.93,10.5,2.78,14.7 c1.86,4.2,4.68,7.35,8.47,9.45 c3.79,2.1,7.92,3.15,12.38,3.15 c5.63,0,10.24,-1.42,13.82,-4.27 c3.58,-2.85,5.88,-6.89,6.88,-12.13 l-8.54,-1.32 c-0.81,3.48,-2.25,6.1,-4.32,7.86 c-2.07,1.76,-4.57,2.64,-7.5,2.64 c-4.43,0,-8.02,-1.59,-10.79,-4.76 c-2.77,-3.17,-4.15,-8.19,-4.15,-15.06 c0,-6.97,1.33,-12.03,4.0,-15.19 c2.67,-3.16,6.15,-4.74,10.45,-4.74 c3.45,0,6.33,1.06,8.64,3.17 c2.31,2.12,3.78,5.37,4.39,9.77 Z M340.31,80.47 c-3.26,-2.77,-6.39,-4.72,-9.4,-5.86 c-3.01,-1.14,-6.24,-1.71,-9.69,-1.71 c-5.7,0,-10.07,1.39,-13.13,4.17 c-3.06,2.78,-4.59,6.34,-4.59,10.67 c0,2.54,0.58,4.86,1.73,6.96 c1.16,2.1,2.67,3.78,4.54,5.05 c1.87,1.27,3.98,2.23,6.32,2.88 c1.73,0.46,4.33,0.9,7.81,1.32 c7.1,0.85,12.32,1.86,15.67,3.03 c0.03,1.2,0.05,1.97,0.05,2.29 c0,3.58,-0.83,6.1,-2.49,7.57 c-2.25,1.99,-5.58,2.98,-10.01,2.98 c-4.13,0,-7.19,-0.72,-9.16,-2.17 c-1.97,-1.45,-3.43,-4.01,-4.37,-7.69 l-8.59,1.17 c0.78,3.68,2.07,6.65,3.86,8.91 c1.79,2.26,4.38,4.0,7.76,5.22 c3.39,1.22,7.31,1.83,11.77,1.83 c4.43,0,8.02,-0.52,10.79,-1.56 c2.77,-1.04,4.8,-2.35,6.1,-3.93 c1.3,-1.58,2.21,-3.57,2.73,-5.98 c0.29,-1.5,0.44,-4.2,0.44,-8.11 l0,-11.72 c0,-8.17,0.19,-13.34,0.56,-15.5 c0.37,-2.16,1.11,-4.24,2.22,-6.23 l-9.18,0 c-0.91,1.82,-1.5,3.96,-1.76,6.4 Z M339.58,100.1 c-3.19,-1.3,-7.98,-2.41,-14.36,-3.32 c-3.61,-0.52,-6.17,-1.11,-7.67,-1.76 c-1.5,-0.65,-2.65,-1.6,-3.47,-2.86 c-0.81,-1.25,-1.22,-2.64,-1.22,-4.17 c0,-2.34,0.89,-4.3,2.66,-5.86 c1.77,-1.56,4.37,-2.34,7.79,-2.34 c3.39,0,6.4,0.74,9.03,2.22 c2.64,1.48,4.57,3.51,5.81,6.08 c0.94,1.99,1.42,4.92,1.42,8.79 Z M396.07,74.07 l0,7.62 c-4.04,-5.86,-9.52,-8.79,-16.46,-8.79 c-3.06,0,-5.92,0.59,-8.57,1.76 c-2.65,1.17,-4.62,2.64,-5.91,4.42 c-1.29,1.77,-2.19,3.95,-2.71,6.52 c-0.36,1.73,-0.54,4.46,-0.54,8.2 l0,32.13 l8.79,0 l0,-28.76 c0,-4.59,0.18,-7.68,0.54,-9.28 c0.55,-2.31,1.73,-4.13,3.52,-5.44 c1.79,-1.32,4.0,-1.98,6.64,-1.98 c2.64,0,5.11,0.68,7.42,2.03 c2.31,1.35,3.95,3.19,4.91,5.52 c0.96,2.33,1.44,5.7,1.44,10.13 l0,27.78 l8.79,0 l0,-51.86 Z M416.09,69.78 l8.54,-1.27 c0.36,-2.64,1.35,-4.56,2.98,-5.76 c2.18,-1.63,5.16,-2.44,8.94,-2.44 c4.07,0,7.21,0.81,9.42,2.44 c2.21,1.63,3.71,3.91,4.49,6.84 c0.46,1.79,0.67,5.55,0.63,11.28 c-3.84,-4.52,-8.63,-6.79,-14.36,-6.79 c-7.13,0,-12.65,2.57,-16.55,7.71 c-3.91,5.14,-5.86,11.31,-5.86,18.51 c0,4.95,0.9,9.51,2.69,13.7 c1.79,4.18,4.39,7.41,7.79,9.69 c3.4,2.28,7.4,3.42,11.99,3.42 c6.12,0,11.17,-2.47,15.14,-7.42 l0,6.25 l8.11,0 l0,-44.82 c0,-8.07,-0.82,-13.79,-2.47,-17.16 c-1.64,-3.37,-4.25,-6.03,-7.81,-7.98 c-3.56,-1.95,-7.95,-2.93,-13.16,-2.93 c-6.18,0,-11.18,1.39,-14.99,4.17 c-3.81,2.78,-5.65,6.97,-5.52,12.57 Z M423.36,100.93 c0,-6.8,1.35,-11.77,4.05,-14.89 c2.7,-3.13,6.09,-4.69,10.16,-4.69 c4.04,0,7.42,1.55,10.16,4.66 c2.73,3.11,4.1,7.98,4.1,14.62 c0,6.35,-1.41,11.13,-4.22,14.36 c-2.82,3.22,-6.21,4.83,-10.18,4.83 c-3.91,0,-7.23,-1.59,-9.96,-4.76 c-2.73,-3.17,-4.1,-7.89,-4.1,-14.14 Z M473.32,74.07 l0,71.58 l8.79,0 l0,-25.68 c4.1,4.75,9.28,7.13,15.53,7.13 c3.84,0,7.18,-0.76,10.01,-2.27 c2.83,-1.51,4.86,-3.61,6.08,-6.27 c1.22,-2.67,1.83,-6.54,1.83,-11.62 l0,-32.86 l-8.79,0 l0,32.86 c0,4.39,-0.95,7.59,-2.86,9.59 c-1.9,2.0,-4.6,3.0,-8.08,3.0 c-2.6,0,-5.05,-0.68,-7.35,-2.03 c-2.29,-1.35,-3.93,-3.18,-4.91,-5.49 c-0.98,-2.31,-1.46,-5.5,-1.46,-9.57 l0,-28.37 Z M548.12,81.93 l1.27,-7.76 c-2.47,-0.52,-4.69,-0.78,-6.64,-0.78 c-3.19,0,-5.66,0.5,-7.42,1.51 c-1.76,1.01,-2.99,2.34,-3.71,3.98 c-0.72,1.64,-1.07,5.1,-1.07,10.38 l0,29.83 l-6.45,0 l0,6.84 l6.45,0 l0,12.84 l8.74,5.27 l0,-18.12 l8.84,0 l0,-6.84 l-8.84,0 l0,-30.32 c0,-2.51,0.15,-4.12,0.46,-4.83 c0.31,-0.72,0.81,-1.29,1.51,-1.71 c0.7,-0.42,1.7,-0.63,3.0,-0.63 c0.98,0,2.26,0.11,3.86,0.34 Z M548.12,81.93" fill="rgb(0,0,0)" transform="matrix(1,0,0,-1,0,200)"/>
</svg>