<?xml version="1.0" encoding="UTF-8"?>
<svg height="200" version="1.1" width="800" xmlns="http://www.w3.org/2000/svg" xmlns:xlink="http://www.w3.org/1999/xlink">
 <path d="M0,0 l800,0 l0,200 l-800,0 Z M0,0" fill="rgb(255,255,255)" transform="matrix(1,0,0,-1,0,200)"/>
 <path d="M258.54,89.55 l8.69,1.37 c0.49,-3.48,1.85,-6.15,4.08,-8.01 c2.23,-1.86,5.35,-2.78,9.35,-2.78 c4.04,0,7.03,0.82,8.98,2.47 c1.95,1.64,2.93,3.57,2.93,5.79 c0,1.99,-0.86,3.55,-2.59,4.69 c-1.2,0.78,-4.2,1.77,-8.98,2.98 c-6.45,1.63,-10.91,3.04,-13.4,4.22 c-2.49,1.19,-4.38,2.83,-5.66,4.93 c-1.29,2.1,-1.93,4.42,-1.93,6.96 c0,2.31,0.53,4.45,1.59,6.42 c1.06,1.97,2.5,3.61,4.32,4.91 c1.37,1.01,3.23,1.86,5.59,2.56 c2.36,0.7,4.89,1.05,7.59,1.05 c4.07,0,7.64,-0.59,10.72,-1.76 c3.08,-1.17,5.35,-2.76,6.81,-4.76 c1.46,-2.0,2.47,-4.68,3.03,-8.03 l-8.59,-1.17 c-0.39,2.67,-1.52,4.75,-3.39,6.25 c-1.87,1.5,-4.52,2.25,-7.93,2.25 c-4.04,0,-6.92,-0.67,-8.64,-2.0 c-1.73,-1.33,-2.59,-2.9,-2.59,-4.69 c0,-1.14,0.36,-2.16,1.07,-3.08 c0.72,-0.94,1.84,-1.73,3.37,-2.34 c0.88,-0.33,3.47,-1.07,7.76,-2.25 c6.22,-1.66,10.56,-3.02,13.01,-4.08 c2.46,-1.06,4.39,-2.6,5.79,-4.61 c1.4,-2.02,2.1,-4.52,2.1,-7.52 c0,-2.93,-0.85,-5.69,-2.56,-8.28 c-1.71,-2.59,-4.17,-4.59,-7.4,-6.01 c-3.22,-1.42,-6.87,-2.12,-10.94,-2.12 c-6.74,0,-11.87,1.4,-15.41,4.2 c-3.53,2.8,-5.79,6.95,-6.76,12.45 Z M346.04,74.07 l0,7.62 c-4.04,-5.86,-9.52,-8.79,-16.46,-8.79 c-3.06,0,-5.92,0.59,-8.57,1.76 c-2.65,1.17,-4.62,2.64,-5.91,4.42 c-1.29,1.77,-2.19,3.95,-2.71,6.52 c-0.36,1.73,-0.54,4.46,-0.54,8.2 l0,32.13 l8.79,0 l0,-28.76 c0,-4.59,0.18,-7.68,0.54,-9.28 c0.55,-2.31,1.73,-4.13,3.52,-5.44 c1.79,-1.32,4.0,-1.98,6.64,-1.98 c2.64,0,5.11,0.68,7.42,2.03 c2.31,1.35,3.95,3.19,4.91,5.52 c0.96,2.33,1.44,5.7,1.44,10.13 l0,27.78 l8.79,0 l0,-51.86 Z M367.68,54.2 l0,71.73 l8.01,0 l0,-6.74 c1.89,2.64,4.02,4.61,6.4,5.93 c2.38,1.32,5.26,1.98,8.64,1.98 c4.43,0,8.33,-1.14,11.72,-3.42 c3.39,-2.28,5.94,-5.49,7.67,-9.64 c1.73,-4.15,2.59,-8.7,2.59,-13.65 c0,-5.31,-0.95,-10.08,-2.86,-14.33 c-1.9,-4.25,-4.67,-7.5,-8.3,-9.77 c-3.63,-2.26,-7.45,-3.39,-11.45,-3.39 c-2.93,0,-5.56,0.62,-7.89,1.86 c-2.33,1.24,-4.24,2.8,-5.74,4.69 l0,-25.24 Z M375.63,99.71 c0,-6.67,1.35,-11.6,4.05,-14.79 c2.7,-3.19,5.97,-4.79,9.81,-4.79 c3.91,0,7.25,1.65,10.03,4.96 c2.78,3.3,4.17,8.42,4.17,15.36 c0,6.61,-1.36,11.56,-4.08,14.84 c-2.72,3.29,-5.97,4.93,-9.74,4.93 c-3.74,0,-7.06,-1.75,-9.94,-5.25 c-2.88,-3.5,-4.32,-8.59,-4.32,-15.26 Z M423.29,54.2 l0,71.73 l8.01,0 l0,-6.74 c1.89,2.64,4.02,4.61,6.4,5.93 c2.38,1.32,5.26,1.98,8.64,1.98 c4.43,0,8.33,-1.14,11.72,-3.42 c3.39,-2.28,5.94,-5.49,7.67,-9.64 c1.73,-4.15,2.59,-8.7,2.59,-13.65 c0,-5.31,-0.95,-10.08,-2.86,-14.33 c-1.9,-4.25,-4.67,-7.5,-8.3,-9.77 c-3.63,-2.26,-7.45,-3.39,-11.45,-3.39 c-2.93,0,-5.56,0.62,-7.89,1.86 c-2.33,1.24,-4.24,2.8,-5.74,4.69 l0,-25.24 Z M431.25,99.71 c0,-6.67,1.35,-11.6,4.05,-14.79 c2.7,-3.19,5.97,-4.79,9.81,-4.79 c3.91,0,7.25,1.65,10.03,4.96 c2.78,3.3,4.17,8.42,4.17,15.36 c0,6.61,-1.36,11.56,-4.08,14.84 c-2.72,3.29,-5.97,4.93,-9.74,4.93 c-3.74,0,-7.06,-1.75,-9.94,-5.25 c-2.88,-3.5,-4.32,-8.59,-4.32,-15.26 Z M478.71,74.07 l0,71.58 l8.79,0 l0,-71.58 Z M500.73,54.1 l-0.98,8.25 c1.92,-0.52,3.6,-0.78,5.03,-0.78 c1.95,0,3.52,0.33,4.69,0.98 c1.17,0.65,2.13,1.56,2.88,2.73 c0.55,0.88,1.45,3.06,2.69,6.54 c0.16,0.49,0.42,1.2,0.78,2.15 l-19.68,51.95 l9.47,0 l10.79,-30.03 c1.4,-3.81,2.65,-7.81,3.76,-12.01 c1.01,4.04,2.21,7.98,3.61,11.82 l11.08,30.22 l8.79,0 l-19.73,-52.73 c-2.12,-5.7,-3.76,-9.62,-4.93,-11.77 c-1.56,-2.9,-3.35,-5.02,-5.37,-6.37 c-2.02,-1.35,-4.43,-2.03,-7.23,-2.03 c-1.69,0,-3.58,0.36,-5.66,1.07 Z M500.73,54.1" fill="rgb(0,0,0)" transform="matrix(1,0,0,-1,0,200)"/>
</svg>