<?xml version="1.0" encoding="UTF-8"?>
<svg height="200" version="1.1" width="800" xmlns="http://www.w3.org/2000/svg" xmlns:xlink="http://www.w3.org/1999/xlink">
 <path d="M0,0 l800,0 l0,200 l-800,0 Z M0,0" fill="rgb(255,255,255)" transform="matrix(1,0,0,-1,0,200)"/>
 <path d="M345.82,89.63 l-3.26,0 l0,28.63 l3.52,0 l0,-10.21 c1.48,1.86,3.38,2.79,5.68,2.79 c1.28,0,2.48,-0.26,3.62,-0.77 c1.14,-0.51,2.08,-1.24,2.81,-2.17 c0.74,-0.93,1.31,-2.05,1.73,-3.37 c0.42,-1.32,0.62,-2.72,0.62,-4.22 c0,-3.55,-0.88,-6.3,-2.64,-8.24 c-1.76,-1.94,-3.87,-2.91,-6.33,-2.91 c-2.45,0,-4.37,1.02,-5.76,3.07 Z M345.78,100.16 c0,-2.49,0.34,-4.28,1.02,-5.39 c1.11,-1.81,2.6,-2.71,4.49,-2.71 c1.54,0,2.86,0.67,3.98,2.0 c1.12,1.33,1.68,3.32,1.68,5.97 c0,2.71,-0.54,4.71,-1.61,6.0 c-1.07,1.29,-2.37,1.93,-3.9,1.93 c-1.54,0,-2.86,-0.67,-3.98,-2.0 c-1.12,-1.33,-1.68,-3.26,-1.68,-5.79 Z M379.02,96.31 l3.63,-0.45 c-0.57,-2.12,-1.63,-3.77,-3.18,-4.94 c-1.55,-1.17,-3.53,-1.76,-5.94,-1.76 c-3.03,0,-5.44,0.93,-7.22,2.8 c-1.78,1.87,-2.67,4.49,-2.67,7.86 c0,3.49,0.9,6.2,2.7,8.12 c1.8,1.93,4.13,2.89,6.99,2.89 c2.77,0,5.04,-0.94,6.8,-2.83 c1.76,-1.89,2.64,-4.54,2.64,-7.97 c0,-0.21,-0.01,-0.52,-0.02,-0.94 l-15.47,0 c0.13,-2.28,0.77,-4.02,1.93,-5.23 c1.16,-1.21,2.6,-1.82,4.34,-1.82 c1.29,0,2.39,0.34,3.3,1.02 c0.91,0.68,1.63,1.76,2.17,3.24 Z M367.48,101.99 l11.58,0 c-0.16,1.74,-0.6,3.05,-1.33,3.93 c-1.12,1.35,-2.57,2.03,-4.36,2.03 c-1.61,0,-2.97,-0.54,-4.07,-1.62 c-1.1,-1.08,-1.71,-2.53,-1.83,-4.34 Z M387.07,89.63 l0,28.63 l3.52,0 l0,-10.27 c1.64,1.9,3.71,2.85,6.21,2.85 c1.54,0,2.87,-0.3,4.0,-0.91 c1.13,-0.61,1.94,-1.44,2.43,-2.51 c0.49,-1.07,0.73,-2.62,0.73,-4.65 l0,-13.14 l-3.52,0 l0,13.14 c0,1.76,-0.38,3.04,-1.14,3.84 c-0.76,0.8,-1.84,1.2,-3.23,1.2 c-1.04,0,-2.02,-0.27,-2.94,-0.81 c-0.92,-0.54,-1.57,-1.27,-1.96,-2.2 c-0.39,-0.92,-0.59,-2.2,-0.59,-3.83 l0,-11.35 Z M409.34,114.22 l0,4.04 l3.52,0 l0,-4.04 Z M409.34,89.63 l0,20.74 l3.52,0 l0,-20.74 Z M418.2,89.63 l0,20.74 l3.16,0 l0,-2.95 c1.52,2.28,3.72,3.42,6.6,3.42 c1.25,0,2.4,-0.22,3.45,-0.67 c1.05,-0.45,1.83,-1.04,2.35,-1.77 c0.52,-0.73,0.89,-1.6,1.09,-2.6 c0.13,-0.65,0.2,-1.79,0.2,-3.42 l0,-12.75 l-3.52,0 l0,12.62 c0,1.43,-0.14,2.5,-0.41,3.21 c-0.27,0.71,-0.76,1.28,-1.46,1.7 c-0.7,0.42,-1.51,0.63,-2.45,0.63 c-1.5,0,-2.79,-0.48,-3.88,-1.43 c-1.09,-0.95,-1.63,-2.75,-1.63,-5.41 l0,-11.33 Z M453.91,89.63 l0,2.62 c-1.32,-2.06,-3.25,-3.09,-5.8,-3.09 c-1.65,0,-3.17,0.46,-4.56,1.37 c-1.39,0.91,-2.46,2.18,-3.22,3.82 c-0.76,1.63,-1.14,3.51,-1.14,5.63 c0,2.07,0.35,3.95,1.04,5.63 c0.69,1.69,1.73,2.98,3.11,3.88 c1.38,0.9,2.92,1.35,4.63,1.35 c1.25,0,2.36,-0.26,3.34,-0.79 c0.98,-0.53,1.77,-1.21,2.38,-2.06 l0,10.27 l3.5,0 l0,-28.63 Z M442.79,99.98 c0,-2.66,0.56,-4.64,1.68,-5.96 c1.12,-1.32,2.44,-1.97,3.96,-1.97 c1.54,0,2.84,0.63,3.92,1.88 c1.07,1.26,1.61,3.17,1.61,5.75 c0,2.84,-0.55,4.92,-1.64,6.25 c-1.09,1.33,-2.44,1.99,-4.04,1.99 c-1.56,0,-2.87,-0.64,-3.92,-1.91 c-1.05,-1.28,-1.57,-3.29,-1.57,-6.04 Z M442.79,99.98" fill="rgb(0,0,0)" transform="matrix(1,0,0,-1,0,200)"/>
</svg>