<?xml version="1.0" encoding="UTF-8"?>
<svg height="200" version="1.1" width="500" xmlns="http://www.w3.org/2000/svg" xmlns:xlink="http://www.w3.org/1999/xlink">
 <path d="M0,0 l500,0 l0,200 l-500,0 Z M0,0" fill="rgb(255,255,255)" transform="matrix(1,0,0,-1,0,200)"/>
 <path d="M149.33,80 l-5.3,0 l0,46.53 l5.71,0 l0,-16.6 c2.41,3.03,5.49,4.54,9.24,4.54 c2.07,0,4.04,-0.42,5.89,-1.25 c1.85,-0.84,3.37,-2.01,4.57,-3.52 c1.2,-1.51,2.13,-3.34,2.81,-5.47 c0.68,-2.14,1.02,-4.42,1.02,-6.86 c0,-5.78,-1.43,-10.24,-4.28,-13.39 c-2.86,-3.15,-6.28,-4.73,-10.28,-4.73 c-3.98,0,-7.1,1.66,-9.36,4.98 Z M149.26,97.11 c0,-4.04,0.55,-6.96,1.65,-8.76 c1.8,-2.94,4.23,-4.41,7.3,-4.41 c2.5,0,4.65,1.08,6.47,3.25 c1.82,2.17,2.73,5.4,2.73,9.7 c0,4.4,-0.87,7.65,-2.62,9.74 c-1.75,2.09,-3.86,3.14,-6.33,3.14 c-2.5,0,-4.65,-1.08,-6.47,-3.25 c-1.82,-2.17,-2.73,-5.31,-2.73,-9.41 Z M180.14,80 l0,33.71 l5.14,0 l0,-5.11 c1.31,2.39,2.52,3.97,3.63,4.73 c1.11,0.76,2.33,1.14,3.67,1.14 c1.93,0,3.88,-0.61,5.87,-1.84 l-1.97,-5.3 c-1.4,0.83,-2.79,1.24,-4.19,1.24 c-1.25,0,-2.37,-0.38,-3.36,-1.13 c-0.99,-0.75,-1.7,-1.79,-2.13,-3.13 c-0.63,-2.03,-0.95,-4.25,-0.95,-6.67 l0,-17.65 Z M199.73,96.85 c0,6.24,1.74,10.87,5.21,13.87 c2.9,2.5,6.43,3.75,10.6,3.75 c4.63,0,8.42,-1.52,11.36,-4.55 c2.94,-3.04,4.41,-7.23,4.41,-12.58 c0,-4.34,-0.65,-7.75,-1.95,-10.24 c-1.3,-2.49,-3.19,-4.42,-5.68,-5.79 c-2.49,-1.38,-5.2,-2.06,-8.14,-2.06 c-4.72,0,-8.53,1.51,-11.44,4.54 c-2.91,3.03,-4.36,7.38,-4.36,13.08 Z M205.6,96.85 c0,-4.32,0.94,-7.55,2.82,-9.7 c1.88,-2.15,4.25,-3.22,7.11,-3.22 c2.84,0,5.19,1.08,7.08,3.24 c1.88,2.16,2.82,5.45,2.82,9.87 c0,4.17,-0.95,7.33,-2.84,9.47 c-1.89,2.15,-4.25,3.22,-7.06,3.22 c-2.86,0,-5.23,-1.07,-7.11,-3.21 c-1.88,-2.14,-2.82,-5.36,-2.82,-9.68 Z M260.09,80 l0,4.95 c-2.62,-3.81,-6.19,-5.71,-10.7,-5.71 c-1.99,0,-3.85,0.38,-5.57,1.14 c-1.72,0.76,-3.0,1.72,-3.84,2.87 c-0.84,1.15,-1.42,2.57,-1.76,4.24 c-0.23,1.12,-0.35,2.9,-0.35,5.33 l0,20.88 l5.71,0 l0,-18.69 c0,-2.98,0.12,-4.99,0.35,-6.03 c0.36,-1.5,1.12,-2.68,2.29,-3.54 c1.16,-0.86,2.6,-1.29,4.32,-1.29 c1.71,0,3.32,0.44,4.82,1.32 c1.5,0.88,2.57,2.07,3.19,3.59 c0.62,1.51,0.94,3.71,0.94,6.59 l0,18.06 l5.71,0 l0,-33.71 Z M273.11,77.21 l5.55,-0.83 c0.23,-1.71,0.88,-2.96,1.94,-3.75 c1.42,-1.06,3.35,-1.59,5.81,-1.59 c2.64,0,4.69,0.53,6.13,1.59 c1.44,1.06,2.41,2.54,2.92,4.44 c0.3,1.16,0.43,3.61,0.41,7.33 c-2.5,-2.94,-5.61,-4.41,-9.33,-4.41 c-4.63,0,-8.22,1.67,-10.76,5.01 c-2.54,3.34,-3.81,7.35,-3.81,12.03 c0,3.22,0.58,6.18,1.75,8.9 c1.16,2.72,2.85,4.82,5.06,6.3 c2.21,1.48,4.81,2.22,7.79,2.22 c3.98,0,7.26,-1.61,9.84,-4.82 l0,4.06 l5.27,0 l0,-29.14 c0,-5.25,-0.53,-8.97,-1.6,-11.16 c-1.07,-2.19,-2.76,-3.92,-5.08,-5.19 c-2.32,-1.27,-5.17,-1.9,-8.55,-1.9 c-4.02,0,-7.27,0.9,-9.74,2.71 c-2.48,1.81,-3.67,4.53,-3.59,8.17 Z M277.83,97.46 c0,-4.42,0.88,-7.65,2.63,-9.68 c1.76,-2.03,3.96,-3.05,6.6,-3.05 c2.62,0,4.82,1.01,6.6,3.03 c1.78,2.02,2.67,5.19,2.67,9.51 c0,4.13,-0.92,7.24,-2.75,9.33 c-1.83,2.09,-4.04,3.14,-6.62,3.14 c-2.54,0,-4.7,-1.03,-6.47,-3.09 c-1.78,-2.06,-2.67,-5.13,-2.67,-9.19 Z M310.3,80 l0,46.53 l5.71,0 l0,-16.69 c2.67,3.09,6.03,4.63,10.09,4.63 c2.5,0,4.67,-0.49,6.51,-1.48 c1.84,-0.98,3.16,-2.34,3.95,-4.08 c0.79,-1.74,1.19,-4.25,1.19,-7.55 l0,-21.36 l-5.71,0 l0,21.36 c0,2.86,-0.62,4.94,-1.86,6.24 c-1.24,1.3,-2.99,1.95,-5.25,1.95 c-1.69,0,-3.28,-0.44,-4.78,-1.32 c-1.49,-0.88,-2.55,-2.07,-3.19,-3.57 c-0.63,-1.5,-0.95,-3.58,-0.95,-6.22 l0,-18.44 Z M358.93,85.11 l0.83,-5.05 c-1.61,-0.34,-3.05,-0.51,-4.32,-0.51 c-2.07,0,-3.68,0.33,-4.82,0.98 c-1.14,0.66,-1.95,1.52,-2.41,2.59 c-0.47,1.07,-0.7,3.32,-0.7,6.74 l0,19.39 l-4.19,0 l0,4.44 l4.19,0 l0,8.35 l5.68,3.43 l0,-11.77 l5.74,0 l0,-4.44 l-5.74,0 l0,-19.71 c0,-1.63,0.1,-2.68,0.3,-3.14 c0.2,-0.47,0.53,-0.84,0.98,-1.11 c0.45,-0.28,1.11,-0.41,1.95,-0.41 c0.63,0,1.47,0.07,2.51,0.22 Z M358.93,85.11" fill="rgb(0,0,0)" transform="matrix(1,0,0,-1,0,200)"/>
</svg>