<?xml version="1.0" encoding="UTF-8"?>
<svg height="200" version="1.1" width="800" xmlns="http://www.w3.org/2000/svg" xmlns:xlink="http://www.w3.org/1999/xlink">
 <path d="M0,0 l800,0 l0,200 l-800,0 Z M0,0" fill="rgb(255,255,255)" transform="matrix(1,0,0,-1,0,200)"/>
 <path d="M369.19,89.63 l-3.26,0 l0,28.63 l3.52,0 l0,-10.21 c1.48,1.86,3.38,2.79,5.68,2.79 c1.28,0,2.48,-0.26,3.62,-0.77 c1.14,-0.51,2.08,-1.24,2.81,-2.17 c0.74,-0.93,1.31,-2.05,1.73,-3.37 c0.42,-1.32,0.62,-2.72,0.62,-4.22 c0,-3.55,-0.88,-6.3,-2.64,-8.24 c-1.76,-1.94,-3.87,-2.91,-6.33,-2.91 c-2.45,0,-4.37,1.02,-5.76,3.07 Z M369.15,100.16 c0,-2.49,0.34,-4.28,1.02,-5.39 c1.11,-1.81,2.6,-2.71,4.49,-2.71 c1.54,0,2.86,0.67,3.98,2.0 c1.12,1.33,1.68,3.32,1.68,5.97 c0,2.71,-0.54,4.71,-1.61,6.0 c-1.07,1.29,-2.37,1.93,-3.9,1.93 c-1.54,0,-2.86,-0.67,-3.98,-2.0 c-1.12,-1.33,-1.68,-3.26,-1.68,-5.79 Z M401.79,89.63 l0,3.05 c-1.61,-2.34,-3.81,-3.52,-6.58,-3.52 c-1.22,0,-2.37,0.23,-3.43,0.7 c-1.06,0.47,-1.85,1.06,-2.36,1.77 c-0.51,0.71,-0.88,1.58,-1.08,2.61 c-0.14,0.69,-0.21,1.78,-0.21,3.28 l0,12.85 l3.52,0 l0,-11.5 c0,-1.84,0.07,-3.07,0.21,-3.71 c0.22,-0.92,0.69,-1.65,1.41,-2.18 c0.72,-0.53,1.6,-0.79,2.66,-0.79 c1.05,0,2.04,0.27,2.97,0.81 c0.92,0.54,1.58,1.28,1.96,2.21 c0.38,0.93,0.58,2.28,0.58,4.05 l0,11.11 l3.52,0 l0,-20.74 Z M410.46,114.22 l0,4.04 l3.52,0 l0,-4.04 Z M410.46,89.63 l0,20.74 l3.52,0 l0,-20.74 Z M419.25,89.63 l0,28.63 l3.52,0 l0,-28.63 Z M435.89,92.77 l0.51,-3.11 c-0.99,-0.21,-1.87,-0.31,-2.66,-0.31 c-1.28,0,-2.27,0.2,-2.97,0.61 c-0.7,0.4,-1.2,0.93,-1.48,1.59 c-0.29,0.66,-0.43,2.04,-0.43,4.15 l0,11.93 l-2.58,0 l0,2.73 l2.58,0 l0,5.14 l3.5,2.11 l0,-7.25 l3.54,0 l0,-2.73 l-3.54,0 l0,-12.13 c0,-1.0,0.06,-1.65,0.19,-1.93 c0.12,-0.29,0.33,-0.51,0.61,-0.68 c0.28,-0.17,0.68,-0.25,1.2,-0.25 c0.39,0,0.9,0.05,1.54,0.14 Z M435.89,92.77" fill="rgb(0,0,0)" transform="matrix(1,0,0,-1,0,200)"/>
</svg>