<?xml version="1.0" encoding="UTF-8"?>
<svg height="200" version="1.1" width="500" xmlns="http://www.w3.org/2000/svg" xmlns:xlink="http://www.w3.org/1999/xlink">
 <path d="M0,0 l500,0 l0,200 l-500,0 Z M0,0" fill="rgb(255,255,255)" transform="matrix(1,0,0,-1,0,200)"/>
 <path d="M222.12,92.35 l5.62,-0.73 c-0.61,-3.87,-2.18,-6.9,-4.71,-9.09 c-2.53,-2.19,-5.63,-3.28,-9.32,-3.28 c-4.61,0,-8.32,1.51,-11.12,4.52 c-2.8,3.02,-4.21,7.34,-4.21,12.97 c0,3.64,0.6,6.82,1.81,9.55 c1.21,2.73,3.04,4.78,5.51,6.14 c2.47,1.36,5.15,2.05,8.05,2.05 c3.66,0,6.65,-0.93,8.98,-2.78 c2.33,-1.85,3.82,-4.48,4.48,-7.89 l-5.55,-0.86 c-0.53,2.26,-1.47,3.97,-2.81,5.11 c-1.34,1.14,-2.97,1.71,-4.87,1.71 c-2.88,0,-5.22,-1.03,-7.01,-3.09 c-1.8,-2.06,-2.7,-5.33,-2.7,-9.79 c0,-4.53,0.87,-7.82,2.6,-9.87 c1.74,-2.05,4.0,-3.08,6.79,-3.08 c2.24,0,4.12,0.69,5.62,2.06 c1.5,1.38,2.45,3.49,2.86,6.35 Z M232.66,119.96 l0,6.57 l5.71,0 l0,-6.57 Z M232.66,80 l0,33.71 l5.71,0 l0,-33.71 Z M256.43,80 l-12.82,33.71 l6.03,0 l7.24,-20.19 c0.78,-2.18,1.5,-4.44,2.16,-6.79 c0.51,1.78,1.22,3.91,2.13,6.41 l7.49,20.57 l5.87,0 l-12.76,-33.71 Z M279.6,119.96 l0,6.57 l5.71,0 l0,-6.57 Z M279.6,80 l0,33.71 l5.71,0 l0,-33.71 Z M293.88,80 l0,46.53 l5.71,0 l0,-46.53 Z M293.88,80" fill="rgb(0,0,0)" transform="matrix(1,0,0,-1,0,200)"/>
</svg>