<?xml version="1.0" encoding="UTF-8"?>
<svg height="200" version="1.1" width="500" xmlns="http://www.w3.org/2000/svg" xmlns:xlink="http://www.w3.org/1999/xlink">
 <path d="M0,0 l500,0 l0,200 l-500,0 Z M0,0" fill="rgb(255,255,255)" transform="matrix(1,0,0,-1,0,200)"/>
 <path d="M191.7,97.23 l3.46,-0.45 c-0.38,-2.38,-1.34,-4.25,-2.9,-5.6 c-1.56,-1.35,-3.47,-2.02,-5.73,-2.02 c-2.84,0,-5.12,0.93,-6.85,2.78 c-1.73,1.86,-2.59,4.51,-2.59,7.98 c0,2.24,0.37,4.2,1.11,5.88 c0.74,1.68,1.87,2.94,3.39,3.78 c1.52,0.84,3.17,1.26,4.95,1.26 c2.25,0,4.1,-0.57,5.53,-1.71 c1.43,-1.14,2.35,-2.76,2.75,-4.85 l-3.42,-0.53 c-0.33,1.39,-0.9,2.44,-1.73,3.14 c-0.83,0.7,-1.83,1.05,-3.0,1.05 c-1.77,0,-3.21,-0.63,-4.32,-1.9 c-1.11,-1.27,-1.66,-3.28,-1.66,-6.03 c0,-2.79,0.53,-4.81,1.6,-6.07 c1.07,-1.26,2.46,-1.89,4.18,-1.89 c1.38,0,2.53,0.42,3.46,1.27 c0.92,0.85,1.51,2.15,1.76,3.91 Z M196.86,100 c0,3.84,1.07,6.69,3.2,8.54 c1.78,1.54,3.96,2.3,6.52,2.3 c2.85,0,5.18,-0.93,6.99,-2.8 c1.81,-1.87,2.71,-4.45,2.71,-7.74 c0,-2.67,-0.4,-4.77,-1.2,-6.3 c-0.8,-1.53,-1.97,-2.72,-3.5,-3.56 c-1.53,-0.85,-3.2,-1.27,-5.01,-1.27 c-2.9,0,-5.25,0.93,-7.04,2.79 c-1.79,1.86,-2.69,4.54,-2.69,8.05 Z M200.47,100 c0,-2.66,0.58,-4.65,1.74,-5.97 c1.16,-1.32,2.62,-1.98,4.38,-1.98 c1.74,0,3.2,0.66,4.36,1.99 c1.16,1.33,1.74,3.35,1.74,6.07 c0,2.57,-0.58,4.51,-1.75,5.83 c-1.17,1.32,-2.61,1.98,-4.35,1.98 c-1.76,0,-3.22,-0.66,-4.38,-1.97 c-1.16,-1.32,-1.74,-3.3,-1.74,-5.96 Z M220.41,89.63 l0,20.74 l3.14,0 l0,-2.91 c0.65,1.02,1.52,1.83,2.6,2.45 c1.08,0.62,2.31,0.93,3.69,0.93 c1.54,0,2.8,-0.32,3.78,-0.96 c0.98,-0.64,1.68,-1.53,2.08,-2.68 c1.64,2.42,3.78,3.63,6.41,3.63 c2.06,0,3.64,-0.57,4.75,-1.71 c1.11,-1.14,1.66,-2.89,1.66,-5.26 l0,-14.24 l-3.5,0 l0,13.07 c0,1.41,-0.11,2.42,-0.34,3.04 c-0.23,0.62,-0.64,1.12,-1.24,1.49 c-0.6,0.38,-1.3,0.57,-2.11,0.57 c-1.46,0,-2.67,-0.49,-3.63,-1.46 c-0.96,-0.97,-1.45,-2.52,-1.45,-4.66 l0,-12.05 l-3.52,0 l0,13.48 c0,1.56,-0.29,2.73,-0.86,3.52 c-0.57,0.78,-1.51,1.17,-2.81,1.17 c-0.99,0,-1.9,-0.26,-2.74,-0.78 c-0.84,-0.52,-1.45,-1.28,-1.83,-2.29 c-0.38,-1.0,-0.57,-2.45,-0.57,-4.34 l0,-10.76 Z M253.73,81.68 l0,28.69 l3.2,0 l0,-2.7 c0.76,1.05,1.61,1.85,2.56,2.37 c0.95,0.53,2.1,0.79,3.46,0.79 c1.77,0,3.33,-0.46,4.69,-1.37 c1.35,-0.91,2.38,-2.2,3.07,-3.86 c0.69,-1.66,1.04,-3.48,1.04,-5.46 c0,-2.12,-0.38,-4.03,-1.14,-5.73 c-0.76,-1.7,-1.87,-3.0,-3.32,-3.91 c-1.45,-0.9,-2.98,-1.36,-4.58,-1.36 c-1.17,0,-2.22,0.25,-3.15,0.74 c-0.93,0.49,-1.7,1.12,-2.29,1.88 l0,-10.1 Z M256.91,99.88 c0,-2.67,0.54,-4.64,1.62,-5.92 c1.08,-1.28,2.39,-1.91,3.93,-1.91 c1.56,0,2.9,0.66,4.01,1.98 c1.11,1.32,1.67,3.37,1.67,6.14 c0,2.64,-0.54,4.62,-1.63,5.94 c-1.09,1.32,-2.39,1.97,-3.9,1.97 c-1.5,0,-2.82,-0.7,-3.97,-2.1 c-1.15,-1.4,-1.73,-3.43,-1.73,-6.1 Z M275.9,89.63 l0,28.63 l3.52,0 l0,-28.63 Z M299.06,96.31 l3.63,-0.45 c-0.57,-2.12,-1.63,-3.77,-3.18,-4.94 c-1.55,-1.17,-3.53,-1.76,-5.94,-1.76 c-3.03,0,-5.44,0.93,-7.22,2.8 c-1.78,1.87,-2.67,4.49,-2.67,7.86 c0,3.49,0.9,6.2,2.7,8.12 c1.8,1.93,4.13,2.89,6.99,2.89 c2.77,0,5.04,-0.94,6.8,-2.83 c1.76,-1.89,2.64,-4.54,2.64,-7.97 c0,-0.21,-0.01,-0.52,-0.02,-0.94 l-15.47,0 c0.13,-2.28,0.77,-4.02,1.93,-5.23 c1.16,-1.21,2.6,-1.82,4.34,-1.82 c1.29,0,2.39,0.34,3.3,1.02 c0.91,0.68,1.63,1.76,2.17,3.24 Z M287.52,101.99 l11.58,0 c-0.16,1.74,-0.6,3.05,-1.33,3.93 c-1.12,1.35,-2.57,2.03,-4.36,2.03 c-1.61,0,-2.97,-0.54,-4.07,-1.62 c-1.1,-1.08,-1.71,-2.53,-1.83,-4.34 Z M304.77,89.63 l7.58,10.78 l-7.01,9.96 l4.39,0 l3.18,-4.86 c0.6,-0.92,1.08,-1.7,1.45,-2.32 c0.57,0.86,1.1,1.62,1.58,2.29 l3.5,4.9 l4.2,0 l-7.17,-9.77 l7.71,-10.98 l-4.32,0 l-4.26,6.45 l-1.13,1.74 l-5.45,-8.18 Z M304.77,89.63" fill="rgb(0,0,0)" transform="matrix(1,0,0,-1,0,200)"/>
</svg>