<?xml version="1.0" encoding="UTF-8"?>
<svg height="200" version="1.1" width="500" xmlns="http://www.w3.org/2000/svg" xmlns:xlink="http://www.w3.org/1999/xlink">
 <path d="M0,0 l500,0 l0,200 l-500,0 Z M0,0" fill="rgb(255,255,255)" transform="matrix(1,0,0,-1,0,200)"/>
 <path d="M194.21,89.63 l0,2.62 c-1.32,-2.06,-3.25,-3.09,-5.8,-3.09 c-1.65,0,-3.17,0.46,-4.56,1.37 c-1.39,0.91,-2.46,2.18,-3.22,3.82 c-0.76,1.63,-1.14,3.51,-1.14,5.63 c0,2.07,0.35,3.95,1.04,5.63 c0.69,1.69,1.73,2.98,3.11,3.88 c1.38,0.9,2.92,1.35,4.63,1.35 c1.25,0,2.36,-0.26,3.34,-0.79 c0.98,-0.53,1.77,-1.21,2.38,-2.06 l0,10.27 l3.5,0 l0,-28.63 Z M183.1,99.98 c0,-2.66,0.56,-4.64,1.68,-5.96 c1.12,-1.32,2.44,-1.97,3.96,-1.97 c1.54,0,2.84,0.63,3.92,1.88 c1.07,1.26,1.61,3.17,1.61,5.75 c0,2.84,-0.55,4.92,-1.64,6.25 c-1.09,1.33,-2.44,1.99,-4.04,1.99 c-1.56,0,-2.87,-0.64,-3.92,-1.91 c-1.05,-1.28,-1.57,-3.29,-1.57,-6.04 Z M203.02,114.22 l0,4.04 l3.52,0 l0,-4.04 Z M203.02,89.63 l0,20.74 l3.52,0 l0,-20.74 Z M212.72,89.63 l0,18.01 l-3.11,0 l0,2.73 l3.11,0 l0,2.21 c0,1.39,0.12,2.43,0.37,3.11 c0.34,0.91,0.93,1.65,1.79,2.22 c0.85,0.57,2.05,0.85,3.58,0.85 c0.99,0,2.08,-0.12,3.28,-0.35 l-0.53,-3.07 c-0.73,0.13,-1.42,0.2,-2.07,0.2 c-1.07,0,-1.82,-0.23,-2.27,-0.68 c-0.44,-0.46,-0.66,-1.31,-0.66,-2.56 l0,-1.91 l4.04,0 l0,-2.73 l-4.04,0 l0,-18.01 Z M223.12,89.63 l0,18.01 l-3.11,0 l0,2.73 l3.11,0 l0,2.21 c0,1.39,0.12,2.43,0.37,3.11 c0.34,0.91,0.93,1.65,1.79,2.22 c0.85,0.57,2.05,0.85,3.58,0.85 c0.99,0,2.08,-0.12,3.28,-0.35 l-0.53,-3.07 c-0.73,0.13,-1.42,0.2,-2.07,0.2 c-1.07,0,-1.82,-0.23,-2.27,-0.68 c-0.44,-0.46,-0.66,-1.31,-0.66,-2.56 l0,-1.91 l4.04,0 l0,-2.73 l-4.04,0 l0,-18.01 Z M233.41,114.22 l0,4.04 l3.52,0 l0,-4.04 Z M233.41,89.63 l0,20.74 l3.52,0 l0,-20.74 Z M255.81,97.23 l3.46,-0.45 c-0.38,-2.38,-1.34,-4.25,-2.9,-5.6 c-1.56,-1.35,-3.47,-2.02,-5.73,-2.02 c-2.84,0,-5.12,0.93,-6.85,2.78 c-1.73,1.86,-2.59,4.51,-2.59,7.98 c0,2.24,0.37,4.2,1.11,5.88 c0.74,1.68,1.87,2.94,3.39,3.78 c1.52,0.84,3.17,1.26,4.95,1.26 c2.25,0,4.1,-0.57,5.53,-1.71 c1.43,-1.14,2.35,-2.76,2.75,-4.85 l-3.42,-0.53 c-0.33,1.39,-0.9,2.44,-1.73,3.14 c-0.83,0.7,-1.83,1.05,-3.0,1.05 c-1.77,0,-3.21,-0.63,-4.32,-1.9 c-1.11,-1.27,-1.66,-3.28,-1.66,-6.03 c0,-2.79,0.53,-4.81,1.6,-6.07 c1.07,-1.26,2.46,-1.89,4.18,-1.89 c1.38,0,2.53,0.42,3.46,1.27 c0.92,0.85,1.51,2.15,1.76,3.91 Z M275.87,89.63 l0,3.05 c-1.61,-2.34,-3.81,-3.52,-6.58,-3.52 c-1.22,0,-2.37,0.23,-3.43,0.7 c-1.06,0.47,-1.85,1.06,-2.36,1.77 c-0.51,0.71,-0.88,1.58,-1.08,2.61 c-0.14,0.69,-0.21,1.78,-0.21,3.28 l0,12.85 l3.52,0 l0,-11.5 c0,-1.84,0.07,-3.07,0.21,-3.71 c0.22,-0.92,0.69,-1.65,1.41,-2.18 c0.72,-0.53,1.6,-0.79,2.66,-0.79 c1.05,0,2.04,0.27,2.97,0.81 c0.92,0.54,1.58,1.28,1.96,2.21 c0.38,0.93,0.58,2.28,0.58,4.05 l0,11.11 l3.52,0 l0,-20.74 Z M284.44,89.63 l0,28.63 l3.52,0 l0,-28.63 Z M301.08,92.77 l0.51,-3.11 c-0.99,-0.21,-1.87,-0.31,-2.66,-0.31 c-1.28,0,-2.27,0.2,-2.97,0.61 c-0.7,0.4,-1.2,0.93,-1.48,1.59 c-0.29,0.66,-0.43,2.04,-0.43,4.15 l0,11.93 l-2.58,0 l0,2.73 l2.58,0 l0,5.14 l3.5,2.11 l0,-7.25 l3.54,0 l0,-2.73 l-3.54,0 l0,-12.13 c0,-1.0,0.06,-1.65,0.19,-1.93 c0.12,-0.29,0.33,-0.51,0.61,-0.68 c0.28,-0.17,0.68,-0.25,1.2,-0.25 c0.39,0,0.9,0.05,1.54,0.14 Z M304.37,81.64 l-0.39,3.3 c0.77,-0.21,1.44,-0.31,2.01,-0.31 c0.78,0,1.41,0.13,1.88,0.39 c0.47,0.26,0.85,0.62,1.15,1.09 c0.22,0.35,0.58,1.22,1.07,2.62 c0.07,0.2,0.17,0.48,0.31,0.86 l-7.87,20.78 l3.79,0 l4.32,-12.01 c0.56,-1.52,1.06,-3.12,1.5,-4.8 c0.4,1.61,0.89,3.19,1.45,4.73 l4.43,12.09 l3.52,0 l-7.89,-21.09 c-0.85,-2.28,-1.5,-3.85,-1.97,-4.71 c-0.63,-1.16,-1.34,-2.01,-2.15,-2.55 c-0.81,-0.54,-1.77,-0.81,-2.89,-0.81 c-0.68,0,-1.43,0.14,-2.27,0.43 Z M304.37,81.64" fill="rgb(0,0,0)" transform="matrix(1,0,0,-1,0,200)"/>
</svg>