<?xml version="1.0" encoding="UTF-8"?>
<svg height="200" version="1.1" width="800" xmlns="http://www.w3.org/2000/svg" xmlns:xlink="http://www.w3.org/1999/xlink">
 <path d="M0,0 l800,0 l0,200 l-800,0 Z M0,0" fill="rgb(255,255,255)" transform="matrix(1,0,0,-1,0,200)"/>
 <path d="M357.18,89.63 l0,2.62 c-1.32,-2.06,-3.25,-3.09,-5.8,-3.09 c-1.65,0,-3.17,0.46,-4.56,1.37 c-1.39,0.91,-2.46,2.18,-3.22,3.82 c-0.76,1.63,-1.14,3.51,-1.14,5.63 c0,2.07,0.35,3.95,1.04,5.63 c0.69,1.69,1.73,2.98,3.11,3.88 c1.38,0.9,2.92,1.35,4.63,1.35 c1.25,0,2.36,-0.26,3.34,-0.79 c0.98,-0.53,1.77,-1.21,2.38,-2.06 l0,10.27 l3.5,0 l0,-28.63 Z M346.06,99.98 c0,-2.66,0.56,-4.64,1.68,-5.96 c1.12,-1.32,2.44,-1.97,3.96,-1.97 c1.54,0,2.84,0.63,3.92,1.88 c1.07,1.26,1.61,3.17,1.61,5.75 c0,2.84,-0.55,4.92,-1.64,6.25 c-1.09,1.33,-2.44,1.99,-4.04,1.99 c-1.56,0,-2.87,-0.64,-3.92,-1.91 c-1.05,-1.28,-1.57,-3.29,-1.57,-6.04 Z M365.93,89.63 l0,20.74 l3.16,0 l0,-3.14 c0.81,1.47,1.55,2.44,2.24,2.91 c0.68,0.47,1.44,0.7,2.26,0.7 c1.18,0,2.39,-0.38,3.61,-1.13 l-1.21,-3.26 c-0.86,0.51,-1.72,0.76,-2.58,0.76 c-0.77,0,-1.46,-0.23,-2.07,-0.69 c-0.61,-0.46,-1.05,-1.1,-1.31,-1.92 c-0.39,-1.25,-0.59,-2.62,-0.59,-4.1 l0,-10.86 Z M379.31,114.22 l0,4.04 l3.52,0 l0,-4.04 Z M379.31,89.63 l0,20.74 l3.52,0 l0,-20.74 Z M393.94,89.63 l-7.89,20.74 l3.71,0 l4.45,-12.42 c0.48,-1.34,0.92,-2.73,1.33,-4.18 c0.31,1.09,0.75,2.41,1.31,3.95 l4.61,12.66 l3.61,0 l-7.85,-20.74 Z M408.19,114.22 l0,4.04 l3.52,0 l0,-4.04 Z M408.19,89.63 l0,20.74 l3.52,0 l0,-20.74 Z M417.06,89.63 l0,20.74 l3.16,0 l0,-2.95 c1.52,2.28,3.72,3.42,6.6,3.42 c1.25,0,2.4,-0.22,3.45,-0.67 c1.05,-0.45,1.83,-1.04,2.35,-1.77 c0.52,-0.73,0.89,-1.6,1.09,-2.6 c0.13,-0.65,0.2,-1.79,0.2,-3.42 l0,-12.75 l-3.52,0 l0,12.62 c0,1.43,-0.14,2.5,-0.41,3.21 c-0.27,0.71,-0.76,1.28,-1.46,1.7 c-0.7,0.42,-1.51,0.63,-2.45,0.63 c-1.5,0,-2.79,-0.48,-3.88,-1.43 c-1.09,-0.95,-1.63,-2.75,-1.63,-5.41 l0,-11.33 Z M438.66,87.91 l3.42,-0.51 c0.14,-1.05,0.54,-1.82,1.19,-2.3 c0.87,-0.65,2.06,-0.98,3.57,-0.98 c1.63,0,2.88,0.33,3.77,0.98 c0.89,0.65,1.48,1.56,1.8,2.73 c0.18,0.72,0.27,2.22,0.25,4.51 c-1.54,-1.81,-3.45,-2.71,-5.74,-2.71 c-2.85,0,-5.06,1.03,-6.62,3.09 c-1.56,2.06,-2.34,4.52,-2.34,7.4 c0,1.98,0.36,3.81,1.07,5.48 c0.72,1.67,1.75,2.97,3.12,3.88 c1.36,0.91,2.96,1.37,4.79,1.37 c2.45,0,4.47,-0.99,6.05,-2.97 l0,2.5 l3.24,0 l0,-17.93 c0,-3.23,-0.33,-5.52,-0.99,-6.87 c-0.66,-1.35,-1.7,-2.41,-3.12,-3.19 c-1.43,-0.78,-3.18,-1.17,-5.26,-1.17 c-2.47,0,-4.47,0.56,-6.0,1.67 c-1.52,1.11,-2.26,2.79,-2.21,5.03 Z M441.57,100.37 c0,-2.72,0.54,-4.71,1.62,-5.96 c1.08,-1.25,2.43,-1.88,4.06,-1.88 c1.61,0,2.97,0.62,4.06,1.87 c1.09,1.24,1.64,3.19,1.64,5.85 c0,2.54,-0.56,4.45,-1.69,5.74 c-1.13,1.29,-2.48,1.93,-4.07,1.93 c-1.56,0,-2.89,-0.63,-3.98,-1.9 c-1.09,-1.27,-1.64,-3.15,-1.64,-5.65 Z M441.57,100.37" fill="rgb(0,0,0)" transform="matrix(1,0,0,-1,0,200)"/>
</svg>