<?xml version="1.0" encoding="UTF-8"?>
<svg height="200" version="1.1" width="500" xmlns="http://www.w3.org/2000/svg" xmlns:xlink="http://www.w3.org/1999/xlink">
 <path d="M0,0 l500,0 l0,200 l-500,0 Z M0,0" fill="rgb(255,255,255)" transform="matrix(1,0,0,-1,0,200)"/>
 <path d="M217.9,96.31 l3.63,-0.45 c-0.57,-2.12,-1.63,-3.77,-3.18,-4.94 c-1.55,-1.17,-3.53,-1.76,-5.94,-1.76 c-3.03,0,-5.44,0.93,-7.22,2.8 c-1.78,1.87,-2.67,4.49,-2.67,7.86 c0,3.49,0.9,6.2,2.7,8.12 c1.8,1.93,4.13,2.89,6.99,2.89 c2.77,0,5.04,-0.94,6.8,-2.83 c1.76,-1.89,2.64,-4.54,2.64,-7.97 c0,-0.21,-0.01,-0.52,-0.02,-0.94 l-15.47,0 c0.13,-2.28,0.77,-4.02,1.93,-5.23 c1.16,-1.21,2.6,-1.82,4.34,-1.82 c1.29,0,2.39,0.34,3.3,1.02 c0.91,0.68,1.63,1.76,2.17,3.24 Z M206.36,101.99 l11.58,0 c-0.16,1.74,-0.6,3.05,-1.33,3.93 c-1.12,1.35,-2.57,2.03,-4.36,2.03 c-1.61,0,-2.97,-0.54,-4.07,-1.62 c-1.1,-1.08,-1.71,-2.53,-1.83,-4.34 Z M239.17,81.68 l0,10.16 c-0.55,-0.77,-1.31,-1.41,-2.29,-1.91 c-0.98,-0.51,-2.03,-0.76,-3.13,-0.76 c-2.46,0,-4.58,0.98,-6.36,2.95 c-1.78,1.97,-2.67,4.66,-2.67,8.09 c0,2.08,0.36,3.95,1.08,5.61 c0.72,1.65,1.77,2.91,3.14,3.76 c1.37,0.85,2.88,1.28,4.52,1.28 c2.57,0,4.58,-1.08,6.05,-3.24 l0,2.77 l3.16,0 l0,-28.69 Z M228.33,100.06 c0,-2.67,0.56,-4.67,1.68,-6.01 c1.12,-1.33,2.46,-2.0,4.02,-2.0 c1.5,0,2.79,0.63,3.87,1.9 c1.08,1.27,1.62,3.2,1.62,5.79 c0,2.76,-0.57,4.84,-1.71,6.23 c-1.14,1.39,-2.48,2.09,-4.01,2.09 c-1.52,0,-2.82,-0.65,-3.88,-1.94 c-1.06,-1.3,-1.59,-3.32,-1.59,-6.06 Z M261.79,89.63 l0,3.05 c-1.61,-2.34,-3.81,-3.52,-6.58,-3.52 c-1.22,0,-2.37,0.23,-3.43,0.7 c-1.06,0.47,-1.85,1.06,-2.36,1.77 c-0.51,0.71,-0.88,1.58,-1.08,2.61 c-0.14,0.69,-0.21,1.78,-0.21,3.28 l0,12.85 l3.52,0 l0,-11.5 c0,-1.84,0.07,-3.07,0.21,-3.71 c0.22,-0.92,0.69,-1.65,1.41,-2.18 c0.72,-0.53,1.6,-0.79,2.66,-0.79 c1.05,0,2.04,0.27,2.97,0.81 c0.92,0.54,1.58,1.28,1.96,2.21 c0.38,0.93,0.58,2.28,0.58,4.05 l0,11.11 l3.52,0 l0,-20.74 Z M283.97,92.19 c-1.3,-1.11,-2.56,-1.89,-3.76,-2.34 c-1.2,-0.46,-2.5,-0.68,-3.88,-0.68 c-2.28,0,-4.03,0.56,-5.25,1.67 c-1.22,1.11,-1.84,2.54,-1.84,4.27 c0,1.02,0.23,1.94,0.69,2.78 c0.46,0.84,1.07,1.51,1.82,2.02 c0.75,0.51,1.59,0.89,2.53,1.15 c0.69,0.18,1.73,0.36,3.12,0.53 c2.84,0.34,4.93,0.74,6.27,1.21 c0.01,0.48,0.02,0.79,0.02,0.92 c0,1.43,-0.33,2.44,-1.0,3.03 c-0.9,0.79,-2.23,1.19,-4.0,1.19 c-1.65,0,-2.87,-0.29,-3.66,-0.87 c-0.79,-0.58,-1.37,-1.6,-1.75,-3.08 l-3.44,0.47 c0.31,1.47,0.83,2.66,1.54,3.56 c0.72,0.9,1.75,1.6,3.11,2.09 c1.35,0.49,2.92,0.73,4.71,0.73 c1.77,0,3.21,-0.21,4.32,-0.62 c1.11,-0.42,1.92,-0.94,2.44,-1.57 c0.52,-0.63,0.89,-1.43,1.09,-2.39 c0.12,-0.6,0.18,-1.68,0.18,-3.24 l0,-4.69 c0,-3.27,0.07,-5.34,0.22,-6.2 c0.15,-0.87,0.45,-1.7,0.89,-2.49 l-3.67,0 c-0.36,0.73,-0.6,1.58,-0.7,2.56 Z M283.68,100.04 c-1.28,-0.52,-3.19,-0.96,-5.74,-1.33 c-1.45,-0.21,-2.47,-0.44,-3.07,-0.7 c-0.6,-0.26,-1.06,-0.64,-1.39,-1.14 c-0.33,-0.5,-0.49,-1.06,-0.49,-1.67 c0,-0.94,0.35,-1.72,1.06,-2.34 c0.71,-0.63,1.75,-0.94,3.12,-0.94 c1.35,0,2.56,0.3,3.61,0.89 c1.05,0.59,1.83,1.4,2.32,2.43 c0.38,0.79,0.57,1.97,0.57,3.52 Z M292.61,89.63 l0,28.63 l3.52,0 l0,-28.63 Z M292.61,89.63" fill="rgb(0,0,0)" transform="matrix(1,0,0,-1,0,200)"/>
</svg>