<?xml version="1.0" encoding="UTF-8"?>
<svg height="200" version="1.1" width="500" xmlns="http://www.w3.org/2000/svg" xmlns:xlink="http://www.w3.org/1999/xlink">
 <path d="M0,0 l500,0 l0,200 l-500,0 Z M0,0" fill="rgb(255,255,255)" transform="matrix(1,0,0,-1,0,200)"/>
 <path d="M188.82,90.85 l5.9,-0.73 c-0.93,-3.45,-2.66,-6.13,-5.17,-8.03 c-2.52,-1.9,-5.73,-2.86,-9.65,-2.86 c-4.93,0,-8.84,1.52,-11.73,4.55 c-2.89,3.04,-4.33,7.29,-4.33,12.77 c0,5.67,1.46,10.07,4.38,13.2 c2.92,3.13,6.71,4.7,11.36,4.7 c4.51,0,8.19,-1.53,11.04,-4.6 c2.86,-3.07,4.28,-7.38,4.28,-12.95 c0,-0.34,-0.01,-0.85,-0.03,-1.52 l-25.14,0 c0.21,-3.7,1.26,-6.54,3.14,-8.51 c1.88,-1.97,4.23,-2.95,7.05,-2.95 c2.09,0,3.88,0.55,5.36,1.65 c1.48,1.1,2.66,2.86,3.52,5.27 Z M170.07,100.09 l18.82,0 c-0.25,2.84,-0.97,4.96,-2.16,6.38 c-1.82,2.2,-4.18,3.3,-7.08,3.3 c-2.62,0,-4.83,-0.88,-6.62,-2.63 c-1.79,-1.76,-2.78,-4.1,-2.97,-7.05 Z M198.09,80 l12.31,17.52 l-11.39,16.19 l7.14,0 l5.17,-7.9 c0.97,-1.5,1.76,-2.76,2.35,-3.78 c0.93,1.4,1.79,2.63,2.57,3.71 l5.68,7.97 l6.82,0 l-11.65,-15.87 l12.54,-17.84 l-7.01,0 l-6.92,10.47 l-1.84,2.82 l-8.85,-13.3 Z M246.87,85.11 l0.83,-5.05 c-1.61,-0.34,-3.05,-0.51,-4.32,-0.51 c-2.07,0,-3.68,0.33,-4.82,0.98 c-1.14,0.66,-1.95,1.52,-2.41,2.59 c-0.47,1.07,-0.7,3.32,-0.7,6.74 l0,19.39 l-4.19,0 l0,4.44 l4.19,0 l0,8.35 l5.68,3.43 l0,-11.77 l5.74,0 l0,-4.44 l-5.74,0 l0,-19.71 c0,-1.63,0.1,-2.68,0.3,-3.14 c0.2,-0.47,0.53,-0.84,0.98,-1.11 c0.45,-0.28,1.11,-0.41,1.95,-0.41 c0.63,0,1.47,0.07,2.51,0.22 Z M275.53,90.85 l5.9,-0.73 c-0.93,-3.45,-2.66,-6.13,-5.17,-8.03 c-2.52,-1.9,-5.73,-2.86,-9.65,-2.86 c-4.93,0,-8.84,1.52,-11.73,4.55 c-2.89,3.04,-4.33,7.29,-4.33,12.77 c0,5.67,1.46,10.07,4.38,13.2 c2.92,3.13,6.71,4.7,11.36,4.7 c4.51,0,8.19,-1.53,11.04,-4.6 c2.86,-3.07,4.28,-7.38,4.28,-12.95 c0,-0.34,-0.01,-0.85,-0.03,-1.52 l-25.14,0 c0.21,-3.7,1.26,-6.54,3.14,-8.51 c1.88,-1.97,4.23,-2.95,7.05,-2.95 c2.09,0,3.88,0.55,5.36,1.65 c1.48,1.1,2.66,2.86,3.52,5.27 Z M256.78,100.09 l18.82,0 c-0.25,2.84,-0.97,4.96,-2.16,6.38 c-1.82,2.2,-4.18,3.3,-7.08,3.3 c-2.62,0,-4.83,-0.88,-6.62,-2.63 c-1.79,-1.76,-2.78,-4.1,-2.97,-7.05 Z M288.61,80 l0,33.71 l5.14,0 l0,-4.79 c2.48,3.7,6.05,5.55,10.73,5.55 c2.03,0,3.9,-0.36,5.6,-1.09 c1.7,-0.73,2.98,-1.69,3.82,-2.87 c0.85,-1.18,1.44,-2.59,1.78,-4.22 c0.21,-1.06,0.32,-2.91,0.32,-5.55 l0,-20.73 l-5.71,0 l0,20.5 c0,2.33,-0.22,4.07,-0.67,5.22 c-0.44,1.15,-1.23,2.07,-2.36,2.76 c-1.13,0.69,-2.46,1.03,-3.98,1.03 c-2.43,0,-4.53,-0.77,-6.3,-2.32 c-1.77,-1.54,-2.65,-4.48,-2.65,-8.79 l0,-18.41 Z M337.23,85.11 l0.83,-5.05 c-1.61,-0.34,-3.05,-0.51,-4.32,-0.51 c-2.07,0,-3.68,0.33,-4.82,0.98 c-1.14,0.66,-1.95,1.52,-2.41,2.59 c-0.47,1.07,-0.7,3.32,-0.7,6.74 l0,19.39 l-4.19,0 l0,4.44 l4.19,0 l0,8.35 l5.68,3.43 l0,-11.77 l5.74,0 l0,-4.44 l-5.74,0 l0,-19.71 c0,-1.63,0.1,-2.68,0.3,-3.14 c0.2,-0.47,0.53,-0.84,0.98,-1.11 c0.45,-0.28,1.11,-0.41,1.95,-0.41 c0.63,0,1.47,0.07,2.51,0.22 Z M337.23,85.11" fill="rgb(0,0,0)" transform="matrix(1,0,0,-1,0,200)"/>
</svg>