<?xml version="1.0" encoding="UTF-8"?>
<svg height="200" version="1.1" width="500" xmlns="http://www.w3.org/2000/svg" xmlns:xlink="http://www.w3.org/1999/xlink">
 <path d="M0,0 l500,0 l0,200 l-500,0 Z M0,0" fill="rgb(255,255,255)" transform="matrix(1,0,0,-1,0,200)"/>
 <path d="M205.3,87.91 l3.42,-0.51 c0.14,-1.05,0.54,-1.82,1.19,-2.3 c0.87,-0.65,2.06,-0.98,3.57,-0.98 c1.63,0,2.88,0.33,3.77,0.98 c0.89,0.65,1.48,1.56,1.8,2.73 c0.18,0.72,0.27,2.22,0.25,4.51 c-1.54,-1.81,-3.45,-2.71,-5.74,-2.71 c-2.85,0,-5.06,1.03,-6.62,3.09 c-1.56,2.06,-2.34,4.52,-2.34,7.4 c0,1.98,0.36,3.81,1.07,5.48 c0.72,1.67,1.75,2.97,3.12,3.88 c1.36,0.91,2.96,1.37,4.79,1.37 c2.45,0,4.47,-0.99,6.05,-2.97 l0,2.5 l3.24,0 l0,-17.93 c0,-3.23,-0.33,-5.52,-0.99,-6.87 c-0.66,-1.35,-1.7,-2.41,-3.12,-3.19 c-1.43,-0.78,-3.18,-1.17,-5.26,-1.17 c-2.47,0,-4.47,0.56,-6.0,1.67 c-1.52,1.11,-2.26,2.79,-2.21,5.03 Z M208.21,100.37 c0,-2.72,0.54,-4.71,1.62,-5.96 c1.08,-1.25,2.43,-1.88,4.06,-1.88 c1.61,0,2.97,0.62,4.06,1.87 c1.09,1.24,1.64,3.19,1.64,5.85 c0,2.54,-0.56,4.45,-1.69,5.74 c-1.13,1.29,-2.48,1.93,-4.07,1.93 c-1.56,0,-2.89,-0.63,-3.98,-1.9 c-1.09,-1.27,-1.64,-3.15,-1.64,-5.65 Z M241.79,89.63 l0,3.05 c-1.61,-2.34,-3.81,-3.52,-6.58,-3.52 c-1.22,0,-2.37,0.23,-3.43,0.7 c-1.06,0.47,-1.85,1.06,-2.36,1.77 c-0.51,0.71,-0.88,1.58,-1.08,2.61 c-0.14,0.69,-0.21,1.78,-0.21,3.28 l0,12.85 l3.52,0 l0,-11.5 c0,-1.84,0.07,-3.07,0.21,-3.71 c0.22,-0.92,0.69,-1.65,1.41,-2.18 c0.72,-0.53,1.6,-0.79,2.66,-0.79 c1.05,0,2.04,0.27,2.97,0.81 c0.92,0.54,1.58,1.28,1.96,2.21 c0.38,0.93,0.58,2.28,0.58,4.05 l0,11.11 l3.52,0 l0,-20.74 Z M250.46,114.22 l0,4.04 l3.52,0 l0,-4.04 Z M250.46,89.63 l0,20.74 l3.52,0 l0,-20.74 Z M259.25,89.63 l0,28.63 l3.52,0 l0,-28.63 Z M275.89,92.77 l0.51,-3.11 c-0.99,-0.21,-1.87,-0.31,-2.66,-0.31 c-1.28,0,-2.27,0.2,-2.97,0.61 c-0.7,0.4,-1.2,0.93,-1.48,1.59 c-0.29,0.66,-0.43,2.04,-0.43,4.15 l0,11.93 l-2.58,0 l0,2.73 l2.58,0 l0,5.14 l3.5,2.11 l0,-7.25 l3.54,0 l0,-2.73 l-3.54,0 l0,-12.13 c0,-1.0,0.06,-1.65,0.19,-1.93 c0.12,-0.29,0.33,-0.51,0.61,-0.68 c0.28,-0.17,0.68,-0.25,1.2,-0.25 c0.39,0,0.9,0.05,1.54,0.14 Z M279.17,81.64 l-0.39,3.3 c0.77,-0.21,1.44,-0.31,2.01,-0.31 c0.78,0,1.41,0.13,1.88,0.39 c0.47,0.26,0.85,0.62,1.15,1.09 c0.22,0.35,0.58,1.22,1.07,2.62 c0.07,0.2,0.17,0.48,0.31,0.86 l-7.87,20.78 l3.79,0 l4.32,-12.01 c0.56,-1.52,1.06,-3.12,1.5,-4.8 c0.4,1.61,0.89,3.19,1.45,4.73 l4.43,12.09 l3.52,0 l-7.89,-21.09 c-0.85,-2.28,-1.5,-3.85,-1.97,-4.71 c-0.63,-1.16,-1.34,-2.01,-2.15,-2.55 c-0.81,-0.54,-1.77,-0.81,-2.89,-0.81 c-0.68,0,-1.43,0.14,-2.27,0.43 Z M279.17,81.64" fill="rgb(0,0,0)" transform="matrix(1,0,0,-1,0,200)"/>
</svg>