<?xml version="1.0" encoding="UTF-8"?>
<svg height="200" version="1.1" width="500" xmlns="http://www.w3.org/2000/svg" xmlns:xlink="http://www.w3.org/1999/xlink">
 <path d="M0,0 l500,0 l0,200 l-500,0 Z M0,0" fill="rgb(255,255,255)" transform="matrix(1,0,0,-1,0,200)"/>
 <path d="M169.37,80 l0,46.53 l5.71,0 l0,-16.69 c2.67,3.09,6.03,4.63,10.09,4.63 c2.5,0,4.67,-0.49,6.51,-1.48 c1.84,-0.98,3.16,-2.34,3.95,-4.08 c0.79,-1.74,1.19,-4.25,1.19,-7.55 l0,-21.36 l-5.71,0 l0,21.36 c0,2.86,-0.62,4.94,-1.86,6.24 c-1.24,1.3,-2.99,1.95,-5.25,1.95 c-1.69,0,-3.28,-0.44,-4.78,-1.32 c-1.49,-0.88,-2.55,-2.07,-3.19,-3.57 c-0.63,-1.5,-0.95,-3.58,-0.95,-6.22 l0,-18.44 Z M205.55,119.96 l0,6.57 l5.71,0 l0,-6.57 Z M205.55,80 l0,33.71 l5.71,0 l0,-33.71 Z M218.91,77.21 l5.55,-0.83 c0.23,-1.71,0.88,-2.96,1.94,-3.75 c1.42,-1.06,3.35,-1.59,5.81,-1.59 c2.64,0,4.69,0.53,6.13,1.59 c1.44,1.06,2.41,2.54,2.92,4.44 c0.3,1.16,0.43,3.61,0.41,7.33 c-2.5,-2.94,-5.61,-4.41,-9.33,-4.41 c-4.63,0,-8.22,1.67,-10.76,5.01 c-2.54,3.34,-3.81,7.35,-3.81,12.03 c0,3.22,0.58,6.18,1.75,8.9 c1.16,2.72,2.85,4.82,5.06,6.3 c2.21,1.48,4.81,2.22,7.79,2.22 c3.98,0,7.26,-1.61,9.84,-4.82 l0,4.06 l5.27,0 l0,-29.14 c0,-5.25,-0.53,-8.97,-1.6,-11.16 c-1.07,-2.19,-2.76,-3.92,-5.08,-5.19 c-2.32,-1.27,-5.17,-1.9,-8.55,-1.9 c-4.02,0,-7.27,0.9,-9.74,2.71 c-2.48,1.81,-3.67,4.53,-3.59,8.17 Z M223.64,97.46 c0,-4.42,0.88,-7.65,2.63,-9.68 c1.76,-2.03,3.96,-3.05,6.6,-3.05 c2.62,0,4.82,1.01,6.6,3.03 c1.78,2.02,2.67,5.19,2.67,9.51 c0,4.13,-0.92,7.24,-2.75,9.33 c-1.83,2.09,-4.04,3.14,-6.62,3.14 c-2.54,0,-4.7,-1.03,-6.47,-3.09 c-1.78,-2.06,-2.67,-5.13,-2.67,-9.19 Z M256.11,80 l0,46.53 l5.71,0 l0,-16.69 c2.67,3.09,6.03,4.63,10.09,4.63 c2.5,0,4.67,-0.49,6.51,-1.48 c1.84,-0.98,3.16,-2.34,3.95,-4.08 c0.79,-1.74,1.19,-4.25,1.19,-7.55 l0,-21.36 l-5.71,0 l0,21.36 c0,2.86,-0.62,4.94,-1.86,6.24 c-1.24,1.3,-2.99,1.95,-5.25,1.95 c-1.69,0,-3.28,-0.44,-4.78,-1.32 c-1.49,-0.88,-2.55,-2.07,-3.19,-3.57 c-0.63,-1.5,-0.95,-3.58,-0.95,-6.22 l0,-18.44 Z M292.13,80 l0,46.53 l5.71,0 l0,-46.53 Z M306.45,67.02 l-0.63,5.36 c1.25,-0.34,2.34,-0.51,3.27,-0.51 c1.27,0,2.29,0.21,3.05,0.63 c0.76,0.42,1.39,1.02,1.87,1.78 c0.36,0.57,0.94,1.99,1.75,4.25 c0.11,0.32,0.28,0.78,0.51,1.4 l-12.79,33.77 l6.16,0 l7.01,-19.52 c0.91,-2.48,1.72,-5.08,2.44,-7.81 c0.66,2.62,1.44,5.18,2.35,7.68 l7.2,19.65 l5.71,0 l-12.82,-34.28 c-1.38,-3.7,-2.44,-6.25,-3.21,-7.65 c-1.02,-1.88,-2.18,-3.26,-3.49,-4.14 c-1.31,-0.88,-2.88,-1.32,-4.7,-1.32 c-1.1,0,-2.33,0.23,-3.68,0.7 Z M306.45,67.02" fill="rgb(0,0,0)" transform="matrix(1,0,0,-1,0,200)"/>
</svg>