<?xml version="1.0" encoding="UTF-8"?>
<svg height="200" version="1.1" width="500" xmlns="http://www.w3.org/2000/svg" xmlns:xlink="http://www.w3.org/1999/xlink">
 <path d="M0,0 l500,0 l0,200 l-500,0 Z M0,0" fill="rgb(255,255,255)" transform="matrix(1,0,0,-1,0,200)"/>
 <path d="M142.55,114.22 l0,4.04 l3.52,0 l0,-4.04 Z M142.55,89.63 l0,20.74 l3.52,0 l0,-20.74 Z M151.42,89.63 l0,20.74 l3.16,0 l0,-2.95 c1.52,2.28,3.72,3.42,6.6,3.42 c1.25,0,2.4,-0.22,3.45,-0.67 c1.05,-0.45,1.83,-1.04,2.35,-1.77 c0.52,-0.73,0.89,-1.6,1.09,-2.6 c0.13,-0.65,0.2,-1.79,0.2,-3.42 l0,-12.75 l-3.52,0 l0,12.62 c0,1.43,-0.14,2.5,-0.41,3.21 c-0.27,0.71,-0.76,1.28,-1.46,1.7 c-0.7,0.42,-1.51,0.63,-2.45,0.63 c-1.5,0,-2.79,-0.48,-3.88,-1.43 c-1.09,-0.95,-1.63,-2.75,-1.63,-5.41 l0,-11.33 Z M187.12,89.63 l0,2.62 c-1.32,-2.06,-3.25,-3.09,-5.8,-3.09 c-1.65,0,-3.17,0.46,-4.56,1.37 c-1.39,0.91,-2.46,2.18,-3.22,3.82 c-0.76,1.63,-1.14,3.51,-1.14,5.63 c0,2.07,0.35,3.95,1.04,5.63 c0.69,1.69,1.73,2.98,3.11,3.88 c1.38,0.9,2.92,1.35,4.63,1.35 c1.25,0,2.36,-0.26,3.34,-0.79 c0.98,-0.53,1.77,-1.21,2.38,-2.06 l0,10.27 l3.5,0 l0,-28.63 Z M176.01,99.98 c0,-2.66,0.56,-4.64,1.68,-5.96 c1.12,-1.32,2.44,-1.97,3.96,-1.97 c1.54,0,2.84,0.63,3.92,1.88 c1.07,1.26,1.61,3.17,1.61,5.75 c0,2.84,-0.55,4.92,-1.64,6.25 c-1.09,1.33,-2.44,1.99,-4.04,1.99 c-1.56,0,-2.87,-0.64,-3.92,-1.91 c-1.05,-1.28,-1.57,-3.29,-1.57,-6.04 Z M210.11,96.31 l3.63,-0.45 c-0.57,-2.12,-1.63,-3.77,-3.18,-4.94 c-1.55,-1.17,-3.53,-1.76,-5.94,-1.76 c-3.03,0,-5.44,0.93,-7.22,2.8 c-1.78,1.87,-2.67,4.49,-2.67,7.86 c0,3.49,0.9,6.2,2.7,8.12 c1.8,1.93,4.13,2.89,6.99,2.89 c2.77,0,5.04,-0.94,6.8,-2.83 c1.76,-1.89,2.64,-4.54,2.64,-7.97 c0,-0.21,-0.01,-0.52,-0.02,-0.94 l-15.47,0 c0.13,-2.28,0.77,-4.02,1.93,-5.23 c1.16,-1.21,2.6,-1.82,4.34,-1.82 c1.29,0,2.39,0.34,3.3,1.02 c0.91,0.68,1.63,1.76,2.17,3.24 Z M198.56,101.99 l11.58,0 c-0.16,1.74,-0.6,3.05,-1.33,3.93 c-1.12,1.35,-2.57,2.03,-4.36,2.03 c-1.61,0,-2.97,-0.54,-4.07,-1.62 c-1.1,-1.08,-1.71,-2.53,-1.83,-4.34 Z M218.15,81.68 l0,28.69 l3.2,0 l0,-2.7 c0.76,1.05,1.61,1.85,2.56,2.37 c0.95,0.53,2.1,0.79,3.46,0.79 c1.77,0,3.33,-0.46,4.69,-1.37 c1.35,-0.91,2.38,-2.2,3.07,-3.86 c0.69,-1.66,1.04,-3.48,1.04,-5.46 c0,-2.12,-0.38,-4.03,-1.14,-5.73 c-0.76,-1.7,-1.87,-3.0,-3.32,-3.91 c-1.45,-0.9,-2.98,-1.36,-4.58,-1.36 c-1.17,0,-2.22,0.25,-3.15,0.74 c-0.93,0.49,-1.7,1.12,-2.29,1.88 l0,-10.1 Z M221.34,99.88 c0,-2.67,0.54,-4.64,1.62,-5.92 c1.08,-1.28,2.39,-1.91,3.93,-1.91 c1.56,0,2.9,0.66,4.01,1.98 c1.11,1.32,1.67,3.37,1.67,6.14 c0,2.64,-0.54,4.62,-1.63,5.94 c-1.09,1.32,-2.39,1.97,-3.9,1.97 c-1.5,0,-2.82,-0.7,-3.97,-2.1 c-1.15,-1.4,-1.73,-3.43,-1.73,-6.1 Z M254.6,96.31 l3.63,-0.45 c-0.57,-2.12,-1.63,-3.77,-3.18,-4.94 c-1.55,-1.17,-3.53,-1.76,-5.94,-1.76 c-3.03,0,-5.44,0.93,-7.22,2.8 c-1.78,1.87,-2.67,4.49,-2.67,7.86 c0,3.49,0.9,6.2,2.7,8.12 c1.8,1.93,4.13,2.89,6.99,2.89 c2.77,0,5.04,-0.94,6.8,-2.83 c1.76,-1.89,2.64,-4.54,2.64,-7.97 c0,-0.21,-0.01,-0.52,-0.02,-0.94 l-15.47,0 c0.13,-2.28,0.77,-4.02,1.93,-5.23 c1.16,-1.21,2.6,-1.82,4.34,-1.82 c1.29,0,2.39,0.34,3.3,1.02 c0.91,0.68,1.63,1.76,2.17,3.24 Z M243.06,101.99 l11.58,0 c-0.16,1.74,-0.6,3.05,-1.33,3.93 c-1.12,1.35,-2.57,2.03,-4.36,2.03 c-1.61,0,-2.97,-0.54,-4.07,-1.62 c-1.1,-1.08,-1.71,-2.53,-1.83,-4.34 Z M262.65,89.63 l0,20.74 l3.16,0 l0,-2.95 c1.52,2.28,3.72,3.42,6.6,3.42 c1.25,0,2.4,-0.22,3.45,-0.67 c1.05,-0.45,1.83,-1.04,2.35,-1.77 c0.52,-0.73,0.89,-1.6,1.09,-2.6 c0.13,-0.65,0.2,-1.79,0.2,-3.42 l0,-12.75 l-3.52,0 l0,12.62 c0,1.43,-0.14,2.5,-0.41,3.21 c-0.27,0.71,-0.76,1.28,-1.46,1.7 c-0.7,0.42,-1.51,0.63,-2.45,0.63 c-1.5,0,-2.79,-0.48,-3.88,-1.43 c-1.09,-0.95,-1.63,-2.75,-1.63,-5.41 l0,-11.33 Z M298.35,89.63 l0,2.62 c-1.32,-2.06,-3.25,-3.09,-5.8,-3.09 c-1.65,0,-3.17,0.46,-4.56,1.37 c-1.39,0.91,-2.46,2.18,-3.22,3.82 c-0.76,1.63,-1.14,3.51,-1.14,5.63 c0,2.07,0.35,3.95,1.04,5.63 c0.69,1.69,1.73,2.98,3.11,3.88 c1.38,0.9,2.92,1.35,4.63,1.35 c1.25,0,2.36,-0.26,3.34,-0.79 c0.98,-0.53,1.77,-1.21,2.38,-2.06 l0,10.27 l3.5,0 l0,-28.63 Z M287.24,99.98 c0,-2.66,0.56,-4.64,1.68,-5.96 c1.12,-1.32,2.44,-1.97,3.96,-1.97 c1.54,0,2.84,0.63,3.92,1.88 c1.07,1.26,1.61,3.17,1.61,5.75 c0,2.84,-0.55,4.92,-1.64,6.25 c-1.09,1.33,-2.44,1.99,-4.04,1.99 c-1.56,0,-2.87,-0.64,-3.92,-1.91 c-1.05,-1.28,-1.57,-3.29,-1.57,-6.04 Z M321.34,96.31 l3.63,-0.45 c-0.57,-2.12,-1.63,-3.77,-3.18,-4.94 c-1.55,-1.17,-3.53,-1.76,-5.94,-1.76 c-3.03,0,-5.44,0.93,-7.22,2.8 c-1.78,1.87,-2.67,4.49,-2.67,7.86 c0,3.49,0.9,6.2,2.7,8.12 c1.8,1.93,4.13,2.89,6.99,2.89 c2.77,0,5.04,-0.94,6.8,-2.83 c1.76,-1.89,2.64,-4.54,2.64,-7.97 c0,-0.21,-0.01,-0.52,-0.02,-0.94 l-15.47,0 c0.13,-2.28,0.77,-4.02,1.93,-5.23 c1.16,-1.21,2.6,-1.82,4.34,-1.82 c1.29,0,2.39,0.34,3.3,1.02 c0.91,0.68,1.63,1.76,2.17,3.24 Z M309.79,101.99 l11.58,0 c-0.16,1.74,-0.6,3.05,-1.33,3.93 c-1.12,1.35,-2.57,2.03,-4.36,2.03 c-1.61,0,-2.97,-0.54,-4.07,-1.62 c-1.1,-1.08,-1.71,-2.53,-1.83,-4.34 Z M329.38,89.63 l0,20.74 l3.16,0 l0,-2.95 c1.52,2.28,3.72,3.42,6.6,3.42 c1.25,0,2.4,-0.22,3.45,-0.67 c1.05,-0.45,1.83,-1.04,2.35,-1.77 c0.52,-0.73,0.89,-1.6,1.09,-2.6 c0.13,-0.65,0.2,-1.79,0.2,-3.42 l0,-12.75 l-3.52,0 l0,12.62 c0,1.43,-0.14,2.5,-0.41,3.21 c-0.27,0.71,-0.76,1.28,-1.46,1.7 c-0.7,0.42,-1.51,0.63,-2.45,0.63 c-1.5,0,-2.79,-0.48,-3.88,-1.43 c-1.09,-0.95,-1.63,-2.75,-1.63,-5.41 l0,-11.33 Z M359.31,92.77 l0.51,-3.11 c-0.99,-0.21,-1.87,-0.31,-2.66,-0.31 c-1.28,0,-2.27,0.2,-2.97,0.61 c-0.7,0.4,-1.2,0.93,-1.48,1.59 c-0.29,0.66,-0.43,2.04,-0.43,4.15 l0,11.93 l-2.58,0 l0,2.73 l2.58,0 l0,5.14 l3.5,2.11 l0,-7.25 l3.54,0 l0,-2.73 l-3.54,0 l0,-12.13 c0,-1.0,0.06,-1.65,0.19,-1.93 c0.12,-0.29,0.33,-0.51,0.61,-0.68 c0.28,-0.17,0.68,-0.25,1.2,-0.25 c0.39,0,0.9,0.05,1.54,0.14 Z M359.31,92.77" fill="rgb(0,0,0)" transform="matrix(1,0,0,-1,0,200)"/>
</svg>