<?xml version="1.0" encoding="UTF-8"?>
<svg height="200" version="1.1" width="500" xmlns="http://www.w3.org/2000/svg" xmlns:xlink="http://www.w3.org/1999/xlink">
 <path d="M0,0 l500,0 l0,200 l-500,0 Z M0,0" fill="rgb(255,255,255)" transform="matrix(1,0,0,-1,0,200)"/>
 <path d="M181.92,80 l0,46.53 l5.71,0 l0,-46.53 Z M196.52,119.96 l0,6.57 l5.71,0 l0,-6.57 Z M196.52,80 l0,33.71 l5.71,0 l0,-33.71 Z M210.96,80 l0,46.53 l5.71,0 l0,-26.53 l13.52,13.71 l7.4,0 l-12.89,-12.5 l14.19,-21.2 l-7.05,0 l-11.14,17.23 l-4.03,-3.87 l0,-13.36 Z M266.5,90.85 l5.9,-0.73 c-0.93,-3.45,-2.66,-6.13,-5.17,-8.03 c-2.52,-1.9,-5.73,-2.86,-9.65,-2.86 c-4.93,0,-8.84,1.52,-11.73,4.55 c-2.89,3.04,-4.33,7.29,-4.33,12.77 c0,5.67,1.46,10.07,4.38,13.2 c2.92,3.13,6.71,4.7,11.36,4.7 c4.51,0,8.19,-1.53,11.04,-4.6 c2.86,-3.07,4.28,-7.38,4.28,-12.95 c0,-0.34,-0.01,-0.85,-0.03,-1.52 l-25.14,0 c0.21,-3.7,1.26,-6.54,3.14,-8.51 c1.88,-1.97,4.23,-2.95,7.05,-2.95 c2.09,0,3.88,0.55,5.36,1.65 c1.48,1.1,2.66,2.86,3.52,5.27 Z M247.75,100.09 l18.82,0 c-0.25,2.84,-0.97,4.96,-2.16,6.38 c-1.82,2.2,-4.18,3.3,-7.08,3.3 c-2.62,0,-4.83,-0.88,-6.62,-2.63 c-1.79,-1.76,-2.78,-4.1,-2.97,-7.05 Z M279.45,80 l0,46.53 l5.71,0 l0,-46.53 Z M293.77,67.02 l-0.63,5.36 c1.25,-0.34,2.34,-0.51,3.27,-0.51 c1.27,0,2.29,0.21,3.05,0.63 c0.76,0.42,1.39,1.02,1.87,1.78 c0.36,0.57,0.94,1.99,1.75,4.25 c0.11,0.32,0.28,0.78,0.51,1.4 l-12.79,33.77 l6.16,0 l7.01,-19.52 c0.91,-2.48,1.72,-5.08,2.44,-7.81 c0.66,2.62,1.44,5.18,2.35,7.68 l7.2,19.65 l5.71,0 l-12.82,-34.28 c-1.38,-3.7,-2.44,-6.25,-3.21,-7.65 c-1.02,-1.88,-2.18,-3.26,-3.49,-4.14 c-1.31,-0.88,-2.88,-1.32,-4.7,-1.32 c-1.1,0,-2.33,0.23,-3.68,0.7 Z M293.77,67.02" fill="rgb(0,0,0)" transform="matrix(1,0,0,-1,0,200)"/>
</svg>