<?xml version="1.0" encoding="UTF-8"?>
<svg height="200" version="1.1" width="500" xmlns="http://www.w3.org/2000/svg" xmlns:xlink="http://www.w3.org/1999/xlink">
 <path d="M0,0 l500,0 l0,200 l-500,0 Z M0,0" fill="rgb(255,255,255)" transform="matrix(1,0,0,-1,0,200)"/>
 <path d="M178.29,80 l0,46.53 l5.71,0 l0,-46.53 Z M190.73,96.85 c0,6.24,1.74,10.87,5.21,13.87 c2.9,2.5,6.43,3.75,10.6,3.75 c4.63,0,8.42,-1.52,11.36,-4.55 c2.94,-3.04,4.41,-7.23,4.41,-12.58 c0,-4.34,-0.65,-7.75,-1.95,-10.24 c-1.3,-2.49,-3.19,-4.42,-5.68,-5.79 c-2.49,-1.38,-5.2,-2.06,-8.14,-2.06 c-4.72,0,-8.53,1.51,-11.44,4.54 c-2.91,3.03,-4.36,7.38,-4.36,13.08 Z M196.6,96.85 c0,-4.32,0.94,-7.55,2.82,-9.7 c1.88,-2.15,4.25,-3.22,7.11,-3.22 c2.84,0,5.19,1.08,7.08,3.24 c1.88,2.16,2.82,5.45,2.82,9.87 c0,4.17,-0.95,7.33,-2.84,9.47 c-1.89,2.15,-4.25,3.22,-7.06,3.22 c-2.86,0,-5.23,-1.07,-7.11,-3.21 c-1.88,-2.14,-2.82,-5.36,-2.82,-9.68 Z M226.88,96.85 c0,6.24,1.74,10.87,5.21,13.87 c2.9,2.5,6.43,3.75,10.6,3.75 c4.63,0,8.42,-1.52,11.36,-4.55 c2.94,-3.04,4.41,-7.23,4.41,-12.58 c0,-4.34,-0.65,-7.75,-1.95,-10.24 c-1.3,-2.49,-3.19,-4.42,-5.68,-5.79 c-2.49,-1.38,-5.2,-2.06,-8.14,-2.06 c-4.72,0,-8.53,1.51,-11.44,4.54 c-2.91,3.03,-4.36,7.38,-4.36,13.08 Z M232.75,96.85 c0,-4.32,0.94,-7.55,2.82,-9.7 c1.88,-2.15,4.25,-3.22,7.11,-3.22 c2.84,0,5.19,1.08,7.08,3.24 c1.88,2.16,2.82,5.45,2.82,9.87 c0,4.17,-0.95,7.33,-2.84,9.47 c-1.89,2.15,-4.25,3.22,-7.06,3.22 c-2.86,0,-5.23,-1.07,-7.11,-3.21 c-1.88,-2.14,-2.82,-5.36,-2.82,-9.68 Z M265.19,80 l0,46.53 l5.71,0 l0,-26.53 l13.52,13.71 l7.4,0 l-12.89,-12.5 l14.19,-21.2 l-7.05,0 l-11.14,17.23 l-4.03,-3.87 l0,-13.36 Z M295.37,90.06 l5.65,0.89 c0.32,-2.26,1.2,-4.0,2.65,-5.21 c1.45,-1.21,3.48,-1.81,6.08,-1.81 c2.62,0,4.57,0.53,5.84,1.6 c1.27,1.07,1.9,2.32,1.9,3.76 c0,1.29,-0.56,2.31,-1.68,3.05 c-0.78,0.51,-2.73,1.15,-5.84,1.94 c-4.19,1.06,-7.09,1.97,-8.71,2.75 c-1.62,0.77,-2.85,1.84,-3.68,3.21 c-0.84,1.36,-1.25,2.87,-1.25,4.52 c0,1.5,0.34,2.89,1.03,4.17 c0.69,1.28,1.62,2.34,2.81,3.19 c0.89,0.66,2.1,1.21,3.63,1.67 c1.53,0.45,3.18,0.68,4.94,0.68 c2.64,0,4.97,-0.38,6.97,-1.14 c2.0,-0.76,3.48,-1.79,4.43,-3.09 c0.95,-1.3,1.61,-3.04,1.97,-5.22 l-5.59,-0.76 c-0.25,1.74,-0.99,3.09,-2.21,4.06 c-1.22,0.97,-2.94,1.46,-5.16,1.46 c-2.62,0,-4.5,-0.43,-5.62,-1.3 c-1.12,-0.87,-1.68,-1.88,-1.68,-3.05 c0,-0.74,0.23,-1.41,0.7,-2.0 c0.47,-0.61,1.2,-1.12,2.19,-1.52 c0.57,-0.21,2.25,-0.7,5.05,-1.46 c4.04,-1.08,6.86,-1.96,8.46,-2.65 c1.6,-0.69,2.85,-1.69,3.76,-3.0 c0.91,-1.31,1.36,-2.94,1.36,-4.89 c0,-1.9,-0.56,-3.7,-1.67,-5.38 c-1.11,-1.68,-2.71,-2.98,-4.81,-3.9 c-2.09,-0.92,-4.46,-1.38,-7.11,-1.38 c-4.38,0,-7.72,0.91,-10.01,2.73 c-2.3,1.82,-3.76,4.52,-4.4,8.09 Z M295.37,90.06" fill="rgb(0,0,0)" transform="matrix(1,0,0,-1,0,200)"/>
</svg>