<?xml version="1.0" encoding="UTF-8"?>
<svg height="200" version="1.1" width="500" xmlns="http://www.w3.org/2000/svg" xmlns:xlink="http://www.w3.org/1999/xlink">
 <path d="M0,0 l500,0 l0,200 l-500,0 Z M0,0" fill="rgb(255,255,255)" transform="matrix(1,0,0,-1,0,200)"/>
 <path d="M213.71,89.63 l0,20.74 l3.16,0 l0,-3.14 c0.81,1.47,1.55,2.44,2.24,2.91 c0.68,0.47,1.44,0.7,2.26,0.7 c1.18,0,2.39,-0.38,3.61,-1.13 l-1.21,-3.26 c-0.86,0.51,-1.72,0.76,-2.58,0.76 c-0.77,0,-1.46,-0.23,-2.07,-0.69 c-0.61,-0.46,-1.05,-1.1,-1.31,-1.92 c-0.39,-1.25,-0.59,-2.62,-0.59,-4.1 l0,-10.86 Z M227.09,114.22 l0,4.04 l3.52,0 l0,-4.04 Z M227.09,89.63 l0,20.74 l3.52,0 l0,-20.74 Z M241.72,89.63 l-7.89,20.74 l3.71,0 l4.45,-12.42 c0.48,-1.34,0.92,-2.73,1.33,-4.18 c0.31,1.09,0.75,2.41,1.31,3.95 l4.61,12.66 l3.61,0 l-7.85,-20.74 Z M270.16,96.31 l3.63,-0.45 c-0.57,-2.12,-1.63,-3.77,-3.18,-4.94 c-1.55,-1.17,-3.53,-1.76,-5.94,-1.76 c-3.03,0,-5.44,0.93,-7.22,2.8 c-1.78,1.87,-2.67,4.49,-2.67,7.86 c0,3.49,0.9,6.2,2.7,8.12 c1.8,1.93,4.13,2.89,6.99,2.89 c2.77,0,5.04,-0.94,6.8,-2.83 c1.76,-1.89,2.64,-4.54,2.64,-7.97 c0,-0.21,-0.01,-0.52,-0.02,-0.94 l-15.47,0 c0.13,-2.28,0.77,-4.02,1.93,-5.23 c1.16,-1.21,2.6,-1.82,4.34,-1.82 c1.29,0,2.39,0.34,3.3,1.02 c0.91,0.68,1.63,1.76,2.17,3.24 Z M258.61,101.99 l11.58,0 c-0.16,1.74,-0.6,3.05,-1.33,3.93 c-1.12,1.35,-2.57,2.03,-4.36,2.03 c-1.61,0,-2.97,-0.54,-4.07,-1.62 c-1.1,-1.08,-1.71,-2.53,-1.83,-4.34 Z M278.16,89.63 l0,20.74 l3.16,0 l0,-3.14 c0.81,1.47,1.55,2.44,2.24,2.91 c0.68,0.47,1.44,0.7,2.26,0.7 c1.18,0,2.39,-0.38,3.61,-1.13 l-1.21,-3.26 c-0.86,0.51,-1.72,0.76,-2.58,0.76 c-0.77,0,-1.46,-0.23,-2.07,-0.69 c-0.61,-0.46,-1.05,-1.1,-1.31,-1.92 c-0.39,-1.25,-0.59,-2.62,-0.59,-4.1 l0,-10.86 Z M278.16,89.63" fill="rgb(0,0,0)" transform="matrix(1,0,0,-1,0,200)"/>
</svg>