<?xml version="1.0" encoding="UTF-8"?>
<svg height="200" version="1.1" width="800" xmlns="http://www.w3.org/2000/svg" xmlns:xlink="http://www.w3.org/1999/xlink">
 <path d="M0,0 l800,0 l0,200 l-800,0 Z M0,0" fill="rgb(255,255,255)" transform="matrix(1,0,0,-1,0,200)"/>
 <path d="M360.11,95.82 l3.48,0.55 c0.2,-1.39,0.74,-2.46,1.63,-3.2 c0.89,-0.74,2.14,-1.11,3.74,-1.11 c1.61,0,2.81,0.33,3.59,0.99 c0.78,0.66,1.17,1.43,1.17,2.31 c0,0.79,-0.35,1.42,-1.04,1.88 c-0.48,0.31,-1.68,0.71,-3.59,1.19 c-2.58,0.65,-4.37,1.21,-5.36,1.69 c-1.0,0.48,-1.75,1.13,-2.27,1.97 c-0.51,0.84,-0.77,1.77,-0.77,2.78 c0,0.92,0.21,1.78,0.63,2.57 c0.42,0.79,1.0,1.44,1.73,1.96 c0.55,0.4,1.29,0.75,2.24,1.03 c0.94,0.28,1.96,0.42,3.04,0.42 c1.63,0,3.06,-0.23,4.29,-0.7 c1.23,-0.47,2.14,-1.1,2.72,-1.9 c0.59,-0.8,0.99,-1.87,1.21,-3.21 l-3.44,-0.47 c-0.16,1.07,-0.61,1.9,-1.36,2.5 c-0.75,0.6,-1.81,0.9,-3.17,0.9 c-1.61,0,-2.77,-0.27,-3.46,-0.8 c-0.69,-0.53,-1.04,-1.16,-1.04,-1.88 c0,-0.46,0.14,-0.87,0.43,-1.23 c0.29,-0.38,0.74,-0.69,1.35,-0.94 c0.35,-0.13,1.39,-0.43,3.11,-0.9 c2.49,-0.66,4.22,-1.21,5.21,-1.63 c0.98,-0.42,1.75,-1.04,2.31,-1.85 c0.56,-0.81,0.84,-1.81,0.84,-3.01 c0,-1.17,-0.34,-2.28,-1.03,-3.31 c-0.68,-1.04,-1.67,-1.84,-2.96,-2.4 c-1.29,-0.57,-2.75,-0.85,-4.38,-0.85 c-2.7,0,-4.75,0.56,-6.16,1.68 c-1.41,1.12,-2.31,2.78,-2.71,4.98 Z M389.19,92.77 l0.51,-3.11 c-0.99,-0.21,-1.87,-0.31,-2.66,-0.31 c-1.28,0,-2.27,0.2,-2.97,0.61 c-0.7,0.4,-1.2,0.93,-1.48,1.59 c-0.29,0.66,-0.43,2.04,-0.43,4.15 l0,11.93 l-2.58,0 l0,2.73 l2.58,0 l0,5.14 l3.5,2.11 l0,-7.25 l3.54,0 l0,-2.73 l-3.54,0 l0,-12.13 c0,-1.0,0.06,-1.65,0.19,-1.93 c0.12,-0.29,0.33,-0.51,0.61,-0.68 c0.28,-0.17,0.68,-0.25,1.2,-0.25 c0.39,0,0.9,0.05,1.54,0.14 Z M392.47,81.64 l-0.39,3.3 c0.77,-0.21,1.44,-0.31,2.01,-0.31 c0.78,0,1.41,0.13,1.88,0.39 c0.47,0.26,0.85,0.62,1.15,1.09 c0.22,0.35,0.58,1.22,1.07,2.62 c0.07,0.2,0.17,0.48,0.31,0.86 l-7.87,20.78 l3.79,0 l4.32,-12.01 c0.56,-1.52,1.06,-3.12,1.5,-4.8 c0.4,1.61,0.89,3.19,1.45,4.73 l4.43,12.09 l3.52,0 l-7.89,-21.09 c-0.85,-2.28,-1.5,-3.85,-1.97,-4.71 c-0.63,-1.16,-1.34,-2.01,-2.15,-2.55 c-0.81,-0.54,-1.77,-0.81,-2.89,-0.81 c-0.68,0,-1.43,0.14,-2.27,0.43 Z M412.55,89.63 l0,28.63 l3.52,0 l0,-28.63 Z M435.71,96.31 l3.63,-0.45 c-0.57,-2.12,-1.63,-3.77,-3.18,-4.94 c-1.55,-1.17,-3.53,-1.76,-5.94,-1.76 c-3.03,0,-5.44,0.93,-7.22,2.8 c-1.78,1.87,-2.67,4.49,-2.67,7.86 c0,3.49,0.9,6.2,2.7,8.12 c1.8,1.93,4.13,2.89,6.99,2.89 c2.77,0,5.04,-0.94,6.8,-2.83 c1.76,-1.89,2.64,-4.54,2.64,-7.97 c0,-0.21,-0.01,-0.52,-0.02,-0.94 l-15.47,0 c0.13,-2.28,0.77,-4.02,1.93,-5.23 c1.16,-1.21,2.6,-1.82,4.34,-1.82 c1.29,0,2.39,0.34,3.3,1.02 c0.91,0.68,1.63,1.76,2.17,3.24 Z M424.17,101.99 l11.58,0 c-0.16,1.74,-0.6,3.05,-1.33,3.93 c-1.12,1.35,-2.57,2.03,-4.36,2.03 c-1.61,0,-2.97,-0.54,-4.07,-1.62 c-1.1,-1.08,-1.71,-2.53,-1.83,-4.34 Z M424.17,101.99" fill="rgb(0,0,0)" transform="matrix(1,0,0,-1,0,200)"/>
</svg>