<?xml version="1.0" encoding="UTF-8"?>
<svg height="200" version="1.1" width="500" xmlns="http://www.w3.org/2000/svg" xmlns:xlink="http://www.w3.org/1999/xlink">
 <path d="M0,0 l500,0 l0,200 l-500,0 Z M0,0" fill="rgb(255,255,255)" transform="matrix(1,0,0,-1,0,200)"/>
 <path d="M181.86,85.11 l0.83,-5.05 c-1.61,-0.34,-3.05,-0.51,-4.32,-0.51 c-2.07,0,-3.68,0.33,-4.82,0.98 c-1.14,0.66,-1.95,1.52,-2.41,2.59 c-0.47,1.07,-0.7,3.32,-0.7,6.74 l0,19.39 l-4.19,0 l0,4.44 l4.19,0 l0,8.35 l5.68,3.43 l0,-11.77 l5.74,0 l0,-4.44 l-5.74,0 l0,-19.71 c0,-1.63,0.1,-2.68,0.3,-3.14 c0.2,-0.47,0.53,-0.84,0.98,-1.11 c0.45,-0.28,1.11,-0.41,1.95,-0.41 c0.63,0,1.47,0.07,2.51,0.22 Z M185.32,96.85 c0,6.24,1.74,10.87,5.21,13.87 c2.9,2.5,6.43,3.75,10.6,3.75 c4.63,0,8.42,-1.52,11.36,-4.55 c2.94,-3.04,4.41,-7.23,4.41,-12.58 c0,-4.34,-0.65,-7.75,-1.95,-10.24 c-1.3,-2.49,-3.19,-4.42,-5.68,-5.79 c-2.49,-1.38,-5.2,-2.06,-8.14,-2.06 c-4.72,0,-8.53,1.51,-11.44,4.54 c-2.91,3.03,-4.36,7.38,-4.36,13.08 Z M191.19,96.85 c0,-4.32,0.94,-7.55,2.82,-9.7 c1.88,-2.15,4.25,-3.22,7.11,-3.22 c2.84,0,5.19,1.08,7.08,3.24 c1.88,2.16,2.82,5.45,2.82,9.87 c0,4.17,-0.95,7.33,-2.84,9.47 c-1.89,2.15,-4.25,3.22,-7.06,3.22 c-2.86,0,-5.23,-1.07,-7.11,-3.21 c-1.88,-2.14,-2.82,-5.36,-2.82,-9.68 Z M236.07,85.11 l0.83,-5.05 c-1.61,-0.34,-3.05,-0.51,-4.32,-0.51 c-2.07,0,-3.68,0.33,-4.82,0.98 c-1.14,0.66,-1.95,1.52,-2.41,2.59 c-0.47,1.07,-0.7,3.32,-0.7,6.74 l0,19.39 l-4.19,0 l0,4.44 l4.19,0 l0,8.35 l5.68,3.43 l0,-11.77 l5.74,0 l0,-4.44 l-5.74,0 l0,-19.71 c0,-1.63,0.1,-2.68,0.3,-3.14 c0.2,-0.47,0.53,-0.84,0.98,-1.11 c0.45,-0.28,1.11,-0.41,1.95,-0.41 c0.63,0,1.47,0.07,2.51,0.22 Z M263.65,84.16 c-2.12,-1.8,-4.15,-3.07,-6.11,-3.81 c-1.96,-0.74,-4.06,-1.11,-6.3,-1.11 c-3.7,0,-6.55,0.9,-8.54,2.71 c-1.99,1.81,-2.98,4.12,-2.98,6.93 c0,1.65,0.38,3.16,1.13,4.52 c0.75,1.36,1.74,2.46,2.95,3.28 c1.22,0.83,2.59,1.45,4.11,1.87 c1.12,0.3,2.81,0.58,5.08,0.86 c4.61,0.55,8.01,1.21,10.19,1.97 c0.02,0.78,0.03,1.28,0.03,1.49 c0,2.33,-0.54,3.97,-1.62,4.92 c-1.46,1.29,-3.63,1.94,-6.51,1.94 c-2.69,0,-4.67,-0.47,-5.95,-1.41 c-1.28,-0.94,-2.23,-2.61,-2.84,-5.0 l-5.59,0.76 c0.51,2.39,1.34,4.32,2.51,5.79 c1.16,1.47,2.85,2.6,5.05,3.4 c2.2,0.79,4.75,1.19,7.65,1.19 c2.88,0,5.22,-0.34,7.01,-1.02 c1.8,-0.68,3.12,-1.53,3.97,-2.55 c0.85,-1.03,1.44,-2.32,1.78,-3.89 c0.19,-0.97,0.29,-2.73,0.29,-5.27 l0,-7.62 c0,-5.31,0.12,-8.67,0.36,-10.08 c0.24,-1.41,0.72,-2.76,1.44,-4.05 l-5.97,0 c-0.59,1.18,-0.97,2.57,-1.14,4.16 Z M263.17,96.92 c-2.07,-0.85,-5.18,-1.57,-9.33,-2.16 c-2.35,-0.34,-4.01,-0.72,-4.98,-1.14 c-0.97,-0.42,-1.72,-1.04,-2.25,-1.86 c-0.53,-0.81,-0.79,-1.72,-0.79,-2.71 c0,-1.52,0.58,-2.79,1.73,-3.81 c1.15,-1.02,2.84,-1.52,5.06,-1.52 c2.2,0,4.16,0.48,5.87,1.44 c1.71,0.96,2.97,2.28,3.78,3.95 c0.61,1.29,0.92,3.19,0.92,5.71 Z M277.68,80 l0,46.53 l5.71,0 l0,-46.53 Z M292.12,80 l0,46.53 l5.71,0 l0,-46.53 Z M306.43,67.02 l-0.63,5.36 c1.25,-0.34,2.34,-0.51,3.27,-0.51 c1.27,0,2.29,0.21,3.05,0.63 c0.76,0.42,1.39,1.02,1.87,1.78 c0.36,0.57,0.94,1.99,1.75,4.25 c0.11,0.32,0.28,0.78,0.51,1.4 l-12.79,33.77 l6.16,0 l7.01,-19.52 c0.91,-2.48,1.72,-5.08,2.44,-7.81 c0.66,2.62,1.44,5.18,2.35,7.68 l7.2,19.65 l5.71,0 l-12.82,-34.28 c-1.38,-3.7,-2.44,-6.25,-3.21,-7.65 c-1.02,-1.88,-2.18,-3.26,-3.49,-4.14 c-1.31,-0.88,-2.88,-1.32,-4.7,-1.32 c-1.1,0,-2.33,0.23,-3.68,0.7 Z M306.43,67.02" fill="rgb(0,0,0)" transform="matrix(1,0,0,-1,0,200)"/>
</svg>