<?xml version="1.0" encoding="UTF-8"?>
<svg height="200" version="1.1" width="500" xmlns="http://www.w3.org/2000/svg" xmlns:xlink="http://www.w3.org/1999/xlink">
 <path d="M0,0 l500,0 l0,200 l-500,0 Z M0,0" fill="rgb(255,255,255)" transform="matrix(1,0,0,-1,0,200)"/>
 <path d="M181.38,80.0 c8.72,1.1,14.03,7.93,12.44,18.85 c-1.28,9.58,-8.36,15.62,-16.29,15.62 c-5.67,0,-8.97,-3.48,-9.82,-5.31 l-2.87,19.52 l-7.44,-0.43 l4.94,-35.32 c0.67,-4.76,3.97,-9.33,8.97,-11.65 l-2.87,21.17 c0.73,2.75,3.48,5.8,7.14,5.8 c5.92,0,10.06,-5.0,10.8,-10.25 c0.79,-5.67,-1.22,-10.06,-5.55,-11.35 Z M201.26,93.84 l7.5,0 l-1.28,8.72 c0.98,3.17,2.87,5.25,6.04,5.25 c1.83,0,3.05,-0.91,3.78,-1.77 l1.16,7.38 c-1.1,0.67,-2.5,1.04,-3.84,1.04 c-4.51,0,-6.83,-2.07,-7.99,-4.64 l-0.67,3.84 l-7.5,0 Z M249.33,80.42 c8.05,1.89,12.26,8.97,11.1,17.26 c-1.04,7.56,-7.02,14.21,-15.43,16.29 l0.61,-7.2 c3.9,-1.83,6.77,-5.73,7.38,-10.07 c0.61,-4.15,-0.79,-7.75,-4.27,-9.39 Z M239.45,80.3 l-0.61,7.2 c-3.9,1.71,-6.71,5.49,-7.38,10.07 c-0.55,3.96,0.91,7.56,4.27,9.39 l-0.61,6.83 c-7.75,-2.07,-12.14,-9.15,-11.04,-17.08 c1.16,-7.99,6.83,-14.52,15.37,-16.41 Z M269.09,93.84 l2.32,10.8 l-3.72,9.03 l-7.69,0 Z M275.38,80.67 l6.34,0 l4.45,22.51 l10.43,-22.51 l7.26,0 l-15.31,33.0 l-7.14,0 Z M306.18,93.9 l3.6,19.76 l-7.5,0 l-1.16,-8.3 Z M316.92,93.84 l7.56,0 l-1.22,7.87 c1.59,3.23,4.21,5.49,7.81,5.49 c3.29,0,6.34,-2.56,6.89,-6.28 l2.81,-20.25 l7.5,0 l-2.87,20.74 c-1.28,9.03,-5.49,13.05,-12.99,13.05 c-5.19,0,-8.6,-3.23,-9.94,-5.49 l-0.79,4.7 l-7.56,0 Z M316.92,93.84" fill="rgb(0,0,0)" transform="matrix(1,0,0,-1,0,200)"/>
</svg>