<?xml version="1.0" encoding="UTF-8"?>
<svg height="200" version="1.1" width="500" xmlns="http://www.w3.org/2000/svg" xmlns:xlink="http://www.w3.org/1999/xlink">
 <path d="M0,0 l500,0 l0,200 l-500,0 Z M0,0" fill="rgb(255,255,255)" transform="matrix(1,0,0,-1,0,200)"/>
 <path d="M155.63,80.0 c8.72,1.1,14.03,7.93,12.44,18.85 c-1.28,9.58,-8.36,15.62,-16.29,15.62 c-5.67,0,-8.97,-3.48,-9.82,-5.31 l-2.87,19.52 l-7.44,-0.43 l4.94,-35.32 c0.67,-4.76,3.97,-9.33,8.97,-11.65 l-2.87,21.17 c0.73,2.75,3.48,5.8,7.14,5.8 c5.92,0,10.06,-5.0,10.8,-10.25 c0.79,-5.67,-1.22,-10.06,-5.55,-11.35 Z M189.06,79.81 l-0.55,6.71 c-2.44,0.49,-4.82,2.38,-5.25,5.73 l-3.05,21.41 l-7.5,0 l3.11,-21.9 c1.16,-8.54,6.89,-11.9,13.24,-11.96 Z M201.2,79.63 l6.34,2.68 c-0.98,1.46,-1.71,3.9,-2.13,6.89 l-3.48,24.46 l-7.56,0 l4.15,-29.46 c0.49,-2.26,1.95,-3.84,2.68,-4.58 Z M214.13,120.19 c2.99,0,4.39,2.38,4.03,4.7 c-0.24,2.01,-2.01,3.9,-4.45,3.9 c-2.93,0,-4.51,-2.38,-4.21,-4.76 c0.31,-1.95,1.95,-3.84,4.64,-3.84 Z M216.14,80.67 l7.56,0 l-4.64,33.18 l-7.5,-0.49 Z M232.61,80.67 l7.56,0 l-6.71,48.01 l-7.5,-0.43 Z M262.99,79.81 l-0.49,6.28 c-4.88,0.55,-9.52,4.88,-10.43,11.28 c-0.98,6.71,2.62,11.1,8.05,11.1 c4.7,0,8.05,-2.93,9.64,-5.55 l2.68,-18.91 c0.37,-2.14,2.07,-3.66,2.99,-4.33 l5.98,2.62 c-0.98,1.46,-1.71,3.9,-2.14,6.89 l-5.55,39.47 l-7.44,-0.43 l2.56,-17.57 c-1.59,1.71,-4.7,3.78,-9.76,3.78 c-9.52,0,-15.8,-7.87,-14.4,-17.93 c1.4,-9.88,8.48,-16.71,18.3,-16.71 Z M288.0,120.19 c2.99,0,4.39,2.38,4.03,4.7 c-0.24,2.01,-2.01,3.9,-4.45,3.9 c-2.93,0,-4.51,-2.38,-4.21,-4.76 c0.31,-1.95,1.95,-3.84,4.64,-3.84 Z M290.02,80.67 l7.56,0 l-4.64,33.18 l-7.5,-0.49 Z M304.05,93.84 l7.56,0 l-1.22,7.87 c1.59,3.23,4.21,5.49,7.81,5.49 c3.29,0,6.34,-2.56,6.89,-6.28 l2.81,-20.25 l7.5,0 l-2.87,20.74 c-1.28,9.03,-5.49,13.05,-12.99,13.05 c-5.19,0,-8.6,-3.23,-9.94,-5.49 l-0.79,4.7 l-7.56,0 Z M360.17,92.01 c6.59,1.1,10.0,5.61,9.21,11.41 c-0.24,1.65,-1.04,3.42,-2.07,4.39 c0.67,0.85,2.01,1.22,3.78,1.22 l-0.37,5.43 c-3.42,0,-5.49,-1.46,-6.59,-2.93 c-1.83,1.4,-3.9,2.32,-6.71,2.75 l0.49,-6.22 c2.44,-0.85,4.33,-2.93,4.7,-5.49 c0.31,-2.14,-0.61,-3.72,-2.87,-4.58 Z M342.42,89.45 c0.67,-4.58,7.32,-7.87,15.37,-7.38 c4.27,0.24,7.14,-0.49,8.78,-1.53 l8.6,0.31 c-1.95,4.57,-6.83,7.38,-15.13,7.01 c-6.65,-0.24,-10.86,1.04,-11.22,3.6 c-0.06,0.79,0.24,1.65,0.55,1.83 c1.1,-0.61,2.5,-1.04,4.21,-1.34 l-0.49,6.16 c-2.44,0.92,-4.33,2.87,-4.7,5.31 c-0.31,2.2,0.79,3.84,2.93,4.7 l-0.49,5.98 c-5.98,-1.16,-10.19,-5.61,-9.33,-11.53 c0.49,-3.6,2.68,-5.8,4.09,-6.83 c-1.34,-0.55,-3.6,-2.99,-3.17,-6.28 Z M343.82,77.56 c0.92,-6.65,7.08,-10.86,17.63,-10.86 c7.26,0,12.44,2.44,14.03,6.71 l-14.4,-0.18 c-6.65,0,-9.82,2.32,-10.31,4.27 l-6.89,2.01 c-0.12,-0.55,-0.18,-1.22,-0.06,-1.95 Z M343.82,77.56" fill="rgb(0,0,0)" transform="matrix(1,0,0,-1,0,200)"/>
</svg>