<?xml version="1.0" encoding="UTF-8"?>
<svg height="200" version="1.1" width="500" xmlns="http://www.w3.org/2000/svg" xmlns:xlink="http://www.w3.org/1999/xlink">
 <path d="M0,0 l500,0 l0,200 l-500,0 Z M0,0" fill="rgb(255,255,255)" transform="matrix(1,0,0,-1,0,200)"/>
 <path d="M168.29,67.49 l7.56,0 l-4.94,34.59 c0.73,2.56,3.42,6.1,7.93,6.1 c6.1,0,10.43,-4.45,11.41,-11.1 c0.61,-4.76,-1.04,-10.31,-6.95,-10.92 l0.49,-6.34 c9.58,0.18,15.31,7.75,13.79,18.24 c-1.28,9.09,-7.62,16.41,-17.32,16.41 c-5.12,0,-8.6,-2.93,-10.19,-5.67 l-0.79,4.88 l-7.5,0 Z M220.99,79.93 l-0.49,6.16 c-5.25,0.67,-9.7,5.67,-10.55,11.59 c-0.91,6.41,2.68,10.74,8.17,10.74 c4.7,0,8.11,-2.87,9.64,-5.49 l2.62,-18.54 c1.22,-3.36,4.82,-4.45,7.02,-4.45 c3.42,0,5.49,1.46,6.22,3.11 l-2.32,3.72 c-0.18,-0.37,-0.67,-0.49,-1.22,-0.49 c-1.77,0,-2.62,1.71,-3.05,4.45 l-3.29,22.94 l-7.32,0 l0.55,-3.96 c-1.28,1.83,-4.94,4.76,-9.94,4.76 c-9.45,0,-15.8,-7.5,-14.4,-17.51 c1.28,-9.27,9.21,-16.77,18.36,-17.02 Z M247.71,93.84 l7.5,0 l-1.28,8.72 c0.98,3.17,2.87,5.25,6.04,5.25 c1.83,0,3.05,-0.91,3.78,-1.77 l1.16,7.38 c-1.1,0.67,-2.5,1.04,-3.84,1.04 c-4.51,0,-6.83,-2.07,-7.99,-4.64 l-0.67,3.84 l-7.5,0 Z M269.92,107.32 l21.17,0 l-0.91,6.34 l-8.42,0 l-1.4,10.07 l-7.5,-0.43 l1.34,-9.64 l-5.19,0 Z M289.25,79.81 c3.66,0,6.22,1.34,7.5,2.87 l-2.44,5.55 c-0.91,-1.04,-2.26,-1.53,-4.15,-1.53 c-2.62,0,-4.88,1.95,-5.37,5.25 l-0.24,1.89 l-7.56,0 l0.3,-2.38 c1.22,-8.3,5.43,-11.65,11.96,-11.65 Z M303.22,80.67 l7.56,0 l-6.71,48.01 l-7.5,-0.43 Z M324.33,93.84 l2.32,9.03 l-6.65,10.8 l-8.3,0 Z M322.32,66.82 c7.81,0,12.87,5.37,15.49,16.04 l7.69,30.8 l-7.93,0 l-7.08,-29.34 c-1.95,-7.69,-6.1,-11.22,-10.55,-11.22 c-1.52,0,-2.5,0.37,-3.11,0.67 l2.87,-6.41 c0.43,-0.24,1.65,-0.55,2.62,-0.55 Z M322.32,66.82" fill="rgb(0,0,0)" transform="matrix(1,0,0,-1,0,200)"/>
</svg>