<?xml version="1.0" encoding="UTF-8"?>
<svg height="200" version="1.1" width="500" xmlns="http://www.w3.org/2000/svg" xmlns:xlink="http://www.w3.org/1999/xlink">
 <path d="M0,0 l500,0 l0,200 l-500,0 Z M0,0" fill="rgb(255,255,255)" transform="matrix(1,0,0,-1,0,200)"/>
 <path d="M177.9,93.84 l7.5,0 l-1.28,8.72 c0.98,3.17,2.87,5.25,6.04,5.25 c1.83,0,3.05,-0.91,3.78,-1.77 l1.16,7.38 c-1.1,0.67,-2.5,1.04,-3.84,1.04 c-4.51,0,-6.83,-2.07,-7.99,-4.64 l-0.67,3.84 l-7.5,0 Z M217.37,114.34 l0.49,-6.28 c3.9,-0.79,6.95,-3.78,7.5,-7.93 l-6.22,0.24 l0.79,-5.73 l12.75,0.18 c0.18,0.85,0.24,2.81,0.06,4.45 c-1.04,7.32,-6.16,14.09,-15.37,15.07 Z M200.77,96.4 c1.4,-10.13,9.15,-16.59,19.82,-16.59 c6.34,0,11.28,1.59,13.72,3.72 l-2.32,5.73 c-2.2,-1.95,-6.41,-2.93,-11.04,-2.93 c-5.55,0,-11.04,3.11,-12.02,8.54 l-2.26,17.26 c-4.76,-3.05,-6.89,-8.97,-5.92,-15.74 Z M242.01,80.67 l7.56,0 l-6.71,48.01 l-7.5,-0.43 Z M256.34,120.19 c2.99,0,4.39,2.38,4.03,4.7 c-0.24,2.01,-2.01,3.9,-4.45,3.9 c-2.93,0,-4.51,-2.38,-4.21,-4.76 c0.31,-1.95,1.95,-3.84,4.64,-3.84 Z M258.36,80.67 l7.56,0 l-4.64,33.18 l-7.5,-0.49 Z M287.39,114.34 l0.49,-6.28 c3.9,-0.79,6.95,-3.78,7.5,-7.93 l-6.22,0.24 l0.79,-5.73 l12.75,0.18 c0.18,0.85,0.24,2.81,0.06,4.45 c-1.04,7.32,-6.16,14.09,-15.37,15.07 Z M270.8,96.4 c1.4,-10.13,9.15,-16.59,19.83,-16.59 c6.34,0,11.28,1.59,13.72,3.72 l-2.32,5.73 c-2.2,-1.95,-6.41,-2.93,-11.04,-2.93 c-5.55,0,-11.04,3.11,-12.02,8.54 l-2.26,17.26 c-4.76,-3.05,-6.89,-8.97,-5.92,-15.74 Z M308.13,107.38 l21.47,0 l-0.91,6.28 l-8.78,0 l-0.49,3.54 c-0.55,4.03,0.85,5.49,2.99,5.49 c2.44,0,3.84,-0.67,4.64,-1.16 l0.91,5.92 c-1.4,0.98,-3.54,1.71,-6.53,1.71 c-6.4,0,-10.55,-4.15,-9.45,-12.44 l0.43,-3.05 l-5.19,0 Z M315.88,66.82 c6.4,0,9.82,5.37,8.54,14.27 l-1.77,12.75 l-7.44,0 l1.95,-13.73 c0.43,-3.42,-0.92,-6.1,-4.03,-6.1 c-1.1,0,-2.32,0.24,-3.11,0.67 l3.35,-7.26 c0.43,-0.24,1.65,-0.61,2.5,-0.61 Z M315.88,66.82" fill="rgb(0,0,0)" transform="matrix(1,0,0,-1,0,200)"/>
</svg>