<?xml version="1.0" encoding="UTF-8"?>
<svg height="200" version="1.1" width="500" xmlns="http://www.w3.org/2000/svg" xmlns:xlink="http://www.w3.org/1999/xlink">
 <path d="M0,0 l500,0 l0,200 l-500,0 Z M0,0" fill="rgb(255,255,255)" transform="matrix(1,0,0,-1,0,200)"/>
 <path d="M182.08,95.61 l-1.1,9.15 c-0.31,2.2,2.56,3.6,6.47,3.6 c4.82,0,9.21,-2.38,10.19,-3.66 l1.22,6.04 c-0.79,0.79,-5.0,3.72,-11.47,3.72 c-8.23,0,-14.76,-4.15,-13.85,-10.74 c0.67,-4.64,4.15,-6.83,8.54,-8.11 Z M197.51,80.91 c4.64,1.59,6.89,5.12,6.1,10.55 c-0.73,5.31,-4.7,7.26,-11.96,8.84 l0.61,-7.02 c2.32,-0.73,3.97,-1.89,4.15,-3.35 Z M187.75,79.87 l-0.49,6.41 c-4.94,0.49,-9.33,2.81,-10.8,4.33 l-0.18,-7.26 c1.53,-1.04,5.25,-3.11,11.47,-3.48 Z M225.14,107.87 c3.72,0,7.01,-1.22,8.84,-2.75 l1.53,6.77 c-2.93,1.65,-6.83,2.56,-10.92,2.56 Z M208.37,96.71 c1.28,-9.03,9.09,-16.9,20.5,-16.9 c5.49,0,8.91,1.53,11.28,3.36 l-2.68,6.22 c-1.28,-1.89,-4.51,-3.05,-8.72,-3.05 c-7.26,0,-12.14,5.37,-12.93,11.04 l-1.77,13.85 c-4.39,-3.17,-6.47,-8.6,-5.67,-14.52 Z M261.62,79.93 l-0.49,6.16 c-5.25,0.67,-9.7,5.67,-10.55,11.59 c-0.91,6.41,2.68,10.74,8.17,10.74 c4.7,0,8.11,-2.87,9.64,-5.49 l2.62,-18.54 c1.22,-3.36,4.82,-4.45,7.01,-4.45 c3.42,0,5.49,1.46,6.22,3.11 l-2.32,3.72 c-0.18,-0.37,-0.67,-0.49,-1.22,-0.49 c-1.77,0,-2.62,1.71,-3.05,4.45 l-3.29,22.94 l-7.32,0 l0.55,-3.96 c-1.28,1.83,-4.94,4.76,-9.94,4.76 c-9.45,0,-15.8,-7.5,-14.4,-17.51 c1.28,-9.27,9.21,-16.77,18.36,-17.02 Z M290.17,80.67 l7.56,0 l-6.71,48.01 l-7.5,-0.43 Z M318.84,114.34 l0.49,-6.28 c3.9,-0.79,6.95,-3.78,7.5,-7.93 l-6.22,0.24 l0.79,-5.73 l12.75,0.18 c0.18,0.85,0.24,2.81,0.06,4.45 c-1.04,7.32,-6.16,14.09,-15.37,15.07 Z M302.25,96.4 c1.4,-10.13,9.15,-16.59,19.83,-16.59 c6.34,0,11.28,1.59,13.72,3.72 l-2.32,5.73 c-2.2,-1.95,-6.41,-2.93,-11.04,-2.93 c-5.55,0,-11.04,3.11,-12.02,8.54 l-2.26,17.26 c-4.76,-3.05,-6.89,-8.97,-5.92,-15.74 Z M302.25,96.4" fill="rgb(0,0,0)" transform="matrix(1,0,0,-1,0,200)"/>
</svg>