<?xml version="1.0" encoding="UTF-8"?>
<svg height="200" version="1.1" width="500" xmlns="http://www.w3.org/2000/svg" xmlns:xlink="http://www.w3.org/1999/xlink">
 <path d="M0,0 l500,0 l0,200 l-500,0 Z M0,0" fill="rgb(255,255,255)" transform="matrix(1,0,0,-1,0,200)"/>
 <path d="M152.92,93.84 l2.32,10.8 l-3.72,9.03 l-7.69,0 Z M159.2,80.67 l6.34,0 l4.45,22.51 l10.43,-22.51 l7.26,0 l-15.31,33.0 l-7.14,0 Z M190.01,93.9 l3.6,19.76 l-7.5,0 l-1.16,-8.3 Z M201.41,120.19 c2.99,0,4.39,2.38,4.03,4.7 c-0.24,2.01,-2.01,3.9,-4.45,3.9 c-2.93,0,-4.51,-2.38,-4.21,-4.76 c0.31,-1.95,1.95,-3.84,4.64,-3.84 Z M203.43,80.67 l7.56,0 l-4.64,33.18 l-7.5,-0.49 Z M223.98,95.61 l-1.1,9.15 c-0.31,2.2,2.56,3.6,6.47,3.6 c4.82,0,9.21,-2.38,10.19,-3.66 l1.22,6.04 c-0.79,0.79,-5.0,3.72,-11.47,3.72 c-8.23,0,-14.76,-4.15,-13.85,-10.74 c0.67,-4.64,4.15,-6.83,8.54,-8.11 Z M239.42,80.91 c4.64,1.59,6.89,5.12,6.1,10.55 c-0.73,5.31,-4.7,7.26,-11.96,8.84 l0.61,-7.02 c2.32,-0.73,3.97,-1.89,4.15,-3.35 Z M229.66,79.87 l-0.49,6.41 c-4.94,0.49,-9.33,2.81,-10.8,4.33 l-0.18,-7.26 c1.53,-1.04,5.25,-3.11,11.47,-3.48 Z M254.36,80.67 l7.56,0 l-3.05,21.05 c1.28,3.23,4.09,5.49,7.75,5.49 c3.9,0,6.34,-2.87,6.77,-6.16 l1.04,-7.2 l7.44,0 l-1.1,7.69 c-1.1,8.17,-5.55,12.93,-12.69,12.93 c-5.31,0,-8.66,-3.11,-10.0,-5.43 l-2.87,19.64 l-7.5,-0.43 Z M303.59,114.34 l0.49,-6.28 c3.9,-0.79,6.95,-3.78,7.5,-7.93 l-6.22,0.24 l0.79,-5.73 l12.75,0.18 c0.18,0.85,0.24,2.81,0.06,4.45 c-1.04,7.32,-6.16,14.09,-15.37,15.07 Z M287.0,96.4 c1.4,-10.13,9.15,-16.59,19.83,-16.59 c6.34,0,11.28,1.59,13.72,3.72 l-2.32,5.73 c-2.2,-1.95,-6.41,-2.93,-11.04,-2.93 c-5.55,0,-11.04,3.11,-12.02,8.54 l-2.26,17.26 c-4.76,-3.05,-6.89,-8.97,-5.92,-15.74 Z M342.51,79.81 l-0.49,6.28 c-4.88,0.55,-9.52,4.88,-10.43,11.28 c-0.98,6.71,2.62,11.1,8.05,11.1 c4.7,0,8.05,-2.93,9.64,-5.55 l2.68,-18.91 c0.37,-2.14,2.07,-3.66,2.99,-4.33 l5.98,2.62 c-0.98,1.46,-1.71,3.9,-2.13,6.89 l-5.55,39.47 l-7.44,-0.43 l2.56,-17.57 c-1.59,1.71,-4.7,3.78,-9.76,3.78 c-9.52,0,-15.8,-7.87,-14.4,-17.93 c1.4,-9.88,8.48,-16.71,18.3,-16.71 Z M342.51,79.81" fill="rgb(0,0,0)" transform="matrix(1,0,0,-1,0,200)"/>
</svg>