<?xml version="1.0" encoding="UTF-8"?>
<svg height="200" version="1.1" width="800" xmlns="http://www.w3.org/2000/svg" xmlns:xlink="http://www.w3.org/1999/xlink">
 <path d="M0,0 l800,0 l0,200 l-800,0 Z M0,0" fill="rgb(255,255,255)" transform="matrix(1,0,0,-1,0,200)"/>
 <path d="M289.36,111.18 l10.52,0 l0,-0.9 l-0.68,0 c-0.63,0,-1.12,-0.15,-1.45,-0.46 c-0.33,-0.31,-0.5,-0.72,-0.5,-1.25 c0,-0.57,0.17,-1.25,0.51,-2.03 l5.2,-12.35 l5.22,12.82 c0.37,0.91,0.56,1.6,0.56,2.08 c0,0.23,-0.07,0.42,-0.2,0.56 c-0.18,0.24,-0.41,0.41,-0.68,0.5 c-0.28,0.09,-0.84,0.13,-1.68,0.13 l0,0.9 l7.3,0 l0,-0.9 c-0.85,-0.07,-1.43,-0.24,-1.76,-0.51 c-0.57,-0.49,-1.08,-1.3,-1.54,-2.44 l-7.93,-19.19 l-1.0,0 l-7.98,18.87 c-0.36,0.88,-0.7,1.51,-1.03,1.89 c-0.33,0.38,-0.74,0.7,-1.25,0.96 c-0.28,0.15,-0.82,0.28,-1.64,0.42 Z M326.44,111.84 c3.39,0,6.1,-1.29,8.15,-3.86 c1.74,-2.2,2.61,-4.72,2.61,-7.57 c0,-2.0,-0.48,-4.03,-1.44,-6.08 c-0.96,-2.05,-2.28,-3.6,-3.97,-4.64 c-1.68,-1.04,-3.56,-1.56,-5.63,-1.56 c-3.37,0,-6.05,1.34,-8.03,4.03 c-1.68,2.26,-2.51,4.8,-2.51,7.62 c0,2.05,0.51,4.09,1.53,6.12 c1.02,2.03,2.36,3.52,4.02,4.49 c1.66,0.97,3.42,1.45,5.27,1.45 Z M325.68,110.25 c-0.86,0,-1.73,-0.26,-2.6,-0.77 c-0.87,-0.51,-1.57,-1.41,-2.11,-2.7 c-0.54,-1.29,-0.81,-2.94,-0.81,-4.96 c0,-3.26,0.65,-6.06,1.94,-8.42 c1.29,-2.36,3.0,-3.54,5.11,-3.54 c1.58,0,2.88,0.65,3.91,1.95 c1.03,1.3,1.54,3.54,1.54,6.71 c0,3.97,-0.85,7.1,-2.56,9.38 c-1.16,1.56,-2.63,2.34,-4.42,2.34 Z M359.5,97.31 c-0.6,-2.95,-1.78,-5.21,-3.54,-6.8 c-1.76,-1.59,-3.7,-2.38,-5.83,-2.38 c-2.54,0,-4.75,1.07,-6.64,3.2 c-1.89,2.13,-2.83,5.01,-2.83,8.64 c0,3.52,1.05,6.37,3.14,8.57 c2.09,2.2,4.6,3.3,7.53,3.3 c2.2,0,4.0,-0.58,5.42,-1.75 c1.42,-1.16,2.12,-2.37,2.12,-3.63 c0,-0.62,-0.2,-1.12,-0.6,-1.5 c-0.4,-0.38,-0.96,-0.57,-1.67,-0.57 c-0.96,0,-1.68,0.31,-2.17,0.93 c-0.28,0.34,-0.46,0.99,-0.55,1.95 c-0.09,0.96,-0.42,1.69,-0.99,2.2 c-0.57,0.49,-1.36,0.73,-2.37,0.73 c-1.63,0,-2.94,-0.6,-3.93,-1.81 c-1.32,-1.6,-1.98,-3.7,-1.98,-6.32 c0,-2.67,0.66,-5.03,1.97,-7.07 c1.31,-2.04,3.08,-3.06,5.31,-3.06 c1.6,0,3.03,0.55,4.3,1.64 c0.9,0.75,1.77,2.11,2.61,4.08 Z M375.37,92.04 c-2.29,-1.77,-3.74,-2.8,-4.32,-3.08 c-0.88,-0.41,-1.81,-0.61,-2.81,-0.61 c-1.55,0,-2.82,0.53,-3.82,1.59 c-1.0,1.06,-1.5,2.45,-1.5,4.17 c0,1.09,0.24,2.03,0.73,2.83 c0.67,1.11,1.83,2.15,3.48,3.12 c1.65,0.98,4.4,2.16,8.24,3.56 l0,0.88 c0,2.23,-0.35,3.76,-1.06,4.59 c-0.71,0.83,-1.74,1.25,-3.09,1.25 c-1.03,0,-1.84,-0.28,-2.44,-0.83 c-0.62,-0.55,-0.93,-1.19,-0.93,-1.9 l0.05,-1.42 c0,-0.75,-0.19,-1.33,-0.57,-1.73 c-0.38,-0.41,-0.88,-0.61,-1.5,-0.61 c-0.6,0,-1.09,0.21,-1.48,0.63 c-0.38,0.42,-0.57,1.0,-0.57,1.73 c0,1.4,0.72,2.69,2.15,3.86 c1.43,1.17,3.44,1.76,6.03,1.76 c1.99,0,3.61,-0.33,4.88,-1.0 c0.96,-0.5,1.67,-1.29,2.12,-2.37 c0.29,-0.7,0.44,-2.13,0.44,-4.3 l0,-7.59 c0,-2.13,0.04,-3.44,0.12,-3.92 c0.08,-0.48,0.22,-0.8,0.4,-0.96 c0.19,-0.16,0.4,-0.24,0.65,-0.24 c0.26,0,0.49,0.06,0.68,0.17 c0.34,0.21,1.0,0.81,1.98,1.78 l0,-1.37 c-1.82,-2.44,-3.56,-3.66,-5.22,-3.66 c-0.8,0,-1.43,0.28,-1.9,0.83 c-0.47,0.55,-0.72,1.5,-0.73,2.83 Z M375.37,93.63 l0,8.52 c-2.46,-0.98,-4.04,-1.67,-4.76,-2.08 c-1.29,-0.72,-2.21,-1.46,-2.76,-2.25 c-0.55,-0.78,-0.83,-1.64,-0.83,-2.56 c0,-1.17,0.35,-2.14,1.05,-2.92 c0.7,-0.77,1.51,-1.16,2.42,-1.16 c1.24,0,2.86,0.81,4.88,2.44 Z M391.02,107.32 c2.16,3.01,4.5,4.52,7.01,4.52 c2.29,0,4.3,-0.98,6.01,-2.94 c1.71,-1.96,2.56,-4.64,2.56,-8.04 c0,-3.97,-1.32,-7.17,-3.96,-9.59 c-2.26,-2.08,-4.79,-3.12,-7.57,-3.12 c-1.3,0,-2.62,0.24,-3.97,0.71 c-1.34,0.47,-2.71,1.18,-4.11,2.12 l0,23.17 c0,2.54,-0.06,4.1,-0.18,4.69 c-0.12,0.59,-0.31,0.98,-0.57,1.2 c-0.26,0.21,-0.59,0.32,-0.98,0.32 c-0.46,0,-1.03,-0.13,-1.71,-0.39 l-0.34,0.85 l6.71,2.73 l1.1,0 Z M391.02,105.76 l0,-13.38 c0.83,-0.81,1.69,-1.43,2.58,-1.84 c0.89,-0.42,1.79,-0.62,2.72,-0.62 c1.48,0,2.86,0.81,4.14,2.44 c1.28,1.63,1.92,4.0,1.92,7.1 c0,2.86,-0.64,5.07,-1.92,6.6 c-1.28,1.54,-2.73,2.31,-4.36,2.31 c-0.86,0,-1.73,-0.22,-2.59,-0.66 c-0.65,-0.33,-1.48,-0.98,-2.49,-1.95 Z M429.49,111.18 l0,-13.55 c0,-2.59,0.06,-4.17,0.18,-4.75 c0.12,-0.58,0.32,-0.98,0.59,-1.21 c0.27,-0.23,0.58,-0.34,0.94,-0.34 c0.5,0,1.07,0.14,1.71,0.42 l0.34,-0.85 l-6.69,-2.76 l-1.1,0 l0,4.74 c-1.92,-2.08,-3.39,-3.39,-4.39,-3.93 c-1.01,-0.54,-2.08,-0.81,-3.2,-0.81 c-1.25,0,-2.34,0.36,-3.26,1.09 c-0.92,0.72,-1.56,1.66,-1.92,2.8 c-0.36,1.14,-0.54,2.75,-0.54,4.83 l0,9.99 c0,1.06,-0.11,1.79,-0.34,2.2 c-0.23,0.41,-0.57,0.72,-1.01,0.94 c-0.45,0.22,-1.26,0.32,-2.43,0.31 l0,0.9 l7.84,0 l0,-14.97 c0,-2.08,0.36,-3.45,1.09,-4.1 c0.72,-0.65,1.6,-0.98,2.62,-0.98 c0.7,0,1.49,0.22,2.38,0.66 c0.89,0.44,1.94,1.28,3.16,2.51 l0,12.67 c0,1.27,-0.23,2.13,-0.7,2.58 c-0.46,0.45,-1.43,0.69,-2.89,0.72 l0,0.9 Z M442.58,123.54 l0,-29.66 c0,-1.4,0.1,-2.33,0.31,-2.78 c0.2,-0.46,0.52,-0.8,0.94,-1.04 c0.42,-0.24,1.21,-0.35,2.37,-0.35 l0,-0.88 l-10.96,0 l0,0.88 c1.03,0,1.73,0.11,2.1,0.32 c0.37,0.21,0.67,0.56,0.88,1.05 c0.21,0.49,0.32,1.42,0.32,2.81 l0,20.31 c0,2.52,-0.06,4.07,-0.17,4.65 c-0.11,0.58,-0.3,0.97,-0.55,1.18 c-0.25,0.21,-0.57,0.32,-0.96,0.32 c-0.42,0,-0.96,-0.13,-1.61,-0.39 l-0.42,0.85 l6.67,2.73 Z M461.45,92.04 c-2.29,-1.77,-3.74,-2.8,-4.32,-3.08 c-0.88,-0.41,-1.81,-0.61,-2.81,-0.61 c-1.55,0,-2.82,0.53,-3.82,1.59 c-1.0,1.06,-1.5,2.45,-1.5,4.17 c0,1.09,0.24,2.03,0.73,2.83 c0.67,1.11,1.83,2.15,3.48,3.12 c1.65,0.98,4.4,2.16,8.24,3.56 l0,0.88 c0,2.23,-0.35,3.76,-1.06,4.59 c-0.71,0.83,-1.74,1.25,-3.09,1.25 c-1.03,0,-1.84,-0.28,-2.44,-0.83 c-0.62,-0.55,-0.93,-1.19,-0.93,-1.9 l0.05,-1.42 c0,-0.75,-0.19,-1.33,-0.57,-1.73 c-0.38,-0.41,-0.88,-0.61,-1.5,-0.61 c-0.6,0,-1.09,0.21,-1.48,0.63 c-0.38,0.42,-0.57,1.0,-0.57,1.73 c0,1.4,0.72,2.69,2.15,3.86 c1.43,1.17,3.44,1.76,6.03,1.76 c1.99,0,3.61,-0.33,4.88,-1.0 c0.96,-0.5,1.67,-1.29,2.12,-2.37 c0.29,-0.7,0.44,-2.13,0.44,-4.3 l0,-7.59 c0,-2.13,0.04,-3.44,0.12,-3.92 c0.08,-0.48,0.22,-0.8,0.4,-0.96 c0.19,-0.16,0.4,-0.24,0.65,-0.24 c0.26,0,0.49,0.06,0.68,0.17 c0.34,0.21,1.0,0.81,1.98,1.78 l0,-1.37 c-1.82,-2.44,-3.56,-3.66,-5.22,-3.66 c-0.8,0,-1.43,0.28,-1.9,0.83 c-0.47,0.55,-0.72,1.5,-0.73,2.83 Z M461.45,93.63 l0,8.52 c-2.46,-0.98,-4.04,-1.67,-4.76,-2.08 c-1.29,-0.72,-2.21,-1.46,-2.76,-2.25 c-0.55,-0.78,-0.83,-1.64,-0.83,-2.56 c0,-1.17,0.35,-2.14,1.05,-2.92 c0.7,-0.77,1.51,-1.16,2.42,-1.16 c1.24,0,2.86,0.81,4.88,2.44 Z M477.51,111.84 l0,-5.03 c1.87,3.35,3.79,5.03,5.76,5.03 c0.9,0,1.64,-0.27,2.22,-0.82 c0.59,-0.55,0.88,-1.18,0.88,-1.89 c0,-0.63,-0.21,-1.17,-0.63,-1.61 c-0.42,-0.44,-0.93,-0.66,-1.51,-0.66 c-0.57,0,-1.21,0.28,-1.92,0.84 c-0.71,0.56,-1.23,0.84,-1.57,0.84 c-0.29,0,-0.61,-0.16,-0.95,-0.49 c-0.73,-0.67,-1.49,-1.77,-2.27,-3.3 l0,-10.72 c0,-1.24,0.15,-2.17,0.46,-2.81 c0.21,-0.44,0.59,-0.81,1.12,-1.1 c0.54,-0.29,1.31,-0.44,2.32,-0.44 l0,-0.88 l-11.45,0 l0,0.88 c1.14,0,1.99,0.18,2.54,0.54 c0.41,0.26,0.69,0.68,0.85,1.25 c0.08,0.28,0.12,1.07,0.12,2.37 l0,8.67 c0,2.6,-0.05,4.15,-0.16,4.65 c-0.11,0.5,-0.3,0.86,-0.59,1.09 c-0.28,0.23,-0.64,0.34,-1.06,0.34 c-0.5,0,-1.07,-0.12,-1.71,-0.37 l-0.24,0.88 l6.76,2.73 Z M486.35,111.18 l10.42,0 l0,-0.9 l-0.51,0 c-0.73,0,-1.28,-0.16,-1.65,-0.48 c-0.37,-0.32,-0.55,-0.71,-0.55,-1.18 c0,-0.63,0.27,-1.51,0.81,-2.64 l5.44,-11.28 l5.0,12.35 c0.28,0.67,0.42,1.33,0.42,1.98 c0,0.29,-0.06,0.51,-0.17,0.66 c-0.13,0.18,-0.33,0.32,-0.61,0.43 c-0.28,0.11,-0.76,0.16,-1.46,0.16 l0,0.9 l7.28,0 l0,-0.9 c-0.6,-0.07,-1.07,-0.2,-1.39,-0.39 c-0.33,-0.2,-0.68,-0.56,-1.07,-1.1 c-0.15,-0.23,-0.42,-0.85,-0.83,-1.88 l-9.11,-22.31 c-0.88,-2.16,-2.03,-3.8,-3.45,-4.91 c-1.42,-1.11,-2.8,-1.66,-4.11,-1.66 c-0.96,0,-1.75,0.28,-2.37,0.83 c-0.62,0.55,-0.93,1.19,-0.93,1.9 c0,0.68,0.22,1.23,0.67,1.65 c0.45,0.42,1.06,0.62,1.84,0.62 c0.54,0,1.27,-0.18,2.2,-0.54 c0.65,-0.24,1.06,-0.37,1.22,-0.37 c0.49,0,1.02,0.25,1.6,0.76 c0.58,0.5,1.16,1.48,1.75,2.93 l1.59,3.88 l-8.03,16.87 c-0.24,0.5,-0.63,1.13,-1.17,1.88 c-0.41,0.57,-0.74,0.95,-1.0,1.15 c-0.37,0.26,-0.98,0.49,-1.81,0.68 Z M486.35,111.18" fill="rgb(0,0,0)" transform="matrix(1,0,0,-1,0,200)"/>
</svg>