<?xml version="1.0" encoding="UTF-8"?>
<svg height="200" version="1.1" width="800" xmlns="http://www.w3.org/2000/svg" xmlns:xlink="http://www.w3.org/1999/xlink">
 <path d="M0,0 l800,0 l0,200 l-800,0 Z M0,0" fill="rgb(255,255,255)" transform="matrix(1,0,0,-1,0,200)"/>
 <path d="M178.71,122.36 l21.04,0 l0,-1.81 l-1.37,0 c-1.27,0,-2.24,-0.31,-2.91,-0.93 c-0.67,-0.62,-1.0,-1.45,-1.0,-2.49 c0,-1.14,0.34,-2.49,1.03,-4.05 l10.4,-24.71 l10.45,25.63 c0.75,1.82,1.12,3.21,1.12,4.15 c0,0.46,-0.13,0.83,-0.39,1.12 c-0.36,0.49,-0.81,0.82,-1.37,1.0 c-0.55,0.18,-1.68,0.27,-3.37,0.27 l0,1.81 l14.6,0 l0,-1.81 c-1.69,-0.13,-2.86,-0.47,-3.52,-1.03 c-1.14,-0.98,-2.16,-2.6,-3.08,-4.88 l-15.87,-38.38 l-2.0,0 l-15.97,37.74 c-0.72,1.76,-1.4,3.02,-2.05,3.78 c-0.65,0.76,-1.48,1.41,-2.49,1.93 c-0.55,0.29,-1.64,0.57,-3.27,0.83 Z M252.88,123.68 c6.77,0,12.21,-2.57,16.31,-7.71 c3.48,-4.39,5.22,-9.44,5.22,-15.14 c0,-4.0,-0.96,-8.06,-2.88,-12.16 c-1.92,-4.1,-4.57,-7.19,-7.93,-9.28 c-3.37,-2.08,-7.12,-3.12,-11.25,-3.12 c-6.74,0,-12.09,2.69,-16.06,8.06 c-3.35,4.52,-5.03,9.6,-5.03,15.23 c0,4.1,1.02,8.18,3.05,12.23 c2.03,4.05,4.71,7.05,8.03,8.98 c3.32,1.94,6.84,2.91,10.55,2.91 Z M251.37,120.51 c-1.73,0,-3.46,-0.51,-5.2,-1.54 c-1.74,-1.03,-3.15,-2.82,-4.22,-5.4 c-1.07,-2.57,-1.61,-5.88,-1.61,-9.91 c0,-6.51,1.29,-12.13,3.88,-16.85 c2.59,-4.72,6.0,-7.08,10.23,-7.08 c3.16,0,5.76,1.3,7.81,3.91 c2.05,2.6,3.08,7.08,3.08,13.43 c0,7.94,-1.71,14.19,-5.13,18.75 c-2.31,3.13,-5.26,4.69,-8.84,4.69 Z M318.99,94.63 c-1.2,-5.89,-3.56,-10.42,-7.08,-13.6 c-3.52,-3.17,-7.41,-4.76,-11.67,-4.76 c-5.08,0,-9.51,2.13,-13.28,6.4 c-3.78,4.26,-5.66,10.03,-5.66,17.29 c0,7.03,2.09,12.74,6.27,17.14 c4.18,4.39,9.2,6.59,15.06,6.59 c4.39,0,8.01,-1.16,10.84,-3.49 c2.83,-2.33,4.25,-4.74,4.25,-7.25 c0,-1.24,-0.4,-2.24,-1.2,-3.0 c-0.8,-0.76,-1.91,-1.15,-3.34,-1.15 c-1.92,0,-3.37,0.62,-4.35,1.86 c-0.55,0.68,-0.92,1.99,-1.1,3.91 c-0.18,1.92,-0.84,3.39,-1.98,4.39 c-1.14,0.98,-2.72,1.46,-4.74,1.46 c-3.26,0,-5.88,-1.2,-7.86,-3.61 c-2.64,-3.19,-3.96,-7.41,-3.96,-12.65 c0,-5.34,1.31,-10.05,3.93,-14.14 c2.62,-4.09,6.16,-6.13,10.62,-6.13 c3.19,0,6.05,1.09,8.59,3.27 c1.79,1.5,3.53,4.22,5.22,8.15 Z M350.73,84.08 c-4.59,-3.55,-7.47,-5.6,-8.64,-6.15 c-1.76,-0.81,-3.63,-1.22,-5.62,-1.22 c-3.09,0,-5.64,1.06,-7.64,3.17 c-2.0,2.12,-3.0,4.9,-3.0,8.35 c0,2.18,0.49,4.07,1.46,5.66 c1.33,2.21,3.65,4.3,6.96,6.25 c3.3,1.95,8.8,4.33,16.48,7.13 l0,1.76 c0,4.46,-0.71,7.52,-2.12,9.18 c-1.42,1.66,-3.47,2.49,-6.18,2.49 c-2.05,0,-3.68,-0.55,-4.88,-1.66 c-1.24,-1.11,-1.86,-2.38,-1.86,-3.81 l0.1,-2.83 c0,-1.5,-0.38,-2.65,-1.15,-3.47 c-0.76,-0.81,-1.77,-1.22,-3.0,-1.22 c-1.2,0,-2.19,0.42,-2.95,1.27 c-0.76,0.85,-1.15,2.0,-1.15,3.47 c0,2.8,1.43,5.37,4.3,7.71 c2.86,2.34,6.88,3.52,12.06,3.52 c3.97,0,7.23,-0.67,9.77,-2.0 c1.92,-1.01,3.34,-2.59,4.25,-4.74 c0.59,-1.4,0.88,-4.26,0.88,-8.59 l0,-15.19 c0,-4.26,0.08,-6.88,0.24,-7.84 c0.16,-0.96,0.43,-1.6,0.81,-1.93 c0.37,-0.33,0.81,-0.49,1.29,-0.49 c0.52,0,0.98,0.11,1.37,0.34 c0.68,0.42,2.0,1.61,3.96,3.56 l0,-2.73 c-3.65,-4.88,-7.13,-7.32,-10.45,-7.32 c-1.6,0,-2.86,0.55,-3.81,1.66 c-0.94,1.11,-1.43,2.99,-1.46,5.66 Z M350.73,87.26 l0,17.04 c-4.92,-1.95,-8.09,-3.34,-9.52,-4.15 c-2.57,-1.43,-4.41,-2.93,-5.52,-4.49 c-1.11,-1.56,-1.66,-3.27,-1.66,-5.13 c0,-2.34,0.7,-4.29,2.1,-5.83 c1.4,-1.55,3.01,-2.32,4.83,-2.32 c2.47,0,5.73,1.63,9.77,4.88 Z M382.03,114.65 c4.33,6.02,9.0,9.03,14.01,9.03 c4.59,0,8.59,-1.96,12.01,-5.88 c3.42,-3.92,5.13,-9.29,5.13,-16.09 c0,-7.94,-2.64,-14.34,-7.91,-19.19 c-4.52,-4.17,-9.57,-6.25,-15.14,-6.25 c-2.6,0,-5.25,0.47,-7.93,1.42 c-2.69,0.94,-5.43,2.36,-8.23,4.25 l0,46.34 c0,5.08,-0.12,8.2,-0.37,9.38 c-0.24,1.17,-0.63,1.97,-1.15,2.39 c-0.52,0.42,-1.17,0.63,-1.95,0.63 c-0.91,0,-2.05,-0.26,-3.42,-0.78 l-0.68,1.71 l13.43,5.47 l2.2,0 Z M382.03,111.52 l0,-26.76 c1.66,-1.63,3.38,-2.86,5.15,-3.69 c1.77,-0.83,3.59,-1.25,5.44,-1.25 c2.96,0,5.72,1.63,8.28,4.88 c2.56,3.26,3.83,7.99,3.83,14.21 c0,5.73,-1.28,10.13,-3.83,13.21 c-2.56,3.08,-5.46,4.61,-8.72,4.61 c-1.73,0,-3.45,-0.44,-5.18,-1.32 c-1.3,-0.65,-2.96,-1.95,-4.98,-3.91 Z M458.98,122.36 l0,-27.1 c0,-5.18,0.12,-8.34,0.37,-9.5 c0.24,-1.16,0.63,-1.96,1.17,-2.42 c0.54,-0.46,1.16,-0.68,1.88,-0.68 c1.01,0,2.15,0.28,3.42,0.83 l0.68,-1.71 l-13.38,-5.52 l-2.2,0 l0,9.47 c-3.84,-4.17,-6.77,-6.79,-8.79,-7.86 c-2.02,-1.07,-4.15,-1.61,-6.4,-1.61 c-2.51,0,-4.68,0.72,-6.52,2.17 c-1.84,1.45,-3.12,3.31,-3.83,5.59 c-0.72,2.28,-1.07,5.5,-1.07,9.67 l0,19.97 c0,2.12,-0.23,3.58,-0.68,4.39 c-0.46,0.81,-1.13,1.44,-2.03,1.88 c-0.9,0.44,-2.51,0.64,-4.86,0.61 l0,1.81 l15.67,0 l0,-29.93 c0,-4.17,0.72,-6.9,2.17,-8.2 c1.45,-1.3,3.2,-1.95,5.25,-1.95 c1.4,0,2.99,0.44,4.76,1.32 c1.77,0.88,3.88,2.56,6.32,5.03 l0,25.34 c0,2.54,-0.46,4.26,-1.39,5.15 c-0.93,0.9,-2.86,1.38,-5.79,1.44 l0,1.81 Z M485.16,147.07 l0,-59.33 c0,-2.8,0.2,-4.65,0.61,-5.57 c0.41,-0.91,1.03,-1.6,1.88,-2.08 c0.85,-0.47,2.43,-0.71,4.74,-0.71 l0,-1.76 l-21.92,0 l0,1.76 c2.05,0,3.45,0.21,4.2,0.63 c0.75,0.42,1.33,1.12,1.76,2.1 c0.42,0.98,0.63,2.85,0.63,5.62 l0,40.62 c0,5.05,-0.11,8.15,-0.34,9.3 c-0.23,1.16,-0.59,1.94,-1.1,2.37 c-0.5,0.42,-1.15,0.63,-1.93,0.63 c-0.85,0,-1.92,-0.26,-3.22,-0.78 l-0.83,1.71 l13.33,5.47 Z M522.9,84.08 c-4.59,-3.55,-7.47,-5.6,-8.64,-6.15 c-1.76,-0.81,-3.63,-1.22,-5.62,-1.22 c-3.09,0,-5.64,1.06,-7.64,3.17 c-2.0,2.12,-3.0,4.9,-3.0,8.35 c0,2.18,0.49,4.07,1.46,5.66 c1.33,2.21,3.65,4.3,6.96,6.25 c3.3,1.95,8.8,4.33,16.48,7.13 l0,1.76 c0,4.46,-0.71,7.52,-2.12,9.18 c-1.42,1.66,-3.47,2.49,-6.18,2.49 c-2.05,0,-3.68,-0.55,-4.88,-1.66 c-1.24,-1.11,-1.86,-2.38,-1.86,-3.81 l0.1,-2.83 c0,-1.5,-0.38,-2.65,-1.15,-3.47 c-0.76,-0.81,-1.77,-1.22,-3.0,-1.22 c-1.2,0,-2.19,0.42,-2.95,1.27 c-0.76,0.85,-1.15,2.0,-1.15,3.47 c0,2.8,1.43,5.37,4.3,7.71 c2.86,2.34,6.88,3.52,12.06,3.52 c3.97,0,7.23,-0.67,9.77,-2.0 c1.92,-1.01,3.34,-2.59,4.25,-4.74 c0.59,-1.4,0.88,-4.26,0.88,-8.59 l0,-15.19 c0,-4.26,0.08,-6.88,0.24,-7.84 c0.16,-0.96,0.43,-1.6,0.81,-1.93 c0.37,-0.33,0.81,-0.49,1.29,-0.49 c0.52,0,0.98,0.11,1.37,0.34 c0.68,0.42,2.0,1.61,3.96,3.56 l0,-2.73 c-3.65,-4.88,-7.13,-7.32,-10.45,-7.32 c-1.6,0,-2.86,0.55,-3.81,1.66 c-0.94,1.11,-1.43,2.99,-1.46,5.66 Z M522.9,87.26 l0,17.04 c-4.92,-1.95,-8.09,-3.34,-9.52,-4.15 c-2.57,-1.43,-4.41,-2.93,-5.52,-4.49 c-1.11,-1.56,-1.66,-3.27,-1.66,-5.13 c0,-2.34,0.7,-4.29,2.1,-5.83 c1.4,-1.55,3.01,-2.32,4.83,-2.32 c2.47,0,5.73,1.63,9.77,4.88 Z M555.03,123.68 l0,-10.06 c3.74,6.71,7.58,10.06,11.52,10.06 c1.79,0,3.27,-0.55,4.44,-1.64 c1.17,-1.09,1.76,-2.35,1.76,-3.78 c0,-1.27,-0.42,-2.34,-1.27,-3.22 c-0.85,-0.88,-1.86,-1.32,-3.03,-1.32 c-1.14,0,-2.42,0.56,-3.83,1.68 c-1.42,1.12,-2.47,1.68,-3.15,1.68 c-0.59,0,-1.22,-0.33,-1.9,-0.98 c-1.46,-1.33,-2.98,-3.53,-4.54,-6.59 l0,-21.44 c0,-2.47,0.31,-4.35,0.93,-5.62 c0.42,-0.88,1.17,-1.61,2.25,-2.2 c1.07,-0.59,2.62,-0.88,4.64,-0.88 l0,-1.76 l-22.9,0 l0,1.76 c2.28,0,3.97,0.36,5.08,1.07 c0.81,0.52,1.38,1.35,1.71,2.49 c0.16,0.55,0.24,2.13,0.24,4.74 l0,17.33 c0,5.21,-0.11,8.31,-0.32,9.3 c-0.21,0.99,-0.6,1.72,-1.17,2.17 c-0.57,0.46,-1.28,0.68,-2.12,0.68 c-1.01,0,-2.15,-0.24,-3.42,-0.73 l-0.49,1.76 l13.53,5.47 Z M572.71,122.36 l20.85,0 l0,-1.81 l-1.03,0 c-1.46,0,-2.56,-0.32,-3.3,-0.95 c-0.73,-0.63,-1.1,-1.42,-1.1,-2.37 c0,-1.27,0.54,-3.03,1.61,-5.27 l10.89,-22.56 l10.01,24.71 c0.55,1.33,0.83,2.65,0.83,3.96 c0,0.59,-0.11,1.03,-0.34,1.32 c-0.26,0.36,-0.67,0.64,-1.22,0.85 c-0.55,0.21,-1.53,0.32,-2.93,0.32 l0,1.81 l14.55,0 l0,-1.81 c-1.2,-0.13,-2.13,-0.39,-2.78,-0.78 c-0.65,-0.39,-1.37,-1.12,-2.15,-2.2 c-0.29,-0.46,-0.85,-1.71,-1.66,-3.76 l-18.21,-44.63 c-1.76,-4.33,-4.06,-7.6,-6.91,-9.81 c-2.85,-2.21,-5.59,-3.32,-8.23,-3.32 c-1.92,0,-3.5,0.55,-4.74,1.66 c-1.24,1.11,-1.86,2.38,-1.86,3.81 c0,1.37,0.45,2.47,1.34,3.3 c0.9,0.83,2.12,1.25,3.69,1.25 c1.07,0,2.54,-0.36,4.39,-1.07 c1.3,-0.49,2.12,-0.73,2.44,-0.73 c0.98,0,2.04,0.5,3.2,1.51 c1.16,1.01,2.32,2.96,3.49,5.86 l3.17,7.76 l-16.06,33.74 c-0.49,1.01,-1.27,2.26,-2.34,3.76 c-0.81,1.14,-1.48,1.9,-2.0,2.29 c-0.75,0.52,-1.95,0.98,-3.61,1.37 Z M572.71,122.36" fill="rgb(0,0,0)" transform="matrix(1,0,0,-1,0,200)"/>
</svg>