<?xml version="1.0" encoding="UTF-8"?>
<svg height="200" version="1.1" width="800" xmlns="http://www.w3.org/2000/svg" xmlns:xlink="http://www.w3.org/1999/xlink">
 <path d="M0,0 l800,0 l0,200 l-800,0 Z M0,0" fill="rgb(255,255,255)" transform="matrix(1,0,0,-1,0,200)"/>
 <path d="M326.97,93.63 c-1.84,-1.42,-2.99,-2.24,-3.46,-2.46 c-0.7,-0.33,-1.45,-0.49,-2.25,-0.49 c-1.24,0,-2.26,0.42,-3.06,1.27 c-0.8,0.85,-1.2,1.96,-1.2,3.34 c0,0.87,0.2,1.63,0.59,2.27 c0.53,0.89,1.46,1.72,2.78,2.5 c1.32,0.78,3.52,1.73,6.59,2.85 l0,0.7 c0,1.78,-0.28,3.01,-0.85,3.67 c-0.57,0.66,-1.39,1.0,-2.47,1.0 c-0.82,0,-1.47,-0.22,-1.95,-0.66 c-0.49,-0.44,-0.74,-0.95,-0.74,-1.52 l0.04,-1.13 c0,-0.6,-0.15,-1.06,-0.46,-1.39 c-0.31,-0.33,-0.71,-0.49,-1.2,-0.49 c-0.48,0,-0.88,0.17,-1.18,0.51 c-0.31,0.34,-0.46,0.8,-0.46,1.39 c0,1.12,0.57,2.15,1.72,3.09 c1.15,0.94,2.75,1.41,4.82,1.41 c1.59,0,2.89,-0.27,3.91,-0.8 c0.77,-0.4,1.33,-1.04,1.7,-1.89 c0.23,-0.56,0.35,-1.71,0.35,-3.44 l0,-6.07 c0,-1.71,0.03,-2.75,0.1,-3.13 c0.07,-0.38,0.17,-0.64,0.32,-0.77 c0.15,-0.13,0.32,-0.2,0.52,-0.2 c0.21,0,0.39,0.05,0.55,0.14 c0.27,0.17,0.8,0.64,1.58,1.43 l0,-1.09 c-1.46,-1.95,-2.85,-2.93,-4.18,-2.93 c-0.64,0,-1.15,0.22,-1.52,0.66 c-0.38,0.44,-0.57,1.2,-0.59,2.27 Z M326.97,94.9 l0,6.82 c-1.97,-0.78,-3.24,-1.33,-3.81,-1.66 c-1.03,-0.57,-1.76,-1.17,-2.21,-1.8 c-0.44,-0.63,-0.66,-1.31,-0.66,-2.05 c0,-0.94,0.28,-1.72,0.84,-2.33 c0.56,-0.62,1.2,-0.93,1.93,-0.93 c0.99,0,2.29,0.65,3.91,1.95 Z M339.8,105.68 c2.1,2.53,4.1,3.79,6.0,3.79 c0.98,0,1.82,-0.24,2.52,-0.73 c0.7,-0.49,1.26,-1.29,1.68,-2.41 c0.29,-0.78,0.43,-1.98,0.43,-3.59 l0,-7.64 c0,-1.13,0.09,-1.9,0.27,-2.3 c0.14,-0.33,0.37,-0.58,0.69,-0.76 c0.32,-0.18,0.91,-0.27,1.77,-0.27 l0,-0.7 l-8.85,0 l0,0.7 l0.37,0 c0.83,0,1.42,0.13,1.75,0.38 c0.33,0.25,0.56,0.63,0.69,1.12 c0.05,0.2,0.08,0.81,0.08,1.84 l0,7.32 c0,1.63,-0.21,2.81,-0.63,3.54 c-0.42,0.74,-1.14,1.1,-2.14,1.1 c-1.55,0,-3.09,-0.85,-4.63,-2.54 l0,-9.43 c0,-1.21,0.07,-1.96,0.21,-2.25 c0.18,-0.38,0.43,-0.65,0.75,-0.83 c0.32,-0.18,0.97,-0.26,1.94,-0.26 l0,-0.7 l-8.85,0 l0,0.7 l0.39,0 c0.91,0,1.53,0.23,1.85,0.69 c0.32,0.46,0.48,1.34,0.48,2.65 l0,6.64 c0,2.15,-0.05,3.46,-0.15,3.93 c-0.1,0.47,-0.25,0.79,-0.45,0.96 c-0.2,0.17,-0.47,0.25,-0.81,0.25 c-0.36,0,-0.8,-0.1,-1.31,-0.29 l-0.29,0.7 l5.39,2.19 l0.84,0 Z M359.79,114.82 l0,-5.88 l4.18,0 l0,-1.37 l-4.18,0 l0,-11.6 c0,-1.16,0.17,-1.94,0.5,-2.34 c0.33,-0.4,0.76,-0.61,1.28,-0.61 c0.43,0,0.85,0.13,1.25,0.4 c0.4,0.27,0.72,0.66,0.94,1.18 l0.76,0 c-0.46,-1.28,-1.1,-2.24,-1.93,-2.88 c-0.83,-0.64,-1.69,-0.97,-2.58,-0.97 c-0.6,0,-1.18,0.17,-1.76,0.5 c-0.57,0.33,-1.0,0.81,-1.27,1.43 c-0.27,0.62,-0.41,1.57,-0.41,2.86 l0,12.03 l-2.83,0 l0,0.64 c0.72,0.29,1.45,0.77,2.2,1.46 c0.75,0.68,1.42,1.49,2.0,2.43 c0.3,0.49,0.72,1.4,1.25,2.71 Z M368.71,102.21 c-0.01,-2.66,0.63,-4.74,1.93,-6.25 c1.3,-1.51,2.83,-2.27,4.59,-2.27 c1.17,0,2.19,0.32,3.06,0.97 c0.87,0.64,1.59,1.75,2.18,3.31 l0.61,-0.39 c-0.27,-1.78,-1.07,-3.41,-2.38,-4.87 c-1.32,-1.46,-2.96,-2.2,-4.94,-2.2 c-2.15,0,-3.99,0.84,-5.52,2.51 c-1.53,1.67,-2.29,3.92,-2.29,6.75 c0,3.06,0.78,5.45,2.35,7.16 c1.57,1.71,3.54,2.57,5.91,2.57 c2.01,0,3.65,-0.66,4.94,-1.98 c1.29,-1.32,1.93,-3.09,1.93,-5.3 Z M368.71,103.34 l8.28,0 c-0.07,1.15,-0.2,1.95,-0.41,2.42 c-0.33,0.73,-0.81,1.3,-1.46,1.72 c-0.64,0.42,-1.32,0.62,-2.02,0.62 c-1.08,0,-2.05,-0.42,-2.9,-1.26 c-0.85,-0.84,-1.35,-2.01,-1.49,-3.51 Z M398.65,97.85 c-0.48,-2.36,-1.43,-4.17,-2.83,-5.44 c-1.41,-1.27,-2.96,-1.9,-4.67,-1.9 c-2.03,0,-3.8,0.85,-5.31,2.56 c-1.51,1.71,-2.27,4.01,-2.27,6.91 c0,2.81,0.84,5.1,2.51,6.86 c1.67,1.76,3.68,2.64,6.03,2.64 c1.76,0,3.2,-0.47,4.34,-1.4 c1.13,-0.93,1.7,-1.9,1.7,-2.9 c0,-0.49,-0.16,-0.9,-0.48,-1.2 c-0.32,-0.31,-0.76,-0.46,-1.34,-0.46 c-0.77,0,-1.35,0.25,-1.74,0.74 c-0.22,0.27,-0.37,0.79,-0.44,1.56 c-0.07,0.77,-0.34,1.35,-0.79,1.76 c-0.46,0.39,-1.09,0.59,-1.89,0.59 c-1.3,0,-2.35,-0.48,-3.14,-1.45 c-1.05,-1.28,-1.58,-2.96,-1.58,-5.06 c0,-2.14,0.52,-4.02,1.57,-5.65 c1.05,-1.63,2.46,-2.45,4.25,-2.45 c1.28,0,2.42,0.44,3.44,1.31 c0.72,0.6,1.41,1.69,2.09,3.26 Z M406.41,114.82 l0,-5.88 l4.18,0 l0,-1.37 l-4.18,0 l0,-11.6 c0,-1.16,0.17,-1.94,0.5,-2.34 c0.33,-0.4,0.76,-0.61,1.28,-0.61 c0.43,0,0.85,0.13,1.25,0.4 c0.4,0.27,0.72,0.66,0.94,1.18 l0.76,0 c-0.46,-1.28,-1.1,-2.24,-1.93,-2.88 c-0.83,-0.64,-1.69,-0.97,-2.58,-0.97 c-0.6,0,-1.18,0.17,-1.76,0.5 c-0.57,0.33,-1.0,0.81,-1.27,1.43 c-0.27,0.62,-0.41,1.57,-0.41,2.86 l0,12.03 l-2.83,0 l0,0.64 c0.72,0.29,1.45,0.77,2.2,1.46 c0.75,0.68,1.42,1.49,2.0,2.43 c0.3,0.49,0.72,1.4,1.25,2.71 Z M416.88,118.83 c0.55,0,1.01,-0.19,1.4,-0.58 c0.38,-0.38,0.58,-0.85,0.58,-1.4 c0,-0.55,-0.19,-1.02,-0.58,-1.41 c-0.38,-0.39,-0.85,-0.59,-1.4,-0.59 c-0.55,0,-1.02,0.2,-1.41,0.59 c-0.39,0.39,-0.59,0.86,-0.59,1.41 c0,0.55,0.19,1.01,0.58,1.4 c0.38,0.38,0.86,0.58,1.42,0.58 Z M418.5,109.47 l0,-14.38 c0,-1.12,0.08,-1.87,0.24,-2.24 c0.16,-0.37,0.4,-0.65,0.72,-0.83 c0.32,-0.18,0.9,-0.27,1.75,-0.27 l0,-0.7 l-8.69,0 l0,0.7 c0.87,0,1.46,0.08,1.76,0.25 c0.3,0.17,0.54,0.45,0.71,0.84 c0.18,0.39,0.26,1.14,0.26,2.25 l0,6.89 c0,1.94,-0.06,3.2,-0.18,3.77 c-0.09,0.42,-0.23,0.71,-0.43,0.87 c-0.2,0.16,-0.46,0.24,-0.8,0.24 c-0.36,0,-0.81,-0.1,-1.33,-0.29 l-0.27,0.7 l5.39,2.19 Z M428.63,114.82 l0,-5.88 l4.18,0 l0,-1.37 l-4.18,0 l0,-11.6 c0,-1.16,0.17,-1.94,0.5,-2.34 c0.33,-0.4,0.76,-0.61,1.28,-0.61 c0.43,0,0.85,0.13,1.25,0.4 c0.4,0.27,0.72,0.66,0.94,1.18 l0.76,0 c-0.46,-1.28,-1.1,-2.24,-1.93,-2.88 c-0.83,-0.64,-1.69,-0.97,-2.58,-0.97 c-0.6,0,-1.18,0.17,-1.76,0.5 c-0.57,0.33,-1.0,0.81,-1.27,1.43 c-0.27,0.62,-0.41,1.57,-0.41,2.86 l0,12.03 l-2.83,0 l0,0.64 c0.72,0.29,1.45,0.77,2.2,1.46 c0.75,0.68,1.42,1.49,2.0,2.43 c0.3,0.49,0.72,1.4,1.25,2.71 Z M439.1,118.83 c0.55,0,1.01,-0.19,1.4,-0.58 c0.38,-0.38,0.58,-0.85,0.58,-1.4 c0,-0.55,-0.19,-1.02,-0.58,-1.41 c-0.38,-0.39,-0.85,-0.59,-1.4,-0.59 c-0.55,0,-1.02,0.2,-1.41,0.59 c-0.39,0.39,-0.59,0.86,-0.59,1.41 c0,0.55,0.19,1.01,0.58,1.4 c0.38,0.38,0.86,0.58,1.42,0.58 Z M440.72,109.47 l0,-14.38 c0,-1.12,0.08,-1.87,0.24,-2.24 c0.16,-0.37,0.4,-0.65,0.72,-0.83 c0.32,-0.18,0.9,-0.27,1.75,-0.27 l0,-0.7 l-8.69,0 l0,0.7 c0.87,0,1.46,0.08,1.76,0.25 c0.3,0.17,0.54,0.45,0.71,0.84 c0.18,0.39,0.26,1.14,0.26,2.25 l0,6.89 c0,1.94,-0.06,3.2,-0.18,3.77 c-0.09,0.42,-0.23,0.71,-0.43,0.87 c-0.2,0.16,-0.46,0.24,-0.8,0.24 c-0.36,0,-0.81,-0.1,-1.33,-0.29 l-0.27,0.7 l5.39,2.19 Z M454.41,109.47 c2.71,0,4.88,-1.03,6.52,-3.09 c1.39,-1.76,2.09,-3.78,2.09,-6.05 c0,-1.6,-0.38,-3.22,-1.15,-4.86 c-0.77,-1.64,-1.83,-2.88,-3.17,-3.71 c-1.35,-0.83,-2.85,-1.25,-4.5,-1.25 c-2.7,0,-4.84,1.07,-6.43,3.22 c-1.34,1.81,-2.01,3.84,-2.01,6.09 c0,1.64,0.41,3.27,1.22,4.89 c0.81,1.62,1.88,2.82,3.21,3.59 c1.33,0.77,2.73,1.16,4.22,1.16 Z M453.81,108.2 c-0.69,0,-1.38,-0.21,-2.08,-0.62 c-0.7,-0.41,-1.26,-1.13,-1.69,-2.16 c-0.43,-1.03,-0.64,-2.35,-0.64,-3.96 c0,-2.6,0.52,-4.85,1.55,-6.74 c1.04,-1.89,2.4,-2.83,4.09,-2.83 c1.26,0,2.3,0.52,3.12,1.56 c0.82,1.04,1.23,2.83,1.23,5.37 c0,3.18,-0.68,5.68,-2.05,7.5 c-0.92,1.25,-2.1,1.88,-3.54,1.88 Z M470.88,105.68 c2.1,2.53,4.1,3.79,6.0,3.79 c0.98,0,1.82,-0.24,2.52,-0.73 c0.7,-0.49,1.26,-1.29,1.68,-2.41 c0.29,-0.78,0.43,-1.98,0.43,-3.59 l0,-7.64 c0,-1.13,0.09,-1.9,0.27,-2.3 c0.14,-0.33,0.37,-0.58,0.69,-0.76 c0.32,-0.18,0.91,-0.27,1.77,-0.27 l0,-0.7 l-8.85,0 l0,0.7 l0.37,0 c0.83,0,1.42,0.13,1.75,0.38 c0.33,0.25,0.56,0.63,0.69,1.12 c0.05,0.2,0.08,0.81,0.08,1.84 l0,7.32 c0,1.63,-0.21,2.81,-0.63,3.54 c-0.42,0.74,-1.14,1.1,-2.14,1.1 c-1.55,0,-3.09,-0.85,-4.63,-2.54 l0,-9.43 c0,-1.21,0.07,-1.96,0.21,-2.25 c0.18,-0.38,0.43,-0.65,0.75,-0.83 c0.32,-0.18,0.97,-0.26,1.94,-0.26 l0,-0.7 l-8.85,0 l0,0.7 l0.39,0 c0.91,0,1.53,0.23,1.85,0.69 c0.32,0.46,0.48,1.34,0.48,2.65 l0,6.64 c0,2.15,-0.05,3.46,-0.15,3.93 c-0.1,0.47,-0.25,0.79,-0.45,0.96 c-0.2,0.17,-0.47,0.25,-0.81,0.25 c-0.36,0,-0.8,-0.1,-1.31,-0.29 l-0.29,0.7 l5.39,2.19 l0.84,0 Z M470.88,105.68" fill="rgb(0,0,0)" transform="matrix(1,0,0,-1,0,200)"/>
</svg>