<?xml version="1.0" encoding="UTF-8"?>
<svg height="200" version="1.1" width="800" xmlns="http://www.w3.org/2000/svg" xmlns:xlink="http://www.w3.org/1999/xlink">
 <path d="M0,0 l800,0 l0,200 l-800,0 Z M0,0" fill="rgb(255,255,255)" transform="matrix(1,0,0,-1,0,200)"/>
 <path d="M308.72,92.04 c-2.29,-1.77,-3.74,-2.8,-4.32,-3.08 c-0.88,-0.41,-1.81,-0.61,-2.81,-0.61 c-1.55,0,-2.82,0.53,-3.82,1.59 c-1.0,1.06,-1.5,2.45,-1.5,4.17 c0,1.09,0.24,2.03,0.73,2.83 c0.67,1.11,1.83,2.15,3.48,3.12 c1.65,0.98,4.4,2.16,8.24,3.56 l0,0.88 c0,2.23,-0.35,3.76,-1.06,4.59 c-0.71,0.83,-1.74,1.25,-3.09,1.25 c-1.03,0,-1.84,-0.28,-2.44,-0.83 c-0.62,-0.55,-0.93,-1.19,-0.93,-1.9 l0.05,-1.42 c0,-0.75,-0.19,-1.33,-0.57,-1.73 c-0.38,-0.41,-0.88,-0.61,-1.5,-0.61 c-0.6,0,-1.09,0.21,-1.48,0.63 c-0.38,0.42,-0.57,1.0,-0.57,1.73 c0,1.4,0.72,2.69,2.15,3.86 c1.43,1.17,3.44,1.76,6.03,1.76 c1.99,0,3.61,-0.33,4.88,-1.0 c0.96,-0.5,1.67,-1.29,2.12,-2.37 c0.29,-0.7,0.44,-2.13,0.44,-4.3 l0,-7.59 c0,-2.13,0.04,-3.44,0.12,-3.92 c0.08,-0.48,0.22,-0.8,0.4,-0.96 c0.19,-0.16,0.4,-0.24,0.65,-0.24 c0.26,0,0.49,0.06,0.68,0.17 c0.34,0.21,1.0,0.81,1.98,1.78 l0,-1.37 c-1.82,-2.44,-3.56,-3.66,-5.22,-3.66 c-0.8,0,-1.43,0.28,-1.9,0.83 c-0.47,0.55,-0.72,1.5,-0.73,2.83 Z M308.72,93.63 l0,8.52 c-2.46,-0.98,-4.04,-1.67,-4.76,-2.08 c-1.29,-0.72,-2.21,-1.46,-2.76,-2.25 c-0.55,-0.78,-0.83,-1.64,-0.83,-2.56 c0,-1.17,0.35,-2.14,1.05,-2.92 c0.7,-0.77,1.51,-1.16,2.42,-1.16 c1.24,0,2.86,0.81,4.88,2.44 Z M324.76,107.1 c2.62,3.16,5.12,4.74,7.5,4.74 c1.22,0,2.27,-0.31,3.15,-0.92 c0.88,-0.61,1.58,-1.62,2.1,-3.02 c0.36,-0.98,0.54,-2.47,0.54,-4.49 l0,-9.55 c0,-1.42,0.11,-2.38,0.34,-2.88 c0.18,-0.41,0.47,-0.72,0.87,-0.95 c0.4,-0.23,1.14,-0.34,2.21,-0.34 l0,-0.88 l-11.06,0 l0,0.88 l0.46,0 c1.04,0,1.77,0.16,2.19,0.48 c0.42,0.32,0.7,0.79,0.87,1.4 c0.07,0.24,0.1,1.01,0.1,2.29 l0,9.16 c0,2.03,-0.26,3.51,-0.79,4.43 c-0.53,0.92,-1.42,1.38,-2.67,1.38 c-1.94,0,-3.87,-1.06,-5.79,-3.17 l0,-11.79 c0,-1.51,0.09,-2.45,0.27,-2.81 c0.23,-0.47,0.54,-0.82,0.94,-1.04 c0.4,-0.22,1.21,-0.33,2.43,-0.33 l0,-0.88 l-11.06,0 l0,0.88 l0.49,0 c1.14,0,1.91,0.29,2.31,0.87 c0.4,0.58,0.6,1.68,0.6,3.31 l0,8.3 c0,2.69,-0.06,4.32,-0.18,4.91 c-0.12,0.59,-0.31,0.98,-0.56,1.2 c-0.25,0.21,-0.59,0.32,-1.01,0.32 c-0.46,0,-1.0,-0.12,-1.64,-0.37 l-0.37,0.88 l6.74,2.73 l1.05,0 Z M349.73,118.53 l0,-7.35 l5.22,0 l0,-1.71 l-5.22,0 l0,-14.5 c0,-1.45,0.21,-2.43,0.62,-2.93 c0.42,-0.5,0.95,-0.76,1.6,-0.76 c0.54,0,1.06,0.17,1.56,0.5 c0.5,0.33,0.9,0.83,1.17,1.48 l0.95,0 c-0.57,-1.6,-1.38,-2.8,-2.42,-3.6 c-1.04,-0.81,-2.12,-1.21,-3.22,-1.21 c-0.75,0,-1.48,0.21,-2.2,0.62 c-0.72,0.42,-1.25,1.01,-1.59,1.78 c-0.34,0.77,-0.51,1.97,-0.51,3.58 l0,15.04 l-3.54,0 l0,0.81 c0.9,0.36,1.81,0.96,2.75,1.82 c0.94,0.85,1.77,1.87,2.5,3.04 c0.37,0.62,0.9,1.75,1.56,3.39 Z M360.89,102.76 c-0.02,-3.32,0.79,-5.92,2.42,-7.81 c1.63,-1.89,3.54,-2.83,5.74,-2.83 c1.46,0,2.74,0.4,3.82,1.21 c1.08,0.81,1.99,2.19,2.72,4.14 l0.76,-0.49 c-0.34,-2.23,-1.33,-4.26,-2.98,-6.09 c-1.64,-1.83,-3.7,-2.75,-6.18,-2.75 c-2.69,0,-4.98,1.05,-6.9,3.14 c-1.91,2.09,-2.87,4.9,-2.87,8.44 c0,3.82,0.98,6.81,2.94,8.95 c1.96,2.14,4.42,3.21,7.39,3.21 c2.51,0,4.57,-0.83,6.18,-2.48 c1.61,-1.65,2.42,-3.86,2.42,-6.63 Z M360.89,104.17 l10.35,0 c-0.08,1.43,-0.25,2.44,-0.51,3.03 c-0.41,0.91,-1.01,1.63,-1.82,2.15 c-0.81,0.52,-1.65,0.78,-2.53,0.78 c-1.35,0,-2.56,-0.52,-3.63,-1.57 c-1.07,-1.05,-1.69,-2.51,-1.87,-4.38 Z M398.32,97.31 c-0.6,-2.95,-1.78,-5.21,-3.54,-6.8 c-1.76,-1.59,-3.7,-2.38,-5.83,-2.38 c-2.54,0,-4.75,1.07,-6.64,3.2 c-1.89,2.13,-2.83,5.01,-2.83,8.64 c0,3.52,1.05,6.37,3.14,8.57 c2.09,2.2,4.6,3.3,7.53,3.3 c2.2,0,4.0,-0.58,5.42,-1.75 c1.42,-1.16,2.12,-2.37,2.12,-3.63 c0,-0.62,-0.2,-1.12,-0.6,-1.5 c-0.4,-0.38,-0.96,-0.57,-1.67,-0.57 c-0.96,0,-1.68,0.31,-2.17,0.93 c-0.28,0.34,-0.46,0.99,-0.55,1.95 c-0.09,0.96,-0.42,1.69,-0.99,2.2 c-0.57,0.49,-1.36,0.73,-2.37,0.73 c-1.63,0,-2.94,-0.6,-3.93,-1.81 c-1.32,-1.6,-1.98,-3.7,-1.98,-6.32 c0,-2.67,0.66,-5.03,1.97,-7.07 c1.31,-2.04,3.08,-3.06,5.31,-3.06 c1.6,0,3.03,0.55,4.3,1.64 c0.9,0.75,1.77,2.11,2.61,4.08 Z M408.01,118.53 l0,-7.35 l5.22,0 l0,-1.71 l-5.22,0 l0,-14.5 c0,-1.45,0.21,-2.43,0.62,-2.93 c0.42,-0.5,0.95,-0.76,1.6,-0.76 c0.54,0,1.06,0.17,1.56,0.5 c0.5,0.33,0.9,0.83,1.17,1.48 l0.95,0 c-0.57,-1.6,-1.38,-2.8,-2.42,-3.6 c-1.04,-0.81,-2.12,-1.21,-3.22,-1.21 c-0.75,0,-1.48,0.21,-2.2,0.62 c-0.72,0.42,-1.25,1.01,-1.59,1.78 c-0.34,0.77,-0.51,1.97,-0.51,3.58 l0,15.04 l-3.54,0 l0,0.81 c0.9,0.36,1.81,0.96,2.75,1.82 c0.94,0.85,1.77,1.87,2.5,3.04 c0.37,0.62,0.9,1.75,1.56,3.39 Z M421.09,123.54 c0.68,0,1.27,-0.24,1.75,-0.72 c0.48,-0.48,0.72,-1.06,0.72,-1.75 c0,-0.68,-0.24,-1.27,-0.72,-1.76 c-0.48,-0.49,-1.06,-0.73,-1.75,-0.73 c-0.68,0,-1.27,0.24,-1.76,0.73 c-0.49,0.49,-0.73,1.07,-0.73,1.76 c0,0.68,0.24,1.27,0.72,1.75 c0.48,0.48,1.07,0.72,1.77,0.72 Z M423.12,111.84 l0,-17.97 c0,-1.4,0.1,-2.33,0.31,-2.8 c0.2,-0.46,0.5,-0.81,0.9,-1.04 c0.4,-0.23,1.13,-0.34,2.19,-0.34 l0,-0.88 l-10.86,0 l0,0.88 c1.09,0,1.82,0.11,2.2,0.32 c0.37,0.21,0.67,0.56,0.89,1.05 c0.22,0.49,0.33,1.42,0.33,2.81 l0,8.62 c0,2.43,-0.07,4.0,-0.22,4.71 c-0.11,0.52,-0.29,0.88,-0.54,1.09 c-0.24,0.2,-0.58,0.31,-1.0,0.31 c-0.46,0,-1.01,-0.12,-1.66,-0.37 l-0.34,0.88 l6.74,2.73 Z M435.79,118.53 l0,-7.35 l5.22,0 l0,-1.71 l-5.22,0 l0,-14.5 c0,-1.45,0.21,-2.43,0.62,-2.93 c0.42,-0.5,0.95,-0.76,1.6,-0.76 c0.54,0,1.06,0.17,1.56,0.5 c0.5,0.33,0.9,0.83,1.17,1.48 l0.95,0 c-0.57,-1.6,-1.38,-2.8,-2.42,-3.6 c-1.04,-0.81,-2.12,-1.21,-3.22,-1.21 c-0.75,0,-1.48,0.21,-2.2,0.62 c-0.72,0.42,-1.25,1.01,-1.59,1.78 c-0.34,0.77,-0.51,1.97,-0.51,3.58 l0,15.04 l-3.54,0 l0,0.81 c0.9,0.36,1.81,0.96,2.75,1.82 c0.94,0.85,1.77,1.87,2.5,3.04 c0.37,0.62,0.9,1.75,1.56,3.39 Z M448.88,123.54 c0.68,0,1.27,-0.24,1.75,-0.72 c0.48,-0.48,0.72,-1.06,0.72,-1.75 c0,-0.68,-0.24,-1.27,-0.72,-1.76 c-0.48,-0.49,-1.06,-0.73,-1.75,-0.73 c-0.68,0,-1.27,0.24,-1.76,0.73 c-0.49,0.49,-0.73,1.07,-0.73,1.76 c0,0.68,0.24,1.27,0.72,1.75 c0.48,0.48,1.07,0.72,1.77,0.72 Z M450.9,111.84 l0,-17.97 c0,-1.4,0.1,-2.33,0.31,-2.8 c0.2,-0.46,0.5,-0.81,0.9,-1.04 c0.4,-0.23,1.13,-0.34,2.19,-0.34 l0,-0.88 l-10.86,0 l0,0.88 c1.09,0,1.82,0.11,2.2,0.32 c0.37,0.21,0.67,0.56,0.89,1.05 c0.22,0.49,0.33,1.42,0.33,2.81 l0,8.62 c0,2.43,-0.07,4.0,-0.22,4.71 c-0.11,0.52,-0.29,0.88,-0.54,1.09 c-0.24,0.2,-0.58,0.31,-1.0,0.31 c-0.46,0,-1.01,-0.12,-1.66,-0.37 l-0.34,0.88 l6.74,2.73 Z M468.02,111.84 c3.39,0,6.1,-1.29,8.15,-3.86 c1.74,-2.2,2.61,-4.72,2.61,-7.57 c0,-2.0,-0.48,-4.03,-1.44,-6.08 c-0.96,-2.05,-2.28,-3.6,-3.97,-4.64 c-1.68,-1.04,-3.56,-1.56,-5.63,-1.56 c-3.37,0,-6.05,1.34,-8.03,4.03 c-1.68,2.26,-2.51,4.8,-2.51,7.62 c0,2.05,0.51,4.09,1.53,6.12 c1.02,2.03,2.36,3.52,4.02,4.49 c1.66,0.97,3.42,1.45,5.27,1.45 Z M467.26,110.25 c-0.86,0,-1.73,-0.26,-2.6,-0.77 c-0.87,-0.51,-1.57,-1.41,-2.11,-2.7 c-0.54,-1.29,-0.81,-2.94,-0.81,-4.96 c0,-3.26,0.65,-6.06,1.94,-8.42 c1.29,-2.36,3.0,-3.54,5.11,-3.54 c1.58,0,2.88,0.65,3.91,1.95 c1.03,1.3,1.54,3.54,1.54,6.71 c0,3.97,-0.85,7.1,-2.56,9.38 c-1.16,1.56,-2.63,2.34,-4.42,2.34 Z M488.6,107.1 c2.62,3.16,5.12,4.74,7.5,4.74 c1.22,0,2.27,-0.31,3.15,-0.92 c0.88,-0.61,1.58,-1.62,2.1,-3.02 c0.36,-0.98,0.54,-2.47,0.54,-4.49 l0,-9.55 c0,-1.42,0.11,-2.38,0.34,-2.88 c0.18,-0.41,0.47,-0.72,0.87,-0.95 c0.4,-0.23,1.14,-0.34,2.21,-0.34 l0,-0.88 l-11.06,0 l0,0.88 l0.46,0 c1.04,0,1.77,0.16,2.19,0.48 c0.42,0.32,0.7,0.79,0.87,1.4 c0.07,0.24,0.1,1.01,0.1,2.29 l0,9.16 c0,2.03,-0.26,3.51,-0.79,4.43 c-0.53,0.92,-1.42,1.38,-2.67,1.38 c-1.94,0,-3.87,-1.06,-5.79,-3.17 l0,-11.79 c0,-1.51,0.09,-2.45,0.27,-2.81 c0.23,-0.47,0.54,-0.82,0.94,-1.04 c0.4,-0.22,1.21,-0.33,2.43,-0.33 l0,-0.88 l-11.06,0 l0,0.88 l0.49,0 c1.14,0,1.91,0.29,2.31,0.87 c0.4,0.58,0.6,1.68,0.6,3.31 l0,8.3 c0,2.69,-0.06,4.32,-0.18,4.91 c-0.12,0.59,-0.31,0.98,-0.56,1.2 c-0.25,0.21,-0.59,0.32,-1.01,0.32 c-0.46,0,-1.0,-0.12,-1.64,-0.37 l-0.37,0.88 l6.74,2.73 l1.05,0 Z M488.6,107.1" fill="rgb(0,0,0)" transform="matrix(1,0,0,-1,0,200)"/>
</svg>