<?xml version="1.0" encoding="UTF-8"?>
<svg height="200" version="1.1" width="800" xmlns="http://www.w3.org/2000/svg" xmlns:xlink="http://www.w3.org/1999/xlink">
 <path d="M0,0 l800,0 l0,200 l-800,0 Z M0,0" fill="rgb(255,255,255)" transform="matrix(1,0,0,-1,0,200)"/>
 <path d="M180.13,105.52 c-0.03,-6.64,1.58,-11.85,4.83,-15.62 c3.26,-3.78,7.08,-5.66,11.47,-5.66 c2.93,0,5.48,0.81,7.64,2.42 c2.16,1.61,3.98,4.37,5.44,8.28 l1.51,-0.98 c-0.68,-4.46,-2.67,-8.52,-5.96,-12.18 c-3.29,-3.66,-7.41,-5.49,-12.35,-5.49 c-5.37,0,-9.97,2.09,-13.79,6.27 c-3.82,4.18,-5.74,9.81,-5.74,16.87 c0,7.65,1.96,13.61,5.88,17.9 c3.92,4.28,8.85,6.42,14.77,6.42 c5.01,0,9.13,-1.65,12.35,-4.96 c3.22,-3.3,4.83,-7.72,4.83,-13.26 Z M180.13,108.35 l20.7,0 c-0.16,2.86,-0.5,4.88,-1.03,6.05 c-0.81,1.82,-2.03,3.26,-3.64,4.3 c-1.61,1.04,-3.3,1.56,-5.05,1.56 c-2.7,0,-5.12,-1.05,-7.25,-3.15 c-2.13,-2.1,-3.38,-5.02,-3.74,-8.76 Z M256.59,123.68 l0,-57.52 c0,-2.86,0.2,-4.7,0.59,-5.52 c0.39,-0.81,1.0,-1.45,1.83,-1.9 c0.83,-0.46,2.45,-0.68,4.86,-0.68 l0,-1.81 l-22.56,0 l0,1.81 l0.93,0 c1.82,0,3.21,0.26,4.15,0.78 c0.65,0.36,1.17,1.0,1.56,1.93 c0.39,0.93,0.59,2.73,0.59,5.4 l0,19.24 c-2.96,-3.52,-5.55,-5.92,-7.76,-7.2 c-2.21,-1.29,-4.51,-1.93,-6.88,-1.93 c-4.33,0,-8.19,1.97,-11.6,5.91 c-3.4,3.94,-5.1,9.21,-5.1,15.82 c0,7.58,2.25,13.76,6.74,18.53 c4.49,4.77,9.91,7.15,16.26,7.15 c1.86,0,3.56,-0.26,5.13,-0.78 c1.56,-0.52,2.96,-1.3,4.2,-2.34 c1.89,0.91,3.69,1.95,5.42,3.12 Z M248.54,88.48 l0,21.0 c0,2.44,-0.32,4.36,-0.95,5.76 c-0.63,1.4,-1.77,2.59,-3.39,3.56 c-1.63,0.98,-3.47,1.46,-5.52,1.46 c-3.65,0,-6.77,-1.55,-9.38,-4.64 c-2.6,-3.09,-3.91,-7.78,-3.91,-14.06 c0,-6.02,1.33,-10.6,3.98,-13.72 c2.65,-3.13,5.85,-4.69,9.59,-4.69 c1.92,0,3.63,0.42,5.13,1.25 c1.5,0.83,2.98,2.19,4.44,4.08 Z M306.2,122.36 l0,-27.1 c0,-5.18,0.12,-8.34,0.37,-9.5 c0.24,-1.16,0.63,-1.96,1.17,-2.42 c0.54,-0.46,1.16,-0.68,1.88,-0.68 c1.01,0,2.15,0.28,3.42,0.83 l0.68,-1.71 l-13.38,-5.52 l-2.2,0 l0,9.47 c-3.84,-4.17,-6.77,-6.79,-8.79,-7.86 c-2.02,-1.07,-4.15,-1.61,-6.4,-1.61 c-2.51,0,-4.68,0.72,-6.52,2.17 c-1.84,1.45,-3.12,3.31,-3.83,5.59 c-0.72,2.28,-1.07,5.5,-1.07,9.67 l0,19.97 c0,2.12,-0.23,3.58,-0.68,4.39 c-0.46,0.81,-1.13,1.44,-2.03,1.88 c-0.9,0.44,-2.51,0.64,-4.86,0.61 l0,1.81 l15.67,0 l0,-29.93 c0,-4.17,0.72,-6.9,2.17,-8.2 c1.45,-1.3,3.2,-1.95,5.25,-1.95 c1.4,0,2.99,0.44,4.76,1.32 c1.77,0.88,3.88,2.56,6.32,5.03 l0,25.34 c0,2.54,-0.46,4.26,-1.39,5.15 c-0.93,0.9,-2.86,1.38,-5.79,1.44 l0,1.81 Z M338.87,123.68 c6.77,0,12.21,-2.57,16.31,-7.71 c3.48,-4.39,5.22,-9.44,5.22,-15.14 c0,-4.0,-0.96,-8.06,-2.88,-12.16 c-1.92,-4.1,-4.57,-7.19,-7.93,-9.28 c-3.37,-2.08,-7.12,-3.12,-11.25,-3.12 c-6.74,0,-12.09,2.69,-16.06,8.06 c-3.35,4.52,-5.03,9.6,-5.03,15.23 c0,4.1,1.02,8.18,3.05,12.23 c2.03,4.05,4.71,7.05,8.03,8.98 c3.32,1.94,6.84,2.91,10.55,2.91 Z M337.35,120.51 c-1.73,0,-3.46,-0.51,-5.2,-1.54 c-1.74,-1.03,-3.15,-2.82,-4.22,-5.4 c-1.07,-2.57,-1.61,-5.88,-1.61,-9.91 c0,-6.51,1.29,-12.13,3.88,-16.85 c2.59,-4.72,6.0,-7.08,10.23,-7.08 c3.16,0,5.76,1.3,7.81,3.91 c2.05,2.6,3.08,7.08,3.08,13.43 c0,7.94,-1.71,14.19,-5.13,18.75 c-2.31,3.13,-5.26,4.69,-8.84,4.69 Z M398.58,82.67 c-2.18,-2.28,-4.31,-3.91,-6.4,-4.91 c-2.08,-0.99,-4.33,-1.49,-6.74,-1.49 c-4.88,0,-9.15,2.04,-12.79,6.13 c-3.65,4.09,-5.47,9.33,-5.47,15.75 c0,6.41,2.02,12.28,6.05,17.6 c4.04,5.32,9.23,7.98,15.58,7.98 c3.94,0,7.19,-1.25,9.77,-3.76 l0,8.25 c0,5.11,-0.12,8.25,-0.37,9.42 c-0.24,1.17,-0.63,1.97,-1.15,2.39 c-0.52,0.42,-1.17,0.63,-1.95,0.63 c-0.85,0,-1.97,-0.26,-3.37,-0.78 l-0.63,1.71 l13.33,5.47 l2.2,0 l0,-51.71 c0,-5.24,0.12,-8.44,0.37,-9.59 c0.24,-1.16,0.63,-1.96,1.17,-2.42 c0.54,-0.46,1.16,-0.68,1.88,-0.68 c0.88,0,2.05,0.28,3.52,0.83 l0.54,-1.71 l-13.28,-5.52 l-2.25,0 Z M398.58,86.08 l0,23.05 c-0.2,2.21,-0.78,4.23,-1.76,6.05 c-0.98,1.82,-2.27,3.2,-3.88,4.13 c-1.61,0.93,-3.18,1.39,-4.71,1.39 c-2.86,0,-5.42,-1.29,-7.67,-3.86 c-2.96,-3.39,-4.44,-8.33,-4.44,-14.84 c0,-6.58,1.43,-11.61,4.3,-15.11 c2.86,-3.5,6.05,-5.25,9.57,-5.25 c2.96,0,5.83,1.48,8.59,4.44 Z M428.37,147.07 c1.37,0,2.53,-0.48,3.49,-1.44 c0.96,-0.96,1.44,-2.12,1.44,-3.49 c0,-1.37,-0.48,-2.54,-1.44,-3.52 c-0.96,-0.98,-2.12,-1.46,-3.49,-1.46 c-1.37,0,-2.54,0.49,-3.52,1.46 c-0.98,0.98,-1.46,2.15,-1.46,3.52 c0,1.37,0.48,2.53,1.44,3.49 c0.96,0.96,2.14,1.44,3.54,1.44 Z M432.42,123.68 l0,-35.94 c0,-2.8,0.2,-4.66,0.61,-5.59 c0.41,-0.93,1.01,-1.62,1.81,-2.08 c0.8,-0.46,2.25,-0.68,4.37,-0.68 l0,-1.76 l-21.73,0 l0,1.76 c2.18,0,3.65,0.21,4.39,0.63 c0.75,0.42,1.34,1.12,1.78,2.1 c0.44,0.98,0.66,2.85,0.66,5.62 l0,17.24 c0,4.85,-0.15,7.99,-0.44,9.42 c-0.23,1.04,-0.59,1.77,-1.07,2.17 c-0.49,0.41,-1.16,0.61,-2.0,0.61 c-0.91,0,-2.02,-0.24,-3.32,-0.73 l-0.68,1.76 l13.48,5.47 Z M473.68,123.68 l0,-15.23 l-1.61,0 c-1.24,4.79,-2.82,8.04,-4.76,9.77 c-1.94,1.73,-4.4,2.59,-7.4,2.59 c-2.28,0,-4.12,-0.6,-5.52,-1.81 c-1.4,-1.2,-2.1,-2.54,-2.1,-4.0 c0,-1.82,0.52,-3.39,1.56,-4.69 c1.01,-1.33,3.06,-2.75,6.15,-4.25 l7.13,-3.47 c6.61,-3.22,9.91,-7.47,9.91,-12.74 c0,-4.07,-1.54,-7.35,-4.61,-9.84 c-3.08,-2.49,-6.52,-3.74,-10.33,-3.74 c-2.73,0,-5.86,0.49,-9.38,1.46 c-1.07,0.33,-1.95,0.49,-2.64,0.49 c-0.75,0,-1.33,-0.42,-1.76,-1.27 l-1.61,0 l0,15.97 l1.61,0 c0.91,-4.56,2.65,-7.99,5.22,-10.3 c2.57,-2.31,5.45,-3.47,8.64,-3.47 c2.25,0,4.08,0.66,5.49,1.98 c1.42,1.32,2.12,2.91,2.12,4.76 c0,2.25,-0.79,4.13,-2.37,5.66 c-1.58,1.53,-4.73,3.47,-9.45,5.81 c-4.72,2.34,-7.81,4.46,-9.28,6.35 c-1.46,1.86,-2.2,4.2,-2.2,7.03 c0,3.68,1.26,6.75,3.78,9.23 c2.52,2.47,5.79,3.71,9.79,3.71 c1.76,0,3.89,-0.37,6.4,-1.12 c1.66,-0.49,2.77,-0.73,3.32,-0.73 c0.52,0,0.93,0.11,1.22,0.34 c0.29,0.23,0.63,0.73,1.03,1.51 Z M496.68,137.06 l0,-14.7 l10.45,0 l0,-3.42 l-10.45,0 l0,-29.0 c0,-2.9,0.42,-4.85,1.25,-5.86 c0.83,-1.01,1.9,-1.51,3.2,-1.51 c1.07,0,2.12,0.33,3.12,1.0 c1.01,0.67,1.79,1.65,2.34,2.95 l1.9,0 c-1.14,-3.19,-2.75,-5.59,-4.83,-7.2 c-2.08,-1.61,-4.23,-2.42,-6.45,-2.42 c-1.5,0,-2.96,0.42,-4.39,1.25 c-1.43,0.83,-2.49,2.02,-3.17,3.56 c-0.68,1.55,-1.03,3.93,-1.03,7.15 l0,30.08 l-7.08,0 l0,1.61 c1.79,0.72,3.62,1.93,5.49,3.64 c1.87,1.71,3.54,3.74,5.0,6.08 c0.75,1.24,1.79,3.5,3.12,6.79 Z M536.82,84.08 c-4.59,-3.55,-7.47,-5.6,-8.64,-6.15 c-1.76,-0.81,-3.63,-1.22,-5.62,-1.22 c-3.09,0,-5.64,1.06,-7.64,3.17 c-2.0,2.12,-3.0,4.9,-3.0,8.35 c0,2.18,0.49,4.07,1.46,5.66 c1.33,2.21,3.65,4.3,6.96,6.25 c3.3,1.95,8.8,4.33,16.48,7.13 l0,1.76 c0,4.46,-0.71,7.52,-2.12,9.18 c-1.42,1.66,-3.47,2.49,-6.18,2.49 c-2.05,0,-3.68,-0.55,-4.88,-1.66 c-1.24,-1.11,-1.86,-2.38,-1.86,-3.81 l0.1,-2.83 c0,-1.5,-0.38,-2.65,-1.15,-3.47 c-0.76,-0.81,-1.77,-1.22,-3.0,-1.22 c-1.2,0,-2.19,0.42,-2.95,1.27 c-0.76,0.85,-1.15,2.0,-1.15,3.47 c0,2.8,1.43,5.37,4.3,7.71 c2.86,2.34,6.88,3.52,12.06,3.52 c3.97,0,7.23,-0.67,9.77,-2.0 c1.92,-1.01,3.34,-2.59,4.25,-4.74 c0.59,-1.4,0.88,-4.26,0.88,-8.59 l0,-15.19 c0,-4.26,0.08,-6.88,0.24,-7.84 c0.16,-0.96,0.43,-1.6,0.81,-1.93 c0.37,-0.33,0.81,-0.49,1.29,-0.49 c0.52,0,0.98,0.11,1.37,0.34 c0.68,0.42,2.0,1.61,3.96,3.56 l0,-2.73 c-3.65,-4.88,-7.13,-7.32,-10.45,-7.32 c-1.6,0,-2.86,0.55,-3.81,1.66 c-0.94,1.11,-1.43,2.99,-1.46,5.66 Z M536.82,87.26 l0,17.04 c-4.92,-1.95,-8.09,-3.34,-9.52,-4.15 c-2.57,-1.43,-4.41,-2.93,-5.52,-4.49 c-1.11,-1.56,-1.66,-3.27,-1.66,-5.13 c0,-2.34,0.7,-4.29,2.1,-5.83 c1.4,-1.55,3.01,-2.32,4.83,-2.32 c2.47,0,5.73,1.63,9.77,4.88 Z M568.9,114.21 c5.24,6.32,10.24,9.47,14.99,9.47 c2.44,0,4.54,-0.61,6.3,-1.83 c1.76,-1.22,3.16,-3.23,4.2,-6.03 c0.72,-1.95,1.07,-4.95,1.07,-8.98 l0,-19.09 c0,-2.83,0.23,-4.75,0.68,-5.76 c0.36,-0.81,0.94,-1.45,1.73,-1.9 c0.8,-0.46,2.27,-0.68,4.42,-0.68 l0,-1.76 l-22.12,0 l0,1.76 l0.93,0 c2.08,0,3.54,0.32,4.37,0.95 c0.83,0.63,1.41,1.57,1.73,2.81 c0.13,0.49,0.2,2.02,0.2,4.59 l0,18.31 c0,4.07,-0.53,7.02,-1.59,8.86 c-1.06,1.84,-2.84,2.76,-5.35,2.76 c-3.87,0,-7.73,-2.12,-11.57,-6.35 l0,-23.58 c0,-3.03,0.18,-4.9,0.54,-5.62 c0.46,-0.94,1.08,-1.64,1.88,-2.08 c0.8,-0.44,2.42,-0.66,4.86,-0.66 l0,-1.76 l-22.12,0 l0,1.76 l0.98,0 c2.28,0,3.82,0.58,4.61,1.73 c0.8,1.16,1.2,3.36,1.2,6.62 l0,16.6 c0,5.37,-0.12,8.64,-0.37,9.81 c-0.24,1.17,-0.62,1.97,-1.12,2.39 c-0.5,0.42,-1.18,0.63,-2.03,0.63 c-0.91,0,-2.0,-0.24,-3.27,-0.73 l-0.73,1.76 l13.48,5.47 l2.1,0 Z M618.85,137.06 l0,-14.7 l10.45,0 l0,-3.42 l-10.45,0 l0,-29.0 c0,-2.9,0.42,-4.85,1.25,-5.86 c0.83,-1.01,1.9,-1.51,3.2,-1.51 c1.07,0,2.12,0.33,3.12,1.0 c1.01,0.67,1.79,1.65,2.34,2.95 l1.9,0 c-1.14,-3.19,-2.75,-5.59,-4.83,-7.2 c-2.08,-1.61,-4.23,-2.42,-6.45,-2.42 c-1.5,0,-2.96,0.42,-4.39,1.25 c-1.43,0.83,-2.49,2.02,-3.17,3.56 c-0.68,1.55,-1.03,3.93,-1.03,7.15 l0,30.08 l-7.08,0 l0,1.61 c1.79,0.72,3.62,1.93,5.49,3.64 c1.87,1.71,3.54,3.74,5.0,6.08 c0.75,1.24,1.79,3.5,3.12,6.79 Z M618.85,137.06" fill="rgb(0,0,0)" transform="matrix(1,0,0,-1,0,200)"/>
</svg>