<?xml version="1.0" encoding="UTF-8"?>
<svg height="200" version="1.1" width="800" xmlns="http://www.w3.org/2000/svg" xmlns:xlink="http://www.w3.org/1999/xlink">
 <path d="M0,0 l800,0 l0,200 l-800,0 Z M0,0" fill="rgb(255,255,255)" transform="matrix(1,0,0,-1,0,200)"/>
 <path d="M350.74,111.84 l0,-7.62 l-0.81,0 c-0.62,2.39,-1.41,4.02,-2.38,4.88 c-0.97,0.86,-2.2,1.29,-3.7,1.29 c-1.14,0,-2.06,-0.3,-2.76,-0.9 c-0.7,-0.6,-1.05,-1.27,-1.05,-2.0 c0,-0.91,0.26,-1.69,0.78,-2.34 c0.5,-0.67,1.53,-1.38,3.08,-2.12 l3.56,-1.73 c3.3,-1.61,4.96,-3.74,4.96,-6.37 c0,-2.03,-0.77,-3.67,-2.31,-4.92 c-1.54,-1.25,-3.26,-1.87,-5.16,-1.87 c-1.37,0,-2.93,0.24,-4.69,0.73 c-0.54,0.16,-0.98,0.24,-1.32,0.24 c-0.37,0,-0.67,-0.21,-0.88,-0.63 l-0.81,0 l0,7.98 l0.81,0 c0.46,-2.28,1.33,-4.0,2.61,-5.15 c1.29,-1.16,2.73,-1.73,4.32,-1.73 c1.12,0,2.04,0.33,2.75,0.99 c0.71,0.66,1.06,1.45,1.06,2.38 c0,1.12,-0.39,2.07,-1.18,2.83 c-0.79,0.76,-2.36,1.73,-4.72,2.91 c-2.36,1.17,-3.91,2.23,-4.64,3.17 c-0.73,0.93,-1.1,2.1,-1.1,3.52 c0,1.84,0.63,3.38,1.89,4.61 c1.26,1.24,2.89,1.86,4.9,1.86 c0.88,0,1.94,-0.19,3.2,-0.56 c0.83,-0.24,1.38,-0.37,1.66,-0.37 c0.26,0,0.46,0.06,0.61,0.17 c0.15,0.11,0.32,0.37,0.51,0.76 Z M362.24,118.53 l0,-7.35 l5.22,0 l0,-1.71 l-5.22,0 l0,-14.5 c0,-1.45,0.21,-2.43,0.62,-2.93 c0.42,-0.5,0.95,-0.76,1.6,-0.76 c0.54,0,1.06,0.17,1.56,0.5 c0.5,0.33,0.9,0.83,1.17,1.48 l0.95,0 c-0.57,-1.6,-1.38,-2.8,-2.42,-3.6 c-1.04,-0.81,-2.12,-1.21,-3.22,-1.21 c-0.75,0,-1.48,0.21,-2.2,0.62 c-0.72,0.42,-1.25,1.01,-1.59,1.78 c-0.34,0.77,-0.51,1.97,-0.51,3.58 l0,15.04 l-3.54,0 l0,0.81 c0.9,0.36,1.81,0.96,2.75,1.82 c0.94,0.85,1.77,1.87,2.5,3.04 c0.37,0.62,0.9,1.75,1.56,3.39 Z M376.18,111.84 l0,-5.03 c1.87,3.35,3.79,5.03,5.76,5.03 c0.9,0,1.64,-0.27,2.22,-0.82 c0.59,-0.55,0.88,-1.18,0.88,-1.89 c0,-0.63,-0.21,-1.17,-0.63,-1.61 c-0.42,-0.44,-0.93,-0.66,-1.51,-0.66 c-0.57,0,-1.21,0.28,-1.92,0.84 c-0.71,0.56,-1.23,0.84,-1.57,0.84 c-0.29,0,-0.61,-0.16,-0.95,-0.49 c-0.73,-0.67,-1.49,-1.77,-2.27,-3.3 l0,-10.72 c0,-1.24,0.15,-2.17,0.46,-2.81 c0.21,-0.44,0.59,-0.81,1.12,-1.1 c0.54,-0.29,1.31,-0.44,2.32,-0.44 l0,-0.88 l-11.45,0 l0,0.88 c1.14,0,1.99,0.18,2.54,0.54 c0.41,0.26,0.69,0.68,0.85,1.25 c0.08,0.28,0.12,1.07,0.12,2.37 l0,8.67 c0,2.6,-0.05,4.15,-0.16,4.65 c-0.11,0.5,-0.3,0.86,-0.59,1.09 c-0.28,0.23,-0.64,0.34,-1.06,0.34 c-0.5,0,-1.07,-0.12,-1.71,-0.37 l-0.24,0.88 l6.76,2.73 Z M390.05,102.76 c-0.02,-3.32,0.79,-5.92,2.42,-7.81 c1.63,-1.89,3.54,-2.83,5.74,-2.83 c1.46,0,2.74,0.4,3.82,1.21 c1.08,0.81,1.99,2.19,2.72,4.14 l0.76,-0.49 c-0.34,-2.23,-1.33,-4.26,-2.98,-6.09 c-1.64,-1.83,-3.7,-2.75,-6.18,-2.75 c-2.69,0,-4.98,1.05,-6.9,3.14 c-1.91,2.09,-2.87,4.9,-2.87,8.44 c0,3.82,0.98,6.81,2.94,8.95 c1.96,2.14,4.42,3.21,7.39,3.21 c2.51,0,4.57,-0.83,6.18,-2.48 c1.61,-1.65,2.42,-3.86,2.42,-6.63 Z M390.05,104.17 l10.35,0 c-0.08,1.43,-0.25,2.44,-0.51,3.03 c-0.41,0.91,-1.01,1.63,-1.82,2.15 c-0.81,0.52,-1.65,0.78,-2.53,0.78 c-1.35,0,-2.56,-0.52,-3.63,-1.57 c-1.07,-1.05,-1.69,-2.51,-1.87,-4.38 Z M415.0,107.1 c2.62,3.16,5.12,4.74,7.5,4.74 c1.22,0,2.27,-0.31,3.15,-0.92 c0.88,-0.61,1.58,-1.62,2.1,-3.02 c0.36,-0.98,0.54,-2.47,0.54,-4.49 l0,-9.55 c0,-1.42,0.11,-2.38,0.34,-2.88 c0.18,-0.41,0.47,-0.72,0.87,-0.95 c0.4,-0.23,1.14,-0.34,2.21,-0.34 l0,-0.88 l-11.06,0 l0,0.88 l0.46,0 c1.04,0,1.77,0.16,2.19,0.48 c0.42,0.32,0.7,0.79,0.87,1.4 c0.07,0.24,0.1,1.01,0.1,2.29 l0,9.16 c0,2.03,-0.26,3.51,-0.79,4.43 c-0.53,0.92,-1.42,1.38,-2.67,1.38 c-1.94,0,-3.87,-1.06,-5.79,-3.17 l0,-11.79 c0,-1.51,0.09,-2.45,0.27,-2.81 c0.23,-0.47,0.54,-0.82,0.94,-1.04 c0.4,-0.22,1.21,-0.33,2.43,-0.33 l0,-0.88 l-11.06,0 l0,0.88 l0.49,0 c1.14,0,1.91,0.29,2.31,0.87 c0.4,0.58,0.6,1.68,0.6,3.31 l0,8.3 c0,2.69,-0.06,4.32,-0.18,4.91 c-0.12,0.59,-0.31,0.98,-0.56,1.2 c-0.25,0.21,-0.59,0.32,-1.01,0.32 c-0.46,0,-1.0,-0.12,-1.64,-0.37 l-0.37,0.88 l6.74,2.73 l1.05,0 Z M447.94,111.84 l0,-7.62 l-0.81,0 c-0.62,2.39,-1.41,4.02,-2.38,4.88 c-0.97,0.86,-2.2,1.29,-3.7,1.29 c-1.14,0,-2.06,-0.3,-2.76,-0.9 c-0.7,-0.6,-1.05,-1.27,-1.05,-2.0 c0,-0.91,0.26,-1.69,0.78,-2.34 c0.5,-0.67,1.53,-1.38,3.08,-2.12 l3.56,-1.73 c3.3,-1.61,4.96,-3.74,4.96,-6.37 c0,-2.03,-0.77,-3.67,-2.31,-4.92 c-1.54,-1.25,-3.26,-1.87,-5.16,-1.87 c-1.37,0,-2.93,0.24,-4.69,0.73 c-0.54,0.16,-0.98,0.24,-1.32,0.24 c-0.37,0,-0.67,-0.21,-0.88,-0.63 l-0.81,0 l0,7.98 l0.81,0 c0.46,-2.28,1.33,-4.0,2.61,-5.15 c1.29,-1.16,2.73,-1.73,4.32,-1.73 c1.12,0,2.04,0.33,2.75,0.99 c0.71,0.66,1.06,1.45,1.06,2.38 c0,1.12,-0.39,2.07,-1.18,2.83 c-0.79,0.76,-2.36,1.73,-4.72,2.91 c-2.36,1.17,-3.91,2.23,-4.64,3.17 c-0.73,0.93,-1.1,2.1,-1.1,3.52 c0,1.84,0.63,3.38,1.89,4.61 c1.26,1.24,2.89,1.86,4.9,1.86 c0.88,0,1.94,-0.19,3.2,-0.56 c0.83,-0.24,1.38,-0.37,1.66,-0.37 c0.26,0,0.46,0.06,0.61,0.17 c0.15,0.11,0.32,0.37,0.51,0.76 Z M459.44,118.53 l0,-7.35 l5.22,0 l0,-1.71 l-5.22,0 l0,-14.5 c0,-1.45,0.21,-2.43,0.62,-2.93 c0.42,-0.5,0.95,-0.76,1.6,-0.76 c0.54,0,1.06,0.17,1.56,0.5 c0.5,0.33,0.9,0.83,1.17,1.48 l0.95,0 c-0.57,-1.6,-1.38,-2.8,-2.42,-3.6 c-1.04,-0.81,-2.12,-1.21,-3.22,-1.21 c-0.75,0,-1.48,0.21,-2.2,0.62 c-0.72,0.42,-1.25,1.01,-1.59,1.78 c-0.34,0.77,-0.51,1.97,-0.51,3.58 l0,15.04 l-3.54,0 l0,0.81 c0.9,0.36,1.81,0.96,2.75,1.82 c0.94,0.85,1.77,1.87,2.5,3.04 c0.37,0.62,0.9,1.75,1.56,3.39 Z M459.44,118.53" fill="rgb(0,0,0)" transform="matrix(1,0,0,-1,0,200)"/>
</svg>