<?xml version="1.0" encoding="UTF-8"?>
<svg height="200" version="1.1" width="800" xmlns="http://www.w3.org/2000/svg" xmlns:xlink="http://www.w3.org/1999/xlink">
 <path d="M0,0 l800,0 l0,200 l-800,0 Z M0,0" fill="rgb(255,255,255)" transform="matrix(1,0,0,-1,0,200)"/>
 <path d="M143.95,94.63 c-1.2,-5.89,-3.56,-10.42,-7.08,-13.6 c-3.52,-3.17,-7.41,-4.76,-11.67,-4.76 c-5.08,0,-9.51,2.13,-13.28,6.4 c-3.78,4.26,-5.66,10.03,-5.66,17.29 c0,7.03,2.09,12.74,6.27,17.14 c4.18,4.39,9.2,6.59,15.06,6.59 c4.39,0,8.01,-1.16,10.84,-3.49 c2.83,-2.33,4.25,-4.74,4.25,-7.25 c0,-1.24,-0.4,-2.24,-1.2,-3.0 c-0.8,-0.76,-1.91,-1.15,-3.34,-1.15 c-1.92,0,-3.37,0.62,-4.35,1.86 c-0.55,0.68,-0.92,1.99,-1.1,3.91 c-0.18,1.92,-0.84,3.39,-1.98,4.39 c-1.14,0.98,-2.72,1.46,-4.74,1.46 c-3.26,0,-5.88,-1.2,-7.86,-3.61 c-2.64,-3.19,-3.96,-7.41,-3.96,-12.65 c0,-5.34,1.31,-10.05,3.93,-14.14 c2.62,-4.09,6.16,-6.13,10.62,-6.13 c3.19,0,6.05,1.09,8.59,3.27 c1.79,1.5,3.53,4.22,5.22,8.15 Z M172.22,123.68 c6.77,0,12.21,-2.57,16.31,-7.71 c3.48,-4.39,5.22,-9.44,5.22,-15.14 c0,-4.0,-0.96,-8.06,-2.88,-12.16 c-1.92,-4.1,-4.57,-7.19,-7.93,-9.28 c-3.37,-2.08,-7.12,-3.12,-11.25,-3.12 c-6.74,0,-12.09,2.69,-16.06,8.06 c-3.35,4.52,-5.03,9.6,-5.03,15.23 c0,4.1,1.02,8.18,3.05,12.23 c2.03,4.05,4.71,7.05,8.03,8.98 c3.32,1.94,6.84,2.91,10.55,2.91 Z M170.7,120.51 c-1.73,0,-3.46,-0.51,-5.2,-1.54 c-1.74,-1.03,-3.15,-2.82,-4.22,-5.4 c-1.07,-2.57,-1.61,-5.88,-1.61,-9.91 c0,-6.51,1.29,-12.13,3.88,-16.85 c2.59,-4.72,6.0,-7.08,10.23,-7.08 c3.16,0,5.76,1.3,7.81,3.91 c2.05,2.6,3.08,7.08,3.08,13.43 c0,7.94,-1.71,14.19,-5.13,18.75 c-2.31,3.13,-5.26,4.69,-8.84,4.69 Z M213.62,114.16 c3.26,3.26,5.18,5.13,5.76,5.62 c1.46,1.24,3.04,2.2,4.74,2.88 c1.69,0.68,3.37,1.03,5.03,1.03 c2.8,0,5.21,-0.81,7.23,-2.44 c2.02,-1.63,3.37,-3.99,4.05,-7.08 c3.35,3.91,6.18,6.47,8.5,7.69 c2.31,1.22,4.69,1.83,7.13,1.83 c2.38,0,4.48,-0.61,6.32,-1.83 c1.84,-1.22,3.3,-3.21,4.37,-5.98 c0.72,-1.89,1.07,-4.85,1.07,-8.89 l0,-19.24 c0,-2.8,0.21,-4.72,0.63,-5.76 c0.33,-0.72,0.93,-1.33,1.81,-1.83 c0.88,-0.5,2.31,-0.76,4.3,-0.76 l0,-1.76 l-22.07,0 l0,1.76 l0.93,0 c1.92,0,3.42,0.37,4.49,1.12 c0.75,0.52,1.29,1.35,1.61,2.49 c0.13,0.55,0.2,2.13,0.2,4.74 l0,19.24 c0,3.65,-0.44,6.22,-1.32,7.71 c-1.27,2.08,-3.3,3.12,-6.1,3.12 c-1.73,0,-3.46,-0.43,-5.2,-1.29 c-1.74,-0.86,-3.85,-2.47,-6.32,-4.81 l-0.1,-0.54 l0.1,-2.1 l0,-21.34 c0,-3.06,0.17,-4.96,0.51,-5.71 c0.34,-0.75,0.98,-1.38,1.93,-1.88 c0.94,-0.5,2.56,-0.76,4.83,-0.76 l0,-1.76 l-22.61,0 l0,1.76 c2.47,0,4.17,0.29,5.1,0.88 c0.93,0.59,1.57,1.46,1.93,2.64 c0.16,0.55,0.24,2.16,0.24,4.83 l0,19.24 c0,3.65,-0.54,6.27,-1.61,7.86 c-1.43,2.08,-3.43,3.12,-6.01,3.12 c-1.76,0,-3.5,-0.47,-5.22,-1.42 c-2.7,-1.43,-4.79,-3.04,-6.25,-4.83 l0,-23.97 c0,-2.93,0.2,-4.83,0.61,-5.71 c0.41,-0.88,1.01,-1.54,1.81,-1.98 c0.8,-0.44,2.42,-0.66,4.86,-0.66 l0,-1.76 l-22.12,0 l0,1.76 c2.05,0,3.48,0.22,4.3,0.66 c0.81,0.44,1.43,1.14,1.86,2.1 c0.42,0.96,0.63,2.82,0.63,5.59 l0,17.09 c0,4.92,-0.15,8.09,-0.44,9.52 c-0.23,1.07,-0.59,1.81,-1.07,2.22 c-0.49,0.41,-1.16,0.61,-2.0,0.61 c-0.91,0,-2.0,-0.24,-3.27,-0.73 l-0.73,1.76 l13.48,5.47 l2.1,0 Z M274.9,117.92 l13.77,5.57 l1.86,0 l0,-10.45 c2.31,3.94,4.63,6.7,6.96,8.28 c2.33,1.58,4.78,2.37,7.35,2.37 c4.49,0,8.24,-1.76,11.23,-5.27 c3.68,-4.3,5.52,-9.9,5.52,-16.8 c0,-7.71,-2.21,-14.1,-6.64,-19.14 c-3.65,-4.13,-8.24,-6.2,-13.77,-6.2 c-2.41,0,-4.49,0.34,-6.25,1.03 c-1.3,0.49,-2.77,1.46,-4.39,2.93 l0,-13.62 c0,-3.06,0.19,-5.0,0.56,-5.83 c0.37,-0.83,1.03,-1.49,1.95,-1.98 c0.93,-0.49,2.61,-0.73,5.05,-0.73 l0,-1.81 l-23.44,0 l0,1.81 l1.22,0 c1.79,-0.03,3.32,0.31,4.59,1.03 c0.62,0.36,1.1,0.94,1.44,1.73 c0.34,0.8,0.51,2.82,0.51,6.08 l0,42.29 c0,2.9,-0.13,4.74,-0.39,5.52 c-0.26,0.78,-0.68,1.37,-1.25,1.76 c-0.57,0.39,-1.34,0.59,-2.32,0.59 c-0.78,0,-1.77,-0.23,-2.98,-0.68 Z M290.53,110.16 l0,-16.7 c0,-3.61,0.15,-5.99,0.44,-7.13 c0.46,-1.89,1.57,-3.55,3.34,-4.98 c1.77,-1.43,4.01,-2.15,6.71,-2.15 c3.26,0,5.89,1.27,7.91,3.81 c2.64,3.32,3.96,7.99,3.96,14.01 c0,6.84,-1.5,12.09,-4.49,15.77 c-2.08,2.54,-4.56,3.81,-7.42,3.81 c-1.56,0,-3.11,-0.39,-4.64,-1.17 c-1.17,-0.59,-3.11,-2.34,-5.81,-5.27 Z M341.21,123.68 l0,-10.06 c3.74,6.71,7.58,10.06,11.52,10.06 c1.79,0,3.27,-0.55,4.44,-1.64 c1.17,-1.09,1.76,-2.35,1.76,-3.78 c0,-1.27,-0.42,-2.34,-1.27,-3.22 c-0.85,-0.88,-1.86,-1.32,-3.03,-1.32 c-1.14,0,-2.42,0.56,-3.83,1.68 c-1.42,1.12,-2.47,1.68,-3.15,1.68 c-0.59,0,-1.22,-0.33,-1.9,-0.98 c-1.46,-1.33,-2.98,-3.53,-4.54,-6.59 l0,-21.44 c0,-2.47,0.31,-4.35,0.93,-5.62 c0.42,-0.88,1.17,-1.61,2.25,-2.2 c1.07,-0.59,2.62,-0.88,4.64,-0.88 l0,-1.76 l-22.9,0 l0,1.76 c2.28,0,3.97,0.36,5.08,1.07 c0.81,0.52,1.38,1.35,1.71,2.49 c0.16,0.55,0.24,2.13,0.24,4.74 l0,17.33 c0,5.21,-0.11,8.31,-0.32,9.3 c-0.21,0.99,-0.6,1.72,-1.17,2.17 c-0.57,0.46,-1.28,0.68,-2.12,0.68 c-1.01,0,-2.15,-0.24,-3.42,-0.73 l-0.49,1.76 l13.53,5.47 Z M372.8,147.07 c1.37,0,2.53,-0.48,3.49,-1.44 c0.96,-0.96,1.44,-2.12,1.44,-3.49 c0,-1.37,-0.48,-2.54,-1.44,-3.52 c-0.96,-0.98,-2.12,-1.46,-3.49,-1.46 c-1.37,0,-2.54,0.49,-3.52,1.46 c-0.98,0.98,-1.46,2.15,-1.46,3.52 c0,1.37,0.48,2.53,1.44,3.49 c0.96,0.96,2.14,1.44,3.54,1.44 Z M376.86,123.68 l0,-35.94 c0,-2.8,0.2,-4.66,0.61,-5.59 c0.41,-0.93,1.01,-1.62,1.81,-2.08 c0.8,-0.46,2.25,-0.68,4.37,-0.68 l0,-1.76 l-21.73,0 l0,1.76 c2.18,0,3.65,0.21,4.39,0.63 c0.75,0.42,1.34,1.12,1.78,2.1 c0.44,0.98,0.66,2.85,0.66,5.62 l0,17.24 c0,4.85,-0.15,7.99,-0.44,9.42 c-0.23,1.04,-0.59,1.77,-1.07,2.17 c-0.49,0.41,-1.16,0.61,-2.0,0.61 c-0.91,0,-2.02,-0.24,-3.32,-0.73 l-0.68,1.76 l13.48,5.47 Z M402.34,147.07 l0,-32.71 c3.61,3.97,6.48,6.52,8.59,7.64 c2.12,1.12,4.23,1.68,6.35,1.68 c2.54,0,4.72,-0.7,6.54,-2.1 c1.82,-1.4,3.17,-3.6,4.05,-6.59 c0.62,-2.08,0.93,-5.89,0.93,-11.43 l0,-15.82 c0,-2.83,0.23,-4.77,0.68,-5.81 c0.33,-0.78,0.88,-1.4,1.66,-1.86 c0.78,-0.46,2.21,-0.68,4.3,-0.68 l0,-1.76 l-21.97,0 l0,1.76 l1.03,0 c2.08,0,3.53,0.32,4.35,0.95 c0.81,0.63,1.38,1.57,1.71,2.81 c0.1,0.52,0.15,2.05,0.15,4.59 l0,15.82 c0,4.88,-0.25,8.09,-0.76,9.62 c-0.5,1.53,-1.31,2.68,-2.42,3.44 c-1.11,0.76,-2.44,1.15,-4.0,1.15 c-1.6,0,-3.26,-0.42,-4.98,-1.27 c-1.73,-0.85,-3.79,-2.56,-6.2,-5.13 l0,-23.63 c0,-3.06,0.17,-4.96,0.51,-5.71 c0.34,-0.75,0.98,-1.38,1.9,-1.88 c0.93,-0.5,2.53,-0.76,4.81,-0.76 l0,-1.76 l-22.17,0 l0,1.76 c1.99,0,3.55,0.31,4.69,0.93 c0.65,0.33,1.17,0.94,1.56,1.86 c0.39,0.91,0.59,2.77,0.59,5.57 l0,40.48 c0,5.11,-0.12,8.25,-0.37,9.42 c-0.24,1.17,-0.62,1.97,-1.12,2.39 c-0.5,0.42,-1.18,0.63,-2.03,0.63 c-0.68,0,-1.79,-0.26,-3.32,-0.78 l-0.68,1.71 l13.38,5.47 Z M446.73,105.52 c-0.03,-6.64,1.58,-11.85,4.83,-15.62 c3.26,-3.78,7.08,-5.66,11.47,-5.66 c2.93,0,5.48,0.81,7.64,2.42 c2.16,1.61,3.98,4.37,5.44,8.28 l1.51,-0.98 c-0.68,-4.46,-2.67,-8.52,-5.96,-12.18 c-3.29,-3.66,-7.41,-5.49,-12.35,-5.49 c-5.37,0,-9.97,2.09,-13.79,6.27 c-3.82,4.18,-5.74,9.81,-5.74,16.87 c0,7.65,1.96,13.61,5.88,17.9 c3.92,4.28,8.85,6.42,14.77,6.42 c5.01,0,9.13,-1.65,12.35,-4.96 c3.22,-3.3,4.83,-7.72,4.83,-13.26 Z M446.73,108.35 l20.7,0 c-0.16,2.86,-0.5,4.88,-1.03,6.05 c-0.81,1.82,-2.03,3.26,-3.64,4.3 c-1.61,1.04,-3.3,1.56,-5.05,1.56 c-2.7,0,-5.12,-1.05,-7.25,-3.15 c-2.13,-2.1,-3.38,-5.02,-3.74,-8.76 Z M496.63,114.21 c5.24,6.32,10.24,9.47,14.99,9.47 c2.44,0,4.54,-0.61,6.3,-1.83 c1.76,-1.22,3.16,-3.23,4.2,-6.03 c0.72,-1.95,1.07,-4.95,1.07,-8.98 l0,-19.09 c0,-2.83,0.23,-4.75,0.68,-5.76 c0.36,-0.81,0.94,-1.45,1.73,-1.9 c0.8,-0.46,2.27,-0.68,4.42,-0.68 l0,-1.76 l-22.12,0 l0,1.76 l0.93,0 c2.08,0,3.54,0.32,4.37,0.95 c0.83,0.63,1.41,1.57,1.73,2.81 c0.13,0.49,0.2,2.02,0.2,4.59 l0,18.31 c0,4.07,-0.53,7.02,-1.59,8.86 c-1.06,1.84,-2.84,2.76,-5.35,2.76 c-3.87,0,-7.73,-2.12,-11.57,-6.35 l0,-23.58 c0,-3.03,0.18,-4.9,0.54,-5.62 c0.46,-0.94,1.08,-1.64,1.88,-2.08 c0.8,-0.44,2.42,-0.66,4.86,-0.66 l0,-1.76 l-22.12,0 l0,1.76 l0.98,0 c2.28,0,3.82,0.58,4.61,1.73 c0.8,1.16,1.2,3.36,1.2,6.62 l0,16.6 c0,5.37,-0.12,8.64,-0.37,9.81 c-0.24,1.17,-0.62,1.97,-1.12,2.39 c-0.5,0.42,-1.18,0.63,-2.03,0.63 c-0.91,0,-2.0,-0.24,-3.27,-0.73 l-0.73,1.76 l13.48,5.47 l2.1,0 Z M562.5,123.68 l0,-15.23 l-1.61,0 c-1.24,4.79,-2.82,8.04,-4.76,9.77 c-1.94,1.73,-4.4,2.59,-7.4,2.59 c-2.28,0,-4.12,-0.6,-5.52,-1.81 c-1.4,-1.2,-2.1,-2.54,-2.1,-4.0 c0,-1.82,0.52,-3.39,1.56,-4.69 c1.01,-1.33,3.06,-2.75,6.15,-4.25 l7.13,-3.47 c6.61,-3.22,9.91,-7.47,9.91,-12.74 c0,-4.07,-1.54,-7.35,-4.61,-9.84 c-3.08,-2.49,-6.52,-3.74,-10.33,-3.74 c-2.73,0,-5.86,0.49,-9.38,1.46 c-1.07,0.33,-1.95,0.49,-2.64,0.49 c-0.75,0,-1.33,-0.42,-1.76,-1.27 l-1.61,0 l0,15.97 l1.61,0 c0.91,-4.56,2.65,-7.99,5.22,-10.3 c2.57,-2.31,5.45,-3.47,8.64,-3.47 c2.25,0,4.08,0.66,5.49,1.98 c1.42,1.32,2.12,2.91,2.12,4.76 c0,2.25,-0.79,4.13,-2.37,5.66 c-1.58,1.53,-4.73,3.47,-9.45,5.81 c-4.72,2.34,-7.81,4.46,-9.28,6.35 c-1.46,1.86,-2.2,4.2,-2.2,7.03 c0,3.68,1.26,6.75,3.78,9.23 c2.52,2.47,5.79,3.71,9.79,3.71 c1.76,0,3.89,-0.37,6.4,-1.12 c1.66,-0.49,2.77,-0.73,3.32,-0.73 c0.52,0,0.93,0.11,1.22,0.34 c0.29,0.23,0.63,0.73,1.03,1.51 Z M583.89,147.07 c1.37,0,2.53,-0.48,3.49,-1.44 c0.96,-0.96,1.44,-2.12,1.44,-3.49 c0,-1.37,-0.48,-2.54,-1.44,-3.52 c-0.96,-0.98,-2.12,-1.46,-3.49,-1.46 c-1.37,0,-2.54,0.49,-3.52,1.46 c-0.98,0.98,-1.46,2.15,-1.46,3.52 c0,1.37,0.48,2.53,1.44,3.49 c0.96,0.96,2.14,1.44,3.54,1.44 Z M587.94,123.68 l0,-35.94 c0,-2.8,0.2,-4.66,0.61,-5.59 c0.41,-0.93,1.01,-1.62,1.81,-2.08 c0.8,-0.46,2.25,-0.68,4.37,-0.68 l0,-1.76 l-21.73,0 l0,1.76 c2.18,0,3.65,0.21,4.39,0.63 c0.75,0.42,1.34,1.12,1.78,2.1 c0.44,0.98,0.66,2.85,0.66,5.62 l0,17.24 c0,4.85,-0.15,7.99,-0.44,9.42 c-0.23,1.04,-0.59,1.77,-1.07,2.17 c-0.49,0.41,-1.16,0.61,-2.0,0.61 c-0.91,0,-2.02,-0.24,-3.32,-0.73 l-0.68,1.76 l13.48,5.47 Z M622.17,123.68 c6.77,0,12.21,-2.57,16.31,-7.71 c3.48,-4.39,5.22,-9.44,5.22,-15.14 c0,-4.0,-0.96,-8.06,-2.88,-12.16 c-1.92,-4.1,-4.57,-7.19,-7.93,-9.28 c-3.37,-2.08,-7.12,-3.12,-11.25,-3.12 c-6.74,0,-12.09,2.69,-16.06,8.06 c-3.35,4.52,-5.03,9.6,-5.03,15.23 c0,4.1,1.02,8.18,3.05,12.23 c2.03,4.05,4.71,7.05,8.03,8.98 c3.32,1.94,6.84,2.91,10.55,2.91 Z M620.65,120.51 c-1.73,0,-3.46,-0.51,-5.2,-1.54 c-1.74,-1.03,-3.15,-2.82,-4.22,-5.4 c-1.07,-2.57,-1.61,-5.88,-1.61,-9.91 c0,-6.51,1.29,-12.13,3.88,-16.85 c2.59,-4.72,6.0,-7.08,10.23,-7.08 c3.16,0,5.76,1.3,7.81,3.91 c2.05,2.6,3.08,7.08,3.08,13.43 c0,7.94,-1.71,14.19,-5.13,18.75 c-2.31,3.13,-5.26,4.69,-8.84,4.69 Z M663.33,114.21 c5.24,6.32,10.24,9.47,14.99,9.47 c2.44,0,4.54,-0.61,6.3,-1.83 c1.76,-1.22,3.16,-3.23,4.2,-6.03 c0.72,-1.95,1.07,-4.95,1.07,-8.98 l0,-19.09 c0,-2.83,0.23,-4.75,0.68,-5.76 c0.36,-0.81,0.94,-1.45,1.73,-1.9 c0.8,-0.46,2.27,-0.68,4.42,-0.68 l0,-1.76 l-22.12,0 l0,1.76 l0.93,0 c2.08,0,3.54,0.32,4.37,0.95 c0.83,0.63,1.41,1.57,1.73,2.81 c0.13,0.49,0.2,2.02,0.2,4.59 l0,18.31 c0,4.07,-0.53,7.02,-1.59,8.86 c-1.06,1.84,-2.84,2.76,-5.35,2.76 c-3.87,0,-7.73,-2.12,-11.57,-6.35 l0,-23.58 c0,-3.03,0.18,-4.9,0.54,-5.62 c0.46,-0.94,1.08,-1.64,1.88,-2.08 c0.8,-0.44,2.42,-0.66,4.86,-0.66 l0,-1.76 l-22.12,0 l0,1.76 l0.98,0 c2.28,0,3.82,0.58,4.61,1.73 c0.8,1.16,1.2,3.36,1.2,6.62 l0,16.6 c0,5.37,-0.12,8.64,-0.37,9.81 c-0.24,1.17,-0.62,1.97,-1.12,2.39 c-0.5,0.42,-1.18,0.63,-2.03,0.63 c-0.91,0,-2.0,-0.24,-3.27,-0.73 l-0.73,1.76 l13.48,5.47 l2.1,0 Z M663.33,114.21" fill="rgb(0,0,0)" transform="matrix(1,0,0,-1,0,200)"/>
</svg>