<?xml version="1.0" encoding="UTF-8"?>
<svg height="200" version="1.1" width="800" xmlns="http://www.w3.org/2000/svg" xmlns:xlink="http://www.w3.org/1999/xlink">
 <path d="M0,0 l800,0 l0,200 l-800,0 Z M0,0" fill="rgb(255,255,255)" transform="matrix(1,0,0,-1,0,200)"/>
 <path d="M311.48,108.95 l8.42,0 l0,-0.72 l-0.55,0 c-0.51,0,-0.9,-0.12,-1.16,-0.37 c-0.27,-0.25,-0.4,-0.58,-0.4,-1.0 c0,-0.46,0.14,-1.0,0.41,-1.62 l4.16,-9.88 l4.18,10.25 c0.3,0.73,0.45,1.28,0.45,1.66 c0,0.18,-0.05,0.33,-0.16,0.45 c-0.14,0.2,-0.33,0.33,-0.55,0.4 c-0.22,0.07,-0.67,0.11,-1.35,0.11 l0,0.72 l5.84,0 l0,-0.72 c-0.68,-0.05,-1.15,-0.19,-1.41,-0.41 c-0.46,-0.39,-0.87,-1.04,-1.23,-1.95 l-6.35,-15.35 l-0.8,0 l-6.39,15.1 c-0.29,0.7,-0.56,1.21,-0.82,1.51 c-0.26,0.31,-0.59,0.56,-1.0,0.77 c-0.22,0.12,-0.66,0.23,-1.31,0.33 Z M341.15,109.47 c2.71,0,4.88,-1.03,6.52,-3.09 c1.39,-1.76,2.09,-3.78,2.09,-6.05 c0,-1.6,-0.38,-3.22,-1.15,-4.86 c-0.77,-1.64,-1.83,-2.88,-3.17,-3.71 c-1.35,-0.83,-2.85,-1.25,-4.5,-1.25 c-2.7,0,-4.84,1.07,-6.43,3.22 c-1.34,1.81,-2.01,3.84,-2.01,6.09 c0,1.64,0.41,3.27,1.22,4.89 c0.81,1.62,1.88,2.82,3.21,3.59 c1.33,0.77,2.73,1.16,4.22,1.16 Z M340.55,108.2 c-0.69,0,-1.38,-0.21,-2.08,-0.62 c-0.7,-0.41,-1.26,-1.13,-1.69,-2.16 c-0.43,-1.03,-0.64,-2.35,-0.64,-3.96 c0,-2.6,0.52,-4.85,1.55,-6.74 c1.04,-1.89,2.4,-2.83,4.09,-2.83 c1.26,0,2.3,0.52,3.12,1.56 c0.82,1.04,1.23,2.83,1.23,5.37 c0,3.18,-0.68,5.68,-2.05,7.5 c-0.92,1.25,-2.1,1.88,-3.54,1.88 Z M367.6,97.85 c-0.48,-2.36,-1.43,-4.17,-2.83,-5.44 c-1.41,-1.27,-2.96,-1.9,-4.67,-1.9 c-2.03,0,-3.8,0.85,-5.31,2.56 c-1.51,1.71,-2.27,4.01,-2.27,6.91 c0,2.81,0.84,5.1,2.51,6.86 c1.67,1.76,3.68,2.64,6.03,2.64 c1.76,0,3.2,-0.47,4.34,-1.4 c1.13,-0.93,1.7,-1.9,1.7,-2.9 c0,-0.49,-0.16,-0.9,-0.48,-1.2 c-0.32,-0.31,-0.76,-0.46,-1.34,-0.46 c-0.77,0,-1.35,0.25,-1.74,0.74 c-0.22,0.27,-0.37,0.79,-0.44,1.56 c-0.07,0.77,-0.34,1.35,-0.79,1.76 c-0.46,0.39,-1.09,0.59,-1.89,0.59 c-1.3,0,-2.35,-0.48,-3.14,-1.45 c-1.05,-1.28,-1.58,-2.96,-1.58,-5.06 c0,-2.14,0.52,-4.02,1.57,-5.65 c1.05,-1.63,2.46,-2.45,4.25,-2.45 c1.28,0,2.42,0.44,3.44,1.31 c0.72,0.6,1.41,1.69,2.09,3.26 Z M380.29,93.63 c-1.84,-1.42,-2.99,-2.24,-3.46,-2.46 c-0.7,-0.33,-1.45,-0.49,-2.25,-0.49 c-1.24,0,-2.26,0.42,-3.06,1.27 c-0.8,0.85,-1.2,1.96,-1.2,3.34 c0,0.87,0.2,1.63,0.59,2.27 c0.53,0.89,1.46,1.72,2.78,2.5 c1.32,0.78,3.52,1.73,6.59,2.85 l0,0.7 c0,1.78,-0.28,3.01,-0.85,3.67 c-0.57,0.66,-1.39,1.0,-2.47,1.0 c-0.82,0,-1.47,-0.22,-1.95,-0.66 c-0.49,-0.44,-0.74,-0.95,-0.74,-1.52 l0.04,-1.13 c0,-0.6,-0.15,-1.06,-0.46,-1.39 c-0.31,-0.33,-0.71,-0.49,-1.2,-0.49 c-0.48,0,-0.88,0.17,-1.18,0.51 c-0.31,0.34,-0.46,0.8,-0.46,1.39 c0,1.12,0.57,2.15,1.72,3.09 c1.15,0.94,2.75,1.41,4.82,1.41 c1.59,0,2.89,-0.27,3.91,-0.8 c0.77,-0.4,1.33,-1.04,1.7,-1.89 c0.23,-0.56,0.35,-1.71,0.35,-3.44 l0,-6.07 c0,-1.71,0.03,-2.75,0.1,-3.13 c0.07,-0.38,0.17,-0.64,0.32,-0.77 c0.15,-0.13,0.32,-0.2,0.52,-0.2 c0.21,0,0.39,0.05,0.55,0.14 c0.27,0.17,0.8,0.64,1.58,1.43 l0,-1.09 c-1.46,-1.95,-2.85,-2.93,-4.18,-2.93 c-0.64,0,-1.15,0.22,-1.52,0.66 c-0.38,0.44,-0.57,1.2,-0.59,2.27 Z M380.29,94.9 l0,6.82 c-1.97,-0.78,-3.24,-1.33,-3.81,-1.66 c-1.03,-0.57,-1.76,-1.17,-2.21,-1.8 c-0.44,-0.63,-0.66,-1.31,-0.66,-2.05 c0,-0.94,0.28,-1.72,0.84,-2.33 c0.56,-0.62,1.2,-0.93,1.93,-0.93 c0.99,0,2.29,0.65,3.91,1.95 Z M392.81,105.86 c1.73,2.41,3.6,3.61,5.61,3.61 c1.84,0,3.44,-0.78,4.8,-2.35 c1.37,-1.57,2.05,-3.71,2.05,-6.44 c0,-3.18,-1.05,-5.74,-3.16,-7.68 c-1.81,-1.67,-3.83,-2.5,-6.05,-2.5 c-1.04,0,-2.1,0.19,-3.17,0.57 c-1.07,0.38,-2.17,0.94,-3.29,1.7 l0,18.54 c0,2.03,-0.05,3.28,-0.15,3.75 c-0.1,0.47,-0.25,0.79,-0.46,0.96 c-0.21,0.17,-0.47,0.25,-0.78,0.25 c-0.36,0,-0.82,-0.1,-1.37,-0.31 l-0.27,0.68 l5.37,2.19 l0.88,0 Z M392.81,104.61 l0,-10.7 c0.66,-0.65,1.35,-1.14,2.06,-1.47 c0.71,-0.33,1.44,-0.5,2.18,-0.5 c1.18,0,2.29,0.65,3.31,1.95 c1.02,1.3,1.53,3.2,1.53,5.68 c0,2.29,-0.51,4.05,-1.53,5.28 c-1.02,1.23,-2.18,1.85,-3.49,1.85 c-0.69,0,-1.38,-0.18,-2.07,-0.53 c-0.52,-0.26,-1.18,-0.78,-1.99,-1.56 Z M423.59,108.95 l0,-10.84 c0,-2.07,0.05,-3.34,0.15,-3.8 c0.1,-0.46,0.25,-0.78,0.47,-0.97 c0.21,-0.18,0.47,-0.27,0.75,-0.27 c0.4,0,0.86,0.11,1.37,0.33 l0.27,-0.68 l-5.35,-2.21 l-0.88,0 l0,3.79 c-1.54,-1.67,-2.71,-2.71,-3.52,-3.14 c-0.81,-0.43,-1.66,-0.64,-2.56,-0.64 c-1.0,0,-1.87,0.29,-2.61,0.87 c-0.74,0.58,-1.25,1.32,-1.53,2.24 c-0.29,0.91,-0.43,2.2,-0.43,3.87 l0,7.99 c0,0.85,-0.09,1.43,-0.27,1.76 c-0.18,0.33,-0.45,0.58,-0.81,0.75 c-0.36,0.18,-1.01,0.26,-1.94,0.24 l0,0.72 l6.27,0 l0,-11.97 c0,-1.67,0.29,-2.76,0.87,-3.28 c0.58,-0.52,1.28,-0.78,2.1,-0.78 c0.56,0,1.19,0.18,1.9,0.53 c0.71,0.35,1.55,1.02,2.53,2.01 l0,10.14 c0,1.02,-0.19,1.7,-0.56,2.06 c-0.37,0.36,-1.14,0.55,-2.31,0.58 l0,0.72 Z M434.06,118.83 l0,-23.73 c0,-1.12,0.08,-1.86,0.24,-2.23 c0.16,-0.36,0.41,-0.64,0.75,-0.83 c0.34,-0.19,0.97,-0.28,1.89,-0.28 l0,-0.7 l-8.77,0 l0,0.7 c0.82,0,1.38,0.08,1.68,0.25 c0.3,0.17,0.53,0.45,0.7,0.84 c0.17,0.39,0.25,1.14,0.25,2.25 l0,16.25 c0,2.02,-0.05,3.26,-0.14,3.72 c-0.09,0.46,-0.24,0.78,-0.44,0.95 c-0.2,0.17,-0.46,0.25,-0.77,0.25 c-0.34,0,-0.77,-0.1,-1.29,-0.31 l-0.33,0.68 l5.33,2.19 Z M449.16,93.63 c-1.84,-1.42,-2.99,-2.24,-3.46,-2.46 c-0.7,-0.33,-1.45,-0.49,-2.25,-0.49 c-1.24,0,-2.26,0.42,-3.06,1.27 c-0.8,0.85,-1.2,1.96,-1.2,3.34 c0,0.87,0.2,1.63,0.59,2.27 c0.53,0.89,1.46,1.72,2.78,2.5 c1.32,0.78,3.52,1.73,6.59,2.85 l0,0.7 c0,1.78,-0.28,3.01,-0.85,3.67 c-0.57,0.66,-1.39,1.0,-2.47,1.0 c-0.82,0,-1.47,-0.22,-1.95,-0.66 c-0.49,-0.44,-0.74,-0.95,-0.74,-1.52 l0.04,-1.13 c0,-0.6,-0.15,-1.06,-0.46,-1.39 c-0.31,-0.33,-0.71,-0.49,-1.2,-0.49 c-0.48,0,-0.88,0.17,-1.18,0.51 c-0.31,0.34,-0.46,0.8,-0.46,1.39 c0,1.12,0.57,2.15,1.72,3.09 c1.15,0.94,2.75,1.41,4.82,1.41 c1.59,0,2.89,-0.27,3.91,-0.8 c0.77,-0.4,1.33,-1.04,1.7,-1.89 c0.23,-0.56,0.35,-1.71,0.35,-3.44 l0,-6.07 c0,-1.71,0.03,-2.75,0.1,-3.13 c0.07,-0.38,0.17,-0.64,0.32,-0.77 c0.15,-0.13,0.32,-0.2,0.52,-0.2 c0.21,0,0.39,0.05,0.55,0.14 c0.27,0.17,0.8,0.64,1.58,1.43 l0,-1.09 c-1.46,-1.95,-2.85,-2.93,-4.18,-2.93 c-0.64,0,-1.15,0.22,-1.52,0.66 c-0.38,0.44,-0.57,1.2,-0.59,2.27 Z M449.16,94.9 l0,6.82 c-1.97,-0.78,-3.24,-1.33,-3.81,-1.66 c-1.03,-0.57,-1.76,-1.17,-2.21,-1.8 c-0.44,-0.63,-0.66,-1.31,-0.66,-2.05 c0,-0.94,0.28,-1.72,0.84,-2.33 c0.56,-0.62,1.2,-0.93,1.93,-0.93 c0.99,0,2.29,0.65,3.91,1.95 Z M462.01,109.47 l0,-4.02 c1.5,2.68,3.03,4.02,4.61,4.02 c0.72,0,1.31,-0.22,1.78,-0.65 c0.47,-0.44,0.7,-0.94,0.7,-1.51 c0,-0.51,-0.17,-0.94,-0.51,-1.29 c-0.34,-0.35,-0.74,-0.53,-1.21,-0.53 c-0.46,0,-0.97,0.22,-1.53,0.67 c-0.57,0.45,-0.99,0.67,-1.26,0.67 c-0.23,0,-0.49,-0.13,-0.76,-0.39 c-0.59,-0.53,-1.19,-1.41,-1.82,-2.64 l0,-8.57 c0,-0.99,0.12,-1.74,0.37,-2.25 c0.17,-0.35,0.47,-0.64,0.9,-0.88 c0.43,-0.23,1.05,-0.35,1.86,-0.35 l0,-0.7 l-9.16,0 l0,0.7 c0.91,0,1.59,0.14,2.03,0.43 c0.33,0.21,0.55,0.54,0.68,1.0 c0.07,0.22,0.1,0.85,0.1,1.89 l0,6.93 c0,2.08,-0.04,3.32,-0.13,3.72 c-0.08,0.4,-0.24,0.69,-0.47,0.87 c-0.23,0.18,-0.51,0.27,-0.85,0.27 c-0.4,0,-0.86,-0.1,-1.37,-0.29 l-0.2,0.7 l5.41,2.19 Z M469.08,108.95 l8.34,0 l0,-0.72 l-0.41,0 c-0.59,0,-1.03,-0.13,-1.32,-0.38 c-0.29,-0.25,-0.44,-0.57,-0.44,-0.95 c0,-0.51,0.21,-1.21,0.64,-2.11 l4.36,-9.02 l4.0,9.88 c0.22,0.53,0.33,1.06,0.33,1.58 c0,0.23,-0.05,0.41,-0.14,0.53 c-0.1,0.14,-0.27,0.26,-0.49,0.34 c-0.22,0.08,-0.61,0.13,-1.17,0.13 l0,0.72 l5.82,0 l0,-0.72 c-0.48,-0.05,-0.85,-0.16,-1.11,-0.31 c-0.26,-0.16,-0.55,-0.45,-0.86,-0.88 c-0.12,-0.18,-0.34,-0.68,-0.66,-1.5 l-7.29,-17.85 c-0.7,-1.73,-1.62,-3.04,-2.76,-3.93 c-1.14,-0.89,-2.24,-1.33,-3.29,-1.33 c-0.77,0,-1.4,0.22,-1.89,0.66 c-0.49,0.44,-0.74,0.95,-0.74,1.52 c0,0.55,0.18,0.99,0.54,1.32 c0.36,0.33,0.85,0.5,1.47,0.5 c0.43,0,1.02,-0.14,1.76,-0.43 c0.52,-0.2,0.85,-0.29,0.98,-0.29 c0.39,0,0.82,0.2,1.28,0.61 c0.46,0.4,0.93,1.18,1.4,2.34 l1.27,3.11 l-6.43,13.5 c-0.2,0.4,-0.51,0.9,-0.94,1.5 c-0.33,0.46,-0.59,0.76,-0.8,0.92 c-0.3,0.21,-0.78,0.39,-1.45,0.55 Z M469.08,108.95" fill="rgb(0,0,0)" transform="matrix(1,0,0,-1,0,200)"/>
</svg>