<?xml version="1.0" encoding="UTF-8"?>
<svg height="200" version="1.1" width="500" xmlns="http://www.w3.org/2000/svg" xmlns:xlink="http://www.w3.org/1999/xlink">
 <path d="M0,0 l500,0 l0,200 l-500,0 Z M0,0" fill="rgb(255,255,255)" transform="matrix(1,0,0,-1,0,200)"/>
 <path d="M84.03,113.54 l15.78,0 l0,-1.35 l-1.03,0 c-0.95,0,-1.68,-0.23,-2.18,-0.7 c-0.5,-0.46,-0.75,-1.09,-0.75,-1.87 c0,-0.85,0.26,-1.87,0.77,-3.04 l7.8,-18.53 l7.84,19.23 c0.56,1.37,0.84,2.4,0.84,3.11 c0,0.34,-0.1,0.62,-0.29,0.84 c-0.27,0.37,-0.61,0.62,-1.03,0.75 c-0.42,0.13,-1.26,0.2,-2.53,0.2 l0,1.35 l10.95,0 l0,-1.35 c-1.27,-0.1,-2.15,-0.35,-2.64,-0.77 c-0.85,-0.73,-1.62,-1.95,-2.31,-3.66 l-11.9,-28.78 l-1.5,0 l-11.98,28.31 c-0.54,1.32,-1.05,2.26,-1.54,2.84 c-0.49,0.57,-1.11,1.06,-1.87,1.45 c-0.42,0.22,-1.23,0.43,-2.45,0.62 Z M139.66,114.53 c5.08,0,9.16,-1.93,12.23,-5.79 c2.61,-3.3,3.92,-7.08,3.92,-11.35 c0,-3.0,-0.72,-6.04,-2.16,-9.12 c-1.44,-3.08,-3.42,-5.4,-5.95,-6.96 c-2.53,-1.56,-5.34,-2.34,-8.44,-2.34 c-5.05,0,-9.07,2.01,-12.05,6.04 c-2.51,3.39,-3.77,7.2,-3.77,11.43 c0,3.08,0.76,6.13,2.29,9.17 c1.53,3.04,3.53,5.29,6.02,6.74 c2.49,1.45,5.13,2.18,7.91,2.18 Z M138.53,112.15 c-1.29,0,-2.59,-0.38,-3.9,-1.15 c-1.31,-0.77,-2.36,-2.12,-3.17,-4.05 c-0.81,-1.93,-1.21,-4.41,-1.21,-7.43 c0,-4.88,0.97,-9.09,2.91,-12.63 c1.94,-3.54,4.5,-5.31,7.67,-5.31 c2.37,0,4.32,0.98,5.86,2.93 c1.54,1.95,2.31,5.31,2.31,10.07 c0,5.96,-1.28,10.64,-3.85,14.06 c-1.73,2.34,-3.94,3.52,-6.63,3.52 Z M189.25,92.74 c-0.9,-4.42,-2.67,-7.82,-5.31,-10.2 c-2.64,-2.38,-5.55,-3.57,-8.75,-3.57 c-3.81,0,-7.13,1.6,-9.96,4.8 c-2.83,3.2,-4.25,7.52,-4.25,12.96 c0,5.27,1.57,9.56,4.71,12.85 c3.14,3.3,6.9,4.94,11.3,4.94 c3.3,0,6.01,-0.87,8.13,-2.62 c2.12,-1.75,3.19,-3.56,3.19,-5.44 c0,-0.93,-0.3,-1.68,-0.9,-2.25 c-0.6,-0.57,-1.43,-0.86,-2.51,-0.86 c-1.44,0,-2.53,0.46,-3.26,1.39 c-0.42,0.51,-0.69,1.49,-0.82,2.93 c-0.13,1.44,-0.63,2.54,-1.48,3.3 c-0.85,0.73,-2.04,1.1,-3.55,1.1 c-2.44,0,-4.41,-0.9,-5.9,-2.71 c-1.98,-2.39,-2.97,-5.55,-2.97,-9.48 c0,-4.0,0.98,-7.54,2.95,-10.6 c1.97,-3.06,4.62,-4.6,7.97,-4.6 c2.39,0,4.54,0.82,6.45,2.45 c1.34,1.12,2.65,3.16,3.92,6.12 Z M213.05,84.83 c-3.44,-2.66,-5.6,-4.2,-6.48,-4.61 c-1.32,-0.61,-2.72,-0.92,-4.21,-0.92 c-2.32,0,-4.23,0.79,-5.73,2.38 c-1.5,1.59,-2.25,3.67,-2.25,6.26 c0,1.64,0.37,3.05,1.1,4.25 c1.0,1.66,2.74,3.22,5.22,4.69 c2.48,1.46,6.6,3.25,12.36,5.35 l0,1.32 c0,3.34,-0.53,5.64,-1.59,6.88 c-1.06,1.25,-2.61,1.87,-4.63,1.87 c-1.54,0,-2.76,-0.42,-3.66,-1.25 c-0.93,-0.83,-1.39,-1.78,-1.39,-2.86 l0.07,-2.12 c0,-1.12,-0.29,-1.99,-0.86,-2.6 c-0.57,-0.61,-1.32,-0.92,-2.25,-0.92 c-0.9,0,-1.64,0.32,-2.22,0.95 c-0.57,0.63,-0.86,1.5,-0.86,2.6 c0,2.1,1.07,4.03,3.22,5.79 c2.15,1.76,5.16,2.64,9.05,2.64 c2.98,0,5.42,-0.5,7.32,-1.5 c1.44,-0.76,2.5,-1.94,3.19,-3.55 c0.44,-1.05,0.66,-3.2,0.66,-6.45 l0,-11.39 c0,-3.2,0.06,-5.16,0.18,-5.88 c0.12,-0.72,0.32,-1.2,0.6,-1.45 c0.28,-0.24,0.6,-0.37,0.97,-0.37 c0.39,0,0.73,0.09,1.03,0.26 c0.51,0.32,1.5,1.21,2.97,2.67 l0,-2.05 c-2.73,-3.66,-5.35,-5.49,-7.84,-5.49 c-1.2,0,-2.15,0.42,-2.86,1.25 c-0.71,0.83,-1.07,2.25,-1.1,4.25 Z M213.05,87.21 l0,12.78 c-3.69,-1.46,-6.07,-2.5,-7.14,-3.11 c-1.93,-1.07,-3.31,-2.2,-4.14,-3.37 c-0.83,-1.17,-1.25,-2.45,-1.25,-3.85 c0,-1.76,0.52,-3.22,1.57,-4.38 c1.05,-1.16,2.26,-1.74,3.63,-1.74 c1.86,0,4.3,1.22,7.32,3.66 Z M236.52,107.76 c3.25,4.52,6.75,6.77,10.51,6.77 c3.44,0,6.45,-1.47,9.01,-4.41 c2.56,-2.94,3.85,-6.96,3.85,-12.07 c0,-5.96,-1.98,-10.75,-5.93,-14.39 c-3.39,-3.13,-7.18,-4.69,-11.35,-4.69 c-1.95,0,-3.94,0.35,-5.95,1.06 c-2.01,0.71,-4.07,1.77,-6.17,3.19 l0,34.75 c0,3.81,-0.09,6.15,-0.27,7.03 c-0.18,0.88,-0.47,1.48,-0.86,1.79 c-0.39,0.32,-0.88,0.48,-1.46,0.48 c-0.68,0,-1.54,-0.2,-2.56,-0.59 l-0.51,1.28 l10.07,4.1 l1.65,0 Z M236.52,105.42 l0,-20.07 c1.25,-1.22,2.53,-2.14,3.86,-2.76 c1.33,-0.62,2.69,-0.93,4.08,-0.93 c2.22,0,4.29,1.22,6.21,3.66 c1.92,2.44,2.87,5.99,2.87,10.66 c0,4.3,-0.96,7.6,-2.87,9.91 c-1.92,2.31,-4.1,3.46,-6.54,3.46 c-1.29,0,-2.59,-0.33,-3.88,-0.99 c-0.98,-0.49,-2.22,-1.46,-3.74,-2.93 Z M294.24,113.54 l0,-20.32 c0,-3.88,0.09,-6.26,0.27,-7.12 c0.18,-0.87,0.48,-1.47,0.88,-1.81 c0.4,-0.34,0.87,-0.51,1.41,-0.51 c0.76,0,1.61,0.21,2.56,0.62 l0.51,-1.28 l-10.03,-4.14 l-1.65,0 l0,7.1 c-2.88,-3.13,-5.08,-5.09,-6.59,-5.9 c-1.51,-0.81,-3.11,-1.21,-4.8,-1.21 c-1.88,0,-3.51,0.54,-4.89,1.63 c-1.38,1.09,-2.34,2.48,-2.87,4.19 c-0.54,1.71,-0.81,4.13,-0.81,7.25 l0,14.98 c0,1.59,-0.17,2.69,-0.51,3.3 c-0.34,0.61,-0.85,1.08,-1.52,1.41 c-0.67,0.33,-1.89,0.48,-3.64,0.46 l0,1.35 l11.76,0 l0,-22.45 c0,-3.13,0.54,-5.18,1.63,-6.15 c1.09,-0.98,2.4,-1.46,3.94,-1.46 c1.05,0,2.24,0.33,3.57,0.99 c1.33,0.66,2.91,1.92,4.74,3.77 l0,19.01 c0,1.9,-0.35,3.19,-1.04,3.86 c-0.7,0.67,-2.14,1.03,-4.34,1.08 l0,1.35 Z M313.87,132.08 l0,-44.49 c0,-2.1,0.15,-3.49,0.46,-4.17 c0.31,-0.68,0.78,-1.2,1.41,-1.56 c0.63,-0.35,1.82,-0.53,3.55,-0.53 l0,-1.32 l-16.44,0 l0,1.32 c1.54,0,2.59,0.16,3.15,0.48 c0.56,0.32,1.0,0.84,1.32,1.57 c0.32,0.73,0.48,2.14,0.48,4.21 l0,30.47 c0,3.78,-0.09,6.11,-0.26,6.98 c-0.17,0.87,-0.45,1.46,-0.82,1.78 c-0.38,0.32,-0.86,0.48,-1.45,0.48 c-0.63,0,-1.44,-0.2,-2.42,-0.59 l-0.62,1.28 l10.0,4.1 Z M342.18,84.83 c-3.44,-2.66,-5.6,-4.2,-6.48,-4.61 c-1.32,-0.61,-2.72,-0.92,-4.21,-0.92 c-2.32,0,-4.23,0.79,-5.73,2.38 c-1.5,1.59,-2.25,3.67,-2.25,6.26 c0,1.64,0.37,3.05,1.1,4.25 c1.0,1.66,2.74,3.22,5.22,4.69 c2.48,1.46,6.6,3.25,12.36,5.35 l0,1.32 c0,3.34,-0.53,5.64,-1.59,6.88 c-1.06,1.25,-2.61,1.87,-4.63,1.87 c-1.54,0,-2.76,-0.42,-3.66,-1.25 c-0.93,-0.83,-1.39,-1.78,-1.39,-2.86 l0.07,-2.12 c0,-1.12,-0.29,-1.99,-0.86,-2.6 c-0.57,-0.61,-1.32,-0.92,-2.25,-0.92 c-0.9,0,-1.64,0.32,-2.22,0.95 c-0.57,0.63,-0.86,1.5,-0.86,2.6 c0,2.1,1.07,4.03,3.22,5.79 c2.15,1.76,5.16,2.64,9.05,2.64 c2.98,0,5.42,-0.5,7.32,-1.5 c1.44,-0.76,2.5,-1.94,3.19,-3.55 c0.44,-1.05,0.66,-3.2,0.66,-6.45 l0,-11.39 c0,-3.2,0.06,-5.16,0.18,-5.88 c0.12,-0.72,0.32,-1.2,0.6,-1.45 c0.28,-0.24,0.6,-0.37,0.97,-0.37 c0.39,0,0.73,0.09,1.03,0.26 c0.51,0.32,1.5,1.21,2.97,2.67 l0,-2.05 c-2.73,-3.66,-5.35,-5.49,-7.84,-5.49 c-1.2,0,-2.15,0.42,-2.86,1.25 c-0.71,0.83,-1.07,2.25,-1.1,4.25 Z M342.18,87.21 l0,12.78 c-3.69,-1.46,-6.07,-2.5,-7.14,-3.11 c-1.93,-1.07,-3.31,-2.2,-4.14,-3.37 c-0.83,-1.17,-1.25,-2.45,-1.25,-3.85 c0,-1.76,0.52,-3.22,1.57,-4.38 c1.05,-1.16,2.26,-1.74,3.63,-1.74 c1.86,0,4.3,1.22,7.32,3.66 Z M366.27,114.53 l0,-7.54 c2.81,5.03,5.69,7.54,8.64,7.54 c1.34,0,2.45,-0.41,3.33,-1.23 c0.88,-0.82,1.32,-1.76,1.32,-2.84 c0,-0.95,-0.32,-1.76,-0.95,-2.42 c-0.63,-0.66,-1.39,-0.99,-2.27,-0.99 c-0.85,0,-1.81,0.42,-2.87,1.26 c-1.06,0.84,-1.85,1.26,-2.36,1.26 c-0.44,0,-0.92,-0.24,-1.43,-0.73 c-1.1,-1.0,-2.23,-2.65,-3.41,-4.94 l0,-16.08 c0,-1.86,0.23,-3.26,0.7,-4.21 c0.32,-0.66,0.88,-1.21,1.68,-1.65 c0.81,-0.44,1.97,-0.66,3.48,-0.66 l0,-1.32 l-17.18,0 l0,1.32 c1.71,0,2.98,0.27,3.81,0.81 c0.61,0.39,1.04,1.01,1.28,1.87 c0.12,0.42,0.18,1.6,0.18,3.55 l0,13.0 c0,3.91,-0.08,6.23,-0.24,6.98 c-0.16,0.74,-0.45,1.29,-0.88,1.63 c-0.43,0.34,-0.96,0.51,-1.59,0.51 c-0.76,0,-1.61,-0.18,-2.56,-0.55 l-0.37,1.32 l10.14,4.1 Z M379.53,113.54 l15.64,0 l0,-1.35 l-0.77,0 c-1.1,0,-1.92,-0.24,-2.47,-0.71 c-0.55,-0.48,-0.82,-1.07,-0.82,-1.78 c0,-0.95,0.4,-2.27,1.21,-3.96 l8.17,-16.92 l7.51,18.53 c0.42,1.0,0.62,1.99,0.62,2.97 c0,0.44,-0.09,0.77,-0.26,0.99 c-0.2,0.27,-0.5,0.48,-0.92,0.64 c-0.42,0.16,-1.15,0.24,-2.2,0.24 l0,1.35 l10.91,0 l0,-1.35 c-0.9,-0.1,-1.6,-0.29,-2.09,-0.59 c-0.49,-0.29,-1.03,-0.84,-1.61,-1.65 c-0.22,-0.34,-0.63,-1.28,-1.25,-2.82 l-13.66,-33.47 c-1.32,-3.25,-3.05,-5.7,-5.18,-7.36 c-2.14,-1.66,-4.19,-2.49,-6.17,-2.49 c-1.44,0,-2.62,0.42,-3.55,1.25 c-0.93,0.83,-1.39,1.78,-1.39,2.86 c0,1.03,0.34,1.85,1.01,2.47 c0.67,0.62,1.59,0.93,2.76,0.93 c0.81,0,1.9,-0.27,3.3,-0.81 c0.98,-0.37,1.59,-0.55,1.83,-0.55 c0.73,0,1.53,0.38,2.4,1.14 c0.87,0.76,1.74,2.22,2.62,4.39 l2.38,5.82 l-12.05,25.31 c-0.37,0.76,-0.95,1.7,-1.76,2.82 c-0.61,0.85,-1.11,1.43,-1.5,1.72 c-0.56,0.39,-1.46,0.73,-2.71,1.03 Z M379.53,113.54" fill="rgb(0,0,0)" transform="matrix(1,0,0,-1,0,200)"/>
</svg>