<?xml version="1.0" encoding="UTF-8"?>
<svg height="200" version="1.1" width="500" xmlns="http://www.w3.org/2000/svg" xmlns:xlink="http://www.w3.org/1999/xlink">
 <path d="M0,0 l500,0 l0,200 l-500,0 Z M0,0" fill="rgb(255,255,255)" transform="matrix(1,0,0,-1,0,200)"/>
 <path d="M191.45,119.23 c1.34,2.1,3.61,5.54,3.61,8.06 c0,1.51,-1.01,3.19,-2.69,3.19 c-6.13,0,-13.52,-17.39,-16.3,-22.18 c-1.09,1.26,-1.76,2.44,-3.53,2.35 c-7.14,-0.42,-23.86,-8.82,-23.86,-18.73 c0,-2.94,2.35,-11.0,6.13,-11.0 c3.78,0,11.59,8.15,14.53,10.67 c-0.34,-2.1,-0.67,-4.28,-0.67,-6.38 c0,-2.69,1.26,-6.05,4.45,-6.05 c6.13,0,14.78,8.82,18.73,13.19 l-0.59,2.77 c-2.69,-1.76,-10.42,-8.57,-13.27,-8.57 c-1.85,0,-1.93,2.86,-1.93,4.2 c0,5.38,4.03,10.84,6.8,15.2 Z M173.22,103.35 c-1.34,-4.96,-14.87,-15.04,-15.88,-14.78 c-0.92,0.17,-1.34,0.84,-1.26,1.6 c0.5,5.54,2.35,8.4,17.14,13.19 Z M221.78,95.71 c-4.45,-3.53,-11.51,-9.66,-17.47,-9.66 c-2.69,0,-5.46,1.09,-5.21,4.28 l0.17,1.85 c16.13,5.29,20.24,11.51,20.24,15.62 c0,3.36,-3.36,4.03,-6.05,4.03 c-10.92,0.08,-23.1,-11.17,-22.76,-22.18 c0.17,-5.54,3.02,-11.0,9.16,-11.0 c8.32,0,17.56,7.9,22.68,13.86 Z M199.77,96.3 c2.27,5.54,7.14,9.58,11.34,10.67 c0.59,0.17,1.01,-0.34,1.01,-0.92 c0.08,-1.43,-4.96,-7.22,-12.35,-9.74 Z M234.12,104.02 c0.5,-2.86,0.84,-5.12,1.09,-6.89 c-0.25,-4.87,-1.6,-6.3,-6.64,-9.41 c-1.6,2.18,-3.44,4.79,-6.55,4.96 Z M245.55,90.58 c-4.12,-3.11,-7.39,-5.63,-12.77,-4.7 c5.38,3.28,10.92,8.4,10.92,15.29 c0,3.7,-1.26,6.55,-1.6,9.74 c-0.25,2.35,-0.76,3.11,-3.28,3.11 c-3.02,0,-4.62,-2.69,-4.79,-5.46 l-18.23,-16.72 c-0.67,-0.67,-2.02,-1.85,-2.02,-2.94 c0,-0.76,0.59,-1.6,1.43,-1.6 c0.76,0,1.34,0.59,1.85,1.09 c1.51,-6.13,7.73,-9.32,13.36,-9.58 c6.72,-0.34,15.88,7.31,21,12.43 l-0.84,3.19 Z M274.44,94.11 c-3.36,-2.44,-7.73,-6.89,-12.18,-6.89 c-3.86,0,-5.12,1.85,-4.45,5.29 c3.53,2.44,11.84,9.91,11.84,14.11 c0,1.85,-2.27,2.35,-3.7,2.35 c-5.04,0,-15.54,-10.0,-15.54,-20.24 c0,-4.28,2.27,-10.0,7.22,-10.0 c6.38,0,13.78,7.56,17.56,12.18 Z M270.5,110.66 c3.61,0,6.72,4.12,6.72,7.48 c0,1.51,-1.26,2.6,-2.77,2.6 c-3.28,0,-7.31,-3.02,-7.31,-6.47 c0,-2.02,1.34,-3.61,3.36,-3.61 Z M309.14,92.43 c-1.51,-1.26,-5.21,-4.2,-7.22,-4.2 c-0.84,0,-1.51,0.76,-1.51,1.51 c0,5.8,10.33,12.18,10.33,15.46 c-0.25,1.76,-0.76,3.28,-1.26,4.54 c-0.5,1.18,-1.01,1.6,-1.34,1.6 c-2.44,0,-17.89,-10.33,-24.61,-18.9 c-0.34,-0.42,-1.09,-1.18,-1.68,-1.18 c-0.5,0,-0.92,0.42,-0.92,0.92 c0,2.02,10.58,10.5,10.58,13.78 c0,0.5,0.42,1.68,-4.62,1.85 c-1.43,0,-2.18,-0.08,-3.28,-1.01 c-4.87,-4.12,-10.16,-12.6,-9.91,-18.4 c0.08,-2.86,1.01,-8.15,4.7,-8.15 c2.27,0,5.38,4.12,6.64,5.71 c3.78,4.87,8.06,9.24,12.94,12.85 l0.17,-0.17 c-2.69,-3.86,-7.22,-9.41,-7.22,-14.45 c0,-2.86,1.51,-5.54,4.7,-5.54 c6.13,0,14.78,10.33,19.24,14.28 l-0.67,3.7 Z M330.05,80.67 c-4.62,-3.36,-17.39,-13.94,-17.39,-19.99 c0,-1.09,0.76,-2.02,1.93,-2.02 c3.28,0,10.67,5.38,19.49,19.4 l17.72,13.27 l-0.42,3.53 l-12.77,-9.16 l-0.17,0.17 l6.3,11.76 c0.59,1.09,1.76,3.02,1.76,4.28 c0,1.43,-1.51,4.28,-3.19,4.28 c-1.34,0,-2.35,-1.43,-3.19,-2.35 l-8.99,-9.91 c-3.19,-3.44,-8.32,-5.46,-10.67,-5.21 c-0.76,0,-1.26,0.17,-1.34,0.84 c-0.76,6.13,5.46,8.48,10.75,11.34 l9.58,5.21 c1.09,0.76,2.77,1.93,2.77,3.44 c0,1.85,-3.28,2.18,-4.45,2.1 c-6.47,-0.59,-24.78,-9.49,-24.78,-20.5 c0,-3.7,1.6,-9.83,6.3,-9.83 c4.62,0,13.44,7.64,16.46,11.0 l0.17,-0.17 Z M330.05,80.67" fill="rgb(0,0,0)" transform="matrix(1,0,0,-1,0,200)"/>
</svg>