<?xml version="1.0" encoding="UTF-8"?>
<svg height="200" version="1.1" width="500" xmlns="http://www.w3.org/2000/svg" xmlns:xlink="http://www.w3.org/1999/xlink">
 <path d="M0,0 l500,0 l0,200 l-500,0 Z M0,0" fill="rgb(255,255,255)" transform="matrix(1,0,0,-1,0,200)"/>
 <path d="M132.11,95.71 c-4.45,-3.53,-11.51,-9.66,-17.47,-9.66 c-2.69,0,-5.46,1.09,-5.21,4.28 l0.17,1.85 c16.13,5.29,20.24,11.51,20.24,15.62 c0,3.36,-3.36,4.03,-6.05,4.03 c-10.92,0.08,-23.1,-11.17,-22.76,-22.18 c0.17,-5.54,3.02,-11.0,9.16,-11.0 c8.32,0,17.56,7.9,22.68,13.86 Z M110.1,96.3 c2.27,5.54,7.14,9.58,11.34,10.67 c0.59,0.17,1.01,-0.34,1.01,-0.92 c0.08,-1.43,-4.96,-7.22,-12.35,-9.74 Z M153.69,101.42 c3.61,-0.76,7.81,6.05,7.48,7.81 c-0.08,0.42,-0.17,1.34,-1.09,1.34 c-1.76,0,-3.53,-1.68,-4.79,-2.86 l-7.48,-6.8 l0.25,7.64 c0.08,1.34,0.34,4.37,-1.68,4.37 c-2.52,0,-14.78,-10.67,-14.78,-12.35 c0,-0.59,0.34,-1.01,0.92,-1.09 c0.59,-0.08,1.85,0.76,8.06,3.95 l0.08,-10.08 l-4.45,-3.95 c-2.1,-0.59,-3.02,-1.18,-4.45,-2.86 c-0.76,-0.92,-2.94,-3.78,-2.94,-4.96 c0,-0.76,0.59,-1.18,1.34,-1.18 c1.68,0,4.37,2.52,5.54,3.61 l4.87,4.7 c0,-3.19,-1.01,-10.08,3.86,-10.08 c5.71,0,13.36,9.41,17.56,13.02 l-0.5,3.36 c-2.44,-2.02,-7.39,-6.89,-10.67,-6.89 c-2.52,0,-3.11,1.85,-3.02,3.95 l0.08,3.53 Z M179.31,88.65 c-2.27,0.76,-4.62,1.01,-7.06,0.84 c2.27,3.02,4.62,5.88,7.73,8.15 c1.09,0.76,5.12,3.36,6.47,3.36 c0.67,0,0.92,-0.59,0.92,-1.18 c0,-1.51,-1.18,-2.94,-2.1,-4.12 Z M166.55,81.43 c1.09,-0.25,2.18,-0.5,3.36,-0.5 c1.34,0,2.6,0.25,3.86,0.5 c2.02,-1.01,3.7,-1.68,5.96,-1.68 c9.07,0,16.63,6.05,22.85,12.1 l-0.59,3.86 c-8.99,-7.73,-10.67,-9.07,-17.89,-8.57 c9.41,8.32,13.61,14.11,13.61,18.73 c0,2.18,-1.26,3.95,-3.53,3.95 c-4.54,0,-13.02,-5.54,-16.63,-8.15 l-0.17,0.17 c1.68,3.78,4.28,6.89,7.14,9.91 c1.34,1.43,5.71,5.46,5.71,7.31 c0,1.6,-2.69,2.02,-3.86,2.02 c-3.19,0,-4.7,-2.44,-6.72,-4.62 l-22.26,-23.94 l0.34,-3.95 l13.27,12.68 l0.17,-0.17 c-5.46,-9.24,-9.66,-16.13,-13.52,-21.59 c-3.44,-4.87,-5.29,-9.07,-5.21,-13.27 c0,-1.51,0.5,-3.78,2.44,-3.78 c1.6,0,3.11,2.27,3.78,3.53 Z M232.32,95.71 c-4.45,-3.53,-11.51,-9.66,-17.47,-9.66 c-2.69,0,-5.46,1.09,-5.21,4.28 l0.17,1.85 c16.13,5.29,20.24,11.51,20.24,15.62 c0,3.36,-3.36,4.03,-6.05,4.03 c-10.92,0.08,-23.1,-11.17,-22.76,-22.18 c0.17,-5.54,3.02,-11.0,9.16,-11.0 c8.32,0,17.56,7.9,22.68,13.86 Z M210.31,96.3 c2.27,5.54,7.14,9.58,11.34,10.67 c0.59,0.17,1.01,-0.34,1.01,-0.92 c0.08,-1.43,-4.96,-7.22,-12.35,-9.74 Z M257.85,103.27 l0.17,-0.17 c-16.63,-16.8,-19.24,-16.55,-20.92,-16.88 c-1.26,-0.25,-1.6,1.26,-1.68,1.68 c0,4.12,2.44,9.24,22.43,15.37 Z M253.32,91.93 l0.17,-0.17 c-1.09,-2.27,-3.11,-6.72,-3.11,-9.41 c0,-2.44,1.26,-4.45,4.03,-4.45 c4.12,0,15.37,8.99,18.98,13.1 l-0.67,3.11 c-3.61,-2.44,-8.4,-6.72,-11.93,-6.72 c-1.34,0,-2.6,0.59,-2.6,2.02 c0,3.95,7.31,9.83,7.31,12.52 c0,1.85,-0.84,2.77,-2.44,3.44 c0.76,0.25,2.94,1.09,2.94,2.1 c0,1.01,-1.6,4.12,-5.46,4.03 c-9.74,-0.25,-31.58,-11.0,-31.25,-21.5 c0.17,-4.37,5.04,-9.91,7.39,-9.91 c1.93,0,7.31,4.37,8.9,5.63 Z M307.08,92.43 c-1.51,-1.26,-5.21,-4.2,-7.22,-4.2 c-0.84,0,-1.51,0.76,-1.51,1.51 c0,5.8,10.33,12.18,10.33,15.46 c-0.25,1.76,-0.76,3.28,-1.26,4.54 c-0.5,1.18,-1.01,1.6,-1.34,1.6 c-2.44,0,-17.89,-10.33,-24.61,-18.9 c-0.34,-0.42,-1.09,-1.18,-1.68,-1.18 c-0.5,0,-0.92,0.42,-0.92,0.92 c0,2.02,10.58,10.5,10.58,13.78 c0,0.5,0.42,1.68,-4.62,1.85 c-1.43,0,-2.18,-0.08,-3.28,-1.01 c-4.87,-4.12,-10.16,-12.6,-9.91,-18.4 c0.08,-2.86,1.01,-8.15,4.7,-8.15 c2.27,0,5.38,4.12,6.64,5.71 c3.78,4.87,8.06,9.24,12.94,12.85 l0.17,-0.17 c-2.69,-3.86,-7.22,-9.41,-7.22,-14.45 c0,-2.86,1.51,-5.54,4.7,-5.54 c6.13,0,14.78,10.33,19.24,14.28 l-0.67,3.7 Z M335.39,115.45 c0.84,1.18,3.28,3.95,3.28,5.46 c0,1.34,-1.6,1.6,-2.69,1.6 c-4.87,0,-6.72,-3.95,-9.24,-7.39 c-8.99,-0.34,-9.66,-1.68,-14.2,-9.07 l-0.92,-1.51 c4.45,0.67,2.86,0.34,7.98,0.34 c-3.11,-5.29,-7.73,-9.58,-12.77,-13.44 l0.92,-3.19 l4.28,3.44 l0.17,-0.17 c-1.09,-2.44,-2.18,-5.63,-2.18,-8.4 c0,-3.36,2.02,-5.63,5.29,-5.63 c7.14,0,16.21,8.99,21.17,13.52 l-0.42,3.7 c-8.74,-6.22,-11.76,-8.74,-14.45,-8.74 c-1.93,0,-2.52,1.09,-2.52,2.94 c0,5.04,4.79,11.93,7.64,15.62 c9.24,-0.59,9.91,2.52,13.86,10.5 Z M345.13,103.86 c3.95,8.65,8.74,16.21,12.85,18.23 c-1.51,-4.79,-6.72,-12.85,-12.68,-18.4 Z M361.51,94.95 c-3.36,-3.02,-9.83,-8.4,-14.45,-8.4 c-2.27,0,-3.44,1.68,-4.2,3.61 c-0.42,2.02,-0.17,4.37,0.59,5.8 c18.23,17.64,20.41,25.03,21,33.01 c0.08,1.09,-0.25,3.11,-1.68,3.11 c-2.69,0,-10.67,-7.81,-18.06,-16.97 c-5.46,-6.72,-9.24,-16.21,-9.24,-25.03 c0,-4.96,1.34,-10.92,7.48,-10.92 c7.22,0,15.12,8.48,19.74,13.27 Z M400.23,93.86 l-0.67,3.11 l-18.65,-16.55 l-0.17,0.17 l12.43,18.48 c1.18,1.76,3.44,5.21,3.44,7.39 c0,1.18,-0.84,4.45,-2.27,4.2 c-1.6,-0.25,-6.97,-6.05,-15.62,-14.03 c-3.53,-3.28,-7.56,-6.89,-12.01,-7.39 c0.08,1.76,0.59,3.44,1.6,4.87 c2.77,2.18,12.26,10.92,12.26,14.11 c0,1.18,-2.35,3.86,-3.61,3.86 c-2.35,-0.08,-16.72,-10.75,-16.38,-20.83 c0.25,-6.22,4.28,-9.74,6.64,-9.91 c1.01,-0.08,7.14,4.45,14.03,10.25 l0.17,-0.17 l-11.26,-18.98 c-0.67,-1.09,-2.27,-3.7,-2.27,-5.04 c0,-1.43,0.76,-5.54,2.52,-5.54 c1.34,0,3.7,3.28,4.54,4.2 Z M400.23,93.86" fill="rgb(0,0,0)" transform="matrix(1,0,0,-1,0,200)"/>
</svg>