<?xml version="1.0" encoding="UTF-8"?>
<svg height="200" version="1.1" width="500" xmlns="http://www.w3.org/2000/svg" xmlns:xlink="http://www.w3.org/1999/xlink">
 <path d="M0,0 l500,0 l0,200 l-500,0 Z M0,0" fill="rgb(255,255,255)" transform="matrix(1,0,0,-1,0,200)"/>
 <path d="M119.13,95.71 c-4.45,-3.53,-11.51,-9.66,-17.47,-9.66 c-2.69,0,-5.46,1.09,-5.21,4.28 l0.17,1.85 c16.13,5.29,20.24,11.51,20.24,15.62 c0,3.36,-3.36,4.03,-6.05,4.03 c-10.92,0.08,-23.1,-11.17,-22.76,-22.18 c0.17,-5.54,3.02,-11.0,9.16,-11.0 c8.32,0,17.56,7.9,22.68,13.86 Z M97.12,96.3 c2.27,5.54,7.14,9.58,11.34,10.67 c0.59,0.17,1.01,-0.34,1.01,-0.92 c0.08,-1.43,-4.96,-7.22,-12.35,-9.74 Z M140.72,101.42 c3.61,-0.76,7.81,6.05,7.48,7.81 c-0.08,0.42,-0.17,1.34,-1.09,1.34 c-1.76,0,-3.53,-1.68,-4.79,-2.86 l-7.48,-6.8 l0.25,7.64 c0.08,1.34,0.34,4.37,-1.68,4.37 c-2.52,0,-14.78,-10.67,-14.78,-12.35 c0,-0.59,0.34,-1.01,0.92,-1.09 c0.59,-0.08,1.85,0.76,8.06,3.95 l0.08,-10.08 l-4.45,-3.95 c-2.1,-0.59,-3.02,-1.18,-4.45,-2.86 c-0.76,-0.92,-2.94,-3.78,-2.94,-4.96 c0,-0.76,0.59,-1.18,1.34,-1.18 c1.68,0,4.37,2.52,5.54,3.61 l4.87,4.7 c0,-3.19,-1.01,-10.08,3.86,-10.08 c5.71,0,13.36,9.41,17.56,13.02 l-0.5,3.36 c-2.44,-2.02,-7.39,-6.89,-10.67,-6.89 c-2.52,0,-3.11,1.85,-3.02,3.95 l0.08,3.53 Z M166.34,88.65 c-2.27,0.76,-4.62,1.01,-7.06,0.84 c2.27,3.02,4.62,5.88,7.73,8.15 c1.09,0.76,5.12,3.36,6.47,3.36 c0.67,0,0.92,-0.59,0.92,-1.18 c0,-1.51,-1.18,-2.94,-2.1,-4.12 Z M153.57,81.43 c1.09,-0.25,2.18,-0.5,3.36,-0.5 c1.34,0,2.6,0.25,3.86,0.5 c2.02,-1.01,3.7,-1.68,5.96,-1.68 c9.07,0,16.63,6.05,22.85,12.1 l-0.59,3.86 c-8.99,-7.73,-10.67,-9.07,-17.89,-8.57 c9.41,8.32,13.61,14.11,13.61,18.73 c0,2.18,-1.26,3.95,-3.53,3.95 c-4.54,0,-13.02,-5.54,-16.63,-8.15 l-0.17,0.17 c1.68,3.78,4.28,6.89,7.14,9.91 c1.34,1.43,5.71,5.46,5.71,7.31 c0,1.6,-2.69,2.02,-3.86,2.02 c-3.19,0,-4.7,-2.44,-6.72,-4.62 l-22.26,-23.94 l0.34,-3.95 l13.27,12.68 l0.17,-0.17 c-5.46,-9.24,-9.66,-16.13,-13.52,-21.59 c-3.44,-4.87,-5.29,-9.07,-5.21,-13.27 c0,-1.51,0.5,-3.78,2.44,-3.78 c1.6,0,3.11,2.27,3.78,3.53 Z M219.34,95.71 c-4.45,-3.53,-11.51,-9.66,-17.47,-9.66 c-2.69,0,-5.46,1.09,-5.21,4.28 l0.17,1.85 c16.13,5.29,20.24,11.51,20.24,15.62 c0,3.36,-3.36,4.03,-6.05,4.03 c-10.92,0.08,-23.1,-11.17,-22.76,-22.18 c0.17,-5.54,3.02,-11.0,9.16,-11.0 c8.32,0,17.56,7.9,22.68,13.86 Z M197.33,96.3 c2.27,5.54,7.14,9.58,11.34,10.67 c0.59,0.17,1.01,-0.34,1.01,-0.92 c0.08,-1.43,-4.96,-7.22,-12.35,-9.74 Z M244.88,103.27 l0.17,-0.17 c-16.63,-16.8,-19.24,-16.55,-20.92,-16.88 c-1.26,-0.25,-1.6,1.26,-1.68,1.68 c0,4.12,2.44,9.24,22.43,15.37 Z M240.34,91.93 l0.17,-0.17 c-1.09,-2.27,-3.11,-6.72,-3.11,-9.41 c0,-2.44,1.26,-4.45,4.03,-4.45 c4.12,0,15.37,8.99,18.98,13.1 l-0.67,3.11 c-3.61,-2.44,-8.4,-6.72,-11.93,-6.72 c-1.34,0,-2.6,0.59,-2.6,2.02 c0,3.95,7.31,9.83,7.31,12.52 c0,1.85,-0.84,2.77,-2.44,3.44 c0.76,0.25,2.94,1.09,2.94,2.1 c0,1.01,-1.6,4.12,-5.46,4.03 c-9.74,-0.25,-31.58,-11.0,-31.25,-21.5 c0.17,-4.37,5.04,-9.91,7.39,-9.91 c1.93,0,7.31,4.37,8.9,5.63 Z M283.77,115.45 c0.84,1.18,3.28,3.95,3.28,5.46 c0,1.34,-1.6,1.6,-2.69,1.6 c-4.87,0,-6.72,-3.95,-9.24,-7.39 c-8.99,-0.34,-9.66,-1.68,-14.2,-9.07 l-0.92,-1.51 c4.45,0.67,2.86,0.34,7.98,0.34 c-3.11,-5.29,-7.73,-9.58,-12.77,-13.44 l0.92,-3.19 l4.28,3.44 l0.17,-0.17 c-1.09,-2.44,-2.18,-5.63,-2.18,-8.4 c0,-3.36,2.02,-5.63,5.29,-5.63 c7.14,0,16.21,8.99,21.17,13.52 l-0.42,3.7 c-8.74,-6.22,-11.76,-8.74,-14.45,-8.74 c-1.93,0,-2.52,1.09,-2.52,2.94 c0,5.04,4.79,11.93,7.64,15.62 c9.24,-0.59,9.91,2.52,13.86,10.5 Z M307.29,94.11 c-3.36,-2.44,-7.73,-6.89,-12.18,-6.89 c-3.86,0,-5.12,1.85,-4.45,5.29 c3.53,2.44,11.84,9.91,11.84,14.11 c0,1.85,-2.27,2.35,-3.7,2.35 c-5.04,0,-15.54,-10.0,-15.54,-20.24 c0,-4.28,2.27,-10.0,7.22,-10.0 c6.38,0,13.78,7.56,17.56,12.18 Z M303.34,110.66 c3.61,0,6.72,4.12,6.72,7.48 c0,1.51,-1.26,2.6,-2.77,2.6 c-3.28,0,-7.31,-3.02,-7.31,-6.47 c0,-2.02,1.34,-3.61,3.36,-3.61 Z M341.14,96.13 c-2.6,-1.93,-4.96,-5.12,-8.65,-4.45 c1.6,3.28,3.28,6.22,3.28,9.91 c0,2.52,-0.5,4.28,-3.02,4.96 c0.92,0.5,1.93,1.01,1.93,2.27 c0,2.27,-2.77,3.11,-4.62,3.02 c-5.12,-0.25,-11.17,-2.52,-15.71,-6.22 c-4.7,-3.61,-7.81,-7.81,-7.64,-14.11 c0.34,-7.64,4.37,-12.01,8.74,-12.01 c5.29,0,9.41,2.69,12.94,6.3 c6.13,0,9.83,2.02,13.61,6.8 Z M325.68,102.68 c0.34,-0.17,-3.61,-5.46,-3.61,-9.83 c0,-1.43,0.42,-2.52,1.01,-3.86 c-1.93,-1.76,-3.7,-3.36,-6.47,-3.36 c-2.1,0,-3.7,0.76,-3.7,3.19 c0,2.6,1.6,5.88,3.44,7.73 c2.52,2.44,6.47,4.45,9.32,6.13 Z M356.51,94.87 c-3.95,-3.53,-8.57,-5.96,-10.08,-5.96 c-0.59,0,-0.67,0.84,-0.67,1.26 c0,3.53,2.02,5.38,4.62,7.22 c3.28,2.35,3.78,3.11,6.38,6.05 c0.92,0.76,3.19,3.11,3.36,4.45 c0.34,2.52,-3.95,1.76,-5.12,1.76 c-1.43,0,-2.52,-0.17,-3.7,-0.92 c-5.38,-3.53,-11.68,-11.93,-11.68,-20.08 c0,-3.61,2.27,-8.32,6.38,-8.32 c4.62,0,10.25,7.56,13.52,10.42 l0.17,-0.17 c-0.84,-2.18,-1.76,-4.54,-1.76,-7.06 c0,-2.94,1.85,-5.54,4.96,-5.54 c6.22,0,15.12,9.66,19.4,13.78 l-0.5,3.61 c-2.52,-2.02,-9.74,-7.9,-12.94,-7.9 c-1.34,0,-2.1,0.5,-2.1,1.85 c0,3.78,5.96,10.42,8.65,12.85 c1.34,1.18,3.61,3.11,3.44,5.12 c-0.34,4.37,-1.26,4.62,-1.93,4.62 c-2.1,0,-10.33,-7.98,-12.1,-9.58 Z M393.89,104.02 c0.5,-2.86,0.84,-5.12,1.09,-6.89 c-0.25,-4.87,-1.6,-6.3,-6.64,-9.41 c-1.6,2.18,-3.44,4.79,-6.55,4.96 Z M405.32,90.58 c-4.12,-3.11,-7.39,-5.63,-12.77,-4.7 c5.38,3.28,10.92,8.4,10.92,15.29 c0,3.7,-1.26,6.55,-1.6,9.74 c-0.25,2.35,-0.76,3.11,-3.28,3.11 c-3.02,0,-4.62,-2.69,-4.79,-5.46 l-18.23,-16.72 c-0.67,-0.67,-2.02,-1.85,-2.02,-2.94 c0,-0.76,0.59,-1.6,1.43,-1.6 c0.76,0,1.34,0.59,1.85,1.09 c1.51,-6.13,7.73,-9.32,13.36,-9.58 c6.72,-0.34,15.88,7.31,21,12.43 l-0.84,3.19 Z M405.32,90.58" fill="rgb(0,0,0)" transform="matrix(1,0,0,-1,0,200)"/>
</svg>