<?xml version="1.0" encoding="UTF-8"?>
<svg height="200" version="1.1" width="500" xmlns="http://www.w3.org/2000/svg" xmlns:xlink="http://www.w3.org/1999/xlink">
 <path d="M0,0 l500,0 l0,200 l-500,0 Z M0,0" fill="rgb(255,255,255)" transform="matrix(1,0,0,-1,0,200)"/>
 <path d="M166.88,80.67 c-4.62,-3.36,-17.39,-13.94,-17.39,-19.99 c0,-1.09,0.76,-2.02,1.93,-2.02 c3.28,0,10.67,5.38,19.49,19.4 l17.72,13.27 l-0.42,3.53 l-12.77,-9.16 l-0.17,0.17 l6.3,11.76 c0.59,1.09,1.76,3.02,1.76,4.28 c0,1.43,-1.51,4.28,-3.19,4.28 c-1.34,0,-2.35,-1.43,-3.19,-2.35 l-8.99,-9.91 c-3.19,-3.44,-8.32,-5.46,-10.67,-5.21 c-0.76,0,-1.26,0.17,-1.34,0.84 c-0.76,6.13,5.46,8.48,10.75,11.34 l9.58,5.21 c1.09,0.76,2.77,1.93,2.77,3.44 c0,1.85,-3.28,2.18,-4.45,2.1 c-6.47,-0.59,-24.78,-9.49,-24.78,-20.5 c0,-3.7,1.6,-9.83,6.3,-9.83 c4.62,0,13.44,7.64,16.46,11.0 l0.17,-0.17 Z M202.16,100.16 l0.17,-0.17 c-3.36,-4.03,-7.73,-8.48,-7.73,-14.2 c0,-3.19,2.18,-6.47,5.71,-6.47 c4.79,0,14.45,9.32,17.64,12.94 l-0.59,3.11 c-2.77,-2.1,-8.06,-7.56,-11.68,-7.56 c-1.26,0,-2.6,1.01,-2.6,2.35 c0,3.36,4.12,7.48,6.55,9.58 c1.93,1.6,3.53,2.86,3.53,5.46 c-0.17,1.51,-0.76,2.86,-2.02,4.45 c-0.84,1.01,-5.46,0,-13.36,-1.09 c0.34,0.76,0.59,1.51,0.59,2.35 c0,0.76,-0.67,1.43,-1.51,1.43 c-2.02,0,-10.58,-6.05,-10.58,-12.1 c0,-1.76,0.5,-2.44,2.27,-2.6 c-1.6,-2.27,-3.36,-4.37,-5.54,-6.13 l0.34,-3.7 c3.61,3.61,7.14,5.8,10.08,10.42 Z M242.73,103.27 l0.17,-0.17 c-16.63,-16.8,-19.24,-16.55,-20.92,-16.88 c-1.26,-0.25,-1.6,1.26,-1.68,1.68 c0,4.12,2.44,9.24,22.43,15.37 Z M238.2,91.93 l0.17,-0.17 c-1.09,-2.27,-3.11,-6.72,-3.11,-9.41 c0,-2.44,1.26,-4.45,4.03,-4.45 c4.12,0,15.37,8.99,18.98,13.1 l-0.67,3.11 c-3.61,-2.44,-8.4,-6.72,-11.93,-6.72 c-1.34,0,-2.6,0.59,-2.6,2.02 c0,3.95,7.31,9.83,7.31,12.52 c0,1.85,-0.84,2.77,-2.44,3.44 c0.76,0.25,2.94,1.09,2.94,2.1 c0,1.01,-1.6,4.12,-5.46,4.03 c-9.74,-0.25,-31.58,-11.0,-31.25,-21.5 c0.17,-4.37,5.04,-9.91,7.39,-9.91 c1.93,0,7.31,4.37,8.9,5.63 Z M273.39,93.52 c-1.18,-1.18,-6.89,-6.22,-8.23,-6.22 c-0.76,0,-0.92,1.18,-0.92,1.85 c0,1.76,0.42,4.28,0.67,4.79 c3.44,2.69,14.28,11.76,14.28,16.04 c0,1.34,-1.18,2.52,-4.96,2.69 c-1.76,0.08,-3.28,-0.25,-10.42,-7.48 c-4.2,-4.2,-6.8,-7.81,-6.97,-14.03 c-0.17,-6.72,4.12,-11.0,8.82,-11.26 c4.12,-0.25,9.74,7.31,12.85,10.08 c-0.5,-7.98,0.59,-8.65,1.51,-9.83 c0.84,-0.92,1.76,-1.6,3.02,-1.6 c4.62,0,11.17,7.73,14.78,10.42 c1.85,-1.09,2.86,-1.68,5.04,-1.68 c3.86,0,6.72,2.44,9.24,5.04 l-0.17,3.7 c-1.6,-1.26,-4.54,-3.78,-6.64,-3.78 c-1.26,0,-1.85,0.5,-2.94,1.18 c2.77,3.36,5.71,7.22,5.71,11.84 c0,1.51,-0.67,4.2,-2.69,4.2 c-2.44,0,-5.8,-4.12,-7.14,-5.88 c-4.37,-5.63,-4.28,-7.14,-3.86,-10.33 c-1.76,-1.51,-5.8,-6.22,-8.15,-6.22 c-1.01,0,-1.6,0.76,-1.6,1.68 c0,3.11,5.71,12.85,7.56,15.71 c0.59,0.92,1.93,3.11,1.93,4.2 c0,1.01,-3.19,1.76,-4.03,1.76 c-1.18,0,-4.12,-3.78,-4.79,-4.62 Z M345.3,92.43 c-1.51,-1.26,-5.21,-4.2,-7.22,-4.2 c-0.84,0,-1.51,0.76,-1.51,1.51 c0,5.8,10.33,12.18,10.33,15.46 c-0.25,1.76,-0.76,3.28,-1.26,4.54 c-0.5,1.18,-1.01,1.6,-1.34,1.6 c-2.44,0,-17.89,-10.33,-24.61,-18.9 c-0.34,-0.42,-1.09,-1.18,-1.68,-1.18 c-0.5,0,-0.92,0.42,-0.92,0.92 c0,2.02,10.58,10.5,10.58,13.78 c0,0.5,0.42,1.68,-4.62,1.85 c-1.43,0,-2.18,-0.08,-3.28,-1.01 c-4.87,-4.12,-10.16,-12.6,-9.91,-18.4 c0.08,-2.86,1.01,-8.15,4.7,-8.15 c2.27,0,5.38,4.12,6.64,5.71 c3.78,4.87,8.06,9.24,12.94,12.85 l0.17,-0.17 c-2.69,-3.86,-7.22,-9.41,-7.22,-14.45 c0,-2.86,1.51,-5.54,4.7,-5.54 c6.13,0,14.78,10.33,19.24,14.28 l-0.67,3.7 Z M345.3,92.43" fill="rgb(0,0,0)" transform="matrix(1,0,0,-1,0,200)"/>
</svg>