<?xml version="1.0" encoding="UTF-8"?>
<svg height="200" version="1.1" width="500" xmlns="http://www.w3.org/2000/svg" xmlns:xlink="http://www.w3.org/1999/xlink">
 <path d="M0,0 l500,0 l0,200 l-500,0 Z M0,0" fill="rgb(255,255,255)" transform="matrix(1,0,0,-1,0,200)"/>
 <path d="M111.11,93.86 c5.38,5.29,32.09,33.01,32.09,38.72 c0,1.68,-2.27,2.27,-3.61,2.27 c-2.86,0,-19.57,-14.7,-29.48,-31.08 c-2.94,-4.79,-5.12,-8.82,-5.12,-14.62 c0,-1.93,0.42,-8.48,3.36,-8.48 c2.69,0,6.89,8.9,21.25,18.73 l0.17,-0.17 c-3.02,-3.95,-8.82,-10.33,-8.82,-15.62 c0,-2.27,1.34,-4.45,3.86,-4.45 c4.62,0,14.78,8.23,18.65,11.17 l-0.42,3.44 c-2.44,-1.6,-8.57,-6.13,-11.34,-6.13 c-1.01,0,-1.85,0.67,-1.85,1.76 c0,0.84,-0.25,1.09,4.96,7.39 c1.01,1.18,4.37,4.87,4.37,6.47 c0,1.93,-2.02,4.03,-4.03,4.03 c-4.62,0,-19.91,-13.44,-24.02,-16.72 Z M173.35,95.71 c-4.45,-3.53,-11.51,-9.66,-17.47,-9.66 c-2.69,0,-5.46,1.09,-5.21,4.28 l0.17,1.85 c16.13,5.29,20.24,11.51,20.24,15.62 c0,3.36,-3.36,4.03,-6.05,4.03 c-10.92,0.08,-23.1,-11.17,-22.76,-22.18 c0.17,-5.54,3.02,-11.0,9.16,-11.0 c8.32,0,17.56,7.9,22.68,13.86 Z M151.34,96.3 c2.27,5.54,7.14,9.58,11.34,10.67 c0.59,0.17,1.01,-0.34,1.01,-0.92 c0.08,-1.43,-4.96,-7.22,-12.35,-9.74 Z M198.89,103.27 l0.17,-0.17 c-16.63,-16.8,-19.24,-16.55,-20.92,-16.88 c-1.26,-0.25,-1.6,1.26,-1.68,1.68 c0,4.12,2.44,9.24,22.43,15.37 Z M194.35,91.93 l0.17,-0.17 c-1.09,-2.27,-3.11,-6.72,-3.11,-9.41 c0,-2.44,1.26,-4.45,4.03,-4.45 c4.12,0,15.37,8.99,18.98,13.1 l-0.67,3.11 c-3.61,-2.44,-8.4,-6.72,-11.93,-6.72 c-1.34,0,-2.6,0.59,-2.6,2.02 c0,3.95,7.31,9.83,7.31,12.52 c0,1.85,-0.84,2.77,-2.44,3.44 c0.76,0.25,2.94,1.09,2.94,2.1 c0,1.01,-1.6,4.12,-5.46,4.03 c-9.74,-0.25,-31.58,-11.0,-31.25,-21.5 c0.17,-4.37,5.04,-9.91,7.39,-9.91 c1.93,0,7.31,4.37,8.9,5.63 Z M237.78,115.45 c0.84,1.18,3.28,3.95,3.28,5.46 c0,1.34,-1.6,1.6,-2.69,1.6 c-4.87,0,-6.72,-3.95,-9.24,-7.39 c-8.99,-0.34,-9.66,-1.68,-14.2,-9.07 l-0.92,-1.51 c4.45,0.67,2.86,0.34,7.98,0.34 c-3.11,-5.29,-7.73,-9.58,-12.77,-13.44 l0.92,-3.19 l4.28,3.44 l0.17,-0.17 c-1.09,-2.44,-2.18,-5.63,-2.18,-8.4 c0,-3.36,2.02,-5.63,5.29,-5.63 c7.14,0,16.21,8.99,21.17,13.52 l-0.42,3.7 c-8.74,-6.22,-11.76,-8.74,-14.45,-8.74 c-1.93,0,-2.52,1.09,-2.52,2.94 c0,5.04,4.79,11.93,7.64,15.62 c9.24,-0.59,9.91,2.52,13.86,10.5 Z M262.31,115.45 c0.84,1.18,3.28,3.95,3.28,5.46 c0,1.34,-1.6,1.6,-2.69,1.6 c-4.87,0,-6.72,-3.95,-9.24,-7.39 c-8.99,-0.34,-9.66,-1.68,-14.2,-9.07 l-0.92,-1.51 c4.45,0.67,2.86,0.34,7.98,0.34 c-3.11,-5.29,-7.73,-9.58,-12.77,-13.44 l0.92,-3.19 l4.28,3.44 l0.17,-0.17 c-1.09,-2.44,-2.18,-5.63,-2.18,-8.4 c0,-3.36,2.02,-5.63,5.29,-5.63 c7.14,0,16.21,8.99,21.17,13.52 l-0.42,3.7 c-8.74,-6.22,-11.76,-8.74,-14.45,-8.74 c-1.93,0,-2.52,1.09,-2.52,2.94 c0,5.04,4.79,11.93,7.64,15.62 c9.24,-0.59,9.91,2.52,13.86,10.5 Z M293.3,95.71 c-4.45,-3.53,-11.51,-9.66,-17.47,-9.66 c-2.69,0,-5.46,1.09,-5.21,4.28 l0.17,1.85 c16.13,5.29,20.24,11.51,20.24,15.62 c0,3.36,-3.36,4.03,-6.05,4.03 c-10.92,0.08,-23.1,-11.17,-22.76,-22.18 c0.17,-5.54,3.02,-11.0,9.16,-11.0 c8.32,0,17.56,7.9,22.68,13.86 Z M271.29,96.3 c2.27,5.54,7.14,9.58,11.34,10.67 c0.59,0.17,1.01,-0.34,1.01,-0.92 c0.08,-1.43,-4.96,-7.22,-12.35,-9.74 Z M307.5,100.16 l0.17,-0.17 c-3.36,-4.03,-7.73,-8.48,-7.73,-14.2 c0,-3.19,2.18,-6.47,5.71,-6.47 c4.79,0,14.45,9.32,17.64,12.94 l-0.59,3.11 c-2.77,-2.1,-8.06,-7.56,-11.68,-7.56 c-1.26,0,-2.6,1.01,-2.6,2.35 c0,3.36,4.12,7.48,6.55,9.58 c1.93,1.6,3.53,2.86,3.53,5.46 c-0.17,1.51,-0.76,2.86,-2.02,4.45 c-0.84,1.01,-5.46,0,-13.36,-1.09 c0.34,0.76,0.59,1.51,0.59,2.35 c0,0.76,-0.67,1.43,-1.51,1.43 c-2.02,0,-10.58,-6.05,-10.58,-12.1 c0,-1.76,0.5,-2.44,2.27,-2.6 c-1.6,-2.27,-3.36,-4.37,-5.54,-6.13 l0.34,-3.7 c3.61,3.61,7.14,5.8,10.08,10.42 Z M352.52,95.71 c-4.45,-3.53,-11.51,-9.66,-17.47,-9.66 c-2.69,0,-5.46,1.09,-5.21,4.28 l0.17,1.85 c16.13,5.29,20.24,11.51,20.24,15.62 c0,3.36,-3.36,4.03,-6.05,4.03 c-10.92,0.08,-23.1,-11.17,-22.76,-22.18 c0.17,-5.54,3.02,-11.0,9.16,-11.0 c8.32,0,17.56,7.9,22.68,13.86 Z M330.51,96.3 c2.27,5.54,7.14,9.58,11.34,10.67 c0.59,0.17,1.01,-0.34,1.01,-0.92 c0.08,-1.43,-4.96,-7.22,-12.35,-9.74 Z M394.27,119.23 c1.34,2.1,3.61,5.54,3.61,8.06 c0,1.51,-1.01,3.19,-2.69,3.19 c-6.13,0,-13.52,-17.39,-16.3,-22.18 c-1.09,1.26,-1.76,2.44,-3.53,2.35 c-7.14,-0.42,-23.86,-8.82,-23.86,-18.73 c0,-2.94,2.35,-11.0,6.13,-11.0 c3.78,0,11.59,8.15,14.53,10.67 c-0.34,-2.1,-0.67,-4.28,-0.67,-6.38 c0,-2.69,1.26,-6.05,4.45,-6.05 c6.13,0,14.78,8.82,18.73,13.19 l-0.59,2.77 c-2.69,-1.76,-10.42,-8.57,-13.27,-8.57 c-1.85,0,-1.93,2.86,-1.93,4.2 c0,5.38,4.03,10.84,6.8,15.2 Z M376.04,103.35 c-1.34,-4.96,-14.87,-15.04,-15.88,-14.78 c-0.92,0.17,-1.34,0.84,-1.26,1.6 c0.5,5.54,2.35,8.4,17.14,13.19 Z M376.04,103.35" fill="rgb(0,0,0)" transform="matrix(1,0,0,-1,0,200)"/>
</svg>