<?xml version="1.0" encoding="UTF-8"?>
<svg height="200" version="1.1" width="500" xmlns="http://www.w3.org/2000/svg" xmlns:xlink="http://www.w3.org/1999/xlink">
 <path d="M0,0 l500,0 l0,200 l-500,0 Z M0,0" fill="rgb(255,255,255)" transform="matrix(1,0,0,-1,0,200)"/>
 <path d="M154.37,97.3 l0.17,-0.17 c-2.1,-3.44,-6.22,-9.41,-6.22,-13.61 c0,-2.44,1.76,-4.87,4.28,-4.87 c4.7,0,16.8,9.91,20.75,13.02 l-0.5,3.95 c-10.33,-7.06,-11.26,-7.06,-13.02,-7.48 c-1.01,-0.25,-2.1,1.09,-2.02,2.1 c0.08,1.93,0.59,3.28,7.14,10.5 c0.92,1.01,2.6,2.86,2.6,4.28 c0,1.18,-0.92,2.44,-1.51,3.36 c-0.25,0.34,-1.09,2.35,-1.76,2.35 c-1.01,0,-3.11,-1.68,-3.95,-2.35 l-18.65,-14.7 l-0.17,0.17 c1.85,3.28,7.81,10.08,7.81,13.78 c0,2.18,-1.18,3.86,-3.44,3.86 c-5.46,0,-20.41,-14.95,-24.53,-19.24 c-0.25,-0.25,-1.26,-1.34,-1.68,-1.34 c-0.34,0,-0.59,0.59,-0.59,0.76 c0,1.76,1.51,3.11,2.44,4.37 c1.26,1.85,3.11,3.36,4.62,5.12 c1.01,1.18,3.36,3.7,3.36,5.38 c0,1.76,-2.52,1.76,-3.78,1.93 c-5.04,0.67,-13.94,-10.58,-14.03,-18.82 c0,-3.02,1.18,-9.58,5.21,-9.58 c1.51,0,2.69,1.26,3.61,2.35 c3.95,4.87,8.65,9.91,13.02,14.53 c0.59,0.59,2.44,2.6,3.28,2.6 c0.34,0,0.59,-0.25,0.59,-0.59 c0,-0.25,-0.34,-0.92,-0.5,-1.09 c-5.46,-8.32,-7.48,-12.18,-7.39,-14.62 c0.08,-2.02,1.68,-3.53,3.7,-3.53 c2.86,0,5.88,3.44,7.81,5.29 Z M205.69,96.13 c-2.6,-1.93,-4.96,-5.12,-8.65,-4.45 c1.6,3.28,3.28,6.22,3.28,9.91 c0,2.52,-0.5,4.28,-3.02,4.96 c0.92,0.5,1.93,1.01,1.93,2.27 c0,2.27,-2.77,3.11,-4.62,3.02 c-5.12,-0.25,-11.17,-2.52,-15.71,-6.22 c-4.7,-3.61,-7.81,-7.81,-7.64,-14.11 c0.34,-7.64,4.37,-12.01,8.74,-12.01 c5.29,0,9.41,2.69,12.94,6.3 c6.13,0,9.83,2.02,13.61,6.8 Z M190.23,102.68 c0.34,-0.17,-3.61,-5.46,-3.61,-9.83 c0,-1.43,0.42,-2.52,1.01,-3.86 c-1.93,-1.76,-3.7,-3.36,-6.47,-3.36 c-2.1,0,-3.7,0.76,-3.7,3.19 c0,2.6,1.6,5.88,3.44,7.73 c2.52,2.44,6.47,4.45,9.32,6.13 Z M225.26,108.73 c5.38,5.21,17.81,17.81,17.81,25.45 c0,1.6,-0.76,3.11,-2.44,3.11 c-3.53,0,-16.72,-10.25,-23.52,-18.4 c-6.64,-7.9,-11.59,-16.88,-11.59,-27.47 c0,-4.03,0.76,-12.18,6.22,-12.18 c5.54,0,11.42,5.12,15.04,8.9 c5.38,0.08,9.66,1.43,13.44,5.38 l-0.84,2.77 c-2.69,-1.93,-5.46,-3.78,-8.9,-3.11 c1.43,3.11,4.03,6.97,4.03,10.5 c0,1.6,-0.5,3.7,-2.52,3.7 c-4.96,0,-11.68,-8.23,-11.68,-13.1 c0,-1.34,0.5,-2.18,1.18,-3.28 c-1.43,-1.68,-2.94,-3.95,-5.63,-4.37 c-3.19,-0.42,-5.21,3.95,-3.7,9.24 Z M236.01,130.06 l0.17,-0.17 c-1.43,-3.02,-3.28,-7.81,-20.83,-25.28 l-0.17,0.17 c4.96,9.74,12.52,18.23,20.83,25.28 Z M262.05,94.11 c-3.36,-2.44,-7.73,-6.89,-12.18,-6.89 c-3.86,0,-5.12,1.85,-4.45,5.29 c3.53,2.44,11.84,9.91,11.84,14.11 c0,1.85,-2.27,2.35,-3.7,2.35 c-5.04,0,-15.54,-10.0,-15.54,-20.24 c0,-4.28,2.27,-10.0,7.22,-10.0 c6.38,0,13.78,7.56,17.56,12.18 Z M258.11,110.66 c3.61,0,6.72,4.12,6.72,7.48 c0,1.51,-1.26,2.6,-2.77,2.6 c-3.28,0,-7.31,-3.02,-7.31,-6.47 c0,-2.02,1.34,-3.61,3.36,-3.61 Z M292.88,95.71 c-4.45,-3.53,-11.51,-9.66,-17.47,-9.66 c-2.69,0,-5.46,1.09,-5.21,4.28 l0.17,1.85 c16.13,5.29,20.24,11.51,20.24,15.62 c0,3.36,-3.36,4.03,-6.05,4.03 c-10.92,0.08,-23.1,-11.17,-22.76,-22.18 c0.17,-5.54,3.02,-11.0,9.16,-11.0 c8.32,0,17.56,7.9,22.68,13.86 Z M270.87,96.3 c2.27,5.54,7.14,9.58,11.34,10.67 c0.59,0.17,1.01,-0.34,1.01,-0.92 c0.08,-1.43,-4.96,-7.22,-12.35,-9.74 Z M314.89,104.36 c-2.27,-2.86,-4.54,-6.05,-4.2,-9.91 c-1.76,-1.68,-8.4,-7.81,-10.84,-7.81 c-1.68,0,-2.02,1.93,-2.02,3.28 c0,1.34,0.84,3.61,1.26,4.96 c3.02,2.52,10.92,11.0,10.92,14.78 c0,1.76,-3.86,1.93,-5.04,1.93 c-2.94,0,-13.27,-8.06,-13.27,-19.66 c0,-6.38,3.36,-12.68,8.32,-12.68 c3.28,0,11.76,7.39,14.11,10.08 c1.43,-1.01,2.6,-2.18,4.37,-2.18 c4.7,0,7.81,2.6,10.75,5.96 l-0.59,3.53 c-1.85,-1.26,-4.96,-3.36,-7.14,-3.36 c-1.34,0,-1.93,0.25,-2.86,1.09 c2.1,2.94,6.97,10.84,6.97,14.2 c0,1.68,-0.84,2.77,-2.52,2.77 c-2.94,0,-6.64,-4.87,-8.23,-6.97 Z M358.57,95.71 c-4.45,-3.53,-11.51,-9.66,-17.47,-9.66 c-2.69,0,-5.46,1.09,-5.21,4.28 l0.17,1.85 c16.13,5.29,20.24,11.51,20.24,15.62 c0,3.36,-3.36,4.03,-6.05,4.03 c-10.92,0.08,-23.1,-11.17,-22.76,-22.18 c0.17,-5.54,3.02,-11.0,9.16,-11.0 c8.32,0,17.56,7.9,22.68,13.86 Z M336.56,96.3 c2.27,5.54,7.14,9.58,11.34,10.67 c0.59,0.17,1.01,-0.34,1.01,-0.92 c0.08,-1.43,-4.96,-7.22,-12.35,-9.74 Z M372.77,100.16 l0.17,-0.17 c-3.36,-4.03,-7.73,-8.48,-7.73,-14.2 c0,-3.19,2.18,-6.47,5.71,-6.47 c4.79,0,14.45,9.32,17.64,12.94 l-0.59,3.11 c-2.77,-2.1,-8.06,-7.56,-11.68,-7.56 c-1.26,0,-2.6,1.01,-2.6,2.35 c0,3.36,4.12,7.48,6.55,9.58 c1.93,1.6,3.53,2.86,3.53,5.46 c-0.17,1.51,-0.76,2.86,-2.02,4.45 c-0.84,1.01,-5.46,0,-13.36,-1.09 c0.34,0.76,0.59,1.51,0.59,2.35 c0,0.76,-0.67,1.43,-1.51,1.43 c-2.02,0,-10.58,-6.05,-10.58,-12.1 c0,-1.76,0.5,-2.44,2.27,-2.6 c-1.6,-2.27,-3.36,-4.37,-5.54,-6.13 l0.34,-3.7 c3.61,3.61,7.14,5.8,10.08,10.42 Z M372.77,100.16" fill="rgb(0,0,0)" transform="matrix(1,0,0,-1,0,200)"/>
</svg>