<?xml version="1.0" encoding="UTF-8"?>
<svg height="200" version="1.1" width="500" xmlns="http://www.w3.org/2000/svg" xmlns:xlink="http://www.w3.org/1999/xlink">
 <path d="M0,0 l500,0 l0,200 l-500,0 Z M0,0" fill="rgb(255,255,255)" transform="matrix(1,0,0,-1,0,200)"/>
 <path d="M159.74,88.65 c-2.27,0.76,-4.62,1.01,-7.06,0.84 c2.27,3.02,4.62,5.88,7.73,8.15 c1.09,0.76,5.12,3.36,6.47,3.36 c0.67,0,0.92,-0.59,0.92,-1.18 c0,-1.51,-1.18,-2.94,-2.1,-4.12 Z M146.97,81.43 c1.09,-0.25,2.18,-0.5,3.36,-0.5 c1.34,0,2.6,0.25,3.86,0.5 c2.02,-1.01,3.7,-1.68,5.96,-1.68 c9.07,0,16.63,6.05,22.85,12.1 l-0.59,3.86 c-8.99,-7.73,-10.67,-9.07,-17.89,-8.57 c9.41,8.32,13.61,14.11,13.61,18.73 c0,2.18,-1.26,3.95,-3.53,3.95 c-4.54,0,-13.02,-5.54,-16.63,-8.15 l-0.17,0.17 c1.68,3.78,4.28,6.89,7.14,9.91 c1.34,1.43,5.71,5.46,5.71,7.31 c0,1.6,-2.69,2.02,-3.86,2.02 c-3.19,0,-4.7,-2.44,-6.72,-4.62 l-22.26,-23.94 l0.34,-3.95 l13.27,12.68 l0.17,-0.17 c-5.46,-9.24,-9.66,-16.13,-13.52,-21.59 c-3.44,-4.87,-5.29,-9.07,-5.21,-13.27 c0,-1.51,0.5,-3.78,2.44,-3.78 c1.6,0,3.11,2.27,3.78,3.53 Z M212.75,95.71 c-4.45,-3.53,-11.51,-9.66,-17.47,-9.66 c-2.69,0,-5.46,1.09,-5.21,4.28 l0.17,1.85 c16.13,5.29,20.24,11.51,20.24,15.62 c0,3.36,-3.36,4.03,-6.05,4.03 c-10.92,0.08,-23.1,-11.17,-22.76,-22.18 c0.17,-5.54,3.02,-11.0,9.16,-11.0 c8.32,0,17.56,7.9,22.68,13.86 Z M190.74,96.3 c2.27,5.54,7.14,9.58,11.34,10.67 c0.59,0.17,1.01,-0.34,1.01,-0.92 c0.08,-1.43,-4.96,-7.22,-12.35,-9.74 Z M245.76,96.13 c-2.6,-1.93,-4.96,-5.12,-8.65,-4.45 c1.6,3.28,3.28,6.22,3.28,9.91 c0,2.52,-0.5,4.28,-3.02,4.96 c0.92,0.5,1.93,1.01,1.93,2.27 c0,2.27,-2.77,3.11,-4.62,3.02 c-5.12,-0.25,-11.17,-2.52,-15.71,-6.22 c-4.7,-3.61,-7.81,-7.81,-7.64,-14.11 c0.34,-7.64,4.37,-12.01,8.74,-12.01 c5.29,0,9.41,2.69,12.94,6.3 c6.13,0,9.83,2.02,13.61,6.8 Z M230.3,102.68 c0.34,-0.17,-3.61,-5.46,-3.61,-9.83 c0,-1.43,0.42,-2.52,1.01,-3.86 c-1.93,-1.76,-3.7,-3.36,-6.47,-3.36 c-2.1,0,-3.7,0.76,-3.7,3.19 c0,2.6,1.6,5.88,3.44,7.73 c2.52,2.44,6.47,4.45,9.32,6.13 Z M263.99,88.65 c-2.27,0.76,-4.62,1.01,-7.06,0.84 c2.27,3.02,4.62,5.88,7.73,8.15 c1.09,0.76,5.12,3.36,6.47,3.36 c0.67,0,0.92,-0.59,0.92,-1.18 c0,-1.51,-1.18,-2.94,-2.1,-4.12 Z M251.22,81.43 c1.09,-0.25,2.18,-0.5,3.36,-0.5 c1.34,0,2.6,0.25,3.86,0.5 c2.02,-1.01,3.7,-1.68,5.96,-1.68 c9.07,0,16.63,6.05,22.85,12.1 l-0.59,3.86 c-8.99,-7.73,-10.67,-9.07,-17.89,-8.57 c9.41,8.32,13.61,14.11,13.61,18.73 c0,2.18,-1.26,3.95,-3.53,3.95 c-4.54,0,-13.02,-5.54,-16.63,-8.15 l-0.17,0.17 c1.68,3.78,4.28,6.89,7.14,9.91 c1.34,1.43,5.71,5.46,5.71,7.31 c0,1.6,-2.69,2.02,-3.86,2.02 c-3.19,0,-4.7,-2.44,-6.72,-4.62 l-22.26,-23.94 l0.34,-3.95 l13.27,12.68 l0.17,-0.17 c-5.46,-9.24,-9.66,-16.13,-13.52,-21.59 c-3.44,-4.87,-5.29,-9.07,-5.21,-13.27 c0,-1.51,0.5,-3.78,2.44,-3.78 c1.6,0,3.11,2.27,3.78,3.53 Z M316.99,95.71 c-4.45,-3.53,-11.51,-9.66,-17.47,-9.66 c-2.69,0,-5.46,1.09,-5.21,4.28 l0.17,1.85 c16.13,5.29,20.24,11.51,20.24,15.62 c0,3.36,-3.36,4.03,-6.05,4.03 c-10.92,0.08,-23.1,-11.17,-22.76,-22.18 c0.17,-5.54,3.02,-11.0,9.16,-11.0 c8.32,0,17.56,7.9,22.68,13.86 Z M294.98,96.3 c2.27,5.54,7.14,9.58,11.34,10.67 c0.59,0.17,1.01,-0.34,1.01,-0.92 c0.08,-1.43,-4.96,-7.22,-12.35,-9.74 Z M358.74,119.23 c1.34,2.1,3.61,5.54,3.61,8.06 c0,1.51,-1.01,3.19,-2.69,3.19 c-6.13,0,-13.52,-17.39,-16.3,-22.18 c-1.09,1.26,-1.76,2.44,-3.53,2.35 c-7.14,-0.42,-23.86,-8.82,-23.86,-18.73 c0,-2.94,2.35,-11.0,6.13,-11.0 c3.78,0,11.59,8.15,14.53,10.67 c-0.34,-2.1,-0.67,-4.28,-0.67,-6.38 c0,-2.69,1.26,-6.05,4.45,-6.05 c6.13,0,14.78,8.82,18.73,13.19 l-0.59,2.77 c-2.69,-1.76,-10.42,-8.57,-13.27,-8.57 c-1.85,0,-1.93,2.86,-1.93,4.2 c0,5.38,4.03,10.84,6.8,15.2 Z M340.51,103.35 c-1.34,-4.96,-14.87,-15.04,-15.88,-14.78 c-0.92,0.17,-1.34,0.84,-1.26,1.6 c0.5,5.54,2.35,8.4,17.14,13.19 Z M340.51,103.35" fill="rgb(0,0,0)" transform="matrix(1,0,0,-1,0,200)"/>
</svg>