<?xml version="1.0" encoding="UTF-8"?>
<svg height="200" version="1.1" width="500" xmlns="http://www.w3.org/2000/svg" xmlns:xlink="http://www.w3.org/1999/xlink">
 <path d="M0,0 l500,0 l0,200 l-500,0 Z M0,0" fill="rgb(255,255,255)" transform="matrix(1,0,0,-1,0,200)"/>
 <path d="M169.91,104.36 c-2.27,-2.86,-4.54,-6.05,-4.2,-9.91 c-1.76,-1.68,-8.4,-7.81,-10.84,-7.81 c-1.68,0,-2.02,1.93,-2.02,3.28 c0,1.34,0.84,3.61,1.26,4.96 c3.02,2.52,10.92,11.0,10.92,14.78 c0,1.76,-3.86,1.93,-5.04,1.93 c-2.94,0,-13.27,-8.06,-13.27,-19.66 c0,-6.38,3.36,-12.68,8.32,-12.68 c3.28,0,11.76,7.39,14.11,10.08 c1.43,-1.01,2.6,-2.18,4.37,-2.18 c4.7,0,7.81,2.6,10.75,5.96 l-0.59,3.53 c-1.85,-1.26,-4.96,-3.36,-7.14,-3.36 c-1.34,0,-1.93,0.25,-2.86,1.09 c2.1,2.94,6.97,10.84,6.97,14.2 c0,1.68,-0.84,2.77,-2.52,2.77 c-2.94,0,-6.64,-4.87,-8.23,-6.97 Z M206.11,94.11 c-3.36,-2.44,-7.73,-6.89,-12.18,-6.89 c-3.86,0,-5.12,1.85,-4.45,5.29 c3.53,2.44,11.84,9.91,11.84,14.11 c0,1.85,-2.27,2.35,-3.7,2.35 c-5.04,0,-15.54,-10.0,-15.54,-20.24 c0,-4.28,2.27,-10.0,7.22,-10.0 c6.38,0,13.78,7.56,17.56,12.18 Z M202.16,110.66 c3.61,0,6.72,4.12,6.72,7.48 c0,1.51,-1.26,2.6,-2.77,2.6 c-3.28,0,-7.31,-3.02,-7.31,-6.47 c0,-2.02,1.34,-3.61,3.36,-3.61 Z M219.3,104.02 c0.5,-2.86,0.84,-5.12,1.09,-6.89 c-0.25,-4.87,-1.6,-6.3,-6.64,-9.41 c-1.6,2.18,-3.44,4.79,-6.55,4.96 Z M230.72,90.58 c-4.12,-3.11,-7.39,-5.63,-12.77,-4.7 c5.38,3.28,10.92,8.4,10.92,15.29 c0,3.7,-1.26,6.55,-1.6,9.74 c-0.25,2.35,-0.76,3.11,-3.28,3.11 c-3.02,0,-4.62,-2.69,-4.79,-5.46 l-18.23,-16.72 c-0.67,-0.67,-2.02,-1.85,-2.02,-2.94 c0,-0.76,0.59,-1.6,1.43,-1.6 c0.76,0,1.34,0.59,1.85,1.09 c1.51,-6.13,7.73,-9.32,13.36,-9.58 c6.72,-0.34,15.88,7.31,21,12.43 l-0.84,3.19 Z M249.45,104.02 c0.5,-2.86,0.84,-5.12,1.09,-6.89 c-0.25,-4.87,-1.6,-6.3,-6.64,-9.41 c-1.6,2.18,-3.44,4.79,-6.55,4.96 Z M260.88,90.58 c-4.12,-3.11,-7.39,-5.63,-12.77,-4.7 c5.38,3.28,10.92,8.4,10.92,15.29 c0,3.7,-1.26,6.55,-1.6,9.74 c-0.25,2.35,-0.76,3.11,-3.28,3.11 c-3.02,0,-4.62,-2.69,-4.79,-5.46 l-18.23,-16.72 c-0.67,-0.67,-2.02,-1.85,-2.02,-2.94 c0,-0.76,0.59,-1.6,1.43,-1.6 c0.76,0,1.34,0.59,1.85,1.09 c1.51,-6.13,7.73,-9.32,13.36,-9.58 c6.72,-0.34,15.88,7.31,21,12.43 l-0.84,3.19 Z M289.77,94.11 c-3.36,-2.44,-7.73,-6.89,-12.18,-6.89 c-3.86,0,-5.12,1.85,-4.45,5.29 c3.53,2.44,11.84,9.91,11.84,14.11 c0,1.85,-2.27,2.35,-3.7,2.35 c-5.04,0,-15.54,-10.0,-15.54,-20.24 c0,-4.28,2.27,-10.0,7.22,-10.0 c6.38,0,13.78,7.56,17.56,12.18 Z M285.83,110.66 c3.61,0,6.72,4.12,6.72,7.48 c0,1.51,-1.26,2.6,-2.77,2.6 c-3.28,0,-7.31,-3.02,-7.31,-6.47 c0,-2.02,1.34,-3.61,3.36,-3.61 Z M299.35,103.86 c3.95,8.65,8.74,16.21,12.85,18.23 c-1.51,-4.79,-6.72,-12.85,-12.68,-18.4 Z M315.73,94.95 c-3.36,-3.02,-9.83,-8.4,-14.45,-8.4 c-2.27,0,-3.44,1.68,-4.2,3.61 c-0.42,2.02,-0.17,4.37,0.59,5.8 c18.23,17.64,20.41,25.03,21,33.01 c0.08,1.09,-0.25,3.11,-1.68,3.11 c-2.69,0,-10.67,-7.81,-18.06,-16.97 c-5.46,-6.72,-9.24,-16.21,-9.24,-25.03 c0,-4.96,1.34,-10.92,7.48,-10.92 c7.22,0,15.12,8.48,19.74,13.27 Z M354.45,93.86 l-0.67,3.11 l-18.65,-16.55 l-0.17,0.17 l12.43,18.48 c1.18,1.76,3.44,5.21,3.44,7.39 c0,1.18,-0.84,4.45,-2.27,4.2 c-1.6,-0.25,-6.97,-6.05,-15.62,-14.03 c-3.53,-3.28,-7.56,-6.89,-12.01,-7.39 c0.08,1.76,0.59,3.44,1.6,4.87 c2.77,2.18,12.26,10.92,12.26,14.11 c0,1.18,-2.35,3.86,-3.61,3.86 c-2.35,-0.08,-16.72,-10.75,-16.38,-20.83 c0.25,-6.22,4.28,-9.74,6.64,-9.91 c1.01,-0.08,7.14,4.45,14.03,10.25 l0.17,-0.17 l-11.26,-18.98 c-0.67,-1.09,-2.27,-3.7,-2.27,-5.04 c0,-1.43,0.76,-5.54,2.52,-5.54 c1.34,0,3.7,3.28,4.54,4.2 Z M354.45,93.86" fill="rgb(0,0,0)" transform="matrix(1,0,0,-1,0,200)"/>
</svg>