<?xml version="1.0" encoding="UTF-8"?>
<svg height="200" version="1.1" width="500" xmlns="http://www.w3.org/2000/svg" xmlns:xlink="http://www.w3.org/1999/xlink">
 <path d="M0,0 l500,0 l0,200 l-500,0 Z M0,0" fill="rgb(255,255,255)" transform="matrix(1,0,0,-1,0,200)"/>
 <path d="M170.79,104.36 c-2.27,-2.86,-4.54,-6.05,-4.2,-9.91 c-1.76,-1.68,-8.4,-7.81,-10.84,-7.81 c-1.68,0,-2.02,1.93,-2.02,3.28 c0,1.34,0.84,3.61,1.26,4.96 c3.02,2.52,10.92,11.0,10.92,14.78 c0,1.76,-3.86,1.93,-5.04,1.93 c-2.94,0,-13.27,-8.06,-13.27,-19.66 c0,-6.38,3.36,-12.68,8.32,-12.68 c3.28,0,11.76,7.39,14.11,10.08 c1.43,-1.01,2.6,-2.18,4.37,-2.18 c4.7,0,7.81,2.6,10.75,5.96 l-0.59,3.53 c-1.85,-1.26,-4.96,-3.36,-7.14,-3.36 c-1.34,0,-1.93,0.25,-2.86,1.09 c2.1,2.94,6.97,10.84,6.97,14.2 c0,1.68,-0.84,2.77,-2.52,2.77 c-2.94,0,-6.64,-4.87,-8.23,-6.97 Z M217.49,96.13 c-2.6,-1.93,-4.96,-5.12,-8.65,-4.45 c1.6,3.28,3.28,6.22,3.28,9.91 c0,2.52,-0.5,4.28,-3.02,4.96 c0.92,0.5,1.93,1.01,1.93,2.27 c0,2.27,-2.77,3.11,-4.62,3.02 c-5.12,-0.25,-11.17,-2.52,-15.71,-6.22 c-4.7,-3.61,-7.81,-7.81,-7.64,-14.11 c0.34,-7.64,4.37,-12.01,8.74,-12.01 c5.29,0,9.41,2.69,12.94,6.3 c6.13,0,9.83,2.02,13.61,6.8 Z M202.04,102.68 c0.34,-0.17,-3.61,-5.46,-3.61,-9.83 c0,-1.43,0.42,-2.52,1.01,-3.86 c-1.93,-1.76,-3.7,-3.36,-6.47,-3.36 c-2.1,0,-3.7,0.76,-3.7,3.19 c0,2.6,1.6,5.88,3.44,7.73 c2.52,2.44,6.47,4.45,9.32,6.13 Z M226.48,103.86 c3.95,8.65,8.74,16.21,12.85,18.23 c-1.51,-4.79,-6.72,-12.85,-12.68,-18.4 Z M242.86,94.95 c-3.36,-3.02,-9.83,-8.4,-14.45,-8.4 c-2.27,0,-3.44,1.68,-4.2,3.61 c-0.42,2.02,-0.17,4.37,0.59,5.8 c18.23,17.64,20.41,25.03,21,33.01 c0.08,1.09,-0.25,3.11,-1.68,3.11 c-2.69,0,-10.67,-7.81,-18.06,-16.97 c-5.46,-6.72,-9.24,-16.21,-9.24,-25.03 c0,-4.96,1.34,-10.92,7.48,-10.92 c7.22,0,15.12,8.48,19.74,13.27 Z M275.96,96.13 c-2.6,-1.93,-4.96,-5.12,-8.65,-4.45 c1.6,3.28,3.28,6.22,3.28,9.91 c0,2.52,-0.5,4.28,-3.02,4.96 c0.92,0.5,1.93,1.01,1.93,2.27 c0,2.27,-2.77,3.11,-4.62,3.02 c-5.12,-0.25,-11.17,-2.52,-15.71,-6.22 c-4.7,-3.61,-7.81,-7.81,-7.64,-14.11 c0.34,-7.64,4.37,-12.01,8.74,-12.01 c5.29,0,9.41,2.69,12.94,6.3 c6.13,0,9.83,2.02,13.61,6.8 Z M260.5,102.68 c0.34,-0.17,-3.61,-5.46,-3.61,-9.83 c0,-1.43,0.42,-2.52,1.01,-3.86 c-1.93,-1.76,-3.7,-3.36,-6.47,-3.36 c-2.1,0,-3.7,0.76,-3.7,3.19 c0,2.6,1.6,5.88,3.44,7.73 c2.52,2.44,6.47,4.45,9.32,6.13 Z M310.06,92.43 c-1.51,-1.26,-5.21,-4.2,-7.22,-4.2 c-0.84,0,-1.51,0.76,-1.51,1.51 c0,5.8,10.33,12.18,10.33,15.46 c-0.25,1.76,-0.76,3.28,-1.26,4.54 c-0.5,1.18,-1.01,1.6,-1.34,1.6 c-2.44,0,-17.89,-10.33,-24.61,-18.9 c-0.34,-0.42,-1.09,-1.18,-1.68,-1.18 c-0.5,0,-0.92,0.42,-0.92,0.92 c0,2.02,10.58,10.5,10.58,13.78 c0,0.5,0.42,1.68,-4.62,1.85 c-1.43,0,-2.18,-0.08,-3.28,-1.01 c-4.87,-4.12,-10.16,-12.6,-9.91,-18.4 c0.08,-2.86,1.01,-8.15,4.7,-8.15 c2.27,0,5.38,4.12,6.64,5.71 c3.78,4.87,8.06,9.24,12.94,12.85 l0.17,-0.17 c-2.69,-3.86,-7.22,-9.41,-7.22,-14.45 c0,-2.86,1.51,-5.54,4.7,-5.54 c6.13,0,14.78,10.33,19.24,14.28 l-0.67,3.7 Z M330.98,80.67 c-4.62,-3.36,-17.39,-13.94,-17.39,-19.99 c0,-1.09,0.76,-2.02,1.93,-2.02 c3.28,0,10.67,5.38,19.49,19.4 l17.72,13.27 l-0.42,3.53 l-12.77,-9.16 l-0.17,0.17 l6.3,11.76 c0.59,1.09,1.76,3.02,1.76,4.28 c0,1.43,-1.51,4.28,-3.19,4.28 c-1.34,0,-2.35,-1.43,-3.19,-2.35 l-8.99,-9.91 c-3.19,-3.44,-8.32,-5.46,-10.67,-5.21 c-0.76,0,-1.26,0.17,-1.34,0.84 c-0.76,6.13,5.46,8.48,10.75,11.34 l9.58,5.21 c1.09,0.76,2.77,1.93,2.77,3.44 c0,1.85,-3.28,2.18,-4.45,2.1 c-6.47,-0.59,-24.78,-9.49,-24.78,-20.5 c0,-3.7,1.6,-9.83,6.3,-9.83 c4.62,0,13.44,7.64,16.46,11.0 l0.17,-0.17 Z M330.98,80.67" fill="rgb(0,0,0)" transform="matrix(1,0,0,-1,0,200)"/>
</svg>