<?xml version="1.0" encoding="UTF-8"?>
<svg height="200" version="1.1" width="500" xmlns="http://www.w3.org/2000/svg" xmlns:xlink="http://www.w3.org/1999/xlink">
 <path d="M0,0 l500,0 l0,200 l-500,0 Z M0,0" fill="rgb(255,255,255)" transform="matrix(1,0,0,-1,0,200)"/>
 <path d="M195.98,92.04 c0.75,0,1.46,0.16,2.13,0.47 c0.67,0.32,1.23,0.86,1.69,1.64 l0,3.85 l-3.93,0 c-0.7,0,-1.27,-0.21,-1.69,-0.64 c-0.42,-0.42,-0.64,-1.19,-0.64,-2.31 c0,-0.97,0.2,-1.72,0.6,-2.24 c0.4,-0.52,1.01,-0.78,1.84,-0.78 Z M194.78,88.55 c-1.84,0,-3.28,0.55,-4.33,1.65 c-1.04,1.1,-1.56,2.64,-1.56,4.6 c0,1.96,0.56,3.48,1.67,4.56 c1.12,1.08,2.63,1.62,4.55,1.62 l4.69,0 l0,3.38 c0,0.97,-0.25,1.75,-0.76,2.33 c-0.51,0.58,-1.25,0.87,-2.22,0.87 c-1.02,0,-1.76,-0.26,-2.24,-0.78 c-0.47,-0.52,-0.84,-1.52,-1.11,-3 l-4.22,0.87 c0.39,2.23,1.27,3.86,2.64,4.89 c1.37,1.03,3.15,1.55,5.33,1.55 c2.35,0,4.19,-0.51,5.51,-1.53 c1.32,-1.02,1.98,-2.65,1.98,-4.91 l0,-9.78 c0,-1.12,0.27,-1.82,0.8,-2.13 c0.53,-0.3,1.36,-0.33,2.47,-0.09 l0,-3.78 c-1.65,-0.32,-3.0,-0.25,-4.05,0.2 c-1.05,0.45,-1.74,1.41,-2.05,2.89 l-0.8,0 c-0.61,-1.02,-1.45,-1.84,-2.55,-2.47 c-1.09,-0.63,-2.34,-0.95,-3.75,-0.95 Z M214.38,88.91 l0,21.82 l4.95,0 l0,-2.98 l0.8,0 c0.32,1.19,0.88,2.04,1.71,2.56 c0.82,0.52,1.7,0.78,2.62,0.78 c1.45,0,2.55,-0.5,3.27,-1.49 c0.73,-0.99,1.09,-2.39,1.09,-4.18 l0,-3.96 l-4.51,0 l0,3.27 c-0.0,0.73,-0.14,1.31,-0.42,1.75 c-0.28,0.44,-0.72,0.65,-1.33,0.65 c-0.56,0,-1.14,-0.27,-1.75,-0.8 c-0.61,-0.53,-1.1,-1.22,-1.49,-2.07 l0,-15.35 Z M242.6,88.55 c-2.47,0,-4.41,0.7,-5.82,2.11 c-1.41,1.41,-2.11,3.36,-2.11,5.85 l0,6.51 c0,2.52,0.71,4.5,2.13,5.93 c1.42,1.43,3.36,2.15,5.84,2.15 c2.45,0,4.38,-0.72,5.78,-2.15 c1.41,-1.43,2.11,-3.41,2.11,-5.93 l0,-6.51 c0,-2.5,-0.7,-4.45,-2.11,-5.85 c-1.41,-1.41,-3.35,-2.11,-5.82,-2.11 Z M242.6,92.33 c1.04,0,1.8,0.33,2.27,1 c0.47,0.67,0.71,1.76,0.71,3.29 l0,6.4 c0.0,1.53,-0.24,2.63,-0.71,3.31 c-0.47,0.68,-1.23,1.02,-2.27,1.02 c-1.07,0,-1.83,-0.35,-2.29,-1.04 c-0.46,-0.69,-0.69,-1.8,-0.69,-3.33 l0,-6.36 c0,-1.53,0.23,-2.62,0.69,-3.29 c0.46,-0.67,1.22,-1,2.29,-1 Z M262.82,88.55 c-1.6,0,-2.85,0.61,-3.76,1.84 c-0.91,1.22,-1.36,2.88,-1.36,4.96 l0,15.38 l4.95,0 l0,-14.62 c0,-1.19,0.18,-2.08,0.55,-2.67 c0.36,-0.59,0.91,-0.89,1.64,-0.89 c0.75,0,1.45,0.25,2.11,0.76 c0.65,0.51,1.21,1.22,1.67,2.15 l0,15.27 l4.95,0 l0,-21.82 l-4.95,0 l0,3.02 l-0.8,0 c-0.32,-1.04,-0.93,-1.87,-1.84,-2.47 c-0.91,-0.61,-1.96,-0.91,-3.15,-0.91 Z M288.56,88.65 c-2.06,0,-3.65,0.68,-4.78,2.04 c-1.13,1.36,-1.69,3.26,-1.69,5.71 l0,21.6 l4.91,0 l0,-21.6 c0,-1.28,0.19,-2.24,0.58,-2.85 c0.39,-0.62,0.97,-0.93,1.75,-0.93 c0.34,0,0.73,0.06,1.16,0.18 c0.44,0.12,0.85,0.28,1.24,0.47 l0.76,-3.64 c-0.58,-0.29,-1.21,-0.53,-1.89,-0.71 c-0.68,-0.18,-1.36,-0.27,-2.04,-0.27 Z M307.76,88.55 c-2.21,0,-3.88,0.59,-5.04,1.76 c-1.15,1.18,-1.73,2.89,-1.73,5.15 l0,11.53 l-3.27,0 l0,3.75 l3.27,0 l0,7.27 l4.95,0 l0,-7.27 l5.56,0 l0,-3.75 l-5.56,0 l0,-11.27 c0,-1.16,0.23,-2.01,0.69,-2.55 c0.46,-0.53,1.08,-0.8,1.85,-0.8 c0.36,0,0.78,0.06,1.24,0.18 c0.46,0.12,0.95,0.3,1.45,0.55 l0.55,-3.67 c-0.46,-0.27,-1.05,-0.48,-1.76,-0.64 c-0.72,-0.16,-1.45,-0.24,-2.2,-0.24 Z M307.76,88.55" fill="rgb(0,0,0)" transform="matrix(1,0,0,-1,0,200)"/>
</svg>