<?xml version="1.0" encoding="UTF-8"?>
<svg height="200" version="1.1" width="500" xmlns="http://www.w3.org/2000/svg" xmlns:xlink="http://www.w3.org/1999/xlink">
 <path d="M0,0 l500,0 l0,200 l-500,0 Z M0,0" fill="rgb(255,255,255)" transform="matrix(1,0,0,-1,0,200)"/>
 <path d="M146.2,88.91 l0,21.82 l4.95,0 l0,-21.82 Z M148.67,114.55 c-0.97,0,-1.76,0.16,-2.36,0.49 c-0.61,0.33,-0.91,0.92,-0.91,1.76 l0,0.33 c0,0.87,0.3,1.48,0.91,1.84 c0.61,0.35,1.39,0.53,2.36,0.53 c0.97,-0.0,1.76,-0.18,2.36,-0.53 c0.61,-0.35,0.91,-0.96,0.91,-1.84 l0,-0.33 c0,-0.85,-0.3,-1.44,-0.91,-1.76 c-0.61,-0.33,-1.39,-0.49,-2.36,-0.49 Z M159.62,88.91 l0,21.82 l4.95,0 l0,-2.98 l0.8,0 c0.39,1.04,1.04,1.86,1.95,2.45 c0.91,0.59,1.93,0.89,3.07,0.89 c1.55,0,2.79,-0.61,3.71,-1.84 c0.92,-1.22,1.38,-2.87,1.38,-4.93 l0,-15.42 l-4.95,0 l0,14.62 c0,1.19,-0.18,2.08,-0.55,2.69 c-0.36,0.61,-0.91,0.91,-1.64,0.91 c-0.75,0,-1.45,-0.26,-2.11,-0.78 c-0.65,-0.52,-1.21,-1.23,-1.67,-2.13 l0,-15.31 Z M185.36,88.91 l0,18.07 l-3.27,0 l0,3.75 l3.27,0 l0,1.93 c0,1.89,0.61,3.36,1.84,4.42 c1.22,1.05,2.84,1.58,4.85,1.58 c0.63,0,1.3,-0.09,2,-0.27 c0.7,-0.18,1.36,-0.39,1.96,-0.64 l-0.55,-3.45 c-0.51,0.19,-0.99,0.36,-1.45,0.49 c-0.46,0.13,-0.9,0.2,-1.31,0.2 c-0.75,0,-1.34,-0.19,-1.76,-0.56 c-0.42,-0.38,-0.64,-1.01,-0.64,-1.91 l0,-1.78 l5.45,0 l0,-3.75 l-5.45,0 l0,-18.07 Z M210.85,88.55 c-2.47,0,-4.41,0.7,-5.82,2.11 c-1.41,1.41,-2.11,3.36,-2.11,5.85 l0,6.51 c0,2.52,0.71,4.5,2.13,5.93 c1.42,1.43,3.36,2.15,5.84,2.15 c2.45,0,4.38,-0.72,5.78,-2.15 c1.41,-1.43,2.11,-3.41,2.11,-5.93 l0,-6.51 c0,-2.5,-0.7,-4.45,-2.11,-5.85 c-1.41,-1.41,-3.35,-2.11,-5.82,-2.11 Z M210.85,92.33 c1.04,0,1.8,0.33,2.27,1 c0.47,0.67,0.71,1.76,0.71,3.29 l0,6.4 c0.0,1.53,-0.24,2.63,-0.71,3.31 c-0.47,0.68,-1.23,1.02,-2.27,1.02 c-1.07,0,-1.83,-0.35,-2.29,-1.04 c-0.46,-0.69,-0.69,-1.8,-0.69,-3.33 l0,-6.36 c0,-1.53,0.23,-2.62,0.69,-3.29 c0.46,-0.67,1.22,-1,2.29,-1 Z M225.95,88.91 l0,21.82 l4.95,0 l0,-2.98 l0.8,0 c0.32,1.19,0.88,2.04,1.71,2.56 c0.82,0.52,1.7,0.78,2.62,0.78 c1.45,0,2.55,-0.5,3.27,-1.49 c0.73,-0.99,1.09,-2.39,1.09,-4.18 l0,-3.96 l-4.51,0 l0,3.27 c0,0.73,-0.14,1.31,-0.42,1.75 c-0.28,0.44,-0.72,0.65,-1.33,0.65 c-0.56,0,-1.14,-0.27,-1.75,-0.8 c-0.61,-0.53,-1.1,-1.22,-1.49,-2.07 l0,-15.35 Z M255.73,88.55 c-2.21,0,-3.88,0.59,-5.04,1.76 c-1.15,1.18,-1.73,2.89,-1.73,5.15 l0,11.53 l-3.27,0 l0,3.75 l3.27,0 l0,7.27 l4.95,0 l0,-7.27 l5.56,0 l0,-3.75 l-5.56,0 l0,-11.27 c0,-1.16,0.23,-2.01,0.69,-2.55 c0.46,-0.53,1.08,-0.8,1.85,-0.8 c0.36,0,0.78,0.06,1.24,0.18 c0.46,0.12,0.95,0.3,1.45,0.55 l0.55,-3.67 c-0.46,-0.27,-1.05,-0.48,-1.76,-0.64 c-0.72,-0.16,-1.45,-0.24,-2.2,-0.24 Z M267.84,88.91 l0,21.82 l4.95,0 l0,-21.82 Z M270.31,114.55 c-0.97,0,-1.76,0.16,-2.36,0.49 c-0.61,0.33,-0.91,0.92,-0.91,1.76 l0,0.33 c0,0.87,0.3,1.48,0.91,1.84 c0.61,0.35,1.39,0.53,2.36,0.53 c0.97,-0.0,1.76,-0.18,2.36,-0.53 c0.61,-0.35,0.91,-0.96,0.91,-1.84 l0,-0.33 c0,-0.85,-0.3,-1.44,-0.91,-1.76 c-0.61,-0.33,-1.39,-0.49,-2.36,-0.49 Z M290.75,88.55 c-2.21,0,-3.88,0.59,-5.04,1.76 c-1.15,1.18,-1.73,2.89,-1.73,5.15 l0,11.53 l-3.27,0 l0,3.75 l3.27,0 l0,7.27 l4.95,0 l0,-7.27 l5.56,0 l0,-3.75 l-5.56,0 l0,-11.27 c0,-1.16,0.23,-2.01,0.69,-2.55 c0.46,-0.53,1.08,-0.8,1.85,-0.8 c0.36,0,0.78,0.06,1.24,0.18 c0.46,0.12,0.95,0.3,1.45,0.55 l0.55,-3.67 c-0.46,-0.27,-1.05,-0.48,-1.76,-0.64 c-0.72,-0.16,-1.45,-0.24,-2.2,-0.24 Z M302.85,88.91 l0,21.82 l4.95,0 l0,-21.82 Z M305.33,114.55 c-0.97,0,-1.76,0.16,-2.36,0.49 c-0.61,0.33,-0.91,0.92,-0.91,1.76 l0,0.33 c0,0.87,0.3,1.48,0.91,1.84 c0.61,0.35,1.39,0.53,2.36,0.53 c0.97,-0.0,1.76,-0.18,2.36,-0.53 c0.61,-0.35,0.91,-0.96,0.91,-1.84 l0,-0.33 c0,-0.85,-0.3,-1.44,-0.91,-1.76 c-0.61,-0.33,-1.39,-0.49,-2.36,-0.49 Z M324.2,88.55 c-2.47,0,-4.41,0.7,-5.82,2.11 c-1.41,1.41,-2.11,3.36,-2.11,5.85 l0,6.51 c0,2.52,0.71,4.5,2.13,5.93 c1.42,1.43,3.36,2.15,5.84,2.15 c2.45,0,4.38,-0.72,5.78,-2.15 c1.41,-1.43,2.11,-3.41,2.11,-5.93 l0,-6.51 c0,-2.5,-0.7,-4.45,-2.11,-5.85 c-1.41,-1.41,-3.35,-2.11,-5.82,-2.11 Z M324.2,92.33 c1.04,0,1.8,0.33,2.27,1 c0.47,0.67,0.71,1.76,0.71,3.29 l0,6.4 c0,1.53,-0.24,2.63,-0.71,3.31 c-0.47,0.68,-1.23,1.02,-2.27,1.02 c-1.07,0,-1.83,-0.35,-2.29,-1.04 c-0.46,-0.69,-0.69,-1.8,-0.69,-3.33 l0,-6.36 c0,-1.53,0.23,-2.62,0.69,-3.29 c0.46,-0.67,1.22,-1,2.29,-1 Z M339.29,88.91 l0,21.82 l4.95,0 l0,-2.98 l0.8,0 c0.39,1.04,1.04,1.86,1.95,2.45 c0.91,0.59,1.93,0.89,3.07,0.89 c1.55,0,2.79,-0.61,3.71,-1.84 c0.92,-1.22,1.38,-2.87,1.38,-4.93 l0,-15.42 l-4.95,0 l0,14.62 c0,1.19,-0.18,2.08,-0.55,2.69 c-0.36,0.61,-0.91,0.91,-1.64,0.91 c-0.75,0,-1.45,-0.26,-2.11,-0.78 c-0.65,-0.52,-1.21,-1.23,-1.67,-2.13 l0,-15.31 Z M339.29,88.91" fill="rgb(0,0,0)" transform="matrix(1,0,0,-1,0,200)"/>
</svg>