<?xml version="1.0" encoding="UTF-8"?>
<svg height="200" version="1.1" width="500" xmlns="http://www.w3.org/2000/svg" xmlns:xlink="http://www.w3.org/1999/xlink">
 <path d="M0,0 l500,0 l0,200 l-500,0 Z M0,0" fill="rgb(255,255,255)" transform="matrix(1,0,0,-1,0,200)"/>
 <path d="M194.15,88.91 l0,21.82 l4.95,0 l0,-2.98 l0.8,0 c0.32,1.19,0.88,2.04,1.71,2.56 c0.82,0.52,1.7,0.78,2.62,0.78 c1.45,0,2.55,-0.5,3.27,-1.49 c0.73,-0.99,1.09,-2.39,1.09,-4.18 l0,-3.96 l-4.51,0 l0,3.27 c0,0.73,-0.14,1.31,-0.42,1.75 c-0.28,0.44,-0.72,0.65,-1.33,0.65 c-0.56,0,-1.14,-0.27,-1.75,-0.8 c-0.61,-0.53,-1.1,-1.22,-1.49,-2.07 l0,-15.35 Z M215.75,88.91 l0,21.82 l4.95,0 l0,-21.82 Z M218.22,114.55 c-0.97,0,-1.76,0.16,-2.36,0.49 c-0.61,0.33,-0.91,0.92,-0.91,1.76 l0,0.33 c0,0.87,0.3,1.48,0.91,1.84 c0.61,0.35,1.39,0.53,2.36,0.53 c0.97,-0.0,1.76,-0.18,2.36,-0.53 c0.61,-0.35,0.91,-0.96,0.91,-1.84 l0,-0.33 c0,-0.85,-0.3,-1.44,-0.91,-1.76 c-0.61,-0.33,-1.39,-0.49,-2.36,-0.49 Z M236.47,92.55 c0.68,0,1.32,0.22,1.93,0.65 c0.61,0.44,1.16,1.13,1.67,2.07 l0,10.84 c-0.53,0.44,-1.04,0.76,-1.53,0.96 c-0.48,0.21,-0.98,0.31,-1.49,0.31 c-1.02,0,-1.76,-0.32,-2.24,-0.96 c-0.47,-0.64,-0.71,-1.63,-0.71,-2.96 l0,-7.24 c-0.0,-1.26,0.21,-2.19,0.62,-2.78 c0.41,-0.59,0.99,-0.89,1.75,-0.89 Z M239.27,92.11 c-0.32,-1.12,-0.91,-1.99,-1.78,-2.62 c-0.87,-0.63,-1.93,-0.95,-3.16,-0.95 c-1.62,0,-2.89,0.65,-3.8,1.96 c-0.91,1.31,-1.36,3.15,-1.36,5.53 l0,7.45 c0,2.4,0.62,4.26,1.87,5.58 c1.25,1.32,2.98,1.98,5.18,1.98 c0.68,0.0,1.35,-0.08,2,-0.25 c0.65,-0.17,1.27,-0.41,1.85,-0.73 l0,7.93 l4.95,0 l0,-29.09 l-4.95,0 l0,3.2 Z M259.49,92.55 c0.68,0,1.32,0.22,1.93,0.65 c0.61,0.44,1.16,1.13,1.67,2.07 l0,10.84 c-0.53,0.44,-1.04,0.76,-1.53,0.96 c-0.48,0.21,-0.98,0.31,-1.49,0.31 c-1.02,0,-1.76,-0.32,-2.24,-0.96 c-0.47,-0.64,-0.71,-1.63,-0.71,-2.96 l0,-7.24 c0,-1.26,0.21,-2.19,0.62,-2.78 c0.41,-0.59,0.99,-0.89,1.75,-0.89 Z M262.29,92.11 c-0.32,-1.12,-0.91,-1.99,-1.78,-2.62 c-0.87,-0.63,-1.93,-0.95,-3.16,-0.95 c-1.62,0,-2.89,0.65,-3.8,1.96 c-0.91,1.31,-1.36,3.15,-1.36,5.53 l0,7.45 c0,2.4,0.62,4.26,1.87,5.58 c1.25,1.32,2.98,1.98,5.18,1.98 c0.68,0.0,1.35,-0.08,2,-0.25 c0.65,-0.17,1.27,-0.41,1.85,-0.73 l0,7.93 l4.95,0 l0,-29.09 l-4.95,0 l0,3.2 Z M283.05,88.65 c-2.06,0,-3.65,0.68,-4.78,2.04 c-1.13,1.36,-1.69,3.26,-1.69,5.71 l0,21.6 l4.91,0 l0,-21.6 c0,-1.28,0.19,-2.24,0.58,-2.85 c0.39,-0.62,0.97,-0.93,1.75,-0.93 c0.34,0,0.73,0.06,1.16,0.18 c0.44,0.12,0.85,0.28,1.24,0.47 l0.76,-3.64 c-0.58,-0.29,-1.21,-0.53,-1.89,-0.71 c-0.68,-0.18,-1.36,-0.27,-2.04,-0.27 Z M295.53,81.35 c-0.65,0,-1.36,0.04,-2.11,0.11 c-0.75,0.07,-1.56,0.17,-2.44,0.29 l0.33,3.75 c0.68,-0.12,1.3,-0.22,1.87,-0.29 c0.57,-0.07,1.07,-0.11,1.51,-0.11 c1.33,0,2.28,0.32,2.85,0.96 c0.57,0.64,1.01,1.58,1.33,2.82 l0.07,0.44 l-3.31,0 l-4.95,21.42 l4.87,0 l3.96,-18.51 l3.67,18.51 l4.73,0 l-4.84,-22.95 c-0.58,-2.33,-1.49,-3.98,-2.73,-4.96 c-1.24,-0.98,-2.85,-1.47,-4.84,-1.47 Z M295.53,81.35" fill="rgb(0,0,0)" transform="matrix(1,0,0,-1,0,200)"/>
</svg>