<?xml version="1.0" encoding="UTF-8"?>
<svg height="200" version="1.1" width="500" xmlns="http://www.w3.org/2000/svg" xmlns:xlink="http://www.w3.org/1999/xlink">
 <path d="M0,0 l500,0 l0,200 l-500,0 Z M0,0" fill="rgb(255,255,255)" transform="matrix(1,0,0,-1,0,200)"/>
 <path d="M192.78,88.91 l0,21.82 l4.95,0 l0,-2.98 l0.8,0 c0.32,1.19,0.88,2.04,1.71,2.56 c0.82,0.52,1.7,0.78,2.62,0.78 c1.45,0,2.55,-0.5,3.27,-1.49 c0.73,-0.99,1.09,-2.39,1.09,-4.18 l0,-3.96 l-4.51,0 l0,3.27 c0.0,0.73,-0.14,1.31,-0.42,1.75 c-0.28,0.44,-0.72,0.65,-1.33,0.65 c-0.56,0,-1.14,-0.27,-1.75,-0.8 c-0.61,-0.53,-1.1,-1.22,-1.49,-2.07 l0,-15.35 Z M218.2,88.55 c-1.6,0,-2.85,0.61,-3.76,1.84 c-0.91,1.22,-1.36,2.88,-1.36,4.96 l0,15.38 l4.95,0 l0,-14.62 c0,-1.19,0.18,-2.08,0.55,-2.67 c0.36,-0.59,0.91,-0.89,1.64,-0.89 c0.75,0,1.45,0.25,2.11,0.76 c0.65,0.51,1.21,1.22,1.67,2.15 l0,15.27 l4.95,0 l0,-21.82 l-4.95,0 l0,3.02 l-0.8,0 c-0.32,-1.04,-0.93,-1.87,-1.84,-2.47 c-0.91,-0.61,-1.96,-0.91,-3.15,-0.91 Z M243.8,88.58 c-1.55,0,-3.0,0.22,-4.35,0.65 c-1.35,0.44,-2.47,1.09,-3.36,1.96 l0,26.8 l4.95,0 l0,-10.25 l0.8,0 c0.32,1.07,0.89,1.89,1.73,2.47 c0.84,0.58,1.86,0.87,3.07,0.87 c1.7,0,3.01,-0.64,3.93,-1.93 c0.92,-1.28,1.38,-3.13,1.38,-5.53 l0,-7.49 c0,-2.42,-0.7,-4.29,-2.09,-5.6 c-1.39,-1.31,-3.41,-1.96,-6.05,-1.96 Z M244.05,92.29 c1.04,0,1.79,0.3,2.25,0.91 c0.46,0.61,0.69,1.61,0.69,3.02 l0,7.2 c0,1.31,-0.21,2.25,-0.62,2.84 c-0.41,0.58,-1.01,0.87,-1.78,0.87 c-0.68,0,-1.32,-0.21,-1.93,-0.62 c-0.61,-0.41,-1.15,-1.07,-1.64,-1.96 l0,-11.27 c0.34,-0.32,0.76,-0.56,1.25,-0.73 c0.5,-0.17,1.08,-0.25,1.76,-0.25 Z M266.96,88.65 c-2.06,0,-3.65,0.68,-4.78,2.04 c-1.13,1.36,-1.69,3.26,-1.69,5.71 l0,21.6 l4.91,0 l0,-21.6 c0,-1.28,0.19,-2.24,0.58,-2.85 c0.39,-0.62,0.97,-0.93,1.75,-0.93 c0.34,0,0.73,0.06,1.16,0.18 c0.44,0.12,0.85,0.28,1.24,0.47 l0.76,-3.64 c-0.58,-0.29,-1.21,-0.53,-1.89,-0.71 c-0.68,-0.18,-1.36,-0.27,-2.04,-0.27 Z M277.98,88.91 l0,21.82 l4.95,0 l0,-21.82 Z M280.45,114.55 c-0.97,0,-1.76,0.16,-2.36,0.49 c-0.61,0.33,-0.91,0.92,-0.91,1.76 l0,0.33 c0,0.87,0.3,1.48,0.91,1.84 c0.61,0.35,1.39,0.53,2.36,0.53 c0.97,-0.0,1.76,-0.18,2.36,-0.53 c0.61,-0.35,0.91,-0.96,0.91,-1.84 l0,-0.33 c0,-0.85,-0.3,-1.44,-0.91,-1.76 c-0.61,-0.33,-1.39,-0.49,-2.36,-0.49 Z M299.47,88.55 c-2.69,0,-4.71,0.67,-6.05,2 c-1.35,1.33,-2.02,3.2,-2.02,5.6 l0,7.24 c0,2.59,0.7,4.53,2.11,5.8 c1.41,1.27,3.39,1.91,5.96,1.91 c2.55,0,4.49,-0.62,5.84,-1.85 c1.35,-1.24,2.09,-3.12,2.24,-5.64 l-4.76,-0.33 c-0.07,1.48,-0.35,2.52,-0.84,3.13 c-0.48,0.61,-1.28,0.91,-2.4,0.91 c-1.19,0,-2.02,-0.3,-2.49,-0.89 c-0.47,-0.59,-0.71,-1.62,-0.71,-3.07 l0,-7.09 c0,-1.45,0.24,-2.47,0.73,-3.05 c0.48,-0.58,1.32,-0.87,2.51,-0.87 c1.12,0,1.91,0.27,2.38,0.82 c0.47,0.55,0.75,1.5,0.82,2.85 l4.76,-0.29 c-0.12,-2.42,-0.85,-4.22,-2.18,-5.4 c-1.33,-1.18,-3.3,-1.76,-5.89,-1.76 Z M299.47,88.55" fill="rgb(0,0,0)" transform="matrix(1,0,0,-1,0,200)"/>
</svg>