<?xml version="1.0" encoding="UTF-8"?>
<svg height="200" version="1.1" width="500" xmlns="http://www.w3.org/2000/svg" xmlns:xlink="http://www.w3.org/1999/xlink">
 <path d="M0,0 l500,0 l0,200 l-500,0 Z M0,0" fill="rgb(255,255,255)" transform="matrix(1,0,0,-1,0,200)"/>
 <path d="M203.71,88.91 l-2.87,13.78 l-2.73,-13.78 l-5.42,0 l-4,21.82 l4.33,0 l2.84,-17.13 l2.73,13.49 l4.44,0 l2.95,-13.31 l2.73,16.95 l4.15,0 l-4.04,-21.82 Z M219.89,88.91 l0,21.82 l4.95,0 l0,-21.82 Z M222.36,114.55 c-0.97,0,-1.76,0.16,-2.36,0.49 c-0.61,0.33,-0.91,0.92,-0.91,1.76 l0,0.33 c0,0.87,0.3,1.48,0.91,1.84 c0.61,0.35,1.39,0.53,2.36,0.53 c0.97,-0.0,1.76,-0.18,2.36,-0.53 c0.61,-0.35,0.91,-0.96,0.91,-1.84 l0,-0.33 c0,-0.85,-0.3,-1.44,-0.91,-1.76 c-0.61,-0.33,-1.39,-0.49,-2.36,-0.49 Z M233.31,88.91 l0,21.82 l4.95,0 l0,-2.98 l0.8,0 c0.39,1.04,1.04,1.86,1.95,2.45 c0.91,0.59,1.93,0.89,3.07,0.89 c1.55,0,2.79,-0.61,3.71,-1.84 c0.92,-1.22,1.38,-2.87,1.38,-4.93 l0,-15.42 l-4.95,0 l0,14.62 c0,1.19,-0.18,2.08,-0.55,2.69 c-0.36,0.61,-0.91,0.91,-1.64,0.91 c-0.75,0,-1.45,-0.26,-2.11,-0.78 c-0.65,-0.52,-1.21,-1.23,-1.67,-2.13 l0,-15.31 Z M256.33,88.91 l0,21.82 l4.95,0 l0,-2.98 l0.8,0 c0.39,1.04,1.04,1.86,1.95,2.45 c0.91,0.59,1.93,0.89,3.07,0.89 c1.55,0,2.79,-0.61,3.71,-1.84 c0.92,-1.22,1.38,-2.87,1.38,-4.93 l0,-15.42 l-4.95,0 l0,14.62 c0,1.19,-0.18,2.08,-0.55,2.69 c-0.36,0.61,-0.91,0.91,-1.64,0.91 c-0.75,0,-1.45,-0.26,-2.11,-0.78 c-0.65,-0.52,-1.21,-1.23,-1.67,-2.13 l0,-15.31 Z M280.65,88.91 l0,21.82 l4.95,0 l0,-21.82 Z M283.13,114.55 c-0.97,0,-1.76,0.16,-2.36,0.49 c-0.61,0.33,-0.91,0.92,-0.91,1.76 l0,0.33 c0,0.87,0.3,1.48,0.91,1.84 c0.61,0.35,1.39,0.53,2.36,0.53 c0.97,-0.0,1.76,-0.18,2.36,-0.53 c0.61,-0.35,0.91,-0.96,0.91,-1.84 l0,-0.33 c0,-0.85,-0.3,-1.44,-0.91,-1.76 c-0.61,-0.33,-1.39,-0.49,-2.36,-0.49 Z M302.15,88.55 c-2.69,0,-4.71,0.67,-6.05,2 c-1.35,1.33,-2.02,3.2,-2.02,5.6 l0,7.24 c0,2.59,0.7,4.53,2.11,5.8 c1.41,1.27,3.39,1.91,5.96,1.91 c2.55,0,4.49,-0.62,5.84,-1.85 c1.35,-1.24,2.09,-3.12,2.24,-5.64 l-4.76,-0.33 c-0.07,1.48,-0.35,2.52,-0.84,3.13 c-0.48,0.61,-1.28,0.91,-2.4,0.91 c-1.19,0,-2.02,-0.3,-2.49,-0.89 c-0.47,-0.59,-0.71,-1.62,-0.71,-3.07 l0,-7.09 c0,-1.45,0.24,-2.47,0.73,-3.05 c0.48,-0.58,1.32,-0.87,2.51,-0.87 c1.12,0,1.91,0.27,2.38,0.82 c0.47,0.55,0.75,1.5,0.82,2.85 l4.76,-0.29 c-0.12,-2.42,-0.85,-4.22,-2.18,-5.4 c-1.33,-1.18,-3.3,-1.76,-5.89,-1.76 Z M302.15,88.55" fill="rgb(0,0,0)" transform="matrix(1,0,0,-1,0,200)"/>
</svg>