<?xml version="1.0" encoding="UTF-8"?>
<svg height="200" version="1.1" width="500" xmlns="http://www.w3.org/2000/svg" xmlns:xlink="http://www.w3.org/1999/xlink">
 <path d="M0,0 l500,0 l0,200 l-500,0 Z M0,0" fill="rgb(255,255,255)" transform="matrix(1,0,0,-1,0,200)"/>
 <path d="M178.29,80 l-5.3,0 l0,46.53 l5.71,0 l0,-16.6 c2.41,3.03,5.49,4.54,9.24,4.54 c2.07,0,4.04,-0.42,5.89,-1.25 c1.85,-0.84,3.37,-2.01,4.57,-3.52 c1.2,-1.51,2.13,-3.34,2.81,-5.47 c0.68,-2.14,1.02,-4.42,1.02,-6.86 c0,-5.78,-1.43,-10.24,-4.28,-13.39 c-2.86,-3.15,-6.28,-4.73,-10.28,-4.73 c-3.98,0,-7.1,1.66,-9.36,4.98 Z M178.22,97.11 c0,-4.04,0.55,-6.96,1.65,-8.76 c1.8,-2.94,4.23,-4.41,7.3,-4.41 c2.5,0,4.65,1.08,6.47,3.25 c1.82,2.17,2.73,5.4,2.73,9.7 c0,4.4,-0.87,7.65,-2.62,9.74 c-1.75,2.09,-3.86,3.14,-6.33,3.14 c-2.5,0,-4.65,-1.08,-6.47,-3.25 c-1.82,-2.17,-2.73,-5.31,-2.73,-9.41 Z M209.11,80 l0,33.71 l5.14,0 l0,-5.11 c1.31,2.39,2.52,3.97,3.63,4.73 c1.11,0.76,2.33,1.14,3.67,1.14 c1.93,0,3.88,-0.61,5.87,-1.84 l-1.97,-5.3 c-1.4,0.83,-2.79,1.24,-4.19,1.24 c-1.25,0,-2.37,-0.38,-3.36,-1.13 c-0.99,-0.75,-1.7,-1.79,-2.13,-3.13 c-0.63,-2.03,-0.95,-4.25,-0.95,-6.67 l0,-17.65 Z M230.85,119.96 l0,6.57 l5.71,0 l0,-6.57 Z M230.85,80 l0,33.71 l5.71,0 l0,-33.71 Z M245.26,80 l0,33.71 l5.11,0 l0,-4.73 c1.06,1.65,2.46,2.98,4.22,3.98 c1.76,1.01,3.76,1.51,6.0,1.51 c2.5,0,4.54,-0.52,6.14,-1.56 c1.6,-1.04,2.72,-2.49,3.38,-4.35 c2.67,3.94,6.14,5.9,10.41,5.9 c3.34,0,5.91,-0.93,7.71,-2.78 c1.8,-1.85,2.7,-4.7,2.7,-8.55 l0,-23.14 l-5.68,0 l0,21.23 c0,2.29,-0.19,3.93,-0.56,4.94 c-0.37,1.01,-1.04,1.81,-2.02,2.43 c-0.97,0.61,-2.12,0.92,-3.43,0.92 c-2.37,0,-4.34,-0.79,-5.9,-2.36 c-1.57,-1.58,-2.35,-4.1,-2.35,-7.57 l0,-19.58 l-5.71,0 l0,21.9 c0,2.54,-0.47,4.44,-1.4,5.71 c-0.93,1.27,-2.45,1.9,-4.57,1.9 c-1.61,0,-3.09,-0.42,-4.46,-1.27 c-1.36,-0.85,-2.35,-2.08,-2.97,-3.71 c-0.61,-1.63,-0.92,-3.98,-0.92,-7.05 l0,-17.49 Z M322.47,90.85 l5.9,-0.73 c-0.93,-3.45,-2.66,-6.13,-5.17,-8.03 c-2.52,-1.9,-5.73,-2.86,-9.65,-2.86 c-4.93,0,-8.84,1.52,-11.73,4.55 c-2.89,3.04,-4.33,7.29,-4.33,12.77 c0,5.67,1.46,10.07,4.38,13.2 c2.92,3.13,6.71,4.7,11.36,4.7 c4.51,0,8.19,-1.53,11.04,-4.6 c2.86,-3.07,4.28,-7.38,4.28,-12.95 c0,-0.34,-0.01,-0.85,-0.03,-1.52 l-25.14,0 c0.21,-3.7,1.26,-6.54,3.14,-8.51 c1.88,-1.97,4.23,-2.95,7.05,-2.95 c2.09,0,3.88,0.55,5.36,1.65 c1.48,1.1,2.66,2.86,3.52,5.27 Z M303.72,100.09 l18.82,0 c-0.25,2.84,-0.97,4.96,-2.16,6.38 c-1.82,2.2,-4.18,3.3,-7.08,3.3 c-2.62,0,-4.83,-0.88,-6.62,-2.63 c-1.79,-1.76,-2.78,-4.1,-2.97,-7.05 Z M303.72,100.09" fill="rgb(0,0,0)" transform="matrix(1,0,0,-1,0,200)"/>
</svg>