<?xml version="1.0" encoding="UTF-8"?>
<svg height="200" version="1.1" width="500" xmlns="http://www.w3.org/2000/svg" xmlns:xlink="http://www.w3.org/1999/xlink">
 <path d="M0,0 l500,0 l0,200 l-500,0 Z M0,0" fill="rgb(255,255,255)" transform="matrix(1,0,0,-1,0,200)"/>
 <path d="M95.29,119.96 l0,6.57 l5.71,0 l0,-6.57 Z M95.29,80 l0,33.71 l5.71,0 l0,-33.71 Z M109.7,80 l0,33.71 l5.14,0 l0,-4.79 c2.48,3.7,6.05,5.55,10.73,5.55 c2.03,0,3.9,-0.36,5.6,-1.09 c1.7,-0.73,2.98,-1.69,3.82,-2.87 c0.85,-1.18,1.44,-2.59,1.78,-4.22 c0.21,-1.06,0.32,-2.91,0.32,-5.55 l0,-20.73 l-5.71,0 l0,20.5 c0,2.33,-0.22,4.07,-0.67,5.22 c-0.44,1.15,-1.23,2.07,-2.36,2.76 c-1.13,0.69,-2.46,1.03,-3.98,1.03 c-2.43,0,-4.53,-0.77,-6.3,-2.32 c-1.77,-1.54,-2.65,-4.48,-2.65,-8.79 l0,-18.41 Z M147.22,80 l0,29.26 l-5.05,0 l0,4.44 l5.05,0 l0,3.59 c0,2.26,0.2,3.95,0.6,5.05 c0.55,1.48,1.52,2.68,2.9,3.6 c1.39,0.92,3.33,1.38,5.82,1.38 c1.61,0,3.39,-0.19,5.33,-0.57 l-0.86,-4.98 c-1.18,0.21,-2.31,0.32,-3.36,0.32 c-1.74,0,-2.96,-0.37,-3.68,-1.11 c-0.72,-0.74,-1.08,-2.13,-1.08,-4.16 l0,-3.11 l6.57,0 l0,-4.44 l-6.57,0 l0,-29.26 Z M186.98,90.85 l5.9,-0.73 c-0.93,-3.45,-2.66,-6.13,-5.17,-8.03 c-2.52,-1.9,-5.73,-2.86,-9.65,-2.86 c-4.93,0,-8.84,1.52,-11.73,4.55 c-2.89,3.04,-4.33,7.29,-4.33,12.77 c0,5.67,1.46,10.07,4.38,13.2 c2.92,3.13,6.71,4.7,11.36,4.7 c4.51,0,8.19,-1.53,11.04,-4.6 c2.86,-3.07,4.28,-7.38,4.28,-12.95 c0,-0.34,-0.01,-0.85,-0.03,-1.52 l-25.14,0 c0.21,-3.7,1.26,-6.54,3.14,-8.51 c1.88,-1.97,4.23,-2.95,7.05,-2.95 c2.09,0,3.88,0.55,5.36,1.65 c1.48,1.1,2.66,2.86,3.52,5.27 Z M168.23,100.09 l18.82,0 c-0.25,2.84,-0.97,4.96,-2.16,6.38 c-1.82,2.2,-4.18,3.3,-7.08,3.3 c-2.62,0,-4.83,-0.88,-6.62,-2.63 c-1.79,-1.76,-2.78,-4.1,-2.97,-7.05 Z M199.01,77.21 l5.55,-0.83 c0.23,-1.71,0.88,-2.96,1.94,-3.75 c1.42,-1.06,3.35,-1.59,5.81,-1.59 c2.64,0,4.69,0.53,6.13,1.59 c1.44,1.06,2.41,2.54,2.92,4.44 c0.3,1.16,0.43,3.61,0.41,7.33 c-2.5,-2.94,-5.61,-4.41,-9.33,-4.41 c-4.63,0,-8.22,1.67,-10.76,5.01 c-2.54,3.34,-3.81,7.35,-3.81,12.03 c0,3.22,0.58,6.18,1.75,8.9 c1.16,2.72,2.85,4.82,5.06,6.3 c2.21,1.48,4.81,2.22,7.79,2.22 c3.98,0,7.26,-1.61,9.84,-4.82 l0,4.06 l5.27,0 l0,-29.14 c0,-5.25,-0.53,-8.97,-1.6,-11.16 c-1.07,-2.19,-2.76,-3.92,-5.08,-5.19 c-2.32,-1.27,-5.17,-1.9,-8.55,-1.9 c-4.02,0,-7.27,0.9,-9.74,2.71 c-2.48,1.81,-3.67,4.53,-3.59,8.17 Z M203.74,97.46 c0,-4.42,0.88,-7.65,2.63,-9.68 c1.76,-2.03,3.96,-3.05,6.6,-3.05 c2.62,0,4.82,1.01,6.6,3.03 c1.78,2.02,2.67,5.19,2.67,9.51 c0,4.13,-0.92,7.24,-2.75,9.33 c-1.83,2.09,-4.04,3.14,-6.62,3.14 c-2.54,0,-4.7,-1.03,-6.47,-3.09 c-1.78,-2.06,-2.67,-5.13,-2.67,-9.19 Z M258.2,84.16 c-2.12,-1.8,-4.15,-3.07,-6.11,-3.81 c-1.96,-0.74,-4.06,-1.11,-6.3,-1.11 c-3.7,0,-6.55,0.9,-8.54,2.71 c-1.99,1.81,-2.98,4.12,-2.98,6.93 c0,1.65,0.38,3.16,1.13,4.52 c0.75,1.36,1.74,2.46,2.95,3.28 c1.22,0.83,2.59,1.45,4.11,1.87 c1.12,0.3,2.81,0.58,5.08,0.86 c4.61,0.55,8.01,1.21,10.19,1.97 c0.02,0.78,0.03,1.28,0.03,1.49 c0,2.33,-0.54,3.97,-1.62,4.92 c-1.46,1.29,-3.63,1.94,-6.51,1.94 c-2.69,0,-4.67,-0.47,-5.95,-1.41 c-1.28,-0.94,-2.23,-2.61,-2.84,-5.0 l-5.59,0.76 c0.51,2.39,1.34,4.32,2.51,5.79 c1.16,1.47,2.85,2.6,5.05,3.4 c2.2,0.79,4.75,1.19,7.65,1.19 c2.88,0,5.22,-0.34,7.01,-1.02 c1.8,-0.68,3.12,-1.53,3.97,-2.55 c0.85,-1.03,1.44,-2.32,1.78,-3.89 c0.19,-0.97,0.29,-2.73,0.29,-5.27 l0,-7.62 c0,-5.31,0.12,-8.67,0.36,-10.08 c0.24,-1.41,0.72,-2.76,1.44,-4.05 l-5.97,0 c-0.59,1.18,-0.97,2.57,-1.14,4.16 Z M257.73,96.92 c-2.07,-0.85,-5.18,-1.57,-9.33,-2.16 c-2.35,-0.34,-4.01,-0.72,-4.98,-1.14 c-0.97,-0.42,-1.72,-1.04,-2.25,-1.86 c-0.53,-0.81,-0.79,-1.72,-0.79,-2.71 c0,-1.52,0.58,-2.79,1.73,-3.81 c1.15,-1.02,2.84,-1.52,5.06,-1.52 c2.2,0,4.16,0.48,5.87,1.44 c1.71,0.96,2.97,2.28,3.78,3.95 c0.61,1.29,0.92,3.19,0.92,5.71 Z M284.83,85.11 l0.83,-5.05 c-1.61,-0.34,-3.05,-0.51,-4.32,-0.51 c-2.07,0,-3.68,0.33,-4.82,0.98 c-1.14,0.66,-1.95,1.52,-2.41,2.59 c-0.47,1.07,-0.7,3.32,-0.7,6.74 l0,19.39 l-4.19,0 l0,4.44 l4.19,0 l0,8.35 l5.68,3.43 l0,-11.77 l5.74,0 l0,-4.44 l-5.74,0 l0,-19.71 c0,-1.63,0.1,-2.68,0.3,-3.14 c0.2,-0.47,0.53,-0.84,0.98,-1.11 c0.45,-0.28,1.11,-0.41,1.95,-0.41 c0.63,0,1.47,0.07,2.51,0.22 Z M290.45,119.96 l0,6.57 l5.71,0 l0,-6.57 Z M290.45,80 l0,33.71 l5.71,0 l0,-33.71 Z M302.73,96.85 c0,6.24,1.74,10.87,5.21,13.87 c2.9,2.5,6.43,3.75,10.6,3.75 c4.63,0,8.42,-1.52,11.36,-4.55 c2.94,-3.04,4.41,-7.23,4.41,-12.58 c0,-4.34,-0.65,-7.75,-1.95,-10.24 c-1.3,-2.49,-3.19,-4.42,-5.68,-5.79 c-2.49,-1.38,-5.2,-2.06,-8.14,-2.06 c-4.72,0,-8.53,1.51,-11.44,4.54 c-2.91,3.03,-4.36,7.38,-4.36,13.08 Z M308.6,96.85 c0,-4.32,0.94,-7.55,2.82,-9.7 c1.88,-2.15,4.25,-3.22,7.11,-3.22 c2.84,0,5.19,1.08,7.08,3.24 c1.88,2.16,2.82,5.45,2.82,9.87 c0,4.17,-0.95,7.33,-2.84,9.47 c-1.89,2.15,-4.25,3.22,-7.06,3.22 c-2.86,0,-5.23,-1.07,-7.11,-3.21 c-1.88,-2.14,-2.82,-5.36,-2.82,-9.68 Z M341.01,80 l0,33.71 l5.14,0 l0,-4.79 c2.48,3.7,6.05,5.55,10.73,5.55 c2.03,0,3.9,-0.36,5.6,-1.09 c1.7,-0.73,2.98,-1.69,3.82,-2.87 c0.85,-1.18,1.44,-2.59,1.78,-4.22 c0.21,-1.06,0.32,-2.91,0.32,-5.55 l0,-20.73 l-5.71,0 l0,20.5 c0,2.33,-0.22,4.07,-0.67,5.22 c-0.44,1.15,-1.23,2.07,-2.36,2.76 c-1.13,0.69,-2.46,1.03,-3.98,1.03 c-2.43,0,-4.53,-0.77,-6.3,-2.32 c-1.77,-1.54,-2.65,-4.48,-2.65,-8.79 l0,-18.41 Z M400.23,90.85 l5.9,-0.73 c-0.93,-3.45,-2.66,-6.13,-5.17,-8.03 c-2.52,-1.9,-5.73,-2.86,-9.65,-2.86 c-4.93,0,-8.84,1.52,-11.73,4.55 c-2.89,3.04,-4.33,7.29,-4.33,12.77 c0,5.67,1.46,10.07,4.38,13.2 c2.92,3.13,6.71,4.7,11.36,4.7 c4.51,0,8.19,-1.53,11.04,-4.6 c2.86,-3.07,4.28,-7.38,4.28,-12.95 c0,-0.34,-0.01,-0.85,-0.03,-1.52 l-25.14,0 c0.21,-3.7,1.26,-6.54,3.14,-8.51 c1.88,-1.97,4.23,-2.95,7.05,-2.95 c2.09,0,3.88,0.55,5.36,1.65 c1.48,1.1,2.66,2.86,3.52,5.27 Z M381.48,100.09 l18.82,0 c-0.25,2.84,-0.97,4.96,-2.16,6.38 c-1.82,2.2,-4.18,3.3,-7.08,3.3 c-2.62,0,-4.83,-0.88,-6.62,-2.63 c-1.79,-1.76,-2.78,-4.1,-2.97,-7.05 Z M381.48,100.09" fill="rgb(0,0,0)" transform="matrix(1,0,0,-1,0,200)"/>
</svg>