<?xml version="1.0" encoding="UTF-8"?>
<svg height="200" version="1.1" width="500" xmlns="http://www.w3.org/2000/svg" xmlns:xlink="http://www.w3.org/1999/xlink">
 <path d="M0,0 l500,0 l0,200 l-500,0 Z M0,0" fill="rgb(255,255,255)" transform="matrix(1,0,0,-1,0,200)"/>
 <path d="M170.19,80 l-10.31,33.71 l5.9,0 l5.36,-19.46 l2.0,-7.24 c0.08,0.36,0.67,2.68,1.75,6.95 l5.36,19.74 l5.87,0 l5.05,-19.55 l1.68,-6.44 l1.94,6.51 l5.78,19.49 l5.55,0 l-10.54,-33.71 l-5.94,0 l-5.36,20.19 l-1.3,5.74 l-6.82,-25.93 Z M210.95,119.96 l0,6.57 l5.71,0 l0,-6.57 Z M210.95,80 l0,33.71 l5.71,0 l0,-33.71 Z M225.36,80 l0,33.71 l5.14,0 l0,-4.79 c2.48,3.7,6.05,5.55,10.73,5.55 c2.03,0,3.9,-0.36,5.6,-1.09 c1.7,-0.73,2.98,-1.69,3.82,-2.87 c0.85,-1.18,1.44,-2.59,1.78,-4.22 c0.21,-1.06,0.32,-2.91,0.32,-5.55 l0,-20.73 l-5.71,0 l0,20.5 c0,2.33,-0.22,4.07,-0.67,5.22 c-0.44,1.15,-1.23,2.07,-2.36,2.76 c-1.13,0.69,-2.46,1.03,-3.98,1.03 c-2.43,0,-4.53,-0.77,-6.3,-2.32 c-1.77,-1.54,-2.65,-4.48,-2.65,-8.79 l0,-18.41 Z M261.51,80 l0,33.71 l5.14,0 l0,-4.79 c2.48,3.7,6.05,5.55,10.73,5.55 c2.03,0,3.9,-0.36,5.6,-1.09 c1.7,-0.73,2.98,-1.69,3.82,-2.87 c0.85,-1.18,1.44,-2.59,1.78,-4.22 c0.21,-1.06,0.32,-2.91,0.32,-5.55 l0,-20.73 l-5.71,0 l0,20.5 c0,2.33,-0.22,4.07,-0.67,5.22 c-0.44,1.15,-1.23,2.07,-2.36,2.76 c-1.13,0.69,-2.46,1.03,-3.98,1.03 c-2.43,0,-4.53,-0.77,-6.3,-2.32 c-1.77,-1.54,-2.65,-4.48,-2.65,-8.79 l0,-18.41 Z M297.69,119.96 l0,6.57 l5.71,0 l0,-6.57 Z M297.69,80 l0,33.71 l5.71,0 l0,-33.71 Z M334.09,92.35 l5.62,-0.73 c-0.61,-3.87,-2.18,-6.9,-4.71,-9.09 c-2.53,-2.19,-5.63,-3.28,-9.32,-3.28 c-4.61,0,-8.32,1.51,-11.12,4.52 c-2.8,3.02,-4.21,7.34,-4.21,12.97 c0,3.64,0.6,6.82,1.81,9.55 c1.21,2.73,3.04,4.78,5.51,6.14 c2.47,1.36,5.15,2.05,8.05,2.05 c3.66,0,6.65,-0.93,8.98,-2.78 c2.33,-1.85,3.82,-4.48,4.48,-7.89 l-5.55,-0.86 c-0.53,2.26,-1.47,3.97,-2.81,5.11 c-1.34,1.14,-2.97,1.71,-4.87,1.71 c-2.88,0,-5.22,-1.03,-7.01,-3.09 c-1.8,-2.06,-2.7,-5.33,-2.7,-9.79 c0,-4.53,0.87,-7.82,2.6,-9.87 c1.74,-2.05,4.0,-3.08,6.79,-3.08 c2.24,0,4.12,0.69,5.62,2.06 c1.5,1.38,2.45,3.49,2.86,6.35 Z M334.09,92.35" fill="rgb(0,0,0)" transform="matrix(1,0,0,-1,0,200)"/>
</svg>