<?xml version="1.0" encoding="UTF-8"?>
<svg height="200" version="1.1" width="800" xmlns="http://www.w3.org/2000/svg" xmlns:xlink="http://www.w3.org/1999/xlink">
 <path d="M0,0 l800,0 l0,200 l-800,0 Z M0,0" fill="rgb(255,255,255)" transform="matrix(1,0,0,-1,0,200)"/>
 <path d="M340.05,90.05 c0.94,0,1.83,0.2,2.66,0.59 c0.83,0.39,1.54,1.08,2.11,2.05 l0,4.82 l-4.91,0 c-0.88,0,-1.58,-0.27,-2.11,-0.8 c-0.53,-0.53,-0.8,-1.49,-0.8,-2.89 c0,-1.21,0.25,-2.14,0.75,-2.8 c0.5,-0.65,1.27,-0.98,2.3,-0.98 Z M338.55,85.68 c-2.3,0,-4.11,0.69,-5.41,2.07 c-1.3,1.38,-1.95,3.3,-1.95,5.75 c0,2.45,0.7,4.36,2.09,5.7 c1.39,1.35,3.29,2.02,5.68,2.02 l5.86,0 l0,4.23 c0,1.21,-0.32,2.18,-0.95,2.91 c-0.64,0.73,-1.56,1.09,-2.77,1.09 c-1.27,0,-2.2,-0.33,-2.8,-0.98 c-0.59,-0.65,-1.05,-1.9,-1.39,-3.75 l-5.27,1.09 c0.48,2.79,1.58,4.83,3.3,6.11 c1.71,1.29,3.93,1.93,6.66,1.93 c2.94,0,5.23,-0.64,6.89,-1.91 c1.65,-1.27,2.48,-3.32,2.48,-6.14 l0,-12.23 c0,-1.39,0.33,-2.28,1,-2.66 c0.67,-0.38,1.7,-0.42,3.09,-0.11 l0,-4.73 c-2.06,-0.39,-3.75,-0.31,-5.07,0.25 c-1.32,0.56,-2.17,1.77,-2.57,3.61 l-1,0 c-0.76,-1.27,-1.82,-2.3,-3.18,-3.09 c-1.36,-0.79,-2.92,-1.18,-4.68,-1.18 Z M372.68,85.73 c-1.94,0,-3.75,0.27,-5.43,0.82 c-1.68,0.55,-3.08,1.36,-4.2,2.45 l0,33.5 l6.18,0 l0,-12.82 l1,0 c0.39,1.33,1.11,2.36,2.16,3.09 c1.05,0.73,2.33,1.09,3.84,1.09 c2.12,0,3.76,-0.8,4.91,-2.41 c1.15,-1.61,1.73,-3.91,1.73,-6.91 l0,-9.36 c0,-3.03,-0.87,-5.36,-2.61,-7 c-1.74,-1.64,-4.27,-2.45,-7.57,-2.45 Z M373,90.36 c1.3,0,2.24,0.38,2.82,1.14 c0.58,0.76,0.86,2.02,0.86,3.77 l0,9 c0,1.64,-0.26,2.82,-0.77,3.55 c-0.52,0.73,-1.26,1.09,-2.23,1.09 c-0.85,0,-1.65,-0.26,-2.41,-0.77 c-0.76,-0.52,-1.44,-1.33,-2.05,-2.45 l0,-14.09 c0.42,-0.39,0.95,-0.7,1.57,-0.91 c0.62,-0.21,1.36,-0.32,2.2,-0.32 Z M401.73,85.68 c-3.09,0,-5.52,0.88,-7.27,2.64 c-1.76,1.76,-2.64,4.2,-2.64,7.32 l0,8.14 c-0.0,3.15,0.89,5.62,2.66,7.41 c1.77,1.79,4.2,2.68,7.3,2.68 c3.06,0,5.47,-0.89,7.23,-2.68 c1.76,-1.79,2.64,-4.26,2.64,-7.41 l0,-8.14 c0,-3.12,-0.88,-5.56,-2.64,-7.32 c-1.76,-1.76,-4.18,-2.64,-7.27,-2.64 Z M401.73,90.41 c1.3,0,2.25,0.42,2.84,1.25 c0.59,0.83,0.89,2.2,0.89,4.11 l0,8 c0,1.91,-0.3,3.29,-0.89,4.14 c-0.59,0.85,-1.54,1.27,-2.84,1.27 c-1.33,0,-2.29,-0.43,-2.86,-1.3 c-0.58,-0.86,-0.86,-2.25,-0.86,-4.16 l0,-7.95 c0,-1.91,0.29,-3.28,0.86,-4.11 c0.58,-0.83,1.53,-1.25,2.86,-1.25 Z M427.0,85.68 c-2.0,0,-3.57,0.77,-4.7,2.3 c-1.14,1.53,-1.7,3.6,-1.7,6.2 l0,19.23 l6.18,0 l0,-18.27 c0,-1.48,0.23,-2.6,0.68,-3.34 c0.45,-0.74,1.14,-1.11,2.05,-1.11 c0.94,0,1.82,0.32,2.64,0.95 c0.82,0.64,1.52,1.53,2.09,2.68 l0,19.09 l6.18,0 l0,-27.27 l-6.18,0 l0,3.77 l-1,0 c-0.39,-1.3,-1.16,-2.33,-2.3,-3.09 c-1.14,-0.76,-2.45,-1.14,-3.93,-1.14 Z M458.5,90.68 c0.85,0,1.65,0.27,2.41,0.82 c0.76,0.55,1.45,1.41,2.09,2.59 l0,13.55 c-0.67,0.55,-1.3,0.95,-1.91,1.2 c-0.61,0.26,-1.23,0.39,-1.86,0.39 c-1.27,0,-2.2,-0.4,-2.8,-1.2 c-0.59,-0.8,-0.89,-2.04,-0.89,-3.7 l0,-9.05 c-0.0,-1.58,0.26,-2.73,0.77,-3.48 c0.52,-0.74,1.24,-1.11,2.18,-1.11 Z M462,90.14 c-0.39,-1.39,-1.14,-2.48,-2.23,-3.27 c-1.09,-0.79,-2.41,-1.18,-3.95,-1.18 c-2.03,0,-3.61,0.82,-4.75,2.45 c-1.14,1.64,-1.7,3.94,-1.7,6.91 l0,9.32 c0,3.0,0.78,5.33,2.34,6.98 c1.56,1.65,3.72,2.48,6.48,2.48 c0.85,-0.0,1.68,-0.11,2.5,-0.32 c0.82,-0.21,1.59,-0.52,2.32,-0.91 l0,9.91 l6.18,0 l0,-36.36 l-6.18,0 l0,4 Z M462,90.14" fill="rgb(0,0,0)" transform="matrix(1,0,0,-1,0,200)"/>
</svg>