<?xml version="1.0" encoding="UTF-8"?>
<svg height="200" version="1.1" width="800" xmlns="http://www.w3.org/2000/svg" xmlns:xlink="http://www.w3.org/1999/xlink">
 <path d="M0,0 l800,0 l0,200 l-800,0 Z M0,0" fill="rgb(255,255,255)" transform="matrix(1,0,0,-1,0,200)"/>
 <path d="M297.55,86.14 l-8.09,0 l-6.73,27.27 l6.09,0 l4.77,-22.23 l4.82,22.23 l5.86,0 Z M330.45,92.27 c-0.64,-2.18,-1.82,-3.83,-3.55,-4.93 c-1.73,-1.11,-3.86,-1.66,-6.41,-1.66 c-3.06,0,-5.46,0.86,-7.2,2.57 c-1.74,1.71,-2.61,4.07,-2.61,7.07 l0,8.91 c0,3.0,0.89,5.36,2.66,7.07 c1.77,1.71,4.2,2.57,7.3,2.57 c3.06,0,5.47,-0.88,7.23,-2.64 c1.76,-1.76,2.64,-4.18,2.64,-7.27 l0,-5.32 l-13.64,0 l0,-3.32 c0,-1.94,0.31,-3.3,0.93,-4.09 c0.62,-0.79,1.66,-1.18,3.11,-1.18 c1.27,0,2.22,0.27,2.84,0.82 c0.62,0.55,1.14,1.5,1.57,2.86 Z M316.86,104.18 l0,-1.82 l7.45,0 l0,1.55 c0,2.03,-0.29,3.48,-0.86,4.36 c-0.58,0.88,-1.53,1.32,-2.86,1.32 c-1.33,0,-2.29,-0.42,-2.86,-1.25 c-0.58,-0.83,-0.86,-2.22,-0.86,-4.16 Z M339.45,86.14 l0,27.27 l6.18,0 l0,-3.73 l1,0 c0.39,1.48,1.11,2.55,2.14,3.2 c1.03,0.65,2.12,0.98,3.27,0.98 c1.82,0,3.18,-0.62,4.09,-1.86 c0.91,-1.24,1.36,-2.98,1.36,-5.23 l0,-4.95 l-5.64,0 l0,4.09 c0,0.91,-0.17,1.64,-0.52,2.18 c-0.35,0.55,-0.9,0.82,-1.66,0.82 c-0.7,0,-1.42,-0.33,-2.18,-1 c-0.76,-0.67,-1.38,-1.53,-1.86,-2.59 l0,-19.18 Z M384.59,92.27 c-0.64,-2.18,-1.82,-3.83,-3.55,-4.93 c-1.73,-1.11,-3.86,-1.66,-6.41,-1.66 c-3.06,0,-5.46,0.86,-7.2,2.57 c-1.74,1.71,-2.61,4.07,-2.61,7.07 l0,8.91 c0,3.0,0.89,5.36,2.66,7.07 c1.77,1.71,4.2,2.57,7.3,2.57 c3.06,0,5.47,-0.88,7.23,-2.64 c1.76,-1.76,2.64,-4.18,2.64,-7.27 l0,-5.32 l-13.64,0 l0,-3.32 c0,-1.94,0.31,-3.3,0.93,-4.09 c0.62,-0.79,1.66,-1.18,3.11,-1.18 c1.27,0,2.22,0.27,2.84,0.82 c0.62,0.55,1.14,1.5,1.57,2.86 Z M371,104.18 l0,-1.82 l7.45,0 l0,1.55 c0,2.03,-0.29,3.48,-0.86,4.36 c-0.58,0.88,-1.53,1.32,-2.86,1.32 c-1.33,0,-2.29,-0.42,-2.86,-1.25 c-0.58,-0.83,-0.86,-2.22,-0.86,-4.16 Z M403.68,85.68 c-3.36,0,-5.89,0.83,-7.57,2.5 c-1.68,1.67,-2.52,4.0,-2.52,7 l0,9.05 c0,3.24,0.88,5.66,2.64,7.25 c1.76,1.59,4.24,2.39,7.45,2.39 c3.18,0,5.61,-0.77,7.3,-2.32 c1.68,-1.55,2.61,-3.89,2.8,-7.05 l-5.95,-0.41 c-0.09,1.85,-0.44,3.15,-1.05,3.91 c-0.61,0.76,-1.61,1.14,-3,1.14 c-1.48,0,-2.52,-0.37,-3.11,-1.11 c-0.59,-0.74,-0.89,-2.02,-0.89,-3.84 l0,-8.86 c0,-1.82,0.3,-3.09,0.91,-3.82 c0.61,-0.73,1.65,-1.09,3.14,-1.09 c1.39,0,2.39,0.34,2.98,1.02 c0.59,0.68,0.93,1.87,1.02,3.57 l5.95,-0.36 c-0.15,-3.03,-1.06,-5.28,-2.73,-6.75 c-1.67,-1.47,-4.12,-2.2,-7.36,-2.2 Z M434.23,85.68 c-2.76,0,-4.86,0.73,-6.3,2.2 c-1.44,1.47,-2.16,3.61,-2.16,6.43 l0,14.41 l-4.09,0 l0,4.68 l4.09,0 l0,9.09 l6.18,0 l0,-9.09 l6.95,0 l0,-4.68 l-6.95,0 l0,-14.09 c-0.0,-1.45,0.29,-2.52,0.86,-3.18 c0.58,-0.67,1.35,-1,2.32,-1 c0.45,0,0.97,0.08,1.55,0.23 c0.58,0.15,1.18,0.38,1.82,0.68 l0.68,-4.59 c-0.58,-0.33,-1.31,-0.6,-2.2,-0.8 c-0.89,-0.2,-1.81,-0.3,-2.75,-0.3 Z M449.36,86.14 l0,27.27 l6.18,0 l0,-27.27 Z M452.45,118.18 c-1.21,0,-2.2,0.2,-2.95,0.61 c-0.76,0.41,-1.14,1.14,-1.14,2.2 l0,0.41 c0,1.09,0.38,1.86,1.14,2.3 c0.76,0.44,1.74,0.66,2.95,0.66 c1.21,0,2.2,-0.22,2.95,-0.66 c0.76,-0.44,1.14,-1.2,1.14,-2.3 l0,-0.41 c0,-1.06,-0.38,-1.8,-1.14,-2.2 c-0.76,-0.41,-1.74,-0.61,-2.95,-0.61 Z M476.05,85.68 c-3.09,0,-5.52,0.88,-7.27,2.64 c-1.76,1.76,-2.64,4.2,-2.64,7.32 l0,8.14 c0,3.15,0.89,5.62,2.66,7.41 c1.77,1.79,4.2,2.68,7.3,2.68 c3.06,0,5.47,-0.89,7.23,-2.68 c1.76,-1.79,2.64,-4.26,2.64,-7.41 l0,-8.14 c-0.0,-3.12,-0.88,-5.56,-2.64,-7.32 c-1.76,-1.76,-4.18,-2.64,-7.27,-2.64 Z M476.05,90.41 c1.3,0,2.25,0.42,2.84,1.25 c0.59,0.83,0.89,2.2,0.89,4.11 l0,8 c0,1.91,-0.3,3.29,-0.89,4.14 c-0.59,0.85,-1.54,1.27,-2.84,1.27 c-1.33,0,-2.29,-0.43,-2.86,-1.3 c-0.58,-0.86,-0.86,-2.25,-0.86,-4.16 l0,-7.95 c0,-1.91,0.29,-3.28,0.86,-4.11 c0.58,-0.83,1.53,-1.25,2.86,-1.25 Z M494.91,86.14 l0,27.27 l6.18,0 l0,-3.73 l1,0 c0.48,1.3,1.3,2.33,2.43,3.07 c1.14,0.74,2.42,1.11,3.84,1.11 c1.94,0,3.48,-0.77,4.64,-2.3 c1.15,-1.53,1.73,-3.58,1.73,-6.16 l0,-19.27 l-6.18,0 l0,18.27 c0.0,1.48,-0.23,2.61,-0.68,3.36 c-0.45,0.76,-1.14,1.14,-2.05,1.14 c-0.94,0,-1.82,-0.33,-2.64,-0.98 c-0.82,-0.65,-1.52,-1.54,-2.09,-2.66 l0,-19.14 Z M494.91,86.14" fill="rgb(0,0,0)" transform="matrix(1,0,0,-1,0,200)"/>
</svg>