<?xml version="1.0" encoding="UTF-8"?>
<svg height="200" version="1.1" width="800" xmlns="http://www.w3.org/2000/svg" xmlns:xlink="http://www.w3.org/1999/xlink">
 <path d="M0,0 l800,0 l0,200 l-800,0 Z M0,0" fill="rgb(255,255,255)" transform="matrix(1,0,0,-1,0,200)"/>
 <path d="M342.14,86.14 l-3.59,17.23 l-3.41,-17.23 l-6.77,0 l-5,27.27 l5.41,0 l3.55,-21.41 l3.41,16.86 l5.55,0 l3.68,-16.64 l3.41,21.18 l5.18,0 l-5.05,-27.27 Z M362.36,86.14 l0,27.27 l6.18,0 l0,-27.27 Z M365.45,118.18 c-1.21,0,-2.2,0.2,-2.95,0.61 c-0.76,0.41,-1.14,1.14,-1.14,2.2 l0,0.41 c0,1.09,0.38,1.86,1.14,2.3 c0.76,0.44,1.74,0.66,2.95,0.66 c1.21,0,2.2,-0.22,2.95,-0.66 c0.76,-0.44,1.14,-1.2,1.14,-2.3 l0,-0.41 c0,-1.06,-0.38,-1.8,-1.14,-2.2 c-0.76,-0.41,-1.74,-0.61,-2.95,-0.61 Z M379.14,86.14 l0,27.27 l6.18,0 l0,-3.73 l1,0 c0.48,1.3,1.3,2.33,2.43,3.07 c1.14,0.74,2.42,1.11,3.84,1.11 c1.94,0,3.48,-0.77,4.64,-2.3 c1.15,-1.53,1.73,-3.58,1.73,-6.16 l0,-19.27 l-6.18,0 l0,18.27 c0,1.48,-0.23,2.61,-0.68,3.36 c-0.45,0.76,-1.14,1.14,-2.05,1.14 c-0.94,0,-1.82,-0.33,-2.64,-0.98 c-0.82,-0.65,-1.52,-1.54,-2.09,-2.66 l0,-19.14 Z M407.91,86.14 l0,27.27 l6.18,0 l0,-3.73 l1,0 c0.48,1.3,1.3,2.33,2.43,3.07 c1.14,0.74,2.42,1.11,3.84,1.11 c1.94,0,3.48,-0.77,4.64,-2.3 c1.15,-1.53,1.73,-3.58,1.73,-6.16 l0,-19.27 l-6.18,0 l0,18.27 c0,1.48,-0.23,2.61,-0.68,3.36 c-0.45,0.76,-1.14,1.14,-2.05,1.14 c-0.94,0,-1.82,-0.33,-2.64,-0.98 c-0.82,-0.65,-1.52,-1.54,-2.09,-2.66 l0,-19.14 Z M438.32,86.14 l0,27.27 l6.18,0 l0,-27.27 Z M441.41,118.18 c-1.21,0,-2.2,0.2,-2.95,0.61 c-0.76,0.41,-1.14,1.14,-1.14,2.2 l0,0.41 c-0.0,1.09,0.38,1.86,1.14,2.3 c0.76,0.44,1.74,0.66,2.95,0.66 c1.21,0,2.2,-0.22,2.95,-0.66 c0.76,-0.44,1.14,-1.2,1.14,-2.3 l0,-0.41 c0,-1.06,-0.38,-1.8,-1.14,-2.2 c-0.76,-0.41,-1.74,-0.61,-2.95,-0.61 Z M465.18,85.68 c-3.36,0,-5.89,0.83,-7.57,2.5 c-1.68,1.67,-2.52,4.0,-2.52,7 l0,9.05 c0,3.24,0.88,5.66,2.64,7.25 c1.76,1.59,4.24,2.39,7.45,2.39 c3.18,0,5.61,-0.77,7.3,-2.32 c1.68,-1.55,2.61,-3.89,2.8,-7.05 l-5.95,-0.41 c-0.09,1.85,-0.44,3.15,-1.05,3.91 c-0.61,0.76,-1.61,1.14,-3,1.14 c-1.48,0,-2.52,-0.37,-3.11,-1.11 c-0.59,-0.74,-0.89,-2.02,-0.89,-3.84 l0,-8.86 c0,-1.82,0.3,-3.09,0.91,-3.82 c0.61,-0.73,1.65,-1.09,3.14,-1.09 c1.39,0,2.39,0.34,2.98,1.02 c0.59,0.68,0.93,1.87,1.02,3.57 l5.95,-0.36 c-0.15,-3.03,-1.06,-5.28,-2.73,-6.75 c-1.67,-1.47,-4.12,-2.2,-7.36,-2.2 Z M465.18,85.68" fill="rgb(0,0,0)" transform="matrix(1,0,0,-1,0,200)"/>
</svg>