<?xml version="1.0" encoding="UTF-8"?>
<svg height="200" version="1.1" width="800" xmlns="http://www.w3.org/2000/svg" xmlns:xlink="http://www.w3.org/1999/xlink">
 <path d="M0,0 l800,0 l0,200 l-800,0 Z M0,0" fill="rgb(255,255,255)" transform="matrix(1,0,0,-1,0,200)"/>
 <path d="M153.32,71.82 c-6.73,0,-11.77,1.67,-15.14,5 c-3.36,3.33,-5.05,8.0,-5.05,14 l0,18.09 c0,6.48,1.76,11.32,5.27,14.5 c3.52,3.18,8.48,4.77,14.91,4.77 c6.36,0,11.23,-1.55,14.59,-4.64 c3.36,-3.09,5.23,-7.79,5.59,-14.09 l-11.91,-0.82 c-0.18,3.7,-0.88,6.3,-2.09,7.82 c-1.21,1.52,-3.21,2.27,-6,2.27 c-2.97,0,-5.05,-0.74,-6.23,-2.23 c-1.18,-1.48,-1.77,-4.05,-1.77,-7.68 l0,-17.73 c0,-3.64,0.61,-6.18,1.82,-7.64 c1.21,-1.45,3.3,-2.18,6.27,-2.18 c2.79,0,4.77,0.68,5.95,2.05 c1.18,1.36,1.86,3.74,2.05,7.14 l11.91,-0.73 c-0.3,-6.06,-2.12,-10.56,-5.45,-13.5 c-3.33,-2.94,-8.24,-4.41,-14.73,-4.41 Z M209.05,80.55 c1.88,0,3.65,0.39,5.32,1.18 c1.67,0.79,3.08,2.15,4.23,4.09 l0,9.64 l-9.82,0 c-1.76,0,-3.17,-0.53,-4.23,-1.59 c-1.06,-1.06,-1.59,-2.98,-1.59,-5.77 c0.0,-2.42,0.5,-4.29,1.5,-5.59 c1.0,-1.3,2.53,-1.95,4.59,-1.95 Z M206.05,71.82 c-4.61,0,-8.21,1.38,-10.82,4.14 c-2.61,2.76,-3.91,6.59,-3.91,11.5 c0,4.91,1.39,8.71,4.18,11.41 c2.79,2.7,6.58,4.05,11.36,4.05 l11.73,0 l0,8.45 c0,2.42,-0.64,4.36,-1.91,5.82 c-1.27,1.45,-3.12,2.18,-5.55,2.18 c-2.55,0.0,-4.41,-0.65,-5.59,-1.95 c-1.18,-1.3,-2.11,-3.8,-2.77,-7.5 l-10.55,2.18 c0.97,5.58,3.17,9.65,6.59,12.23 c3.42,2.58,7.86,3.86,13.32,3.86 c5.88,0,10.47,-1.27,13.77,-3.82 c3.3,-2.55,4.95,-6.64,4.95,-12.27 l0,-24.45 c0,-2.79,0.67,-4.56,2,-5.32 c1.33,-0.76,3.39,-0.83,6.18,-0.23 l0,-9.45 c-4.12,-0.79,-7.5,-0.62,-10.14,0.5 c-2.64,1.12,-4.35,3.53,-5.14,7.23 l-2,0 c-1.52,-2.55,-3.64,-4.61,-6.36,-6.18 c-2.73,-1.58,-5.85,-2.36,-9.36,-2.36 Z M267.41,112.09 l0,-39.36 l-12.36,0 l0,54.55 l12.36,0 l0,-7.45 l2,0 c0.79,2.55,2.2,4.58,4.23,6.09 c2.03,1.52,4.29,2.27,6.77,2.27 c2.36,0,4.39,-0.74,6.09,-2.23 c1.7,-1.48,2.94,-3.53,3.73,-6.14 l3,0 c0.85,2.55,2.26,4.58,4.23,6.09 c1.97,1.52,4.17,2.27,6.59,2.27 c3.39,0,6.09,-1.42,8.09,-4.27 c2.0,-2.85,3,-6.79,3,-11.82 l0,-39.36 l-12.36,0 l0,38.36 c0,2.36,-0.35,4.15,-1.05,5.36 c-0.7,1.21,-1.74,1.82,-3.14,1.82 c-1.45,-0.0,-2.82,-0.52,-4.09,-1.55 c-1.27,-1.03,-2.36,-2.58,-3.27,-4.64 l0,-39.36 l-12.27,0 l0,38.36 c0,2.36,-0.35,4.15,-1.05,5.36 c-0.7,1.21,-1.71,1.82,-3.05,1.82 c-1.52,-0.0,-2.91,-0.52,-4.18,-1.55 c-1.27,-1.03,-2.36,-2.58,-3.27,-4.64 Z M345.41,112.09 l0,-39.36 l-12.36,0 l0,54.55 l12.36,0 l0,-7.45 l2,0 c0.79,2.55,2.2,4.58,4.23,6.09 c2.03,1.52,4.29,2.27,6.77,2.27 c2.36,0,4.39,-0.74,6.09,-2.23 c1.7,-1.48,2.94,-3.53,3.73,-6.14 l3,0 c0.85,2.55,2.26,4.58,4.23,6.09 c1.97,1.52,4.17,2.27,6.59,2.27 c3.39,0,6.09,-1.42,8.09,-4.27 c2.0,-2.85,3,-6.79,3,-11.82 l0,-39.36 l-12.36,0 l0,38.36 c0,2.36,-0.35,4.15,-1.05,5.36 c-0.7,1.21,-1.74,1.82,-3.14,1.82 c-1.45,-0.0,-2.82,-0.52,-4.09,-1.55 c-1.27,-1.03,-2.36,-2.58,-3.27,-4.64 l0,-39.36 l-12.27,0 l0,38.36 c0,2.36,-0.35,4.15,-1.05,5.36 c-0.7,1.21,-1.71,1.82,-3.05,1.82 c-1.52,-0.0,-2.91,-0.52,-4.18,-1.55 c-1.27,-1.03,-2.36,-2.58,-3.27,-4.64 Z M423.86,71.82 c-4.0,0,-7.14,1.53,-9.41,4.59 c-2.27,3.06,-3.41,7.2,-3.41,12.41 l0,38.45 l12.36,0 l0,-36.55 c0,-2.97,0.45,-5.2,1.36,-6.68 c0.91,-1.48,2.27,-2.23,4.09,-2.23 c1.88,0,3.64,0.64,5.27,1.91 c1.64,1.27,3.03,3.06,4.18,5.36 l0,38.18 l12.36,0 l0,-54.55 l-12.36,0 l0,7.55 l-2,0 c-0.79,-2.61,-2.32,-4.67,-4.59,-6.18 c-2.27,-1.52,-4.89,-2.27,-7.86,-2.27 Z M468.59,72.73 l0,54.55 l12.36,0 l0,-7.45 l2,0 c0.97,2.61,2.59,4.65,4.86,6.14 c2.27,1.48,4.83,2.23,7.68,2.23 c3.88,0,6.97,-1.53,9.27,-4.59 c2.3,-3.06,3.45,-7.17,3.45,-12.32 l0,-38.55 l-12.36,0 l0,36.55 c0,2.97,-0.45,5.21,-1.36,6.73 c-0.91,1.52,-2.27,2.27,-4.09,2.27 c-1.88,-0.0,-3.64,-0.65,-5.27,-1.95 c-1.64,-1.3,-3.03,-3.08,-4.18,-5.32 l0,-38.27 Z M529.41,72.73 l0,54.55 l12.36,0 l0,-54.55 Z M535.59,136.82 c-2.42,0,-4.39,0.41,-5.91,1.23 c-1.52,0.82,-2.27,2.29,-2.27,4.41 l0,0.82 c0,2.18,0.76,3.71,2.27,4.59 c1.52,0.88,3.48,1.32,5.91,1.32 c2.42,0,4.39,-0.44,5.91,-1.32 c1.52,-0.88,2.27,-2.41,2.27,-4.59 l0,-0.82 c0,-2.12,-0.76,-3.59,-2.27,-4.41 c-1.52,-0.82,-3.48,-1.23,-5.91,-1.23 Z M562.95,72.73 l0,54.55 l12.36,0 l0,-7.45 l2,0 c0.97,2.61,2.59,4.65,4.86,6.14 c2.27,1.48,4.83,2.23,7.68,2.23 c3.88,0,6.97,-1.53,9.27,-4.59 c2.3,-3.06,3.45,-7.17,3.45,-12.32 l0,-38.55 l-12.36,0 l0,36.55 c0,2.97,-0.45,5.21,-1.36,6.73 c-0.91,1.52,-2.27,2.27,-4.09,2.27 c-1.88,-0.0,-3.64,-0.65,-5.27,-1.95 c-1.64,-1.3,-3.03,-3.08,-4.18,-5.32 l0,-38.27 Z M666.95,68.82 c0,-4.91,-1.42,-8.67,-4.27,-11.27 c-2.85,-2.61,-6.79,-3.91,-11.82,-3.91 l-13.55,0 c-5.58,0,-9.77,1.12,-12.59,3.36 c-2.82,2.24,-4.23,5.52,-4.23,9.82 c0,2.97,0.71,5.33,2.14,7.09 c1.42,1.76,3.2,2.79,5.32,3.09 l0,1.82 c-1.7,0.48,-3.12,1.42,-4.27,2.82 c-1.15,1.39,-1.73,3.55,-1.73,6.45 c0,2.79,0.91,5.23,2.73,7.32 c1.82,2.09,4.12,3.32,6.91,3.68 l0,1.73 c-2.48,0.91,-4.38,2.35,-5.68,4.32 c-1.3,1.97,-1.95,4.02,-1.95,6.14 l0,1.82 c0,4.3,1.56,7.74,4.68,10.32 c3.12,2.58,7.71,3.86,13.77,3.86 l24.18,0 l0,-8.64 l-11.09,2 l0,-1.73 c1.7,-0.67,3.09,-1.91,4.18,-3.73 c1.09,-1.82,1.64,-3.76,1.64,-5.82 l0,-1.73 c0,-4.18,-1.55,-7.55,-4.64,-10.09 c-3.09,-2.55,-7.79,-3.82,-14.09,-3.82 l-7,0 c-1.39,0,-2.5,-0.38,-3.32,-1.14 c-0.82,-0.76,-1.23,-2.08,-1.23,-3.95 c0,-1.76,0.44,-3.06,1.32,-3.91 c0.88,-0.85,2.08,-1.27,3.59,-1.27 l15.45,0 c4.85,0,8.65,-1.17,11.41,-3.5 c2.76,-2.33,4.14,-6.05,4.14,-11.14 Z M642.68,101 c2.42,0,4.17,0.65,5.23,1.95 c1.06,1.3,1.59,3.26,1.59,5.86 l0,2.82 c0,2.61,-0.55,4.53,-1.64,5.77 c-1.09,1.24,-2.82,1.86,-5.18,1.86 c-2.42,0.0,-4.18,-0.62,-5.27,-1.86 c-1.09,-1.24,-1.64,-3.17,-1.64,-5.77 l0,-2.82 c0,-2.61,0.53,-4.56,1.59,-5.86 c1.06,-1.3,2.83,-1.95,5.32,-1.95 Z M637.41,61.64 l13,0 c1.88,0,3.44,0.44,4.68,1.32 c1.24,0.88,1.86,2.53,1.86,4.95 c0,2.3,-0.61,3.91,-1.82,4.82 c-1.21,0.91,-2.73,1.36,-4.55,1.36 l-18.45,0 l0,-5.64 c0,-2.3,0.44,-4.02,1.32,-5.14 c0.88,-1.12,2.2,-1.68,3.95,-1.68 Z M637.41,61.64" fill="rgb(0,0,0)" transform="matrix(1,0,0,-1,0,200)"/>
</svg>