<?xml version="1.0" encoding="UTF-8"?>
<svg height="200" version="1.1" width="800" xmlns="http://www.w3.org/2000/svg" xmlns:xlink="http://www.w3.org/1999/xlink">
 <path d="M0,0 l800,0 l0,200 l-800,0 Z M0,0" fill="rgb(255,255,255)" transform="matrix(1,0,0,-1,0,200)"/>
 <path d="M233.36,71.36 c-6.73,0,-11.77,1.67,-15.14,5 c-3.36,3.33,-5.05,8.0,-5.05,14 l0,18.09 c0,6.48,1.76,11.32,5.27,14.5 c3.52,3.18,8.48,4.77,14.91,4.77 c6.36,0,11.23,-1.55,14.59,-4.64 c3.36,-3.09,5.23,-7.79,5.59,-14.09 l-11.91,-0.82 c-0.18,3.7,-0.88,6.3,-2.09,7.82 c-1.21,1.52,-3.21,2.27,-6,2.27 c-2.97,0,-5.05,-0.74,-6.23,-2.23 c-1.18,-1.48,-1.77,-4.05,-1.77,-7.68 l0,-17.73 c-0.0,-3.64,0.61,-6.18,1.82,-7.64 c1.21,-1.45,3.3,-2.18,6.27,-2.18 c2.79,0,4.77,0.68,5.95,2.05 c1.18,1.36,1.86,3.74,2.05,7.14 l11.91,-0.73 c-0.3,-6.06,-2.12,-10.56,-5.45,-13.5 c-3.33,-2.94,-8.24,-4.41,-14.73,-4.41 Z M270.73,72.27 l0,72.73 l12.36,0 l0,-25.64 l2,0 c1.03,2.61,2.68,4.65,4.95,6.14 c2.27,1.48,4.8,2.23,7.59,2.23 c3.94,0,7.05,-1.5,9.32,-4.5 c2.27,-3.0,3.41,-7.14,3.41,-12.41 l0,-38.55 l-12.36,0 l0,36.55 c0,3.03,-0.45,5.29,-1.36,6.77 c-0.91,1.48,-2.3,2.23,-4.18,2.23 c-1.88,-0.0,-3.61,-0.62,-5.18,-1.86 c-1.58,-1.24,-2.97,-3.05,-4.18,-5.41 l0,-38.27 Z M331.55,72.27 l0,54.55 l12.36,0 l0,-54.55 Z M337.73,136.36 c-2.42,0,-4.39,0.41,-5.91,1.23 c-1.52,0.82,-2.27,2.29,-2.27,4.41 l0,0.82 c0,2.18,0.76,3.71,2.27,4.59 c1.52,0.88,3.48,1.32,5.91,1.32 c2.42,0,4.39,-0.44,5.91,-1.32 c1.52,-0.88,2.27,-2.41,2.27,-4.59 l0,-0.82 c0,-2.12,-0.76,-3.59,-2.27,-4.41 c-1.52,-0.82,-3.48,-1.23,-5.91,-1.23 Z M384.73,71.64 c-5.15,0,-9.14,1.7,-11.95,5.09 c-2.82,3.39,-4.23,8.15,-4.23,14.27 l0,54 l12.27,0 l0,-54 c0,-3.21,0.48,-5.59,1.45,-7.14 c0.97,-1.55,2.42,-2.32,4.36,-2.32 c0.85,0,1.82,0.15,2.91,0.45 c1.09,0.3,2.12,0.7,3.09,1.18 l1.91,-9.09 c-1.45,-0.73,-3.03,-1.32,-4.73,-1.77 c-1.7,-0.45,-3.39,-0.68,-5.09,-0.68 Z M427.27,81.36 c1.7,0,3.3,0.55,4.82,1.64 c1.52,1.09,2.91,2.82,4.18,5.18 l0,27.09 c-1.33,1.09,-2.61,1.89,-3.82,2.41 c-1.21,0.52,-2.45,0.77,-3.73,0.77 c-2.55,0,-4.41,-0.8,-5.59,-2.41 c-1.18,-1.61,-1.77,-4.08,-1.77,-7.41 l0,-18.09 c0,-3.15,0.52,-5.47,1.55,-6.95 c1.03,-1.48,2.48,-2.23,4.36,-2.23 Z M434.27,80.27 c-0.79,-2.79,-2.27,-4.97,-4.45,-6.55 c-2.18,-1.58,-4.82,-2.36,-7.91,-2.36 c-4.06,0,-7.23,1.64,-9.5,4.91 c-2.27,3.27,-3.41,7.88,-3.41,13.82 l0,18.64 c0,6.0,1.56,10.65,4.68,13.95 c3.12,3.3,7.44,4.95,12.95,4.95 c1.7,0,3.36,-0.21,5,-0.64 c1.64,-0.42,3.18,-1.03,4.64,-1.82 l0,19.82 l12.36,0 l0,-72.73 l-12.36,0 l0,8 Z M469.82,72.27 l0,54.55 l12.36,0 l0,-54.55 Z M476.0,136.36 c-2.42,0,-4.39,0.41,-5.91,1.23 c-1.52,0.82,-2.27,2.29,-2.27,4.41 l0,0.82 c0,2.18,0.76,3.71,2.27,4.59 c1.52,0.88,3.48,1.32,5.91,1.32 c2.42,0,4.39,-0.44,5.91,-1.32 c1.52,-0.88,2.27,-2.41,2.27,-4.59 l0,-0.82 c0,-2.12,-0.76,-3.59,-2.27,-4.41 c-1.52,-0.82,-3.48,-1.23,-5.91,-1.23 Z M527.09,71.36 c-5.52,0,-9.71,1.47,-12.59,4.41 c-2.88,2.94,-4.32,7.23,-4.32,12.86 l0,28.82 l-8.18,0 l0,9.36 l8.18,0 l0,18.18 l12.36,0 l0,-18.18 l13.91,0 l0,-9.36 l-13.91,0 l0,-28.18 c0,-2.91,0.58,-5.03,1.73,-6.36 c1.15,-1.33,2.7,-2,4.64,-2 c0.91,0,1.94,0.15,3.09,0.45 c1.15,0.3,2.36,0.76,3.64,1.36 l1.36,-9.18 c-1.15,-0.67,-2.62,-1.2,-4.41,-1.59 c-1.79,-0.39,-3.62,-0.59,-5.5,-0.59 Z M561,53.36 c-1.64,0,-3.39,0.09,-5.27,0.27 c-1.88,0.18,-3.91,0.42,-6.09,0.73 l0.82,9.36 c1.7,-0.3,3.26,-0.55,4.68,-0.73 c1.42,-0.18,2.68,-0.27,3.77,-0.27 c3.33,0,5.71,0.8,7.14,2.41 c1.42,1.61,2.53,3.95,3.32,7.05 l0.18,1.09 l-8.27,0 l-12.36,53.55 l12.18,0 l9.91,-46.27 l9.18,46.27 l11.82,0 l-12.09,-57.36 c-1.45,-5.82,-3.73,-9.95,-6.82,-12.41 c-3.09,-2.45,-7.12,-3.68,-12.09,-3.68 Z M561,53.36" fill="rgb(0,0,0)" transform="matrix(1,0,0,-1,0,200)"/>
</svg>