<?xml version="1.0" encoding="UTF-8"?>
<svg height="200" version="1.1" width="800" xmlns="http://www.w3.org/2000/svg" xmlns:xlink="http://www.w3.org/1999/xlink">
 <path d="M0,0 l800,0 l0,200 l-800,0 Z M0,0" fill="rgb(255,255,255)" transform="matrix(1,0,0,-1,0,200)"/>
 <path d="M285.18,85.68 c-3.36,0,-5.89,0.83,-7.57,2.5 c-1.68,1.67,-2.52,4.0,-2.52,7 l0,9.05 c0,3.24,0.88,5.66,2.64,7.25 c1.76,1.59,4.24,2.39,7.45,2.39 c3.18,0,5.61,-0.77,7.3,-2.32 c1.68,-1.55,2.61,-3.89,2.8,-7.05 l-5.95,-0.41 c-0.09,1.85,-0.44,3.15,-1.05,3.91 c-0.61,0.76,-1.61,1.14,-3,1.14 c-1.48,0,-2.52,-0.37,-3.11,-1.11 c-0.59,-0.74,-0.89,-2.02,-0.89,-3.84 l0,-8.86 c0,-1.82,0.3,-3.09,0.91,-3.82 c0.61,-0.73,1.65,-1.09,3.14,-1.09 c1.39,0,2.39,0.34,2.98,1.02 c0.59,0.68,0.93,1.87,1.02,3.57 l5.95,-0.36 c-0.15,-3.03,-1.06,-5.28,-2.73,-6.75 c-1.67,-1.47,-4.12,-2.2,-7.36,-2.2 Z M313.77,85.68 c-3.09,0,-5.52,0.88,-7.27,2.64 c-1.76,1.76,-2.64,4.2,-2.64,7.32 l0,8.14 c0,3.15,0.89,5.62,2.66,7.41 c1.77,1.79,4.2,2.68,7.3,2.68 c3.06,0,5.47,-0.89,7.23,-2.68 c1.76,-1.79,2.64,-4.26,2.64,-7.41 l0,-8.14 c0,-3.12,-0.88,-5.56,-2.64,-7.32 c-1.76,-1.76,-4.18,-2.64,-7.27,-2.64 Z M313.77,90.41 c1.3,0,2.25,0.42,2.84,1.25 c0.59,0.83,0.89,2.2,0.89,4.11 l0,8 c0,1.91,-0.3,3.29,-0.89,4.14 c-0.59,0.85,-1.54,1.27,-2.84,1.27 c-1.33,0,-2.29,-0.43,-2.86,-1.3 c-0.58,-0.86,-0.86,-2.25,-0.86,-4.16 l0,-7.95 c0,-1.91,0.29,-3.28,0.86,-4.11 c0.58,-0.83,1.53,-1.25,2.86,-1.25 Z M338.82,105.82 l0,-19.68 l-6.18,0 l0,27.27 l6.18,0 l0,-3.73 l1,0 c0.39,1.27,1.1,2.29,2.11,3.05 c1.02,0.76,2.14,1.14,3.39,1.14 c1.18,0,2.2,-0.37,3.05,-1.11 c0.85,-0.74,1.47,-1.77,1.86,-3.07 l1.5,0 c0.42,1.27,1.13,2.29,2.11,3.05 c0.98,0.76,2.08,1.14,3.3,1.14 c1.7,0,3.05,-0.71,4.05,-2.14 c1.0,-1.42,1.5,-3.39,1.5,-5.91 l0,-19.68 l-6.18,0 l0,19.18 c0,1.18,-0.17,2.08,-0.52,2.68 c-0.35,0.61,-0.87,0.91,-1.57,0.91 c-0.73,0,-1.41,-0.26,-2.05,-0.77 c-0.64,-0.52,-1.18,-1.29,-1.64,-2.32 l0,-19.68 l-6.14,0 l0,19.18 c0,1.18,-0.17,2.08,-0.52,2.68 c-0.35,0.61,-0.86,0.91,-1.52,0.91 c-0.76,0,-1.45,-0.26,-2.09,-0.77 c-0.64,-0.52,-1.18,-1.29,-1.64,-2.32 Z M391.41,92.27 c-0.64,-2.18,-1.82,-3.83,-3.55,-4.93 c-1.73,-1.11,-3.86,-1.66,-6.41,-1.66 c-3.06,0,-5.46,0.86,-7.2,2.57 c-1.74,1.71,-2.61,4.07,-2.61,7.07 l0,8.91 c0,3.0,0.89,5.36,2.66,7.07 c1.77,1.71,4.2,2.57,7.3,2.57 c3.06,0,5.47,-0.88,7.23,-2.64 c1.76,-1.76,2.64,-4.18,2.64,-7.27 l0,-5.32 l-13.64,0 l0,-3.32 c0,-1.94,0.31,-3.3,0.93,-4.09 c0.62,-0.79,1.66,-1.18,3.11,-1.18 c1.27,0,2.22,0.27,2.84,0.82 c0.62,0.55,1.14,1.5,1.57,2.86 Z M377.82,104.18 l0,-1.82 l7.45,0 l0,1.55 c-0.0,2.03,-0.29,3.48,-0.86,4.36 c-0.58,0.88,-1.53,1.32,-2.86,1.32 c-1.33,0,-2.29,-0.42,-2.86,-1.25 c-0.58,-0.83,-0.86,-2.22,-0.86,-4.16 Z M412.27,85.68 c-2.76,0,-4.86,0.73,-6.3,2.2 c-1.44,1.47,-2.16,3.61,-2.16,6.43 l0,14.41 l-4.09,0 l0,4.68 l4.09,0 l0,9.09 l6.18,0 l0,-9.09 l6.95,0 l0,-4.68 l-6.95,0 l0,-14.09 c0,-1.45,0.29,-2.52,0.86,-3.18 c0.58,-0.67,1.35,-1,2.32,-1 c0.45,0,0.97,0.08,1.55,0.23 c0.58,0.15,1.18,0.38,1.82,0.68 l0.68,-4.59 c-0.58,-0.33,-1.31,-0.6,-2.2,-0.8 c-0.89,-0.2,-1.81,-0.3,-2.75,-0.3 Z M425.77,86.14 l0,36.36 l6.18,0 l0,-12.82 l1,0 c0.52,1.3,1.34,2.33,2.48,3.07 c1.14,0.74,2.4,1.11,3.8,1.11 c1.97,0,3.52,-0.75,4.66,-2.25 c1.14,-1.5,1.7,-3.57,1.7,-6.2 l0,-19.27 l-6.18,0 l0,18.27 c0,1.52,-0.23,2.64,-0.68,3.39 c-0.45,0.74,-1.15,1.11,-2.09,1.11 c-0.94,0,-1.8,-0.31,-2.59,-0.93 c-0.79,-0.62,-1.48,-1.52,-2.09,-2.7 l0,-19.14 Z M456.18,86.14 l0,27.27 l6.18,0 l0,-27.27 Z M459.27,118.18 c-1.21,0,-2.2,0.2,-2.95,0.61 c-0.76,0.41,-1.14,1.14,-1.14,2.2 l0,0.41 c0,1.09,0.38,1.86,1.14,2.3 c0.76,0.44,1.74,0.66,2.95,0.66 c1.21,0,2.2,-0.22,2.95,-0.66 c0.76,-0.44,1.14,-1.2,1.14,-2.3 l0,-0.41 c0.0,-1.06,-0.38,-1.8,-1.14,-2.2 c-0.76,-0.41,-1.74,-0.61,-2.95,-0.61 Z M472.95,86.14 l0,27.27 l6.18,0 l0,-3.73 l1,0 c0.48,1.3,1.3,2.33,2.43,3.07 c1.14,0.74,2.42,1.11,3.84,1.11 c1.94,0,3.48,-0.77,4.64,-2.3 c1.15,-1.53,1.73,-3.58,1.73,-6.16 l0,-19.27 l-6.18,0 l0,18.27 c0,1.48,-0.23,2.61,-0.68,3.36 c-0.45,0.76,-1.14,1.14,-2.05,1.14 c-0.94,0,-1.82,-0.33,-2.64,-0.98 c-0.82,-0.65,-1.52,-1.54,-2.09,-2.66 l0,-19.14 Z M524.95,84.18 c0,-2.45,-0.71,-4.33,-2.14,-5.64 c-1.42,-1.3,-3.39,-1.95,-5.91,-1.95 l-6.77,0 c-2.79,0,-4.89,0.56,-6.3,1.68 c-1.41,1.12,-2.11,2.76,-2.11,4.91 c0,1.48,0.36,2.67,1.07,3.55 c0.71,0.88,1.6,1.39,2.66,1.55 l0,0.91 c-0.85,0.24,-1.56,0.71,-2.14,1.41 c-0.58,0.7,-0.86,1.77,-0.86,3.23 c0,1.39,0.45,2.61,1.36,3.66 c0.91,1.05,2.06,1.66,3.45,1.84 l0,0.86 c-1.24,0.45,-2.19,1.17,-2.84,2.16 c-0.65,0.98,-0.98,2.01,-0.98,3.07 l0,0.91 c0,2.15,0.78,3.87,2.34,5.16 c1.56,1.29,3.86,1.93,6.89,1.93 l12.09,0 l0,-4.32 l-5.55,1 l0,-0.86 c0.85,-0.33,1.55,-0.95,2.09,-1.86 c0.55,-0.91,0.82,-1.88,0.82,-2.91 l0,-0.86 c0,-2.09,-0.77,-3.77,-2.32,-5.05 c-1.55,-1.27,-3.89,-1.91,-7.05,-1.91 l-3.5,0 c-0.7,0,-1.25,-0.19,-1.66,-0.57 c-0.41,-0.38,-0.61,-1.04,-0.61,-1.98 c0,-0.88,0.22,-1.53,0.66,-1.95 c0.44,-0.42,1.04,-0.64,1.8,-0.64 l7.73,0 c2.42,0,4.33,-0.58,5.7,-1.75 c1.38,-1.17,2.07,-3.02,2.07,-5.57 Z M512.82,100.27 c1.21,0,2.08,0.33,2.61,0.98 c0.53,0.65,0.8,1.63,0.8,2.93 l0,1.41 c0,1.3,-0.27,2.27,-0.82,2.89 c-0.55,0.62,-1.41,0.93,-2.59,0.93 c-1.21,0,-2.09,-0.31,-2.64,-0.93 c-0.55,-0.62,-0.82,-1.58,-0.82,-2.89 l0,-1.41 c0,-1.3,0.27,-2.28,0.8,-2.93 c0.53,-0.65,1.42,-0.98,2.66,-0.98 Z M510.18,80.59 l6.5,0 c0.94,0,1.72,0.22,2.34,0.66 c0.62,0.44,0.93,1.27,0.93,2.48 c0,1.15,-0.3,1.95,-0.91,2.41 c-0.61,0.45,-1.36,0.68,-2.27,0.68 l-9.23,0 l0,-2.82 c0.0,-1.15,0.22,-2.01,0.66,-2.57 c0.44,-0.56,1.1,-0.84,1.98,-0.84 Z M510.18,80.59" fill="rgb(0,0,0)" transform="matrix(1,0,0,-1,0,200)"/>
</svg>