<?xml version="1.0" encoding="UTF-8"?>
<svg height="200" version="1.1" width="800" xmlns="http://www.w3.org/2000/svg" xmlns:xlink="http://www.w3.org/1999/xlink">
 <path d="M0,0 l800,0 l0,200 l-800,0 Z M0,0" fill="rgb(255,255,255)" transform="matrix(1,0,0,-1,0,200)"/>
 <path d="M313.75,92.27 c-0.64,-2.18,-1.82,-3.83,-3.55,-4.93 c-1.73,-1.11,-3.86,-1.66,-6.41,-1.66 c-3.06,0,-5.46,0.86,-7.2,2.57 c-1.74,1.71,-2.61,4.07,-2.61,7.07 l0,8.91 c0,3.0,0.89,5.36,2.66,7.07 c1.77,1.71,4.2,2.57,7.3,2.57 c3.06,0,5.47,-0.88,7.23,-2.64 c1.76,-1.76,2.64,-4.18,2.64,-7.27 l0,-5.32 l-13.64,0 l0,-3.32 c0,-1.94,0.31,-3.3,0.93,-4.09 c0.62,-0.79,1.66,-1.18,3.11,-1.18 c1.27,0,2.22,0.27,2.84,0.82 c0.62,0.55,1.14,1.5,1.57,2.86 Z M300.16,104.18 l0,-1.82 l7.45,0 l0,1.55 c0,2.03,-0.29,3.48,-0.86,4.36 c-0.58,0.88,-1.53,1.32,-2.86,1.32 c-1.33,0,-2.29,-0.42,-2.86,-1.25 c-0.58,-0.83,-0.86,-2.22,-0.86,-4.16 Z M331.89,90.68 c0.85,0,1.65,0.27,2.41,0.82 c0.76,0.55,1.45,1.41,2.09,2.59 l0,13.55 c-0.67,0.55,-1.3,0.95,-1.91,1.2 c-0.61,0.26,-1.23,0.39,-1.86,0.39 c-1.27,0,-2.2,-0.4,-2.8,-1.2 c-0.59,-0.8,-0.89,-2.04,-0.89,-3.7 l0,-9.05 c0,-1.58,0.26,-2.73,0.77,-3.48 c0.52,-0.74,1.24,-1.11,2.18,-1.11 Z M335.39,90.14 c-0.39,-1.39,-1.14,-2.48,-2.23,-3.27 c-1.09,-0.79,-2.41,-1.18,-3.95,-1.18 c-2.03,0,-3.61,0.82,-4.75,2.45 c-1.14,1.64,-1.7,3.94,-1.7,6.91 l0,9.32 c0,3.0,0.78,5.33,2.34,6.98 c1.56,1.65,3.72,2.48,6.48,2.48 c0.85,-0.0,1.68,-0.11,2.5,-0.32 c0.82,-0.21,1.59,-0.52,2.32,-0.91 l0,9.91 l6.18,0 l0,-36.36 l-6.18,0 l0,4 Z M353.16,86.14 l0,27.27 l6.18,0 l0,-27.27 Z M356.25,118.18 c-1.21,0,-2.2,0.2,-2.95,0.61 c-0.76,0.41,-1.14,1.14,-1.14,2.2 l0,0.41 c0,1.09,0.38,1.86,1.14,2.3 c0.76,0.44,1.74,0.66,2.95,0.66 c1.21,0,2.2,-0.22,2.95,-0.66 c0.76,-0.44,1.14,-1.2,1.14,-2.3 l0,-0.41 c0,-1.06,-0.38,-1.8,-1.14,-2.2 c-0.76,-0.41,-1.74,-0.61,-2.95,-0.61 Z M381.8,85.68 c-2.76,0,-4.86,0.73,-6.3,2.2 c-1.44,1.47,-2.16,3.61,-2.16,6.43 l0,14.41 l-4.09,0 l0,4.68 l4.09,0 l0,9.09 l6.18,0 l0,-9.09 l6.95,0 l0,-4.68 l-6.95,0 l0,-14.09 c0,-1.45,0.29,-2.52,0.86,-3.18 c0.58,-0.67,1.35,-1,2.32,-1 c0.45,0,0.97,0.08,1.55,0.23 c0.58,0.15,1.18,0.38,1.82,0.68 l0.68,-4.59 c-0.58,-0.33,-1.31,-0.6,-2.2,-0.8 c-0.89,-0.2,-1.81,-0.3,-2.75,-0.3 Z M396.93,86.14 l0,27.27 l6.18,0 l0,-27.27 Z M400.02,118.18 c-1.21,0,-2.2,0.2,-2.95,0.61 c-0.76,0.41,-1.14,1.14,-1.14,2.2 l0,0.41 c0,1.09,0.38,1.86,1.14,2.3 c0.76,0.44,1.74,0.66,2.95,0.66 c1.21,0,2.2,-0.22,2.95,-0.66 c0.76,-0.44,1.14,-1.2,1.14,-2.3 l0,-0.41 c0,-1.06,-0.38,-1.8,-1.14,-2.2 c-0.76,-0.41,-1.74,-0.61,-2.95,-0.61 Z M417.11,86.14 l0,22.59 l-4.09,0 l0,4.68 l4.09,0 l0,2.41 c-0.0,2.36,0.77,4.2,2.3,5.52 c1.53,1.32,3.55,1.98,6.07,1.98 c0.79,0,1.62,-0.11,2.5,-0.34 c0.88,-0.23,1.7,-0.49,2.45,-0.8 l-0.68,-4.32 c-0.64,0.24,-1.24,0.45,-1.82,0.61 c-0.58,0.17,-1.12,0.25,-1.64,0.25 c-0.94,0.0,-1.67,-0.23,-2.2,-0.7 c-0.53,-0.47,-0.8,-1.27,-0.8,-2.39 l0,-2.23 l6.82,0 l0,-4.68 l-6.82,0 l0,-22.59 Z M440.7,86.14 l0,27.27 l6.18,0 l0,-27.27 Z M443.8,118.18 c-1.21,0,-2.2,0.2,-2.95,0.61 c-0.76,0.41,-1.14,1.14,-1.14,2.2 l0,0.41 c0,1.09,0.38,1.86,1.14,2.3 c0.76,0.44,1.74,0.66,2.95,0.66 c1.21,0,2.2,-0.22,2.95,-0.66 c0.76,-0.44,1.14,-1.2,1.14,-2.3 l0,-0.41 c-0.0,-1.06,-0.38,-1.8,-1.14,-2.2 c-0.76,-0.41,-1.74,-0.61,-2.95,-0.61 Z M467.57,85.68 c-3.36,0,-5.89,0.83,-7.57,2.5 c-1.68,1.67,-2.52,4.0,-2.52,7 l0,9.05 c0,3.24,0.88,5.66,2.64,7.25 c1.76,1.59,4.24,2.39,7.45,2.39 c3.18,0,5.61,-0.77,7.3,-2.32 c1.68,-1.55,2.61,-3.89,2.8,-7.05 l-5.95,-0.41 c-0.09,1.85,-0.44,3.15,-1.05,3.91 c-0.61,0.76,-1.61,1.14,-3,1.14 c-1.48,0,-2.52,-0.37,-3.11,-1.11 c-0.59,-0.74,-0.89,-2.02,-0.89,-3.84 l0,-8.86 c0,-1.82,0.3,-3.09,0.91,-3.82 c0.61,-0.73,1.65,-1.09,3.14,-1.09 c1.39,0,2.39,0.34,2.98,1.02 c0.59,0.68,0.93,1.87,1.02,3.57 l5.95,-0.36 c-0.15,-3.03,-1.06,-5.28,-2.73,-6.75 c-1.67,-1.47,-4.12,-2.2,-7.36,-2.2 Z M506.02,92.27 c-0.64,-2.18,-1.82,-3.83,-3.55,-4.93 c-1.73,-1.11,-3.86,-1.66,-6.41,-1.66 c-3.06,0,-5.46,0.86,-7.2,2.57 c-1.74,1.71,-2.61,4.07,-2.61,7.07 l0,8.91 c0,3.0,0.89,5.36,2.66,7.07 c1.77,1.71,4.2,2.57,7.3,2.57 c3.06,0,5.47,-0.88,7.23,-2.64 c1.76,-1.76,2.64,-4.18,2.64,-7.27 l0,-5.32 l-13.64,0 l0,-3.32 c-0.0,-1.94,0.31,-3.3,0.93,-4.09 c0.62,-0.79,1.66,-1.18,3.11,-1.18 c1.27,0,2.22,0.27,2.84,0.82 c0.62,0.55,1.14,1.5,1.57,2.86 Z M492.43,104.18 l0,-1.82 l7.45,0 l0,1.55 c0,2.03,-0.29,3.48,-0.86,4.36 c-0.58,0.88,-1.53,1.32,-2.86,1.32 c-1.33,0,-2.29,-0.42,-2.86,-1.25 c-0.58,-0.83,-0.86,-2.22,-0.86,-4.16 Z M492.43,104.18" fill="rgb(0,0,0)" transform="matrix(1,0,0,-1,0,200)"/>
</svg>