<?xml version="1.0" encoding="UTF-8"?>
<svg height="200" version="1.1" width="800" xmlns="http://www.w3.org/2000/svg" xmlns:xlink="http://www.w3.org/1999/xlink">
 <path d="M0,0 l800,0 l0,200 l-800,0 Z M0,0" fill="rgb(255,255,255)" transform="matrix(1,0,0,-1,0,200)"/>
 <path d="M244.55,80.73 c2.61,0,4.48,0.77,5.64,2.32 c1.15,1.55,1.73,4.05,1.73,7.5 l0,18.09 c0,3.21,-0.47,5.55,-1.41,7 c-0.94,1.45,-2.47,2.18,-4.59,2.18 c-1.88,-0.0,-3.52,-0.52,-4.91,-1.55 c-1.39,-1.03,-2.73,-2.67,-4,-4.91 l0,-27.45 c1.27,-1.03,2.52,-1.82,3.73,-2.36 c1.21,-0.55,2.48,-0.82,3.82,-0.82 Z M246.64,71.45 c-1.64,0,-3.29,0.21,-4.95,0.64 c-1.67,0.42,-3.23,1.03,-4.68,1.82 l0,-19.82 l-12.36,0 l0,72.73 l12.36,0 l0,-7.45 l2,0 c0.79,2.67,2.29,4.73,4.5,6.18 c2.21,1.45,4.83,2.18,7.86,2.18 c4.18,0,7.38,-1.64,9.59,-4.91 c2.21,-3.27,3.32,-7.85,3.32,-13.73 l0,-18.73 c0,-6.0,-1.55,-10.65,-4.64,-13.95 c-3.09,-3.3,-7.42,-4.95,-13.0,-4.95 Z M302.0,71.36 c-6.18,0,-11.03,1.76,-14.55,5.27 c-3.52,3.52,-5.27,8.39,-5.27,14.64 l0,16.27 c0,6.3,1.77,11.24,5.32,14.82 c3.55,3.58,8.41,5.36,14.59,5.36 c6.12,0,10.94,-1.79,14.45,-5.36 c3.52,-3.58,5.27,-8.52,5.27,-14.82 l0,-16.27 c0,-6.24,-1.76,-11.12,-5.27,-14.64 c-3.52,-3.52,-8.36,-5.27,-14.55,-5.27 Z M302.0,80.82 c2.61,0,4.5,0.83,5.68,2.5 c1.18,1.67,1.77,4.41,1.77,8.23 l0,16 c0,3.82,-0.59,6.58,-1.77,8.27 c-1.18,1.7,-3.08,2.55,-5.68,2.55 c-2.67,0,-4.58,-0.86,-5.73,-2.59 c-1.15,-1.73,-1.73,-4.5,-1.73,-8.32 l0,-15.91 c0,-3.82,0.58,-6.56,1.73,-8.23 c1.15,-1.67,3.06,-2.5,5.73,-2.5 Z M364.18,72.27 l-16.18,0 l-13.45,54.55 l12.18,0 l9.55,-44.45 l9.64,44.45 l11.73,0 Z M430.0,84.55 c-1.27,-4.36,-3.64,-7.65,-7.09,-9.86 c-3.45,-2.21,-7.73,-3.32,-12.82,-3.32 c-6.12,0,-10.92,1.71,-14.41,5.14 c-3.48,3.42,-5.23,8.14,-5.23,14.14 l0,17.82 c0,6.0,1.77,10.71,5.32,14.14 c3.55,3.42,8.41,5.14,14.59,5.14 c6.12,0,10.94,-1.76,14.45,-5.27 c3.52,-3.52,5.27,-8.36,5.27,-14.55 l0,-10.64 l-27.27,0 l0,-6.64 c0,-3.88,0.62,-6.61,1.86,-8.18 c1.24,-1.58,3.32,-2.36,6.23,-2.36 c2.55,0,4.44,0.55,5.68,1.64 c1.24,1.09,2.29,3.0,3.14,5.73 Z M402.82,108.36 l0,-3.64 l14.91,0 l0,3.09 c0,4.06,-0.58,6.97,-1.73,8.73 c-1.15,1.76,-3.06,2.64,-5.73,2.64 c-2.67,0,-4.58,-0.83,-5.73,-2.5 c-1.15,-1.67,-1.73,-4.44,-1.73,-8.32 Z M448,72.27 l0,54.55 l12.36,0 l0,-7.45 l2,0 c0.79,2.97,2.21,5.11,4.27,6.41 c2.06,1.3,4.24,1.95,6.55,1.95 c3.64,0,6.36,-1.24,8.18,-3.73 c1.82,-2.48,2.73,-5.97,2.73,-10.45 l0,-9.91 l-11.27,0 l0,8.18 c-0.0,1.82,-0.35,3.27,-1.05,4.36 c-0.7,1.09,-1.8,1.64,-3.32,1.64 c-1.39,-0.0,-2.85,-0.67,-4.36,-2 c-1.52,-1.33,-2.76,-3.06,-3.73,-5.18 l0,-38.36 Z M518.36,71.64 c-5.15,0,-9.14,1.7,-11.95,5.09 c-2.82,3.39,-4.23,8.15,-4.23,14.27 l0,54 l12.27,0 l0,-54 c0,-3.21,0.48,-5.59,1.45,-7.14 c0.97,-1.55,2.42,-2.32,4.36,-2.32 c0.85,0,1.82,0.15,2.91,0.45 c1.09,0.3,2.12,0.7,3.09,1.18 l1.91,-9.09 c-1.45,-0.73,-3.03,-1.32,-4.73,-1.77 c-1.7,-0.45,-3.39,-0.68,-5.09,-0.68 Z M549.55,53.36 c-1.64,0,-3.39,0.09,-5.27,0.27 c-1.88,0.18,-3.91,0.42,-6.09,0.73 l0.82,9.36 c1.7,-0.3,3.26,-0.55,4.68,-0.73 c1.42,-0.18,2.68,-0.27,3.77,-0.27 c3.33,0,5.71,0.8,7.14,2.41 c1.42,1.61,2.53,3.95,3.32,7.05 l0.18,1.09 l-8.27,0 l-12.36,53.55 l12.18,0 l9.91,-46.27 l9.18,46.27 l11.82,0 l-12.09,-57.36 c-1.45,-5.82,-3.73,-9.95,-6.82,-12.41 c-3.09,-2.45,-7.12,-3.68,-12.09,-3.68 Z M549.55,53.36" fill="rgb(0,0,0)" transform="matrix(1,0,0,-1,0,200)"/>
</svg>