<?xml version="1.0" encoding="UTF-8"?>
<svg height="200" version="1.1" width="800" xmlns="http://www.w3.org/2000/svg" xmlns:xlink="http://www.w3.org/1999/xlink">
 <path d="M0,0 l800,0 l0,200 l-800,0 Z M0,0" fill="rgb(255,255,255)" transform="matrix(1,0,0,-1,0,200)"/>
 <path d="M199.95,84.55 c-1.27,-4.36,-3.64,-7.65,-7.09,-9.86 c-3.45,-2.21,-7.73,-3.32,-12.82,-3.32 c-6.12,0,-10.92,1.71,-14.41,5.14 c-3.48,3.42,-5.23,8.14,-5.23,14.14 l0,17.82 c0,6.0,1.77,10.71,5.32,14.14 c3.55,3.42,8.41,5.14,14.59,5.14 c6.12,0,10.94,-1.76,14.45,-5.27 c3.52,-3.52,5.27,-8.36,5.27,-14.55 l0,-10.64 l-27.27,0 l0,-6.64 c0,-3.88,0.62,-6.61,1.86,-8.18 c1.24,-1.58,3.32,-2.36,6.23,-2.36 c2.55,0,4.44,0.55,5.68,1.64 c1.24,1.09,2.29,3.0,3.14,5.73 Z M172.77,108.36 l0,-3.64 l14.91,0 l0,3.09 c0,4.06,-0.58,6.97,-1.73,8.73 c-1.15,1.76,-3.06,2.64,-5.73,2.64 c-2.67,0,-4.58,-0.83,-5.73,-2.5 c-1.15,-1.67,-1.73,-4.44,-1.73,-8.32 Z M242.32,72.27 l-8.55,16.82 l-7.55,-16.82 l-12.55,0 l14.18,28 l-13.64,26.55 l12.45,0 l8,-15.64 l7.27,15.64 l12.45,0 l-13.82,-27 l14.27,-27.55 Z M288.59,80.73 c2.61,0,4.48,0.77,5.64,2.32 c1.15,1.55,1.73,4.05,1.73,7.5 l0,18.09 c0,3.21,-0.47,5.55,-1.41,7 c-0.94,1.45,-2.47,2.18,-4.59,2.18 c-1.88,-0.0,-3.52,-0.52,-4.91,-1.55 c-1.39,-1.03,-2.73,-2.67,-4,-4.91 l0,-27.45 c1.27,-1.03,2.52,-1.82,3.73,-2.36 c1.21,-0.55,2.48,-0.82,3.82,-0.82 Z M290.68,71.45 c-1.64,0,-3.29,0.21,-4.95,0.64 c-1.67,0.42,-3.23,1.03,-4.68,1.82 l0,-19.82 l-12.36,0 l0,72.73 l12.36,0 l0,-7.45 l2,0 c0.79,2.67,2.29,4.73,4.5,6.18 c2.21,1.45,4.83,2.18,7.86,2.18 c4.18,0,7.38,-1.64,9.59,-4.91 c2.21,-3.27,3.32,-7.85,3.32,-13.73 l0,-18.73 c0,-6.0,-1.55,-10.65,-4.64,-13.95 c-3.09,-3.3,-7.42,-4.95,-13,-4.95 Z M345.86,71.64 c-5.15,0,-9.14,1.7,-11.95,5.09 c-2.82,3.39,-4.23,8.15,-4.23,14.27 l0,54 l12.27,0 l0,-54 c0,-3.21,0.48,-5.59,1.45,-7.14 c0.97,-1.55,2.42,-2.32,4.36,-2.32 c0.85,0,1.82,0.15,2.91,0.45 c1.09,0.3,2.12,0.7,3.09,1.18 l1.91,-9.09 c-1.45,-0.73,-3.03,-1.32,-4.73,-1.77 c-1.7,-0.45,-3.39,-0.68,-5.09,-0.68 Z M389.95,71.36 c-6.18,0,-11.03,1.76,-14.55,5.27 c-3.52,3.52,-5.27,8.39,-5.27,14.64 l0,16.27 c0,6.3,1.77,11.24,5.32,14.82 c3.55,3.58,8.41,5.36,14.59,5.36 c6.12,0,10.94,-1.79,14.45,-5.36 c3.52,-3.58,5.27,-8.52,5.27,-14.82 l0,-16.27 c0,-6.24,-1.76,-11.12,-5.27,-14.64 c-3.52,-3.52,-8.36,-5.27,-14.55,-5.27 Z M389.95,80.82 c2.61,0,4.5,0.83,5.68,2.5 c1.18,1.67,1.77,4.41,1.77,8.23 l0,16 c0,3.82,-0.59,6.58,-1.77,8.27 c-1.18,1.7,-3.08,2.55,-5.68,2.55 c-2.67,0,-4.58,-0.86,-5.73,-2.59 c-1.15,-1.73,-1.73,-4.5,-1.73,-8.32 l0,-15.91 c0,-3.82,0.58,-6.56,1.73,-8.23 c1.15,-1.67,3.06,-2.5,5.73,-2.5 Z M461.68,72.27 l-7.18,34.45 l-6.82,-34.45 l-13.55,0 l-10,54.55 l10.82,0 l7.09,-42.82 l6.82,33.73 l11.09,0 l7.36,-33.27 l6.82,42.36 l10.36,0 l-10.09,-54.55 Z M502.14,72.27 l0,54.55 l12.36,0 l0,-54.55 Z M508.32,136.36 c-2.42,0,-4.39,0.41,-5.91,1.23 c-1.52,0.82,-2.27,2.29,-2.27,4.41 l0,0.82 c0,2.18,0.76,3.71,2.27,4.59 c1.52,0.88,3.48,1.32,5.91,1.32 c2.42,0,4.39,-0.44,5.91,-1.32 c1.52,-0.88,2.27,-2.41,2.27,-4.59 l0,-0.82 c0,-2.12,-0.76,-3.59,-2.27,-4.41 c-1.52,-0.82,-3.48,-1.23,-5.91,-1.23 Z M535.68,72.27 l0,54.55 l12.36,0 l0,-7.45 l2,0 c0.97,2.61,2.59,4.65,4.86,6.14 c2.27,1.48,4.83,2.23,7.68,2.23 c3.88,0,6.97,-1.53,9.27,-4.59 c2.3,-3.06,3.45,-7.17,3.45,-12.32 l0,-38.55 l-12.36,0 l0,36.55 c0,2.97,-0.45,5.21,-1.36,6.73 c-0.91,1.52,-2.27,2.27,-4.09,2.27 c-1.88,-0.0,-3.64,-0.65,-5.27,-1.95 c-1.64,-1.3,-3.03,-3.08,-4.18,-5.32 l0,-38.27 Z M639.68,68.36 c0,-4.91,-1.42,-8.67,-4.27,-11.27 c-2.85,-2.61,-6.79,-3.91,-11.82,-3.91 l-13.55,0 c-5.58,0,-9.77,1.12,-12.59,3.36 c-2.82,2.24,-4.23,5.52,-4.23,9.82 c0,2.97,0.71,5.33,2.14,7.09 c1.42,1.76,3.2,2.79,5.32,3.09 l0,1.82 c-1.7,0.48,-3.12,1.42,-4.27,2.82 c-1.15,1.39,-1.73,3.55,-1.73,6.45 c0,2.79,0.91,5.23,2.73,7.32 c1.82,2.09,4.12,3.32,6.91,3.68 l0,1.73 c-2.48,0.91,-4.38,2.35,-5.68,4.32 c-1.3,1.97,-1.95,4.02,-1.95,6.14 l0,1.82 c0,4.3,1.56,7.74,4.68,10.32 c3.12,2.58,7.71,3.86,13.77,3.86 l24.18,0 l0,-8.64 l-11.09,2 l0,-1.73 c1.7,-0.67,3.09,-1.91,4.18,-3.73 c1.09,-1.82,1.64,-3.76,1.64,-5.82 l0,-1.73 c0,-4.18,-1.55,-7.55,-4.64,-10.09 c-3.09,-2.55,-7.79,-3.82,-14.09,-3.82 l-7,0 c-1.39,0,-2.5,-0.38,-3.32,-1.14 c-0.82,-0.76,-1.23,-2.08,-1.23,-3.95 c0,-1.76,0.44,-3.06,1.32,-3.91 c0.88,-0.85,2.08,-1.27,3.59,-1.27 l15.45,0 c4.85,0,8.65,-1.17,11.41,-3.5 c2.76,-2.33,4.14,-6.05,4.14,-11.14 Z M615.41,100.55 c2.42,0,4.17,0.65,5.23,1.95 c1.06,1.3,1.59,3.26,1.59,5.86 l0,2.82 c0,2.61,-0.55,4.53,-1.64,5.77 c-1.09,1.24,-2.82,1.86,-5.18,1.86 c-2.42,0.0,-4.18,-0.62,-5.27,-1.86 c-1.09,-1.24,-1.64,-3.17,-1.64,-5.77 l0,-2.82 c0,-2.61,0.53,-4.56,1.59,-5.86 c1.06,-1.3,2.83,-1.95,5.32,-1.95 Z M610.14,61.18 l13,0 c1.88,0,3.44,0.44,4.68,1.32 c1.24,0.88,1.86,2.53,1.86,4.95 c0,2.3,-0.61,3.91,-1.82,4.82 c-1.21,0.91,-2.73,1.36,-4.55,1.36 l-18.45,0 l0,-5.64 c0,-2.3,0.44,-4.02,1.32,-5.14 c0.88,-1.12,2.2,-1.68,3.95,-1.68 Z M610.14,61.18" fill="rgb(0,0,0)" transform="matrix(1,0,0,-1,0,200)"/>
</svg>