<?xml version="1.0" encoding="UTF-8"?>
<svg height="200" version="1.1" width="800" xmlns="http://www.w3.org/2000/svg" xmlns:xlink="http://www.w3.org/1999/xlink">
 <path d="M0,0 l800,0 l0,200 l-800,0 Z M0,0" fill="rgb(255,255,255)" transform="matrix(1,0,0,-1,0,200)"/>
 <path d="M317.57,86.14 l0,22.59 l-4.09,0 l0,4.68 l4.09,0 l0,2.41 c0,2.36,0.77,4.2,2.3,5.52 c1.53,1.32,3.55,1.98,6.07,1.98 c0.79,0,1.62,-0.11,2.5,-0.34 c0.88,-0.23,1.7,-0.49,2.45,-0.8 l-0.68,-4.32 c-0.64,0.24,-1.24,0.45,-1.82,0.61 c-0.58,0.17,-1.12,0.25,-1.64,0.25 c-0.94,0.0,-1.67,-0.23,-2.2,-0.7 c-0.53,-0.47,-0.8,-1.27,-0.8,-2.39 l0,-2.23 l6.82,0 l0,-4.68 l-6.82,0 l0,-22.59 Z M348.7,90.05 c0.94,0,1.83,0.2,2.66,0.59 c0.83,0.39,1.54,1.08,2.11,2.05 l0,4.82 l-4.91,0 c-0.88,0,-1.58,-0.27,-2.11,-0.8 c-0.53,-0.53,-0.8,-1.49,-0.8,-2.89 c0,-1.21,0.25,-2.14,0.75,-2.8 c0.5,-0.65,1.27,-0.98,2.3,-0.98 Z M347.2,85.68 c-2.3,0,-4.11,0.69,-5.41,2.07 c-1.3,1.38,-1.95,3.3,-1.95,5.75 c0,2.45,0.7,4.36,2.09,5.7 c1.39,1.35,3.29,2.02,5.68,2.02 l5.86,0 l0,4.23 c0,1.21,-0.32,2.18,-0.95,2.91 c-0.64,0.73,-1.56,1.09,-2.77,1.09 c-1.27,0,-2.2,-0.33,-2.8,-0.98 c-0.59,-0.65,-1.05,-1.9,-1.39,-3.75 l-5.27,1.09 c0.48,2.79,1.58,4.83,3.3,6.11 c1.71,1.29,3.93,1.93,6.66,1.93 c2.94,0,5.23,-0.64,6.89,-1.91 c1.65,-1.27,2.48,-3.32,2.48,-6.14 l0,-12.23 c0,-1.39,0.33,-2.28,1,-2.66 c0.67,-0.38,1.7,-0.42,3.09,-0.11 l0,-4.73 c-2.06,-0.39,-3.75,-0.31,-5.07,0.25 c-1.32,0.56,-2.17,1.77,-2.57,3.61 l-1,0 c-0.76,-1.27,-1.82,-2.3,-3.18,-3.09 c-1.36,-0.79,-2.92,-1.18,-4.68,-1.18 Z M373.34,86.14 l0,27.27 l6.18,0 l0,-27.27 Z M376.43,118.18 c-1.21,0,-2.2,0.2,-2.95,0.61 c-0.76,0.41,-1.14,1.14,-1.14,2.2 l0,0.41 c0,1.09,0.38,1.86,1.14,2.3 c0.76,0.44,1.74,0.66,2.95,0.66 c1.21,0,2.2,-0.22,2.95,-0.66 c0.76,-0.44,1.14,-1.2,1.14,-2.3 l0,-0.41 c0,-1.06,-0.38,-1.8,-1.14,-2.2 c-0.76,-0.41,-1.74,-0.61,-2.95,-0.61 Z M401.98,85.68 c-2.76,0,-4.86,0.73,-6.3,2.2 c-1.44,1.47,-2.16,3.61,-2.16,6.43 l0,14.41 l-4.09,0 l0,4.68 l4.09,0 l0,9.09 l6.18,0 l0,-9.09 l6.95,0 l0,-4.68 l-6.95,0 l0,-14.09 c0,-1.45,0.29,-2.52,0.86,-3.18 c0.58,-0.67,1.35,-1,2.32,-1 c0.45,0,0.97,0.08,1.55,0.23 c0.58,0.15,1.18,0.38,1.82,0.68 l0.68,-4.59 c-0.58,-0.33,-1.31,-0.6,-2.2,-0.8 c-0.89,-0.2,-1.81,-0.3,-2.75,-0.3 Z M424.66,90.05 c0.94,0,1.83,0.2,2.66,0.59 c0.83,0.39,1.54,1.08,2.11,2.05 l0,4.82 l-4.91,0 c-0.88,0,-1.58,-0.27,-2.11,-0.8 c-0.53,-0.53,-0.8,-1.49,-0.8,-2.89 c0,-1.21,0.25,-2.14,0.75,-2.8 c0.5,-0.65,1.27,-0.98,2.3,-0.98 Z M423.16,85.68 c-2.3,0,-4.11,0.69,-5.41,2.07 c-1.3,1.38,-1.95,3.3,-1.95,5.75 c0,2.45,0.7,4.36,2.09,5.7 c1.39,1.35,3.29,2.02,5.68,2.02 l5.86,0 l0,4.23 c0,1.21,-0.32,2.18,-0.95,2.91 c-0.64,0.73,-1.56,1.09,-2.77,1.09 c-1.27,0,-2.2,-0.33,-2.8,-0.98 c-0.59,-0.65,-1.05,-1.9,-1.39,-3.75 l-5.27,1.09 c0.48,2.79,1.58,4.83,3.3,6.11 c1.71,1.29,3.93,1.93,6.66,1.93 c2.94,0,5.23,-0.64,6.89,-1.91 c1.65,-1.27,2.48,-3.32,2.48,-6.14 l0,-12.23 c0,-1.39,0.33,-2.28,1,-2.66 c0.67,-0.38,1.7,-0.42,3.09,-0.11 l0,-4.73 c-2.06,-0.39,-3.75,-0.31,-5.07,0.25 c-1.32,0.56,-2.17,1.77,-2.57,3.61 l-1,0 c-0.76,-1.27,-1.82,-2.3,-3.18,-3.09 c-1.36,-0.79,-2.92,-1.18,-4.68,-1.18 Z M449.3,86.14 l0,27.27 l6.18,0 l0,-27.27 Z M452.39,118.18 c-1.21,0,-2.2,0.2,-2.95,0.61 c-0.76,0.41,-1.14,1.14,-1.14,2.2 l0,0.41 c0,1.09,0.38,1.86,1.14,2.3 c0.76,0.44,1.74,0.66,2.95,0.66 c1.21,0,2.2,-0.22,2.95,-0.66 c0.76,-0.44,1.14,-1.2,1.14,-2.3 l0,-0.41 c0,-1.06,-0.38,-1.8,-1.14,-2.2 c-0.76,-0.41,-1.74,-0.61,-2.95,-0.61 Z M466.07,86.14 l0,27.27 l6.18,0 l0,-3.73 l1,0 c0.48,1.3,1.3,2.33,2.43,3.07 c1.14,0.74,2.42,1.11,3.84,1.11 c1.94,0,3.48,-0.77,4.64,-2.3 c1.15,-1.53,1.73,-3.58,1.73,-6.16 l0,-19.27 l-6.18,0 l0,18.27 c0,1.48,-0.23,2.61,-0.68,3.36 c-0.45,0.76,-1.14,1.14,-2.05,1.14 c-0.94,0,-1.82,-0.33,-2.64,-0.98 c-0.82,-0.65,-1.52,-1.54,-2.09,-2.66 l0,-19.14 Z M466.07,86.14" fill="rgb(0,0,0)" transform="matrix(1,0,0,-1,0,200)"/>
</svg>