<?xml version="1.0" encoding="UTF-8"?>
<svg height="200" version="1.1" width="800" xmlns="http://www.w3.org/2000/svg" xmlns:xlink="http://www.w3.org/1999/xlink">
 <path d="M0,0 l800,0 l0,200 l-800,0 Z M0,0" fill="rgb(255,255,255)" transform="matrix(1,0,0,-1,0,200)"/>
 <path d="M238.41,72.27 l0,45.18 l-8.18,0 l0,9.36 l8.18,0 l0,4.82 c0,4.73,1.53,8.41,4.59,11.05 c3.06,2.64,7.11,3.95,12.14,3.95 c1.58,0,3.24,-0.23,5,-0.68 c1.76,-0.45,3.39,-0.98,4.91,-1.59 l-1.36,-8.64 c-1.27,0.48,-2.48,0.89,-3.64,1.23 c-1.15,0.33,-2.24,0.5,-3.27,0.5 c-1.88,0,-3.35,-0.47,-4.41,-1.41 c-1.06,-0.94,-1.59,-2.53,-1.59,-4.77 l0,-4.45 l13.64,0 l0,-9.36 l-13.64,0 l0,-45.18 Z M285.59,72.27 l0,54.55 l12.36,0 l0,-54.55 Z M291.77,136.36 c-2.42,0,-4.39,0.41,-5.91,1.23 c-1.52,0.82,-2.27,2.29,-2.27,4.41 l0,0.82 c0,2.18,0.76,3.71,2.27,4.59 c1.52,0.88,3.48,1.32,5.91,1.32 c2.42,0,4.39,-0.44,5.91,-1.32 c1.52,-0.88,2.27,-2.41,2.27,-4.59 l0,-0.82 c0,-2.12,-0.76,-3.59,-2.27,-4.41 c-1.52,-0.82,-3.48,-1.23,-5.91,-1.23 Z M339.14,71.45 c-4.0,0,-7.82,0.65,-11.45,1.95 c-3.64,1.3,-6.73,2.95,-9.27,4.95 l3,8.18 c2.67,-1.76,5.59,-3.24,8.77,-4.45 c3.18,-1.21,6.26,-1.82,9.23,-1.82 c2.61,0,4.58,0.5,5.91,1.5 c1.33,1.0,2,2.53,2,4.59 c0,2.48,-0.83,4.2,-2.5,5.14 c-1.67,0.94,-4.74,2.05,-9.23,3.32 c-4.61,1.27,-8.39,3.06,-11.36,5.36 c-2.97,2.3,-4.45,6.0,-4.45,11.09 c0,5.09,1.62,9.11,4.86,12.05 c3.24,2.94,7.59,4.41,13.05,4.41 c3.64,0,7.14,-0.61,10.5,-1.82 c3.36,-1.21,6.17,-2.73,8.41,-4.55 l-2.45,-7.91 c-2.61,1.64,-5.24,2.97,-7.91,4 c-2.67,1.03,-5.18,1.55,-7.55,1.55 c-2.3,0,-4.08,-0.53,-5.32,-1.59 c-1.24,-1.06,-1.86,-2.62,-1.86,-4.68 c0,-2.42,0.88,-4.15,2.64,-5.18 c1.76,-1.03,4.97,-2.21,9.64,-3.55 c5.03,-1.39,8.83,-3.24,11.41,-5.55 c2.58,-2.3,3.86,-5.82,3.86,-10.55 c0,-5.03,-1.76,-9.03,-5.27,-12 c-3.52,-2.97,-8.39,-4.45,-14.64,-4.45 Z M396.68,71.45 c-4.0,0,-7.82,0.65,-11.45,1.95 c-3.64,1.3,-6.73,2.95,-9.27,4.95 l3,8.18 c2.67,-1.76,5.59,-3.24,8.77,-4.45 c3.18,-1.21,6.26,-1.82,9.23,-1.82 c2.61,0,4.58,0.5,5.91,1.5 c1.33,1.0,2.0,2.53,2,4.59 c0.0,2.48,-0.83,4.2,-2.5,5.14 c-1.67,0.94,-4.74,2.05,-9.23,3.32 c-4.61,1.27,-8.39,3.06,-11.36,5.36 c-2.97,2.3,-4.45,6.0,-4.45,11.09 c0,5.09,1.62,9.11,4.86,12.05 c3.24,2.94,7.59,4.41,13.05,4.41 c3.64,0,7.14,-0.61,10.5,-1.82 c3.36,-1.21,6.17,-2.73,8.41,-4.55 l-2.45,-7.91 c-2.61,1.64,-5.24,2.97,-7.91,4 c-2.67,1.03,-5.18,1.55,-7.55,1.55 c-2.3,0,-4.08,-0.53,-5.32,-1.59 c-1.24,-1.06,-1.86,-2.62,-1.86,-4.68 c0,-2.42,0.88,-4.15,2.64,-5.18 c1.76,-1.03,4.97,-2.21,9.64,-3.55 c5.03,-1.39,8.83,-3.24,11.41,-5.55 c2.58,-2.3,3.86,-5.82,3.86,-10.55 c-0.0,-5.03,-1.76,-9.03,-5.27,-12 c-3.52,-2.97,-8.39,-4.45,-14.64,-4.45 Z M473.77,84.55 c-1.27,-4.36,-3.64,-7.65,-7.09,-9.86 c-3.45,-2.21,-7.73,-3.32,-12.82,-3.32 c-6.12,0,-10.92,1.71,-14.41,5.14 c-3.48,3.42,-5.23,8.14,-5.23,14.14 l0,17.82 c0,6.0,1.77,10.71,5.32,14.14 c3.55,3.42,8.41,5.14,14.59,5.14 c6.12,0,10.94,-1.76,14.45,-5.27 c3.52,-3.52,5.27,-8.36,5.27,-14.55 l0,-10.64 l-27.27,0 l0,-6.64 c0,-3.88,0.62,-6.61,1.86,-8.18 c1.24,-1.58,3.32,-2.36,6.23,-2.36 c2.55,0,4.44,0.55,5.68,1.64 c1.24,1.09,2.29,3.0,3.14,5.73 Z M446.59,108.36 l0,-3.64 l14.91,0 l0,3.09 c0,4.06,-0.58,6.97,-1.73,8.73 c-1.15,1.76,-3.06,2.64,-5.73,2.64 c-2.67,0,-4.58,-0.83,-5.73,-2.5 c-1.15,-1.67,-1.73,-4.44,-1.73,-8.32 Z M511.41,71.64 c-5.15,0,-9.14,1.7,-11.95,5.09 c-2.82,3.39,-4.23,8.15,-4.23,14.27 l0,54 l12.27,0 l0,-54 c0,-3.21,0.48,-5.59,1.45,-7.14 c0.97,-1.55,2.42,-2.32,4.36,-2.32 c0.85,0,1.82,0.15,2.91,0.45 c1.09,0.3,2.12,0.7,3.09,1.18 l1.91,-9.09 c-1.45,-0.73,-3.03,-1.32,-4.73,-1.77 c-1.7,-0.45,-3.39,-0.68,-5.09,-0.68 Z M542.59,53.36 c-1.64,0,-3.39,0.09,-5.27,0.27 c-1.88,0.18,-3.91,0.42,-6.09,0.73 l0.82,9.36 c1.7,-0.3,3.26,-0.55,4.68,-0.73 c1.42,-0.18,2.68,-0.27,3.77,-0.27 c3.33,0,5.71,0.8,7.14,2.41 c1.42,1.61,2.53,3.95,3.32,7.05 l0.18,1.09 l-8.27,0 l-12.36,53.55 l12.18,0 l9.91,-46.27 l9.18,46.27 l11.82,0 l-12.09,-57.36 c-1.45,-5.82,-3.73,-9.95,-6.82,-12.41 c-3.09,-2.45,-7.12,-3.68,-12.09,-3.68 Z M542.59,53.36" fill="rgb(0,0,0)" transform="matrix(1,0,0,-1,0,200)"/>
</svg>