<?xml version="1.0" encoding="UTF-8"?>
<svg height="200" version="1.1" width="800" xmlns="http://www.w3.org/2000/svg" xmlns:xlink="http://www.w3.org/1999/xlink">
 <path d="M0,0 l800,0 l0,200 l-800,0 Z M0,0" fill="rgb(255,255,255)" transform="matrix(1,0,0,-1,0,200)"/>
 <path d="M227.59,71.45 c-4.0,0,-7.82,0.65,-11.45,1.95 c-3.64,1.3,-6.73,2.95,-9.27,4.95 l3,8.18 c2.67,-1.76,5.59,-3.24,8.77,-4.45 c3.18,-1.21,6.26,-1.82,9.23,-1.82 c2.61,0,4.58,0.5,5.91,1.5 c1.33,1.0,2,2.53,2,4.59 c0,2.48,-0.83,4.2,-2.5,5.14 c-1.67,0.94,-4.74,2.05,-9.23,3.32 c-4.61,1.27,-8.39,3.06,-11.36,5.36 c-2.97,2.3,-4.45,6.0,-4.45,11.09 c0,5.09,1.62,9.11,4.86,12.05 c3.24,2.94,7.59,4.41,13.05,4.41 c3.64,0,7.14,-0.61,10.5,-1.82 c3.36,-1.21,6.17,-2.73,8.41,-4.55 l-2.45,-7.91 c-2.61,1.64,-5.24,2.97,-7.91,4 c-2.67,1.03,-5.18,1.55,-7.55,1.55 c-2.3,0,-4.08,-0.53,-5.32,-1.59 c-1.24,-1.06,-1.86,-2.62,-1.86,-4.68 c0,-2.42,0.88,-4.15,2.64,-5.18 c1.76,-1.03,4.97,-2.21,9.64,-3.55 c5.03,-1.39,8.83,-3.24,11.41,-5.55 c2.58,-2.3,3.86,-5.82,3.86,-10.55 c-0.0,-5.03,-1.76,-9.03,-5.27,-12 c-3.52,-2.97,-8.39,-4.45,-14.64,-4.45 Z M304.68,84.55 c-1.27,-4.36,-3.64,-7.65,-7.09,-9.86 c-3.45,-2.21,-7.73,-3.32,-12.82,-3.32 c-6.12,0,-10.92,1.71,-14.41,5.14 c-3.48,3.42,-5.23,8.14,-5.23,14.14 l0,17.82 c0,6.0,1.77,10.71,5.32,14.14 c3.55,3.42,8.41,5.14,14.59,5.14 c6.12,0,10.94,-1.76,14.45,-5.27 c3.52,-3.52,5.27,-8.36,5.27,-14.55 l0,-10.64 l-27.27,0 l0,-6.64 c0,-3.88,0.62,-6.61,1.86,-8.18 c1.24,-1.58,3.32,-2.36,6.23,-2.36 c2.55,0,4.44,0.55,5.68,1.64 c1.24,1.09,2.29,3.0,3.14,5.73 Z M277.5,108.36 l0,-3.64 l14.91,0 l0,3.09 c0,4.06,-0.58,6.97,-1.73,8.73 c-1.15,1.76,-3.06,2.64,-5.73,2.64 c-2.67,0,-4.58,-0.83,-5.73,-2.5 c-1.15,-1.67,-1.73,-4.44,-1.73,-8.32 Z M342.86,71.36 c-6.73,0,-11.77,1.67,-15.14,5 c-3.36,3.33,-5.05,8.0,-5.05,14 l0,18.09 c0,6.48,1.76,11.32,5.27,14.5 c3.52,3.18,8.48,4.77,14.91,4.77 c6.36,0,11.23,-1.55,14.59,-4.64 c3.36,-3.09,5.23,-7.79,5.59,-14.09 l-11.91,-0.82 c-0.18,3.7,-0.88,6.3,-2.09,7.82 c-1.21,1.52,-3.21,2.27,-6,2.27 c-2.97,0,-5.05,-0.74,-6.23,-2.23 c-1.18,-1.48,-1.77,-4.05,-1.77,-7.68 l0,-17.73 c0,-3.64,0.61,-6.18,1.82,-7.64 c1.21,-1.45,3.3,-2.18,6.27,-2.18 c2.79,0,4.77,0.68,5.95,2.05 c1.18,1.36,1.86,3.74,2.05,7.14 l11.91,-0.73 c-0.3,-6.06,-2.12,-10.56,-5.45,-13.5 c-3.33,-2.94,-8.24,-4.41,-14.73,-4.41 Z M419.77,84.55 c-1.27,-4.36,-3.64,-7.65,-7.09,-9.86 c-3.45,-2.21,-7.73,-3.32,-12.82,-3.32 c-6.12,0,-10.92,1.71,-14.41,5.14 c-3.48,3.42,-5.23,8.14,-5.23,14.14 l0,17.82 c0,6.0,1.77,10.71,5.32,14.14 c3.55,3.42,8.41,5.14,14.59,5.14 c6.12,0,10.94,-1.76,14.45,-5.27 c3.52,-3.52,5.27,-8.36,5.27,-14.55 l0,-10.64 l-27.27,0 l0,-6.64 c0,-3.88,0.62,-6.61,1.86,-8.18 c1.24,-1.58,3.32,-2.36,6.23,-2.36 c2.55,0,4.44,0.55,5.68,1.64 c1.24,1.09,2.29,3.0,3.14,5.73 Z M392.59,108.36 l0,-3.64 l14.91,0 l0,3.09 c0,4.06,-0.58,6.97,-1.73,8.73 c-1.15,1.76,-3.06,2.64,-5.73,2.64 c-2.67,0,-4.58,-0.83,-5.73,-2.5 c-1.15,-1.67,-1.73,-4.44,-1.73,-8.32 Z M437.77,72.27 l0,54.55 l12.36,0 l0,-7.45 l2,0 c0.97,2.61,2.59,4.65,4.86,6.14 c2.27,1.48,4.83,2.23,7.68,2.23 c3.88,0,6.97,-1.53,9.27,-4.59 c2.3,-3.06,3.45,-7.17,3.45,-12.32 l0,-38.55 l-12.36,0 l0,36.55 c0,2.97,-0.45,5.21,-1.36,6.73 c-0.91,1.52,-2.27,2.27,-4.09,2.27 c-1.88,-0.0,-3.64,-0.65,-5.27,-1.95 c-1.64,-1.3,-3.03,-3.08,-4.18,-5.32 l0,-38.27 Z M515.5,71.36 c-6.73,0,-11.77,1.67,-15.14,5 c-3.36,3.33,-5.05,8.0,-5.05,14 l0,18.09 c0.0,6.48,1.76,11.32,5.27,14.5 c3.52,3.18,8.48,4.77,14.91,4.77 c6.36,0,11.23,-1.55,14.59,-4.64 c3.36,-3.09,5.23,-7.79,5.59,-14.09 l-11.91,-0.82 c-0.18,3.7,-0.88,6.3,-2.09,7.82 c-1.21,1.52,-3.21,2.27,-6,2.27 c-2.97,0,-5.05,-0.74,-6.23,-2.23 c-1.18,-1.48,-1.77,-4.05,-1.77,-7.68 l0,-17.73 c-0.0,-3.64,0.61,-6.18,1.82,-7.64 c1.21,-1.45,3.3,-2.18,6.27,-2.18 c2.79,0,4.77,0.68,5.95,2.05 c1.18,1.36,1.86,3.74,2.05,7.14 l11.91,-0.73 c-0.3,-6.06,-2.12,-10.56,-5.45,-13.5 c-3.33,-2.94,-8.24,-4.41,-14.73,-4.41 Z M592.41,84.55 c-1.27,-4.36,-3.64,-7.65,-7.09,-9.86 c-3.45,-2.21,-7.73,-3.32,-12.82,-3.32 c-6.12,0,-10.92,1.71,-14.41,5.14 c-3.48,3.42,-5.23,8.14,-5.23,14.14 l0,17.82 c0,6.0,1.77,10.71,5.32,14.14 c3.55,3.42,8.41,5.14,14.59,5.14 c6.12,0,10.94,-1.76,14.45,-5.27 c3.52,-3.52,5.27,-8.36,5.27,-14.55 l0,-10.64 l-27.27,0 l0,-6.64 c0,-3.88,0.62,-6.61,1.86,-8.18 c1.24,-1.58,3.32,-2.36,6.23,-2.36 c2.55,0,4.44,0.55,5.68,1.64 c1.24,1.09,2.29,3.0,3.14,5.73 Z M565.23,108.36 l0,-3.64 l14.91,0 l0,3.09 c0,4.06,-0.58,6.97,-1.73,8.73 c-1.15,1.76,-3.06,2.64,-5.73,2.64 c-2.67,0,-4.58,-0.83,-5.73,-2.5 c-1.15,-1.67,-1.73,-4.44,-1.73,-8.32 Z M565.23,108.36" fill="rgb(0,0,0)" transform="matrix(1,0,0,-1,0,200)"/>
</svg>