<?xml version="1.0" encoding="UTF-8"?>
<svg height="200" version="1.1" width="800" xmlns="http://www.w3.org/2000/svg" xmlns:xlink="http://www.w3.org/1999/xlink">
 <path d="M0,0 l800,0 l0,200 l-800,0 Z M0,0" fill="rgb(255,255,255)" transform="matrix(1,0,0,-1,0,200)"/>
 <path d="M226.86,71.45 c-3.88,0,-7.5,0.55,-10.86,1.64 c-3.36,1.09,-6.17,2.73,-8.41,4.91 l0,67.0 l12.36,0 l0,-25.64 l2,0 c0.79,2.67,2.23,4.73,4.32,6.18 c2.09,1.45,4.65,2.18,7.68,2.18 c4.24,0,7.52,-1.61,9.82,-4.82 c2.3,-3.21,3.45,-7.82,3.45,-13.82 l0,-18.73 c0,-6.06,-1.74,-10.73,-5.23,-14 c-3.48,-3.27,-8.53,-4.91,-15.14,-4.91 Z M227.5,80.73 c2.61,0,4.48,0.76,5.64,2.27 c1.15,1.52,1.73,4.03,1.73,7.55 l0,18 c0,3.27,-0.52,5.64,-1.55,7.09 c-1.03,1.45,-2.52,2.18,-4.45,2.18 c-1.7,-0.0,-3.3,-0.52,-4.82,-1.55 c-1.52,-1.03,-2.88,-2.67,-4.09,-4.91 l0,-28.18 c0.85,-0.79,1.89,-1.39,3.14,-1.82 c1.24,-0.42,2.71,-0.64,4.41,-0.64 Z M304.68,84.55 c-1.27,-4.36,-3.64,-7.65,-7.09,-9.86 c-3.45,-2.21,-7.73,-3.32,-12.82,-3.32 c-6.12,0,-10.92,1.71,-14.41,5.14 c-3.48,3.42,-5.23,8.14,-5.23,14.14 l0,17.82 c0,6.0,1.77,10.71,5.32,14.14 c3.55,3.42,8.41,5.14,14.59,5.14 c6.12,0,10.94,-1.76,14.45,-5.27 c3.52,-3.52,5.27,-8.36,5.27,-14.55 l0,-10.64 l-27.27,0 l0,-6.64 c0,-3.88,0.62,-6.61,1.86,-8.18 c1.24,-1.58,3.32,-2.36,6.23,-2.36 c2.55,0,4.44,0.55,5.68,1.64 c1.24,1.09,2.29,3.0,3.14,5.73 Z M277.5,108.36 l0,-3.64 l14.91,0 l0,3.09 c0,4.06,-0.58,6.97,-1.73,8.73 c-1.15,1.76,-3.06,2.64,-5.73,2.64 c-2.67,0,-4.58,-0.83,-5.73,-2.5 c-1.15,-1.67,-1.73,-4.44,-1.73,-8.32 Z M342.86,71.36 c-6.73,0,-11.77,1.67,-15.14,5 c-3.36,3.33,-5.05,8.0,-5.05,14 l0,18.09 c0,6.48,1.76,11.32,5.27,14.5 c3.52,3.18,8.48,4.77,14.91,4.77 c6.36,0,11.23,-1.55,14.59,-4.64 c3.36,-3.09,5.23,-7.79,5.59,-14.09 l-11.91,-0.82 c-0.18,3.7,-0.88,6.3,-2.09,7.82 c-1.21,1.52,-3.21,2.27,-6,2.27 c-2.97,0,-5.05,-0.74,-6.23,-2.23 c-1.18,-1.48,-1.77,-4.05,-1.77,-7.68 l0,-17.73 c0,-3.64,0.61,-6.18,1.82,-7.64 c1.21,-1.45,3.3,-2.18,6.27,-2.18 c2.79,0,4.77,0.68,5.95,2.05 c1.18,1.36,1.86,3.74,2.05,7.14 l11.91,-0.73 c-0.3,-6.06,-2.12,-10.56,-5.45,-13.5 c-3.33,-2.94,-8.24,-4.41,-14.73,-4.41 Z M400.05,71.36 c-6.18,0,-11.03,1.76,-14.55,5.27 c-3.52,3.52,-5.27,8.39,-5.27,14.64 l0,16.27 c0,6.3,1.77,11.24,5.32,14.82 c3.55,3.58,8.41,5.36,14.59,5.36 c6.12,0,10.94,-1.79,14.45,-5.36 c3.52,-3.58,5.27,-8.52,5.27,-14.82 l0,-16.27 c0,-6.24,-1.76,-11.12,-5.27,-14.64 c-3.52,-3.52,-8.36,-5.27,-14.55,-5.27 Z M400.05,80.82 c2.61,0,4.5,0.83,5.68,2.5 c1.18,1.67,1.77,4.41,1.77,8.23 l0,16 c0,3.82,-0.59,6.58,-1.77,8.27 c-1.18,1.7,-3.08,2.55,-5.68,2.55 c-2.67,0,-4.58,-0.86,-5.73,-2.59 c-1.15,-1.73,-1.73,-4.5,-1.73,-8.32 l0,-15.91 c0,-3.82,0.58,-6.56,1.73,-8.23 c1.15,-1.67,3.06,-2.5,5.73,-2.5 Z M437.77,72.27 l0,54.55 l12.36,0 l0,-7.45 l2,0 c0.97,2.61,2.59,4.65,4.86,6.14 c2.27,1.48,4.83,2.23,7.68,2.23 c3.88,0,6.97,-1.53,9.27,-4.59 c2.3,-3.06,3.45,-7.17,3.45,-12.32 l0,-38.55 l-12.36,0 l0,36.55 c0,2.97,-0.45,5.21,-1.36,6.73 c-0.91,1.52,-2.27,2.27,-4.09,2.27 c-1.88,-0.0,-3.64,-0.65,-5.27,-1.95 c-1.64,-1.3,-3.03,-3.08,-4.18,-5.32 l0,-38.27 Z M534.86,84.55 c-1.27,-4.36,-3.64,-7.65,-7.09,-9.86 c-3.45,-2.21,-7.73,-3.32,-12.82,-3.32 c-6.12,0,-10.92,1.71,-14.41,5.14 c-3.48,3.42,-5.23,8.14,-5.23,14.14 l0,17.82 c0.0,6.0,1.77,10.71,5.32,14.14 c3.55,3.42,8.41,5.14,14.59,5.14 c6.12,0,10.94,-1.76,14.45,-5.27 c3.52,-3.52,5.27,-8.36,5.27,-14.55 l0,-10.64 l-27.27,0 l0,-6.64 c-0.0,-3.88,0.62,-6.61,1.86,-8.18 c1.24,-1.58,3.32,-2.36,6.23,-2.36 c2.55,0,4.44,0.55,5.68,1.64 c1.24,1.09,2.29,3.0,3.14,5.73 Z M507.68,108.36 l0,-3.64 l14.91,0 l0,3.09 c0,4.06,-0.58,6.97,-1.73,8.73 c-1.15,1.76,-3.06,2.64,-5.73,2.64 c-2.67,0,-4.58,-0.83,-5.73,-2.5 c-1.15,-1.67,-1.73,-4.44,-1.73,-8.32 Z M571.14,81.36 c1.7,0,3.3,0.55,4.82,1.64 c1.52,1.09,2.91,2.82,4.18,5.18 l0,27.09 c-1.33,1.09,-2.61,1.89,-3.82,2.41 c-1.21,0.52,-2.45,0.77,-3.73,0.77 c-2.55,0,-4.41,-0.8,-5.59,-2.41 c-1.18,-1.61,-1.77,-4.08,-1.77,-7.41 l0,-18.09 c0,-3.15,0.52,-5.47,1.55,-6.95 c1.03,-1.48,2.48,-2.23,4.36,-2.23 Z M578.14,80.27 c-0.79,-2.79,-2.27,-4.97,-4.45,-6.55 c-2.18,-1.58,-4.82,-2.36,-7.91,-2.36 c-4.06,0,-7.23,1.64,-9.5,4.91 c-2.27,3.27,-3.41,7.88,-3.41,13.82 l0,18.64 c0,6.0,1.56,10.65,4.68,13.95 c3.12,3.3,7.44,4.95,12.95,4.95 c1.7,0,3.36,-0.21,5,-0.64 c1.64,-0.42,3.18,-1.03,4.64,-1.82 l0,19.82 l12.36,0 l0,-72.73 l-12.36,0 l0,8 Z M578.14,80.27" fill="rgb(0,0,0)" transform="matrix(1,0,0,-1,0,200)"/>
</svg>