<?xml version="1.0" encoding="UTF-8"?>
<svg height="200" version="1.1" width="800" xmlns="http://www.w3.org/2000/svg" xmlns:xlink="http://www.w3.org/1999/xlink">
 <path d="M0,0 l800,0 l0,200 l-800,0 Z M0,0" fill="rgb(255,255,255)" transform="matrix(1,0,0,-1,0,200)"/>
 <path d="M238.5,111.64 l0,-39.36 l-12.36,0 l0,54.55 l12.36,0 l0,-7.45 l2,0 c0.79,2.55,2.2,4.58,4.23,6.09 c2.03,1.52,4.29,2.27,6.77,2.27 c2.36,0,4.39,-0.74,6.09,-2.23 c1.7,-1.48,2.94,-3.53,3.73,-6.14 l3,0 c0.85,2.55,2.26,4.58,4.23,6.09 c1.97,1.52,4.17,2.27,6.59,2.27 c3.39,0,6.09,-1.42,8.09,-4.27 c2.0,-2.85,3,-6.79,3,-11.82 l0,-39.36 l-12.36,0 l0,38.36 c0,2.36,-0.35,4.15,-1.05,5.36 c-0.7,1.21,-1.74,1.82,-3.14,1.82 c-1.45,-0.0,-2.82,-0.52,-4.09,-1.55 c-1.27,-1.03,-2.36,-2.58,-3.27,-4.64 l0,-39.36 l-12.27,0 l0,38.36 c-0.0,2.36,-0.35,4.15,-1.05,5.36 c-0.7,1.21,-1.71,1.82,-3.05,1.82 c-1.52,-0.0,-2.91,-0.52,-4.18,-1.55 c-1.27,-1.03,-2.36,-2.58,-3.27,-4.64 Z M322.5,80.09 c1.88,0,3.65,0.39,5.32,1.18 c1.67,0.79,3.08,2.15,4.23,4.09 l0,9.64 l-9.82,0 c-1.76,0,-3.17,-0.53,-4.23,-1.59 c-1.06,-1.06,-1.59,-2.98,-1.59,-5.77 c0,-2.42,0.5,-4.29,1.5,-5.59 c1.0,-1.3,2.53,-1.95,4.59,-1.95 Z M319.5,71.36 c-4.61,0,-8.21,1.38,-10.82,4.14 c-2.61,2.76,-3.91,6.59,-3.91,11.5 c0,4.91,1.39,8.71,4.18,11.41 c2.79,2.7,6.58,4.05,11.36,4.05 l11.73,0 l0,8.45 c0,2.42,-0.64,4.36,-1.91,5.82 c-1.27,1.45,-3.12,2.18,-5.55,2.18 c-2.55,-0.0,-4.41,-0.65,-5.59,-1.95 c-1.18,-1.3,-2.11,-3.8,-2.77,-7.5 l-10.55,2.18 c0.97,5.58,3.17,9.65,6.59,12.23 c3.42,2.58,7.86,3.86,13.32,3.86 c5.88,0,10.47,-1.27,13.77,-3.82 c3.3,-2.55,4.95,-6.64,4.95,-12.27 l0,-24.45 c0,-2.79,0.67,-4.56,2,-5.32 c1.33,-0.76,3.39,-0.83,6.18,-0.23 l0,-9.45 c-4.12,-0.79,-7.5,-0.62,-10.14,0.5 c-2.64,1.12,-4.35,3.53,-5.14,7.23 l-2,0 c-1.52,-2.55,-3.64,-4.61,-6.36,-6.18 c-2.73,-1.58,-5.85,-2.36,-9.36,-2.36 Z M368.5,72.27 l0,54.55 l12.36,0 l0,-7.45 l2,0 c0.79,2.97,2.21,5.11,4.27,6.41 c2.06,1.3,4.24,1.95,6.55,1.95 c3.64,0,6.36,-1.24,8.18,-3.73 c1.82,-2.48,2.73,-5.97,2.73,-10.45 l0,-9.91 l-11.27,0 l0,8.18 c0.0,1.82,-0.35,3.27,-1.05,4.36 c-0.7,1.09,-1.8,1.64,-3.32,1.64 c-1.39,-0.0,-2.85,-0.67,-4.36,-2 c-1.52,-1.33,-2.76,-3.06,-3.73,-5.18 l0,-38.36 Z M437.5,81.36 c1.7,0,3.3,0.55,4.82,1.64 c1.52,1.09,2.91,2.82,4.18,5.18 l0,27.09 c-1.33,1.09,-2.61,1.89,-3.82,2.41 c-1.21,0.52,-2.45,0.77,-3.73,0.77 c-2.55,0,-4.41,-0.8,-5.59,-2.41 c-1.18,-1.61,-1.77,-4.08,-1.77,-7.41 l0,-18.09 c0,-3.15,0.52,-5.47,1.55,-6.95 c1.03,-1.48,2.48,-2.23,4.36,-2.23 Z M444.5,80.27 c-0.79,-2.79,-2.27,-4.97,-4.45,-6.55 c-2.18,-1.58,-4.82,-2.36,-7.91,-2.36 c-4.06,0,-7.23,1.64,-9.5,4.91 c-2.27,3.27,-3.41,7.88,-3.41,13.82 l0,18.64 c0,6.0,1.56,10.65,4.68,13.95 c3.12,3.3,7.44,4.95,12.95,4.95 c1.7,0,3.36,-0.21,5,-0.64 c1.64,-0.42,3.18,-1.03,4.64,-1.82 l0,19.82 l12.36,0 l0,-72.73 l-12.36,0 l0,8 Z M516.32,84.55 c-1.27,-4.36,-3.64,-7.65,-7.09,-9.86 c-3.45,-2.21,-7.73,-3.32,-12.82,-3.32 c-6.12,0,-10.92,1.71,-14.41,5.14 c-3.48,3.42,-5.23,8.14,-5.23,14.14 l0,17.82 c0,6.0,1.77,10.71,5.32,14.14 c3.55,3.42,8.41,5.14,14.59,5.14 c6.12,0,10.94,-1.76,14.45,-5.27 c3.52,-3.52,5.27,-8.36,5.27,-14.55 l0,-10.64 l-27.27,0 l0,-6.64 c0,-3.88,0.62,-6.61,1.86,-8.18 c1.24,-1.58,3.32,-2.36,6.23,-2.36 c2.55,0,4.44,0.55,5.68,1.64 c1.24,1.09,2.29,3.0,3.14,5.73 Z M489.14,108.36 l0,-3.64 l14.91,0 l0,3.09 c0,4.06,-0.58,6.97,-1.73,8.73 c-1.15,1.76,-3.06,2.64,-5.73,2.64 c-2.67,0,-4.58,-0.83,-5.73,-2.5 c-1.15,-1.67,-1.73,-4.44,-1.73,-8.32 Z M534.32,72.27 l0,54.55 l12.36,0 l0,-7.45 l2,0 c0.97,2.61,2.59,4.65,4.86,6.14 c2.27,1.48,4.83,2.23,7.68,2.23 c3.88,0,6.97,-1.53,9.27,-4.59 c2.3,-3.06,3.45,-7.17,3.45,-12.32 l0,-38.55 l-12.36,0 l0,36.55 c0,2.97,-0.45,5.21,-1.36,6.73 c-0.91,1.52,-2.27,2.27,-4.09,2.27 c-1.88,-0.0,-3.64,-0.65,-5.27,-1.95 c-1.64,-1.3,-3.03,-3.08,-4.18,-5.32 l0,-38.27 Z M534.32,72.27" fill="rgb(0,0,0)" transform="matrix(1,0,0,-1,0,200)"/>
</svg>