<?xml version="1.0" encoding="UTF-8"?>
<svg height="200" version="1.1" width="800" xmlns="http://www.w3.org/2000/svg" xmlns:xlink="http://www.w3.org/1999/xlink">
 <path d="M0,0 l800,0 l0,200 l-800,0 Z M0,0" fill="rgb(255,255,255)" transform="matrix(1,0,0,-1,0,200)"/>
 <path d="M345.8,85.82 c-2.58,0,-4.57,0.85,-5.98,2.55 c-1.41,1.7,-2.11,4.08,-2.11,7.14 l0,27 l6.14,0 l0,-27 c0,-1.61,0.24,-2.8,0.73,-3.57 c0.48,-0.77,1.21,-1.16,2.18,-1.16 c0.42,0,0.91,0.08,1.45,0.23 c0.55,0.15,1.06,0.35,1.55,0.59 l0.95,-4.55 c-0.73,-0.36,-1.52,-0.66,-2.36,-0.89 c-0.85,-0.23,-1.7,-0.34,-2.55,-0.34 Z M364.34,85.68 c-2.0,0,-3.57,0.77,-4.7,2.3 c-1.14,1.53,-1.7,3.6,-1.7,6.2 l0,19.23 l6.18,0 l0,-18.27 c0,-1.48,0.23,-2.6,0.68,-3.34 c0.45,-0.74,1.14,-1.11,2.05,-1.11 c0.94,0,1.82,0.32,2.64,0.95 c0.82,0.64,1.52,1.53,2.09,2.68 l0,19.09 l6.18,0 l0,-27.27 l-6.18,0 l0,3.77 l-1,0 c-0.39,-1.3,-1.16,-2.33,-2.3,-3.09 c-1.14,-0.76,-2.45,-1.14,-3.93,-1.14 Z M386.7,86.14 l0,27.27 l6.18,0 l0,-3.73 l1,0 c0.48,1.3,1.3,2.33,2.43,3.07 c1.14,0.74,2.42,1.11,3.84,1.11 c1.94,0,3.48,-0.77,4.64,-2.3 c1.15,-1.53,1.73,-3.58,1.73,-6.16 l0,-19.27 l-6.18,0 l0,18.27 c0,1.48,-0.23,2.61,-0.68,3.36 c-0.45,0.76,-1.14,1.14,-2.05,1.14 c-0.94,0,-1.82,-0.33,-2.64,-0.98 c-0.82,-0.65,-1.52,-1.54,-2.09,-2.66 l0,-19.14 Z M424.61,90.68 c0.85,0,1.65,0.27,2.41,0.82 c0.76,0.55,1.45,1.41,2.09,2.59 l0,13.55 c-0.67,0.55,-1.3,0.95,-1.91,1.2 c-0.61,0.26,-1.23,0.39,-1.86,0.39 c-1.27,0,-2.2,-0.4,-2.8,-1.2 c-0.59,-0.8,-0.89,-2.04,-0.89,-3.7 l0,-9.05 c0,-1.58,0.26,-2.73,0.77,-3.48 c0.52,-0.74,1.24,-1.11,2.18,-1.11 Z M428.11,90.14 c-0.39,-1.39,-1.14,-2.48,-2.23,-3.27 c-1.09,-0.79,-2.41,-1.18,-3.95,-1.18 c-2.03,0,-3.61,0.82,-4.75,2.45 c-1.14,1.64,-1.7,3.94,-1.7,6.91 l0,9.32 c0,3.0,0.78,5.33,2.34,6.98 c1.56,1.65,3.72,2.48,6.48,2.48 c0.85,-0.0,1.68,-0.11,2.5,-0.32 c0.82,-0.21,1.59,-0.52,2.32,-0.91 l0,9.91 l6.18,0 l0,-36.36 l-6.18,0 l0,4 Z M454.25,85.73 c-2.0,0,-3.91,0.33,-5.73,0.98 c-1.82,0.65,-3.36,1.48,-4.64,2.48 l1.5,4.09 c1.33,-0.88,2.8,-1.62,4.39,-2.23 c1.59,-0.61,3.13,-0.91,4.61,-0.91 c1.3,0,2.29,0.25,2.95,0.75 c0.67,0.5,1,1.27,1,2.3 c0,1.24,-0.42,2.1,-1.25,2.57 c-0.83,0.47,-2.37,1.02,-4.61,1.66 c-2.3,0.64,-4.2,1.53,-5.68,2.68 c-1.48,1.15,-2.23,3.0,-2.23,5.55 c0,2.55,0.81,4.55,2.43,6.02 c1.62,1.47,3.8,2.2,6.52,2.2 c1.82,0,3.57,-0.3,5.25,-0.91 c1.68,-0.61,3.08,-1.36,4.2,-2.27 l-1.23,-3.95 c-1.3,0.82,-2.62,1.48,-3.95,2 c-1.33,0.52,-2.59,0.77,-3.77,0.77 c-1.15,0,-2.04,-0.27,-2.66,-0.8 c-0.62,-0.53,-0.93,-1.31,-0.93,-2.34 c0,-1.21,0.44,-2.08,1.32,-2.59 c0.88,-0.52,2.48,-1.11,4.82,-1.77 c2.52,-0.7,4.42,-1.62,5.7,-2.77 c1.29,-1.15,1.93,-2.91,1.93,-5.27 c0,-2.52,-0.88,-4.52,-2.64,-6 c-1.76,-1.48,-4.2,-2.23,-7.32,-2.23 Z M454.25,85.73" fill="rgb(0,0,0)" transform="matrix(1,0,0,-1,0,200)"/>
</svg>