<?xml version="1.0" encoding="UTF-8"?>
<svg height="200" version="1.1" width="800" xmlns="http://www.w3.org/2000/svg" xmlns:xlink="http://www.w3.org/1999/xlink">
 <path d="M0,0 l800,0 l0,200 l-800,0 Z M0,0" fill="rgb(255,255,255)" transform="matrix(1,0,0,-1,0,200)"/>
 <path d="M277.59,71.45 c-3.88,0,-7.5,0.55,-10.86,1.64 c-3.36,1.09,-6.17,2.73,-8.41,4.91 l0,67.0 l12.36,0 l0,-25.64 l2,0 c0.79,2.67,2.23,4.73,4.32,6.18 c2.09,1.45,4.65,2.18,7.68,2.18 c4.24,0,7.52,-1.61,9.82,-4.82 c2.3,-3.21,3.45,-7.82,3.45,-13.82 l0,-18.73 c0,-6.06,-1.74,-10.73,-5.23,-14 c-3.48,-3.27,-8.53,-4.91,-15.14,-4.91 Z M278.23,80.73 c2.61,0,4.48,0.76,5.64,2.27 c1.15,1.52,1.73,4.03,1.73,7.55 l0,18 c0,3.27,-0.52,5.64,-1.55,7.09 c-1.03,1.45,-2.52,2.18,-4.45,2.18 c-1.7,-0.0,-3.3,-0.52,-4.82,-1.55 c-1.52,-1.03,-2.88,-2.67,-4.09,-4.91 l0,-28.18 c0.85,-0.79,1.89,-1.39,3.14,-1.82 c1.24,-0.42,2.71,-0.64,4.41,-0.64 Z M315.86,72.27 l0,54.55 l12.36,0 l0,-7.45 l2,0 c0.79,2.97,2.21,5.11,4.27,6.41 c2.06,1.3,4.24,1.95,6.55,1.95 c3.64,0,6.36,-1.24,8.18,-3.73 c1.82,-2.48,2.73,-5.97,2.73,-10.45 l0,-9.91 l-11.27,0 l0,8.18 c0,1.82,-0.35,3.27,-1.05,4.36 c-0.7,1.09,-1.8,1.64,-3.32,1.64 c-1.39,-0.0,-2.85,-0.67,-4.36,-2 c-1.52,-1.33,-2.76,-3.06,-3.73,-5.18 l0,-38.36 Z M379.41,71.36 c-4.0,0,-7.14,1.53,-9.41,4.59 c-2.27,3.06,-3.41,7.2,-3.41,12.41 l0,38.45 l12.36,0 l0,-36.55 c0,-2.97,0.45,-5.2,1.36,-6.68 c0.91,-1.48,2.27,-2.23,4.09,-2.23 c1.88,0,3.64,0.64,5.27,1.91 c1.64,1.27,3.03,3.06,4.18,5.36 l0,38.18 l12.36,0 l0,-54.55 l-12.36,0 l0,7.55 l-2,0 c-0.79,-2.61,-2.32,-4.67,-4.59,-6.18 c-2.27,-1.52,-4.89,-2.27,-7.86,-2.27 Z M436.5,111.64 l0,-39.36 l-12.36,0 l0,54.55 l12.36,0 l0,-7.45 l2,0 c0.79,2.55,2.2,4.58,4.23,6.09 c2.03,1.52,4.29,2.27,6.77,2.27 c2.36,0,4.39,-0.74,6.09,-2.23 c1.7,-1.48,2.94,-3.53,3.73,-6.14 l3,0 c0.85,2.55,2.26,4.58,4.23,6.09 c1.97,1.52,4.17,2.27,6.59,2.27 c3.39,0,6.09,-1.42,8.09,-4.27 c2.0,-2.85,3,-6.79,3,-11.82 l0,-39.36 l-12.36,0 l0,38.36 c0,2.36,-0.35,4.15,-1.05,5.36 c-0.7,1.21,-1.74,1.82,-3.14,1.82 c-1.45,-0.0,-2.82,-0.52,-4.09,-1.55 c-1.27,-1.03,-2.36,-2.58,-3.27,-4.64 l0,-39.36 l-12.27,0 l0,38.36 c0,2.36,-0.35,4.15,-1.05,5.36 c-0.7,1.21,-1.71,1.82,-3.05,1.82 c-1.52,-0.0,-2.91,-0.52,-4.18,-1.55 c-1.27,-1.03,-2.36,-2.58,-3.27,-4.64 Z M521.41,71.45 c-3.88,0,-7.5,0.55,-10.86,1.64 c-3.36,1.09,-6.17,2.73,-8.41,4.91 l0,67.0 l12.36,0 l0,-25.64 l2,0 c0.79,2.67,2.23,4.73,4.32,6.18 c2.09,1.45,4.65,2.18,7.68,2.18 c4.24,0,7.52,-1.61,9.82,-4.82 c2.3,-3.21,3.45,-7.82,3.45,-13.82 l0,-18.73 c0,-6.06,-1.74,-10.73,-5.23,-14 c-3.48,-3.27,-8.53,-4.91,-15.14,-4.91 Z M522.05,80.73 c2.61,0,4.48,0.76,5.64,2.27 c1.15,1.52,1.73,4.03,1.73,7.55 l0,18 c0,3.27,-0.52,5.64,-1.55,7.09 c-1.03,1.45,-2.52,2.18,-4.45,2.18 c-1.7,-0.0,-3.3,-0.52,-4.82,-1.55 c-1.52,-1.03,-2.88,-2.67,-4.09,-4.91 l0,-28.18 c0.85,-0.79,1.89,-1.39,3.14,-1.82 c1.24,-0.42,2.71,-0.64,4.41,-0.64 Z M522.05,80.73" fill="rgb(0,0,0)" transform="matrix(1,0,0,-1,0,200)"/>
</svg>