<?xml version="1.0" encoding="UTF-8"?>
<svg height="200" version="1.1" width="800" xmlns="http://www.w3.org/2000/svg" xmlns:xlink="http://www.w3.org/1999/xlink">
 <path d="M0,0 l800,0 l0,200 l-800,0 Z M0,0" fill="rgb(255,255,255)" transform="matrix(1,0,0,-1,0,200)"/>
 <path d="M318.93,90.36 c1.3,0,2.24,0.39,2.82,1.16 c0.58,0.77,0.86,2.02,0.86,3.75 l0,9.05 c0,1.61,-0.23,2.77,-0.7,3.5 c-0.47,0.73,-1.23,1.09,-2.3,1.09 c-0.94,0,-1.76,-0.26,-2.45,-0.77 c-0.7,-0.52,-1.36,-1.33,-2,-2.45 l0,-13.73 c0.64,-0.52,1.26,-0.91,1.86,-1.18 c0.61,-0.27,1.24,-0.41,1.91,-0.41 Z M319.98,85.73 c-0.82,0,-1.64,0.11,-2.48,0.32 c-0.83,0.21,-1.61,0.52,-2.34,0.91 l0,-9.91 l-6.18,0 l0,36.36 l6.18,0 l0,-3.73 l1,0 c0.39,1.33,1.14,2.36,2.25,3.09 c1.11,0.73,2.42,1.09,3.93,1.09 c2.09,0,3.69,-0.82,4.8,-2.45 c1.11,-1.64,1.66,-3.92,1.66,-6.86 l0,-9.36 c0,-3.0,-0.77,-5.33,-2.32,-6.98 c-1.55,-1.65,-3.71,-2.48,-6.5,-2.48 Z M346.93,90.05 c0.94,0,1.83,0.2,2.66,0.59 c0.83,0.39,1.54,1.08,2.11,2.05 l0,4.82 l-4.91,0 c-0.88,0,-1.58,-0.27,-2.11,-0.8 c-0.53,-0.53,-0.8,-1.49,-0.8,-2.89 c0,-1.21,0.25,-2.14,0.75,-2.8 c0.5,-0.65,1.27,-0.98,2.3,-0.98 Z M345.43,85.68 c-2.3,0,-4.11,0.69,-5.41,2.07 c-1.3,1.38,-1.95,3.3,-1.95,5.75 c0,2.45,0.7,4.36,2.09,5.7 c1.39,1.35,3.29,2.02,5.68,2.02 l5.86,0 l0,4.23 c0,1.21,-0.32,2.18,-0.95,2.91 c-0.64,0.73,-1.56,1.09,-2.77,1.09 c-1.27,0,-2.2,-0.33,-2.8,-0.98 c-0.59,-0.65,-1.05,-1.9,-1.39,-3.75 l-5.27,1.09 c0.48,2.79,1.58,4.83,3.3,6.11 c1.71,1.29,3.93,1.93,6.66,1.93 c2.94,0,5.23,-0.64,6.89,-1.91 c1.65,-1.27,2.48,-3.32,2.48,-6.14 l0,-12.23 c0,-1.39,0.33,-2.28,1,-2.66 c0.67,-0.38,1.7,-0.42,3.09,-0.11 l0,-4.73 c-2.06,-0.39,-3.75,-0.31,-5.07,0.25 c-1.32,0.56,-2.17,1.77,-2.57,3.61 l-1,0 c-0.76,-1.27,-1.82,-2.3,-3.18,-3.09 c-1.36,-0.79,-2.92,-1.18,-4.68,-1.18 Z M369.93,86.14 l0,27.27 l6.18,0 l0,-3.73 l1,0 c0.39,1.48,1.11,2.55,2.14,3.2 c1.03,0.65,2.12,0.98,3.27,0.98 c1.82,0,3.18,-0.62,4.09,-1.86 c0.91,-1.24,1.36,-2.98,1.36,-5.23 l0,-4.95 l-5.64,0 l0,4.09 c0,0.91,-0.17,1.64,-0.52,2.18 c-0.35,0.55,-0.9,0.82,-1.66,0.82 c-0.7,0,-1.42,-0.33,-2.18,-1 c-0.76,-0.67,-1.38,-1.53,-1.86,-2.59 l0,-19.18 Z M396.93,86.14 l0,27.27 l6.18,0 l0,-27.27 Z M400.02,118.18 c-1.21,0,-2.2,0.2,-2.95,0.61 c-0.76,0.41,-1.14,1.14,-1.14,2.2 l0,0.41 c0,1.09,0.38,1.86,1.14,2.3 c0.76,0.44,1.74,0.66,2.95,0.66 c1.21,0,2.2,-0.22,2.95,-0.66 c0.76,-0.44,1.14,-1.2,1.14,-2.3 l0,-0.41 c0,-1.06,-0.38,-1.8,-1.14,-2.2 c-0.76,-0.41,-1.74,-0.61,-2.95,-0.61 Z M423.61,85.68 c-3.09,0,-5.52,0.88,-7.27,2.64 c-1.76,1.76,-2.64,4.2,-2.64,7.32 l0,8.14 c0,3.15,0.89,5.62,2.66,7.41 c1.77,1.79,4.2,2.68,7.3,2.68 c3.06,0,5.47,-0.89,7.23,-2.68 c1.76,-1.79,2.64,-4.26,2.64,-7.41 l0,-8.14 c0,-3.12,-0.88,-5.56,-2.64,-7.32 c-1.76,-1.76,-4.18,-2.64,-7.27,-2.64 Z M423.61,90.41 c1.3,0,2.25,0.42,2.84,1.25 c0.59,0.83,0.89,2.2,0.89,4.11 l0,8 c0,1.91,-0.3,3.29,-0.89,4.14 c-0.59,0.85,-1.54,1.27,-2.84,1.27 c-1.33,0,-2.29,-0.43,-2.86,-1.3 c-0.58,-0.86,-0.86,-2.25,-0.86,-4.16 l0,-7.95 c0.0,-1.91,0.29,-3.28,0.86,-4.11 c0.58,-0.83,1.53,-1.25,2.86,-1.25 Z M451.61,90.68 c0.85,0,1.65,0.27,2.41,0.82 c0.76,0.55,1.45,1.41,2.09,2.59 l0,13.55 c-0.67,0.55,-1.3,0.95,-1.91,1.2 c-0.61,0.26,-1.23,0.39,-1.86,0.39 c-1.27,0,-2.2,-0.4,-2.8,-1.2 c-0.59,-0.8,-0.89,-2.04,-0.89,-3.7 l0,-9.05 c0,-1.58,0.26,-2.73,0.77,-3.48 c0.52,-0.74,1.24,-1.11,2.18,-1.11 Z M455.11,90.14 c-0.39,-1.39,-1.14,-2.48,-2.23,-3.27 c-1.09,-0.79,-2.41,-1.18,-3.95,-1.18 c-2.03,0,-3.61,0.82,-4.75,2.45 c-1.14,1.64,-1.7,3.94,-1.7,6.91 l0,9.32 c0,3.0,0.78,5.33,2.34,6.98 c1.56,1.65,3.72,2.48,6.48,2.48 c0.85,-0.0,1.68,-0.11,2.5,-0.32 c0.82,-0.21,1.59,-0.52,2.32,-0.91 l0,9.91 l6.18,0 l0,-36.36 l-6.18,0 l0,4 Z M481.25,85.73 c-2.0,0,-3.91,0.33,-5.73,0.98 c-1.82,0.65,-3.36,1.48,-4.64,2.48 l1.5,4.09 c1.33,-0.88,2.8,-1.62,4.39,-2.23 c1.59,-0.61,3.13,-0.91,4.61,-0.91 c1.3,0,2.29,0.25,2.95,0.75 c0.67,0.5,1,1.27,1,2.3 c0,1.24,-0.42,2.1,-1.25,2.57 c-0.83,0.47,-2.37,1.02,-4.61,1.66 c-2.3,0.64,-4.2,1.53,-5.68,2.68 c-1.48,1.15,-2.23,3.0,-2.23,5.55 c0,2.55,0.81,4.55,2.43,6.02 c1.62,1.47,3.8,2.2,6.52,2.2 c1.82,0,3.57,-0.3,5.25,-0.91 c1.68,-0.61,3.08,-1.36,4.2,-2.27 l-1.23,-3.95 c-1.3,0.82,-2.62,1.48,-3.95,2 c-1.33,0.52,-2.59,0.77,-3.77,0.77 c-1.15,0,-2.04,-0.27,-2.66,-0.8 c-0.62,-0.53,-0.93,-1.31,-0.93,-2.34 c0,-1.21,0.44,-2.08,1.32,-2.59 c0.88,-0.52,2.48,-1.11,4.82,-1.77 c2.52,-0.7,4.42,-1.62,5.7,-2.77 c1.29,-1.15,1.93,-2.91,1.93,-5.27 c0,-2.52,-0.88,-4.52,-2.64,-6 c-1.76,-1.48,-4.2,-2.23,-7.32,-2.23 Z M481.25,85.73" fill="rgb(0,0,0)" transform="matrix(1,0,0,-1,0,200)"/>
</svg>