<?xml version="1.0" encoding="UTF-8"?>
<svg height="200" version="1.1" width="800" xmlns="http://www.w3.org/2000/svg" xmlns:xlink="http://www.w3.org/1999/xlink">
 <path d="M0,0 l800,0 l0,200 l-800,0 Z M0,0" fill="rgb(255,255,255)" transform="matrix(1,0,0,-1,0,200)"/>
 <path d="M121.27,72.73 l0,54.55 l12.36,0 l0,-7.45 l2,0 c0.79,2.97,2.21,5.11,4.27,6.41 c2.06,1.3,4.24,1.95,6.55,1.95 c3.64,0,6.36,-1.24,8.18,-3.73 c1.82,-2.48,2.73,-5.97,2.73,-10.45 l0,-9.91 l-11.27,0 l0,8.18 c0,1.82,-0.35,3.27,-1.05,4.36 c-0.7,1.09,-1.8,1.64,-3.32,1.64 c-1.39,-0.0,-2.85,-0.67,-4.36,-2 c-1.52,-1.33,-2.76,-3.06,-3.73,-5.18 l0,-38.36 Z M211.55,85 c-1.27,-4.36,-3.64,-7.65,-7.09,-9.86 c-3.45,-2.21,-7.73,-3.32,-12.82,-3.32 c-6.12,0,-10.92,1.71,-14.41,5.14 c-3.48,3.42,-5.23,8.14,-5.23,14.14 l0,17.82 c0,6.0,1.77,10.71,5.32,14.14 c3.55,3.42,8.41,5.14,14.59,5.14 c6.12,0,10.94,-1.76,14.45,-5.27 c3.52,-3.52,5.27,-8.36,5.27,-14.55 l0,-10.64 l-27.27,0 l0,-6.64 c0,-3.88,0.62,-6.61,1.86,-8.18 c1.24,-1.58,3.32,-2.36,6.23,-2.36 c2.55,0,4.44,0.55,5.68,1.64 c1.24,1.09,2.29,3.0,3.14,5.73 Z M184.36,108.82 l0,-3.64 l14.91,0 l0,3.09 c0,4.06,-0.58,6.97,-1.73,8.73 c-1.15,1.76,-3.06,2.64,-5.73,2.64 c-2.67,0,-4.58,-0.83,-5.73,-2.5 c-1.15,-1.67,-1.73,-4.44,-1.73,-8.32 Z M249.73,71.82 c-6.73,0,-11.77,1.67,-15.14,5 c-3.36,3.33,-5.05,8.0,-5.05,14 l0,18.09 c0,6.48,1.76,11.32,5.27,14.5 c3.52,3.18,8.48,4.77,14.91,4.77 c6.36,0,11.23,-1.55,14.59,-4.64 c3.36,-3.09,5.23,-7.79,5.59,-14.09 l-11.91,-0.82 c-0.18,3.7,-0.88,6.3,-2.09,7.82 c-1.21,1.52,-3.21,2.27,-6,2.27 c-2.97,0,-5.05,-0.74,-6.23,-2.23 c-1.18,-1.48,-1.77,-4.05,-1.77,-7.68 l0,-17.73 c-0.0,-3.64,0.61,-6.18,1.82,-7.64 c1.21,-1.45,3.3,-2.18,6.27,-2.18 c2.79,0,4.77,0.68,5.95,2.05 c1.18,1.36,1.86,3.74,2.05,7.14 l11.91,-0.73 c-0.3,-6.06,-2.12,-10.56,-5.45,-13.5 c-3.33,-2.94,-8.24,-4.41,-14.73,-4.41 Z M306.91,71.82 c-6.18,0,-11.03,1.76,-14.55,5.27 c-3.52,3.52,-5.27,8.39,-5.27,14.64 l0,16.27 c0,6.3,1.77,11.24,5.32,14.82 c3.55,3.58,8.41,5.36,14.59,5.36 c6.12,0,10.94,-1.79,14.45,-5.36 c3.52,-3.58,5.27,-8.52,5.27,-14.82 l0,-16.27 c0,-6.24,-1.76,-11.12,-5.27,-14.64 c-3.52,-3.52,-8.36,-5.27,-14.55,-5.27 Z M306.91,81.27 c2.61,0,4.5,0.83,5.68,2.5 c1.18,1.67,1.77,4.41,1.77,8.23 l0,16 c0,3.82,-0.59,6.58,-1.77,8.27 c-1.18,1.7,-3.08,2.55,-5.68,2.55 c-2.67,0,-4.58,-0.86,-5.73,-2.59 c-1.15,-1.73,-1.73,-4.5,-1.73,-8.32 l0,-15.91 c0,-3.82,0.58,-6.56,1.73,-8.23 c1.15,-1.67,3.06,-2.5,5.73,-2.5 Z M357.45,71.82 c-4.0,0,-7.14,1.53,-9.41,4.59 c-2.27,3.06,-3.41,7.2,-3.41,12.41 l0,38.45 l12.36,0 l0,-36.55 c0,-2.97,0.45,-5.2,1.36,-6.68 c0.91,-1.48,2.27,-2.23,4.09,-2.23 c1.88,0,3.64,0.64,5.27,1.91 c1.64,1.27,3.03,3.06,4.18,5.36 l0,38.18 l12.36,0 l0,-54.55 l-12.36,0 l0,7.55 l-2,0 c-0.79,-2.61,-2.32,-4.67,-4.59,-6.18 c-2.27,-1.52,-4.89,-2.27,-7.86,-2.27 Z M448.64,68.82 c0,-4.91,-1.42,-8.67,-4.27,-11.27 c-2.85,-2.61,-6.79,-3.91,-11.82,-3.91 l-13.55,0 c-5.58,0,-9.77,1.12,-12.59,3.36 c-2.82,2.24,-4.23,5.52,-4.23,9.82 c-0.0,2.97,0.71,5.33,2.14,7.09 c1.42,1.76,3.2,2.79,5.32,3.09 l0,1.82 c-1.7,0.48,-3.12,1.42,-4.27,2.82 c-1.15,1.39,-1.73,3.55,-1.73,6.45 c0,2.79,0.91,5.23,2.73,7.32 c1.82,2.09,4.12,3.32,6.91,3.68 l0,1.73 c-2.48,0.91,-4.38,2.35,-5.68,4.32 c-1.3,1.97,-1.95,4.02,-1.95,6.14 l0,1.82 c0,4.3,1.56,7.74,4.68,10.32 c3.12,2.58,7.71,3.86,13.77,3.86 l24.18,0 l0,-8.64 l-11.09,2 l0,-1.73 c1.7,-0.67,3.09,-1.91,4.18,-3.73 c1.09,-1.82,1.64,-3.76,1.64,-5.82 l0,-1.73 c0,-4.18,-1.55,-7.55,-4.64,-10.09 c-3.09,-2.55,-7.79,-3.82,-14.09,-3.82 l-7,0 c-1.39,0,-2.5,-0.38,-3.32,-1.14 c-0.82,-0.76,-1.23,-2.08,-1.23,-3.95 c0,-1.76,0.44,-3.06,1.32,-3.91 c0.88,-0.85,2.08,-1.27,3.59,-1.27 l15.45,0 c4.85,0,8.65,-1.17,11.41,-3.5 c2.76,-2.33,4.14,-6.05,4.14,-11.14 Z M424.36,101 c2.42,0,4.17,0.65,5.23,1.95 c1.06,1.3,1.59,3.26,1.59,5.86 l0,2.82 c0,2.61,-0.55,4.53,-1.64,5.77 c-1.09,1.24,-2.82,1.86,-5.18,1.86 c-2.42,0.0,-4.18,-0.62,-5.27,-1.86 c-1.09,-1.24,-1.64,-3.17,-1.64,-5.77 l0,-2.82 c0.0,-2.61,0.53,-4.56,1.59,-5.86 c1.06,-1.3,2.83,-1.95,5.32,-1.95 Z M419.09,61.64 l13,0 c1.88,0,3.44,0.44,4.68,1.32 c1.24,0.88,1.86,2.53,1.86,4.95 c0,2.3,-0.61,3.91,-1.82,4.82 c-1.21,0.91,-2.73,1.36,-4.55,1.36 l-18.45,0 l0,-5.64 c0,-2.3,0.44,-4.02,1.32,-5.14 c0.88,-1.12,2.2,-1.68,3.95,-1.68 Z M466.55,72.73 l0,72.73 l12.36,0 l0,-25.64 l2,0 c1.03,2.61,2.68,4.65,4.95,6.14 c2.27,1.48,4.8,2.23,7.59,2.23 c3.94,0,7.05,-1.5,9.32,-4.5 c2.27,-3.0,3.41,-7.14,3.41,-12.41 l0,-38.55 l-12.36,0 l0,36.55 c-0.0,3.03,-0.45,5.29,-1.36,6.77 c-0.91,1.48,-2.3,2.23,-4.18,2.23 c-1.88,-0.0,-3.61,-0.62,-5.18,-1.86 c-1.58,-1.24,-2.97,-3.05,-4.18,-5.41 l0,-38.27 Z M543.91,71.82 c-6.18,0,-11.03,1.76,-14.55,5.27 c-3.52,3.52,-5.27,8.39,-5.27,14.64 l0,16.27 c0,6.3,1.77,11.24,5.32,14.82 c3.55,3.58,8.41,5.36,14.59,5.36 c6.12,0,10.94,-1.79,14.45,-5.36 c3.52,-3.58,5.27,-8.52,5.27,-14.82 l0,-16.27 c0,-6.24,-1.76,-11.12,-5.27,-14.64 c-3.52,-3.52,-8.36,-5.27,-14.55,-5.27 Z M543.91,81.27 c2.61,0,4.5,0.83,5.68,2.5 c1.18,1.67,1.77,4.41,1.77,8.23 l0,16 c0,3.82,-0.59,6.58,-1.77,8.27 c-1.18,1.7,-3.08,2.55,-5.68,2.55 c-2.67,0,-4.58,-0.86,-5.73,-2.59 c-1.15,-1.73,-1.73,-4.5,-1.73,-8.32 l0,-15.91 c0,-3.82,0.58,-6.56,1.73,-8.23 c1.15,-1.67,3.06,-2.5,5.73,-2.5 Z M594.45,71.82 c-4.0,0,-7.14,1.53,-9.41,4.59 c-2.27,3.06,-3.41,7.2,-3.41,12.41 l0,38.45 l12.36,0 l0,-36.55 c0,-2.97,0.45,-5.2,1.36,-6.68 c0.91,-1.48,2.27,-2.23,4.09,-2.23 c1.88,0,3.64,0.64,5.27,1.91 c1.64,1.27,3.03,3.06,4.18,5.36 l0,38.18 l12.36,0 l0,-54.55 l-12.36,0 l0,7.55 l-2,0 c-0.79,-2.61,-2.32,-4.67,-4.59,-6.18 c-2.27,-1.52,-4.89,-2.27,-7.86,-2.27 Z M659.18,71.91 c-4.0,0,-7.82,0.65,-11.45,1.95 c-3.64,1.3,-6.73,2.95,-9.27,4.95 l3,8.18 c2.67,-1.76,5.59,-3.24,8.77,-4.45 c3.18,-1.21,6.26,-1.82,9.23,-1.82 c2.61,0,4.58,0.5,5.91,1.5 c1.33,1.0,2,2.53,2,4.59 c0,2.48,-0.83,4.2,-2.5,5.14 c-1.67,0.94,-4.74,2.05,-9.23,3.32 c-4.61,1.27,-8.39,3.06,-11.36,5.36 c-2.97,2.3,-4.45,6.0,-4.45,11.09 c0,5.09,1.62,9.11,4.86,12.05 c3.24,2.94,7.59,4.41,13.05,4.41 c3.64,0,7.14,-0.61,10.5,-1.82 c3.36,-1.21,6.17,-2.73,8.41,-4.55 l-2.45,-7.91 c-2.61,1.64,-5.24,2.97,-7.91,4 c-2.67,1.03,-5.18,1.55,-7.55,1.55 c-2.3,0,-4.08,-0.53,-5.32,-1.59 c-1.24,-1.06,-1.86,-2.62,-1.86,-4.68 c0,-2.42,0.88,-4.15,2.64,-5.18 c1.76,-1.03,4.97,-2.21,9.64,-3.55 c5.03,-1.39,8.83,-3.24,11.41,-5.55 c2.58,-2.3,3.86,-5.82,3.86,-10.55 c0,-5.03,-1.76,-9.03,-5.27,-12 c-3.52,-2.97,-8.39,-4.45,-14.64,-4.45 Z M659.18,71.91" fill="rgb(0,0,0)" transform="matrix(1,0,0,-1,0,200)"/>
</svg>