<?xml version="1.0" encoding="UTF-8"?>
<svg height="200" version="1.1" width="800" xmlns="http://www.w3.org/2000/svg" xmlns:xlink="http://www.w3.org/1999/xlink">
 <path d="M0,0 l800,0 l0,200 l-800,0 Z M0,0" fill="rgb(255,255,255)" transform="matrix(1,0,0,-1,0,200)"/>
 <path d="M360.64,88.76 c-1.55,0,-3.0,0.22,-4.35,0.65 c-1.35,0.44,-2.47,1.09,-3.36,1.96 l0,26.8 l4.95,0 l0,-10.25 l0.8,0 c0.32,1.07,0.89,1.89,1.73,2.47 c0.84,0.58,1.86,0.87,3.07,0.87 c1.7,0,3.01,-0.64,3.93,-1.93 c0.92,-1.28,1.38,-3.13,1.38,-5.53 l0,-7.49 c0,-2.42,-0.7,-4.29,-2.09,-5.6 c-1.39,-1.31,-3.41,-1.96,-6.05,-1.96 Z M360.89,92.47 c1.04,0,1.79,0.3,2.25,0.91 c0.46,0.61,0.69,1.61,0.69,3.02 l0,7.2 c0,1.31,-0.21,2.25,-0.62,2.84 c-0.41,0.58,-1.01,0.87,-1.78,0.87 c-0.68,0,-1.32,-0.21,-1.93,-0.62 c-0.61,-0.41,-1.15,-1.07,-1.64,-1.96 l0,-11.27 c0.34,-0.32,0.76,-0.56,1.25,-0.73 c0.5,-0.17,1.08,-0.25,1.76,-0.25 Z M377.25,89.09 l0,21.82 l4.95,0 l0,-21.82 Z M379.73,114.73 c-0.97,0.0,-1.76,0.16,-2.36,0.49 c-0.61,0.33,-0.91,0.92,-0.91,1.76 l0,0.33 c0,0.87,0.3,1.48,0.91,1.84 c0.61,0.35,1.39,0.53,2.36,0.53 c0.97,0,1.76,-0.18,2.36,-0.53 c0.61,-0.35,0.91,-0.96,0.91,-1.84 l0,-0.33 c0,-0.85,-0.3,-1.44,-0.91,-1.76 c-0.61,-0.33,-1.39,-0.49,-2.36,-0.49 Z M390.67,89.09 l0,21.82 l4.95,0 l0,-2.98 l0.8,0 c0.32,1.19,0.88,2.04,1.71,2.56 c0.82,0.52,1.7,0.78,2.62,0.78 c1.45,0,2.55,-0.5,3.27,-1.49 c0.73,-0.99,1.09,-2.39,1.09,-4.18 l0,-3.96 l-4.51,0 l0,3.27 c0,0.73,-0.14,1.31,-0.42,1.75 c-0.28,0.44,-0.72,0.65,-1.33,0.65 c-0.56,0,-1.14,-0.27,-1.75,-0.8 c-0.61,-0.53,-1.1,-1.22,-1.49,-2.07 l0,-15.35 Z M418.96,88.76 c-1.6,0,-3.13,0.26,-4.58,0.78 c-1.45,0.52,-2.69,1.18,-3.71,1.98 l1.2,3.27 c1.07,-0.7,2.24,-1.3,3.51,-1.78 c1.27,-0.48,2.5,-0.73,3.69,-0.73 c1.04,0,1.83,0.2,2.36,0.6 c0.53,0.4,0.8,1.01,0.8,1.84 c0,0.99,-0.33,1.68,-1,2.05 c-0.67,0.38,-1.9,0.82,-3.69,1.33 c-1.84,0.51,-3.36,1.22,-4.55,2.15 c-1.19,0.92,-1.78,2.4,-1.78,4.44 c0,2.04,0.65,3.64,1.95,4.82 c1.3,1.18,3.04,1.76,5.22,1.76 c1.45,0,2.85,-0.24,4.2,-0.73 c1.35,-0.48,2.47,-1.09,3.36,-1.82 l-0.98,-3.16 c-1.04,0.65,-2.1,1.19,-3.16,1.6 c-1.07,0.41,-2.07,0.62,-3.02,0.62 c-0.92,0,-1.63,-0.21,-2.13,-0.64 c-0.5,-0.42,-0.75,-1.05,-0.75,-1.87 c0.0,-0.97,0.35,-1.66,1.05,-2.07 c0.7,-0.41,1.99,-0.88,3.85,-1.42 c2.01,-0.56,3.53,-1.3,4.56,-2.22 c1.03,-0.92,1.55,-2.33,1.55,-4.22 c0.0,-2.01,-0.7,-3.61,-2.11,-4.8 c-1.41,-1.19,-3.36,-1.78,-5.85,-1.78 Z M443.47,88.73 c-2.21,0,-3.88,0.59,-5.04,1.76 c-1.15,1.18,-1.73,2.89,-1.73,5.15 l0,11.53 l-3.27,0 l0,3.75 l3.27,0 l0,7.27 l4.95,0 l0,-7.27 l5.56,0 l0,-3.75 l-5.56,0 l0,-11.27 c0,-1.16,0.23,-2.01,0.69,-2.55 c0.46,-0.53,1.08,-0.8,1.85,-0.8 c0.36,0,0.78,0.06,1.24,0.18 c0.46,0.12,0.95,0.3,1.45,0.55 l0.55,-3.67 c-0.46,-0.27,-1.05,-0.48,-1.76,-0.64 c-0.72,-0.16,-1.45,-0.24,-2.2,-0.24 Z M443.47,88.73" fill="rgb(0,0,0)" transform="matrix(1,0,0,-1,0,200)"/>
</svg>