<?xml version="1.0" encoding="UTF-8"?>
<svg height="200" version="1.1" width="500" xmlns="http://www.w3.org/2000/svg" xmlns:xlink="http://www.w3.org/1999/xlink">
 <path d="M0,0 l500,0 l0,200 l-500,0 Z M0,0" fill="rgb(255,255,255)" transform="matrix(1,0,0,-1,0,200)"/>
 <path d="M151.33,88.55 c-2.69,0,-4.71,0.67,-6.05,2 c-1.35,1.33,-2.02,3.2,-2.02,5.6 l0,7.24 c0,2.59,0.7,4.53,2.11,5.8 c1.41,1.27,3.39,1.91,5.96,1.91 c2.55,0,4.49,-0.62,5.84,-1.85 c1.35,-1.24,2.09,-3.12,2.24,-5.64 l-4.76,-0.33 c-0.07,1.48,-0.35,2.52,-0.84,3.13 c-0.48,0.61,-1.28,0.91,-2.4,0.91 c-1.19,0,-2.02,-0.3,-2.49,-0.89 c-0.47,-0.59,-0.71,-1.62,-0.71,-3.07 l0,-7.09 c0,-1.45,0.24,-2.47,0.73,-3.05 c0.48,-0.58,1.32,-0.87,2.51,-0.87 c1.12,0,1.91,0.27,2.38,0.82 c0.47,0.55,0.75,1.5,0.82,2.85 l4.76,-0.29 c-0.12,-2.42,-0.85,-4.22,-2.18,-5.4 c-1.33,-1.18,-3.3,-1.76,-5.89,-1.76 Z M173.62,92.04 c0.75,0,1.46,0.16,2.13,0.47 c0.67,0.32,1.23,0.86,1.69,1.64 l0,3.85 l-3.93,0 c-0.7,0,-1.27,-0.21,-1.69,-0.64 c-0.42,-0.42,-0.64,-1.19,-0.64,-2.31 c0,-0.97,0.2,-1.72,0.6,-2.24 c0.4,-0.52,1.01,-0.78,1.84,-0.78 Z M172.42,88.55 c-1.84,0,-3.28,0.55,-4.33,1.65 c-1.04,1.1,-1.56,2.64,-1.56,4.6 c0,1.96,0.56,3.48,1.67,4.56 c1.12,1.08,2.63,1.62,4.55,1.62 l4.69,0 l0,3.38 c0,0.97,-0.25,1.75,-0.76,2.33 c-0.51,0.58,-1.25,0.87,-2.22,0.87 c-1.02,0,-1.76,-0.26,-2.24,-0.78 c-0.47,-0.52,-0.84,-1.52,-1.11,-3 l-4.22,0.87 c0.39,2.23,1.27,3.86,2.64,4.89 c1.37,1.03,3.15,1.55,5.33,1.55 c2.35,0,4.19,-0.51,5.51,-1.53 c1.32,-1.02,1.98,-2.65,1.98,-4.91 l0,-9.78 c0,-1.12,0.27,-1.82,0.8,-2.13 c0.53,-0.3,1.36,-0.33,2.47,-0.09 l0,-3.78 c-1.65,-0.32,-3.0,-0.25,-4.05,0.2 c-1.05,0.45,-1.74,1.41,-2.05,2.89 l-0.8,0 c-0.61,-1.02,-1.45,-1.84,-2.55,-2.47 c-1.09,-0.63,-2.34,-0.95,-3.75,-0.95 Z M196.96,104.65 l0,-15.75 l-4.95,0 l0,21.82 l4.95,0 l0,-2.98 l0.8,0 c0.32,1.02,0.88,1.83,1.69,2.44 c0.81,0.61,1.72,0.91,2.71,0.91 c0.95,0,1.76,-0.3,2.44,-0.89 c0.68,-0.59,1.18,-1.41,1.49,-2.45 l1.2,0 c0.34,1.02,0.9,1.83,1.69,2.44 c0.79,0.61,1.67,0.91,2.64,0.91 c1.36,0,2.44,-0.57,3.24,-1.71 c0.8,-1.14,1.2,-2.72,1.2,-4.73 l0,-15.75 l-4.95,0 l0,15.35 c0,0.95,-0.14,1.66,-0.42,2.15 c-0.28,0.48,-0.7,0.73,-1.25,0.73 c-0.58,0,-1.13,-0.21,-1.64,-0.62 c-0.51,-0.41,-0.95,-1.03,-1.31,-1.85 l0,-15.75 l-4.91,0 l0,15.35 c0,0.95,-0.14,1.66,-0.42,2.15 c-0.28,0.48,-0.68,0.73,-1.22,0.73 c-0.61,0,-1.16,-0.21,-1.67,-0.62 c-0.51,-0.41,-0.95,-1.03,-1.31,-1.85 Z M228.16,104.65 l0,-15.75 l-4.95,0 l0,21.82 l4.95,0 l0,-2.98 l0.8,0 c0.32,1.02,0.88,1.83,1.69,2.44 c0.81,0.61,1.72,0.91,2.71,0.91 c0.95,0,1.76,-0.3,2.44,-0.89 c0.68,-0.59,1.18,-1.41,1.49,-2.45 l1.2,0 c0.34,1.02,0.9,1.83,1.69,2.44 c0.79,0.61,1.67,0.91,2.64,0.91 c1.36,0,2.44,-0.57,3.24,-1.71 c0.8,-1.14,1.2,-2.72,1.2,-4.73 l0,-15.75 l-4.95,0 l0,15.35 c0,0.95,-0.14,1.66,-0.42,2.15 c-0.28,0.48,-0.7,0.73,-1.25,0.73 c-0.58,0,-1.13,-0.21,-1.64,-0.62 c-0.51,-0.41,-0.95,-1.03,-1.31,-1.85 l0,-15.75 l-4.91,0 l0,15.35 c0.0,0.95,-0.14,1.66,-0.42,2.15 c-0.28,0.48,-0.68,0.73,-1.22,0.73 c-0.61,0,-1.16,-0.21,-1.67,-0.62 c-0.51,-0.41,-0.95,-1.03,-1.31,-1.85 Z M259.55,88.55 c-1.6,0,-2.85,0.61,-3.76,1.84 c-0.91,1.22,-1.36,2.88,-1.36,4.96 l0,15.38 l4.95,0 l0,-14.62 c0,-1.19,0.18,-2.08,0.55,-2.67 c0.36,-0.59,0.91,-0.89,1.64,-0.89 c0.75,0,1.45,0.25,2.11,0.76 c0.65,0.51,1.21,1.22,1.67,2.15 l0,15.27 l4.95,0 l0,-21.82 l-4.95,0 l0,3.02 l-0.8,0 c-0.32,-1.04,-0.93,-1.87,-1.84,-2.47 c-0.91,-0.61,-1.96,-0.91,-3.15,-0.91 Z M277.44,88.91 l0,21.82 l4.95,0 l0,-2.98 l0.8,0 c0.39,1.04,1.04,1.86,1.95,2.45 c0.91,0.59,1.93,0.89,3.07,0.89 c1.55,0,2.79,-0.61,3.71,-1.84 c0.92,-1.22,1.38,-2.87,1.38,-4.93 l0,-15.42 l-4.95,0 l0,14.62 c0,1.19,-0.18,2.08,-0.55,2.69 c-0.36,0.61,-0.91,0.91,-1.64,0.91 c-0.75,0,-1.45,-0.26,-2.11,-0.78 c-0.65,-0.52,-1.21,-1.23,-1.67,-2.13 l0,-15.31 Z M301.76,88.91 l0,21.82 l4.95,0 l0,-21.82 Z M304.24,114.55 c-0.97,0,-1.76,0.16,-2.36,0.49 c-0.61,0.33,-0.91,0.92,-0.91,1.76 l0,0.33 c0,0.87,0.3,1.48,0.91,1.84 c0.61,0.35,1.39,0.53,2.36,0.53 c0.97,-0.0,1.76,-0.18,2.36,-0.53 c0.61,-0.35,0.91,-0.96,0.91,-1.84 l0,-0.33 c0,-0.85,-0.3,-1.44,-0.91,-1.76 c-0.61,-0.33,-1.39,-0.49,-2.36,-0.49 Z M315.18,88.91 l0,21.82 l4.95,0 l0,-2.98 l0.8,0 c0.39,1.04,1.04,1.86,1.95,2.45 c0.91,0.59,1.93,0.89,3.07,0.89 c1.55,0,2.79,-0.61,3.71,-1.84 c0.92,-1.22,1.38,-2.87,1.38,-4.93 l0,-15.42 l-4.95,0 l0,14.62 c0,1.19,-0.18,2.08,-0.55,2.69 c-0.36,0.61,-0.91,0.91,-1.64,0.91 c-0.75,0,-1.45,-0.26,-2.11,-0.78 c-0.65,-0.52,-1.21,-1.23,-1.67,-2.13 l0,-15.31 Z M356.78,87.35 c0,-1.96,-0.57,-3.47,-1.71,-4.51 c-1.14,-1.04,-2.72,-1.56,-4.73,-1.56 l-5.42,0 c-2.23,0,-3.91,0.45,-5.04,1.35 c-1.13,0.9,-1.69,2.21,-1.69,3.93 c0,1.19,0.28,2.13,0.85,2.84 c0.57,0.7,1.28,1.12,2.13,1.24 l0,0.73 c-0.68,0.19,-1.25,0.57,-1.71,1.13 c-0.46,0.56,-0.69,1.42,-0.69,2.58 c0,1.12,0.36,2.09,1.09,2.93 c0.73,0.84,1.65,1.33,2.76,1.47 l0,0.69 c-0.99,0.36,-1.75,0.94,-2.27,1.73 c-0.52,0.79,-0.78,1.61,-0.78,2.45 l0,0.73 c0,1.72,0.62,3.1,1.87,4.13 c1.25,1.03,3.08,1.55,5.51,1.55 l9.67,0 l0,-3.45 l-4.44,0.8 l0,-0.69 c0.68,-0.27,1.24,-0.76,1.67,-1.49 c0.44,-0.73,0.65,-1.5,0.65,-2.33 l0,-0.69 c0,-1.67,-0.62,-3.02,-1.85,-4.04 c-1.24,-1.02,-3.12,-1.53,-5.64,-1.53 l-2.8,0 c-0.56,0,-1.0,-0.15,-1.33,-0.45 c-0.33,-0.3,-0.49,-0.83,-0.49,-1.58 c0,-0.7,0.18,-1.22,0.53,-1.56 c0.35,-0.34,0.83,-0.51,1.44,-0.51 l6.18,0 c1.94,0,3.46,-0.47,4.56,-1.4 c1.1,-0.93,1.65,-2.42,1.65,-4.45 Z M347.07,100.22 c0.97,0,1.67,0.26,2.09,0.78 c0.42,0.52,0.64,1.3,0.64,2.35 l0,1.13 c0,1.04,-0.22,1.81,-0.65,2.31 c-0.44,0.5,-1.13,0.75,-2.07,0.75 c-0.97,0,-1.67,-0.25,-2.11,-0.75 c-0.44,-0.5,-0.65,-1.27,-0.65,-2.31 l0,-1.13 c0,-1.04,0.21,-1.82,0.64,-2.35 c0.42,-0.52,1.13,-0.78,2.13,-0.78 Z M344.96,84.47 l5.2,0 c0.75,0,1.38,0.18,1.87,0.53 c0.5,0.35,0.75,1.01,0.75,1.98 c0,0.92,-0.24,1.56,-0.73,1.93 c-0.48,0.36,-1.09,0.55,-1.82,0.55 l-7.38,0 l0,-2.25 c0,-0.92,0.18,-1.61,0.53,-2.05 c0.35,-0.45,0.88,-0.67,1.58,-0.67 Z M344.96,84.47" fill="rgb(0,0,0)" transform="matrix(1,0,0,-1,0,200)"/>
</svg>