<?xml version="1.0" encoding="UTF-8"?>
<svg height="200" version="1.1" width="800" xmlns="http://www.w3.org/2000/svg" xmlns:xlink="http://www.w3.org/1999/xlink">
 <path d="M0,0 l800,0 l0,200 l-800,0 Z M0,0" fill="rgb(255,255,255)" transform="matrix(1,0,0,-1,0,200)"/>
 <path d="M289.76,88.73 c-2.69,0,-4.71,0.67,-6.05,2 c-1.35,1.33,-2.02,3.2,-2.02,5.6 l0,7.24 c0,2.59,0.7,4.53,2.11,5.8 c1.41,1.27,3.39,1.91,5.96,1.91 c2.55,0,4.49,-0.62,5.84,-1.85 c1.35,-1.24,2.09,-3.12,2.24,-5.64 l-4.76,-0.33 c-0.07,1.48,-0.35,2.52,-0.84,3.13 c-0.48,0.61,-1.28,0.91,-2.4,0.91 c-1.19,0,-2.02,-0.3,-2.49,-0.89 c-0.47,-0.59,-0.71,-1.62,-0.71,-3.07 l0,-7.09 c0,-1.45,0.24,-2.47,0.73,-3.05 c0.48,-0.58,1.32,-0.87,2.51,-0.87 c1.12,0,1.91,0.27,2.38,0.82 c0.47,0.55,0.75,1.5,0.82,2.85 l4.76,-0.29 c-0.12,-2.42,-0.85,-4.22,-2.18,-5.4 c-1.33,-1.18,-3.3,-1.76,-5.89,-1.76 Z M312.64,88.73 c-2.47,0,-4.41,0.7,-5.82,2.11 c-1.41,1.41,-2.11,3.36,-2.11,5.85 l0,6.51 c0,2.52,0.71,4.5,2.13,5.93 c1.42,1.43,3.36,2.15,5.84,2.15 c2.45,0,4.38,-0.72,5.78,-2.15 c1.41,-1.43,2.11,-3.41,2.11,-5.93 l0,-6.51 c0,-2.5,-0.7,-4.45,-2.11,-5.85 c-1.41,-1.41,-3.35,-2.11,-5.82,-2.11 Z M312.64,92.51 c1.04,0,1.8,0.33,2.27,1 c0.47,0.67,0.71,1.76,0.71,3.29 l0,6.4 c0,1.53,-0.24,2.63,-0.71,3.31 c-0.47,0.68,-1.23,1.02,-2.27,1.02 c-1.07,0,-1.83,-0.35,-2.29,-1.04 c-0.46,-0.69,-0.69,-1.8,-0.69,-3.33 l0,-6.36 c0,-1.53,0.23,-2.62,0.69,-3.29 c0.46,-0.67,1.22,-1,2.29,-1 Z M332.67,104.84 l0,-15.75 l-4.95,0 l0,21.82 l4.95,0 l0,-2.98 l0.8,0 c0.32,1.02,0.88,1.83,1.69,2.44 c0.81,0.61,1.72,0.91,2.71,0.91 c0.95,0,1.76,-0.3,2.44,-0.89 c0.68,-0.59,1.18,-1.41,1.49,-2.45 l1.2,0 c0.34,1.02,0.9,1.83,1.69,2.44 c0.79,0.61,1.67,0.91,2.64,0.91 c1.36,0,2.44,-0.57,3.24,-1.71 c0.8,-1.14,1.2,-2.72,1.2,-4.73 l0,-15.75 l-4.95,0 l0,15.35 c0,0.95,-0.14,1.66,-0.42,2.15 c-0.28,0.48,-0.7,0.73,-1.25,0.73 c-0.58,0,-1.13,-0.21,-1.64,-0.62 c-0.51,-0.41,-0.95,-1.03,-1.31,-1.85 l0,-15.75 l-4.91,0 l0,15.35 c0,0.95,-0.14,1.66,-0.42,2.15 c-0.28,0.48,-0.68,0.73,-1.22,0.73 c-0.61,0,-1.16,-0.21,-1.67,-0.62 c-0.51,-0.41,-0.95,-1.03,-1.31,-1.85 Z M366.89,92.47 c1.04,0,1.79,0.31,2.25,0.93 c0.46,0.62,0.69,1.62,0.69,3 l0,7.24 c0,1.28,-0.19,2.22,-0.56,2.8 c-0.38,0.58,-0.99,0.87,-1.84,0.87 c-0.75,0,-1.41,-0.21,-1.96,-0.62 c-0.56,-0.41,-1.09,-1.07,-1.6,-1.96 l0,-10.98 c0.51,-0.41,1.01,-0.73,1.49,-0.95 c0.48,-0.22,0.99,-0.33,1.53,-0.33 Z M367.73,88.76 c-0.65,0,-1.32,0.08,-1.98,0.25 c-0.67,0.17,-1.29,0.41,-1.87,0.73 l0,-7.93 l-4.95,0 l0,29.09 l4.95,0 l0,-2.98 l0.8,0 c0.32,1.07,0.92,1.89,1.8,2.47 c0.88,0.58,1.93,0.87,3.15,0.87 c1.67,0,2.95,-0.65,3.84,-1.96 c0.88,-1.31,1.33,-3.14,1.33,-5.49 l0,-7.49 c0,-2.4,-0.62,-4.26,-1.85,-5.58 c-1.24,-1.32,-2.97,-1.98,-5.2,-1.98 Z M389.29,92.22 c0.75,0,1.46,0.16,2.13,0.47 c0.67,0.32,1.23,0.86,1.69,1.64 l0,3.85 l-3.93,0 c-0.7,0,-1.27,-0.21,-1.69,-0.64 c-0.42,-0.42,-0.64,-1.19,-0.64,-2.31 c0,-0.97,0.2,-1.72,0.6,-2.24 c0.4,-0.52,1.01,-0.78,1.84,-0.78 Z M388.09,88.73 c-1.84,0,-3.28,0.55,-4.33,1.65 c-1.04,1.1,-1.56,2.64,-1.56,4.6 c0,1.96,0.56,3.48,1.67,4.56 c1.12,1.08,2.63,1.62,4.55,1.62 l4.69,0 l0,3.38 c0,0.97,-0.25,1.75,-0.76,2.33 c-0.51,0.58,-1.25,0.87,-2.22,0.87 c-1.02,0,-1.76,-0.26,-2.24,-0.78 c-0.47,-0.52,-0.84,-1.52,-1.11,-3 l-4.22,0.87 c0.39,2.23,1.27,3.86,2.64,4.89 c1.37,1.03,3.15,1.55,5.33,1.55 c2.35,0,4.19,-0.51,5.51,-1.53 c1.32,-1.02,1.98,-2.65,1.98,-4.91 l0,-9.78 c0,-1.12,0.27,-1.82,0.8,-2.13 c0.53,-0.3,1.36,-0.33,2.47,-0.09 l0,-3.78 c-1.65,-0.32,-3.0,-0.25,-4.05,0.2 c-1.05,0.45,-1.74,1.41,-2.05,2.89 l-0.8,0 c-0.61,-1.02,-1.45,-1.84,-2.55,-2.47 c-1.09,-0.63,-2.34,-0.95,-3.75,-0.95 Z M426.27,87.53 c0.0,-1.96,-0.57,-3.47,-1.71,-4.51 c-1.14,-1.04,-2.72,-1.56,-4.73,-1.56 l-5.42,0 c-2.23,0,-3.91,0.45,-5.04,1.35 c-1.13,0.9,-1.69,2.21,-1.69,3.93 c0,1.19,0.28,2.13,0.85,2.84 c0.57,0.7,1.28,1.12,2.13,1.24 l0,0.73 c-0.68,0.19,-1.25,0.57,-1.71,1.13 c-0.46,0.56,-0.69,1.42,-0.69,2.58 c0,1.12,0.36,2.09,1.09,2.93 c0.73,0.84,1.65,1.33,2.76,1.47 l0,0.69 c-0.99,0.36,-1.75,0.94,-2.27,1.73 c-0.52,0.79,-0.78,1.61,-0.78,2.45 l0,0.73 c0,1.72,0.62,3.1,1.87,4.13 c1.25,1.03,3.08,1.55,5.51,1.55 l9.67,0 l0,-3.45 l-4.44,0.8 l0,-0.69 c0.68,-0.27,1.24,-0.76,1.67,-1.49 c0.44,-0.73,0.65,-1.5,0.65,-2.33 l0,-0.69 c0,-1.67,-0.62,-3.02,-1.85,-4.04 c-1.24,-1.02,-3.12,-1.53,-5.64,-1.53 l-2.8,0 c-0.56,0,-1.0,-0.15,-1.33,-0.45 c-0.33,-0.3,-0.49,-0.83,-0.49,-1.58 c-0.0,-0.7,0.18,-1.22,0.53,-1.56 c0.35,-0.34,0.83,-0.51,1.44,-0.51 l6.18,0 c1.94,0,3.46,-0.47,4.56,-1.4 c1.1,-0.93,1.65,-2.42,1.65,-4.45 Z M416.56,100.4 c0.97,0,1.67,0.26,2.09,0.78 c0.42,0.52,0.64,1.3,0.64,2.35 l0,1.13 c0,1.04,-0.22,1.81,-0.65,2.31 c-0.44,0.5,-1.13,0.75,-2.07,0.75 c-0.97,0,-1.67,-0.25,-2.11,-0.75 c-0.44,-0.5,-0.65,-1.27,-0.65,-2.31 l0,-1.13 c0,-1.04,0.21,-1.82,0.64,-2.35 c0.42,-0.52,1.13,-0.78,2.13,-0.78 Z M414.45,84.65 l5.2,0 c0.75,0,1.38,0.18,1.87,0.53 c0.5,0.35,0.75,1.01,0.75,1.98 c-0.0,0.92,-0.24,1.56,-0.73,1.93 c-0.48,0.36,-1.09,0.55,-1.82,0.55 l-7.38,0 l0,-2.25 c0,-0.92,0.18,-1.61,0.53,-2.05 c0.35,-0.45,0.88,-0.67,1.58,-0.67 Z M440.78,92.22 c0.75,0,1.46,0.16,2.13,0.47 c0.67,0.32,1.23,0.86,1.69,1.64 l0,3.85 l-3.93,0 c-0.7,0,-1.27,-0.21,-1.69,-0.64 c-0.42,-0.42,-0.64,-1.19,-0.64,-2.31 c0,-0.97,0.2,-1.72,0.6,-2.24 c0.4,-0.52,1.01,-0.78,1.84,-0.78 Z M439.58,88.73 c-1.84,0,-3.28,0.55,-4.33,1.65 c-1.04,1.1,-1.56,2.64,-1.56,4.6 c0,1.96,0.56,3.48,1.67,4.56 c1.12,1.08,2.63,1.62,4.55,1.62 l4.69,0 l0,3.38 c0,0.97,-0.25,1.75,-0.76,2.33 c-0.51,0.58,-1.25,0.87,-2.22,0.87 c-1.02,0,-1.76,-0.26,-2.24,-0.78 c-0.47,-0.52,-0.84,-1.52,-1.11,-3 l-4.22,0.87 c0.39,2.23,1.27,3.86,2.64,4.89 c1.37,1.03,3.15,1.55,5.33,1.55 c2.35,0,4.19,-0.51,5.51,-1.53 c1.32,-1.02,1.98,-2.65,1.98,-4.91 l0,-9.78 c-0.0,-1.12,0.27,-1.82,0.8,-2.13 c0.53,-0.3,1.36,-0.33,2.47,-0.09 l0,-3.78 c-1.65,-0.32,-3.0,-0.25,-4.05,0.2 c-1.05,0.45,-1.74,1.41,-2.05,2.89 l-0.8,0 c-0.61,-1.02,-1.45,-1.84,-2.55,-2.47 c-1.09,-0.63,-2.34,-0.95,-3.75,-0.95 Z M459.18,89.09 l0,21.82 l4.95,0 l0,-2.98 l0.8,0 c0.39,1.04,1.04,1.86,1.95,2.45 c0.91,0.59,1.93,0.89,3.07,0.89 c1.55,0,2.79,-0.61,3.71,-1.84 c0.92,-1.22,1.38,-2.87,1.38,-4.93 l0,-15.42 l-4.95,0 l0,14.62 c0,1.19,-0.18,2.08,-0.55,2.69 c-0.36,0.61,-0.91,0.91,-1.64,0.91 c-0.75,0,-1.45,-0.26,-2.11,-0.78 c-0.65,-0.52,-1.21,-1.23,-1.67,-2.13 l0,-15.31 Z M491.69,88.73 c-2.21,0,-3.88,0.59,-5.04,1.76 c-1.15,1.18,-1.73,2.89,-1.73,5.15 l0,11.53 l-3.27,0 l0,3.75 l3.27,0 l0,7.27 l4.95,0 l0,-7.27 l5.56,0 l0,-3.75 l-5.56,0 l0,-11.27 c0,-1.16,0.23,-2.01,0.69,-2.55 c0.46,-0.53,1.08,-0.8,1.85,-0.8 c0.36,0,0.78,0.06,1.24,0.18 c0.46,0.12,0.95,0.3,1.45,0.55 l0.55,-3.67 c-0.46,-0.27,-1.05,-0.48,-1.76,-0.64 c-0.72,-0.16,-1.45,-0.24,-2.2,-0.24 Z M502.49,89.09 l0,29.09 l4.95,0 l0,-10.25 l0.8,0 c0.41,1.04,1.07,1.86,1.98,2.45 c0.91,0.59,1.92,0.89,3.04,0.89 c1.58,0,2.82,-0.6,3.73,-1.8 c0.91,-1.2,1.36,-2.85,1.36,-4.96 l0,-15.42 l-4.95,0 l0,14.62 c0,1.21,-0.18,2.12,-0.55,2.71 c-0.36,0.59,-0.92,0.89,-1.67,0.89 c-0.75,0,-1.44,-0.25,-2.07,-0.75 c-0.63,-0.5,-1.19,-1.22,-1.67,-2.16 l0,-15.31 Z M502.49,89.09" fill="rgb(0,0,0)" transform="matrix(1,0,0,-1,0,200)"/>
</svg>