<?xml version="1.0" encoding="UTF-8"?>
<svg height="200" version="1.1" width="800" xmlns="http://www.w3.org/2000/svg" xmlns:xlink="http://www.w3.org/1999/xlink">
 <path d="M0,0 l800,0 l0,200 l-800,0 Z M0,0" fill="rgb(255,255,255)" transform="matrix(1,0,0,-1,0,200)"/>
 <path d="M295.55,94 c-0.51,-1.75,-1.45,-3.06,-2.84,-3.95 c-1.38,-0.88,-3.09,-1.33,-5.13,-1.33 c-2.45,0,-4.37,0.68,-5.76,2.05 c-1.39,1.37,-2.09,3.25,-2.09,5.65 l0,7.13 c0,2.4,0.71,4.28,2.13,5.65 c1.42,1.37,3.36,2.05,5.84,2.05 c2.45,0,4.38,-0.7,5.78,-2.11 c1.41,-1.41,2.11,-3.35,2.11,-5.82 l0,-4.25 l-10.91,0 l0,-2.65 c0,-1.55,0.25,-2.64,0.75,-3.27 c0.5,-0.63,1.33,-0.95,2.49,-0.95 c1.02,0,1.78,0.22,2.27,0.65 c0.5,0.44,0.92,1.2,1.25,2.29 Z M284.67,103.53 l0,-1.45 l5.96,0 l0,1.24 c0,1.62,-0.23,2.79,-0.69,3.49 c-0.46,0.7,-1.22,1.05,-2.29,1.05 c-1.07,0,-1.83,-0.33,-2.29,-1 c-0.46,-0.67,-0.69,-1.78,-0.69,-3.33 Z M312.49,89.09 l-3.42,6.73 l-3.02,-6.73 l-5.02,0 l5.67,11.2 l-5.45,10.62 l4.98,0 l3.2,-6.25 l2.91,6.25 l4.98,0 l-5.53,-10.8 l5.71,-11.02 Z M331,92.47 c1.04,0,1.79,0.31,2.25,0.93 c0.46,0.62,0.69,1.62,0.69,3 l0,7.24 c0,1.28,-0.19,2.22,-0.56,2.8 c-0.38,0.58,-0.99,0.87,-1.84,0.87 c-0.75,0,-1.41,-0.21,-1.96,-0.62 c-0.56,-0.41,-1.09,-1.07,-1.6,-1.96 l0,-10.98 c0.51,-0.41,1.01,-0.73,1.49,-0.95 c0.48,-0.22,0.99,-0.33,1.53,-0.33 Z M331.84,88.76 c-0.65,0,-1.32,0.08,-1.98,0.25 c-0.67,0.17,-1.29,0.41,-1.87,0.73 l0,-7.93 l-4.95,0 l0,29.09 l4.95,0 l0,-2.98 l0.8,0 c0.32,1.07,0.92,1.89,1.8,2.47 c0.88,0.58,1.93,0.87,3.15,0.87 c1.67,0,2.95,-0.65,3.84,-1.96 c0.88,-1.31,1.33,-3.14,1.33,-5.49 l0,-7.49 c0,-2.4,-0.62,-4.26,-1.85,-5.58 c-1.24,-1.32,-2.97,-1.98,-5.2,-1.98 Z M361.87,94 c-0.51,-1.75,-1.45,-3.06,-2.84,-3.95 c-1.38,-0.88,-3.09,-1.33,-5.13,-1.33 c-2.45,0,-4.37,0.68,-5.76,2.05 c-1.39,1.37,-2.09,3.25,-2.09,5.65 l0,7.13 c0,2.4,0.71,4.28,2.13,5.65 c1.42,1.37,3.36,2.05,5.84,2.05 c2.45,0,4.38,-0.7,5.78,-2.11 c1.41,-1.41,2.11,-3.35,2.11,-5.82 l0,-4.25 l-10.91,0 l0,-2.65 c0,-1.55,0.25,-2.64,0.75,-3.27 c0.5,-0.63,1.33,-0.95,2.49,-0.95 c1.02,0,1.78,0.22,2.27,0.65 c0.5,0.44,0.92,1.2,1.25,2.29 Z M351,103.53 l0,-1.45 l5.96,0 l0,1.24 c0,1.62,-0.23,2.79,-0.69,3.49 c-0.46,0.7,-1.22,1.05,-2.29,1.05 c-1.07,0,-1.83,-0.33,-2.29,-1 c-0.46,-0.67,-0.69,-1.78,-0.69,-3.33 Z M369.07,89.09 l0,21.82 l4.95,0 l0,-2.98 l0.8,0 c0.32,1.19,0.88,2.04,1.71,2.56 c0.82,0.52,1.7,0.78,2.62,0.78 c1.45,0,2.55,-0.5,3.27,-1.49 c0.73,-0.99,1.09,-2.39,1.09,-4.18 l0,-3.96 l-4.51,0 l0,3.27 c0,0.73,-0.14,1.31,-0.42,1.75 c-0.28,0.44,-0.72,0.65,-1.33,0.65 c-0.56,0,-1.14,-0.27,-1.75,-0.8 c-0.61,-0.53,-1.1,-1.22,-1.49,-2.07 l0,-15.35 Z M397.33,92.47 c1.04,0,1.79,0.31,2.25,0.93 c0.46,0.62,0.69,1.62,0.69,3 l0,7.24 c0,1.28,-0.19,2.22,-0.56,2.8 c-0.38,0.58,-0.99,0.87,-1.84,0.87 c-0.75,0,-1.41,-0.21,-1.96,-0.62 c-0.56,-0.41,-1.09,-1.07,-1.6,-1.96 l0,-10.98 c0.51,-0.41,1.01,-0.73,1.49,-0.95 c0.48,-0.22,0.99,-0.33,1.53,-0.33 Z M398.16,88.76 c-0.65,0,-1.32,0.08,-1.98,0.25 c-0.67,0.17,-1.29,0.41,-1.87,0.73 l0,-7.93 l-4.95,0 l0,29.09 l4.95,0 l0,-2.98 l0.8,0 c0.32,1.07,0.92,1.89,1.8,2.47 c0.88,0.58,1.93,0.87,3.15,0.87 c1.67,0,2.95,-0.65,3.84,-1.96 c0.88,-1.31,1.33,-3.14,1.33,-5.49 l0,-7.49 c0,-2.4,-0.62,-4.26,-1.85,-5.58 c-1.24,-1.32,-2.97,-1.98,-5.2,-1.98 Z M412.38,89.09 l0,21.82 l4.95,0 l0,-2.98 l0.8,0 c0.32,1.19,0.88,2.04,1.71,2.56 c0.82,0.52,1.7,0.78,2.62,0.78 c1.45,0,2.55,-0.5,3.27,-1.49 c0.73,-0.99,1.09,-2.39,1.09,-4.18 l0,-3.96 l-4.51,0 l0,3.27 c0,0.73,-0.14,1.31,-0.42,1.75 c-0.28,0.44,-0.72,0.65,-1.33,0.65 c-0.56,0,-1.14,-0.27,-1.75,-0.8 c-0.61,-0.53,-1.1,-1.22,-1.49,-2.07 l0,-15.35 Z M440.6,88.73 c-2.47,0,-4.41,0.7,-5.82,2.11 c-1.41,1.41,-2.11,3.36,-2.11,5.85 l0,6.51 c0,2.52,0.71,4.5,2.13,5.93 c1.42,1.43,3.36,2.15,5.84,2.15 c2.45,0,4.38,-0.72,5.78,-2.15 c1.41,-1.43,2.11,-3.41,2.11,-5.93 l0,-6.51 c-0.0,-2.5,-0.7,-4.45,-2.11,-5.85 c-1.41,-1.41,-3.35,-2.11,-5.82,-2.11 Z M440.6,92.51 c1.04,0,1.8,0.33,2.27,1 c0.47,0.67,0.71,1.76,0.71,3.29 l0,6.4 c0,1.53,-0.24,2.63,-0.71,3.31 c-0.47,0.68,-1.23,1.02,-2.27,1.02 c-1.07,0,-1.83,-0.35,-2.29,-1.04 c-0.46,-0.69,-0.69,-1.8,-0.69,-3.33 l0,-6.36 c0,-1.53,0.23,-2.62,0.69,-3.29 c0.46,-0.67,1.22,-1,2.29,-1 Z M469.29,89.09 l-2.87,13.78 l-2.73,-13.78 l-5.42,0 l-4,21.82 l4.33,0 l2.84,-17.13 l2.73,13.49 l4.44,0 l2.95,-13.31 l2.73,16.95 l4.15,0 l-4.04,-21.82 Z M499.98,94 c-0.51,-1.75,-1.45,-3.06,-2.84,-3.95 c-1.38,-0.88,-3.09,-1.33,-5.13,-1.33 c-2.45,0,-4.37,0.68,-5.76,2.05 c-1.39,1.37,-2.09,3.25,-2.09,5.65 l0,7.13 c0,2.4,0.71,4.28,2.13,5.65 c1.42,1.37,3.36,2.05,5.84,2.05 c2.45,0,4.38,-0.7,5.78,-2.11 c1.41,-1.41,2.11,-3.35,2.11,-5.82 l0,-4.25 l-10.91,0 l0,-2.65 c-0.0,-1.55,0.25,-2.64,0.75,-3.27 c0.5,-0.63,1.33,-0.95,2.49,-0.95 c1.02,0,1.78,0.22,2.27,0.65 c0.5,0.44,0.92,1.2,1.25,2.29 Z M489.11,103.53 l0,-1.45 l5.96,0 l0,1.24 c0,1.62,-0.23,2.79,-0.69,3.49 c-0.46,0.7,-1.22,1.05,-2.29,1.05 c-1.07,0,-1.83,-0.33,-2.29,-1 c-0.46,-0.67,-0.69,-1.78,-0.69,-3.33 Z M507.18,89.09 l0,21.82 l4.95,0 l0,-2.98 l0.8,0 c0.32,1.19,0.88,2.04,1.71,2.56 c0.82,0.52,1.7,0.78,2.62,0.78 c1.45,0,2.55,-0.5,3.27,-1.49 c0.73,-0.99,1.09,-2.39,1.09,-4.18 l0,-3.96 l-4.51,0 l0,3.27 c0,0.73,-0.14,1.31,-0.42,1.75 c-0.28,0.44,-0.72,0.65,-1.33,0.65 c-0.56,0,-1.14,-0.27,-1.75,-0.8 c-0.61,-0.53,-1.1,-1.22,-1.49,-2.07 l0,-15.35 Z M507.18,89.09" fill="rgb(0,0,0)" transform="matrix(1,0,0,-1,0,200)"/>
</svg>