<?xml version="1.0" encoding="UTF-8"?>
<svg height="200" version="1.1" width="500" xmlns="http://www.w3.org/2000/svg" xmlns:xlink="http://www.w3.org/1999/xlink">
 <path d="M0,0 l500,0 l0,200 l-500,0 Z M0,0" fill="rgb(255,255,255)" transform="matrix(1,0,0,-1,0,200)"/>
 <path d="M186.76,104.65 l0,-15.75 l-4.95,0 l0,21.82 l4.95,0 l0,-2.98 l0.8,0 c0.32,1.02,0.88,1.83,1.69,2.44 c0.81,0.61,1.72,0.91,2.71,0.91 c0.95,0,1.76,-0.3,2.44,-0.89 c0.68,-0.59,1.18,-1.41,1.49,-2.45 l1.2,0 c0.34,1.02,0.9,1.83,1.69,2.44 c0.79,0.61,1.67,0.91,2.64,0.91 c1.36,0,2.44,-0.57,3.24,-1.71 c0.8,-1.14,1.2,-2.72,1.2,-4.73 l0,-15.75 l-4.95,0 l0,15.35 c-0.0,0.95,-0.14,1.66,-0.42,2.15 c-0.28,0.48,-0.7,0.73,-1.25,0.73 c-0.58,0,-1.13,-0.21,-1.64,-0.62 c-0.51,-0.41,-0.95,-1.03,-1.31,-1.85 l0,-15.75 l-4.91,0 l0,15.35 c0,0.95,-0.14,1.66,-0.42,2.15 c-0.28,0.48,-0.68,0.73,-1.22,0.73 c-0.61,0,-1.16,-0.21,-1.67,-0.62 c-0.51,-0.41,-0.95,-1.03,-1.31,-1.85 Z M220.36,92.04 c0.75,0,1.46,0.16,2.13,0.47 c0.67,0.32,1.23,0.86,1.69,1.64 l0,3.85 l-3.93,0 c-0.7,0,-1.27,-0.21,-1.69,-0.64 c-0.42,-0.42,-0.64,-1.19,-0.64,-2.31 c-0.0,-0.97,0.2,-1.72,0.6,-2.24 c0.4,-0.52,1.01,-0.78,1.84,-0.78 Z M219.16,88.55 c-1.84,0,-3.28,0.55,-4.33,1.65 c-1.04,1.1,-1.56,2.64,-1.56,4.6 c0,1.96,0.56,3.48,1.67,4.56 c1.12,1.08,2.63,1.62,4.55,1.62 l4.69,0 l0,3.38 c0,0.97,-0.25,1.75,-0.76,2.33 c-0.51,0.58,-1.25,0.87,-2.22,0.87 c-1.02,0,-1.76,-0.26,-2.24,-0.78 c-0.47,-0.52,-0.84,-1.52,-1.11,-3 l-4.22,0.87 c0.39,2.23,1.27,3.86,2.64,4.89 c1.37,1.03,3.15,1.55,5.33,1.55 c2.35,0,4.19,-0.51,5.51,-1.53 c1.32,-1.02,1.98,-2.65,1.98,-4.91 l0,-9.78 c0,-1.12,0.27,-1.82,0.8,-2.13 c0.53,-0.3,1.36,-0.33,2.47,-0.09 l0,-3.78 c-1.65,-0.32,-3.0,-0.25,-4.05,0.2 c-1.05,0.45,-1.74,1.41,-2.05,2.89 l-0.8,0 c-0.61,-1.02,-1.45,-1.84,-2.55,-2.47 c-1.09,-0.63,-2.34,-0.95,-3.75,-0.95 Z M246.76,88.58 c-1.6,0,-3.13,0.26,-4.58,0.78 c-1.45,0.52,-2.69,1.18,-3.71,1.98 l1.2,3.27 c1.07,-0.7,2.24,-1.3,3.51,-1.78 c1.27,-0.48,2.5,-0.73,3.69,-0.73 c1.04,0,1.83,0.2,2.36,0.6 c0.53,0.4,0.8,1.01,0.8,1.84 c-0.0,0.99,-0.33,1.68,-1,2.05 c-0.67,0.38,-1.9,0.82,-3.69,1.33 c-1.84,0.51,-3.36,1.22,-4.55,2.15 c-1.19,0.92,-1.78,2.4,-1.78,4.44 c0,2.04,0.65,3.64,1.95,4.82 c1.3,1.18,3.04,1.76,5.22,1.76 c1.45,0,2.85,-0.24,4.2,-0.73 c1.35,-0.48,2.47,-1.09,3.36,-1.82 l-0.98,-3.16 c-1.04,0.65,-2.1,1.19,-3.16,1.6 c-1.07,0.41,-2.07,0.62,-3.02,0.62 c-0.92,0,-1.63,-0.21,-2.13,-0.64 c-0.5,-0.42,-0.75,-1.05,-0.75,-1.87 c0,-0.97,0.35,-1.66,1.05,-2.07 c0.7,-0.41,1.99,-0.88,3.85,-1.42 c2.01,-0.56,3.53,-1.3,4.56,-2.22 c1.03,-0.92,1.55,-2.33,1.55,-4.22 c0.0,-2.01,-0.7,-3.61,-2.11,-4.8 c-1.41,-1.19,-3.36,-1.78,-5.85,-1.78 Z M266.91,88.55 c-1.6,0,-2.85,0.61,-3.76,1.84 c-0.91,1.22,-1.36,2.88,-1.36,4.96 l0,15.38 l4.95,0 l0,-14.62 c0,-1.19,0.18,-2.08,0.55,-2.67 c0.36,-0.59,0.91,-0.89,1.64,-0.89 c0.75,0,1.45,0.25,2.11,0.76 c0.65,0.51,1.21,1.22,1.67,2.15 l0,15.27 l4.95,0 l0,-21.82 l-4.95,0 l0,3.02 l-0.8,0 c-0.32,-1.04,-0.93,-1.87,-1.84,-2.47 c-0.91,-0.61,-1.96,-0.91,-3.15,-0.91 Z M292.65,88.65 c-2.06,0,-3.65,0.68,-4.78,2.04 c-1.13,1.36,-1.69,3.26,-1.69,5.71 l0,21.6 l4.91,0 l0,-21.6 c0,-1.28,0.19,-2.24,0.58,-2.85 c0.39,-0.62,0.97,-0.93,1.75,-0.93 c0.34,0,0.73,0.06,1.16,0.18 c0.44,0.12,0.85,0.28,1.24,0.47 l0.76,-3.64 c-0.58,-0.29,-1.21,-0.53,-1.89,-0.71 c-0.68,-0.18,-1.36,-0.27,-2.04,-0.27 Z M309.67,92.55 c0.68,0,1.32,0.22,1.93,0.65 c0.61,0.44,1.16,1.13,1.67,2.07 l0,10.84 c-0.53,0.44,-1.04,0.76,-1.53,0.96 c-0.48,0.21,-0.98,0.31,-1.49,0.31 c-1.02,0,-1.76,-0.32,-2.24,-0.96 c-0.47,-0.64,-0.71,-1.63,-0.71,-2.96 l0,-7.24 c0,-1.26,0.21,-2.19,0.62,-2.78 c0.41,-0.59,0.99,-0.89,1.75,-0.89 Z M312.47,92.11 c-0.32,-1.12,-0.91,-1.99,-1.78,-2.62 c-0.87,-0.63,-1.93,-0.95,-3.16,-0.95 c-1.62,0,-2.89,0.65,-3.8,1.96 c-0.91,1.31,-1.36,3.15,-1.36,5.53 l0,7.45 c0,2.4,0.62,4.26,1.87,5.58 c1.25,1.32,2.98,1.98,5.18,1.98 c0.68,0.0,1.35,-0.08,2,-0.25 c0.65,-0.17,1.27,-0.41,1.85,-0.73 l0,7.93 l4.95,0 l0,-29.09 l-4.95,0 l0,3.2 Z M312.47,92.11" fill="rgb(0,0,0)" transform="matrix(1,0,0,-1,0,200)"/>
</svg>