<?xml version="1.0" encoding="UTF-8"?>
<svg height="200" version="1.1" width="500" xmlns="http://www.w3.org/2000/svg" xmlns:xlink="http://www.w3.org/1999/xlink">
 <path d="M0,0 l500,0 l0,200 l-500,0 Z M0,0" fill="rgb(255,255,255)" transform="matrix(1,0,0,-1,0,200)"/>
 <path d="M198.05,88.58 c-1.6,0,-3.13,0.26,-4.58,0.78 c-1.45,0.52,-2.69,1.18,-3.71,1.98 l1.2,3.27 c1.07,-0.7,2.24,-1.3,3.51,-1.78 c1.27,-0.48,2.5,-0.73,3.69,-0.73 c1.04,0,1.83,0.2,2.36,0.6 c0.53,0.4,0.8,1.01,0.8,1.84 c0,0.99,-0.33,1.68,-1,2.05 c-0.67,0.38,-1.9,0.82,-3.69,1.33 c-1.84,0.51,-3.36,1.22,-4.55,2.15 c-1.19,0.92,-1.78,2.4,-1.78,4.44 c0,2.04,0.65,3.64,1.95,4.82 c1.3,1.18,3.04,1.76,5.22,1.76 c1.45,0,2.85,-0.24,4.2,-0.73 c1.35,-0.48,2.47,-1.09,3.36,-1.82 l-0.98,-3.16 c-1.04,0.65,-2.1,1.19,-3.16,1.6 c-1.07,0.41,-2.07,0.62,-3.02,0.62 c-0.92,0,-1.63,-0.21,-2.13,-0.64 c-0.5,-0.42,-0.75,-1.05,-0.75,-1.87 c0,-0.97,0.35,-1.66,1.05,-2.07 c0.7,-0.41,1.99,-0.88,3.85,-1.42 c2.01,-0.56,3.53,-1.3,4.56,-2.22 c1.03,-0.92,1.55,-2.33,1.55,-4.22 c-0.0,-2.01,-0.7,-3.61,-2.11,-4.8 c-1.41,-1.19,-3.36,-1.78,-5.85,-1.78 Z M221.0,88.55 c-2.47,0,-4.41,0.7,-5.82,2.11 c-1.41,1.41,-2.11,3.36,-2.11,5.85 l0,6.51 c0.0,2.52,0.71,4.5,2.13,5.93 c1.42,1.43,3.36,2.15,5.84,2.15 c2.45,0,4.38,-0.72,5.78,-2.15 c1.41,-1.43,2.11,-3.41,2.11,-5.93 l0,-6.51 c0,-2.5,-0.7,-4.45,-2.11,-5.85 c-1.41,-1.41,-3.35,-2.11,-5.82,-2.11 Z M221.0,92.33 c1.04,0,1.8,0.33,2.27,1 c0.47,0.67,0.71,1.76,0.71,3.29 l0,6.4 c0,1.53,-0.24,2.63,-0.71,3.31 c-0.47,0.68,-1.23,1.02,-2.27,1.02 c-1.07,0,-1.83,-0.35,-2.29,-1.04 c-0.46,-0.69,-0.69,-1.8,-0.69,-3.33 l0,-6.36 c0,-1.53,0.23,-2.62,0.69,-3.29 c0.46,-0.67,1.22,-1,2.29,-1 Z M244.16,88.55 c-2.69,0,-4.71,0.67,-6.05,2 c-1.35,1.33,-2.02,3.2,-2.02,5.6 l0,7.24 c-0.0,2.59,0.7,4.53,2.11,5.8 c1.41,1.27,3.39,1.91,5.96,1.91 c2.55,0,4.49,-0.62,5.84,-1.85 c1.35,-1.24,2.09,-3.12,2.24,-5.64 l-4.76,-0.33 c-0.07,1.48,-0.35,2.52,-0.84,3.13 c-0.48,0.61,-1.28,0.91,-2.4,0.91 c-1.19,0,-2.02,-0.3,-2.49,-0.89 c-0.47,-0.59,-0.71,-1.62,-0.71,-3.07 l0,-7.09 c0.0,-1.45,0.24,-2.47,0.73,-3.05 c0.48,-0.58,1.32,-0.87,2.51,-0.87 c1.12,0,1.91,0.27,2.38,0.82 c0.47,0.55,0.75,1.5,0.82,2.85 l4.76,-0.29 c-0.12,-2.42,-0.85,-4.22,-2.18,-5.4 c-1.33,-1.18,-3.3,-1.76,-5.89,-1.76 Z M268.6,88.55 c-2.21,0,-3.88,0.59,-5.04,1.76 c-1.15,1.18,-1.73,2.89,-1.73,5.15 l0,11.53 l-3.27,0 l0,3.75 l3.27,0 l0,7.27 l4.95,0 l0,-7.27 l5.56,0 l0,-3.75 l-5.56,0 l0,-11.27 c0,-1.16,0.23,-2.01,0.69,-2.55 c0.46,-0.53,1.08,-0.8,1.85,-0.8 c0.36,0,0.78,0.06,1.24,0.18 c0.46,0.12,0.95,0.3,1.45,0.55 l0.55,-3.67 c-0.46,-0.27,-1.05,-0.48,-1.76,-0.64 c-0.72,-0.16,-1.45,-0.24,-2.2,-0.24 Z M280.71,88.91 l0,21.82 l4.95,0 l0,-21.82 Z M283.18,114.55 c-0.97,0,-1.76,0.16,-2.36,0.49 c-0.61,0.33,-0.91,0.92,-0.91,1.76 l0,0.33 c0,0.87,0.3,1.48,0.91,1.84 c0.61,0.35,1.39,0.53,2.36,0.53 c0.97,-0.0,1.76,-0.18,2.36,-0.53 c0.61,-0.35,0.91,-0.96,0.91,-1.84 l0,-0.33 c0,-0.85,-0.3,-1.44,-0.91,-1.76 c-0.61,-0.33,-1.39,-0.49,-2.36,-0.49 Z M302.2,88.55 c-2.69,0,-4.71,0.67,-6.05,2 c-1.35,1.33,-2.02,3.2,-2.02,5.6 l0,7.24 c0,2.59,0.7,4.53,2.11,5.8 c1.41,1.27,3.39,1.91,5.96,1.91 c2.55,0,4.49,-0.62,5.84,-1.85 c1.35,-1.24,2.09,-3.12,2.24,-5.64 l-4.76,-0.33 c-0.07,1.48,-0.35,2.52,-0.84,3.13 c-0.48,0.61,-1.28,0.91,-2.4,0.91 c-1.19,0,-2.02,-0.3,-2.49,-0.89 c-0.47,-0.59,-0.71,-1.62,-0.71,-3.07 l0,-7.09 c0,-1.45,0.24,-2.47,0.73,-3.05 c0.48,-0.58,1.32,-0.87,2.51,-0.87 c1.12,0,1.91,0.27,2.38,0.82 c0.47,0.55,0.75,1.5,0.82,2.85 l4.76,-0.29 c-0.12,-2.42,-0.85,-4.22,-2.18,-5.4 c-1.33,-1.18,-3.3,-1.76,-5.89,-1.76 Z M302.2,88.55" fill="rgb(0,0,0)" transform="matrix(1,0,0,-1,0,200)"/>
</svg>