<?xml version="1.0" encoding="UTF-8"?>
<svg height="200" version="1.1" width="800" xmlns="http://www.w3.org/2000/svg" xmlns:xlink="http://www.w3.org/1999/xlink">
 <path d="M0,0 l800,0 l0,200 l-800,0 Z M0,0" fill="rgb(255,255,255)" transform="matrix(1,0,0,-1,0,200)"/>
 <path d="M309.5,72.73 l-7.18,34.45 l-6.82,-34.45 l-13.55,0 l-10,54.55 l10.82,0 l7.09,-42.82 l6.82,33.73 l11.09,0 l7.36,-33.27 l6.82,42.36 l10.36,0 l-10.09,-54.55 Z M346.68,72.73 l0,72.73 l12.36,0 l0,-25.64 l2,0 c1.03,2.61,2.68,4.65,4.95,6.14 c2.27,1.48,4.8,2.23,7.59,2.23 c3.94,0,7.05,-1.5,9.32,-4.5 c2.27,-3.0,3.41,-7.14,3.41,-12.41 l0,-38.55 l-12.36,0 l0,36.55 c0,3.03,-0.45,5.29,-1.36,6.77 c-0.91,1.48,-2.3,2.23,-4.18,2.23 c-1.88,-0.0,-3.61,-0.62,-5.18,-1.86 c-1.58,-1.24,-2.97,-3.05,-4.18,-5.41 l0,-38.27 Z M407.5,72.73 l0,54.55 l12.36,0 l0,-54.55 Z M413.68,136.82 c-2.42,0,-4.39,0.41,-5.91,1.23 c-1.52,0.82,-2.27,2.29,-2.27,4.41 l0,0.82 c0,2.18,0.76,3.71,2.27,4.59 c1.52,0.88,3.48,1.32,5.91,1.32 c2.42,0,4.39,-0.44,5.91,-1.32 c1.52,-0.88,2.27,-2.41,2.27,-4.59 l0,-0.82 c0,-2.12,-0.76,-3.59,-2.27,-4.41 c-1.52,-0.82,-3.48,-1.23,-5.91,-1.23 Z M460.68,72.09 c-5.15,0,-9.14,1.7,-11.95,5.09 c-2.82,3.39,-4.23,8.15,-4.23,14.27 l0,54 l12.27,0 l0,-54 c0.0,-3.21,0.48,-5.59,1.45,-7.14 c0.97,-1.55,2.42,-2.32,4.36,-2.32 c0.85,0,1.82,0.15,2.91,0.45 c1.09,0.3,2.12,0.7,3.09,1.18 l1.91,-9.09 c-1.45,-0.73,-3.03,-1.32,-4.73,-1.77 c-1.7,-0.45,-3.39,-0.68,-5.09,-0.68 Z M524.5,85 c-1.27,-4.36,-3.64,-7.65,-7.09,-9.86 c-3.45,-2.21,-7.73,-3.32,-12.82,-3.32 c-6.12,0,-10.92,1.71,-14.41,5.14 c-3.48,3.42,-5.23,8.14,-5.23,14.14 l0,17.82 c0,6.0,1.77,10.71,5.32,14.14 c3.55,3.42,8.41,5.14,14.59,5.14 c6.12,0,10.94,-1.76,14.45,-5.27 c3.52,-3.52,5.27,-8.36,5.27,-14.55 l0,-10.64 l-27.27,0 l0,-6.64 c0,-3.88,0.62,-6.61,1.86,-8.18 c1.24,-1.58,3.32,-2.36,6.23,-2.36 c2.55,0,4.44,0.55,5.68,1.64 c1.24,1.09,2.29,3.0,3.14,5.73 Z M497.32,108.82 l0,-3.64 l14.91,0 l0,3.09 c0,4.06,-0.58,6.97,-1.73,8.73 c-1.15,1.76,-3.06,2.64,-5.73,2.64 c-2.67,0,-4.58,-0.83,-5.73,-2.5 c-1.15,-1.67,-1.73,-4.44,-1.73,-8.32 Z M497.32,108.82" fill="rgb(0,0,0)" transform="matrix(1,0,0,-1,0,200)"/>
</svg>