<?xml version="1.0" encoding="UTF-8"?>
<svg height="200" version="1.1" width="800" xmlns="http://www.w3.org/2000/svg" xmlns:xlink="http://www.w3.org/1999/xlink">
 <path d="M0,0 l800,0 l0,200 l-800,0 Z M0,0" fill="rgb(255,255,255)" transform="matrix(1,0,0,-1,0,200)"/>
 <path d="M343.84,86.14 l-3.59,17.23 l-3.41,-17.23 l-6.77,0 l-5,27.27 l5.41,0 l3.55,-21.41 l3.41,16.86 l5.55,0 l3.68,-16.64 l3.41,21.18 l5.18,0 l-5.05,-27.27 Z M364.07,86.14 l0,27.27 l6.18,0 l0,-27.27 Z M367.16,118.18 c-1.21,0,-2.2,0.2,-2.95,0.61 c-0.76,0.41,-1.14,1.14,-1.14,2.2 l0,0.41 c0,1.09,0.38,1.86,1.14,2.3 c0.76,0.44,1.74,0.66,2.95,0.66 c1.21,0,2.2,-0.22,2.95,-0.66 c0.76,-0.44,1.14,-1.2,1.14,-2.3 l0,-0.41 c0,-1.06,-0.38,-1.8,-1.14,-2.2 c-0.76,-0.41,-1.74,-0.61,-2.95,-0.61 Z M392.7,85.68 c-2.76,0,-4.86,0.73,-6.3,2.2 c-1.44,1.47,-2.16,3.61,-2.16,6.43 l0,14.41 l-4.09,0 l0,4.68 l4.09,0 l0,9.09 l6.18,0 l0,-9.09 l6.95,0 l0,-4.68 l-6.95,0 l0,-14.09 c-0.0,-1.45,0.29,-2.52,0.86,-3.18 c0.58,-0.67,1.35,-1,2.32,-1 c0.45,0,0.97,0.08,1.55,0.23 c0.58,0.15,1.18,0.38,1.82,0.68 l0.68,-4.59 c-0.58,-0.33,-1.31,-0.6,-2.2,-0.8 c-0.89,-0.2,-1.81,-0.3,-2.75,-0.3 Z M406.2,86.14 l0,36.36 l6.18,0 l0,-12.82 l1,0 c0.52,1.3,1.34,2.33,2.48,3.07 c1.14,0.74,2.4,1.11,3.8,1.11 c1.97,0,3.52,-0.75,4.66,-2.25 c1.14,-1.5,1.7,-3.57,1.7,-6.2 l0,-19.27 l-6.18,0 l0,18.27 c0,1.52,-0.23,2.64,-0.68,3.39 c-0.45,0.74,-1.15,1.11,-2.09,1.11 c-0.94,0,-1.8,-0.31,-2.59,-0.93 c-0.79,-0.62,-1.48,-1.52,-2.09,-2.7 l0,-19.14 Z M436.61,86.14 l0,27.27 l6.18,0 l0,-27.27 Z M439.7,118.18 c-1.21,0,-2.2,0.2,-2.95,0.61 c-0.76,0.41,-1.14,1.14,-1.14,2.2 l0,0.41 c0,1.09,0.38,1.86,1.14,2.3 c0.76,0.44,1.74,0.66,2.95,0.66 c1.21,0,2.2,-0.22,2.95,-0.66 c0.76,-0.44,1.14,-1.2,1.14,-2.3 l0,-0.41 c-0.0,-1.06,-0.38,-1.8,-1.14,-2.2 c-0.76,-0.41,-1.74,-0.61,-2.95,-0.61 Z M453.39,86.14 l0,27.27 l6.18,0 l0,-3.73 l1,0 c0.48,1.3,1.3,2.33,2.43,3.07 c1.14,0.74,2.42,1.11,3.84,1.11 c1.94,0,3.48,-0.77,4.64,-2.3 c1.15,-1.53,1.73,-3.58,1.73,-6.16 l0,-19.27 l-6.18,0 l0,18.27 c0,1.48,-0.23,2.61,-0.68,3.36 c-0.45,0.76,-1.14,1.14,-2.05,1.14 c-0.94,0,-1.82,-0.33,-2.64,-0.98 c-0.82,-0.65,-1.52,-1.54,-2.09,-2.66 l0,-19.14 Z M453.39,86.14" fill="rgb(0,0,0)" transform="matrix(1,0,0,-1,0,200)"/>
</svg>