<?xml version="1.0" encoding="UTF-8"?>
<svg height="200" version="1.1" width="800" xmlns="http://www.w3.org/2000/svg" xmlns:xlink="http://www.w3.org/1999/xlink">
 <path d="M0,0 l800,0 l0,200 l-800,0 Z M0,0" fill="rgb(255,255,255)" transform="matrix(1,0,0,-1,0,200)"/>
 <path d="M281,71.91 c-3.88,0,-7.5,0.55,-10.86,1.64 c-3.36,1.09,-6.17,2.73,-8.41,4.91 l0,67.0 l12.36,0 l0,-25.64 l2,0 c0.79,2.67,2.23,4.73,4.32,6.18 c2.09,1.45,4.65,2.18,7.68,2.18 c4.24,0,7.52,-1.61,9.82,-4.82 c2.3,-3.21,3.45,-7.82,3.45,-13.82 l0,-18.73 c0,-6.06,-1.74,-10.73,-5.23,-14 c-3.48,-3.27,-8.53,-4.91,-15.14,-4.91 Z M281.64,81.18 c2.61,0,4.48,0.76,5.64,2.27 c1.15,1.52,1.73,4.03,1.73,7.55 l0,18 c0,3.27,-0.52,5.64,-1.55,7.09 c-1.03,1.45,-2.52,2.18,-4.45,2.18 c-1.7,-0.0,-3.3,-0.52,-4.82,-1.55 c-1.52,-1.03,-2.88,-2.67,-4.09,-4.91 l0,-28.18 c0.85,-0.79,1.89,-1.39,3.14,-1.82 c1.24,-0.42,2.71,-0.64,4.41,-0.64 Z M319.27,72.73 l0,54.55 l12.36,0 l0,-7.45 l2,0 c0.79,2.97,2.21,5.11,4.27,6.41 c2.06,1.3,4.24,1.95,6.55,1.95 c3.64,0,6.36,-1.24,8.18,-3.73 c1.82,-2.48,2.73,-5.97,2.73,-10.45 l0,-9.91 l-11.27,0 l0,8.18 c0,1.82,-0.35,3.27,-1.05,4.36 c-0.7,1.09,-1.8,1.64,-3.32,1.64 c-1.39,-0.0,-2.85,-0.67,-4.36,-2 c-1.52,-1.33,-2.76,-3.06,-3.73,-5.18 l0,-38.36 Z M389.82,71.82 c-6.18,0,-11.03,1.76,-14.55,5.27 c-3.52,3.52,-5.27,8.39,-5.27,14.64 l0,16.27 c0,6.3,1.77,11.24,5.32,14.82 c3.55,3.58,8.41,5.36,14.59,5.36 c6.12,0,10.94,-1.79,14.45,-5.36 c3.52,-3.58,5.27,-8.52,5.27,-14.82 l0,-16.27 c0,-6.24,-1.76,-11.12,-5.27,-14.64 c-3.52,-3.52,-8.36,-5.27,-14.55,-5.27 Z M389.82,81.27 c2.61,0,4.5,0.83,5.68,2.5 c1.18,1.67,1.77,4.41,1.77,8.23 l0,16 c0,3.82,-0.59,6.58,-1.77,8.27 c-1.18,1.7,-3.08,2.55,-5.68,2.55 c-2.67,0,-4.58,-0.86,-5.73,-2.59 c-1.15,-1.73,-1.73,-4.5,-1.73,-8.32 l0,-15.91 c0,-3.82,0.58,-6.56,1.73,-8.23 c1.15,-1.67,3.06,-2.5,5.73,-2.5 Z M461.55,72.73 l-7.18,34.45 l-6.82,-34.45 l-13.55,0 l-10,54.55 l10.82,0 l7.09,-42.82 l6.82,33.73 l11.09,0 l7.36,-33.27 l6.82,42.36 l10.36,0 l-10.09,-54.55 Z M498.73,72.73 l0,54.55 l12.36,0 l0,-7.45 l2,0 c0.97,2.61,2.59,4.65,4.86,6.14 c2.27,1.48,4.83,2.23,7.68,2.23 c3.88,0,6.97,-1.53,9.27,-4.59 c2.3,-3.06,3.45,-7.17,3.45,-12.32 l0,-38.55 l-12.36,0 l0,36.55 c0,2.97,-0.45,5.21,-1.36,6.73 c-0.91,1.52,-2.27,2.27,-4.09,2.27 c-1.88,-0.0,-3.64,-0.65,-5.27,-1.95 c-1.64,-1.3,-3.03,-3.08,-4.18,-5.32 l0,-38.27 Z M498.73,72.73" fill="rgb(0,0,0)" transform="matrix(1,0,0,-1,0,200)"/>
</svg>