<?xml version="1.0" encoding="UTF-8"?>
<svg height="200" version="1.1" width="800" xmlns="http://www.w3.org/2000/svg" xmlns:xlink="http://www.w3.org/1999/xlink">
 <path d="M0,0 l800,0 l0,200 l-800,0 Z M0,0" fill="rgb(255,255,255)" transform="matrix(1,0,0,-1,0,200)"/>
 <path d="M290.32,80.55 c1.88,0,3.65,0.39,5.32,1.18 c1.67,0.79,3.08,2.15,4.23,4.09 l0,9.64 l-9.82,0 c-1.76,0,-3.17,-0.53,-4.23,-1.59 c-1.06,-1.06,-1.59,-2.98,-1.59,-5.77 c0,-2.42,0.5,-4.29,1.5,-5.59 c1.0,-1.3,2.53,-1.95,4.59,-1.95 Z M287.32,71.82 c-4.61,0,-8.21,1.38,-10.82,4.14 c-2.61,2.76,-3.91,6.59,-3.91,11.5 c0,4.91,1.39,8.71,4.18,11.41 c2.79,2.7,6.58,4.05,11.36,4.05 l11.73,0 l0,8.45 c0,2.42,-0.64,4.36,-1.91,5.82 c-1.27,1.45,-3.12,2.18,-5.55,2.18 c-2.55,0.0,-4.41,-0.65,-5.59,-1.95 c-1.18,-1.3,-2.11,-3.8,-2.77,-7.5 l-10.55,2.18 c0.97,5.58,3.17,9.65,6.59,12.23 c3.42,2.58,7.86,3.86,13.32,3.86 c5.88,0,10.47,-1.27,13.77,-3.82 c3.3,-2.55,4.95,-6.64,4.95,-12.27 l0,-24.45 c0,-2.79,0.67,-4.56,2,-5.32 c1.33,-0.76,3.39,-0.83,6.18,-0.23 l0,-9.45 c-4.12,-0.79,-7.5,-0.62,-10.14,0.5 c-2.64,1.12,-4.35,3.53,-5.14,7.23 l-2,0 c-1.52,-2.55,-3.64,-4.61,-6.36,-6.18 c-2.73,-1.58,-5.85,-2.36,-9.36,-2.36 Z M354.59,81.82 c1.7,0,3.3,0.55,4.82,1.64 c1.52,1.09,2.91,2.82,4.18,5.18 l0,27.09 c-1.33,1.09,-2.61,1.89,-3.82,2.41 c-1.21,0.52,-2.45,0.77,-3.73,0.77 c-2.55,0,-4.41,-0.8,-5.59,-2.41 c-1.18,-1.61,-1.77,-4.08,-1.77,-7.41 l0,-18.09 c0,-3.15,0.52,-5.47,1.55,-6.95 c1.03,-1.48,2.48,-2.23,4.36,-2.23 Z M361.59,80.73 c-0.79,-2.79,-2.27,-4.97,-4.45,-6.55 c-2.18,-1.58,-4.82,-2.36,-7.91,-2.36 c-4.06,0,-7.23,1.64,-9.5,4.91 c-2.27,3.27,-3.41,7.88,-3.41,13.82 l0,18.64 c0,6.0,1.56,10.65,4.68,13.95 c3.12,3.3,7.44,4.95,12.95,4.95 c1.7,0,3.36,-0.21,5,-0.64 c1.64,-0.42,3.18,-1.03,4.64,-1.82 l0,19.82 l12.36,0 l0,-72.73 l-12.36,0 l0,8 Z M406.68,71.82 c-4.0,0,-7.14,1.53,-9.41,4.59 c-2.27,3.06,-3.41,7.2,-3.41,12.41 l0,38.45 l12.36,0 l0,-36.55 c0,-2.97,0.45,-5.2,1.36,-6.68 c0.91,-1.48,2.27,-2.23,4.09,-2.23 c1.88,0,3.64,0.64,5.27,1.91 c1.64,1.27,3.03,3.06,4.18,5.36 l0,38.18 l12.36,0 l0,-54.55 l-12.36,0 l0,7.55 l-2,0 c-0.79,-2.61,-2.32,-4.67,-4.59,-6.18 c-2.27,-1.52,-4.89,-2.27,-7.86,-2.27 Z M471.05,72.09 c-5.15,0,-9.14,1.7,-11.95,5.09 c-2.82,3.39,-4.23,8.15,-4.23,14.27 l0,54 l12.27,0 l0,-54 c0.0,-3.21,0.48,-5.59,1.45,-7.14 c0.97,-1.55,2.42,-2.32,4.36,-2.32 c0.85,0,1.82,0.15,2.91,0.45 c1.09,0.3,2.12,0.7,3.09,1.18 l1.91,-9.09 c-1.45,-0.73,-3.03,-1.32,-4.73,-1.77 c-1.7,-0.45,-3.39,-0.68,-5.09,-0.68 Z M519.05,71.82 c-5.52,0,-9.71,1.47,-12.59,4.41 c-2.88,2.94,-4.32,7.23,-4.32,12.86 l0,28.82 l-8.18,0 l0,9.36 l8.18,0 l0,18.18 l12.36,0 l0,-18.18 l13.91,0 l0,-9.36 l-13.91,0 l0,-28.18 c0,-2.91,0.58,-5.03,1.73,-6.36 c1.15,-1.33,2.7,-2,4.64,-2 c0.91,0,1.94,0.15,3.09,0.45 c1.15,0.3,2.36,0.76,3.64,1.36 l1.36,-9.18 c-1.15,-0.67,-2.62,-1.2,-4.41,-1.59 c-1.79,-0.39,-3.62,-0.59,-5.5,-0.59 Z M519.05,71.82" fill="rgb(0,0,0)" transform="matrix(1,0,0,-1,0,200)"/>
</svg>