<?xml version="1.0" encoding="UTF-8"?>
<svg height="200" version="1.1" width="800" xmlns="http://www.w3.org/2000/svg" xmlns:xlink="http://www.w3.org/1999/xlink">
 <path d="M0,0 l800,0 l0,200 l-800,0 Z M0,0" fill="rgb(255,255,255)" transform="matrix(1,0,0,-1,0,200)"/>
 <path d="M241.41,71.82 c-6.73,0,-11.77,1.67,-15.14,5 c-3.36,3.33,-5.05,8.0,-5.05,14 l0,18.09 c0,6.48,1.76,11.32,5.27,14.5 c3.52,3.18,8.48,4.77,14.91,4.77 c6.36,0,11.23,-1.55,14.59,-4.64 c3.36,-3.09,5.23,-7.79,5.59,-14.09 l-11.91,-0.82 c-0.18,3.7,-0.88,6.3,-2.09,7.82 c-1.21,1.52,-3.21,2.27,-6,2.27 c-2.97,0,-5.05,-0.74,-6.23,-2.23 c-1.18,-1.48,-1.77,-4.05,-1.77,-7.68 l0,-17.73 c-0.0,-3.64,0.61,-6.18,1.82,-7.64 c1.21,-1.45,3.3,-2.18,6.27,-2.18 c2.79,0,4.77,0.68,5.95,2.05 c1.18,1.36,1.86,3.74,2.05,7.14 l11.91,-0.73 c-0.3,-6.06,-2.12,-10.56,-5.45,-13.5 c-3.33,-2.94,-8.24,-4.41,-14.73,-4.41 Z M298.59,71.82 c-6.18,0,-11.03,1.76,-14.55,5.27 c-3.52,3.52,-5.27,8.39,-5.27,14.64 l0,16.27 c0,6.3,1.77,11.24,5.32,14.82 c3.55,3.58,8.41,5.36,14.59,5.36 c6.12,0,10.94,-1.79,14.45,-5.36 c3.52,-3.58,5.27,-8.52,5.27,-14.82 l0,-16.27 c0,-6.24,-1.76,-11.12,-5.27,-14.64 c-3.52,-3.52,-8.36,-5.27,-14.55,-5.27 Z M298.59,81.27 c2.61,0,4.5,0.83,5.68,2.5 c1.18,1.67,1.77,4.41,1.77,8.23 l0,16 c0,3.82,-0.59,6.58,-1.77,8.27 c-1.18,1.7,-3.08,2.55,-5.68,2.55 c-2.67,0,-4.58,-0.86,-5.73,-2.59 c-1.15,-1.73,-1.73,-4.5,-1.73,-8.32 l0,-15.91 c0,-3.82,0.58,-6.56,1.73,-8.23 c1.15,-1.67,3.06,-2.5,5.73,-2.5 Z M336.32,72.73 l0,54.55 l12.36,0 l0,-7.45 l2,0 c0.97,2.61,2.59,4.65,4.86,6.14 c2.27,1.48,4.83,2.23,7.68,2.23 c3.88,0,6.97,-1.53,9.27,-4.59 c2.3,-3.06,3.45,-7.17,3.45,-12.32 l0,-38.55 l-12.36,0 l0,36.55 c0,2.97,-0.45,5.21,-1.36,6.73 c-0.91,1.52,-2.27,2.27,-4.09,2.27 c-1.88,-0.0,-3.64,-0.65,-5.27,-1.95 c-1.64,-1.3,-3.03,-3.08,-4.18,-5.32 l0,-38.27 Z M417.59,71.82 c-5.52,0,-9.71,1.47,-12.59,4.41 c-2.88,2.94,-4.32,7.23,-4.32,12.86 l0,28.82 l-8.18,0 l0,9.36 l8.18,0 l0,18.18 l12.36,0 l0,-18.18 l13.91,0 l0,-9.36 l-13.91,0 l0,-28.18 c0,-2.91,0.58,-5.03,1.73,-6.36 c1.15,-1.33,2.7,-2,4.64,-2 c0.91,0,1.94,0.15,3.09,0.45 c1.15,0.3,2.36,0.76,3.64,1.36 l1.36,-9.18 c-1.15,-0.67,-2.62,-1.2,-4.41,-1.59 c-1.79,-0.39,-3.62,-0.59,-5.5,-0.59 Z M444.59,72.73 l0,54.55 l12.36,0 l0,-7.45 l2,0 c0.79,2.97,2.21,5.11,4.27,6.41 c2.06,1.3,4.24,1.95,6.55,1.95 c3.64,0,6.36,-1.24,8.18,-3.73 c1.82,-2.48,2.73,-5.97,2.73,-10.45 l0,-9.91 l-11.27,0 l0,8.18 c0,1.82,-0.35,3.27,-1.05,4.36 c-0.7,1.09,-1.8,1.64,-3.32,1.64 c-1.39,-0.0,-2.85,-0.67,-4.36,-2 c-1.52,-1.33,-2.76,-3.06,-3.73,-5.18 l0,-38.36 Z M515.14,71.82 c-6.18,0,-11.03,1.76,-14.55,5.27 c-3.52,3.52,-5.27,8.39,-5.27,14.64 l0,16.27 c0,6.3,1.77,11.24,5.32,14.82 c3.55,3.58,8.41,5.36,14.59,5.36 c6.12,0,10.94,-1.79,14.45,-5.36 c3.52,-3.58,5.27,-8.52,5.27,-14.82 l0,-16.27 c0,-6.24,-1.76,-11.12,-5.27,-14.64 c-3.52,-3.52,-8.36,-5.27,-14.55,-5.27 Z M515.14,81.27 c2.61,0,4.5,0.83,5.68,2.5 c1.18,1.67,1.77,4.41,1.77,8.23 l0,16 c0,3.82,-0.59,6.58,-1.77,8.27 c-1.18,1.7,-3.08,2.55,-5.68,2.55 c-2.67,0,-4.58,-0.86,-5.73,-2.59 c-1.15,-1.73,-1.73,-4.5,-1.73,-8.32 l0,-15.91 c0,-3.82,0.58,-6.56,1.73,-8.23 c1.15,-1.67,3.06,-2.5,5.73,-2.5 Z M572.5,72.09 c-5.15,0,-9.14,1.7,-11.95,5.09 c-2.82,3.39,-4.23,8.15,-4.23,14.27 l0,54 l12.27,0 l0,-54 c0,-3.21,0.48,-5.59,1.45,-7.14 c0.97,-1.55,2.42,-2.32,4.36,-2.32 c0.85,0,1.82,0.15,2.91,0.45 c1.09,0.3,2.12,0.7,3.09,1.18 l1.91,-9.09 c-1.45,-0.73,-3.03,-1.32,-4.73,-1.77 c-1.7,-0.45,-3.39,-0.68,-5.09,-0.68 Z M572.5,72.09" fill="rgb(0,0,0)" transform="matrix(1,0,0,-1,0,200)"/>
</svg>