<?xml version="1.0" encoding="UTF-8"?>
<svg height="200" version="1.1" width="800" xmlns="http://www.w3.org/2000/svg" xmlns:xlink="http://www.w3.org/1999/xlink">
 <path d="M0,0 l800,0 l0,200 l-800,0 Z M0,0" fill="rgb(255,255,255)" transform="matrix(1,0,0,-1,0,200)"/>
 <path d="M340.95,85.68 c-3.36,0,-5.89,0.83,-7.57,2.5 c-1.68,1.67,-2.52,4.0,-2.52,7 l0,9.05 c0,3.24,0.88,5.66,2.64,7.25 c1.76,1.59,4.24,2.39,7.45,2.39 c3.18,0,5.61,-0.77,7.3,-2.32 c1.68,-1.55,2.61,-3.89,2.8,-7.05 l-5.95,-0.41 c-0.09,1.85,-0.44,3.15,-1.05,3.91 c-0.61,0.76,-1.61,1.14,-3,1.14 c-1.48,0,-2.52,-0.37,-3.11,-1.11 c-0.59,-0.74,-0.89,-2.02,-0.89,-3.84 l0,-8.86 c0,-1.82,0.3,-3.09,0.91,-3.82 c0.61,-0.73,1.65,-1.09,3.14,-1.09 c1.39,0,2.39,0.34,2.98,1.02 c0.59,0.68,0.93,1.87,1.02,3.57 l5.95,-0.36 c-0.15,-3.03,-1.06,-5.28,-2.73,-6.75 c-1.67,-1.47,-4.12,-2.2,-7.36,-2.2 Z M359.64,86.14 l0,27.27 l6.18,0 l0,-3.73 l1,0 c0.39,1.48,1.11,2.55,2.14,3.2 c1.03,0.65,2.12,0.98,3.27,0.98 c1.82,0,3.18,-0.62,4.09,-1.86 c0.91,-1.24,1.36,-2.98,1.36,-5.23 l0,-4.95 l-5.64,0 l0,4.09 c0,0.91,-0.17,1.64,-0.52,2.18 c-0.35,0.55,-0.9,0.82,-1.66,0.82 c-0.7,0,-1.42,-0.33,-2.18,-1 c-0.76,-0.67,-1.38,-1.53,-1.86,-2.59 l0,-19.18 Z M394.91,85.68 c-3.09,0,-5.52,0.88,-7.27,2.64 c-1.76,1.76,-2.64,4.2,-2.64,7.32 l0,8.14 c0,3.15,0.89,5.62,2.66,7.41 c1.77,1.79,4.2,2.68,7.3,2.68 c3.06,0,5.47,-0.89,7.23,-2.68 c1.76,-1.79,2.64,-4.26,2.64,-7.41 l0,-8.14 c0,-3.12,-0.88,-5.56,-2.64,-7.32 c-1.76,-1.76,-4.18,-2.64,-7.27,-2.64 Z M394.91,90.41 c1.3,0,2.25,0.42,2.84,1.25 c0.59,0.83,0.89,2.2,0.89,4.11 l0,8 c0,1.91,-0.3,3.29,-0.89,4.14 c-0.59,0.85,-1.54,1.27,-2.84,1.27 c-1.33,0,-2.29,-0.43,-2.86,-1.3 c-0.58,-0.86,-0.86,-2.25,-0.86,-4.16 l0,-7.95 c-0.0,-1.91,0.29,-3.28,0.86,-4.11 c0.58,-0.83,1.53,-1.25,2.86,-1.25 Z M430.77,86.14 l-3.59,17.23 l-3.41,-17.23 l-6.77,0 l-5,27.27 l5.41,0 l3.55,-21.41 l3.41,16.86 l5.55,0 l3.68,-16.64 l3.41,21.18 l5.18,0 l-5.05,-27.27 Z M458.5,90.68 c0.85,0,1.65,0.27,2.41,0.82 c0.76,0.55,1.45,1.41,2.09,2.59 l0,13.55 c-0.67,0.55,-1.3,0.95,-1.91,1.2 c-0.61,0.26,-1.23,0.39,-1.86,0.39 c-1.27,0,-2.2,-0.4,-2.8,-1.2 c-0.59,-0.8,-0.89,-2.04,-0.89,-3.7 l0,-9.05 c-0.0,-1.58,0.26,-2.73,0.77,-3.48 c0.52,-0.74,1.24,-1.11,2.18,-1.11 Z M462,90.14 c-0.39,-1.39,-1.14,-2.48,-2.23,-3.27 c-1.09,-0.79,-2.41,-1.18,-3.95,-1.18 c-2.03,0,-3.61,0.82,-4.75,2.45 c-1.14,1.64,-1.7,3.94,-1.7,6.91 l0,9.32 c0,3.0,0.78,5.33,2.34,6.98 c1.56,1.65,3.72,2.48,6.48,2.48 c0.85,-0.0,1.68,-0.11,2.5,-0.32 c0.82,-0.21,1.59,-0.52,2.32,-0.91 l0,9.91 l6.18,0 l0,-36.36 l-6.18,0 l0,4 Z M462,90.14" fill="rgb(0,0,0)" transform="matrix(1,0,0,-1,0,200)"/>
</svg>