<?xml version="1.0" encoding="UTF-8"?>
<svg height="200" version="1.1" width="800" xmlns="http://www.w3.org/2000/svg" xmlns:xlink="http://www.w3.org/1999/xlink">
 <path d="M0,0 l800,0 l0,200 l-800,0 Z M0,0" fill="rgb(255,255,255)" transform="matrix(1,0,0,-1,0,200)"/>
 <path d="M330.73,90.68 c0.85,0,1.65,0.27,2.41,0.82 c0.76,0.55,1.45,1.41,2.09,2.59 l0,13.55 c-0.67,0.55,-1.3,0.95,-1.91,1.2 c-0.61,0.26,-1.23,0.39,-1.86,0.39 c-1.27,0,-2.2,-0.4,-2.8,-1.2 c-0.59,-0.8,-0.89,-2.04,-0.89,-3.7 l0,-9.05 c0,-1.58,0.26,-2.73,0.77,-3.48 c0.52,-0.74,1.24,-1.11,2.18,-1.11 Z M334.23,90.14 c-0.39,-1.39,-1.14,-2.48,-2.23,-3.27 c-1.09,-0.79,-2.41,-1.18,-3.95,-1.18 c-2.03,0,-3.61,0.82,-4.75,2.45 c-1.14,1.64,-1.7,3.94,-1.7,6.91 l0,9.32 c0,3.0,0.78,5.33,2.34,6.98 c1.56,1.65,3.72,2.48,6.48,2.48 c0.85,-0.0,1.68,-0.11,2.5,-0.32 c0.82,-0.21,1.59,-0.52,2.32,-0.91 l0,9.91 l6.18,0 l0,-36.36 l-6.18,0 l0,4 Z M360.27,85.68 c-3.09,0,-5.52,0.88,-7.27,2.64 c-1.76,1.76,-2.64,4.2,-2.64,7.32 l0,8.14 c0,3.15,0.89,5.62,2.66,7.41 c1.77,1.79,4.2,2.68,7.3,2.68 c3.06,0,5.47,-0.89,7.23,-2.68 c1.76,-1.79,2.64,-4.26,2.64,-7.41 l0,-8.14 c0,-3.12,-0.88,-5.56,-2.64,-7.32 c-1.76,-1.76,-4.18,-2.64,-7.27,-2.64 Z M360.27,90.41 c1.3,0,2.25,0.42,2.84,1.25 c0.59,0.83,0.89,2.2,0.89,4.11 l0,8 c0,1.91,-0.3,3.29,-0.89,4.14 c-0.59,0.85,-1.54,1.27,-2.84,1.27 c-1.33,0,-2.29,-0.43,-2.86,-1.3 c-0.58,-0.86,-0.86,-2.25,-0.86,-4.16 l0,-7.95 c0,-1.91,0.29,-3.28,0.86,-4.11 c0.58,-0.83,1.53,-1.25,2.86,-1.25 Z M385.55,85.68 c-2.0,0,-3.57,0.77,-4.7,2.3 c-1.14,1.53,-1.7,3.6,-1.7,6.2 l0,19.23 l6.18,0 l0,-18.27 c0,-1.48,0.23,-2.6,0.68,-3.34 c0.45,-0.74,1.14,-1.11,2.05,-1.11 c0.94,0,1.82,0.32,2.64,0.95 c0.82,0.64,1.52,1.53,2.09,2.68 l0,19.09 l6.18,0 l0,-27.27 l-6.18,0 l0,3.77 l-1,0 c-0.39,-1.3,-1.16,-2.33,-2.3,-3.09 c-1.14,-0.76,-2.45,-1.14,-3.93,-1.14 Z M417.55,85.73 c-1.94,0,-3.75,0.27,-5.43,0.82 c-1.68,0.55,-3.08,1.36,-4.2,2.45 l0,33.5 l6.18,0 l0,-12.82 l1,0 c0.39,1.33,1.11,2.36,2.16,3.09 c1.05,0.73,2.33,1.09,3.84,1.09 c2.12,0,3.76,-0.8,4.91,-2.41 c1.15,-1.61,1.73,-3.91,1.73,-6.91 l0,-9.36 c0,-3.03,-0.87,-5.36,-2.61,-7 c-1.74,-1.64,-4.27,-2.45,-7.57,-2.45 Z M417.86,90.36 c1.3,0,2.24,0.38,2.82,1.14 c0.58,0.76,0.86,2.02,0.86,3.77 l0,9 c0,1.64,-0.26,2.82,-0.77,3.55 c-0.52,0.73,-1.26,1.09,-2.23,1.09 c-0.85,0,-1.65,-0.26,-2.41,-0.77 c-0.76,-0.52,-1.44,-1.33,-2.05,-2.45 l0,-14.09 c0.42,-0.39,0.95,-0.7,1.57,-0.91 c0.62,-0.21,1.36,-0.32,2.2,-0.32 Z M446.5,85.82 c-2.58,0,-4.57,0.85,-5.98,2.55 c-1.41,1.7,-2.11,4.08,-2.11,7.14 l0,27 l6.14,0 l0,-27 c0,-1.61,0.24,-2.8,0.73,-3.57 c0.48,-0.77,1.21,-1.16,2.18,-1.16 c0.42,0,0.91,0.08,1.45,0.23 c0.55,0.15,1.06,0.35,1.55,0.59 l0.95,-4.55 c-0.73,-0.36,-1.52,-0.66,-2.36,-0.89 c-0.85,-0.23,-1.7,-0.34,-2.55,-0.34 Z M478.41,92.27 c-0.64,-2.18,-1.82,-3.83,-3.55,-4.93 c-1.73,-1.11,-3.86,-1.66,-6.41,-1.66 c-3.06,0,-5.46,0.86,-7.2,2.57 c-1.74,1.71,-2.61,4.07,-2.61,7.07 l0,8.91 c0,3.0,0.89,5.36,2.66,7.07 c1.77,1.71,4.2,2.57,7.3,2.57 c3.06,0,5.47,-0.88,7.23,-2.64 c1.76,-1.76,2.64,-4.18,2.64,-7.27 l0,-5.32 l-13.64,0 l0,-3.32 c0,-1.94,0.31,-3.3,0.93,-4.09 c0.62,-0.79,1.66,-1.18,3.11,-1.18 c1.27,0,2.22,0.27,2.84,0.82 c0.62,0.55,1.14,1.5,1.57,2.86 Z M464.82,104.18 l0,-1.82 l7.45,0 l0,1.55 c0,2.03,-0.29,3.48,-0.86,4.36 c-0.58,0.88,-1.53,1.32,-2.86,1.32 c-1.33,0,-2.29,-0.42,-2.86,-1.25 c-0.58,-0.83,-0.86,-2.22,-0.86,-4.16 Z M464.82,104.18" fill="rgb(0,0,0)" transform="matrix(1,0,0,-1,0,200)"/>
</svg>