<?xml version="1.0" encoding="UTF-8"?>
<svg height="200" version="1.1" width="800" xmlns="http://www.w3.org/2000/svg" xmlns:xlink="http://www.w3.org/1999/xlink">
 <path d="M0,0 l800,0 l0,200 l-800,0 Z M0,0" fill="rgb(255,255,255)" transform="matrix(1,0,0,-1,0,200)"/>
 <path d="M350.64,92.27 c-0.64,-2.18,-1.82,-3.83,-3.55,-4.93 c-1.73,-1.11,-3.86,-1.66,-6.41,-1.66 c-3.06,0,-5.46,0.86,-7.2,2.57 c-1.74,1.71,-2.61,4.07,-2.61,7.07 l0,8.91 c0,3.0,0.89,5.36,2.66,7.07 c1.77,1.71,4.2,2.57,7.3,2.57 c3.06,0,5.47,-0.88,7.23,-2.64 c1.76,-1.76,2.64,-4.18,2.64,-7.27 l0,-5.32 l-13.64,0 l0,-3.32 c0,-1.94,0.31,-3.3,0.93,-4.09 c0.62,-0.79,1.66,-1.18,3.11,-1.18 c1.27,0,2.22,0.27,2.84,0.82 c0.62,0.55,1.14,1.5,1.57,2.86 Z M337.05,104.18 l0,-1.82 l7.45,0 l0,1.55 c0,2.03,-0.29,3.48,-0.86,4.36 c-0.58,0.88,-1.53,1.32,-2.86,1.32 c-1.33,0,-2.29,-0.42,-2.86,-1.25 c-0.58,-0.83,-0.86,-2.22,-0.86,-4.16 Z M365.82,105.82 l0,-19.68 l-6.18,0 l0,27.27 l6.18,0 l0,-3.73 l1,0 c0.39,1.27,1.1,2.29,2.11,3.05 c1.02,0.76,2.14,1.14,3.39,1.14 c1.18,0,2.2,-0.37,3.05,-1.11 c0.85,-0.74,1.47,-1.77,1.86,-3.07 l1.5,0 c0.42,1.27,1.13,2.29,2.11,3.05 c0.98,0.76,2.08,1.14,3.3,1.14 c1.7,0,3.05,-0.71,4.05,-2.14 c1.0,-1.42,1.5,-3.39,1.5,-5.91 l0,-19.68 l-6.18,0 l0,19.18 c0,1.18,-0.17,2.08,-0.52,2.68 c-0.35,0.61,-0.87,0.91,-1.57,0.91 c-0.73,0,-1.41,-0.26,-2.05,-0.77 c-0.64,-0.52,-1.18,-1.29,-1.64,-2.32 l0,-19.68 l-6.14,0 l0,19.18 c0,1.18,-0.17,2.08,-0.52,2.68 c-0.35,0.61,-0.86,0.91,-1.52,0.91 c-0.76,0,-1.45,-0.26,-2.09,-0.77 c-0.64,-0.52,-1.18,-1.29,-1.64,-2.32 Z M408.59,90.36 c1.3,0,2.24,0.39,2.82,1.16 c0.58,0.77,0.86,2.02,0.86,3.75 l0,9.05 c0,1.61,-0.23,2.77,-0.7,3.5 c-0.47,0.73,-1.23,1.09,-2.3,1.09 c-0.94,0,-1.76,-0.26,-2.45,-0.77 c-0.7,-0.52,-1.36,-1.33,-2,-2.45 l0,-13.73 c0.64,-0.52,1.26,-0.91,1.86,-1.18 c0.61,-0.27,1.24,-0.41,1.91,-0.41 Z M409.64,85.73 c-0.82,0,-1.64,0.11,-2.48,0.32 c-0.83,0.21,-1.61,0.52,-2.34,0.91 l0,-9.91 l-6.18,0 l0,36.36 l6.18,0 l0,-3.73 l1,0 c0.39,1.33,1.14,2.36,2.25,3.09 c1.11,0.73,2.42,1.09,3.93,1.09 c2.09,0,3.69,-0.82,4.8,-2.45 c1.11,-1.64,1.66,-3.92,1.66,-6.86 l0,-9.36 c-0.0,-3.0,-0.77,-5.33,-2.32,-6.98 c-1.55,-1.65,-3.71,-2.48,-6.5,-2.48 Z M439.27,85.68 c-2.76,0,-4.86,0.73,-6.3,2.2 c-1.44,1.47,-2.16,3.61,-2.16,6.43 l0,14.41 l-4.09,0 l0,4.68 l4.09,0 l0,9.09 l6.18,0 l0,-9.09 l6.95,0 l0,-4.68 l-6.95,0 l0,-14.09 c0,-1.45,0.29,-2.52,0.86,-3.18 c0.58,-0.67,1.35,-1,2.32,-1 c0.45,0,0.97,0.08,1.55,0.23 c0.58,0.15,1.18,0.38,1.82,0.68 l0.68,-4.59 c-0.58,-0.33,-1.31,-0.6,-2.2,-0.8 c-0.89,-0.2,-1.81,-0.3,-2.75,-0.3 Z M456.23,76.68 c-0.82,0,-1.7,0.05,-2.64,0.14 c-0.94,0.09,-1.95,0.21,-3.05,0.36 l0.41,4.68 c0.85,-0.15,1.63,-0.27,2.34,-0.36 c0.71,-0.09,1.34,-0.14,1.89,-0.14 c1.67,0,2.86,0.4,3.57,1.2 c0.71,0.8,1.27,1.98,1.66,3.52 l0.09,0.55 l-4.14,0 l-6.18,26.77 l6.09,0 l4.95,-23.14 l4.59,23.14 l5.91,0 l-6.05,-28.68 c-0.73,-2.91,-1.86,-4.98,-3.41,-6.2 c-1.55,-1.23,-3.56,-1.84,-6.05,-1.84 Z M456.23,76.68" fill="rgb(0,0,0)" transform="matrix(1,0,0,-1,0,200)"/>
</svg>