<?xml version="1.0" encoding="UTF-8"?>
<svg height="200" version="1.1" width="800" xmlns="http://www.w3.org/2000/svg" xmlns:xlink="http://www.w3.org/1999/xlink">
 <path d="M0,0 l800,0 l0,200 l-800,0 Z M0,0" fill="rgb(255,255,255)" transform="matrix(1,0,0,-1,0,200)"/>
 <path d="M350.61,90.05 c0.94,0,1.83,0.2,2.66,0.59 c0.83,0.39,1.54,1.08,2.11,2.05 l0,4.82 l-4.91,0 c-0.88,0,-1.58,-0.27,-2.11,-0.8 c-0.53,-0.53,-0.8,-1.49,-0.8,-2.89 c0,-1.21,0.25,-2.14,0.75,-2.8 c0.5,-0.65,1.27,-0.98,2.3,-0.98 Z M349.11,85.68 c-2.3,0,-4.11,0.69,-5.41,2.07 c-1.3,1.38,-1.95,3.3,-1.95,5.75 c0,2.45,0.7,4.36,2.09,5.7 c1.39,1.35,3.29,2.02,5.68,2.02 l5.86,0 l0,4.23 c0,1.21,-0.32,2.18,-0.95,2.91 c-0.64,0.73,-1.56,1.09,-2.77,1.09 c-1.27,0,-2.2,-0.33,-2.8,-0.98 c-0.59,-0.65,-1.05,-1.9,-1.39,-3.75 l-5.27,1.09 c0.48,2.79,1.58,4.83,3.3,6.11 c1.71,1.29,3.93,1.93,6.66,1.93 c2.94,0,5.23,-0.64,6.89,-1.91 c1.65,-1.27,2.48,-3.32,2.48,-6.14 l0,-12.23 c0,-1.39,0.33,-2.28,1,-2.66 c0.67,-0.38,1.7,-0.42,3.09,-0.11 l0,-4.73 c-2.06,-0.39,-3.75,-0.31,-5.07,0.25 c-1.32,0.56,-2.17,1.77,-2.57,3.61 l-1,0 c-0.76,-1.27,-1.82,-2.3,-3.18,-3.09 c-1.36,-0.79,-2.92,-1.18,-4.68,-1.18 Z M382.89,85.82 c-2.58,0,-4.57,0.85,-5.98,2.55 c-1.41,1.7,-2.11,4.08,-2.11,7.14 l0,27 l6.14,0 l0,-27 c0,-1.61,0.24,-2.8,0.73,-3.57 c0.48,-0.77,1.21,-1.16,2.18,-1.16 c0.42,0,0.91,0.08,1.45,0.23 c0.55,0.15,1.06,0.35,1.55,0.59 l0.95,-4.55 c-0.73,-0.36,-1.52,-0.66,-2.36,-0.89 c-0.85,-0.23,-1.7,-0.34,-2.55,-0.34 Z M396.66,86.14 l0,27.27 l6.18,0 l0,-27.27 Z M399.75,118.18 c-1.21,0,-2.2,0.2,-2.95,0.61 c-0.76,0.41,-1.14,1.14,-1.14,2.2 l0,0.41 c0,1.09,0.38,1.86,1.14,2.3 c0.76,0.44,1.74,0.66,2.95,0.66 c1.21,0,2.2,-0.22,2.95,-0.66 c0.76,-0.44,1.14,-1.2,1.14,-2.3 l0,-0.41 c-0.0,-1.06,-0.38,-1.8,-1.14,-2.2 c-0.76,-0.41,-1.74,-0.61,-2.95,-0.61 Z M425.66,86.14 l-8.09,0 l-6.73,27.27 l6.09,0 l4.77,-22.23 l4.82,22.23 l5.86,0 Z M458.57,92.27 c-0.64,-2.18,-1.82,-3.83,-3.55,-4.93 c-1.73,-1.11,-3.86,-1.66,-6.41,-1.66 c-3.06,0,-5.46,0.86,-7.2,2.57 c-1.74,1.71,-2.61,4.07,-2.61,7.07 l0,8.91 c0,3.0,0.89,5.36,2.66,7.07 c1.77,1.71,4.2,2.57,7.3,2.57 c3.06,0,5.47,-0.88,7.23,-2.64 c1.76,-1.76,2.64,-4.18,2.64,-7.27 l0,-5.32 l-13.64,0 l0,-3.32 c0,-1.94,0.31,-3.3,0.93,-4.09 c0.62,-0.79,1.66,-1.18,3.11,-1.18 c1.27,0,2.22,0.27,2.84,0.82 c0.62,0.55,1.14,1.5,1.57,2.86 Z M444.98,104.18 l0,-1.82 l7.45,0 l0,1.55 c0,2.03,-0.29,3.48,-0.86,4.36 c-0.58,0.88,-1.53,1.32,-2.86,1.32 c-1.33,0,-2.29,-0.42,-2.86,-1.25 c-0.58,-0.83,-0.86,-2.22,-0.86,-4.16 Z M444.98,104.18" fill="rgb(0,0,0)" transform="matrix(1,0,0,-1,0,200)"/>
</svg>