<?xml version="1.0" encoding="UTF-8"?>
<svg height="200" version="1.1" width="800" xmlns="http://www.w3.org/2000/svg" xmlns:xlink="http://www.w3.org/1999/xlink">
 <path d="M0,0 l800,0 l0,200 l-800,0 Z M0,0" fill="rgb(255,255,255)" transform="matrix(1,0,0,-1,0,200)"/>
 <path d="M212.5,80.73 c2.61,0,4.48,0.77,5.64,2.32 c1.15,1.55,1.73,4.05,1.73,7.5 l0,18.09 c0.0,3.21,-0.47,5.55,-1.41,7 c-0.94,1.45,-2.47,2.18,-4.59,2.18 c-1.88,-0.0,-3.52,-0.52,-4.91,-1.55 c-1.39,-1.03,-2.73,-2.67,-4,-4.91 l0,-27.45 c1.27,-1.03,2.52,-1.82,3.73,-2.36 c1.21,-0.55,2.48,-0.82,3.82,-0.82 Z M214.59,71.45 c-1.64,0,-3.29,0.21,-4.95,0.64 c-1.67,0.42,-3.23,1.03,-4.68,1.82 l0,-19.82 l-12.36,0 l0,72.73 l12.36,0 l0,-7.45 l2,0 c0.79,2.67,2.29,4.73,4.5,6.18 c2.21,1.45,4.83,2.18,7.86,2.18 c4.18,0,7.38,-1.64,9.59,-4.91 c2.21,-3.27,3.32,-7.85,3.32,-13.73 l0,-18.73 c0,-6.0,-1.55,-10.65,-4.64,-13.95 c-3.09,-3.3,-7.42,-4.95,-13,-4.95 Z M250.14,72.27 l0,54.55 l12.36,0 l0,-7.45 l2,0 c0.79,2.97,2.21,5.11,4.27,6.41 c2.06,1.3,4.24,1.95,6.55,1.95 c3.64,0,6.36,-1.24,8.18,-3.73 c1.82,-2.48,2.73,-5.97,2.73,-10.45 l0,-9.91 l-11.27,0 l0,8.18 c0,1.82,-0.35,3.27,-1.05,4.36 c-0.7,1.09,-1.8,1.64,-3.32,1.64 c-1.39,-0.0,-2.85,-0.67,-4.36,-2 c-1.52,-1.33,-2.76,-3.06,-3.73,-5.18 l0,-38.36 Z M319.23,80.09 c1.88,0,3.65,0.39,5.32,1.18 c1.67,0.79,3.08,2.15,4.23,4.09 l0,9.64 l-9.82,0 c-1.76,0,-3.17,-0.53,-4.23,-1.59 c-1.06,-1.06,-1.59,-2.98,-1.59,-5.77 c0,-2.42,0.5,-4.29,1.5,-5.59 c1.0,-1.3,2.53,-1.95,4.59,-1.95 Z M316.23,71.36 c-4.61,0,-8.21,1.38,-10.82,4.14 c-2.61,2.76,-3.91,6.59,-3.91,11.5 c0,4.91,1.39,8.71,4.18,11.41 c2.79,2.7,6.58,4.05,11.36,4.05 l11.73,0 l0,8.45 c0,2.42,-0.64,4.36,-1.91,5.82 c-1.27,1.45,-3.12,2.18,-5.55,2.18 c-2.55,-0.0,-4.41,-0.65,-5.59,-1.95 c-1.18,-1.3,-2.11,-3.8,-2.77,-7.5 l-10.55,2.18 c0.97,5.58,3.17,9.65,6.59,12.23 c3.42,2.58,7.86,3.86,13.32,3.86 c5.88,0,10.47,-1.27,13.77,-3.82 c3.3,-2.55,4.95,-6.64,4.95,-12.27 l0,-24.45 c0,-2.79,0.67,-4.56,2,-5.32 c1.33,-0.76,3.39,-0.83,6.18,-0.23 l0,-9.45 c-4.12,-0.79,-7.5,-0.62,-10.14,0.5 c-2.64,1.12,-4.35,3.53,-5.14,7.23 l-2,0 c-1.52,-2.55,-3.64,-4.61,-6.36,-6.18 c-2.73,-1.58,-5.85,-2.36,-9.36,-2.36 Z M385.41,71.36 c-6.73,0,-11.77,1.67,-15.14,5 c-3.36,3.33,-5.05,8.0,-5.05,14 l0,18.09 c0,6.48,1.76,11.32,5.27,14.5 c3.52,3.18,8.48,4.77,14.91,4.77 c6.36,0,11.23,-1.55,14.59,-4.64 c3.36,-3.09,5.23,-7.79,5.59,-14.09 l-11.91,-0.82 c-0.18,3.7,-0.88,6.3,-2.09,7.82 c-1.21,1.52,-3.21,2.27,-6,2.27 c-2.97,0,-5.05,-0.74,-6.23,-2.23 c-1.18,-1.48,-1.77,-4.05,-1.77,-7.68 l0,-17.73 c0,-3.64,0.61,-6.18,1.82,-7.64 c1.21,-1.45,3.3,-2.18,6.27,-2.18 c2.79,0,4.77,0.68,5.95,2.05 c1.18,1.36,1.86,3.74,2.05,7.14 l11.91,-0.73 c-0.3,-6.06,-2.12,-10.56,-5.45,-13.5 c-3.33,-2.94,-8.24,-4.41,-14.73,-4.41 Z M446.5,71.36 c-5.52,0,-9.71,1.47,-12.59,4.41 c-2.88,2.94,-4.32,7.23,-4.32,12.86 l0,28.82 l-8.18,0 l0,9.36 l8.18,0 l0,18.18 l12.36,0 l0,-18.18 l13.91,0 l0,-9.36 l-13.91,0 l0,-28.18 c0.0,-2.91,0.58,-5.03,1.73,-6.36 c1.15,-1.33,2.7,-2,4.64,-2 c0.91,0,1.94,0.15,3.09,0.45 c1.15,0.3,2.36,0.76,3.64,1.36 l1.36,-9.18 c-1.15,-0.67,-2.62,-1.2,-4.41,-1.59 c-1.79,-0.39,-3.62,-0.59,-5.5,-0.59 Z M476.77,72.27 l0,54.55 l12.36,0 l0,-54.55 Z M482.95,136.36 c-2.42,0,-4.39,0.41,-5.91,1.23 c-1.52,0.82,-2.27,2.29,-2.27,4.41 l0,0.82 c0,2.18,0.76,3.71,2.27,4.59 c1.52,0.88,3.48,1.32,5.91,1.32 c2.42,0,4.39,-0.44,5.91,-1.32 c1.52,-0.88,2.27,-2.41,2.27,-4.59 l0,-0.82 c0,-2.12,-0.76,-3.59,-2.27,-4.41 c-1.52,-0.82,-3.48,-1.23,-5.91,-1.23 Z M530.5,71.36 c-6.73,0,-11.77,1.67,-15.14,5 c-3.36,3.33,-5.05,8.0,-5.05,14 l0,18.09 c0,6.48,1.76,11.32,5.27,14.5 c3.52,3.18,8.48,4.77,14.91,4.77 c6.36,0,11.23,-1.55,14.59,-4.64 c3.36,-3.09,5.23,-7.79,5.59,-14.09 l-11.91,-0.82 c-0.18,3.7,-0.88,6.3,-2.09,7.82 c-1.21,1.52,-3.21,2.27,-6,2.27 c-2.97,0,-5.05,-0.74,-6.23,-2.23 c-1.18,-1.48,-1.77,-4.05,-1.77,-7.68 l0,-17.73 c0,-3.64,0.61,-6.18,1.82,-7.64 c1.21,-1.45,3.3,-2.18,6.27,-2.18 c2.79,0,4.77,0.68,5.95,2.05 c1.18,1.36,1.86,3.74,2.05,7.14 l11.91,-0.73 c-0.3,-6.06,-2.12,-10.56,-5.45,-13.5 c-3.33,-2.94,-8.24,-4.41,-14.73,-4.41 Z M607.41,84.55 c-1.27,-4.36,-3.64,-7.65,-7.09,-9.86 c-3.45,-2.21,-7.73,-3.32,-12.82,-3.32 c-6.12,0,-10.92,1.71,-14.41,5.14 c-3.48,3.42,-5.23,8.14,-5.23,14.14 l0,17.82 c0,6.0,1.77,10.71,5.32,14.14 c3.55,3.42,8.41,5.14,14.59,5.14 c6.12,0,10.94,-1.76,14.45,-5.27 c3.52,-3.52,5.27,-8.36,5.27,-14.55 l0,-10.64 l-27.27,0 l0,-6.64 c0,-3.88,0.62,-6.61,1.86,-8.18 c1.24,-1.58,3.32,-2.36,6.23,-2.36 c2.55,0,4.44,0.55,5.68,1.64 c1.24,1.09,2.29,3.0,3.14,5.73 Z M580.23,108.36 l0,-3.64 l14.91,0 l0,3.09 c0,4.06,-0.58,6.97,-1.73,8.73 c-1.15,1.76,-3.06,2.64,-5.73,2.64 c-2.67,0,-4.58,-0.83,-5.73,-2.5 c-1.15,-1.67,-1.73,-4.44,-1.73,-8.32 Z M580.23,108.36" fill="rgb(0,0,0)" transform="matrix(1,0,0,-1,0,200)"/>
</svg>