<?xml version="1.0" encoding="UTF-8"?>
<svg height="200" version="1.1" width="800" xmlns="http://www.w3.org/2000/svg" xmlns:xlink="http://www.w3.org/1999/xlink">
 <path d="M0,0 l800,0 l0,200 l-800,0 Z M0,0" fill="rgb(255,255,255)" transform="matrix(1,0,0,-1,0,200)"/>
 <path d="M292.41,72.73 l0,45.18 l-8.18,0 l0,9.36 l8.18,0 l0,4.82 c0,4.73,1.53,8.41,4.59,11.05 c3.06,2.64,7.11,3.95,12.14,3.95 c1.58,0,3.24,-0.23,5,-0.68 c1.76,-0.45,3.39,-0.98,4.91,-1.59 l-1.36,-8.64 c-1.27,0.48,-2.48,0.89,-3.64,1.23 c-1.15,0.33,-2.24,0.5,-3.27,0.5 c-1.88,0,-3.35,-0.47,-4.41,-1.41 c-1.06,-0.94,-1.59,-2.53,-1.59,-4.77 l0,-4.45 l13.64,0 l0,-9.36 l-13.64,0 l0,-45.18 Z M349.14,71.82 c-4.0,0,-7.14,1.53,-9.41,4.59 c-2.27,3.06,-3.41,7.2,-3.41,12.41 l0,38.45 l12.36,0 l0,-36.55 c0,-2.97,0.45,-5.2,1.36,-6.68 c0.91,-1.48,2.27,-2.23,4.09,-2.23 c1.88,0,3.64,0.64,5.27,1.91 c1.64,1.27,3.03,3.06,4.18,5.36 l0,38.18 l12.36,0 l0,-54.55 l-12.36,0 l0,7.55 l-2,0 c-0.79,-2.61,-2.32,-4.67,-4.59,-6.18 c-2.27,-1.52,-4.89,-2.27,-7.86,-2.27 Z M413.5,72.09 c-5.15,0,-9.14,1.7,-11.95,5.09 c-2.82,3.39,-4.23,8.15,-4.23,14.27 l0,54 l12.27,0 l0,-54 c0,-3.21,0.48,-5.59,1.45,-7.14 c0.97,-1.55,2.42,-2.32,4.36,-2.32 c0.85,0,1.82,0.15,2.91,0.45 c1.09,0.3,2.12,0.7,3.09,1.18 l1.91,-9.09 c-1.45,-0.73,-3.03,-1.32,-4.73,-1.77 c-1.7,-0.45,-3.39,-0.68,-5.09,-0.68 Z M457.41,72.09 c-5.15,0,-9.14,1.7,-11.95,5.09 c-2.82,3.39,-4.23,8.15,-4.23,14.27 l0,54 l12.27,0 l0,-54 c0,-3.21,0.48,-5.59,1.45,-7.14 c0.97,-1.55,2.42,-2.32,4.36,-2.32 c0.85,0,1.82,0.15,2.91,0.45 c1.09,0.3,2.12,0.7,3.09,1.18 l1.91,-9.09 c-1.45,-0.73,-3.03,-1.32,-4.73,-1.77 c-1.7,-0.45,-3.39,-0.68,-5.09,-0.68 Z M488.59,53.82 c-1.64,0,-3.39,0.09,-5.27,0.27 c-1.88,0.18,-3.91,0.42,-6.09,0.73 l0.82,9.36 c1.7,-0.3,3.26,-0.55,4.68,-0.73 c1.42,-0.18,2.68,-0.27,3.77,-0.27 c3.33,0,5.71,0.8,7.14,2.41 c1.42,1.61,2.53,3.95,3.32,7.05 l0.18,1.09 l-8.27,0 l-12.36,53.55 l12.18,0 l9.91,-46.27 l9.18,46.27 l11.82,0 l-12.09,-57.36 c-1.45,-5.82,-3.73,-9.95,-6.82,-12.41 c-3.09,-2.45,-7.12,-3.68,-12.09,-3.68 Z M488.59,53.82" fill="rgb(0,0,0)" transform="matrix(1,0,0,-1,0,200)"/>
</svg>