<?xml version="1.0" encoding="UTF-8"?>
<svg height="200" version="1.1" width="800" xmlns="http://www.w3.org/2000/svg" xmlns:xlink="http://www.w3.org/1999/xlink">
 <path d="M0,0 l800,0 l0,200 l-800,0 Z M0,0" fill="rgb(255,255,255)" transform="matrix(1,0,0,-1,0,200)"/>
 <path d="M347.5,85.82 c-2.58,0,-4.57,0.85,-5.98,2.55 c-1.41,1.7,-2.11,4.08,-2.11,7.14 l0,27 l6.14,0 l0,-27 c0,-1.61,0.24,-2.8,0.73,-3.57 c0.48,-0.77,1.21,-1.16,2.18,-1.16 c0.42,0,0.91,0.08,1.45,0.23 c0.55,0.15,1.06,0.35,1.55,0.59 l0.95,-4.55 c-0.73,-0.36,-1.52,-0.66,-2.36,-0.89 c-0.85,-0.23,-1.7,-0.34,-2.55,-0.34 Z M369.55,85.68 c-3.09,0,-5.52,0.88,-7.27,2.64 c-1.76,1.76,-2.64,4.2,-2.64,7.32 l0,8.14 c0,3.15,0.89,5.62,2.66,7.41 c1.77,1.79,4.2,2.68,7.3,2.68 c3.06,0,5.47,-0.89,7.23,-2.68 c1.76,-1.79,2.64,-4.26,2.64,-7.41 l0,-8.14 c0,-3.12,-0.88,-5.56,-2.64,-7.32 c-1.76,-1.76,-4.18,-2.64,-7.27,-2.64 Z M369.55,90.41 c1.3,0,2.25,0.42,2.84,1.25 c0.59,0.83,0.89,2.2,0.89,4.11 l0,8 c0,1.91,-0.3,3.29,-0.89,4.14 c-0.59,0.85,-1.54,1.27,-2.84,1.27 c-1.33,0,-2.29,-0.43,-2.86,-1.3 c-0.58,-0.86,-0.86,-2.25,-0.86,-4.16 l0,-7.95 c0,-1.91,0.29,-3.28,0.86,-4.11 c0.58,-0.83,1.53,-1.25,2.86,-1.25 Z M398.32,85.68 c-3.09,0,-5.52,0.88,-7.27,2.64 c-1.76,1.76,-2.64,4.2,-2.64,7.32 l0,8.14 c-0.0,3.15,0.89,5.62,2.66,7.41 c1.77,1.79,4.2,2.68,7.3,2.68 c3.06,0,5.47,-0.89,7.23,-2.68 c1.76,-1.79,2.64,-4.26,2.64,-7.41 l0,-8.14 c0,-3.12,-0.88,-5.56,-2.64,-7.32 c-1.76,-1.76,-4.18,-2.64,-7.27,-2.64 Z M398.32,90.41 c1.3,0,2.25,0.42,2.84,1.25 c0.59,0.83,0.89,2.2,0.89,4.11 l0,8 c0,1.91,-0.3,3.29,-0.89,4.14 c-0.59,0.85,-1.54,1.27,-2.84,1.27 c-1.33,0,-2.29,-0.43,-2.86,-1.3 c-0.58,-0.86,-0.86,-2.25,-0.86,-4.16 l0,-7.95 c0,-1.91,0.29,-3.28,0.86,-4.11 c0.58,-0.83,1.53,-1.25,2.86,-1.25 Z M423.36,98.18 l0,-12.05 l-6.18,0 l0,36.36 l6.18,0 l0,-19.91 l1.36,0 l5.18,10.82 l6.45,0 l-6.73,-12.55 l6.59,-14.73 l-6.59,0 l-4.91,12.05 Z M452.55,85.73 c-2.0,0,-3.91,0.33,-5.73,0.98 c-1.82,0.65,-3.36,1.48,-4.64,2.48 l1.5,4.09 c1.33,-0.88,2.8,-1.62,4.39,-2.23 c1.59,-0.61,3.13,-0.91,4.61,-0.91 c1.3,0,2.29,0.25,2.95,0.75 c0.67,0.5,1,1.27,1,2.3 c0,1.24,-0.42,2.1,-1.25,2.57 c-0.83,0.47,-2.37,1.02,-4.61,1.66 c-2.3,0.64,-4.2,1.53,-5.68,2.68 c-1.48,1.15,-2.23,3.0,-2.23,5.55 c0,2.55,0.81,4.55,2.43,6.02 c1.62,1.47,3.8,2.2,6.52,2.2 c1.82,0,3.57,-0.3,5.25,-0.91 c1.68,-0.61,3.08,-1.36,4.2,-2.27 l-1.23,-3.95 c-1.3,0.82,-2.62,1.48,-3.95,2 c-1.33,0.52,-2.59,0.77,-3.77,0.77 c-1.15,0,-2.04,-0.27,-2.66,-0.8 c-0.62,-0.53,-0.93,-1.31,-0.93,-2.34 c0,-1.21,0.44,-2.08,1.32,-2.59 c0.88,-0.52,2.48,-1.11,4.82,-1.77 c2.52,-0.7,4.42,-1.62,5.7,-2.77 c1.29,-1.15,1.93,-2.91,1.93,-5.27 c0,-2.52,-0.88,-4.52,-2.64,-6 c-1.76,-1.48,-4.2,-2.23,-7.32,-2.23 Z M452.55,85.73" fill="rgb(0,0,0)" transform="matrix(1,0,0,-1,0,200)"/>
</svg>