<?xml version="1.0" encoding="UTF-8"?>
<svg height="200" version="1.1" width="800" xmlns="http://www.w3.org/2000/svg" xmlns:xlink="http://www.w3.org/1999/xlink">
 <path d="M0,0 l800,0 l0,200 l-800,0 Z M0,0" fill="rgb(255,255,255)" transform="matrix(1,0,0,-1,0,200)"/>
 <path d="M316.75,86.14 l0,27.27 l6.18,0 l0,-3.73 l1,0 c0.48,1.3,1.3,2.33,2.43,3.07 c1.14,0.74,2.42,1.11,3.84,1.11 c1.94,0,3.48,-0.77,4.64,-2.3 c1.15,-1.53,1.73,-3.58,1.73,-6.16 l0,-19.27 l-6.18,0 l0,18.27 c0,1.48,-0.23,2.61,-0.68,3.36 c-0.45,0.76,-1.14,1.14,-2.05,1.14 c-0.94,0,-1.82,-0.33,-2.64,-0.98 c-0.82,-0.65,-1.52,-1.54,-2.09,-2.66 l0,-19.14 Z M355.43,85.68 c-3.09,0,-5.52,0.88,-7.27,2.64 c-1.76,1.76,-2.64,4.2,-2.64,7.32 l0,8.14 c0,3.15,0.89,5.62,2.66,7.41 c1.77,1.79,4.2,2.68,7.3,2.68 c3.06,0,5.47,-0.89,7.23,-2.68 c1.76,-1.79,2.64,-4.26,2.64,-7.41 l0,-8.14 c0,-3.12,-0.88,-5.56,-2.64,-7.32 c-1.76,-1.76,-4.18,-2.64,-7.27,-2.64 Z M355.43,90.41 c1.3,0,2.25,0.42,2.84,1.25 c0.59,0.83,0.89,2.2,0.89,4.11 l0,8 c0,1.91,-0.3,3.29,-0.89,4.14 c-0.59,0.85,-1.54,1.27,-2.84,1.27 c-1.33,0,-2.29,-0.43,-2.86,-1.3 c-0.58,-0.86,-0.86,-2.25,-0.86,-4.16 l0,-7.95 c0,-1.91,0.29,-3.28,0.86,-4.11 c0.58,-0.83,1.53,-1.25,2.86,-1.25 Z M374.3,86.14 l0,27.27 l6.18,0 l0,-3.73 l1,0 c0.39,1.48,1.11,2.55,2.14,3.2 c1.03,0.65,2.12,0.98,3.27,0.98 c1.82,0,3.18,-0.62,4.09,-1.86 c0.91,-1.24,1.36,-2.98,1.36,-5.23 l0,-4.95 l-5.64,0 l0,4.09 c0,0.91,-0.17,1.64,-0.52,2.18 c-0.35,0.55,-0.9,0.82,-1.66,0.82 c-0.7,0,-1.42,-0.33,-2.18,-1 c-0.76,-0.67,-1.38,-1.53,-1.86,-2.59 l0,-19.18 Z M405.84,105.82 l0,-19.68 l-6.18,0 l0,27.27 l6.18,0 l0,-3.73 l1,0 c0.39,1.27,1.1,2.29,2.11,3.05 c1.02,0.76,2.14,1.14,3.39,1.14 c1.18,0,2.2,-0.37,3.05,-1.11 c0.85,-0.74,1.47,-1.77,1.86,-3.07 l1.5,0 c0.42,1.27,1.13,2.29,2.11,3.05 c0.98,0.76,2.08,1.14,3.3,1.14 c1.7,0,3.05,-0.71,4.05,-2.14 c1.0,-1.42,1.5,-3.39,1.5,-5.91 l0,-19.68 l-6.18,0 l0,19.18 c0,1.18,-0.17,2.08,-0.52,2.68 c-0.35,0.61,-0.87,0.91,-1.57,0.91 c-0.73,0,-1.41,-0.26,-2.05,-0.77 c-0.64,-0.52,-1.18,-1.29,-1.64,-2.32 l0,-19.68 l-6.14,0 l0,19.18 c0.0,1.18,-0.17,2.08,-0.52,2.68 c-0.35,0.61,-0.86,0.91,-1.52,0.91 c-0.76,0,-1.45,-0.26,-2.09,-0.77 c-0.64,-0.52,-1.18,-1.29,-1.64,-2.32 Z M447.84,90.05 c0.94,0,1.83,0.2,2.66,0.59 c0.83,0.39,1.54,1.08,2.11,2.05 l0,4.82 l-4.91,0 c-0.88,0,-1.58,-0.27,-2.11,-0.8 c-0.53,-0.53,-0.8,-1.49,-0.8,-2.89 c0,-1.21,0.25,-2.14,0.75,-2.8 c0.5,-0.65,1.27,-0.98,2.3,-0.98 Z M446.34,85.68 c-2.3,0,-4.11,0.69,-5.41,2.07 c-1.3,1.38,-1.95,3.3,-1.95,5.75 c0.0,2.45,0.7,4.36,2.09,5.7 c1.39,1.35,3.29,2.02,5.68,2.02 l5.86,0 l0,4.23 c0,1.21,-0.32,2.18,-0.95,2.91 c-0.64,0.73,-1.56,1.09,-2.77,1.09 c-1.27,0,-2.2,-0.33,-2.8,-0.98 c-0.59,-0.65,-1.05,-1.9,-1.39,-3.75 l-5.27,1.09 c0.48,2.79,1.58,4.83,3.3,6.11 c1.71,1.29,3.93,1.93,6.66,1.93 c2.94,0,5.23,-0.64,6.89,-1.91 c1.65,-1.27,2.48,-3.32,2.48,-6.14 l0,-12.23 c-0.0,-1.39,0.33,-2.28,1,-2.66 c0.67,-0.38,1.7,-0.42,3.09,-0.11 l0,-4.73 c-2.06,-0.39,-3.75,-0.31,-5.07,0.25 c-1.32,0.56,-2.17,1.77,-2.57,3.61 l-1,0 c-0.76,-1.27,-1.82,-2.3,-3.18,-3.09 c-1.36,-0.79,-2.92,-1.18,-4.68,-1.18 Z M480.11,85.82 c-2.58,0,-4.57,0.85,-5.98,2.55 c-1.41,1.7,-2.11,4.08,-2.11,7.14 l0,27 l6.14,0 l0,-27 c0,-1.61,0.24,-2.8,0.73,-3.57 c0.48,-0.77,1.21,-1.16,2.18,-1.16 c0.42,0,0.91,0.08,1.45,0.23 c0.55,0.15,1.06,0.35,1.55,0.59 l0.95,-4.55 c-0.73,-0.36,-1.52,-0.66,-2.36,-0.89 c-0.85,-0.23,-1.7,-0.34,-2.55,-0.34 Z M480.11,85.82" fill="rgb(0,0,0)" transform="matrix(1,0,0,-1,0,200)"/>
</svg>