<?xml version="1.0" encoding="UTF-8"?>
<svg height="200" version="1.1" width="800" xmlns="http://www.w3.org/2000/svg" xmlns:xlink="http://www.w3.org/1999/xlink">
 <path d="M0,0 l800,0 l0,200 l-800,0 Z M0,0" fill="rgb(255,255,255)" transform="matrix(1,0,0,-1,0,200)"/>
 <path d="M291.77,71.82 c-6.18,0,-11.03,1.76,-14.55,5.27 c-3.52,3.52,-5.27,8.39,-5.27,14.64 l0,16.27 c0,6.3,1.77,11.24,5.32,14.82 c3.55,3.58,8.41,5.36,14.59,5.36 c6.12,0,10.94,-1.79,14.45,-5.36 c3.52,-3.58,5.27,-8.52,5.27,-14.82 l0,-16.27 c0,-6.24,-1.76,-11.12,-5.27,-14.64 c-3.52,-3.52,-8.36,-5.27,-14.55,-5.27 Z M291.77,81.27 c2.61,0,4.5,0.83,5.68,2.5 c1.18,1.67,1.77,4.41,1.77,8.23 l0,16 c0,3.82,-0.59,6.58,-1.77,8.27 c-1.18,1.7,-3.08,2.55,-5.68,2.55 c-2.67,0,-4.58,-0.86,-5.73,-2.59 c-1.15,-1.73,-1.73,-4.5,-1.73,-8.32 l0,-15.91 c0,-3.82,0.58,-6.56,1.73,-8.23 c1.15,-1.67,3.06,-2.5,5.73,-2.5 Z M336.32,72.73 l0,45.18 l-8.18,0 l0,9.36 l8.18,0 l0,4.82 c0,4.73,1.53,8.41,4.59,11.05 c3.06,2.64,7.11,3.95,12.14,3.95 c1.58,0,3.24,-0.23,5,-0.68 c1.76,-0.45,3.39,-0.98,4.91,-1.59 l-1.36,-8.64 c-1.27,0.48,-2.48,0.89,-3.64,1.23 c-1.15,0.33,-2.24,0.5,-3.27,0.5 c-1.88,0,-3.35,-0.47,-4.41,-1.41 c-1.06,-0.94,-1.59,-2.53,-1.59,-4.77 l0,-4.45 l13.64,0 l0,-9.36 l-13.64,0 l0,-45.18 Z M403.95,71.82 c-5.52,0,-9.71,1.47,-12.59,4.41 c-2.88,2.94,-4.32,7.23,-4.32,12.86 l0,28.82 l-8.18,0 l0,9.36 l8.18,0 l0,18.18 l12.36,0 l0,-18.18 l13.91,0 l0,-9.36 l-13.91,0 l0,-28.18 c0,-2.91,0.58,-5.03,1.73,-6.36 c1.15,-1.33,2.7,-2,4.64,-2 c0.91,0,1.94,0.15,3.09,0.45 c1.15,0.3,2.36,0.76,3.64,1.36 l1.36,-9.18 c-1.15,-0.67,-2.62,-1.2,-4.41,-1.59 c-1.79,-0.39,-3.62,-0.59,-5.5,-0.59 Z M470.5,85 c-1.27,-4.36,-3.64,-7.65,-7.09,-9.86 c-3.45,-2.21,-7.73,-3.32,-12.82,-3.32 c-6.12,0,-10.92,1.71,-14.41,5.14 c-3.48,3.42,-5.23,8.14,-5.23,14.14 l0,17.82 c0.0,6.0,1.77,10.71,5.32,14.14 c3.55,3.42,8.41,5.14,14.59,5.14 c6.12,0,10.94,-1.76,14.45,-5.27 c3.52,-3.52,5.27,-8.36,5.27,-14.55 l0,-10.64 l-27.27,0 l0,-6.64 c-0.0,-3.88,0.62,-6.61,1.86,-8.18 c1.24,-1.58,3.32,-2.36,6.23,-2.36 c2.55,0,4.44,0.55,5.68,1.64 c1.24,1.09,2.29,3.0,3.14,5.73 Z M443.32,108.82 l0,-3.64 l14.91,0 l0,3.09 c0.0,4.06,-0.58,6.97,-1.73,8.73 c-1.15,1.76,-3.06,2.64,-5.73,2.64 c-2.67,0,-4.58,-0.83,-5.73,-2.5 c-1.15,-1.67,-1.73,-4.44,-1.73,-8.32 Z M488.5,72.73 l0,54.55 l12.36,0 l0,-7.45 l2,0 c0.97,2.61,2.59,4.65,4.86,6.14 c2.27,1.48,4.83,2.23,7.68,2.23 c3.88,0,6.97,-1.53,9.27,-4.59 c2.3,-3.06,3.45,-7.17,3.45,-12.32 l0,-38.55 l-12.36,0 l0,36.55 c0,2.97,-0.45,5.21,-1.36,6.73 c-0.91,1.52,-2.27,2.27,-4.09,2.27 c-1.88,-0.0,-3.64,-0.65,-5.27,-1.95 c-1.64,-1.3,-3.03,-3.08,-4.18,-5.32 l0,-38.27 Z M488.5,72.73" fill="rgb(0,0,0)" transform="matrix(1,0,0,-1,0,200)"/>
</svg>