<?xml version="1.0" encoding="UTF-8"?>
<svg height="200" version="1.1" width="800" xmlns="http://www.w3.org/2000/svg" xmlns:xlink="http://www.w3.org/1999/xlink">
 <path d="M0,0 l800,0 l0,200 l-800,0 Z M0,0" fill="rgb(255,255,255)" transform="matrix(1,0,0,-1,0,200)"/>
 <path d="M165.23,71.82 c-6.18,0,-11.03,1.76,-14.55,5.27 c-3.52,3.52,-5.27,8.39,-5.27,14.64 l0,16.27 c0,6.3,1.77,11.24,5.32,14.82 c3.55,3.58,8.41,5.36,14.59,5.36 c6.12,0,10.94,-1.79,14.45,-5.36 c3.52,-3.58,5.27,-8.52,5.27,-14.82 l0,-16.27 c0,-6.24,-1.76,-11.12,-5.27,-14.64 c-3.52,-3.52,-8.36,-5.27,-14.55,-5.27 Z M165.23,81.27 c2.61,0,4.5,0.83,5.68,2.5 c1.18,1.67,1.77,4.41,1.77,8.23 l0,16 c0,3.82,-0.59,6.58,-1.77,8.27 c-1.18,1.7,-3.08,2.55,-5.68,2.55 c-2.67,0,-4.58,-0.86,-5.73,-2.59 c-1.15,-1.73,-1.73,-4.5,-1.73,-8.32 l0,-15.91 c0,-3.82,0.58,-6.56,1.73,-8.23 c1.15,-1.67,3.06,-2.5,5.73,-2.5 Z M222.86,81.18 c2.61,0,4.48,0.77,5.64,2.32 c1.15,1.55,1.73,4.05,1.73,7.5 l0,18.09 c0.0,3.21,-0.47,5.55,-1.41,7 c-0.94,1.45,-2.47,2.18,-4.59,2.18 c-1.88,-0.0,-3.52,-0.52,-4.91,-1.55 c-1.39,-1.03,-2.73,-2.67,-4,-4.91 l0,-27.45 c1.27,-1.03,2.52,-1.82,3.73,-2.36 c1.21,-0.55,2.48,-0.82,3.82,-0.82 Z M224.95,71.91 c-1.64,0,-3.29,0.21,-4.95,0.64 c-1.67,0.42,-3.23,1.03,-4.68,1.82 l0,-19.82 l-12.36,0 l0,72.73 l12.36,0 l0,-7.45 l2,0 c0.79,2.67,2.29,4.73,4.5,6.18 c2.21,1.45,4.83,2.18,7.86,2.18 c4.18,0,7.38,-1.64,9.59,-4.91 c2.21,-3.27,3.32,-7.85,3.32,-13.73 l0,-18.73 c0,-6.0,-1.55,-10.65,-4.64,-13.95 c-3.09,-3.3,-7.42,-4.95,-13,-4.95 Z M280.41,81.18 c2.61,0,4.48,0.77,5.64,2.32 c1.15,1.55,1.73,4.05,1.73,7.5 l0,18.09 c0,3.21,-0.47,5.55,-1.41,7 c-0.94,1.45,-2.47,2.18,-4.59,2.18 c-1.88,-0.0,-3.52,-0.52,-4.91,-1.55 c-1.39,-1.03,-2.73,-2.67,-4,-4.91 l0,-27.45 c1.27,-1.03,2.52,-1.82,3.73,-2.36 c1.21,-0.55,2.48,-0.82,3.82,-0.82 Z M282.5,71.91 c-1.64,0,-3.29,0.21,-4.95,0.64 c-1.67,0.42,-3.23,1.03,-4.68,1.82 l0,-19.82 l-12.36,0 l0,72.73 l12.36,0 l0,-7.45 l2,0 c0.79,2.67,2.29,4.73,4.5,6.18 c2.21,1.45,4.83,2.18,7.86,2.18 c4.18,0,7.38,-1.64,9.59,-4.91 c2.21,-3.27,3.32,-7.85,3.32,-13.73 l0,-18.73 c0,-6.0,-1.55,-10.65,-4.64,-13.95 c-3.09,-3.3,-7.42,-4.95,-13,-4.95 Z M337.86,71.82 c-6.18,0,-11.03,1.76,-14.55,5.27 c-3.52,3.52,-5.27,8.39,-5.27,14.64 l0,16.27 c0,6.3,1.77,11.24,5.32,14.82 c3.55,3.58,8.41,5.36,14.59,5.36 c6.12,0,10.94,-1.79,14.45,-5.36 c3.52,-3.58,5.27,-8.52,5.27,-14.82 l0,-16.27 c0,-6.24,-1.76,-11.12,-5.27,-14.64 c-3.52,-3.52,-8.36,-5.27,-14.55,-5.27 Z M337.86,81.27 c2.61,0,4.5,0.83,5.68,2.5 c1.18,1.67,1.77,4.41,1.77,8.23 l0,16 c0,3.82,-0.59,6.58,-1.77,8.27 c-1.18,1.7,-3.08,2.55,-5.68,2.55 c-2.67,0,-4.58,-0.86,-5.73,-2.59 c-1.15,-1.73,-1.73,-4.5,-1.73,-8.32 l0,-15.91 c0,-3.82,0.58,-6.56,1.73,-8.23 c1.15,-1.67,3.06,-2.5,5.73,-2.5 Z M395.59,71.91 c-4.0,0,-7.82,0.65,-11.45,1.95 c-3.64,1.3,-6.73,2.95,-9.27,4.95 l3,8.18 c2.67,-1.76,5.59,-3.24,8.77,-4.45 c3.18,-1.21,6.26,-1.82,9.23,-1.82 c2.61,0,4.58,0.5,5.91,1.5 c1.33,1.0,2,2.53,2,4.59 c0,2.48,-0.83,4.2,-2.5,5.14 c-1.67,0.94,-4.74,2.05,-9.23,3.32 c-4.61,1.27,-8.39,3.06,-11.36,5.36 c-2.97,2.3,-4.45,6.0,-4.45,11.09 c0,5.09,1.62,9.11,4.86,12.05 c3.24,2.94,7.59,4.41,13.05,4.41 c3.64,0,7.14,-0.61,10.5,-1.82 c3.36,-1.21,6.17,-2.73,8.41,-4.55 l-2.45,-7.91 c-2.61,1.64,-5.24,2.97,-7.91,4 c-2.67,1.03,-5.18,1.55,-7.55,1.55 c-2.3,0,-4.08,-0.53,-5.32,-1.59 c-1.24,-1.06,-1.86,-2.62,-1.86,-4.68 c0.0,-2.42,0.88,-4.15,2.64,-5.18 c1.76,-1.03,4.97,-2.21,9.64,-3.55 c5.03,-1.39,8.83,-3.24,11.41,-5.55 c2.58,-2.3,3.86,-5.82,3.86,-10.55 c0,-5.03,-1.76,-9.03,-5.27,-12 c-3.52,-2.97,-8.39,-4.45,-14.64,-4.45 Z M436.41,72.73 l0,54.55 l12.36,0 l0,-54.55 Z M442.59,136.82 c-2.42,0,-4.39,0.41,-5.91,1.23 c-1.52,0.82,-2.27,2.29,-2.27,4.41 l0,0.82 c0,2.18,0.76,3.71,2.27,4.59 c1.52,0.88,3.48,1.32,5.91,1.32 c2.42,0,4.39,-0.44,5.91,-1.32 c1.52,-0.88,2.27,-2.41,2.27,-4.59 l0,-0.82 c0,-2.12,-0.76,-3.59,-2.27,-4.41 c-1.52,-0.82,-3.48,-1.23,-5.91,-1.23 Z M493.68,71.82 c-5.52,0,-9.71,1.47,-12.59,4.41 c-2.88,2.94,-4.32,7.23,-4.32,12.86 l0,28.82 l-8.18,0 l0,9.36 l8.18,0 l0,18.18 l12.36,0 l0,-18.18 l13.91,0 l0,-9.36 l-13.91,0 l0,-28.18 c0,-2.91,0.58,-5.03,1.73,-6.36 c1.15,-1.33,2.7,-2,4.64,-2 c0.91,0,1.94,0.15,3.09,0.45 c1.15,0.3,2.36,0.76,3.64,1.36 l1.36,-9.18 c-1.15,-0.67,-2.62,-1.2,-4.41,-1.59 c-1.79,-0.39,-3.62,-0.59,-5.5,-0.59 Z M523.95,72.73 l0,54.55 l12.36,0 l0,-54.55 Z M530.14,136.82 c-2.42,0,-4.39,0.41,-5.91,1.23 c-1.52,0.82,-2.27,2.29,-2.27,4.41 l0,0.82 c0,2.18,0.76,3.71,2.27,4.59 c1.52,0.88,3.48,1.32,5.91,1.32 c2.42,0,4.39,-0.44,5.91,-1.32 c1.52,-0.88,2.27,-2.41,2.27,-4.59 l0,-0.82 c0,-2.12,-0.76,-3.59,-2.27,-4.41 c-1.52,-0.82,-3.48,-1.23,-5.91,-1.23 Z M577.32,71.82 c-6.18,0,-11.03,1.76,-14.55,5.27 c-3.52,3.52,-5.27,8.39,-5.27,14.64 l0,16.27 c0,6.3,1.77,11.24,5.32,14.82 c3.55,3.58,8.41,5.36,14.59,5.36 c6.12,0,10.94,-1.79,14.45,-5.36 c3.52,-3.58,5.27,-8.52,5.27,-14.82 l0,-16.27 c0,-6.24,-1.76,-11.12,-5.27,-14.64 c-3.52,-3.52,-8.36,-5.27,-14.55,-5.27 Z M577.32,81.27 c2.61,0,4.5,0.83,5.68,2.5 c1.18,1.67,1.77,4.41,1.77,8.23 l0,16 c0,3.82,-0.59,6.58,-1.77,8.27 c-1.18,1.7,-3.08,2.55,-5.68,2.55 c-2.67,0,-4.58,-0.86,-5.73,-2.59 c-1.15,-1.73,-1.73,-4.5,-1.73,-8.32 l0,-15.91 c0,-3.82,0.58,-6.56,1.73,-8.23 c1.15,-1.67,3.06,-2.5,5.73,-2.5 Z M615.05,72.73 l0,54.55 l12.36,0 l0,-7.45 l2,0 c0.97,2.61,2.59,4.65,4.86,6.14 c2.27,1.48,4.83,2.23,7.68,2.23 c3.88,0,6.97,-1.53,9.27,-4.59 c2.3,-3.06,3.45,-7.17,3.45,-12.32 l0,-38.55 l-12.36,0 l0,36.55 c0,2.97,-0.45,5.21,-1.36,6.73 c-0.91,1.52,-2.27,2.27,-4.09,2.27 c-1.88,-0.0,-3.64,-0.65,-5.27,-1.95 c-1.64,-1.3,-3.03,-3.08,-4.18,-5.32 l0,-38.27 Z M615.05,72.73" fill="rgb(0,0,0)" transform="matrix(1,0,0,-1,0,200)"/>
</svg>