<?xml version="1.0" encoding="UTF-8"?>
<svg height="200" version="1.1" width="800" xmlns="http://www.w3.org/2000/svg" xmlns:xlink="http://www.w3.org/1999/xlink">
 <path d="M0,0 l800,0 l0,200 l-800,0 Z M0,0" fill="rgb(255,255,255)" transform="matrix(1,0,0,-1,0,200)"/>
 <path d="M284.95,71.82 c-6.18,0,-11.03,1.76,-14.55,5.27 c-3.52,3.52,-5.27,8.39,-5.27,14.64 l0,16.27 c0,6.3,1.77,11.24,5.32,14.82 c3.55,3.58,8.41,5.36,14.59,5.36 c6.12,0,10.94,-1.79,14.45,-5.36 c3.52,-3.58,5.27,-8.52,5.27,-14.82 l0,-16.27 c0,-6.24,-1.76,-11.12,-5.27,-14.64 c-3.52,-3.52,-8.36,-5.27,-14.55,-5.27 Z M284.95,81.27 c2.61,0,4.5,0.83,5.68,2.5 c1.18,1.67,1.77,4.41,1.77,8.23 l0,16 c0,3.82,-0.59,6.58,-1.77,8.27 c-1.18,1.7,-3.08,2.55,-5.68,2.55 c-2.67,0,-4.58,-0.86,-5.73,-2.59 c-1.15,-1.73,-1.73,-4.5,-1.73,-8.32 l0,-15.91 c0,-3.82,0.58,-6.56,1.73,-8.23 c1.15,-1.67,3.06,-2.5,5.73,-2.5 Z M335.5,71.82 c-4.0,0,-7.14,1.53,-9.41,4.59 c-2.27,3.06,-3.41,7.2,-3.41,12.41 l0,38.45 l12.36,0 l0,-36.55 c0,-2.97,0.45,-5.2,1.36,-6.68 c0.91,-1.48,2.27,-2.23,4.09,-2.23 c1.88,0,3.64,0.64,5.27,1.91 c1.64,1.27,3.03,3.06,4.18,5.36 l0,38.18 l12.36,0 l0,-54.55 l-12.36,0 l0,7.55 l-2,0 c-0.79,-2.61,-2.32,-4.67,-4.59,-6.18 c-2.27,-1.52,-4.89,-2.27,-7.86,-2.27 Z M426.68,68.82 c-0.0,-4.91,-1.42,-8.67,-4.27,-11.27 c-2.85,-2.61,-6.79,-3.91,-11.82,-3.91 l-13.55,0 c-5.58,0,-9.77,1.12,-12.59,3.36 c-2.82,2.24,-4.23,5.52,-4.23,9.82 c0,2.97,0.71,5.33,2.14,7.09 c1.42,1.76,3.2,2.79,5.32,3.09 l0,1.82 c-1.7,0.48,-3.12,1.42,-4.27,2.82 c-1.15,1.39,-1.73,3.55,-1.73,6.45 c0,2.79,0.91,5.23,2.73,7.32 c1.82,2.09,4.12,3.32,6.91,3.68 l0,1.73 c-2.48,0.91,-4.38,2.35,-5.68,4.32 c-1.3,1.97,-1.95,4.02,-1.95,6.14 l0,1.82 c0,4.3,1.56,7.74,4.68,10.32 c3.12,2.58,7.71,3.86,13.77,3.86 l24.18,0 l0,-8.64 l-11.09,2 l0,-1.73 c1.7,-0.67,3.09,-1.91,4.18,-3.73 c1.09,-1.82,1.64,-3.76,1.64,-5.82 l0,-1.73 c-0.0,-4.18,-1.55,-7.55,-4.64,-10.09 c-3.09,-2.55,-7.79,-3.82,-14.09,-3.82 l-7.0,0 c-1.39,0,-2.5,-0.38,-3.32,-1.14 c-0.82,-0.76,-1.23,-2.08,-1.23,-3.95 c0,-1.76,0.44,-3.06,1.32,-3.91 c0.88,-0.85,2.08,-1.27,3.59,-1.27 l15.45,0 c4.85,0,8.65,-1.17,11.41,-3.5 c2.76,-2.33,4.14,-6.05,4.14,-11.14 Z M402.41,101 c2.42,0,4.17,0.65,5.23,1.95 c1.06,1.3,1.59,3.26,1.59,5.86 l0,2.82 c0,2.61,-0.55,4.53,-1.64,5.77 c-1.09,1.24,-2.82,1.86,-5.18,1.86 c-2.42,0.0,-4.18,-0.62,-5.27,-1.86 c-1.09,-1.24,-1.64,-3.17,-1.64,-5.77 l0,-2.82 c0,-2.61,0.53,-4.56,1.59,-5.86 c1.06,-1.3,2.83,-1.95,5.32,-1.95 Z M397.14,61.64 l13,0 c1.88,0,3.44,0.44,4.68,1.32 c1.24,0.88,1.86,2.53,1.86,4.95 c0,2.3,-0.61,3.91,-1.82,4.82 c-1.21,0.91,-2.73,1.36,-4.55,1.36 l-18.45,0 l0,-5.64 c0,-2.3,0.44,-4.02,1.32,-5.14 c0.88,-1.12,2.2,-1.68,3.95,-1.68 Z M444.59,72.73 l0,72.73 l12.36,0 l0,-25.64 l2,0 c1.03,2.61,2.68,4.65,4.95,6.14 c2.27,1.48,4.8,2.23,7.59,2.23 c3.94,0,7.05,-1.5,9.32,-4.5 c2.27,-3.0,3.41,-7.14,3.41,-12.41 l0,-38.55 l-12.36,0 l0,36.55 c0,3.03,-0.45,5.29,-1.36,6.77 c-0.91,1.48,-2.3,2.23,-4.18,2.23 c-1.88,-0.0,-3.61,-0.62,-5.18,-1.86 c-1.58,-1.24,-2.97,-3.05,-4.18,-5.41 l0,-38.27 Z M525.86,71.82 c-5.52,0,-9.71,1.47,-12.59,4.41 c-2.88,2.94,-4.32,7.23,-4.32,12.86 l0,28.82 l-8.18,0 l0,9.36 l8.18,0 l0,18.18 l12.36,0 l0,-18.18 l13.91,0 l0,-9.36 l-13.91,0 l0,-28.18 c0,-2.91,0.58,-5.03,1.73,-6.36 c1.15,-1.33,2.7,-2,4.64,-2 c0.91,0,1.94,0.15,3.09,0.45 c1.15,0.3,2.36,0.76,3.64,1.36 l1.36,-9.18 c-1.15,-0.67,-2.62,-1.2,-4.41,-1.59 c-1.79,-0.39,-3.62,-0.59,-5.5,-0.59 Z M525.86,71.82" fill="rgb(0,0,0)" transform="matrix(1,0,0,-1,0,200)"/>
</svg>