<?xml version="1.0" encoding="UTF-8"?>
<svg height="200" version="1.1" width="800" xmlns="http://www.w3.org/2000/svg" xmlns:xlink="http://www.w3.org/1999/xlink">
 <path d="M0,0 l800,0 l0,200 l-800,0 Z M0,0" fill="rgb(255,255,255)" transform="matrix(1,0,0,-1,0,200)"/>
 <path d="M234.32,81.18 c2.61,0,4.48,0.77,5.64,2.32 c1.15,1.55,1.73,4.05,1.73,7.5 l0,18.09 c0.0,3.21,-0.47,5.55,-1.41,7 c-0.94,1.45,-2.47,2.18,-4.59,2.18 c-1.88,-0.0,-3.52,-0.52,-4.91,-1.55 c-1.39,-1.03,-2.73,-2.67,-4,-4.91 l0,-27.45 c1.27,-1.03,2.52,-1.82,3.73,-2.36 c1.21,-0.55,2.48,-0.82,3.82,-0.82 Z M236.41,71.91 c-1.64,0,-3.29,0.21,-4.95,0.64 c-1.67,0.42,-3.23,1.03,-4.68,1.82 l0,-19.82 l-12.36,0 l0,72.73 l12.36,0 l0,-7.45 l2,0 c0.79,2.67,2.29,4.73,4.5,6.18 c2.21,1.45,4.83,2.18,7.86,2.18 c4.18,0,7.38,-1.64,9.59,-4.91 c2.21,-3.27,3.32,-7.85,3.32,-13.73 l0,-18.73 c0,-6.0,-1.55,-10.65,-4.64,-13.95 c-3.09,-3.3,-7.42,-4.95,-13,-4.95 Z M291.77,71.82 c-6.18,0,-11.03,1.76,-14.55,5.27 c-3.52,3.52,-5.27,8.39,-5.27,14.64 l0,16.27 c0,6.3,1.77,11.24,5.32,14.82 c3.55,3.58,8.41,5.36,14.59,5.36 c6.12,0,10.94,-1.79,14.45,-5.36 c3.52,-3.58,5.27,-8.52,5.27,-14.82 l0,-16.27 c0,-6.24,-1.76,-11.12,-5.27,-14.64 c-3.52,-3.52,-8.36,-5.27,-14.55,-5.27 Z M291.77,81.27 c2.61,0,4.5,0.83,5.68,2.5 c1.18,1.67,1.77,4.41,1.77,8.23 l0,16 c0,3.82,-0.59,6.58,-1.77,8.27 c-1.18,1.7,-3.08,2.55,-5.68,2.55 c-2.67,0,-4.58,-0.86,-5.73,-2.59 c-1.15,-1.73,-1.73,-4.5,-1.73,-8.32 l0,-15.91 c0,-3.82,0.58,-6.56,1.73,-8.23 c1.15,-1.67,3.06,-2.5,5.73,-2.5 Z M349.41,81.18 c2.61,0,4.48,0.77,5.64,2.32 c1.15,1.55,1.73,4.05,1.73,7.5 l0,18.09 c0,3.21,-0.47,5.55,-1.41,7 c-0.94,1.45,-2.47,2.18,-4.59,2.18 c-1.88,-0.0,-3.52,-0.52,-4.91,-1.55 c-1.39,-1.03,-2.73,-2.67,-4,-4.91 l0,-27.45 c1.27,-1.03,2.52,-1.82,3.73,-2.36 c1.21,-0.55,2.48,-0.82,3.82,-0.82 Z M351.5,71.91 c-1.64,0,-3.29,0.21,-4.95,0.64 c-1.67,0.42,-3.23,1.03,-4.68,1.82 l0,-19.82 l-12.36,0 l0,72.73 l12.36,0 l0,-7.45 l2,0 c0.79,2.67,2.29,4.73,4.5,6.18 c2.21,1.45,4.83,2.18,7.86,2.18 c4.18,0,7.38,-1.64,9.59,-4.91 c2.21,-3.27,3.32,-7.85,3.32,-13.73 l0,-18.73 c0,-6.0,-1.55,-10.65,-4.64,-13.95 c-3.09,-3.3,-7.42,-4.95,-13,-4.95 Z M399.86,71.82 c-4.0,0,-7.14,1.53,-9.41,4.59 c-2.27,3.06,-3.41,7.2,-3.41,12.41 l0,38.45 l12.36,0 l0,-36.55 c0,-2.97,0.45,-5.2,1.36,-6.68 c0.91,-1.48,2.27,-2.23,4.09,-2.23 c1.88,0,3.64,0.64,5.27,1.91 c1.64,1.27,3.03,3.06,4.18,5.36 l0,38.18 l12.36,0 l0,-54.55 l-12.36,0 l0,7.55 l-2,0 c-0.79,-2.61,-2.32,-4.67,-4.59,-6.18 c-2.27,-1.52,-4.89,-2.27,-7.86,-2.27 Z M464.23,72.09 c-5.15,0,-9.14,1.7,-11.95,5.09 c-2.82,3.39,-4.23,8.15,-4.23,14.27 l0,54 l12.27,0 l0,-54 c0,-3.21,0.48,-5.59,1.45,-7.14 c0.97,-1.55,2.42,-2.32,4.36,-2.32 c0.85,0,1.82,0.15,2.91,0.45 c1.09,0.3,2.12,0.7,3.09,1.18 l1.91,-9.09 c-1.45,-0.73,-3.03,-1.32,-4.73,-1.77 c-1.7,-0.45,-3.39,-0.68,-5.09,-0.68 Z M506.86,80.55 c1.88,0,3.65,0.39,5.32,1.18 c1.67,0.79,3.08,2.15,4.23,4.09 l0,9.64 l-9.82,0 c-1.76,0,-3.17,-0.53,-4.23,-1.59 c-1.06,-1.06,-1.59,-2.98,-1.59,-5.77 c0,-2.42,0.5,-4.29,1.5,-5.59 c1.0,-1.3,2.53,-1.95,4.59,-1.95 Z M503.86,71.82 c-4.61,0,-8.21,1.38,-10.82,4.14 c-2.61,2.76,-3.91,6.59,-3.91,11.5 c0,4.91,1.39,8.71,4.18,11.41 c2.79,2.7,6.58,4.05,11.36,4.05 l11.73,0 l0,8.45 c0,2.42,-0.64,4.36,-1.91,5.82 c-1.27,1.45,-3.12,2.18,-5.55,2.18 c-2.55,0.0,-4.41,-0.65,-5.59,-1.95 c-1.18,-1.3,-2.11,-3.8,-2.77,-7.5 l-10.55,2.18 c0.97,5.58,3.17,9.65,6.59,12.23 c3.42,2.58,7.86,3.86,13.32,3.86 c5.88,0,10.47,-1.27,13.77,-3.82 c3.3,-2.55,4.95,-6.64,4.95,-12.27 l0,-24.45 c0,-2.79,0.67,-4.56,2,-5.32 c1.33,-0.76,3.39,-0.83,6.18,-0.23 l0,-9.45 c-4.12,-0.79,-7.5,-0.62,-10.14,0.5 c-2.64,1.12,-4.35,3.53,-5.14,7.23 l-2,0 c-1.52,-2.55,-3.64,-4.61,-6.36,-6.18 c-2.73,-1.58,-5.85,-2.36,-9.36,-2.36 Z M552.86,72.73 l0,54.55 l12.36,0 l0,-7.45 l2,0 c0.79,2.97,2.21,5.11,4.27,6.41 c2.06,1.3,4.24,1.95,6.55,1.95 c3.64,0,6.36,-1.24,8.18,-3.73 c1.82,-2.48,2.73,-5.97,2.73,-10.45 l0,-9.91 l-11.27,0 l0,8.18 c0,1.82,-0.35,3.27,-1.05,4.36 c-0.7,1.09,-1.8,1.64,-3.32,1.64 c-1.39,-0.0,-2.85,-0.67,-4.36,-2 c-1.52,-1.33,-2.76,-3.06,-3.73,-5.18 l0,-38.36 Z M552.86,72.73" fill="rgb(0,0,0)" transform="matrix(1,0,0,-1,0,200)"/>
</svg>