<?xml version="1.0" encoding="UTF-8"?>
<svg height="200" version="1.1" width="800" xmlns="http://www.w3.org/2000/svg" xmlns:xlink="http://www.w3.org/1999/xlink">
 <path d="M0,0 l800,0 l0,200 l-800,0 Z M0,0" fill="rgb(255,255,255)" transform="matrix(1,0,0,-1,0,200)"/>
 <path d="M311.43,90.36 c1.3,0,2.24,0.39,2.82,1.16 c0.58,0.77,0.86,2.02,0.86,3.75 l0,9.05 c0,1.61,-0.23,2.77,-0.7,3.5 c-0.47,0.73,-1.23,1.09,-2.3,1.09 c-0.94,0,-1.76,-0.26,-2.45,-0.77 c-0.7,-0.52,-1.36,-1.33,-2,-2.45 l0,-13.73 c0.64,-0.52,1.26,-0.91,1.86,-1.18 c0.61,-0.27,1.24,-0.41,1.91,-0.41 Z M312.48,85.73 c-0.82,0,-1.64,0.11,-2.48,0.32 c-0.83,0.21,-1.61,0.52,-2.34,0.91 l0,-9.91 l-6.18,0 l0,36.36 l6.18,0 l0,-3.73 l1,0 c0.39,1.33,1.14,2.36,2.25,3.09 c1.11,0.73,2.42,1.09,3.93,1.09 c2.09,0,3.69,-0.82,4.8,-2.45 c1.11,-1.64,1.66,-3.92,1.66,-6.86 l0,-9.36 c0,-3.0,-0.77,-5.33,-2.32,-6.98 c-1.55,-1.65,-3.71,-2.48,-6.5,-2.48 Z M340.16,85.68 c-3.09,0,-5.52,0.88,-7.27,2.64 c-1.76,1.76,-2.64,4.2,-2.64,7.32 l0,8.14 c0,3.15,0.89,5.62,2.66,7.41 c1.77,1.79,4.2,2.68,7.3,2.68 c3.06,0,5.47,-0.89,7.23,-2.68 c1.76,-1.79,2.64,-4.26,2.64,-7.41 l0,-8.14 c0,-3.12,-0.88,-5.56,-2.64,-7.32 c-1.76,-1.76,-4.18,-2.64,-7.27,-2.64 Z M340.16,90.41 c1.3,0,2.25,0.42,2.84,1.25 c0.59,0.83,0.89,2.2,0.89,4.11 l0,8 c0,1.91,-0.3,3.29,-0.89,4.14 c-0.59,0.85,-1.54,1.27,-2.84,1.27 c-1.33,0,-2.29,-0.43,-2.86,-1.3 c-0.58,-0.86,-0.86,-2.25,-0.86,-4.16 l0,-7.95 c0,-1.91,0.29,-3.28,0.86,-4.11 c0.58,-0.83,1.53,-1.25,2.86,-1.25 Z M369.02,85.73 c-2.0,0,-3.91,0.33,-5.73,0.98 c-1.82,0.65,-3.36,1.48,-4.64,2.48 l1.5,4.09 c1.33,-0.88,2.8,-1.62,4.39,-2.23 c1.59,-0.61,3.13,-0.91,4.61,-0.91 c1.3,0,2.29,0.25,2.95,0.75 c0.67,0.5,1,1.27,1,2.3 c0,1.24,-0.42,2.1,-1.25,2.57 c-0.83,0.47,-2.37,1.02,-4.61,1.66 c-2.3,0.64,-4.2,1.53,-5.68,2.68 c-1.48,1.15,-2.23,3.0,-2.23,5.55 c0,2.55,0.81,4.55,2.43,6.02 c1.62,1.47,3.8,2.2,6.52,2.2 c1.82,0,3.57,-0.3,5.25,-0.91 c1.68,-0.61,3.08,-1.36,4.2,-2.27 l-1.23,-3.95 c-1.3,0.82,-2.62,1.48,-3.95,2 c-1.33,0.52,-2.59,0.77,-3.77,0.77 c-1.15,0,-2.04,-0.27,-2.66,-0.8 c-0.62,-0.53,-0.93,-1.31,-0.93,-2.34 c0,-1.21,0.44,-2.08,1.32,-2.59 c0.88,-0.52,2.48,-1.11,4.82,-1.77 c2.52,-0.7,4.42,-1.62,5.7,-2.77 c1.29,-1.15,1.93,-2.91,1.93,-5.27 c0,-2.52,-0.88,-4.52,-2.64,-6 c-1.76,-1.48,-4.2,-2.23,-7.32,-2.23 Z M389.43,86.14 l0,27.27 l6.18,0 l0,-27.27 Z M392.52,118.18 c-1.21,0,-2.2,0.2,-2.95,0.61 c-0.76,0.41,-1.14,1.14,-1.14,2.2 l0,0.41 c0.0,1.09,0.38,1.86,1.14,2.3 c0.76,0.44,1.74,0.66,2.95,0.66 c1.21,0,2.2,-0.22,2.95,-0.66 c0.76,-0.44,1.14,-1.2,1.14,-2.3 l0,-0.41 c0,-1.06,-0.38,-1.8,-1.14,-2.2 c-0.76,-0.41,-1.74,-0.61,-2.95,-0.61 Z M418.07,85.68 c-2.76,0,-4.86,0.73,-6.3,2.2 c-1.44,1.47,-2.16,3.61,-2.16,6.43 l0,14.41 l-4.09,0 l0,4.68 l4.09,0 l0,9.09 l6.18,0 l0,-9.09 l6.95,0 l0,-4.68 l-6.95,0 l0,-14.09 c0.0,-1.45,0.29,-2.52,0.86,-3.18 c0.58,-0.67,1.35,-1,2.32,-1 c0.45,0,0.97,0.08,1.55,0.23 c0.58,0.15,1.18,0.38,1.82,0.68 l0.68,-4.59 c-0.58,-0.33,-1.31,-0.6,-2.2,-0.8 c-0.89,-0.2,-1.81,-0.3,-2.75,-0.3 Z M433.2,86.14 l0,27.27 l6.18,0 l0,-27.27 Z M436.3,118.18 c-1.21,0,-2.2,0.2,-2.95,0.61 c-0.76,0.41,-1.14,1.14,-1.14,2.2 l0,0.41 c0,1.09,0.38,1.86,1.14,2.3 c0.76,0.44,1.74,0.66,2.95,0.66 c1.21,0,2.2,-0.22,2.95,-0.66 c0.76,-0.44,1.14,-1.2,1.14,-2.3 l0,-0.41 c-0.0,-1.06,-0.38,-1.8,-1.14,-2.2 c-0.76,-0.41,-1.74,-0.61,-2.95,-0.61 Z M459.89,85.68 c-3.09,0,-5.52,0.88,-7.27,2.64 c-1.76,1.76,-2.64,4.2,-2.64,7.32 l0,8.14 c0,3.15,0.89,5.62,2.66,7.41 c1.77,1.79,4.2,2.68,7.3,2.68 c3.06,0,5.47,-0.89,7.23,-2.68 c1.76,-1.79,2.64,-4.26,2.64,-7.41 l0,-8.14 c-0.0,-3.12,-0.88,-5.56,-2.64,-7.32 c-1.76,-1.76,-4.18,-2.64,-7.27,-2.64 Z M459.89,90.41 c1.3,0,2.25,0.42,2.84,1.25 c0.59,0.83,0.89,2.2,0.89,4.11 l0,8 c0,1.91,-0.3,3.29,-0.89,4.14 c-0.59,0.85,-1.54,1.27,-2.84,1.27 c-1.33,0,-2.29,-0.43,-2.86,-1.3 c-0.58,-0.86,-0.86,-2.25,-0.86,-4.16 l0,-7.95 c0,-1.91,0.29,-3.28,0.86,-4.11 c0.58,-0.83,1.53,-1.25,2.86,-1.25 Z M478.75,86.14 l0,27.27 l6.18,0 l0,-3.73 l1,0 c0.48,1.3,1.3,2.33,2.43,3.07 c1.14,0.74,2.42,1.11,3.84,1.11 c1.94,0,3.48,-0.77,4.64,-2.3 c1.15,-1.53,1.73,-3.58,1.73,-6.16 l0,-19.27 l-6.18,0 l0,18.27 c0,1.48,-0.23,2.61,-0.68,3.36 c-0.45,0.76,-1.14,1.14,-2.05,1.14 c-0.94,0,-1.82,-0.33,-2.64,-0.98 c-0.82,-0.65,-1.52,-1.54,-2.09,-2.66 l0,-19.14 Z M478.75,86.14" fill="rgb(0,0,0)" transform="matrix(1,0,0,-1,0,200)"/>
</svg>