<?xml version="1.0" encoding="UTF-8"?>
<svg height="200" version="1.1" width="800" xmlns="http://www.w3.org/2000/svg" xmlns:xlink="http://www.w3.org/1999/xlink">
 <path d="M0,0 l800,0 l0,200 l-800,0 Z M0,0" fill="rgb(255,255,255)" transform="matrix(1,0,0,-1,0,200)"/>
 <path d="M338.64,85.68 c-2.76,0,-4.86,0.73,-6.3,2.2 c-1.44,1.47,-2.16,3.61,-2.16,6.43 l0,14.41 l-4.09,0 l0,4.68 l4.09,0 l0,9.09 l6.18,0 l0,-9.09 l6.95,0 l0,-4.68 l-6.95,0 l0,-14.09 c0,-1.45,0.29,-2.52,0.86,-3.18 c0.58,-0.67,1.35,-1,2.32,-1 c0.45,0,0.97,0.08,1.55,0.23 c0.58,0.15,1.18,0.38,1.82,0.68 l0.68,-4.59 c-0.58,-0.33,-1.31,-0.6,-2.2,-0.8 c-0.89,-0.2,-1.81,-0.3,-2.75,-0.3 Z M352.14,86.14 l0,27.27 l6.18,0 l0,-3.73 l1,0 c0.39,1.48,1.11,2.55,2.14,3.2 c1.03,0.65,2.12,0.98,3.27,0.98 c1.82,0,3.18,-0.62,4.09,-1.86 c0.91,-1.24,1.36,-2.98,1.36,-5.23 l0,-4.95 l-5.64,0 l0,4.09 c0,0.91,-0.17,1.64,-0.52,2.18 c-0.35,0.55,-0.9,0.82,-1.66,0.82 c-0.7,0,-1.42,-0.33,-2.18,-1 c-0.76,-0.67,-1.38,-1.53,-1.86,-2.59 l0,-19.18 Z M380.95,76.68 c-0.82,0,-1.7,0.05,-2.64,0.14 c-0.94,0.09,-1.95,0.21,-3.05,0.36 l0.41,4.68 c0.85,-0.15,1.63,-0.27,2.34,-0.36 c0.71,-0.09,1.34,-0.14,1.89,-0.14 c1.67,0,2.86,0.4,3.57,1.2 c0.71,0.8,1.27,1.98,1.66,3.52 l0.09,0.55 l-4.14,0 l-6.18,26.77 l6.09,0 l4.95,-23.14 l4.59,23.14 l5.91,0 l-6.05,-28.68 c-0.73,-2.91,-1.86,-4.98,-3.41,-6.2 c-1.55,-1.23,-3.56,-1.84,-6.05,-1.84 Z M404.5,86.14 l0,27.27 l6.18,0 l0,-27.27 Z M407.59,118.18 c-1.21,0,-2.2,0.2,-2.95,0.61 c-0.76,0.41,-1.14,1.14,-1.14,2.2 l0,0.41 c0,1.09,0.38,1.86,1.14,2.3 c0.76,0.44,1.74,0.66,2.95,0.66 c1.21,0,2.2,-0.22,2.95,-0.66 c0.76,-0.44,1.14,-1.2,1.14,-2.3 l0,-0.41 c0,-1.06,-0.38,-1.8,-1.14,-2.2 c-0.76,-0.41,-1.74,-0.61,-2.95,-0.61 Z M421.27,86.14 l0,27.27 l6.18,0 l0,-3.73 l1,0 c0.48,1.3,1.3,2.33,2.43,3.07 c1.14,0.74,2.42,1.11,3.84,1.11 c1.94,0,3.48,-0.77,4.64,-2.3 c1.15,-1.53,1.73,-3.58,1.73,-6.16 l0,-19.27 l-6.18,0 l0,18.27 c0,1.48,-0.23,2.61,-0.68,3.36 c-0.45,0.76,-1.14,1.14,-2.05,1.14 c-0.94,0,-1.82,-0.33,-2.64,-0.98 c-0.82,-0.65,-1.52,-1.54,-2.09,-2.66 l0,-19.14 Z M473.27,84.18 c0,-2.45,-0.71,-4.33,-2.14,-5.64 c-1.42,-1.3,-3.39,-1.95,-5.91,-1.95 l-6.77,0 c-2.79,0,-4.89,0.56,-6.3,1.68 c-1.41,1.12,-2.11,2.76,-2.11,4.91 c0,1.48,0.36,2.67,1.07,3.55 c0.71,0.88,1.6,1.39,2.66,1.55 l0,0.91 c-0.85,0.24,-1.56,0.71,-2.14,1.41 c-0.58,0.7,-0.86,1.77,-0.86,3.23 c0,1.39,0.45,2.61,1.36,3.66 c0.91,1.05,2.06,1.66,3.45,1.84 l0,0.86 c-1.24,0.45,-2.19,1.17,-2.84,2.16 c-0.65,0.98,-0.98,2.01,-0.98,3.07 l0,0.91 c0,2.15,0.78,3.87,2.34,5.16 c1.56,1.29,3.86,1.93,6.89,1.93 l12.09,0 l0,-4.32 l-5.55,1 l0,-0.86 c0.85,-0.33,1.55,-0.95,2.09,-1.86 c0.55,-0.91,0.82,-1.88,0.82,-2.91 l0,-0.86 c0,-2.09,-0.77,-3.77,-2.32,-5.05 c-1.55,-1.27,-3.89,-1.91,-7.05,-1.91 l-3.5,0 c-0.7,0,-1.25,-0.19,-1.66,-0.57 c-0.41,-0.38,-0.61,-1.04,-0.61,-1.98 c0,-0.88,0.22,-1.53,0.66,-1.95 c0.44,-0.42,1.04,-0.64,1.8,-0.64 l7.73,0 c2.42,0,4.33,-0.58,5.7,-1.75 c1.38,-1.17,2.07,-3.02,2.07,-5.57 Z M461.14,100.27 c1.21,0,2.08,0.33,2.61,0.98 c0.53,0.65,0.8,1.63,0.8,2.93 l0,1.41 c0,1.3,-0.27,2.27,-0.82,2.89 c-0.55,0.62,-1.41,0.93,-2.59,0.93 c-1.21,0,-2.09,-0.31,-2.64,-0.93 c-0.55,-0.62,-0.82,-1.58,-0.82,-2.89 l0,-1.41 c0,-1.3,0.27,-2.28,0.8,-2.93 c0.53,-0.65,1.42,-0.98,2.66,-0.98 Z M458.5,80.59 l6.5,0 c0.94,0,1.72,0.22,2.34,0.66 c0.62,0.44,0.93,1.27,0.93,2.48 c0,1.15,-0.3,1.95,-0.91,2.41 c-0.61,0.45,-1.36,0.68,-2.27,0.68 l-9.23,0 l0,-2.82 c0,-1.15,0.22,-2.01,0.66,-2.57 c0.44,-0.56,1.1,-0.84,1.98,-0.84 Z M458.5,80.59" fill="rgb(0,0,0)" transform="matrix(1,0,0,-1,0,200)"/>
</svg>