<?xml version="1.0" encoding="UTF-8"?>
<svg height="200" version="1.1" width="500" xmlns="http://www.w3.org/2000/svg" xmlns:xlink="http://www.w3.org/1999/xlink">
 <path d="M0,0 l500,0 l0,200 l-500,0 Z M0,0" fill="rgb(255,255,255)" transform="matrix(1,0,0,-1,0,200)"/>
 <path d="M181.75,92.04 c0.75,0,1.46,0.16,2.13,0.47 c0.67,0.32,1.23,0.86,1.69,1.64 l0,3.85 l-3.93,0 c-0.7,0,-1.27,-0.21,-1.69,-0.64 c-0.42,-0.42,-0.64,-1.19,-0.64,-2.31 c0,-0.97,0.2,-1.72,0.6,-2.24 c0.4,-0.52,1.01,-0.78,1.84,-0.78 Z M180.55,88.55 c-1.84,0,-3.28,0.55,-4.33,1.65 c-1.04,1.1,-1.56,2.64,-1.56,4.6 c0,1.96,0.56,3.48,1.67,4.56 c1.12,1.08,2.63,1.62,4.55,1.62 l4.69,0 l0,3.38 c0,0.97,-0.25,1.75,-0.76,2.33 c-0.51,0.58,-1.25,0.87,-2.22,0.87 c-1.02,0,-1.76,-0.26,-2.24,-0.78 c-0.47,-0.52,-0.84,-1.52,-1.11,-3 l-4.22,0.87 c0.39,2.23,1.27,3.86,2.64,4.89 c1.37,1.03,3.15,1.55,5.33,1.55 c2.35,0,4.19,-0.51,5.51,-1.53 c1.32,-1.02,1.98,-2.65,1.98,-4.91 l0,-9.78 c0,-1.12,0.27,-1.82,0.8,-2.13 c0.53,-0.3,1.36,-0.33,2.47,-0.09 l0,-3.78 c-1.65,-0.32,-3.0,-0.25,-4.05,0.2 c-1.05,0.45,-1.74,1.41,-2.05,2.89 l-0.8,0 c-0.61,-1.02,-1.45,-1.84,-2.55,-2.47 c-1.09,-0.63,-2.34,-0.95,-3.75,-0.95 Z M200.15,88.91 l0,21.82 l4.95,0 l0,-2.98 l0.8,0 c0.39,1.04,1.04,1.86,1.95,2.45 c0.91,0.59,1.93,0.89,3.07,0.89 c1.55,0,2.79,-0.61,3.71,-1.84 c0.92,-1.22,1.38,-2.87,1.38,-4.93 l0,-15.42 l-4.95,0 l0,14.62 c0,1.19,-0.18,2.08,-0.55,2.69 c-0.36,0.61,-0.91,0.91,-1.64,0.91 c-0.75,0,-1.45,-0.26,-2.11,-0.78 c-0.65,-0.52,-1.21,-1.23,-1.67,-2.13 l0,-15.31 Z M225.93,81.35 c-0.65,0,-1.36,0.04,-2.11,0.11 c-0.75,0.07,-1.56,0.17,-2.44,0.29 l0.33,3.75 c0.68,-0.12,1.3,-0.22,1.87,-0.29 c0.57,-0.07,1.07,-0.11,1.51,-0.11 c1.33,0,2.28,0.32,2.85,0.96 c0.57,0.64,1.01,1.58,1.33,2.82 l0.07,0.44 l-3.31,0 l-4.95,21.42 l4.87,0 l3.96,-18.51 l3.67,18.51 l4.73,0 l-4.84,-22.95 c-0.58,-2.33,-1.49,-3.98,-2.73,-4.96 c-1.24,-0.98,-2.85,-1.47,-4.84,-1.47 Z M251.16,88.58 c-1.55,0,-3.0,0.22,-4.35,0.65 c-1.35,0.44,-2.47,1.09,-3.36,1.96 l0,26.8 l4.95,0 l0,-10.25 l0.8,0 c0.32,1.07,0.89,1.89,1.73,2.47 c0.84,0.58,1.86,0.87,3.07,0.87 c1.7,0,3.01,-0.64,3.93,-1.93 c0.92,-1.28,1.38,-3.13,1.38,-5.53 l0,-7.49 c0,-2.42,-0.7,-4.29,-2.09,-5.6 c-1.39,-1.31,-3.41,-1.96,-6.05,-1.96 Z M251.42,92.29 c1.04,0,1.79,0.3,2.25,0.91 c0.46,0.61,0.69,1.61,0.69,3.02 l0,7.2 c0,1.31,-0.21,2.25,-0.62,2.84 c-0.41,0.58,-1.01,0.87,-1.78,0.87 c-0.68,0,-1.32,-0.21,-1.93,-0.62 c-0.61,-0.41,-1.15,-1.07,-1.64,-1.96 l0,-11.27 c0.34,-0.32,0.76,-0.56,1.25,-0.73 c0.5,-0.17,1.08,-0.25,1.76,-0.25 Z M274.4,88.55 c-2.47,0,-4.41,0.7,-5.82,2.11 c-1.41,1.41,-2.11,3.36,-2.11,5.85 l0,6.51 c0,2.52,0.71,4.5,2.13,5.93 c1.42,1.43,3.36,2.15,5.84,2.15 c2.45,0,4.38,-0.72,5.78,-2.15 c1.41,-1.43,2.11,-3.41,2.11,-5.93 l0,-6.51 c0,-2.5,-0.7,-4.45,-2.11,-5.85 c-1.41,-1.41,-3.35,-2.11,-5.82,-2.11 Z M274.4,92.33 c1.04,0,1.8,0.33,2.27,1 c0.47,0.67,0.71,1.76,0.71,3.29 l0,6.4 c0,1.53,-0.24,2.63,-0.71,3.31 c-0.47,0.68,-1.23,1.02,-2.27,1.02 c-1.07,0,-1.83,-0.35,-2.29,-1.04 c-0.46,-0.69,-0.69,-1.8,-0.69,-3.33 l0,-6.36 c0,-1.53,0.23,-2.62,0.69,-3.29 c0.46,-0.67,1.22,-1,2.29,-1 Z M296.8,92.55 c0.68,0,1.32,0.22,1.93,0.65 c0.61,0.44,1.16,1.13,1.67,2.07 l0,10.84 c-0.53,0.44,-1.04,0.76,-1.53,0.96 c-0.48,0.21,-0.98,0.31,-1.49,0.31 c-1.02,0,-1.76,-0.32,-2.24,-0.96 c-0.47,-0.64,-0.71,-1.63,-0.71,-2.96 l0,-7.24 c0,-1.26,0.21,-2.19,0.62,-2.78 c0.41,-0.59,0.99,-0.89,1.75,-0.89 Z M299.6,92.11 c-0.32,-1.12,-0.91,-1.99,-1.78,-2.62 c-0.87,-0.63,-1.93,-0.95,-3.16,-0.95 c-1.62,0,-2.89,0.65,-3.8,1.96 c-0.91,1.31,-1.36,3.15,-1.36,5.53 l0,7.45 c0,2.4,0.62,4.26,1.87,5.58 c1.25,1.32,2.98,1.98,5.18,1.98 c0.68,0.0,1.35,-0.08,2,-0.25 c0.65,-0.17,1.27,-0.41,1.85,-0.73 l0,7.93 l4.95,0 l0,-29.09 l-4.95,0 l0,3.2 Z M315.27,81.35 c-0.65,0,-1.36,0.04,-2.11,0.11 c-0.75,0.07,-1.56,0.17,-2.44,0.29 l0.33,3.75 c0.68,-0.12,1.3,-0.22,1.87,-0.29 c0.57,-0.07,1.07,-0.11,1.51,-0.11 c1.33,0,2.28,0.32,2.85,0.96 c0.57,0.64,1.01,1.58,1.33,2.82 l0.07,0.44 l-3.31,0 l-4.95,21.42 l4.87,0 l3.96,-18.51 l3.67,18.51 l4.73,0 l-4.84,-22.95 c-0.58,-2.33,-1.49,-3.98,-2.73,-4.96 c-1.24,-0.98,-2.85,-1.47,-4.84,-1.47 Z M315.27,81.35" fill="rgb(0,0,0)" transform="matrix(1,0,0,-1,0,200)"/>
</svg>