<?xml version="1.0" encoding="UTF-8"?>
<svg height="200" version="1.1" width="800" xmlns="http://www.w3.org/2000/svg" xmlns:xlink="http://www.w3.org/1999/xlink">
 <path d="M0,0 l800,0 l0,200 l-800,0 Z M0,0" fill="rgb(255,255,255)" transform="matrix(1,0,0,-1,0,200)"/>
 <path d="M366.51,88.73 c-2.69,0,-4.71,0.67,-6.05,2 c-1.35,1.33,-2.02,3.2,-2.02,5.6 l0,7.24 c0,2.59,0.7,4.53,2.11,5.8 c1.41,1.27,3.39,1.91,5.96,1.91 c2.55,0,4.49,-0.62,5.84,-1.85 c1.35,-1.24,2.09,-3.12,2.24,-5.64 l-4.76,-0.33 c-0.07,1.48,-0.35,2.52,-0.84,3.13 c-0.48,0.61,-1.28,0.91,-2.4,0.91 c-1.19,0,-2.02,-0.3,-2.49,-0.89 c-0.47,-0.59,-0.71,-1.62,-0.71,-3.07 l0,-7.09 c0,-1.45,0.24,-2.47,0.73,-3.05 c0.48,-0.58,1.32,-0.87,2.51,-0.87 c1.12,0,1.91,0.27,2.38,0.82 c0.47,0.55,0.75,1.5,0.82,2.85 l4.76,-0.29 c-0.12,-2.42,-0.85,-4.22,-2.18,-5.4 c-1.33,-1.18,-3.3,-1.76,-5.89,-1.76 Z M382.76,89.09 l0,21.82 l4.95,0 l0,-21.82 Z M385.24,114.73 c-0.97,0.0,-1.76,0.16,-2.36,0.49 c-0.61,0.33,-0.91,0.92,-0.91,1.76 l0,0.33 c0,0.87,0.3,1.48,0.91,1.84 c0.61,0.35,1.39,0.53,2.36,0.53 c0.97,0,1.76,-0.18,2.36,-0.53 c0.61,-0.35,0.91,-0.96,0.91,-1.84 l0,-0.33 c0,-0.85,-0.3,-1.44,-0.91,-1.76 c-0.61,-0.33,-1.39,-0.49,-2.36,-0.49 Z M405.96,89.09 l-6.47,0 l-5.38,21.82 l4.87,0 l3.82,-17.78 l3.85,17.78 l4.69,0 Z M417.78,89.09 l0,21.82 l4.95,0 l0,-21.82 Z M420.25,114.73 c-0.97,0.0,-1.76,0.16,-2.36,0.49 c-0.61,0.33,-0.91,0.92,-0.91,1.76 l0,0.33 c0,0.87,0.3,1.48,0.91,1.84 c0.61,0.35,1.39,0.53,2.36,0.53 c0.97,0,1.76,-0.18,2.36,-0.53 c0.61,-0.35,0.91,-0.96,0.91,-1.84 l0,-0.33 c0,-0.85,-0.3,-1.44,-0.91,-1.76 c-0.61,-0.33,-1.39,-0.49,-2.36,-0.49 Z M439.05,88.84 c-2.06,0,-3.65,0.68,-4.78,2.04 c-1.13,1.36,-1.69,3.26,-1.69,5.71 l0,21.6 l4.91,0 l0,-21.6 c0,-1.28,0.19,-2.24,0.58,-2.85 c0.39,-0.62,0.97,-0.93,1.75,-0.93 c0.34,0,0.73,0.06,1.16,0.18 c0.44,0.12,0.85,0.28,1.24,0.47 l0.76,-3.64 c-0.58,-0.29,-1.21,-0.53,-1.89,-0.71 c-0.68,-0.18,-1.36,-0.27,-2.04,-0.27 Z M439.05,88.84" fill="rgb(0,0,0)" transform="matrix(1,0,0,-1,0,200)"/>
</svg>