<?xml version="1.0" encoding="UTF-8"?>
<svg height="200" version="1.1" width="500" xmlns="http://www.w3.org/2000/svg" xmlns:xlink="http://www.w3.org/1999/xlink">
 <path d="M0,0 l500,0 l0,200 l-500,0 Z M0,0" fill="rgb(255,255,255)" transform="matrix(1,0,0,-1,0,200)"/>
 <path d="M215.96,93.82 c-0.51,-1.75,-1.45,-3.06,-2.84,-3.95 c-1.38,-0.88,-3.09,-1.33,-5.13,-1.33 c-2.45,0,-4.37,0.68,-5.76,2.05 c-1.39,1.37,-2.09,3.25,-2.09,5.65 l0,7.13 c0.0,2.4,0.71,4.28,2.13,5.65 c1.42,1.37,3.36,2.05,5.84,2.05 c2.45,0,4.38,-0.7,5.78,-2.11 c1.41,-1.41,2.11,-3.35,2.11,-5.82 l0,-4.25 l-10.91,0 l0,-2.65 c0,-1.55,0.25,-2.64,0.75,-3.27 c0.5,-0.63,1.33,-0.95,2.49,-0.95 c1.02,0,1.78,0.22,2.27,0.65 c0.5,0.44,0.92,1.2,1.25,2.29 Z M205.09,103.35 l0,-1.45 l5.96,0 l0,1.24 c0,1.62,-0.23,2.79,-0.69,3.49 c-0.46,0.7,-1.22,1.05,-2.29,1.05 c-1.07,0,-1.83,-0.33,-2.29,-1 c-0.46,-0.67,-0.69,-1.78,-0.69,-3.33 Z M223.16,88.91 l0,21.82 l4.95,0 l0,-2.98 l0.8,0 c0.39,1.04,1.04,1.86,1.95,2.45 c0.91,0.59,1.93,0.89,3.07,0.89 c1.55,0,2.79,-0.61,3.71,-1.84 c0.92,-1.22,1.38,-2.87,1.38,-4.93 l0,-15.42 l-4.95,0 l0,14.62 c0,1.19,-0.18,2.08,-0.55,2.69 c-0.36,0.61,-0.91,0.91,-1.64,0.91 c-0.75,0,-1.45,-0.26,-2.11,-0.78 c-0.65,-0.52,-1.21,-1.23,-1.67,-2.13 l0,-15.31 Z M248.36,81.31 c-0.63,0,-1.28,0.07,-1.95,0.22 c-0.67,0.15,-1.32,0.34,-1.95,0.58 l0.55,3.67 c0.53,-0.24,1.03,-0.43,1.49,-0.56 c0.46,-0.13,0.88,-0.2,1.27,-0.2 c0.75,0,1.36,0.3,1.82,0.91 c0.46,0.61,0.69,1.61,0.69,3.02 l0,18.04 l-4.8,0 l0,3.75 l9.71,0 l0,-22.18 c0,-2.33,-0.64,-4.12,-1.91,-5.36 c-1.27,-1.25,-2.92,-1.87,-4.93,-1.87 Z M252.73,114.55 c-0.97,0,-1.76,0.16,-2.36,0.49 c-0.61,0.33,-0.91,0.92,-0.91,1.76 l0,0.33 c-0.0,0.87,0.3,1.48,0.91,1.84 c0.61,0.35,1.39,0.53,2.36,0.53 c0.97,-0.0,1.76,-0.18,2.36,-0.53 c0.61,-0.35,0.91,-0.96,0.91,-1.84 l0,-0.33 c0,-0.85,-0.3,-1.44,-0.91,-1.76 c-0.61,-0.33,-1.39,-0.49,-2.36,-0.49 Z M271.67,88.55 c-2.47,0,-4.41,0.7,-5.82,2.11 c-1.41,1.41,-2.11,3.36,-2.11,5.85 l0,6.51 c0,2.52,0.71,4.5,2.13,5.93 c1.42,1.43,3.36,2.15,5.84,2.15 c2.45,0,4.38,-0.72,5.78,-2.15 c1.41,-1.43,2.11,-3.41,2.11,-5.93 l0,-6.51 c0,-2.5,-0.7,-4.45,-2.11,-5.85 c-1.41,-1.41,-3.35,-2.11,-5.82,-2.11 Z M271.67,92.33 c1.04,0,1.8,0.33,2.27,1 c0.47,0.67,0.71,1.76,0.71,3.29 l0,6.4 c0,1.53,-0.24,2.63,-0.71,3.31 c-0.47,0.68,-1.23,1.02,-2.27,1.02 c-1.07,0,-1.83,-0.35,-2.29,-1.04 c-0.46,-0.69,-0.69,-1.8,-0.69,-3.33 l0,-6.36 c0,-1.53,0.23,-2.62,0.69,-3.29 c0.46,-0.67,1.22,-1,2.29,-1 Z M289.53,81.35 c-0.65,0,-1.36,0.04,-2.11,0.11 c-0.75,0.07,-1.56,0.17,-2.44,0.29 l0.33,3.75 c0.68,-0.12,1.3,-0.22,1.87,-0.29 c0.57,-0.07,1.07,-0.11,1.51,-0.11 c1.33,0,2.28,0.32,2.85,0.96 c0.57,0.64,1.01,1.58,1.33,2.82 l0.07,0.44 l-3.31,0 l-4.95,21.42 l4.87,0 l3.96,-18.51 l3.67,18.51 l4.73,0 l-4.84,-22.95 c-0.58,-2.33,-1.49,-3.98,-2.73,-4.96 c-1.24,-0.98,-2.85,-1.47,-4.84,-1.47 Z M289.53,81.35" fill="rgb(0,0,0)" transform="matrix(1,0,0,-1,0,200)"/>
</svg>