<?xml version="1.0" encoding="UTF-8"?>
<svg height="200" version="1.1" width="800" xmlns="http://www.w3.org/2000/svg" xmlns:xlink="http://www.w3.org/1999/xlink">
 <path d="M0,0 l800,0 l0,200 l-800,0 Z M0,0" fill="rgb(255,255,255)" transform="matrix(1,0,0,-1,0,200)"/>
 <path d="M329.91,89.09 l0,18.07 l-3.27,0 l0,3.75 l3.27,0 l0,1.93 c0,1.89,0.61,3.36,1.84,4.42 c1.22,1.05,2.84,1.58,4.85,1.58 c0.63,0,1.3,-0.09,2,-0.27 c0.7,-0.18,1.36,-0.39,1.96,-0.64 l-0.55,-3.45 c-0.51,0.19,-0.99,0.36,-1.45,0.49 c-0.46,0.13,-0.9,0.2,-1.31,0.2 c-0.75,0,-1.34,-0.19,-1.76,-0.56 c-0.42,-0.38,-0.64,-1.01,-0.64,-1.91 l0,-1.78 l5.45,0 l0,-3.75 l-5.45,0 l0,-18.07 Z M363.29,94 c-0.51,-1.75,-1.45,-3.06,-2.84,-3.95 c-1.38,-0.88,-3.09,-1.33,-5.13,-1.33 c-2.45,0,-4.37,0.68,-5.76,2.05 c-1.39,1.37,-2.09,3.25,-2.09,5.65 l0,7.13 c0,2.4,0.71,4.28,2.13,5.65 c1.42,1.37,3.36,2.05,5.84,2.05 c2.45,0,4.38,-0.7,5.78,-2.11 c1.41,-1.41,2.11,-3.35,2.11,-5.82 l0,-4.25 l-10.91,0 l0,-2.65 c0,-1.55,0.25,-2.64,0.75,-3.27 c0.5,-0.63,1.33,-0.95,2.49,-0.95 c1.02,0,1.78,0.22,2.27,0.65 c0.5,0.44,0.92,1.2,1.25,2.29 Z M352.42,103.53 l0,-1.45 l5.96,0 l0,1.24 c0,1.62,-0.23,2.79,-0.69,3.49 c-0.46,0.7,-1.22,1.05,-2.29,1.05 c-1.07,0,-1.83,-0.33,-2.29,-1 c-0.46,-0.67,-0.69,-1.78,-0.69,-3.33 Z M386.31,94 c-0.51,-1.75,-1.45,-3.06,-2.84,-3.95 c-1.38,-0.88,-3.09,-1.33,-5.13,-1.33 c-2.45,0,-4.37,0.68,-5.76,2.05 c-1.39,1.37,-2.09,3.25,-2.09,5.65 l0,7.13 c0,2.4,0.71,4.28,2.13,5.65 c1.42,1.37,3.36,2.05,5.84,2.05 c2.45,0,4.38,-0.7,5.78,-2.11 c1.41,-1.41,2.11,-3.35,2.11,-5.82 l0,-4.25 l-10.91,0 l0,-2.65 c0,-1.55,0.25,-2.64,0.75,-3.27 c0.5,-0.63,1.33,-0.95,2.49,-0.95 c1.02,0,1.78,0.22,2.27,0.65 c0.5,0.44,0.92,1.2,1.25,2.29 Z M375.44,103.53 l0,-1.45 l5.96,0 l0,1.24 c0,1.62,-0.23,2.79,-0.69,3.49 c-0.46,0.7,-1.22,1.05,-2.29,1.05 c-1.07,0,-1.83,-0.33,-2.29,-1 c-0.46,-0.67,-0.69,-1.78,-0.69,-3.33 Z M400.82,92.73 c0.68,0,1.32,0.22,1.93,0.65 c0.61,0.44,1.16,1.13,1.67,2.07 l0,10.84 c-0.53,0.44,-1.04,0.76,-1.53,0.96 c-0.48,0.21,-0.98,0.31,-1.49,0.31 c-1.02,0,-1.76,-0.32,-2.24,-0.96 c-0.47,-0.64,-0.71,-1.63,-0.71,-2.96 l0,-7.24 c0,-1.26,0.21,-2.19,0.62,-2.78 c0.41,-0.59,0.99,-0.89,1.75,-0.89 Z M403.62,92.29 c-0.32,-1.12,-0.91,-1.99,-1.78,-2.62 c-0.87,-0.63,-1.93,-0.95,-3.16,-0.95 c-1.62,0,-2.89,0.65,-3.8,1.96 c-0.91,1.31,-1.36,3.15,-1.36,5.53 l0,7.45 c0.0,2.4,0.62,4.26,1.87,5.58 c1.25,1.32,2.98,1.98,5.18,1.98 c0.68,-0.0,1.35,-0.08,2,-0.25 c0.65,-0.17,1.27,-0.41,1.85,-0.73 l0,7.93 l4.95,0 l0,-29.09 l-4.95,0 l0,3.2 Z M417.84,89.09 l0,21.82 l4.95,0 l0,-21.82 Z M420.31,114.73 c-0.97,0.0,-1.76,0.16,-2.36,0.49 c-0.61,0.33,-0.91,0.92,-0.91,1.76 l0,0.33 c-0.0,0.87,0.3,1.48,0.91,1.84 c0.61,0.35,1.39,0.53,2.36,0.53 c0.97,0,1.76,-0.18,2.36,-0.53 c0.61,-0.35,0.91,-0.96,0.91,-1.84 l0,-0.33 c0.0,-0.85,-0.3,-1.44,-0.91,-1.76 c-0.61,-0.33,-1.39,-0.49,-2.36,-0.49 Z M431.25,89.09 l0,21.82 l4.95,0 l0,-2.98 l0.8,0 c0.39,1.04,1.04,1.86,1.95,2.45 c0.91,0.59,1.93,0.89,3.07,0.89 c1.55,0,2.79,-0.61,3.71,-1.84 c0.92,-1.22,1.38,-2.87,1.38,-4.93 l0,-15.42 l-4.95,0 l0,14.62 c0,1.19,-0.18,2.08,-0.55,2.69 c-0.36,0.61,-0.91,0.91,-1.64,0.91 c-0.75,0,-1.45,-0.26,-2.11,-0.78 c-0.65,-0.52,-1.21,-1.23,-1.67,-2.13 l0,-15.31 Z M472.85,87.53 c0,-1.96,-0.57,-3.47,-1.71,-4.51 c-1.14,-1.04,-2.72,-1.56,-4.73,-1.56 l-5.42,0 c-2.23,0,-3.91,0.45,-5.04,1.35 c-1.13,0.9,-1.69,2.21,-1.69,3.93 c-0.0,1.19,0.28,2.13,0.85,2.84 c0.57,0.7,1.28,1.12,2.13,1.24 l0,0.73 c-0.68,0.19,-1.25,0.57,-1.71,1.13 c-0.46,0.56,-0.69,1.42,-0.69,2.58 c0,1.12,0.36,2.09,1.09,2.93 c0.73,0.84,1.65,1.33,2.76,1.47 l0,0.69 c-0.99,0.36,-1.75,0.94,-2.27,1.73 c-0.52,0.79,-0.78,1.61,-0.78,2.45 l0,0.73 c-0.0,1.72,0.62,3.1,1.87,4.13 c1.25,1.03,3.08,1.55,5.51,1.55 l9.67,0 l0,-3.45 l-4.44,0.8 l0,-0.69 c0.68,-0.27,1.24,-0.76,1.67,-1.49 c0.44,-0.73,0.65,-1.5,0.65,-2.33 l0,-0.69 c0,-1.67,-0.62,-3.02,-1.85,-4.04 c-1.24,-1.02,-3.12,-1.53,-5.64,-1.53 l-2.8,0 c-0.56,0,-1.0,-0.15,-1.33,-0.45 c-0.33,-0.3,-0.49,-0.83,-0.49,-1.58 c0,-0.7,0.18,-1.22,0.53,-1.56 c0.35,-0.34,0.83,-0.51,1.44,-0.51 l6.18,0 c1.94,0,3.46,-0.47,4.56,-1.4 c1.1,-0.93,1.65,-2.42,1.65,-4.45 Z M463.15,100.4 c0.97,0,1.67,0.26,2.09,0.78 c0.42,0.52,0.64,1.3,0.64,2.35 l0,1.13 c0,1.04,-0.22,1.81,-0.65,2.31 c-0.44,0.5,-1.13,0.75,-2.07,0.75 c-0.97,0,-1.67,-0.25,-2.11,-0.75 c-0.44,-0.5,-0.65,-1.27,-0.65,-2.31 l0,-1.13 c0,-1.04,0.21,-1.82,0.64,-2.35 c0.42,-0.52,1.13,-0.78,2.13,-0.78 Z M461.04,84.65 l5.2,0 c0.75,0,1.38,0.18,1.87,0.53 c0.5,0.35,0.75,1.01,0.75,1.98 c0,0.92,-0.24,1.56,-0.73,1.93 c-0.48,0.36,-1.09,0.55,-1.82,0.55 l-7.38,0 l0,-2.25 c0,-0.92,0.18,-1.61,0.53,-2.05 c0.35,-0.45,0.88,-0.67,1.58,-0.67 Z M461.04,84.65" fill="rgb(0,0,0)" transform="matrix(1,0,0,-1,0,200)"/>
</svg>