<?xml version="1.0" encoding="UTF-8"?>
<svg height="200" version="1.1" width="500" xmlns="http://www.w3.org/2000/svg" xmlns:xlink="http://www.w3.org/1999/xlink">
 <path d="M0,0 l500,0 l0,200 l-500,0 Z M0,0" fill="rgb(255,255,255)" transform="matrix(1,0,0,-1,0,200)"/>
 <path d="M208.38,88.91 l0,18.07 l-3.27,0 l0,3.75 l3.27,0 l0,1.93 c0,1.89,0.61,3.36,1.84,4.42 c1.22,1.05,2.84,1.58,4.85,1.58 c0.63,0,1.3,-0.09,2,-0.27 c0.7,-0.18,1.36,-0.39,1.96,-0.64 l-0.55,-3.45 c-0.51,0.19,-0.99,0.36,-1.45,0.49 c-0.46,0.13,-0.9,0.2,-1.31,0.2 c-0.75,0,-1.34,-0.19,-1.76,-0.56 c-0.42,-0.38,-0.64,-1.01,-0.64,-1.91 l0,-1.78 l5.45,0 l0,-3.75 l-5.45,0 l0,-18.07 Z M227.25,88.91 l0,21.82 l4.95,0 l0,-21.82 Z M229.73,114.55 c-0.97,0,-1.76,0.16,-2.36,0.49 c-0.61,0.33,-0.91,0.92,-0.91,1.76 l0,0.33 c0,0.87,0.3,1.48,0.91,1.84 c0.61,0.35,1.39,0.53,2.36,0.53 c0.97,-0.0,1.76,-0.18,2.36,-0.53 c0.61,-0.35,0.91,-0.96,0.91,-1.84 l0,-0.33 c0,-0.85,-0.3,-1.44,-0.91,-1.76 c-0.61,-0.33,-1.39,-0.49,-2.36,-0.49 Z M243.4,88.91 l0,18.07 l-3.27,0 l0,3.75 l3.27,0 l0,1.93 c0,1.89,0.61,3.36,1.84,4.42 c1.22,1.05,2.84,1.58,4.85,1.58 c0.63,0,1.3,-0.09,2,-0.27 c0.7,-0.18,1.36,-0.39,1.96,-0.64 l-0.55,-3.45 c-0.51,0.19,-0.99,0.36,-1.45,0.49 c-0.46,0.13,-0.9,0.2,-1.31,0.2 c-0.75,0,-1.34,-0.19,-1.76,-0.56 c-0.42,-0.38,-0.64,-1.01,-0.64,-1.91 l0,-1.78 l5.45,0 l0,-3.75 l-5.45,0 l0,-18.07 Z M270.45,88.55 c-2.21,0,-3.88,0.59,-5.04,1.76 c-1.15,1.18,-1.73,2.89,-1.73,5.15 l0,11.53 l-3.27,0 l0,3.75 l3.27,0 l0,7.27 l4.95,0 l0,-7.27 l5.56,0 l0,-3.75 l-5.56,0 l0,-11.27 c0,-1.16,0.23,-2.01,0.69,-2.55 c0.46,-0.53,1.08,-0.8,1.85,-0.8 c0.36,0,0.78,0.06,1.24,0.18 c0.46,0.12,0.95,0.3,1.45,0.55 l0.55,-3.67 c-0.46,-0.27,-1.05,-0.48,-1.76,-0.64 c-0.72,-0.16,-1.45,-0.24,-2.2,-0.24 Z M284.02,81.35 c-0.65,0,-1.36,0.04,-2.11,0.11 c-0.75,0.07,-1.56,0.17,-2.44,0.29 l0.33,3.75 c0.68,-0.12,1.3,-0.22,1.87,-0.29 c0.57,-0.07,1.07,-0.11,1.51,-0.11 c1.33,0,2.28,0.32,2.85,0.96 c0.57,0.64,1.01,1.58,1.33,2.82 l0.07,0.44 l-3.31,0 l-4.95,21.42 l4.87,0 l3.96,-18.51 l3.67,18.51 l4.73,0 l-4.84,-22.95 c-0.58,-2.33,-1.49,-3.98,-2.73,-4.96 c-1.24,-0.98,-2.85,-1.47,-4.84,-1.47 Z M284.02,81.35" fill="rgb(0,0,0)" transform="matrix(1,0,0,-1,0,200)"/>
</svg>