<?xml version="1.0" encoding="UTF-8"?>
<svg height="200" version="1.1" width="500" xmlns="http://www.w3.org/2000/svg" xmlns:xlink="http://www.w3.org/1999/xlink">
 <path d="M0,0 l500,0 l0,200 l-500,0 Z M0,0" fill="rgb(255,255,255)" transform="matrix(1,0,0,-1,0,200)"/>
 <path d="M211.36,87.35 c0,-1.96,-0.57,-3.47,-1.71,-4.51 c-1.14,-1.04,-2.72,-1.56,-4.73,-1.56 l-5.42,0 c-2.23,0,-3.91,0.45,-5.04,1.35 c-1.13,0.9,-1.69,2.21,-1.69,3.93 c-0.0,1.19,0.28,2.13,0.85,2.84 c0.57,0.7,1.28,1.12,2.13,1.24 l0,0.73 c-0.68,0.19,-1.25,0.57,-1.71,1.13 c-0.46,0.56,-0.69,1.42,-0.69,2.58 c0,1.12,0.36,2.09,1.09,2.93 c0.73,0.84,1.65,1.33,2.76,1.47 l0,0.69 c-0.99,0.36,-1.75,0.94,-2.27,1.73 c-0.52,0.79,-0.78,1.61,-0.78,2.45 l0,0.73 c0,1.72,0.62,3.1,1.87,4.13 c1.25,1.03,3.08,1.55,5.51,1.55 l9.67,0 l0,-3.45 l-4.44,0.8 l0,-0.69 c0.68,-0.27,1.24,-0.76,1.67,-1.49 c0.44,-0.73,0.65,-1.5,0.65,-2.33 l0,-0.69 c0,-1.67,-0.62,-3.02,-1.85,-4.04 c-1.24,-1.02,-3.12,-1.53,-5.64,-1.53 l-2.8,0 c-0.56,0,-1.0,-0.15,-1.33,-0.45 c-0.33,-0.3,-0.49,-0.83,-0.49,-1.58 c0,-0.7,0.18,-1.22,0.53,-1.56 c0.35,-0.34,0.83,-0.51,1.44,-0.51 l6.18,0 c1.94,0,3.46,-0.47,4.56,-1.4 c1.1,-0.93,1.65,-2.42,1.65,-4.45 Z M201.65,100.22 c0.97,0,1.67,0.26,2.09,0.78 c0.42,0.52,0.64,1.3,0.64,2.35 l0,1.13 c0,1.04,-0.22,1.81,-0.65,2.31 c-0.44,0.5,-1.13,0.75,-2.07,0.75 c-0.97,0,-1.67,-0.25,-2.11,-0.75 c-0.44,-0.5,-0.65,-1.27,-0.65,-2.31 l0,-1.13 c0,-1.04,0.21,-1.82,0.64,-2.35 c0.42,-0.52,1.13,-0.78,2.13,-0.78 Z M199.55,84.47 l5.2,0 c0.75,0,1.38,0.18,1.87,0.53 c0.5,0.35,0.75,1.01,0.75,1.98 c0,0.92,-0.24,1.56,-0.73,1.93 c-0.48,0.36,-1.09,0.55,-1.82,0.55 l-7.38,0 l0,-2.25 c0,-0.92,0.18,-1.61,0.53,-2.05 c0.35,-0.45,0.88,-0.67,1.58,-0.67 Z M223.65,88.55 c-1.6,0,-2.85,0.61,-3.76,1.84 c-0.91,1.22,-1.36,2.88,-1.36,4.96 l0,15.38 l4.95,0 l0,-14.62 c0,-1.19,0.18,-2.08,0.55,-2.67 c0.36,-0.59,0.91,-0.89,1.64,-0.89 c0.75,0,1.45,0.25,2.11,0.76 c0.65,0.51,1.21,1.22,1.67,2.15 l0,15.27 l4.95,0 l0,-21.82 l-4.95,0 l0,3.02 l-0.8,0 c-0.32,-1.04,-0.93,-1.87,-1.84,-2.47 c-0.91,-0.61,-1.96,-0.91,-3.15,-0.91 Z M242.85,88.91 l0,21.82 l4.95,0 l0,-21.82 Z M245.33,114.55 c-0.97,0,-1.76,0.16,-2.36,0.49 c-0.61,0.33,-0.91,0.92,-0.91,1.76 l0,0.33 c-0.0,0.87,0.3,1.48,0.91,1.84 c0.61,0.35,1.39,0.53,2.36,0.53 c0.97,-0.0,1.76,-0.18,2.36,-0.53 c0.61,-0.35,0.91,-0.96,0.91,-1.84 l0,-0.33 c0,-0.85,-0.3,-1.44,-0.91,-1.76 c-0.61,-0.33,-1.39,-0.49,-2.36,-0.49 Z M264.13,88.65 c-2.06,0,-3.65,0.68,-4.78,2.04 c-1.13,1.36,-1.69,3.26,-1.69,5.71 l0,21.6 l4.91,0 l0,-21.6 c0,-1.28,0.19,-2.24,0.58,-2.85 c0.39,-0.62,0.97,-0.93,1.75,-0.93 c0.34,0,0.73,0.06,1.16,0.18 c0.44,0.12,0.85,0.28,1.24,0.47 l0.76,-3.64 c-0.58,-0.29,-1.21,-0.53,-1.89,-0.71 c-0.68,-0.18,-1.36,-0.27,-2.04,-0.27 Z M283.33,88.55 c-2.21,0,-3.88,0.59,-5.04,1.76 c-1.15,1.18,-1.73,2.89,-1.73,5.15 l0,11.53 l-3.27,0 l0,3.75 l3.27,0 l0,7.27 l4.95,0 l0,-7.27 l5.56,0 l0,-3.75 l-5.56,0 l0,-11.27 c0,-1.16,0.23,-2.01,0.69,-2.55 c0.46,-0.53,1.08,-0.8,1.85,-0.8 c0.36,0,0.78,0.06,1.24,0.18 c0.46,0.12,0.95,0.3,1.45,0.55 l0.55,-3.67 c-0.46,-0.27,-1.05,-0.48,-1.76,-0.64 c-0.72,-0.16,-1.45,-0.24,-2.2,-0.24 Z M296.89,81.35 c-0.65,0,-1.36,0.04,-2.11,0.11 c-0.75,0.07,-1.56,0.17,-2.44,0.29 l0.33,3.75 c0.68,-0.12,1.3,-0.22,1.87,-0.29 c0.57,-0.07,1.07,-0.11,1.51,-0.11 c1.33,0,2.28,0.32,2.85,0.96 c0.57,0.64,1.01,1.58,1.33,2.82 l0.07,0.44 l-3.31,0 l-4.95,21.42 l4.87,0 l3.96,-18.51 l3.67,18.51 l4.73,0 l-4.84,-22.95 c-0.58,-2.33,-1.49,-3.98,-2.73,-4.96 c-1.24,-0.98,-2.85,-1.47,-4.84,-1.47 Z M296.89,81.35" fill="rgb(0,0,0)" transform="matrix(1,0,0,-1,0,200)"/>
</svg>