<?xml version="1.0" encoding="UTF-8"?>
<svg height="200" version="1.1" width="800" xmlns="http://www.w3.org/2000/svg" xmlns:xlink="http://www.w3.org/1999/xlink">
 <path d="M0,0 l800,0 l0,200 l-800,0 Z M0,0" fill="rgb(255,255,255)" transform="matrix(1,0,0,-1,0,200)"/>
 <path d="M360.73,88.84 c-2.06,0,-3.65,0.68,-4.78,2.04 c-1.13,1.36,-1.69,3.26,-1.69,5.71 l0,21.6 l4.91,0 l0,-21.6 c0,-1.28,0.19,-2.24,0.58,-2.85 c0.39,-0.62,0.97,-0.93,1.75,-0.93 c0.34,0,0.73,0.06,1.16,0.18 c0.44,0.12,0.85,0.28,1.24,0.47 l0.76,-3.64 c-0.58,-0.29,-1.21,-0.53,-1.89,-0.71 c-0.68,-0.18,-1.36,-0.27,-2.04,-0.27 Z M386.25,94 c-0.51,-1.75,-1.45,-3.06,-2.84,-3.95 c-1.38,-0.88,-3.09,-1.33,-5.13,-1.33 c-2.45,0,-4.37,0.68,-5.76,2.05 c-1.39,1.37,-2.09,3.25,-2.09,5.65 l0,7.13 c0,2.4,0.71,4.28,2.13,5.65 c1.42,1.37,3.36,2.05,5.84,2.05 c2.45,0,4.38,-0.7,5.78,-2.11 c1.41,-1.41,2.11,-3.35,2.11,-5.82 l0,-4.25 l-10.91,0 l0,-2.65 c0,-1.55,0.25,-2.64,0.75,-3.27 c0.5,-0.63,1.33,-0.95,2.49,-0.95 c1.02,0,1.78,0.22,2.27,0.65 c0.5,0.44,0.92,1.2,1.25,2.29 Z M375.38,103.53 l0,-1.45 l5.96,0 l0,1.24 c0,1.62,-0.23,2.79,-0.69,3.49 c-0.46,0.7,-1.22,1.05,-2.29,1.05 c-1.07,0,-1.83,-0.33,-2.29,-1 c-0.46,-0.67,-0.69,-1.78,-0.69,-3.33 Z M403.24,89.09 l-6.47,0 l-5.38,21.82 l4.87,0 l3.82,-17.78 l3.85,17.78 l4.69,0 Z M429.56,94 c-0.51,-1.75,-1.45,-3.06,-2.84,-3.95 c-1.38,-0.88,-3.09,-1.33,-5.13,-1.33 c-2.45,0,-4.37,0.68,-5.76,2.05 c-1.39,1.37,-2.09,3.25,-2.09,5.65 l0,7.13 c0,2.4,0.71,4.28,2.13,5.65 c1.42,1.37,3.36,2.05,5.84,2.05 c2.45,0,4.38,-0.7,5.78,-2.11 c1.41,-1.41,2.11,-3.35,2.11,-5.82 l0,-4.25 l-10.91,0 l0,-2.65 c-0.0,-1.55,0.25,-2.64,0.75,-3.27 c0.5,-0.63,1.33,-0.95,2.49,-0.95 c1.02,0,1.78,0.22,2.27,0.65 c0.5,0.44,0.92,1.2,1.25,2.29 Z M418.69,103.53 l0,-1.45 l5.96,0 l0,1.24 c0,1.62,-0.23,2.79,-0.69,3.49 c-0.46,0.7,-1.22,1.05,-2.29,1.05 c-1.07,0,-1.83,-0.33,-2.29,-1 c-0.46,-0.67,-0.69,-1.78,-0.69,-3.33 Z M444.62,88.84 c-2.06,0,-3.65,0.68,-4.78,2.04 c-1.13,1.36,-1.69,3.26,-1.69,5.71 l0,21.6 l4.91,0 l0,-21.6 c0,-1.28,0.19,-2.24,0.58,-2.85 c0.39,-0.62,0.97,-0.93,1.75,-0.93 c0.34,0,0.73,0.06,1.16,0.18 c0.44,0.12,0.85,0.28,1.24,0.47 l0.76,-3.64 c-0.58,-0.29,-1.21,-0.53,-1.89,-0.71 c-0.68,-0.18,-1.36,-0.27,-2.04,-0.27 Z M444.62,88.84" fill="rgb(0,0,0)" transform="matrix(1,0,0,-1,0,200)"/>
</svg>