<?xml version="1.0" encoding="UTF-8"?>
<svg height="200" version="1.1" width="500" xmlns="http://www.w3.org/2000/svg" xmlns:xlink="http://www.w3.org/1999/xlink">
 <path d="M0,0 l500,0 l0,200 l-500,0 Z M0,0" fill="rgb(255,255,255)" transform="matrix(1,0,0,-1,0,200)"/>
 <path d="M181.82,88.91 l0,21.82 l4.95,0 l0,-2.98 l0.8,0 c0.39,1.04,1.04,1.86,1.95,2.45 c0.91,0.59,1.93,0.89,3.07,0.89 c1.55,0,2.79,-0.61,3.71,-1.84 c0.92,-1.22,1.38,-2.87,1.38,-4.93 l0,-15.42 l-4.95,0 l0,14.62 c0.0,1.19,-0.18,2.08,-0.55,2.69 c-0.36,0.61,-0.91,0.91,-1.64,0.91 c-0.75,0,-1.45,-0.26,-2.11,-0.78 c-0.65,-0.52,-1.21,-1.23,-1.67,-2.13 l0,-15.31 Z M209.96,88.55 c-1.6,0,-2.85,0.61,-3.76,1.84 c-0.91,1.22,-1.36,2.88,-1.36,4.96 l0,15.38 l4.95,0 l0,-14.62 c0,-1.19,0.18,-2.08,0.55,-2.67 c0.36,-0.59,0.91,-0.89,1.64,-0.89 c0.75,0,1.45,0.25,2.11,0.76 c0.65,0.51,1.21,1.22,1.67,2.15 l0,15.27 l4.95,0 l0,-21.82 l-4.95,0 l0,3.02 l-0.8,0 c-0.32,-1.04,-0.93,-1.87,-1.84,-2.47 c-0.91,-0.61,-1.96,-0.91,-3.15,-0.91 Z M232.8,104.65 l0,-15.75 l-4.95,0 l0,21.82 l4.95,0 l0,-2.98 l0.8,0 c0.32,1.02,0.88,1.83,1.69,2.44 c0.81,0.61,1.72,0.91,2.71,0.91 c0.95,0,1.76,-0.3,2.44,-0.89 c0.68,-0.59,1.18,-1.41,1.49,-2.45 l1.2,0 c0.34,1.02,0.9,1.83,1.69,2.44 c0.79,0.61,1.67,0.91,2.64,0.91 c1.36,0,2.44,-0.57,3.24,-1.71 c0.8,-1.14,1.2,-2.72,1.2,-4.73 l0,-15.75 l-4.95,0 l0,15.35 c0,0.95,-0.14,1.66,-0.42,2.15 c-0.28,0.48,-0.7,0.73,-1.25,0.73 c-0.58,0,-1.13,-0.21,-1.64,-0.62 c-0.51,-0.41,-0.95,-1.03,-1.31,-1.85 l0,-15.75 l-4.91,0 l0,15.35 c0,0.95,-0.14,1.66,-0.42,2.15 c-0.28,0.48,-0.68,0.73,-1.22,0.73 c-0.61,0,-1.16,-0.21,-1.67,-0.62 c-0.51,-0.41,-0.95,-1.03,-1.31,-1.85 Z M266.76,88.58 c-1.55,0,-3.0,0.22,-4.35,0.65 c-1.35,0.44,-2.47,1.09,-3.36,1.96 l0,26.8 l4.95,0 l0,-10.25 l0.8,0 c0.32,1.07,0.89,1.89,1.73,2.47 c0.84,0.58,1.86,0.87,3.07,0.87 c1.7,0,3.01,-0.64,3.93,-1.93 c0.92,-1.28,1.38,-3.13,1.38,-5.53 l0,-7.49 c0,-2.42,-0.7,-4.29,-2.09,-5.6 c-1.39,-1.31,-3.41,-1.96,-6.05,-1.96 Z M267.02,92.29 c1.04,0,1.79,0.3,2.25,0.91 c0.46,0.61,0.69,1.61,0.69,3.02 l0,7.2 c0,1.31,-0.21,2.25,-0.62,2.84 c-0.41,0.58,-1.01,0.87,-1.78,0.87 c-0.68,0,-1.32,-0.21,-1.93,-0.62 c-0.61,-0.41,-1.15,-1.07,-1.64,-1.96 l0,-11.27 c0.34,-0.32,0.76,-0.56,1.25,-0.73 c0.5,-0.17,1.08,-0.25,1.76,-0.25 Z M297.89,93.82 c-0.51,-1.75,-1.45,-3.06,-2.84,-3.95 c-1.38,-0.88,-3.09,-1.33,-5.13,-1.33 c-2.45,0,-4.37,0.68,-5.76,2.05 c-1.39,1.37,-2.09,3.25,-2.09,5.65 l0,7.13 c0,2.4,0.71,4.28,2.13,5.65 c1.42,1.37,3.36,2.05,5.84,2.05 c2.45,0,4.38,-0.7,5.78,-2.11 c1.41,-1.41,2.11,-3.35,2.11,-5.82 l0,-4.25 l-10.91,0 l0,-2.65 c0,-1.55,0.25,-2.64,0.75,-3.27 c0.5,-0.63,1.33,-0.95,2.49,-0.95 c1.02,0,1.78,0.22,2.27,0.65 c0.5,0.44,0.92,1.2,1.25,2.29 Z M287.02,103.35 l0,-1.45 l5.96,0 l0,1.24 c0,1.62,-0.23,2.79,-0.69,3.49 c-0.46,0.7,-1.22,1.05,-2.29,1.05 c-1.07,0,-1.83,-0.33,-2.29,-1 c-0.46,-0.67,-0.69,-1.78,-0.69,-3.33 Z M305.09,88.91 l0,21.82 l4.95,0 l0,-2.98 l0.8,0 c0.32,1.19,0.88,2.04,1.71,2.56 c0.82,0.52,1.7,0.78,2.62,0.78 c1.45,0,2.55,-0.5,3.27,-1.49 c0.73,-0.99,1.09,-2.39,1.09,-4.18 l0,-3.96 l-4.51,0 l0,3.27 c0,0.73,-0.14,1.31,-0.42,1.75 c-0.28,0.44,-0.72,0.65,-1.33,0.65 c-0.56,0,-1.14,-0.27,-1.75,-0.8 c-0.61,-0.53,-1.1,-1.22,-1.49,-2.07 l0,-15.35 Z M305.09,88.91" fill="rgb(0,0,0)" transform="matrix(1,0,0,-1,0,200)"/>
</svg>