<?xml version="1.0" encoding="UTF-8"?>
<svg height="200" version="1.1" width="500" xmlns="http://www.w3.org/2000/svg" xmlns:xlink="http://www.w3.org/1999/xlink">
 <path d="M0,0 l500,0 l0,200 l-500,0 Z M0,0" fill="rgb(255,255,255)" transform="matrix(1,0,0,-1,0,200)"/>
 <path d="M177.76,88.58 c-1.6,0,-3.13,0.26,-4.58,0.78 c-1.45,0.52,-2.69,1.18,-3.71,1.98 l1.2,3.27 c1.07,-0.7,2.24,-1.3,3.51,-1.78 c1.27,-0.48,2.5,-0.73,3.69,-0.73 c1.04,0,1.83,0.2,2.36,0.6 c0.53,0.4,0.8,1.01,0.8,1.84 c0,0.99,-0.33,1.68,-1,2.05 c-0.67,0.38,-1.9,0.82,-3.69,1.33 c-1.84,0.51,-3.36,1.22,-4.55,2.15 c-1.19,0.92,-1.78,2.4,-1.78,4.44 c0,2.04,0.65,3.64,1.95,4.82 c1.3,1.18,3.04,1.76,5.22,1.76 c1.45,0,2.85,-0.24,4.2,-0.73 c1.35,-0.48,2.47,-1.09,3.36,-1.82 l-0.98,-3.16 c-1.04,0.65,-2.1,1.19,-3.16,1.6 c-1.07,0.41,-2.07,0.62,-3.02,0.62 c-0.92,0,-1.63,-0.21,-2.13,-0.64 c-0.5,-0.42,-0.75,-1.05,-0.75,-1.87 c0,-0.97,0.35,-1.66,1.05,-2.07 c0.7,-0.41,1.99,-0.88,3.85,-1.42 c2.01,-0.56,3.53,-1.3,4.56,-2.22 c1.03,-0.92,1.55,-2.33,1.55,-4.22 c0,-2.01,-0.7,-3.61,-2.11,-4.8 c-1.41,-1.19,-3.36,-1.78,-5.85,-1.78 Z M200.71,88.55 c-2.47,0,-4.41,0.7,-5.82,2.11 c-1.41,1.41,-2.11,3.36,-2.11,5.85 l0,6.51 c-0.0,2.52,0.71,4.5,2.13,5.93 c1.42,1.43,3.36,2.15,5.84,2.15 c2.45,0,4.38,-0.72,5.78,-2.15 c1.41,-1.43,2.11,-3.41,2.11,-5.93 l0,-6.51 c0,-2.5,-0.7,-4.45,-2.11,-5.85 c-1.41,-1.41,-3.35,-2.11,-5.82,-2.11 Z M200.71,92.33 c1.04,0,1.8,0.33,2.27,1 c0.47,0.67,0.71,1.76,0.71,3.29 l0,6.4 c0,1.53,-0.24,2.63,-0.71,3.31 c-0.47,0.68,-1.23,1.02,-2.27,1.02 c-1.07,0,-1.83,-0.35,-2.29,-1.04 c-0.46,-0.69,-0.69,-1.8,-0.69,-3.33 l0,-6.36 c0.0,-1.53,0.23,-2.62,0.69,-3.29 c0.46,-0.67,1.22,-1,2.29,-1 Z M223.65,88.65 c-2.06,0,-3.65,0.68,-4.78,2.04 c-1.13,1.36,-1.69,3.26,-1.69,5.71 l0,21.6 l4.91,0 l0,-21.6 c0,-1.28,0.19,-2.24,0.58,-2.85 c0.39,-0.62,0.97,-0.93,1.75,-0.93 c0.34,0,0.73,0.06,1.16,0.18 c0.44,0.12,0.85,0.28,1.24,0.47 l0.76,-3.64 c-0.58,-0.29,-1.21,-0.53,-1.89,-0.71 c-0.68,-0.18,-1.36,-0.27,-2.04,-0.27 Z M240.67,92.55 c0.68,0,1.32,0.22,1.93,0.65 c0.61,0.44,1.16,1.13,1.67,2.07 l0,10.84 c-0.53,0.44,-1.04,0.76,-1.53,0.96 c-0.48,0.21,-0.98,0.31,-1.49,0.31 c-1.02,0,-1.76,-0.32,-2.24,-0.96 c-0.47,-0.64,-0.71,-1.63,-0.71,-2.96 l0,-7.24 c0,-1.26,0.21,-2.19,0.62,-2.78 c0.41,-0.59,0.99,-0.89,1.75,-0.89 Z M243.47,92.11 c-0.32,-1.12,-0.91,-1.99,-1.78,-2.62 c-0.87,-0.63,-1.93,-0.95,-3.16,-0.95 c-1.62,0,-2.89,0.65,-3.8,1.96 c-0.91,1.31,-1.36,3.15,-1.36,5.53 l0,7.45 c0.0,2.4,0.62,4.26,1.87,5.58 c1.25,1.32,2.98,1.98,5.18,1.98 c0.68,0.0,1.35,-0.08,2,-0.25 c0.65,-0.17,1.27,-0.41,1.85,-0.73 l0,7.93 l4.95,0 l0,-29.09 l-4.95,0 l0,3.2 Z M257.69,88.91 l0,21.82 l4.95,0 l0,-21.82 Z M260.16,114.55 c-0.97,0,-1.76,0.16,-2.36,0.49 c-0.61,0.33,-0.91,0.92,-0.91,1.76 l0,0.33 c0,0.87,0.3,1.48,0.91,1.84 c0.61,0.35,1.39,0.53,2.36,0.53 c0.97,-0.0,1.76,-0.18,2.36,-0.53 c0.61,-0.35,0.91,-0.96,0.91,-1.84 l0,-0.33 c0,-0.85,-0.3,-1.44,-0.91,-1.76 c-0.61,-0.33,-1.39,-0.49,-2.36,-0.49 Z M286.93,93.82 c-0.51,-1.75,-1.45,-3.06,-2.84,-3.95 c-1.38,-0.88,-3.09,-1.33,-5.13,-1.33 c-2.45,0,-4.37,0.68,-5.76,2.05 c-1.39,1.37,-2.09,3.25,-2.09,5.65 l0,7.13 c0,2.4,0.71,4.28,2.13,5.65 c1.42,1.37,3.36,2.05,5.84,2.05 c2.45,0,4.38,-0.7,5.78,-2.11 c1.41,-1.41,2.11,-3.35,2.11,-5.82 l0,-4.25 l-10.91,0 l0,-2.65 c0,-1.55,0.25,-2.64,0.75,-3.27 c0.5,-0.63,1.33,-0.95,2.49,-0.95 c1.02,0,1.78,0.22,2.27,0.65 c0.5,0.44,0.92,1.2,1.25,2.29 Z M276.05,103.35 l0,-1.45 l5.96,0 l0,1.24 c0,1.62,-0.23,2.79,-0.69,3.49 c-0.46,0.7,-1.22,1.05,-2.29,1.05 c-1.07,0,-1.83,-0.33,-2.29,-1 c-0.46,-0.67,-0.69,-1.78,-0.69,-3.33 Z M294.13,88.91 l0,21.82 l4.95,0 l0,-2.98 l0.8,0 c0.32,1.19,0.88,2.04,1.71,2.56 c0.82,0.52,1.7,0.78,2.62,0.78 c1.45,0,2.55,-0.5,3.27,-1.49 c0.73,-0.99,1.09,-2.39,1.09,-4.18 l0,-3.96 l-4.51,0 l0,3.27 c0,0.73,-0.14,1.31,-0.42,1.75 c-0.28,0.44,-0.72,0.65,-1.33,0.65 c-0.56,0,-1.14,-0.27,-1.75,-0.8 c-0.61,-0.53,-1.1,-1.22,-1.49,-2.07 l0,-15.35 Z M322.42,88.58 c-1.6,0,-3.13,0.26,-4.58,0.78 c-1.45,0.52,-2.69,1.18,-3.71,1.98 l1.2,3.27 c1.07,-0.7,2.24,-1.3,3.51,-1.78 c1.27,-0.48,2.5,-0.73,3.69,-0.73 c1.04,0,1.83,0.2,2.36,0.6 c0.53,0.4,0.8,1.01,0.8,1.84 c0,0.99,-0.33,1.68,-1,2.05 c-0.67,0.38,-1.9,0.82,-3.69,1.33 c-1.84,0.51,-3.36,1.22,-4.55,2.15 c-1.19,0.92,-1.78,2.4,-1.78,4.44 c0,2.04,0.65,3.64,1.95,4.82 c1.3,1.18,3.04,1.76,5.22,1.76 c1.45,0,2.85,-0.24,4.2,-0.73 c1.35,-0.48,2.47,-1.09,3.36,-1.82 l-0.98,-3.16 c-1.04,0.65,-2.1,1.19,-3.16,1.6 c-1.07,0.41,-2.07,0.62,-3.02,0.62 c-0.92,0,-1.63,-0.21,-2.13,-0.64 c-0.5,-0.42,-0.75,-1.05,-0.75,-1.87 c0,-0.97,0.35,-1.66,1.05,-2.07 c0.7,-0.41,1.99,-0.88,3.85,-1.42 c2.01,-0.56,3.53,-1.3,4.56,-2.22 c1.03,-0.92,1.55,-2.33,1.55,-4.22 c0,-2.01,-0.7,-3.61,-2.11,-4.8 c-1.41,-1.19,-3.36,-1.78,-5.85,-1.78 Z M322.42,88.58" fill="rgb(0,0,0)" transform="matrix(1,0,0,-1,0,200)"/>
</svg>