<?xml version="1.0" encoding="UTF-8"?>
<svg height="200" version="1.1" width="800" xmlns="http://www.w3.org/2000/svg" xmlns:xlink="http://www.w3.org/1999/xlink">
 <path d="M0,0 l800,0 l0,200 l-800,0 Z M0,0" fill="rgb(255,255,255)" transform="matrix(1,0,0,-1,0,200)"/>
 <path d="M325.13,89.09 l-2.87,13.78 l-2.73,-13.78 l-5.42,0 l-4,21.82 l4.33,0 l2.84,-17.13 l2.73,13.49 l4.44,0 l2.95,-13.31 l2.73,16.95 l4.15,0 l-4.04,-21.82 Z M340.0,89.09 l0,29.09 l4.95,0 l0,-10.25 l0.8,0 c0.41,1.04,1.07,1.86,1.98,2.45 c0.91,0.59,1.92,0.89,3.04,0.89 c1.58,0,2.82,-0.6,3.73,-1.8 c0.91,-1.2,1.36,-2.85,1.36,-4.96 l0,-15.42 l-4.95,0 l0,14.62 c0,1.21,-0.18,2.12,-0.55,2.71 c-0.36,0.59,-0.92,0.89,-1.67,0.89 c-0.75,0,-1.44,-0.25,-2.07,-0.75 c-0.63,-0.5,-1.19,-1.22,-1.67,-2.16 l0,-15.31 Z M378.84,94 c-0.51,-1.75,-1.45,-3.06,-2.84,-3.95 c-1.38,-0.88,-3.09,-1.33,-5.13,-1.33 c-2.45,0,-4.37,0.68,-5.76,2.05 c-1.39,1.37,-2.09,3.25,-2.09,5.65 l0,7.13 c0,2.4,0.71,4.28,2.13,5.65 c1.42,1.37,3.36,2.05,5.84,2.05 c2.45,0,4.38,-0.7,5.78,-2.11 c1.41,-1.41,2.11,-3.35,2.11,-5.82 l0,-4.25 l-10.91,0 l0,-2.65 c0,-1.55,0.25,-2.64,0.75,-3.27 c0.5,-0.63,1.33,-0.95,2.49,-0.95 c1.02,0,1.78,0.22,2.27,0.65 c0.5,0.44,0.92,1.2,1.25,2.29 Z M367.96,103.53 l0,-1.45 l5.96,0 l0,1.24 c0,1.62,-0.23,2.79,-0.69,3.49 c-0.46,0.7,-1.22,1.05,-2.29,1.05 c-1.07,0,-1.83,-0.33,-2.29,-1 c-0.46,-0.67,-0.69,-1.78,-0.69,-3.33 Z M386.04,89.09 l0,21.82 l4.95,0 l0,-2.98 l0.8,0 c0.39,1.04,1.04,1.86,1.95,2.45 c0.91,0.59,1.93,0.89,3.07,0.89 c1.55,0,2.79,-0.61,3.71,-1.84 c0.92,-1.22,1.38,-2.87,1.38,-4.93 l0,-15.42 l-4.95,0 l0,14.62 c-0.0,1.19,-0.18,2.08,-0.55,2.69 c-0.36,0.61,-0.91,0.91,-1.64,0.91 c-0.75,0,-1.45,-0.26,-2.11,-0.78 c-0.65,-0.52,-1.21,-1.23,-1.67,-2.13 l0,-15.31 Z M424.87,94 c-0.51,-1.75,-1.45,-3.06,-2.84,-3.95 c-1.38,-0.88,-3.09,-1.33,-5.13,-1.33 c-2.45,0,-4.37,0.68,-5.76,2.05 c-1.39,1.37,-2.09,3.25,-2.09,5.65 l0,7.13 c0,2.4,0.71,4.28,2.13,5.65 c1.42,1.37,3.36,2.05,5.84,2.05 c2.45,0,4.38,-0.7,5.78,-2.11 c1.41,-1.41,2.11,-3.35,2.11,-5.82 l0,-4.25 l-10.91,0 l0,-2.65 c0,-1.55,0.25,-2.64,0.75,-3.27 c0.5,-0.63,1.33,-0.95,2.49,-0.95 c1.02,0,1.78,0.22,2.27,0.65 c0.5,0.44,0.92,1.2,1.25,2.29 Z M414,103.53 l0,-1.45 l5.96,0 l0,1.24 c0,1.62,-0.23,2.79,-0.69,3.49 c-0.46,0.7,-1.22,1.05,-2.29,1.05 c-1.07,0,-1.83,-0.33,-2.29,-1 c-0.46,-0.67,-0.69,-1.78,-0.69,-3.33 Z M441.85,89.09 l-6.47,0 l-5.38,21.82 l4.87,0 l3.82,-17.78 l3.85,17.78 l4.69,0 Z M468.18,94 c-0.51,-1.75,-1.45,-3.06,-2.84,-3.95 c-1.38,-0.88,-3.09,-1.33,-5.13,-1.33 c-2.45,0,-4.37,0.68,-5.76,2.05 c-1.39,1.37,-2.09,3.25,-2.09,5.65 l0,7.13 c0,2.4,0.71,4.28,2.13,5.65 c1.42,1.37,3.36,2.05,5.84,2.05 c2.45,0,4.38,-0.7,5.78,-2.11 c1.41,-1.41,2.11,-3.35,2.11,-5.82 l0,-4.25 l-10.91,0 l0,-2.65 c0,-1.55,0.25,-2.64,0.75,-3.27 c0.5,-0.63,1.33,-0.95,2.49,-0.95 c1.02,0,1.78,0.22,2.27,0.65 c0.5,0.44,0.92,1.2,1.25,2.29 Z M457.31,103.53 l0,-1.45 l5.96,0 l0,1.24 c0,1.62,-0.23,2.79,-0.69,3.49 c-0.46,0.7,-1.22,1.05,-2.29,1.05 c-1.07,0,-1.83,-0.33,-2.29,-1 c-0.46,-0.67,-0.69,-1.78,-0.69,-3.33 Z M475.38,89.09 l0,21.82 l4.95,0 l0,-2.98 l0.8,0 c0.32,1.19,0.88,2.04,1.71,2.56 c0.82,0.52,1.7,0.78,2.62,0.78 c1.45,0,2.55,-0.5,3.27,-1.49 c0.73,-0.99,1.09,-2.39,1.09,-4.18 l0,-3.96 l-4.51,0 l0,3.27 c0,0.73,-0.14,1.31,-0.42,1.75 c-0.28,0.44,-0.72,0.65,-1.33,0.65 c-0.56,0,-1.14,-0.27,-1.75,-0.8 c-0.61,-0.53,-1.1,-1.22,-1.49,-2.07 l0,-15.35 Z M475.38,89.09" fill="rgb(0,0,0)" transform="matrix(1,0,0,-1,0,200)"/>
</svg>