<?xml version="1.0" encoding="UTF-8"?>
<svg height="200" version="1.1" width="800" xmlns="http://www.w3.org/2000/svg" xmlns:xlink="http://www.w3.org/1999/xlink">
 <path d="M0,0 l800,0 l0,200 l-800,0 Z M0,0" fill="rgb(255,255,255)" transform="matrix(1,0,0,-1,0,200)"/>
 <path d="M352.17,87.04 l0,3.81 c-2.02,-2.93,-4.76,-4.39,-8.23,-4.39 c-1.53,0,-2.96,0.29,-4.28,0.88 c-1.33,0.59,-2.31,1.32,-2.95,2.21 c-0.64,0.89,-1.09,1.97,-1.35,3.26 c-0.18,0.86,-0.27,2.23,-0.27,4.1 l0,16.06 l4.39,0 l0,-14.38 c0,-2.29,0.09,-3.84,0.27,-4.64 c0.28,-1.16,0.86,-2.06,1.76,-2.72 c0.9,-0.66,2.0,-0.99,3.32,-0.99 c1.32,0,2.56,0.34,3.71,1.01 c1.16,0.68,1.97,1.6,2.45,2.76 c0.48,1.16,0.72,2.85,0.72,5.07 l0,13.89 l4.39,0 l0,-25.93 Z M362.99,77.1 l0,35.86 l4.0,0 l0,-3.37 c0.94,1.32,2.01,2.31,3.2,2.97 c1.19,0.66,2.63,0.99,4.32,0.99 c2.21,0,4.17,-0.57,5.86,-1.71 c1.69,-1.14,2.97,-2.75,3.83,-4.82 c0.86,-2.08,1.29,-4.35,1.29,-6.82 c0,-2.65,-0.48,-5.04,-1.43,-7.17 c-0.95,-2.12,-2.34,-3.75,-4.15,-4.88 c-1.81,-1.13,-3.72,-1.7,-5.73,-1.7 c-1.46,0,-2.78,0.31,-3.94,0.93 c-1.16,0.62,-2.12,1.4,-2.87,2.34 l0,-12.62 Z M366.97,99.85 c0,-3.34,0.68,-5.8,2.03,-7.4 c1.35,-1.6,2.99,-2.39,4.91,-2.39 c1.95,0,3.63,0.83,5.02,2.48 c1.39,1.65,2.09,4.21,2.09,7.68 c0,3.3,-0.68,5.78,-2.04,7.42 c-1.36,1.64,-2.98,2.47,-4.87,2.47 c-1.87,0,-3.53,-0.87,-4.97,-2.62 c-1.44,-1.75,-2.16,-4.29,-2.16,-7.63 Z M394.85,87.04 l-4.08,0 l0,35.79 l4.39,0 l0,-12.77 c1.86,2.33,4.22,3.49,7.1,3.49 c1.6,0,3.1,-0.32,4.53,-0.96 c1.42,-0.64,2.6,-1.55,3.52,-2.71 c0.92,-1.16,1.64,-2.57,2.16,-4.21 c0.52,-1.64,0.78,-3.4,0.78,-5.27 c0,-4.44,-1.1,-7.88,-3.3,-10.3 c-2.2,-2.43,-4.83,-3.64,-7.91,-3.64 c-3.06,0,-5.46,1.28,-7.2,3.83 Z M394.8,100.2 c0,-3.11,0.42,-5.35,1.27,-6.74 c1.38,-2.26,3.26,-3.39,5.62,-3.39 c1.92,0,3.58,0.83,4.98,2.5 c1.4,1.67,2.1,4.15,2.1,7.46 c0,3.39,-0.67,5.88,-2.01,7.5 c-1.34,1.61,-2.97,2.42,-4.87,2.42 c-1.92,0,-3.58,-0.83,-4.98,-2.5 c-1.4,-1.67,-2.1,-4.08,-2.1,-7.24 Z M436.35,95.39 l4.54,-0.56 c-0.72,-2.65,-2.04,-4.71,-3.98,-6.18 c-1.94,-1.46,-4.41,-2.2,-7.42,-2.2 c-3.79,0,-6.8,1.17,-9.02,3.5 c-2.22,2.34,-3.33,5.61,-3.33,9.83 c0,4.36,1.12,7.75,3.37,10.16 c2.25,2.41,5.16,3.61,8.74,3.61 c3.47,0,6.3,-1.18,8.5,-3.54 c2.2,-2.36,3.3,-5.68,3.3,-9.96 c0,-0.26,-0.01,-0.65,-0.02,-1.17 l-19.34,0 c0.16,-2.85,0.97,-5.03,2.42,-6.54 c1.45,-1.51,3.26,-2.27,5.42,-2.27 c1.61,0,2.99,0.42,4.13,1.27 c1.14,0.85,2.04,2.2,2.71,4.05 Z M421.92,102.49 l14.48,0 c-0.2,2.18,-0.75,3.82,-1.66,4.91 c-1.4,1.69,-3.21,2.54,-5.44,2.54 c-2.02,0,-3.71,-0.68,-5.09,-2.03 c-1.38,-1.35,-2.14,-3.16,-2.28,-5.42 Z M446.31,87.04 l0,35.79 l4.39,0 l0,-35.79 Z M458.57,87.04 l0,22.51 l-3.88,0 l0,3.42 l3.88,0 l0,2.76 c0,1.74,0.15,3.04,0.46,3.88 c0.42,1.14,1.17,2.06,2.23,2.77 c1.07,0.71,2.56,1.06,4.48,1.06 c1.24,0,2.6,-0.15,4.1,-0.44 l-0.66,-3.83 c-0.91,0.16,-1.77,0.24,-2.59,0.24 c-1.33,0,-2.28,-0.28,-2.83,-0.85 c-0.55,-0.57,-0.83,-1.64,-0.83,-3.2 l0,-2.39 l5.05,0 l0,-3.42 l-5.05,0 l0,-22.51 Z M458.57,87.04" fill="rgb(0,0,0)" transform="matrix(1,0,0,-1,0,200)"/>
</svg>