<?xml version="1.0" encoding="UTF-8"?>
<svg height="200" version="1.1" width="800" xmlns="http://www.w3.org/2000/svg" xmlns:xlink="http://www.w3.org/1999/xlink">
 <path d="M0,0 l800,0 l0,200 l-800,0 Z M0,0" fill="rgb(255,255,255)" transform="matrix(1,0,0,-1,0,200)"/>
 <path d="M343.84,87.04 l-9.86,25.93 l4.64,0 l5.57,-15.53 c0.6,-1.68,1.16,-3.42,1.66,-5.22 c0.39,1.37,0.94,3.01,1.64,4.93 l5.76,15.82 l4.52,0 l-9.81,-25.93 Z M361.66,117.77 l0,5.05 l4.39,0 l0,-5.05 Z M361.66,87.04 l0,25.93 l4.39,0 l0,-25.93 Z M370.98,94.78 l4.35,0.68 c0.24,-1.74,0.92,-3.08,2.04,-4.0 c1.11,-0.93,2.67,-1.39,4.68,-1.39 c2.02,0,3.52,0.41,4.49,1.23 c0.98,0.82,1.46,1.79,1.46,2.89 c0,0.99,-0.43,1.77,-1.29,2.34 c-0.6,0.39,-2.1,0.89,-4.49,1.49 c-3.22,0.81,-5.46,1.52,-6.7,2.11 c-1.25,0.59,-2.19,1.42,-2.83,2.47 c-0.64,1.05,-0.96,2.21,-0.96,3.48 c0,1.16,0.26,2.23,0.79,3.21 c0.53,0.98,1.25,1.8,2.16,2.45 c0.68,0.5,1.62,0.93,2.8,1.28 c1.18,0.35,2.45,0.52,3.8,0.52 c2.03,0,3.82,-0.29,5.36,-0.88 c1.54,-0.59,2.67,-1.38,3.41,-2.38 c0.73,-1.0,1.24,-2.34,1.51,-4.02 l-4.3,-0.59 c-0.2,1.33,-0.76,2.38,-1.7,3.12 c-0.94,0.75,-2.26,1.12,-3.97,1.12 c-2.02,0,-3.46,-0.33,-4.32,-1.0 c-0.86,-0.67,-1.29,-1.45,-1.29,-2.34 c0,-0.57,0.18,-1.08,0.54,-1.54 c0.36,-0.47,0.92,-0.86,1.68,-1.17 c0.44,-0.16,1.73,-0.54,3.88,-1.12 c3.11,-0.83,5.28,-1.51,6.51,-2.04 c1.23,-0.53,2.19,-1.3,2.89,-2.31 c0.7,-1.01,1.05,-2.26,1.05,-3.76 c0,-1.46,-0.43,-2.84,-1.28,-4.14 c-0.85,-1.29,-2.09,-2.29,-3.7,-3.0 c-1.61,-0.71,-3.43,-1.06,-5.47,-1.06 c-3.37,0,-5.94,0.7,-7.7,2.1 c-1.77,1.4,-2.89,3.47,-3.38,6.23 Z M395.98,94.78 l4.35,0.68 c0.24,-1.74,0.92,-3.08,2.04,-4.0 c1.11,-0.93,2.67,-1.39,4.68,-1.39 c2.02,0,3.52,0.41,4.49,1.23 c0.98,0.82,1.46,1.79,1.46,2.89 c0,0.99,-0.43,1.77,-1.29,2.34 c-0.6,0.39,-2.1,0.89,-4.49,1.49 c-3.22,0.81,-5.46,1.52,-6.7,2.11 c-1.25,0.59,-2.19,1.42,-2.83,2.47 c-0.64,1.05,-0.96,2.21,-0.96,3.48 c0,1.16,0.26,2.23,0.79,3.21 c0.53,0.98,1.25,1.8,2.16,2.45 c0.68,0.5,1.62,0.93,2.8,1.28 c1.18,0.35,2.45,0.52,3.8,0.52 c2.03,0,3.82,-0.29,5.36,-0.88 c1.54,-0.59,2.67,-1.38,3.41,-2.38 c0.73,-1.0,1.24,-2.34,1.51,-4.02 l-4.3,-0.59 c-0.2,1.33,-0.76,2.38,-1.7,3.12 c-0.94,0.75,-2.26,1.12,-3.97,1.12 c-2.02,0,-3.46,-0.33,-4.32,-1.0 c-0.86,-0.67,-1.29,-1.45,-1.29,-2.34 c0,-0.57,0.18,-1.08,0.54,-1.54 c0.36,-0.47,0.92,-0.86,1.68,-1.17 c0.44,-0.16,1.73,-0.54,3.88,-1.12 c3.11,-0.83,5.28,-1.51,6.51,-2.04 c1.23,-0.53,2.19,-1.3,2.89,-2.31 c0.7,-1.01,1.05,-2.26,1.05,-3.76 c0,-1.46,-0.43,-2.84,-1.28,-4.14 c-0.85,-1.29,-2.09,-2.29,-3.7,-3.0 c-1.61,-0.71,-3.43,-1.06,-5.47,-1.06 c-3.37,0,-5.94,0.7,-7.7,2.1 c-1.77,1.4,-2.89,3.47,-3.38,6.23 Z M422.77,117.77 l0,5.05 l4.39,0 l0,-5.05 Z M422.77,87.04 l0,25.93 l4.39,0 l0,-25.93 Z M433.75,87.04 l0,35.79 l4.39,0 l0,-35.79 Z M444.76,77.05 l-0.49,4.13 c0.96,-0.26,1.8,-0.39,2.51,-0.39 c0.98,0,1.76,0.16,2.34,0.49 c0.59,0.33,1.07,0.78,1.44,1.37 c0.28,0.44,0.72,1.53,1.34,3.27 c0.08,0.24,0.21,0.6,0.39,1.07 l-9.84,25.98 l4.74,0 l5.4,-15.01 c0.7,-1.9,1.33,-3.91,1.88,-6.01 c0.5,2.02,1.11,3.99,1.81,5.91 l5.54,15.11 l4.39,0 l-9.86,-26.37 c-1.06,-2.85,-1.88,-4.81,-2.47,-5.88 c-0.78,-1.45,-1.68,-2.51,-2.69,-3.19 c-1.01,-0.68,-2.21,-1.01,-3.61,-1.01 c-0.85,0,-1.79,0.18,-2.83,0.54 Z M444.76,77.05" fill="rgb(0,0,0)" transform="matrix(1,0,0,-1,0,200)"/>
</svg>