<?xml version="1.0" encoding="UTF-8"?>
<svg height="200" version="1.1" width="800" xmlns="http://www.w3.org/2000/svg" xmlns:xlink="http://www.w3.org/1999/xlink">
 <path d="M0,0 l800,0 l0,200 l-800,0 Z M0,0" fill="rgb(255,255,255)" transform="matrix(1,0,0,-1,0,200)"/>
 <path d="M361.71,89.63 l-7.89,20.74 l3.71,0 l4.45,-12.42 c0.48,-1.34,0.92,-2.73,1.33,-4.18 c0.31,1.09,0.75,2.41,1.31,3.95 l4.61,12.66 l3.61,0 l-7.85,-20.74 Z M374.64,100 c0,3.84,1.07,6.69,3.2,8.54 c1.78,1.54,3.96,2.3,6.52,2.3 c2.85,0,5.18,-0.93,6.99,-2.8 c1.81,-1.87,2.71,-4.45,2.71,-7.74 c0,-2.67,-0.4,-4.77,-1.2,-6.3 c-0.8,-1.53,-1.97,-2.72,-3.5,-3.56 c-1.53,-0.85,-3.2,-1.27,-5.01,-1.27 c-2.9,0,-5.25,0.93,-7.04,2.79 c-1.79,1.86,-2.69,4.54,-2.69,8.05 Z M378.25,100 c0,-2.66,0.58,-4.65,1.74,-5.97 c1.16,-1.32,2.62,-1.98,4.38,-1.98 c1.74,0,3.2,0.66,4.36,1.99 c1.16,1.33,1.74,3.35,1.74,6.07 c0,2.57,-0.58,4.51,-1.75,5.83 c-1.17,1.32,-2.61,1.98,-4.35,1.98 c-1.76,0,-3.22,-0.66,-4.38,-1.97 c-1.16,-1.32,-1.74,-3.3,-1.74,-5.96 Z M398.21,114.22 l0,4.04 l3.52,0 l0,-4.04 Z M398.21,89.63 l0,20.74 l3.52,0 l0,-20.74 Z M407.08,89.63 l0,20.74 l3.16,0 l0,-2.95 c1.52,2.28,3.72,3.42,6.6,3.42 c1.25,0,2.4,-0.22,3.45,-0.67 c1.05,-0.45,1.83,-1.04,2.35,-1.77 c0.52,-0.73,0.89,-1.6,1.09,-2.6 c0.13,-0.65,0.2,-1.79,0.2,-3.42 l0,-12.75 l-3.52,0 l0,12.62 c0,1.43,-0.14,2.5,-0.41,3.21 c-0.27,0.71,-0.76,1.28,-1.46,1.7 c-0.7,0.42,-1.51,0.63,-2.45,0.63 c-1.5,0,-2.79,-0.48,-3.88,-1.43 c-1.09,-0.95,-1.63,-2.75,-1.63,-5.41 l0,-11.33 Z M427.92,95.82 l3.48,0.55 c0.2,-1.39,0.74,-2.46,1.63,-3.2 c0.89,-0.74,2.14,-1.11,3.74,-1.11 c1.61,0,2.81,0.33,3.59,0.99 c0.78,0.66,1.17,1.43,1.17,2.31 c0,0.79,-0.35,1.42,-1.04,1.88 c-0.48,0.31,-1.68,0.71,-3.59,1.19 c-2.58,0.65,-4.37,1.21,-5.36,1.69 c-1.0,0.48,-1.75,1.13,-2.27,1.97 c-0.51,0.84,-0.77,1.77,-0.77,2.78 c0,0.92,0.21,1.78,0.63,2.57 c0.42,0.79,1.0,1.44,1.73,1.96 c0.55,0.4,1.29,0.75,2.24,1.03 c0.94,0.28,1.96,0.42,3.04,0.42 c1.63,0,3.06,-0.23,4.29,-0.7 c1.23,-0.47,2.14,-1.1,2.72,-1.9 c0.59,-0.8,0.99,-1.87,1.21,-3.21 l-3.44,-0.47 c-0.16,1.07,-0.61,1.9,-1.36,2.5 c-0.75,0.6,-1.81,0.9,-3.17,0.9 c-1.61,0,-2.77,-0.27,-3.46,-0.8 c-0.69,-0.53,-1.04,-1.16,-1.04,-1.88 c0,-0.46,0.14,-0.87,0.43,-1.23 c0.29,-0.38,0.74,-0.69,1.35,-0.94 c0.35,-0.13,1.39,-0.43,3.11,-0.9 c2.49,-0.66,4.22,-1.21,5.21,-1.63 c0.98,-0.42,1.75,-1.04,2.31,-1.85 c0.56,-0.81,0.84,-1.81,0.84,-3.01 c0,-1.17,-0.34,-2.28,-1.03,-3.31 c-0.68,-1.04,-1.67,-1.84,-2.96,-2.4 c-1.29,-0.57,-2.75,-0.85,-4.38,-0.85 c-2.7,0,-4.75,0.56,-6.16,1.68 c-1.41,1.12,-2.31,2.78,-2.71,4.98 Z M427.92,95.82" fill="rgb(0,0,0)" transform="matrix(1,0,0,-1,0,200)"/>
</svg>