<?xml version="1.0" encoding="UTF-8"?>
<svg height="200" version="1.1" width="800" xmlns="http://www.w3.org/2000/svg" xmlns:xlink="http://www.w3.org/1999/xlink">
 <path d="M0,0 l800,0 l0,200 l-800,0 Z M0,0" fill="rgb(255,255,255)" transform="matrix(1,0,0,-1,0,200)"/>
 <path d="M323.32,87.04 l-7.93,25.93 l4.54,0 l4.13,-14.97 l1.54,-5.57 c0.07,0.28,0.51,2.06,1.34,5.35 l4.13,15.19 l4.52,0 l3.88,-15.04 l1.29,-4.96 l1.49,5.0 l4.44,14.99 l4.27,0 l-8.11,-25.93 l-4.57,0 l-4.13,15.53 l-1.0,4.42 l-5.25,-19.95 Z M354.66,117.77 l0,5.05 l4.39,0 l0,-5.05 Z M354.66,87.04 l0,25.93 l4.39,0 l0,-25.93 Z M375.34,90.97 l0.63,-3.88 c-1.24,-0.26,-2.34,-0.39,-3.32,-0.39 c-1.6,0,-2.83,0.25,-3.71,0.76 c-0.88,0.5,-1.5,1.17,-1.86,1.99 c-0.36,0.82,-0.54,2.55,-0.54,5.19 l0,14.92 l-3.22,0 l0,3.42 l3.22,0 l0,6.42 l4.37,2.64 l0,-9.06 l4.42,0 l0,-3.42 l-4.42,0 l0,-15.16 c0,-1.25,0.08,-2.06,0.23,-2.42 c0.15,-0.36,0.41,-0.64,0.76,-0.85 c0.35,-0.21,0.85,-0.32,1.5,-0.32 c0.49,0,1.13,0.06,1.93,0.17 Z M379.64,87.04 l0,35.79 l4.39,0 l0,-12.84 c2.05,2.38,4.64,3.56,7.76,3.56 c1.92,0,3.59,-0.38,5.0,-1.14 c1.42,-0.76,2.43,-1.8,3.04,-3.14 c0.61,-1.33,0.92,-3.27,0.92,-5.81 l0,-16.43 l-4.39,0 l0,16.43 c0,2.2,-0.48,3.8,-1.43,4.8 c-0.95,1.0,-2.3,1.5,-4.04,1.5 c-1.3,0,-2.53,-0.34,-3.67,-1.01 c-1.15,-0.68,-1.97,-1.59,-2.45,-2.75 c-0.49,-1.16,-0.73,-2.75,-0.73,-4.79 l0,-14.18 Z M405.81,100 c0,4.8,1.33,8.36,4.0,10.67 c2.23,1.92,4.95,2.88,8.15,2.88 c3.56,0,6.48,-1.17,8.74,-3.5 c2.26,-2.34,3.39,-5.56,3.39,-9.68 c0,-3.34,-0.5,-5.96,-1.5,-7.87 c-1.0,-1.91,-2.46,-3.4,-4.37,-4.46 c-1.91,-1.06,-4.0,-1.59,-6.26,-1.59 c-3.63,0,-6.56,1.16,-8.8,3.49 c-2.24,2.33,-3.36,5.68,-3.36,10.06 Z M410.33,100 c0,-3.32,0.72,-5.81,2.17,-7.46 c1.45,-1.65,3.27,-2.48,5.47,-2.48 c2.18,0,4.0,0.83,5.44,2.49 c1.45,1.66,2.17,4.19,2.17,7.59 c0,3.21,-0.73,5.64,-2.19,7.29 c-1.46,1.65,-3.27,2.48,-5.43,2.48 c-2.2,0,-4.02,-0.82,-5.47,-2.47 c-1.45,-1.64,-2.17,-4.13,-2.17,-7.45 Z M452.25,87.04 l0,3.81 c-2.02,-2.93,-4.76,-4.39,-8.23,-4.39 c-1.53,0,-2.96,0.29,-4.28,0.88 c-1.33,0.59,-2.31,1.32,-2.95,2.21 c-0.64,0.89,-1.09,1.97,-1.35,3.26 c-0.18,0.86,-0.27,2.23,-0.27,4.1 l0,16.06 l4.39,0 l0,-14.38 c0,-2.29,0.09,-3.84,0.27,-4.64 c0.28,-1.16,0.86,-2.06,1.76,-2.72 c0.9,-0.66,2.0,-0.99,3.32,-0.99 c1.32,0,2.56,0.34,3.71,1.01 c1.16,0.68,1.97,1.6,2.45,2.76 c0.48,1.16,0.72,2.85,0.72,5.07 l0,13.89 l4.39,0 l0,-25.93 Z M461.3,94.78 l4.35,0.68 c0.24,-1.74,0.92,-3.08,2.04,-4.0 c1.11,-0.93,2.67,-1.39,4.68,-1.39 c2.02,0,3.52,0.41,4.49,1.23 c0.98,0.82,1.46,1.79,1.46,2.89 c0,0.99,-0.43,1.77,-1.29,2.34 c-0.6,0.39,-2.1,0.89,-4.49,1.49 c-3.22,0.81,-5.46,1.52,-6.7,2.11 c-1.25,0.59,-2.19,1.42,-2.83,2.47 c-0.64,1.05,-0.96,2.21,-0.96,3.48 c0,1.16,0.26,2.23,0.79,3.21 c0.53,0.98,1.25,1.8,2.16,2.45 c0.68,0.5,1.62,0.93,2.8,1.28 c1.18,0.35,2.45,0.52,3.8,0.52 c2.03,0,3.82,-0.29,5.36,-0.88 c1.54,-0.59,2.67,-1.38,3.41,-2.38 c0.73,-1.0,1.24,-2.34,1.51,-4.02 l-4.3,-0.59 c-0.2,1.33,-0.76,2.38,-1.7,3.12 c-0.94,0.75,-2.26,1.12,-3.97,1.12 c-2.02,0,-3.46,-0.33,-4.32,-1.0 c-0.86,-0.67,-1.29,-1.45,-1.29,-2.34 c0,-0.57,0.18,-1.08,0.54,-1.54 c0.36,-0.47,0.92,-0.86,1.68,-1.17 c0.44,-0.16,1.73,-0.54,3.88,-1.12 c3.11,-0.83,5.28,-1.51,6.51,-2.04 c1.23,-0.53,2.19,-1.3,2.89,-2.31 c0.7,-1.01,1.05,-2.26,1.05,-3.76 c0,-1.46,-0.43,-2.84,-1.28,-4.14 c-0.85,-1.29,-2.09,-2.29,-3.7,-3.0 c-1.61,-0.71,-3.43,-1.06,-5.47,-1.06 c-3.37,0,-5.94,0.7,-7.7,2.1 c-1.77,1.4,-2.89,3.47,-3.38,6.23 Z M461.3,94.78" fill="rgb(0,0,0)" transform="matrix(1,0,0,-1,0,200)"/>
</svg>