<?xml version="1.0" encoding="UTF-8"?>
<svg height="200" version="1.1" width="800" xmlns="http://www.w3.org/2000/svg" xmlns:xlink="http://www.w3.org/1999/xlink">
 <path d="M0,0 l800,0 l0,200 l-800,0 Z M0,0" fill="rgb(255,255,255)" transform="matrix(1,0,0,-1,0,200)"/>
 <path d="M343.8,96.53 l4.32,-0.56 c-0.47,-2.98,-1.68,-5.31,-3.63,-6.99 c-1.94,-1.68,-4.33,-2.53,-7.17,-2.53 c-3.55,0,-6.4,1.16,-8.56,3.48 c-2.16,2.32,-3.23,5.64,-3.23,9.97 c0,2.8,0.46,5.25,1.39,7.35 c0.93,2.1,2.34,3.67,4.24,4.72 c1.9,1.05,3.96,1.57,6.19,1.57 c2.82,0,5.12,-0.71,6.91,-2.14 c1.79,-1.42,2.94,-3.45,3.44,-6.07 l-4.27,-0.66 c-0.41,1.74,-1.13,3.05,-2.16,3.93 c-1.03,0.88,-2.28,1.32,-3.75,1.32 c-2.21,0,-4.01,-0.79,-5.4,-2.38 c-1.38,-1.59,-2.08,-4.1,-2.08,-7.53 c0,-3.48,0.67,-6.01,2.0,-7.59 c1.33,-1.58,3.08,-2.37,5.22,-2.37 c1.73,0,3.17,0.53,4.32,1.59 c1.16,1.06,1.89,2.69,2.2,4.88 Z M351.88,87.04 l0,35.79 l4.39,0 l0,-12.84 c2.05,2.38,4.64,3.56,7.76,3.56 c1.92,0,3.59,-0.38,5.0,-1.14 c1.42,-0.76,2.43,-1.8,3.04,-3.14 c0.61,-1.33,0.92,-3.27,0.92,-5.81 l0,-16.43 l-4.39,0 l0,16.43 c0,2.2,-0.48,3.8,-1.43,4.8 c-0.95,1.0,-2.3,1.5,-4.04,1.5 c-1.3,0,-2.53,-0.34,-3.67,-1.01 c-1.15,-0.68,-1.97,-1.59,-2.45,-2.75 c-0.49,-1.16,-0.73,-2.75,-0.73,-4.79 l0,-14.18 Z M379.71,117.77 l0,5.05 l4.39,0 l0,-5.05 Z M379.71,87.04 l0,25.93 l4.39,0 l0,-25.93 Z M390.7,87.04 l0,35.79 l4.39,0 l0,-35.79 Z M418.73,87.04 l0,3.27 c-1.64,-2.57,-4.06,-3.86,-7.25,-3.86 c-2.07,0,-3.97,0.57,-5.7,1.71 c-1.73,1.14,-3.08,2.73,-4.03,4.77 c-0.95,2.04,-1.43,4.39,-1.43,7.04 c0,2.59,0.43,4.94,1.29,7.04 c0.86,2.11,2.16,3.72,3.88,4.85 c1.73,1.12,3.65,1.68,5.79,1.68 c1.56,0,2.95,-0.33,4.17,-0.99 c1.22,-0.66,2.21,-1.52,2.98,-2.58 l0,12.84 l4.37,0 l0,-35.79 Z M404.83,99.98 c0,-3.32,0.7,-5.8,2.1,-7.45 c1.4,-1.64,3.05,-2.47,4.96,-2.47 c1.92,0,3.55,0.79,4.9,2.36 c1.34,1.57,2.01,3.97,2.01,7.19 c0,3.55,-0.68,6.15,-2.05,7.81 c-1.37,1.66,-3.05,2.49,-5.05,2.49 c-1.95,0,-3.58,-0.8,-4.9,-2.39 c-1.31,-1.6,-1.97,-4.11,-1.97,-7.54 Z M429.74,117.77 l0,5.05 l4.39,0 l0,-5.05 Z M429.74,87.04 l0,25.93 l4.39,0 l0,-25.93 Z M450.42,90.97 l0.63,-3.88 c-1.24,-0.26,-2.34,-0.39,-3.32,-0.39 c-1.6,0,-2.83,0.25,-3.71,0.76 c-0.88,0.5,-1.5,1.17,-1.86,1.99 c-0.36,0.82,-0.54,2.55,-0.54,5.19 l0,14.92 l-3.22,0 l0,3.42 l3.22,0 l0,6.42 l4.37,2.64 l0,-9.06 l4.42,0 l0,-3.42 l-4.42,0 l0,-15.16 c0,-1.25,0.08,-2.06,0.23,-2.42 c0.15,-0.36,0.41,-0.64,0.76,-0.85 c0.35,-0.21,0.85,-0.32,1.5,-0.32 c0.49,0,1.13,0.06,1.93,0.17 Z M454.52,77.05 l-0.49,4.13 c0.96,-0.26,1.8,-0.39,2.51,-0.39 c0.98,0,1.76,0.16,2.34,0.49 c0.59,0.33,1.07,0.78,1.44,1.37 c0.28,0.44,0.72,1.53,1.34,3.27 c0.08,0.24,0.21,0.6,0.39,1.07 l-9.84,25.98 l4.74,0 l5.4,-15.01 c0.7,-1.9,1.33,-3.91,1.88,-6.01 c0.5,2.02,1.11,3.99,1.81,5.91 l5.54,15.11 l4.39,0 l-9.86,-26.37 c-1.06,-2.85,-1.88,-4.81,-2.47,-5.88 c-0.78,-1.45,-1.68,-2.51,-2.69,-3.19 c-1.01,-0.68,-2.21,-1.01,-3.61,-1.01 c-0.85,0,-1.79,0.18,-2.83,0.54 Z M454.52,77.05" fill="rgb(0,0,0)" transform="matrix(1,0,0,-1,0,200)"/>
</svg>