<?xml version="1.0" encoding="UTF-8"?>
<svg height="200" version="1.1" width="800" xmlns="http://www.w3.org/2000/svg" xmlns:xlink="http://www.w3.org/1999/xlink">
 <path d="M0,0 l800,0 l0,200 l-800,0 Z M0,0" fill="rgb(255,255,255)" transform="matrix(1,0,0,-1,0,200)"/>
 <path d="M336.96,74.07 l0,71.58 l8.79,0 l0,-71.58 Z M359.42,135.55 l0,10.11 l8.79,0 l0,-10.11 Z M359.42,74.07 l0,51.86 l8.79,0 l0,-51.86 Z M396.0,74.07 l-19.73,51.86 l9.28,0 l11.13,-31.05 c1.2,-3.35,2.31,-6.84,3.32,-10.45 c0.78,2.73,1.87,6.02,3.27,9.86 l11.52,31.64 l9.03,0 l-19.63,-51.86 Z M431.64,135.55 l0,10.11 l8.79,0 l0,-10.11 Z M431.64,74.07 l0,51.86 l8.79,0 l0,-51.86 Z M453.61,74.07 l0,71.58 l8.79,0 l0,-71.58 Z M453.61,74.07" fill="rgb(0,0,0)" transform="matrix(1,0,0,-1,0,200)"/>
</svg>