<?xml version="1.0" encoding="UTF-8"?>
<svg height="200" version="1.1" width="800" xmlns="http://www.w3.org/2000/svg" xmlns:xlink="http://www.w3.org/1999/xlink">
 <path d="M0,0 l800,0 l0,200 l-800,0 Z M0,0" fill="rgb(255,255,255)" transform="matrix(1,0,0,-1,0,200)"/>
 <path d="M234.23,74.07 l0,51.86 l7.91,0 l0,-7.37 c3.81,5.7,9.31,8.54,16.5,8.54 c3.13,0,6.0,-0.56,8.62,-1.68 c2.62,-1.12,4.58,-2.6,5.88,-4.42 c1.3,-1.82,2.21,-3.99,2.73,-6.49 c0.33,-1.63,0.49,-4.48,0.49,-8.54 l0,-31.88 l-8.79,0 l0,31.54 c0,3.58,-0.34,6.26,-1.03,8.03 c-0.68,1.77,-1.9,3.19,-3.64,4.25 c-1.74,1.06,-3.78,1.59,-6.13,1.59 c-3.74,0,-6.97,-1.19,-9.69,-3.56 c-2.72,-2.38,-4.08,-6.88,-4.08,-13.53 l0,-28.32 Z M286.57,100 c0,9.6,2.67,16.72,8.01,21.34 c4.46,3.84,9.9,5.76,16.31,5.76 c7.13,0,12.96,-2.34,17.48,-7.01 c4.52,-4.67,6.79,-11.12,6.79,-19.36 c0,-6.67,-1.0,-11.92,-3.0,-15.75 c-2.0,-3.82,-4.92,-6.8,-8.74,-8.91 c-3.82,-2.12,-8.0,-3.17,-12.52,-3.17 c-7.26,0,-13.13,2.33,-17.6,6.98 c-4.48,4.65,-6.71,11.36,-6.71,20.12 Z M295.61,100 c0,-6.64,1.45,-11.61,4.35,-14.92 c2.9,-3.3,6.54,-4.96,10.94,-4.96 c4.36,0,7.99,1.66,10.89,4.98 c2.9,3.32,4.35,8.38,4.35,15.19 c0,6.41,-1.46,11.27,-4.37,14.58 c-2.91,3.3,-6.53,4.96,-10.86,4.96 c-4.39,0,-8.04,-1.64,-10.94,-4.93 c-2.9,-3.29,-4.35,-8.25,-4.35,-14.89 Z M353.56,74.07 l-8.15,0 l0,71.58 l8.79,0 l0,-25.54 c3.71,4.65,8.45,6.98,14.21,6.98 c3.19,0,6.21,-0.64,9.06,-1.93 c2.85,-1.29,5.19,-3.09,7.03,-5.42 c1.84,-2.33,3.28,-5.14,4.32,-8.42 c1.04,-3.29,1.56,-6.8,1.56,-10.55 c0,-8.89,-2.2,-15.76,-6.59,-20.61 c-4.39,-4.85,-9.67,-7.28,-15.82,-7.28 c-6.12,0,-10.92,2.56,-14.4,7.67 Z M353.47,100.39 c0,-6.22,0.85,-10.71,2.54,-13.48 c2.77,-4.52,6.51,-6.79,11.23,-6.79 c3.84,0,7.16,1.67,9.96,5.0 c2.8,3.34,4.2,8.31,4.2,14.92 c0,6.77,-1.34,11.77,-4.03,14.99 c-2.69,3.22,-5.93,4.83,-9.74,4.83 c-3.84,0,-7.16,-1.67,-9.96,-5.0 c-2.8,-3.34,-4.2,-8.16,-4.2,-14.48 Z M401.12,135.55 l0,10.11 l8.79,0 l0,-10.11 Z M401.12,74.07 l0,51.86 l8.79,0 l0,-51.86 Z M423.1,74.07 l0,71.58 l8.79,0 l0,-71.58 Z M445.56,135.55 l0,10.11 l8.79,0 l0,-10.11 Z M445.56,74.07 l0,51.86 l8.79,0 l0,-51.86 Z M467.72,74.07 l0,51.86 l7.91,0 l0,-7.37 c3.81,5.7,9.31,8.54,16.5,8.54 c3.13,0,6.0,-0.56,8.62,-1.68 c2.62,-1.12,4.58,-2.6,5.88,-4.42 c1.3,-1.82,2.21,-3.99,2.73,-6.49 c0.33,-1.63,0.49,-4.48,0.49,-8.54 l0,-31.88 l-8.79,0 l0,31.54 c0,3.58,-0.34,6.26,-1.03,8.03 c-0.68,1.77,-1.9,3.19,-3.64,4.25 c-1.74,1.06,-3.78,1.59,-6.13,1.59 c-3.74,0,-6.97,-1.19,-9.69,-3.56 c-2.72,-2.38,-4.08,-6.88,-4.08,-13.53 l0,-28.32 Z M521.73,69.78 l8.54,-1.27 c0.36,-2.64,1.35,-4.56,2.98,-5.76 c2.18,-1.63,5.16,-2.44,8.94,-2.44 c4.07,0,7.21,0.81,9.42,2.44 c2.21,1.63,3.71,3.91,4.49,6.84 c0.46,1.79,0.67,5.55,0.63,11.28 c-3.84,-4.52,-8.63,-6.79,-14.36,-6.79 c-7.13,0,-12.65,2.57,-16.55,7.71 c-3.91,5.14,-5.86,11.31,-5.86,18.51 c0,4.95,0.9,9.51,2.69,13.7 c1.79,4.18,4.39,7.41,7.79,9.69 c3.4,2.28,7.4,3.42,11.99,3.42 c6.12,0,11.17,-2.47,15.14,-7.42 l0,6.25 l8.11,0 l0,-44.82 c0,-8.07,-0.82,-13.79,-2.47,-17.16 c-1.64,-3.37,-4.25,-6.03,-7.81,-7.98 c-3.56,-1.95,-7.95,-2.93,-13.16,-2.93 c-6.18,0,-11.18,1.39,-14.99,4.17 c-3.81,2.78,-5.65,6.97,-5.52,12.57 Z M529.0,100.93 c0,-6.8,1.35,-11.77,4.05,-14.89 c2.7,-3.13,6.09,-4.69,10.16,-4.69 c4.04,0,7.42,1.55,10.16,4.66 c2.73,3.11,4.1,7.98,4.1,14.62 c0,6.35,-1.41,11.13,-4.22,14.36 c-2.82,3.22,-6.21,4.83,-10.18,4.83 c-3.91,0,-7.23,-1.59,-9.96,-4.76 c-2.73,-3.17,-4.1,-7.89,-4.1,-14.14 Z M529.0,100.93" fill="rgb(0,0,0)" transform="matrix(1,0,0,-1,0,200)"/>
</svg>