<?xml version="1.0" encoding="UTF-8"?>
<svg height="200" version="1.1" width="800" xmlns="http://www.w3.org/2000/svg" xmlns:xlink="http://www.w3.org/1999/xlink">
 <path d="M0,0 l800,0 l0,200 l-800,0 Z M0,0" fill="rgb(255,255,255)" transform="matrix(1,0,0,-1,0,200)"/>
 <path d="M307.09,95.39 l4.54,-0.56 c-0.72,-2.65,-2.04,-4.71,-3.98,-6.18 c-1.94,-1.46,-4.41,-2.2,-7.42,-2.2 c-3.79,0,-6.8,1.17,-9.02,3.5 c-2.22,2.34,-3.33,5.61,-3.33,9.83 c0,4.36,1.12,7.75,3.37,10.16 c2.25,2.41,5.16,3.61,8.74,3.61 c3.47,0,6.3,-1.18,8.5,-3.54 c2.2,-2.36,3.3,-5.68,3.3,-9.96 c0,-0.26,-0.01,-0.65,-0.02,-1.17 l-19.34,0 c0.16,-2.85,0.97,-5.03,2.42,-6.54 c1.45,-1.51,3.26,-2.27,5.42,-2.27 c1.61,0,2.99,0.42,4.13,1.27 c1.14,0.85,2.04,2.2,2.71,4.05 Z M292.66,102.49 l14.48,0 c-0.2,2.18,-0.75,3.82,-1.66,4.91 c-1.4,1.69,-3.21,2.54,-5.44,2.54 c-2.02,0,-3.71,-0.68,-5.09,-2.03 c-1.38,-1.35,-2.14,-3.16,-2.28,-5.42 Z M333.68,77.1 l0,12.7 c-0.68,-0.96,-1.64,-1.76,-2.87,-2.39 c-1.23,-0.63,-2.53,-0.95,-3.92,-0.95 c-3.08,0,-5.73,1.23,-7.95,3.69 c-2.22,2.46,-3.33,5.83,-3.33,10.11 c0,2.6,0.45,4.94,1.35,7.01 c0.9,2.07,2.21,3.63,3.93,4.7 c1.72,1.07,3.6,1.6,5.65,1.6 c3.21,0,5.73,-1.35,7.57,-4.05 l0,3.47 l3.96,0 l0,-35.86 Z M320.13,100.07 c0,-3.34,0.7,-5.84,2.1,-7.51 c1.4,-1.67,3.08,-2.5,5.03,-2.5 c1.87,0,3.48,0.79,4.83,2.38 c1.35,1.59,2.03,4.0,2.03,7.24 c0,3.45,-0.71,6.05,-2.14,7.79 c-1.42,1.74,-3.1,2.61,-5.02,2.61 c-1.9,0,-3.52,-0.81,-4.85,-2.43 c-1.33,-1.62,-1.99,-4.15,-1.99,-7.58 Z M361.95,87.04 l0,3.81 c-2.02,-2.93,-4.76,-4.39,-8.23,-4.39 c-1.53,0,-2.96,0.29,-4.28,0.88 c-1.33,0.59,-2.31,1.32,-2.95,2.21 c-0.64,0.89,-1.09,1.97,-1.35,3.26 c-0.18,0.86,-0.27,2.23,-0.27,4.1 l0,16.06 l4.39,0 l0,-14.38 c0,-2.29,0.09,-3.84,0.27,-4.64 c0.28,-1.16,0.86,-2.06,1.76,-2.72 c0.9,-0.66,2.0,-0.99,3.32,-0.99 c1.32,0,2.56,0.34,3.71,1.01 c1.16,0.68,1.97,1.6,2.45,2.76 c0.48,1.16,0.72,2.85,0.72,5.07 l0,13.89 l4.39,0 l0,-25.93 Z M372.79,117.77 l0,5.05 l4.39,0 l0,-5.05 Z M372.79,87.04 l0,25.93 l4.39,0 l0,-25.93 Z M383.87,77.1 l0,35.86 l4.0,0 l0,-3.37 c0.94,1.32,2.01,2.31,3.2,2.97 c1.19,0.66,2.63,0.99,4.32,0.99 c2.21,0,4.17,-0.57,5.86,-1.71 c1.69,-1.14,2.97,-2.75,3.83,-4.82 c0.86,-2.08,1.29,-4.35,1.29,-6.82 c0,-2.65,-0.48,-5.04,-1.43,-7.17 c-0.95,-2.12,-2.34,-3.75,-4.15,-4.88 c-1.81,-1.13,-3.72,-1.7,-5.73,-1.7 c-1.46,0,-2.78,0.31,-3.94,0.93 c-1.16,0.62,-2.12,1.4,-2.87,2.34 l0,-12.62 Z M387.85,99.85 c0,-3.34,0.68,-5.8,2.03,-7.4 c1.35,-1.6,2.99,-2.39,4.91,-2.39 c1.95,0,3.63,0.83,5.02,2.48 c1.39,1.65,2.09,4.21,2.09,7.68 c0,3.3,-0.68,5.78,-2.04,7.42 c-1.36,1.64,-2.98,2.47,-4.87,2.47 c-1.87,0,-3.53,-0.87,-4.97,-2.62 c-1.44,-1.75,-2.16,-4.29,-2.16,-7.63 Z M411.68,87.04 l0,25.93 l3.93,0 l0,-3.64 c0.81,1.27,1.9,2.29,3.25,3.06 c1.35,0.77,2.89,1.16,4.61,1.16 c1.92,0,3.5,-0.4,4.72,-1.2 c1.23,-0.8,2.1,-1.91,2.6,-3.34 c2.05,3.03,4.72,4.54,8.01,4.54 c2.57,0,4.55,-0.71,5.93,-2.14 c1.38,-1.42,2.08,-3.62,2.08,-6.58 l0,-17.8 l-4.37,0 l0,16.33 c0,1.76,-0.14,3.02,-0.43,3.8 c-0.28,0.77,-0.8,1.4,-1.55,1.87 c-0.75,0.47,-1.63,0.71,-2.64,0.71 c-1.82,0,-3.34,-0.61,-4.54,-1.82 c-1.2,-1.21,-1.81,-3.15,-1.81,-5.82 l0,-15.06 l-4.39,0 l0,16.85 c0,1.95,-0.36,3.42,-1.07,4.39 c-0.72,0.98,-1.89,1.46,-3.52,1.46 c-1.24,0,-2.38,-0.33,-3.43,-0.98 c-1.05,-0.65,-1.81,-1.6,-2.28,-2.86 c-0.47,-1.25,-0.71,-3.06,-0.71,-5.42 l0,-13.45 Z M471.08,95.39 l4.54,-0.56 c-0.72,-2.65,-2.04,-4.71,-3.98,-6.18 c-1.94,-1.46,-4.41,-2.2,-7.42,-2.2 c-3.79,0,-6.8,1.17,-9.02,3.5 c-2.22,2.34,-3.33,5.61,-3.33,9.83 c0,4.36,1.12,7.75,3.37,10.16 c2.25,2.41,5.16,3.61,8.74,3.61 c3.47,0,6.3,-1.18,8.5,-3.54 c2.2,-2.36,3.3,-5.68,3.3,-9.96 c0,-0.26,-0.01,-0.65,-0.02,-1.17 l-19.34,0 c0.16,-2.85,0.97,-5.03,2.42,-6.54 c1.45,-1.51,3.26,-2.27,5.42,-2.27 c1.61,0,2.99,0.42,4.13,1.27 c1.14,0.85,2.04,2.2,2.71,4.05 Z M456.65,102.49 l14.48,0 c-0.2,2.18,-0.75,3.82,-1.66,4.91 c-1.4,1.69,-3.21,2.54,-5.44,2.54 c-2.02,0,-3.71,-0.68,-5.09,-2.03 c-1.38,-1.35,-2.14,-3.16,-2.28,-5.42 Z M481.04,87.04 l0,35.79 l4.39,0 l0,-35.79 Z M492.05,77.05 l-0.49,4.13 c0.96,-0.26,1.8,-0.39,2.51,-0.39 c0.98,0,1.76,0.16,2.34,0.49 c0.59,0.33,1.07,0.78,1.44,1.37 c0.28,0.44,0.72,1.53,1.34,3.27 c0.08,0.24,0.21,0.6,0.39,1.07 l-9.84,25.98 l4.74,0 l5.4,-15.01 c0.7,-1.9,1.33,-3.91,1.88,-6.01 c0.5,2.02,1.11,3.99,1.81,5.91 l5.54,15.11 l4.39,0 l-9.86,-26.37 c-1.06,-2.85,-1.88,-4.81,-2.47,-5.88 c-0.78,-1.45,-1.68,-2.51,-2.69,-3.19 c-1.01,-0.68,-2.21,-1.01,-3.61,-1.01 c-0.85,0,-1.79,0.18,-2.83,0.54 Z M492.05,77.05" fill="rgb(0,0,0)" transform="matrix(1,0,0,-1,0,200)"/>
</svg>