<?xml version="1.0" encoding="UTF-8"?>
<svg height="200" version="1.1" width="800" xmlns="http://www.w3.org/2000/svg" xmlns:xlink="http://www.w3.org/1999/xlink">
 <path d="M0,0 l800,0 l0,200 l-800,0 Z M0,0" fill="rgb(255,255,255)" transform="matrix(1,0,0,-1,0,200)"/>
 <path d="M230.91,90.77 l9.08,-1.12 c-1.43,-5.31,-4.09,-9.42,-7.96,-12.35 c-3.87,-2.93,-8.82,-4.39,-14.84,-4.39 c-7.58,0,-13.6,2.34,-18.04,7.01 c-4.44,4.67,-6.67,11.22,-6.67,19.65 c0,8.72,2.25,15.49,6.74,20.31 c4.49,4.82,10.32,7.23,17.48,7.23 c6.93,0,12.6,-2.36,16.99,-7.08 c4.39,-4.72,6.59,-11.36,6.59,-19.92 c0,-0.52,-0.02,-1.3,-0.05,-2.34 l-38.67,0 c0.33,-5.7,1.94,-10.06,4.83,-13.09 c2.9,-3.03,6.51,-4.54,10.84,-4.54 c3.22,0,5.97,0.85,8.25,2.54 c2.28,1.69,4.09,4.39,5.42,8.11 Z M202.05,104.98 l28.96,0 c-0.39,4.36,-1.5,7.63,-3.32,9.81 c-2.8,3.39,-6.43,5.08,-10.89,5.08 c-4.04,0,-7.43,-1.35,-10.18,-4.05 c-2.75,-2.7,-4.27,-6.32,-4.57,-10.84 Z M245.17,74.07 l18.95,26.95 l-17.53,24.9 l10.99,0 l7.96,-12.16 c1.5,-2.31,2.7,-4.25,3.61,-5.81 c1.43,2.15,2.75,4.05,3.96,5.71 l8.74,12.26 l10.5,0 l-17.92,-24.41 l19.29,-27.44 l-10.79,0 l-10.64,16.11 l-2.83,4.35 l-13.62,-20.46 Z M301.03,54.2 l0,71.73 l8.01,0 l0,-6.74 c1.89,2.64,4.02,4.61,6.4,5.93 c2.38,1.32,5.26,1.98,8.64,1.98 c4.43,0,8.33,-1.14,11.72,-3.42 c3.39,-2.28,5.94,-5.49,7.67,-9.64 c1.73,-4.15,2.59,-8.7,2.59,-13.65 c0,-5.31,-0.95,-10.08,-2.86,-14.33 c-1.9,-4.25,-4.67,-7.5,-8.3,-9.77 c-3.63,-2.26,-7.45,-3.39,-11.45,-3.39 c-2.93,0,-5.56,0.62,-7.89,1.86 c-2.33,1.24,-4.24,2.8,-5.74,4.69 l0,-25.24 Z M308.98,99.71 c0,-6.67,1.35,-11.6,4.05,-14.79 c2.7,-3.19,5.97,-4.79,9.81,-4.79 c3.91,0,7.25,1.65,10.03,4.96 c2.78,3.3,4.17,8.42,4.17,15.36 c0,6.61,-1.36,11.56,-4.08,14.84 c-2.72,3.29,-5.97,4.93,-9.74,4.93 c-3.74,0,-7.06,-1.75,-9.94,-5.25 c-2.88,-3.5,-4.32,-8.59,-4.32,-15.26 Z M392.14,90.77 l9.08,-1.12 c-1.43,-5.31,-4.09,-9.42,-7.96,-12.35 c-3.87,-2.93,-8.82,-4.39,-14.84,-4.39 c-7.58,0,-13.6,2.34,-18.04,7.01 c-4.44,4.67,-6.67,11.22,-6.67,19.65 c0,8.72,2.25,15.49,6.74,20.31 c4.49,4.82,10.32,7.23,17.48,7.23 c6.93,0,12.6,-2.36,16.99,-7.08 c4.39,-4.72,6.59,-11.36,6.59,-19.92 c0,-0.52,-0.02,-1.3,-0.05,-2.34 l-38.67,0 c0.33,-5.7,1.94,-10.06,4.83,-13.09 c2.9,-3.03,6.51,-4.54,10.84,-4.54 c3.22,0,5.97,0.85,8.25,2.54 c2.28,1.69,4.09,4.39,5.42,8.11 Z M363.28,104.98 l28.96,0 c-0.39,4.36,-1.5,7.63,-3.32,9.81 c-2.8,3.39,-6.43,5.08,-10.89,5.08 c-4.04,0,-7.43,-1.35,-10.18,-4.05 c-2.75,-2.7,-4.27,-6.32,-4.57,-10.84 Z M412.16,74.07 l0,51.86 l7.91,0 l0,-7.86 c2.02,3.68,3.88,6.1,5.59,7.28 c1.71,1.17,3.59,1.76,5.64,1.76 c2.96,0,5.97,-0.94,9.03,-2.83 l-3.03,-8.15 c-2.15,1.27,-4.3,1.9,-6.45,1.9 c-1.92,0,-3.65,-0.58,-5.18,-1.73 c-1.53,-1.16,-2.62,-2.76,-3.27,-4.81 c-0.98,-3.13,-1.46,-6.54,-1.46,-10.25 l0,-27.15 Z M455.13,74.07 l-15.87,51.86 l9.08,0 l8.25,-29.93 l3.08,-11.13 c0.13,0.55,1.03,4.12,2.69,10.69 l8.25,30.37 l9.03,0 l7.76,-30.08 l2.59,-9.91 l2.98,10.01 l8.89,29.98 l8.54,0 l-16.21,-51.86 l-9.13,0 l-8.25,31.05 l-2.0,8.84 l-10.5,-39.89 Z M517.82,135.55 l0,10.11 l8.79,0 l0,-10.11 Z M517.82,74.07 l0,51.86 l8.79,0 l0,-51.86 Z M542.09,74.07 l0,45.02 l-7.76,0 l0,6.84 l7.76,0 l0,5.52 c0,3.48,0.31,6.07,0.93,7.76 c0.85,2.28,2.34,4.13,4.47,5.54 c2.13,1.42,5.12,2.12,8.96,2.12 c2.47,0,5.21,-0.29,8.2,-0.88 l-1.32,-7.67 c-1.82,0.33,-3.55,0.49,-5.18,0.49 c-2.67,0,-4.56,-0.57,-5.66,-1.71 c-1.11,-1.14,-1.66,-3.27,-1.66,-6.4 l0,-4.79 l10.11,0 l0,-6.84 l-10.11,0 l0,-45.02 Z M567.38,54.1 l-0.98,8.25 c1.92,-0.52,3.6,-0.78,5.03,-0.78 c1.95,0,3.52,0.33,4.69,0.98 c1.17,0.65,2.13,1.56,2.88,2.73 c0.55,0.88,1.45,3.06,2.69,6.54 c0.16,0.49,0.42,1.2,0.78,2.15 l-19.68,51.95 l9.47,0 l10.79,-30.03 c1.4,-3.81,2.65,-7.81,3.76,-12.01 c1.01,4.04,2.21,7.98,3.61,11.82 l11.08,30.22 l8.79,0 l-19.73,-52.73 c-2.12,-5.7,-3.76,-9.62,-4.93,-11.77 c-1.56,-2.9,-3.35,-5.02,-5.37,-6.37 c-2.02,-1.35,-4.43,-2.03,-7.23,-2.03 c-1.69,0,-3.58,0.36,-5.66,1.07 Z M567.38,54.1" fill="rgb(0,0,0)" transform="matrix(1,0,0,-1,0,200)"/>
</svg>