<?xml version="1.0" encoding="UTF-8"?>
<svg height="200" version="1.1" width="800" xmlns="http://www.w3.org/2000/svg" xmlns:xlink="http://www.w3.org/1999/xlink">
 <path d="M0,0 l800,0 l0,200 l-800,0 Z M0,0" fill="rgb(255,255,255)" transform="matrix(1,0,0,-1,0,200)"/>
 <path d="M345.98,87.04 l0,22.51 l-3.88,0 l0,3.42 l3.88,0 l0,2.76 c0,1.74,0.15,3.04,0.46,3.88 c0.42,1.14,1.17,2.06,2.23,2.77 c1.07,0.71,2.56,1.06,4.48,1.06 c1.24,0,2.6,-0.15,4.1,-0.44 l-0.66,-3.83 c-0.91,0.16,-1.77,0.24,-2.59,0.24 c-1.33,0,-2.28,-0.28,-2.83,-0.85 c-0.55,-0.57,-0.83,-1.64,-0.83,-3.2 l0,-2.39 l5.05,0 l0,-3.42 l-5.05,0 l0,-22.51 Z M358.85,117.77 l0,5.05 l4.39,0 l0,-5.05 Z M358.85,87.04 l0,25.93 l4.39,0 l0,-25.93 Z M369.13,84.89 l4.27,-0.63 c0.18,-1.32,0.68,-2.28,1.49,-2.88 c1.09,-0.81,2.58,-1.22,4.47,-1.22 c2.03,0,3.61,0.41,4.71,1.22 c1.11,0.81,1.86,1.95,2.25,3.42 c0.23,0.9,0.33,2.78,0.32,5.64 c-1.92,-2.26,-4.31,-3.39,-7.18,-3.39 c-3.56,0,-6.32,1.29,-8.28,3.86 c-1.95,2.57,-2.93,5.66,-2.93,9.25 c0,2.47,0.45,4.76,1.34,6.85 c0.9,2.09,2.19,3.71,3.89,4.85 c1.7,1.14,3.7,1.71,5.99,1.71 c3.06,0,5.58,-1.24,7.57,-3.71 l0,3.12 l4.05,0 l0,-22.41 c0,-4.04,-0.41,-6.9,-1.23,-8.58 c-0.82,-1.68,-2.12,-3.02,-3.91,-3.99 c-1.78,-0.98,-3.98,-1.46,-6.58,-1.46 c-3.09,0,-5.59,0.7,-7.5,2.09 c-1.9,1.39,-2.82,3.49,-2.76,6.29 Z M372.77,100.46 c0,-3.4,0.68,-5.88,2.03,-7.45 c1.35,-1.56,3.04,-2.34,5.08,-2.34 c2.02,0,3.71,0.78,5.08,2.33 c1.37,1.55,2.05,3.99,2.05,7.31 c0,3.17,-0.7,5.57,-2.11,7.18 c-1.41,1.61,-3.1,2.42,-5.09,2.42 c-1.95,0,-3.61,-0.79,-4.98,-2.38 c-1.37,-1.59,-2.05,-3.94,-2.05,-7.07 Z M397.74,87.04 l0,35.79 l4.39,0 l0,-12.84 c2.05,2.38,4.64,3.56,7.76,3.56 c1.92,0,3.59,-0.38,5.0,-1.14 c1.42,-0.76,2.43,-1.8,3.04,-3.14 c0.61,-1.33,0.92,-3.27,0.92,-5.81 l0,-16.43 l-4.39,0 l0,16.43 c0,2.2,-0.48,3.8,-1.43,4.8 c-0.95,1.0,-2.3,1.5,-4.04,1.5 c-1.3,0,-2.53,-0.34,-3.67,-1.01 c-1.15,-0.68,-1.97,-1.59,-2.45,-2.75 c-0.49,-1.16,-0.73,-2.75,-0.73,-4.79 l0,-14.18 Z M425.45,87.04 l0,35.79 l4.39,0 l0,-35.79 Z M436.46,77.05 l-0.49,4.13 c0.96,-0.26,1.8,-0.39,2.51,-0.39 c0.98,0,1.76,0.16,2.34,0.49 c0.59,0.33,1.07,0.78,1.44,1.37 c0.28,0.44,0.72,1.53,1.34,3.27 c0.08,0.24,0.21,0.6,0.39,1.07 l-9.84,25.98 l4.74,0 l5.4,-15.01 c0.7,-1.9,1.33,-3.91,1.88,-6.01 c0.5,2.02,1.11,3.99,1.81,5.91 l5.54,15.11 l4.39,0 l-9.86,-26.37 c-1.06,-2.85,-1.88,-4.81,-2.47,-5.88 c-0.78,-1.45,-1.68,-2.51,-2.69,-3.19 c-1.01,-0.68,-2.21,-1.01,-3.61,-1.01 c-0.85,0,-1.79,0.18,-2.83,0.54 Z M436.46,77.05" fill="rgb(0,0,0)" transform="matrix(1,0,0,-1,0,200)"/>
</svg>