<?xml version="1.0" encoding="UTF-8"?>
<svg height="200" version="1.1" width="800" xmlns="http://www.w3.org/2000/svg" xmlns:xlink="http://www.w3.org/1999/xlink">
 <path d="M0,0 l800,0 l0,200 l-800,0 Z M0,0" fill="rgb(255,255,255)" transform="matrix(1,0,0,-1,0,200)"/>
 <path d="M308.67,74.07 l0,45.02 l-7.76,0 l0,6.84 l7.76,0 l0,5.52 c0,3.48,0.31,6.07,0.93,7.76 c0.85,2.28,2.34,4.13,4.47,5.54 c2.13,1.42,5.12,2.12,8.96,2.12 c2.47,0,5.21,-0.29,8.2,-0.88 l-1.32,-7.67 c-1.82,0.33,-3.55,0.49,-5.18,0.49 c-2.67,0,-4.56,-0.57,-5.66,-1.71 c-1.11,-1.14,-1.66,-3.27,-1.66,-6.4 l0,-4.79 l10.11,0 l0,-6.84 l-10.11,0 l0,-45.02 Z M331.08,100 c0,9.6,2.67,16.72,8.01,21.34 c4.46,3.84,9.9,5.76,16.31,5.76 c7.13,0,12.96,-2.34,17.48,-7.01 c4.52,-4.67,6.79,-11.12,6.79,-19.36 c0,-6.67,-1.0,-11.92,-3.0,-15.75 c-2.0,-3.82,-4.92,-6.8,-8.74,-8.91 c-3.82,-2.12,-8.0,-3.17,-12.52,-3.17 c-7.26,0,-13.13,2.33,-17.6,6.98 c-4.48,4.65,-6.71,11.36,-6.71,20.12 Z M340.11,100 c0,-6.64,1.45,-11.61,4.35,-14.92 c2.9,-3.3,6.54,-4.96,10.94,-4.96 c4.36,0,7.99,1.66,10.89,4.98 c2.9,3.32,4.35,8.38,4.35,15.19 c0,6.41,-1.46,11.27,-4.37,14.58 c-2.91,3.3,-6.53,4.96,-10.86,4.96 c-4.39,0,-8.04,-1.64,-10.94,-4.93 c-2.9,-3.29,-4.35,-8.25,-4.35,-14.89 Z M390.01,135.55 l0,10.11 l8.79,0 l0,-10.11 Z M390.01,74.07 l0,51.86 l8.79,0 l0,-51.86 Z M411.99,74.07 l0,71.58 l8.79,0 l0,-71.58 Z M434.2,74.07 l0,71.58 l8.79,0 l0,-71.58 Z M456.23,54.1 l-0.98,8.25 c1.92,-0.52,3.6,-0.78,5.03,-0.78 c1.95,0,3.52,0.33,4.69,0.98 c1.17,0.65,2.13,1.56,2.88,2.73 c0.55,0.88,1.45,3.06,2.69,6.54 c0.16,0.49,0.42,1.2,0.78,2.15 l-19.68,51.95 l9.47,0 l10.79,-30.03 c1.4,-3.81,2.65,-7.81,3.76,-12.01 c1.01,4.04,2.21,7.98,3.61,11.82 l11.08,30.22 l8.79,0 l-19.73,-52.73 c-2.12,-5.7,-3.76,-9.62,-4.93,-11.77 c-1.56,-2.9,-3.35,-5.02,-5.37,-6.37 c-2.02,-1.35,-4.43,-2.03,-7.23,-2.03 c-1.69,0,-3.58,0.36,-5.66,1.07 Z M456.23,54.1" fill="rgb(0,0,0)" transform="matrix(1,0,0,-1,0,200)"/>
</svg>