<?xml version="1.0" encoding="UTF-8"?>
<svg height="200" version="1.1" width="800" xmlns="http://www.w3.org/2000/svg" xmlns:xlink="http://www.w3.org/1999/xlink">
 <path d="M0,0 l800,0 l0,200 l-800,0 Z M0,0" fill="rgb(255,255,255)" transform="matrix(1,0,0,-1,0,200)"/>
 <path d="M229.83,69.78 l8.54,-1.27 c0.36,-2.64,1.35,-4.56,2.98,-5.76 c2.18,-1.63,5.16,-2.44,8.94,-2.44 c4.07,0,7.21,0.81,9.42,2.44 c2.21,1.63,3.71,3.91,4.49,6.84 c0.46,1.79,0.67,5.55,0.63,11.28 c-3.84,-4.52,-8.63,-6.79,-14.36,-6.79 c-7.13,0,-12.65,2.57,-16.55,7.71 c-3.91,5.14,-5.86,11.31,-5.86,18.51 c0,4.95,0.9,9.51,2.69,13.7 c1.79,4.18,4.39,7.41,7.79,9.69 c3.4,2.28,7.4,3.42,11.99,3.42 c6.12,0,11.17,-2.47,15.14,-7.42 l0,6.25 l8.11,0 l0,-44.82 c0,-8.07,-0.82,-13.79,-2.47,-17.16 c-1.64,-3.37,-4.25,-6.03,-7.81,-7.98 c-3.56,-1.95,-7.95,-2.93,-13.16,-2.93 c-6.18,0,-11.18,1.39,-14.99,4.17 c-3.81,2.78,-5.65,6.97,-5.52,12.57 Z M237.11,100.93 c0,-6.8,1.35,-11.77,4.05,-14.89 c2.7,-3.13,6.09,-4.69,10.16,-4.69 c4.04,0,7.42,1.55,10.16,4.66 c2.73,3.11,4.1,7.98,4.1,14.62 c0,6.35,-1.41,11.13,-4.22,14.36 c-2.82,3.22,-6.21,4.83,-10.18,4.83 c-3.91,0,-7.23,-1.59,-9.96,-4.76 c-2.73,-3.17,-4.1,-7.89,-4.1,-14.14 Z M322.56,90.77 l9.08,-1.12 c-1.43,-5.31,-4.09,-9.42,-7.96,-12.35 c-3.87,-2.93,-8.82,-4.39,-14.84,-4.39 c-7.58,0,-13.6,2.34,-18.04,7.01 c-4.44,4.67,-6.67,11.22,-6.67,19.65 c0,8.72,2.25,15.49,6.74,20.31 c4.49,4.82,10.32,7.23,17.48,7.23 c6.93,0,12.6,-2.36,16.99,-7.08 c4.39,-4.72,6.59,-11.36,6.59,-19.92 c0,-0.52,-0.02,-1.3,-0.05,-2.34 l-38.67,0 c0.33,-5.7,1.94,-10.06,4.83,-13.09 c2.9,-3.03,6.51,-4.54,10.84,-4.54 c3.22,0,5.97,0.85,8.25,2.54 c2.28,1.69,4.09,4.39,5.42,8.11 Z M293.7,104.98 l28.96,0 c-0.39,4.36,-1.5,7.63,-3.32,9.81 c-2.8,3.39,-6.43,5.08,-10.89,5.08 c-4.04,0,-7.43,-1.35,-10.18,-4.05 c-2.75,-2.7,-4.27,-6.32,-4.57,-10.84 Z M342.68,74.07 l0,51.86 l7.91,0 l0,-7.37 c3.81,5.7,9.31,8.54,16.5,8.54 c3.13,0,6.0,-0.56,8.62,-1.68 c2.62,-1.12,4.58,-2.6,5.88,-4.42 c1.3,-1.82,2.21,-3.99,2.73,-6.49 c0.33,-1.63,0.49,-4.48,0.49,-8.54 l0,-31.88 l-8.79,0 l0,31.54 c0,3.58,-0.34,6.26,-1.03,8.03 c-0.68,1.77,-1.9,3.19,-3.64,4.25 c-1.74,1.06,-3.78,1.59,-6.13,1.59 c-3.74,0,-6.97,-1.19,-9.69,-3.56 c-2.72,-2.38,-4.08,-6.88,-4.08,-13.53 l0,-28.32 Z M431.93,74.07 l0,6.54 c-3.29,-5.14,-8.12,-7.71,-14.5,-7.71 c-4.13,0,-7.93,1.14,-11.4,3.42 c-3.47,2.28,-6.15,5.46,-8.06,9.55 c-1.9,4.09,-2.86,8.78,-2.86,14.09 c0,5.18,0.86,9.87,2.59,14.09 c1.73,4.22,4.31,7.45,7.76,9.69 c3.45,2.25,7.31,3.37,11.57,3.37 c3.13,0,5.91,-0.66,8.35,-1.98 c2.44,-1.32,4.43,-3.04,5.96,-5.15 l0,25.68 l8.74,0 l0,-71.58 Z M404.15,99.95 c0,-6.64,1.4,-11.6,4.2,-14.89 c2.8,-3.29,6.1,-4.93,9.91,-4.93 c3.84,0,7.1,1.57,9.79,4.71 c2.69,3.14,4.03,7.93,4.03,14.38 c0,7.1,-1.37,12.3,-4.1,15.62 c-2.73,3.32,-6.1,4.98,-10.11,4.98 c-3.91,0,-7.17,-1.6,-9.79,-4.79 c-2.62,-3.19,-3.93,-8.22,-3.93,-15.09 Z M453.96,135.55 l0,10.11 l8.79,0 l0,-10.11 Z M453.96,74.07 l0,51.86 l8.79,0 l0,-51.86 Z M472.61,89.55 l8.69,1.37 c0.49,-3.48,1.85,-6.15,4.08,-8.01 c2.23,-1.86,5.35,-2.78,9.35,-2.78 c4.04,0,7.03,0.82,8.98,2.47 c1.95,1.64,2.93,3.57,2.93,5.79 c0,1.99,-0.86,3.55,-2.59,4.69 c-1.2,0.78,-4.2,1.77,-8.98,2.98 c-6.45,1.63,-10.91,3.04,-13.4,4.22 c-2.49,1.19,-4.38,2.83,-5.66,4.93 c-1.29,2.1,-1.93,4.42,-1.93,6.96 c0,2.31,0.53,4.45,1.59,6.42 c1.06,1.97,2.5,3.61,4.32,4.91 c1.37,1.01,3.23,1.86,5.59,2.56 c2.36,0.7,4.89,1.05,7.59,1.05 c4.07,0,7.64,-0.59,10.72,-1.76 c3.08,-1.17,5.35,-2.76,6.81,-4.76 c1.46,-2.0,2.47,-4.68,3.03,-8.03 l-8.59,-1.17 c-0.39,2.67,-1.52,4.75,-3.39,6.25 c-1.87,1.5,-4.52,2.25,-7.93,2.25 c-4.04,0,-6.92,-0.67,-8.64,-2.0 c-1.73,-1.33,-2.59,-2.9,-2.59,-4.69 c0,-1.14,0.36,-2.16,1.07,-3.08 c0.72,-0.94,1.84,-1.73,3.37,-2.34 c0.88,-0.33,3.47,-1.07,7.76,-2.25 c6.22,-1.66,10.56,-3.02,13.01,-4.08 c2.46,-1.06,4.39,-2.6,5.79,-4.61 c1.4,-2.02,2.1,-4.52,2.1,-7.52 c0,-2.93,-0.85,-5.69,-2.56,-8.28 c-1.71,-2.59,-4.17,-4.59,-7.4,-6.01 c-3.22,-1.42,-6.87,-2.12,-10.94,-2.12 c-6.74,0,-11.87,1.4,-15.41,4.2 c-3.53,2.8,-5.79,6.95,-6.76,12.45 Z M526.12,74.07 l0,71.58 l8.79,0 l0,-25.68 c4.1,4.75,9.28,7.13,15.53,7.13 c3.84,0,7.18,-0.76,10.01,-2.27 c2.83,-1.51,4.86,-3.61,6.08,-6.27 c1.22,-2.67,1.83,-6.54,1.83,-11.62 l0,-32.86 l-8.79,0 l0,32.86 c0,4.39,-0.95,7.59,-2.86,9.59 c-1.9,2.0,-4.6,3.0,-8.08,3.0 c-2.6,0,-5.05,-0.68,-7.35,-2.03 c-2.29,-1.35,-3.93,-3.18,-4.91,-5.49 c-0.98,-2.31,-1.46,-5.5,-1.46,-9.57 l0,-28.37 Z M526.12,74.07" fill="rgb(0,0,0)" transform="matrix(1,0,0,-1,0,200)"/>
</svg>