<?xml version="1.0" encoding="UTF-8"?>
<svg height="200" version="1.1" width="800" xmlns="http://www.w3.org/2000/svg" xmlns:xlink="http://www.w3.org/1999/xlink">
 <path d="M0,0 l800,0 l0,200 l-800,0 Z M0,0" fill="rgb(255,255,255)" transform="matrix(1,0,0,-1,0,200)"/>
 <path d="M289.89,84.89 l4.27,-0.63 c0.18,-1.32,0.68,-2.28,1.49,-2.88 c1.09,-0.81,2.58,-1.22,4.47,-1.22 c2.03,0,3.61,0.41,4.71,1.22 c1.11,0.81,1.86,1.95,2.25,3.42 c0.23,0.9,0.33,2.78,0.32,5.64 c-1.92,-2.26,-4.31,-3.39,-7.18,-3.39 c-3.56,0,-6.32,1.29,-8.28,3.86 c-1.95,2.57,-2.93,5.66,-2.93,9.25 c0,2.47,0.45,4.76,1.34,6.85 c0.9,2.09,2.19,3.71,3.89,4.85 c1.7,1.14,3.7,1.71,5.99,1.71 c3.06,0,5.58,-1.24,7.57,-3.71 l0,3.12 l4.05,0 l0,-22.41 c0,-4.04,-0.41,-6.9,-1.23,-8.58 c-0.82,-1.68,-2.12,-3.02,-3.91,-3.99 c-1.78,-0.98,-3.98,-1.46,-6.58,-1.46 c-3.09,0,-5.59,0.7,-7.5,2.09 c-1.9,1.39,-2.82,3.49,-2.76,6.29 Z M293.53,100.46 c0,-3.4,0.68,-5.88,2.03,-7.45 c1.35,-1.56,3.04,-2.34,5.08,-2.34 c2.02,0,3.71,0.78,5.08,2.33 c1.37,1.55,2.05,3.99,2.05,7.31 c0,3.17,-0.7,5.57,-2.11,7.18 c-1.41,1.61,-3.1,2.42,-5.09,2.42 c-1.95,0,-3.61,-0.79,-4.98,-2.38 c-1.37,-1.59,-2.05,-3.94,-2.05,-7.07 Z M318.46,87.04 l0,25.93 l3.96,0 l0,-3.93 c1.01,1.84,1.94,3.05,2.8,3.64 c0.85,0.59,1.79,0.88,2.82,0.88 c1.48,0,2.99,-0.47,4.52,-1.42 l-1.51,-4.08 c-1.07,0.63,-2.15,0.95,-3.22,0.95 c-0.96,0,-1.82,-0.29,-2.59,-0.87 c-0.76,-0.58,-1.31,-1.38,-1.64,-2.4 c-0.49,-1.56,-0.73,-3.27,-0.73,-5.13 l0,-13.57 Z M352.08,90.23 c-1.63,-1.38,-3.19,-2.36,-4.7,-2.93 c-1.51,-0.57,-3.12,-0.85,-4.85,-0.85 c-2.85,0,-5.04,0.7,-6.57,2.09 c-1.53,1.39,-2.29,3.17,-2.29,5.33 c0,1.27,0.29,2.43,0.87,3.48 c0.58,1.05,1.33,1.89,2.27,2.53 c0.94,0.63,1.99,1.11,3.16,1.44 c0.86,0.23,2.16,0.45,3.91,0.66 c3.55,0.42,6.16,0.93,7.84,1.51 c0.02,0.6,0.02,0.98,0.02,1.15 c0,1.79,-0.42,3.05,-1.25,3.78 c-1.12,0.99,-2.79,1.49,-5.0,1.49 c-2.07,0,-3.59,-0.36,-4.58,-1.09 c-0.98,-0.72,-1.71,-2.01,-2.19,-3.85 l-4.3,0.59 c0.39,1.84,1.03,3.32,1.93,4.46 c0.9,1.13,2.19,2.0,3.88,2.61 c1.69,0.61,3.65,0.92,5.88,0.92 c2.21,0,4.01,-0.26,5.4,-0.78 c1.38,-0.52,2.4,-1.18,3.05,-1.97 c0.65,-0.79,1.11,-1.79,1.37,-2.99 c0.15,-0.75,0.22,-2.1,0.22,-4.05 l0,-5.86 c0,-4.09,0.09,-6.67,0.28,-7.75 c0.19,-1.08,0.56,-2.12,1.11,-3.11 l-4.59,0 c-0.46,0.91,-0.75,1.98,-0.88,3.2 Z M351.71,100.05 c-1.6,-0.65,-3.99,-1.2,-7.18,-1.66 c-1.81,-0.26,-3.08,-0.55,-3.83,-0.88 c-0.75,-0.33,-1.33,-0.8,-1.73,-1.43 c-0.41,-0.63,-0.61,-1.32,-0.61,-2.09 c0,-1.17,0.44,-2.15,1.33,-2.93 c0.89,-0.78,2.19,-1.17,3.89,-1.17 c1.69,0,3.2,0.37,4.52,1.11 c1.32,0.74,2.29,1.75,2.91,3.04 c0.47,0.99,0.71,2.46,0.71,4.39 Z M379.79,87.04 l0,3.27 c-1.64,-2.57,-4.06,-3.86,-7.25,-3.86 c-2.07,0,-3.97,0.57,-5.7,1.71 c-1.73,1.14,-3.08,2.73,-4.03,4.77 c-0.95,2.04,-1.43,4.39,-1.43,7.04 c0,2.59,0.43,4.94,1.29,7.04 c0.86,2.11,2.16,3.72,3.88,4.85 c1.73,1.12,3.65,1.68,5.79,1.68 c1.56,0,2.95,-0.33,4.17,-0.99 c1.22,-0.66,2.21,-1.52,2.98,-2.58 l0,12.84 l4.37,0 l0,-35.79 Z M365.89,99.98 c0,-3.32,0.7,-5.8,2.1,-7.45 c1.4,-1.64,3.05,-2.47,4.96,-2.47 c1.92,0,3.55,0.79,4.9,2.36 c1.34,1.57,2.01,3.97,2.01,7.19 c0,3.55,-0.68,6.15,-2.05,7.81 c-1.37,1.66,-3.05,2.49,-5.05,2.49 c-1.95,0,-3.58,-0.8,-4.9,-2.39 c-1.31,-1.6,-1.97,-4.11,-1.97,-7.54 Z M394.82,87.04 l-4.08,0 l0,35.79 l4.39,0 l0,-12.77 c1.86,2.33,4.22,3.49,7.1,3.49 c1.6,0,3.1,-0.32,4.53,-0.96 c1.42,-0.64,2.6,-1.55,3.52,-2.71 c0.92,-1.16,1.64,-2.57,2.16,-4.21 c0.52,-1.64,0.78,-3.4,0.78,-5.27 c0,-4.44,-1.1,-7.88,-3.3,-10.3 c-2.2,-2.43,-4.83,-3.64,-7.91,-3.64 c-3.06,0,-5.46,1.28,-7.2,3.83 Z M394.78,100.2 c0,-3.11,0.42,-5.35,1.27,-6.74 c1.38,-2.26,3.26,-3.39,5.62,-3.39 c1.92,0,3.58,0.83,4.98,2.5 c1.4,1.67,2.1,4.15,2.1,7.46 c0,3.39,-0.67,5.88,-2.01,7.5 c-1.34,1.61,-2.97,2.42,-4.87,2.42 c-1.92,0,-3.58,-0.83,-4.98,-2.5 c-1.4,-1.67,-2.1,-4.08,-2.1,-7.24 Z M416.94,100 c0,4.8,1.33,8.36,4.0,10.67 c2.23,1.92,4.95,2.88,8.15,2.88 c3.56,0,6.48,-1.17,8.74,-3.5 c2.26,-2.34,3.39,-5.56,3.39,-9.68 c0,-3.34,-0.5,-5.96,-1.5,-7.87 c-1.0,-1.91,-2.46,-3.4,-4.37,-4.46 c-1.91,-1.06,-4.0,-1.59,-6.26,-1.59 c-3.63,0,-6.56,1.16,-8.8,3.49 c-2.24,2.33,-3.36,5.68,-3.36,10.06 Z M421.46,100 c0,-3.32,0.72,-5.81,2.17,-7.46 c1.45,-1.65,3.27,-2.48,5.47,-2.48 c2.18,0,4.0,0.83,5.44,2.49 c1.45,1.66,2.17,4.19,2.17,7.59 c0,3.21,-0.73,5.64,-2.19,7.29 c-1.46,1.65,-3.27,2.48,-5.43,2.48 c-2.2,0,-4.02,-0.82,-5.47,-2.47 c-1.45,-1.64,-2.17,-4.13,-2.17,-7.45 Z M463.31,90.23 c-1.63,-1.38,-3.19,-2.36,-4.7,-2.93 c-1.51,-0.57,-3.12,-0.85,-4.85,-0.85 c-2.85,0,-5.04,0.7,-6.57,2.09 c-1.53,1.39,-2.29,3.17,-2.29,5.33 c0,1.27,0.29,2.43,0.87,3.48 c0.58,1.05,1.33,1.89,2.27,2.53 c0.94,0.63,1.99,1.11,3.16,1.44 c0.86,0.23,2.16,0.45,3.91,0.66 c3.55,0.42,6.16,0.93,7.84,1.51 c0.02,0.6,0.02,0.98,0.02,1.15 c0,1.79,-0.42,3.05,-1.25,3.78 c-1.12,0.99,-2.79,1.49,-5.0,1.49 c-2.07,0,-3.59,-0.36,-4.58,-1.09 c-0.98,-0.72,-1.71,-2.01,-2.19,-3.85 l-4.3,0.59 c0.39,1.84,1.03,3.32,1.93,4.46 c0.9,1.13,2.19,2.0,3.88,2.61 c1.69,0.61,3.65,0.92,5.88,0.92 c2.21,0,4.01,-0.26,5.4,-0.78 c1.38,-0.52,2.4,-1.18,3.05,-1.97 c0.65,-0.79,1.11,-1.79,1.37,-2.99 c0.15,-0.75,0.22,-2.1,0.22,-4.05 l0,-5.86 c0,-4.09,0.09,-6.67,0.28,-7.75 c0.19,-1.08,0.56,-2.12,1.11,-3.11 l-4.59,0 c-0.46,0.91,-0.75,1.98,-0.88,3.2 Z M462.94,100.05 c-1.6,-0.65,-3.99,-1.2,-7.18,-1.66 c-1.81,-0.26,-3.08,-0.55,-3.83,-0.88 c-0.75,-0.33,-1.33,-0.8,-1.73,-1.43 c-0.41,-0.63,-0.61,-1.32,-0.61,-2.09 c0,-1.17,0.44,-2.15,1.33,-2.93 c0.89,-0.78,2.19,-1.17,3.89,-1.17 c1.69,0,3.2,0.37,4.52,1.11 c1.32,0.74,2.29,1.75,2.91,3.04 c0.47,0.99,0.71,2.46,0.71,4.39 Z M483.79,90.97 l0.63,-3.88 c-1.24,-0.26,-2.34,-0.39,-3.32,-0.39 c-1.6,0,-2.83,0.25,-3.71,0.76 c-0.88,0.5,-1.5,1.17,-1.86,1.99 c-0.36,0.82,-0.54,2.55,-0.54,5.19 l0,14.92 l-3.22,0 l0,3.42 l3.22,0 l0,6.42 l4.37,2.64 l0,-9.06 l4.42,0 l0,-3.42 l-4.42,0 l0,-15.16 c0,-1.25,0.08,-2.06,0.23,-2.42 c0.15,-0.36,0.41,-0.64,0.76,-0.85 c0.35,-0.21,0.85,-0.32,1.5,-0.32 c0.49,0,1.13,0.06,1.93,0.17 Z M505.83,95.39 l4.54,-0.56 c-0.72,-2.65,-2.04,-4.71,-3.98,-6.18 c-1.94,-1.46,-4.41,-2.2,-7.42,-2.2 c-3.79,0,-6.8,1.17,-9.02,3.5 c-2.22,2.34,-3.33,5.61,-3.33,9.83 c0,4.36,1.12,7.75,3.37,10.16 c2.25,2.41,5.16,3.61,8.74,3.61 c3.47,0,6.3,-1.18,8.5,-3.54 c2.2,-2.36,3.3,-5.68,3.3,-9.96 c0,-0.26,-0.01,-0.65,-0.02,-1.17 l-19.34,0 c0.16,-2.85,0.97,-5.03,2.42,-6.54 c1.45,-1.51,3.26,-2.27,5.42,-2.27 c1.61,0,2.99,0.42,4.13,1.27 c1.14,0.85,2.04,2.2,2.71,4.05 Z M491.41,102.49 l14.48,0 c-0.2,2.18,-0.75,3.82,-1.66,4.91 c-1.4,1.69,-3.21,2.54,-5.44,2.54 c-2.02,0,-3.71,-0.68,-5.09,-2.03 c-1.38,-1.35,-2.14,-3.16,-2.28,-5.42 Z M491.41,102.49" fill="rgb(0,0,0)" transform="matrix(1,0,0,-1,0,200)"/>
</svg>