<?xml version="1.0" encoding="UTF-8"?>
<svg height="200" version="1.1" width="800" xmlns="http://www.w3.org/2000/svg" xmlns:xlink="http://www.w3.org/1999/xlink">
 <path d="M0,0 l800,0 l0,200 l-800,0 Z M0,0" fill="rgb(255,255,255)" transform="matrix(1,0,0,-1,0,200)"/>
 <path d="M222.85,74.07 l-8.15,0 l0,71.58 l8.79,0 l0,-25.54 c3.71,4.65,8.45,6.98,14.21,6.98 c3.19,0,6.21,-0.64,9.06,-1.93 c2.85,-1.29,5.19,-3.09,7.03,-5.42 c1.84,-2.33,3.28,-5.14,4.32,-8.42 c1.04,-3.29,1.56,-6.8,1.56,-10.55 c0,-8.89,-2.2,-15.76,-6.59,-20.61 c-4.39,-4.85,-9.67,-7.28,-15.82,-7.28 c-6.12,0,-10.92,2.56,-14.4,7.67 Z M222.75,100.39 c0,-6.22,0.85,-10.71,2.54,-13.48 c2.77,-4.52,6.51,-6.79,11.23,-6.79 c3.84,0,7.16,1.67,9.96,5.0 c2.8,3.34,4.2,8.31,4.2,14.92 c0,6.77,-1.34,11.77,-4.03,14.99 c-2.69,3.22,-5.93,4.83,-9.74,4.83 c-3.84,0,-7.16,-1.67,-9.96,-5.0 c-2.8,-3.34,-4.2,-8.16,-4.2,-14.48 Z M305.86,90.77 l9.08,-1.12 c-1.43,-5.31,-4.09,-9.42,-7.96,-12.35 c-3.87,-2.93,-8.82,-4.39,-14.84,-4.39 c-7.58,0,-13.6,2.34,-18.04,7.01 c-4.44,4.67,-6.67,11.22,-6.67,19.65 c0,8.72,2.25,15.49,6.74,20.31 c4.49,4.82,10.32,7.23,17.48,7.23 c6.93,0,12.6,-2.36,16.99,-7.08 c4.39,-4.72,6.59,-11.36,6.59,-19.92 c0,-0.52,-0.02,-1.3,-0.05,-2.34 l-38.67,0 c0.33,-5.7,1.94,-10.06,4.83,-13.09 c2.9,-3.03,6.51,-4.54,10.84,-4.54 c3.22,0,5.97,0.85,8.25,2.54 c2.28,1.69,4.09,4.39,5.42,8.11 Z M277.0,104.98 l28.96,0 c-0.39,4.36,-1.5,7.63,-3.32,9.81 c-2.8,3.39,-6.43,5.08,-10.89,5.08 c-4.04,0,-7.43,-1.35,-10.18,-4.05 c-2.75,-2.7,-4.27,-6.32,-4.57,-10.84 Z M359.81,93.07 l8.64,-1.12 c-0.94,-5.96,-3.36,-10.62,-7.25,-13.99 c-3.89,-3.37,-8.67,-5.05,-14.33,-5.05 c-7.1,0,-12.8,2.32,-17.11,6.96 c-4.31,4.64,-6.47,11.29,-6.47,19.95 c0,5.6,0.93,10.5,2.78,14.7 c1.86,4.2,4.68,7.35,8.47,9.45 c3.79,2.1,7.92,3.15,12.38,3.15 c5.63,0,10.24,-1.42,13.82,-4.27 c3.58,-2.85,5.88,-6.89,6.88,-12.13 l-8.54,-1.32 c-0.81,3.48,-2.25,6.1,-4.32,7.86 c-2.07,1.76,-4.57,2.64,-7.5,2.64 c-4.43,0,-8.02,-1.59,-10.79,-4.76 c-2.77,-3.17,-4.15,-8.19,-4.15,-15.06 c0,-6.97,1.33,-12.03,4.0,-15.19 c2.67,-3.16,6.15,-4.74,10.45,-4.74 c3.45,0,6.33,1.06,8.64,3.17 c2.31,2.12,3.78,5.37,4.39,9.77 Z M372.71,100 c0,9.6,2.67,16.72,8.01,21.34 c4.46,3.84,9.9,5.76,16.31,5.76 c7.13,0,12.96,-2.34,17.48,-7.01 c4.52,-4.67,6.79,-11.12,6.79,-19.36 c0,-6.67,-1.0,-11.92,-3.0,-15.75 c-2.0,-3.82,-4.92,-6.8,-8.74,-8.91 c-3.82,-2.12,-8.0,-3.17,-12.52,-3.17 c-7.26,0,-13.13,2.33,-17.6,6.98 c-4.48,4.65,-6.71,11.36,-6.71,20.12 Z M381.74,100 c0,-6.64,1.45,-11.61,4.35,-14.92 c2.9,-3.3,6.54,-4.96,10.94,-4.96 c4.36,0,7.99,1.66,10.89,4.98 c2.9,3.32,4.35,8.38,4.35,15.19 c0,6.41,-1.46,11.27,-4.37,14.58 c-2.91,3.3,-6.53,4.96,-10.86,4.96 c-4.39,0,-8.04,-1.64,-10.94,-4.93 c-2.9,-3.29,-4.35,-8.25,-4.35,-14.89 Z M431.59,74.07 l0,51.86 l7.91,0 l0,-7.37 c3.81,5.7,9.31,8.54,16.5,8.54 c3.13,0,6.0,-0.56,8.62,-1.68 c2.62,-1.12,4.58,-2.6,5.88,-4.42 c1.3,-1.82,2.21,-3.99,2.73,-6.49 c0.33,-1.63,0.49,-4.48,0.49,-8.54 l0,-31.88 l-8.79,0 l0,31.54 c0,3.58,-0.34,6.26,-1.03,8.03 c-0.68,1.77,-1.9,3.19,-3.64,4.25 c-1.74,1.06,-3.78,1.59,-6.13,1.59 c-3.74,0,-6.97,-1.19,-9.69,-3.56 c-2.72,-2.38,-4.08,-6.88,-4.08,-13.53 l0,-28.32 Z M522.71,90.77 l9.08,-1.12 c-1.43,-5.31,-4.09,-9.42,-7.96,-12.35 c-3.87,-2.93,-8.82,-4.39,-14.84,-4.39 c-7.58,0,-13.6,2.34,-18.04,7.01 c-4.44,4.67,-6.67,11.22,-6.67,19.65 c0,8.72,2.25,15.49,6.74,20.31 c4.49,4.82,10.32,7.23,17.48,7.23 c6.93,0,12.6,-2.36,16.99,-7.08 c4.39,-4.72,6.59,-11.36,6.59,-19.92 c0,-0.52,-0.02,-1.3,-0.05,-2.34 l-38.67,0 c0.33,-5.7,1.94,-10.06,4.83,-13.09 c2.9,-3.03,6.51,-4.54,10.84,-4.54 c3.22,0,5.97,0.85,8.25,2.54 c2.28,1.69,4.09,4.39,5.42,8.11 Z M493.85,104.98 l28.96,0 c-0.39,4.36,-1.5,7.63,-3.32,9.81 c-2.8,3.39,-6.43,5.08,-10.89,5.08 c-4.04,0,-7.43,-1.35,-10.18,-4.05 c-2.75,-2.7,-4.27,-6.32,-4.57,-10.84 Z M576.46,74.07 l0,6.54 c-3.29,-5.14,-8.12,-7.71,-14.5,-7.71 c-4.13,0,-7.93,1.14,-11.4,3.42 c-3.47,2.28,-6.15,5.46,-8.06,9.55 c-1.9,4.09,-2.86,8.78,-2.86,14.09 c0,5.18,0.86,9.87,2.59,14.09 c1.73,4.22,4.31,7.45,7.76,9.69 c3.45,2.25,7.31,3.37,11.57,3.37 c3.13,0,5.91,-0.66,8.35,-1.98 c2.44,-1.32,4.43,-3.04,5.96,-5.15 l0,25.68 l8.74,0 l0,-71.58 Z M548.68,99.95 c0,-6.64,1.4,-11.6,4.2,-14.89 c2.8,-3.29,6.1,-4.93,9.91,-4.93 c3.84,0,7.1,1.57,9.79,4.71 c2.69,3.14,4.03,7.93,4.03,14.38 c0,7.1,-1.37,12.3,-4.1,15.62 c-2.73,3.32,-6.1,4.98,-10.11,4.98 c-3.91,0,-7.17,-1.6,-9.79,-4.79 c-2.62,-3.19,-3.93,-8.22,-3.93,-15.09 Z M548.68,99.95" fill="rgb(0,0,0)" transform="matrix(1,0,0,-1,0,200)"/>
</svg>