<?xml version="1.0" encoding="UTF-8"?>
<svg height="200" version="1.1" width="800" xmlns="http://www.w3.org/2000/svg" xmlns:xlink="http://www.w3.org/1999/xlink">
 <path d="M0,0 l800,0 l0,200 l-800,0 Z M0,0" fill="rgb(255,255,255)" transform="matrix(1,0,0,-1,0,200)"/>
 <path d="M315.94,114.22 l0,4.04 l3.52,0 l0,-4.04 Z M315.94,89.63 l0,20.74 l3.52,0 l0,-20.74 Z M324.8,89.63 l0,20.74 l3.14,0 l0,-2.91 c0.65,1.02,1.52,1.83,2.6,2.45 c1.08,0.62,2.31,0.93,3.69,0.93 c1.54,0,2.8,-0.32,3.78,-0.96 c0.98,-0.64,1.68,-1.53,2.08,-2.68 c1.64,2.42,3.78,3.63,6.41,3.63 c2.06,0,3.64,-0.57,4.75,-1.71 c1.11,-1.14,1.66,-2.89,1.66,-5.26 l0,-14.24 l-3.5,0 l0,13.07 c0,1.41,-0.11,2.42,-0.34,3.04 c-0.23,0.62,-0.64,1.12,-1.24,1.49 c-0.6,0.38,-1.3,0.57,-2.11,0.57 c-1.46,0,-2.67,-0.49,-3.63,-1.46 c-0.96,-0.97,-1.45,-2.52,-1.45,-4.66 l0,-12.05 l-3.52,0 l0,13.48 c0,1.56,-0.29,2.73,-0.86,3.52 c-0.57,0.78,-1.51,1.17,-2.81,1.17 c-0.99,0,-1.9,-0.26,-2.74,-0.78 c-0.84,-0.52,-1.45,-1.28,-1.83,-2.29 c-0.38,-1.0,-0.57,-2.45,-0.57,-4.34 l0,-10.76 Z M358.12,81.68 l0,28.69 l3.2,0 l0,-2.7 c0.76,1.05,1.61,1.85,2.56,2.37 c0.95,0.53,2.1,0.79,3.46,0.79 c1.77,0,3.33,-0.46,4.69,-1.37 c1.35,-0.91,2.38,-2.2,3.07,-3.86 c0.69,-1.66,1.04,-3.48,1.04,-5.46 c0,-2.12,-0.38,-4.03,-1.14,-5.73 c-0.76,-1.7,-1.87,-3.0,-3.32,-3.91 c-1.45,-0.9,-2.98,-1.36,-4.58,-1.36 c-1.17,0,-2.22,0.25,-3.15,0.74 c-0.93,0.49,-1.7,1.12,-2.29,1.88 l0,-10.1 Z M361.31,99.88 c0,-2.67,0.54,-4.64,1.62,-5.92 c1.08,-1.28,2.39,-1.91,3.93,-1.91 c1.56,0,2.9,0.66,4.01,1.98 c1.11,1.32,1.67,3.37,1.67,6.14 c0,2.64,-0.54,4.62,-1.63,5.94 c-1.09,1.32,-2.39,1.97,-3.9,1.97 c-1.5,0,-2.82,-0.7,-3.97,-2.1 c-1.15,-1.4,-1.73,-3.43,-1.73,-6.1 Z M380.37,89.63 l0,28.63 l3.52,0 l0,-10.27 c1.64,1.9,3.71,2.85,6.21,2.85 c1.54,0,2.87,-0.3,4.0,-0.91 c1.13,-0.61,1.94,-1.44,2.43,-2.51 c0.49,-1.07,0.73,-2.62,0.73,-4.65 l0,-13.14 l-3.52,0 l0,13.14 c0,1.76,-0.38,3.04,-1.14,3.84 c-0.76,0.8,-1.84,1.2,-3.23,1.2 c-1.04,0,-2.02,-0.27,-2.94,-0.81 c-0.92,-0.54,-1.57,-1.27,-1.96,-2.2 c-0.39,-0.92,-0.59,-2.2,-0.59,-3.83 l0,-11.35 Z M416.15,92.19 c-1.3,-1.11,-2.56,-1.89,-3.76,-2.34 c-1.2,-0.46,-2.5,-0.68,-3.88,-0.68 c-2.28,0,-4.03,0.56,-5.25,1.67 c-1.22,1.11,-1.84,2.54,-1.84,4.27 c0,1.02,0.23,1.94,0.69,2.78 c0.46,0.84,1.07,1.51,1.82,2.02 c0.75,0.51,1.59,0.89,2.53,1.15 c0.69,0.18,1.73,0.36,3.12,0.53 c2.84,0.34,4.93,0.74,6.27,1.21 c0.01,0.48,0.02,0.79,0.02,0.92 c0,1.43,-0.33,2.44,-1.0,3.03 c-0.9,0.79,-2.23,1.19,-4.0,1.19 c-1.65,0,-2.87,-0.29,-3.66,-0.87 c-0.79,-0.58,-1.37,-1.6,-1.75,-3.08 l-3.44,0.47 c0.31,1.47,0.83,2.66,1.54,3.56 c0.72,0.9,1.75,1.6,3.11,2.09 c1.35,0.49,2.92,0.73,4.71,0.73 c1.77,0,3.21,-0.21,4.32,-0.62 c1.11,-0.42,1.92,-0.94,2.44,-1.57 c0.52,-0.63,0.89,-1.43,1.09,-2.39 c0.12,-0.6,0.18,-1.68,0.18,-3.24 l0,-4.69 c0,-3.27,0.07,-5.34,0.22,-6.2 c0.15,-0.87,0.45,-1.7,0.89,-2.49 l-3.67,0 c-0.36,0.73,-0.6,1.58,-0.7,2.56 Z M415.86,100.04 c-1.28,-0.52,-3.19,-0.96,-5.74,-1.33 c-1.45,-0.21,-2.47,-0.44,-3.07,-0.7 c-0.6,-0.26,-1.06,-0.64,-1.39,-1.14 c-0.33,-0.5,-0.49,-1.06,-0.49,-1.67 c0,-0.94,0.35,-1.72,1.06,-2.34 c0.71,-0.63,1.75,-0.94,3.12,-0.94 c1.35,0,2.56,0.3,3.61,0.89 c1.05,0.59,1.83,1.4,2.32,2.43 c0.38,0.79,0.57,1.97,0.57,3.52 Z M432.54,92.77 l0.51,-3.11 c-0.99,-0.21,-1.87,-0.31,-2.66,-0.31 c-1.28,0,-2.27,0.2,-2.97,0.61 c-0.7,0.4,-1.2,0.93,-1.48,1.59 c-0.29,0.66,-0.43,2.04,-0.43,4.15 l0,11.93 l-2.58,0 l0,2.73 l2.58,0 l0,5.14 l3.5,2.11 l0,-7.25 l3.54,0 l0,-2.73 l-3.54,0 l0,-12.13 c0,-1.0,0.06,-1.65,0.19,-1.93 c0.12,-0.29,0.33,-0.51,0.61,-0.68 c0.28,-0.17,0.68,-0.25,1.2,-0.25 c0.39,0,0.9,0.05,1.54,0.14 Z M436.0,114.22 l0,4.04 l3.52,0 l0,-4.04 Z M436.0,89.63 l0,20.74 l3.52,0 l0,-20.74 Z M443.55,100 c0,3.84,1.07,6.69,3.2,8.54 c1.78,1.54,3.96,2.3,6.52,2.3 c2.85,0,5.18,-0.93,6.99,-2.8 c1.81,-1.87,2.71,-4.45,2.71,-7.74 c0,-2.67,-0.4,-4.77,-1.2,-6.3 c-0.8,-1.53,-1.97,-2.72,-3.5,-3.56 c-1.53,-0.85,-3.2,-1.27,-5.01,-1.27 c-2.9,0,-5.25,0.93,-7.04,2.79 c-1.79,1.86,-2.69,4.54,-2.69,8.05 Z M447.17,100 c0,-2.66,0.58,-4.65,1.74,-5.97 c1.16,-1.32,2.62,-1.98,4.38,-1.98 c1.74,0,3.2,0.66,4.36,1.99 c1.16,1.33,1.74,3.35,1.74,6.07 c0,2.57,-0.58,4.51,-1.75,5.83 c-1.17,1.32,-2.61,1.98,-4.35,1.98 c-1.76,0,-3.22,-0.66,-4.38,-1.97 c-1.16,-1.32,-1.74,-3.3,-1.74,-5.96 Z M467.11,89.63 l0,20.74 l3.16,0 l0,-2.95 c1.52,2.28,3.72,3.42,6.6,3.42 c1.25,0,2.4,-0.22,3.45,-0.67 c1.05,-0.45,1.83,-1.04,2.35,-1.77 c0.52,-0.73,0.89,-1.6,1.09,-2.6 c0.13,-0.65,0.2,-1.79,0.2,-3.42 l0,-12.75 l-3.52,0 l0,12.62 c0,1.43,-0.14,2.5,-0.41,3.21 c-0.27,0.71,-0.76,1.28,-1.46,1.7 c-0.7,0.42,-1.51,0.63,-2.45,0.63 c-1.5,0,-2.79,-0.48,-3.88,-1.43 c-1.09,-0.95,-1.63,-2.75,-1.63,-5.41 l0,-11.33 Z M467.11,89.63" fill="rgb(0,0,0)" transform="matrix(1,0,0,-1,0,200)"/>
</svg>