<?xml version="1.0" encoding="UTF-8"?>
<svg height="200" version="1.1" width="800" xmlns="http://www.w3.org/2000/svg" xmlns:xlink="http://www.w3.org/1999/xlink">
 <path d="M0,0 l800,0 l0,200 l-800,0 Z M0,0" fill="rgb(255,255,255)" transform="matrix(1,0,0,-1,0,200)"/>
 <path d="M296.31,117.77 l0,5.05 l4.39,0 l0,-5.05 Z M296.31,87.04 l0,25.93 l4.39,0 l0,-25.93 Z M307.4,87.04 l0,25.93 l3.93,0 l0,-3.64 c0.81,1.27,1.9,2.29,3.25,3.06 c1.35,0.77,2.89,1.16,4.61,1.16 c1.92,0,3.5,-0.4,4.72,-1.2 c1.23,-0.8,2.1,-1.91,2.6,-3.34 c2.05,3.03,4.72,4.54,8.01,4.54 c2.57,0,4.55,-0.71,5.93,-2.14 c1.38,-1.42,2.08,-3.62,2.08,-6.58 l0,-17.8 l-4.37,0 l0,16.33 c0,1.76,-0.14,3.02,-0.43,3.8 c-0.28,0.77,-0.8,1.4,-1.55,1.87 c-0.75,0.47,-1.63,0.71,-2.64,0.71 c-1.82,0,-3.34,-0.61,-4.54,-1.82 c-1.2,-1.21,-1.81,-3.15,-1.81,-5.82 l0,-15.06 l-4.39,0 l0,16.85 c0,1.95,-0.36,3.42,-1.07,4.39 c-0.72,0.98,-1.89,1.46,-3.52,1.46 c-1.24,0,-2.38,-0.33,-3.43,-0.98 c-1.05,-0.65,-1.81,-1.6,-2.28,-2.86 c-0.47,-1.25,-0.71,-3.06,-0.71,-5.42 l0,-13.45 Z M349.05,77.1 l0,35.86 l4.0,0 l0,-3.37 c0.94,1.32,2.01,2.31,3.2,2.97 c1.19,0.66,2.63,0.99,4.32,0.99 c2.21,0,4.17,-0.57,5.86,-1.71 c1.69,-1.14,2.97,-2.75,3.83,-4.82 c0.86,-2.08,1.29,-4.35,1.29,-6.82 c0,-2.65,-0.48,-5.04,-1.43,-7.17 c-0.95,-2.12,-2.34,-3.75,-4.15,-4.88 c-1.81,-1.13,-3.72,-1.7,-5.73,-1.7 c-1.46,0,-2.78,0.31,-3.94,0.93 c-1.16,0.62,-2.12,1.4,-2.87,2.34 l0,-12.62 Z M353.03,99.85 c0,-3.34,0.68,-5.8,2.03,-7.4 c1.35,-1.6,2.99,-2.39,4.91,-2.39 c1.95,0,3.63,0.83,5.02,2.48 c1.39,1.65,2.09,4.21,2.09,7.68 c0,3.3,-0.68,5.78,-2.04,7.42 c-1.36,1.64,-2.98,2.47,-4.87,2.47 c-1.87,0,-3.53,-0.87,-4.97,-2.62 c-1.44,-1.75,-2.16,-4.29,-2.16,-7.63 Z M375.22,100 c0,4.8,1.33,8.36,4.0,10.67 c2.23,1.92,4.95,2.88,8.15,2.88 c3.56,0,6.48,-1.17,8.74,-3.5 c2.26,-2.34,3.39,-5.56,3.39,-9.68 c0,-3.34,-0.5,-5.96,-1.5,-7.87 c-1.0,-1.91,-2.46,-3.4,-4.37,-4.46 c-1.91,-1.06,-4.0,-1.59,-6.26,-1.59 c-3.63,0,-6.56,1.16,-8.8,3.49 c-2.24,2.33,-3.36,5.68,-3.36,10.06 Z M379.74,100 c0,-3.32,0.72,-5.81,2.17,-7.46 c1.45,-1.65,3.27,-2.48,5.47,-2.48 c2.18,0,4.0,0.83,5.44,2.49 c1.45,1.66,2.17,4.19,2.17,7.59 c0,3.21,-0.73,5.64,-2.19,7.29 c-1.46,1.65,-3.27,2.48,-5.43,2.48 c-2.2,0,-4.02,-0.82,-5.47,-2.47 c-1.45,-1.64,-2.17,-4.13,-2.17,-7.45 Z M404.69,117.77 l0,5.05 l4.39,0 l0,-5.05 Z M404.69,87.04 l0,25.93 l4.39,0 l0,-25.93 Z M415.77,87.04 l0,25.93 l3.96,0 l0,-3.69 c1.9,2.85,4.65,4.27,8.25,4.27 c1.56,0,3.0,-0.28,4.31,-0.84 c1.31,-0.56,2.29,-1.3,2.94,-2.21 c0.65,-0.91,1.11,-1.99,1.37,-3.25 c0.16,-0.81,0.24,-2.24,0.24,-4.27 l0,-15.94 l-4.39,0 l0,15.77 c0,1.79,-0.17,3.13,-0.51,4.02 c-0.34,0.89,-0.95,1.6,-1.82,2.12 c-0.87,0.53,-1.89,0.79,-3.06,0.79 c-1.87,0,-3.49,-0.59,-4.85,-1.78 c-1.36,-1.19,-2.04,-3.44,-2.04,-6.76 l0,-14.16 Z M443.6,117.77 l0,5.05 l4.39,0 l0,-5.05 Z M443.6,87.04 l0,25.93 l4.39,0 l0,-25.93 Z M454.69,87.04 l0,25.93 l3.96,0 l0,-3.69 c1.9,2.85,4.65,4.27,8.25,4.27 c1.56,0,3.0,-0.28,4.31,-0.84 c1.31,-0.56,2.29,-1.3,2.94,-2.21 c0.65,-0.91,1.11,-1.99,1.37,-3.25 c0.16,-0.81,0.24,-2.24,0.24,-4.27 l0,-15.94 l-4.39,0 l0,15.77 c0,1.79,-0.17,3.13,-0.51,4.02 c-0.34,0.89,-0.95,1.6,-1.82,2.12 c-0.87,0.53,-1.89,0.79,-3.06,0.79 c-1.87,0,-3.49,-0.59,-4.85,-1.78 c-1.36,-1.19,-2.04,-3.44,-2.04,-6.76 l0,-14.16 Z M481.69,84.89 l4.27,-0.63 c0.18,-1.32,0.68,-2.28,1.49,-2.88 c1.09,-0.81,2.58,-1.22,4.47,-1.22 c2.03,0,3.61,0.41,4.71,1.22 c1.11,0.81,1.86,1.95,2.25,3.42 c0.23,0.9,0.33,2.78,0.32,5.64 c-1.92,-2.26,-4.31,-3.39,-7.18,-3.39 c-3.56,0,-6.32,1.29,-8.28,3.86 c-1.95,2.57,-2.93,5.66,-2.93,9.25 c0,2.47,0.45,4.76,1.34,6.85 c0.9,2.09,2.19,3.71,3.89,4.85 c1.7,1.14,3.7,1.71,5.99,1.71 c3.06,0,5.58,-1.24,7.57,-3.71 l0,3.12 l4.05,0 l0,-22.41 c0,-4.04,-0.41,-6.9,-1.23,-8.58 c-0.82,-1.68,-2.12,-3.02,-3.91,-3.99 c-1.78,-0.98,-3.98,-1.46,-6.58,-1.46 c-3.09,0,-5.59,0.7,-7.5,2.09 c-1.9,1.39,-2.82,3.49,-2.76,6.29 Z M485.33,100.46 c0,-3.4,0.68,-5.88,2.03,-7.45 c1.35,-1.56,3.04,-2.34,5.08,-2.34 c2.02,0,3.71,0.78,5.08,2.33 c1.37,1.55,2.05,3.99,2.05,7.31 c0,3.17,-0.7,5.57,-2.11,7.18 c-1.41,1.61,-3.1,2.42,-5.09,2.42 c-1.95,0,-3.61,-0.79,-4.98,-2.38 c-1.37,-1.59,-2.05,-3.94,-2.05,-7.07 Z M485.33,100.46" fill="rgb(0,0,0)" transform="matrix(1,0,0,-1,0,200)"/>
</svg>