<?xml version="1.0" encoding="UTF-8"?>
<svg height="200" version="1.1" width="800" xmlns="http://www.w3.org/2000/svg" xmlns:xlink="http://www.w3.org/1999/xlink">
 <path d="M0,0 l800,0 l0,200 l-800,0 Z M0,0" fill="rgb(255,255,255)" transform="matrix(1,0,0,-1,0,200)"/>
 <path d="M318.54,117.77 l0,5.05 l4.39,0 l0,-5.05 Z M318.54,87.04 l0,25.93 l4.39,0 l0,-25.93 Z M329.63,87.04 l0,25.93 l3.96,0 l0,-3.69 c1.9,2.85,4.65,4.27,8.25,4.27 c1.56,0,3.0,-0.28,4.31,-0.84 c1.31,-0.56,2.29,-1.3,2.94,-2.21 c0.65,-0.91,1.11,-1.99,1.37,-3.25 c0.16,-0.81,0.24,-2.24,0.24,-4.27 l0,-15.94 l-4.39,0 l0,15.77 c0,1.79,-0.17,3.13,-0.51,4.02 c-0.34,0.89,-0.95,1.6,-1.82,2.12 c-0.87,0.53,-1.89,0.79,-3.06,0.79 c-1.87,0,-3.49,-0.59,-4.85,-1.78 c-1.36,-1.19,-2.04,-3.44,-2.04,-6.76 l0,-14.16 Z M374.26,87.04 l0,3.27 c-1.64,-2.57,-4.06,-3.86,-7.25,-3.86 c-2.07,0,-3.97,0.57,-5.7,1.71 c-1.73,1.14,-3.08,2.73,-4.03,4.77 c-0.95,2.04,-1.43,4.39,-1.43,7.04 c0,2.59,0.43,4.94,1.29,7.04 c0.86,2.11,2.16,3.72,3.88,4.85 c1.73,1.12,3.65,1.68,5.79,1.68 c1.56,0,2.95,-0.33,4.17,-0.99 c1.22,-0.66,2.21,-1.52,2.98,-2.58 l0,12.84 l4.37,0 l0,-35.79 Z M360.36,99.98 c0,-3.32,0.7,-5.8,2.1,-7.45 c1.4,-1.64,3.05,-2.47,4.96,-2.47 c1.92,0,3.55,0.79,4.9,2.36 c1.34,1.57,2.01,3.97,2.01,7.19 c0,3.55,-0.68,6.15,-2.05,7.81 c-1.37,1.66,-3.05,2.49,-5.05,2.49 c-1.95,0,-3.58,-0.8,-4.9,-2.39 c-1.31,-1.6,-1.97,-4.11,-1.97,-7.54 Z M402.23,87.04 l0,3.81 c-2.02,-2.93,-4.76,-4.39,-8.23,-4.39 c-1.53,0,-2.96,0.29,-4.28,0.88 c-1.33,0.59,-2.31,1.32,-2.95,2.21 c-0.64,0.89,-1.09,1.97,-1.35,3.26 c-0.18,0.86,-0.27,2.23,-0.27,4.1 l0,16.06 l4.39,0 l0,-14.38 c0,-2.29,0.09,-3.84,0.27,-4.64 c0.28,-1.16,0.86,-2.06,1.76,-2.72 c0.9,-0.66,2.0,-0.99,3.32,-0.99 c1.32,0,2.56,0.34,3.71,1.01 c1.16,0.68,1.97,1.6,2.45,2.76 c0.48,1.16,0.72,2.85,0.72,5.07 l0,13.89 l4.39,0 l0,-25.93 Z M429.97,96.53 l4.32,-0.56 c-0.47,-2.98,-1.68,-5.31,-3.63,-6.99 c-1.94,-1.68,-4.33,-2.53,-7.17,-2.53 c-3.55,0,-6.4,1.16,-8.56,3.48 c-2.16,2.32,-3.23,5.64,-3.23,9.97 c0,2.8,0.46,5.25,1.39,7.35 c0.93,2.1,2.34,3.67,4.24,4.72 c1.9,1.05,3.96,1.57,6.19,1.57 c2.82,0,5.12,-0.71,6.91,-2.14 c1.79,-1.42,2.94,-3.45,3.44,-6.07 l-4.27,-0.66 c-0.41,1.74,-1.13,3.05,-2.16,3.93 c-1.03,0.88,-2.28,1.32,-3.75,1.32 c-2.21,0,-4.01,-0.79,-5.4,-2.38 c-1.38,-1.59,-2.08,-4.1,-2.08,-7.53 c0,-3.48,0.67,-6.01,2.0,-7.59 c1.33,-1.58,3.08,-2.37,5.22,-2.37 c1.73,0,3.17,0.53,4.32,1.59 c1.16,1.06,1.89,2.69,2.2,4.88 Z M438.07,117.77 l0,5.05 l4.39,0 l0,-5.05 Z M438.07,87.04 l0,25.93 l4.39,0 l0,-25.93 Z M466.08,90.23 c-1.63,-1.38,-3.19,-2.36,-4.7,-2.93 c-1.51,-0.57,-3.12,-0.85,-4.85,-0.85 c-2.85,0,-5.04,0.7,-6.57,2.09 c-1.53,1.39,-2.29,3.17,-2.29,5.33 c0,1.27,0.29,2.43,0.87,3.48 c0.58,1.05,1.33,1.89,2.27,2.53 c0.94,0.63,1.99,1.11,3.16,1.44 c0.86,0.23,2.16,0.45,3.91,0.66 c3.55,0.42,6.16,0.93,7.84,1.51 c0.02,0.6,0.02,0.98,0.02,1.15 c0,1.79,-0.42,3.05,-1.25,3.78 c-1.12,0.99,-2.79,1.49,-5.0,1.49 c-2.07,0,-3.59,-0.36,-4.58,-1.09 c-0.98,-0.72,-1.71,-2.01,-2.19,-3.85 l-4.3,0.59 c0.39,1.84,1.03,3.32,1.93,4.46 c0.9,1.13,2.19,2.0,3.88,2.61 c1.69,0.61,3.65,0.92,5.88,0.92 c2.21,0,4.01,-0.26,5.4,-0.78 c1.38,-0.52,2.4,-1.18,3.05,-1.97 c0.65,-0.79,1.11,-1.79,1.37,-2.99 c0.15,-0.75,0.22,-2.1,0.22,-4.05 l0,-5.86 c0,-4.09,0.09,-6.67,0.28,-7.75 c0.19,-1.08,0.56,-2.12,1.11,-3.11 l-4.59,0 c-0.46,0.91,-0.75,1.98,-0.88,3.2 Z M465.71,100.05 c-1.6,-0.65,-3.99,-1.2,-7.18,-1.66 c-1.81,-0.26,-3.08,-0.55,-3.83,-0.88 c-0.75,-0.33,-1.33,-0.8,-1.73,-1.43 c-0.41,-0.63,-0.61,-1.32,-0.61,-2.09 c0,-1.17,0.44,-2.15,1.33,-2.93 c0.89,-0.78,2.19,-1.17,3.89,-1.17 c1.69,0,3.2,0.37,4.52,1.11 c1.32,0.74,2.29,1.75,2.91,3.04 c0.47,0.99,0.71,2.46,0.71,4.39 Z M476.87,87.04 l0,35.79 l4.39,0 l0,-35.79 Z M476.87,87.04" fill="rgb(0,0,0)" transform="matrix(1,0,0,-1,0,200)"/>
</svg>