<?xml version="1.0" encoding="UTF-8"?>
<svg height="200" version="1.1" width="800" xmlns="http://www.w3.org/2000/svg" xmlns:xlink="http://www.w3.org/1999/xlink">
 <path d="M0,0 l800,0 l0,200 l-800,0 Z M0,0" fill="rgb(255,255,255)" transform="matrix(1,0,0,-1,0,200)"/>
 <path d="M271.63,74.07 l-15.87,51.86 l9.08,0 l8.25,-29.93 l3.08,-11.13 c0.13,0.55,1.03,4.12,2.69,10.69 l8.25,30.37 l9.03,0 l7.76,-30.08 l2.59,-9.91 l2.98,10.01 l8.89,29.98 l8.54,0 l-16.21,-51.86 l-9.13,0 l-8.25,31.05 l-2.0,8.84 l-10.5,-39.89 Z M368.12,80.47 c-3.26,-2.77,-6.39,-4.72,-9.4,-5.86 c-3.01,-1.14,-6.24,-1.71,-9.69,-1.71 c-5.7,0,-10.07,1.39,-13.13,4.17 c-3.06,2.78,-4.59,6.34,-4.59,10.67 c0,2.54,0.58,4.86,1.73,6.96 c1.16,2.1,2.67,3.78,4.54,5.05 c1.87,1.27,3.98,2.23,6.32,2.88 c1.73,0.46,4.33,0.9,7.81,1.32 c7.1,0.85,12.32,1.86,15.67,3.03 c0.03,1.2,0.05,1.97,0.05,2.29 c0,3.58,-0.83,6.1,-2.49,7.57 c-2.25,1.99,-5.58,2.98,-10.01,2.98 c-4.13,0,-7.19,-0.72,-9.16,-2.17 c-1.97,-1.45,-3.43,-4.01,-4.37,-7.69 l-8.59,1.17 c0.78,3.68,2.07,6.65,3.86,8.91 c1.79,2.26,4.38,4.0,7.76,5.22 c3.39,1.22,7.31,1.83,11.77,1.83 c4.43,0,8.02,-0.52,10.79,-1.56 c2.77,-1.04,4.8,-2.35,6.1,-3.93 c1.3,-1.58,2.21,-3.57,2.73,-5.98 c0.29,-1.5,0.44,-4.2,0.44,-8.11 l0,-11.72 c0,-8.17,0.19,-13.34,0.56,-15.5 c0.37,-2.16,1.11,-4.24,2.22,-6.23 l-9.18,0 c-0.91,1.82,-1.5,3.96,-1.76,6.4 Z M367.38,100.1 c-3.19,-1.3,-7.98,-2.41,-14.36,-3.32 c-3.61,-0.52,-6.17,-1.11,-7.67,-1.76 c-1.5,-0.65,-2.65,-1.6,-3.47,-2.86 c-0.81,-1.25,-1.22,-2.64,-1.22,-4.17 c0,-2.34,0.89,-4.3,2.66,-5.86 c1.77,-1.56,4.37,-2.34,7.79,-2.34 c3.39,0,6.4,0.74,9.03,2.22 c2.64,1.48,4.57,3.51,5.81,6.08 c0.94,1.99,1.42,4.92,1.42,8.79 Z M389.89,74.07 l0,51.86 l7.91,0 l0,-7.37 c3.81,5.7,9.31,8.54,16.5,8.54 c3.13,0,6.0,-0.56,8.62,-1.68 c2.62,-1.12,4.58,-2.6,5.88,-4.42 c1.3,-1.82,2.21,-3.99,2.73,-6.49 c0.33,-1.63,0.49,-4.48,0.49,-8.54 l0,-31.88 l-8.79,0 l0,31.54 c0,3.58,-0.34,6.26,-1.03,8.03 c-0.68,1.77,-1.9,3.19,-3.64,4.25 c-1.74,1.06,-3.78,1.59,-6.13,1.59 c-3.74,0,-6.97,-1.19,-9.69,-3.56 c-2.72,-2.38,-4.08,-6.88,-4.08,-13.53 l0,-28.32 Z M479.15,74.07 l0,6.54 c-3.29,-5.14,-8.12,-7.71,-14.5,-7.71 c-4.13,0,-7.93,1.14,-11.4,3.42 c-3.47,2.28,-6.15,5.46,-8.06,9.55 c-1.9,4.09,-2.86,8.78,-2.86,14.09 c0,5.18,0.86,9.87,2.59,14.09 c1.73,4.22,4.31,7.45,7.76,9.69 c3.45,2.25,7.31,3.37,11.57,3.37 c3.13,0,5.91,-0.66,8.35,-1.98 c2.44,-1.32,4.43,-3.04,5.96,-5.15 l0,25.68 l8.74,0 l0,-71.58 Z M451.37,99.95 c0,-6.64,1.4,-11.6,4.2,-14.89 c2.8,-3.29,6.1,-4.93,9.91,-4.93 c3.84,0,7.1,1.57,9.79,4.71 c2.69,3.14,4.03,7.93,4.03,14.38 c0,7.1,-1.37,12.3,-4.1,15.62 c-2.73,3.32,-6.1,4.98,-10.11,4.98 c-3.91,0,-7.17,-1.6,-9.79,-4.79 c-2.62,-3.19,-3.93,-8.22,-3.93,-15.09 Z M500.73,54.1 l-0.98,8.25 c1.92,-0.52,3.6,-0.78,5.03,-0.78 c1.95,0,3.52,0.33,4.69,0.98 c1.17,0.65,2.13,1.56,2.88,2.73 c0.55,0.88,1.45,3.06,2.69,6.54 c0.16,0.49,0.42,1.2,0.78,2.15 l-19.68,51.95 l9.47,0 l10.79,-30.03 c1.4,-3.81,2.65,-7.81,3.76,-12.01 c1.01,4.04,2.21,7.98,3.61,11.82 l11.08,30.22 l8.79,0 l-19.73,-52.73 c-2.12,-5.7,-3.76,-9.62,-4.93,-11.77 c-1.56,-2.9,-3.35,-5.02,-5.37,-6.37 c-2.02,-1.35,-4.43,-2.03,-7.23,-2.03 c-1.69,0,-3.58,0.36,-5.66,1.07 Z M500.73,54.1" fill="rgb(0,0,0)" transform="matrix(1,0,0,-1,0,200)"/>
</svg>