<?xml version="1.0" encoding="UTF-8"?>
<svg height="200" version="1.1" width="800" xmlns="http://www.w3.org/2000/svg" xmlns:xlink="http://www.w3.org/1999/xlink">
 <path d="M0,0 l800,0 l0,200 l-800,0 Z M0,0" fill="rgb(255,255,255)" transform="matrix(1,0,0,-1,0,200)"/>
 <path d="M302.22,74.07 l-15.87,51.86 l9.08,0 l8.25,-29.93 l3.08,-11.13 c0.13,0.55,1.03,4.12,2.69,10.69 l8.25,30.37 l9.03,0 l7.76,-30.08 l2.59,-9.91 l2.98,10.01 l8.89,29.98 l8.54,0 l-16.21,-51.86 l-9.13,0 l-8.25,31.05 l-2.0,8.84 l-10.5,-39.89 Z M364.87,74.07 l0,71.58 l8.79,0 l0,-25.68 c4.1,4.75,9.28,7.13,15.53,7.13 c3.84,0,7.18,-0.76,10.01,-2.27 c2.83,-1.51,4.86,-3.61,6.08,-6.27 c1.22,-2.67,1.83,-6.54,1.83,-11.62 l0,-32.86 l-8.79,0 l0,32.86 c0,4.39,-0.95,7.59,-2.86,9.59 c-1.9,2.0,-4.6,3.0,-8.08,3.0 c-2.6,0,-5.05,-0.68,-7.35,-2.03 c-2.29,-1.35,-3.93,-3.18,-4.91,-5.49 c-0.98,-2.31,-1.46,-5.5,-1.46,-9.57 l0,-28.37 Z M420.53,135.55 l0,10.11 l8.79,0 l0,-10.11 Z M420.53,74.07 l0,51.86 l8.79,0 l0,-51.86 Z M442.5,74.07 l0,71.58 l8.79,0 l0,-71.58 Z M498.56,74.07 l0,6.54 c-3.29,-5.14,-8.12,-7.71,-14.5,-7.71 c-4.13,0,-7.93,1.14,-11.4,3.42 c-3.47,2.28,-6.15,5.46,-8.06,9.55 c-1.9,4.09,-2.86,8.78,-2.86,14.09 c0,5.18,0.86,9.87,2.59,14.09 c1.73,4.22,4.31,7.45,7.76,9.69 c3.45,2.25,7.31,3.37,11.57,3.37 c3.13,0,5.91,-0.66,8.35,-1.98 c2.44,-1.32,4.43,-3.04,5.96,-5.15 l0,25.68 l8.74,0 l0,-71.58 Z M470.78,99.95 c0,-6.64,1.4,-11.6,4.2,-14.89 c2.8,-3.29,6.1,-4.93,9.91,-4.93 c3.84,0,7.1,1.57,9.79,4.71 c2.69,3.14,4.03,7.93,4.03,14.38 c0,7.1,-1.37,12.3,-4.1,15.62 c-2.73,3.32,-6.1,4.98,-10.11,4.98 c-3.91,0,-7.17,-1.6,-9.79,-4.79 c-2.62,-3.19,-3.93,-8.22,-3.93,-15.09 Z M470.78,99.95" fill="rgb(0,0,0)" transform="matrix(1,0,0,-1,0,200)"/>
</svg>