<?xml version="1.0" encoding="UTF-8"?>
<svg height="200" version="1.1" width="800" xmlns="http://www.w3.org/2000/svg" xmlns:xlink="http://www.w3.org/1999/xlink">
 <path d="M0,0 l800,0 l0,200 l-800,0 Z M0,0" fill="rgb(255,255,255)" transform="matrix(1,0,0,-1,0,200)"/>
 <path d="M351.78,87.04 l0,35.79 l4.39,0 l0,-35.79 Z M363.01,117.77 l0,5.05 l4.39,0 l0,-5.05 Z M363.01,87.04 l0,25.93 l4.39,0 l0,-25.93 Z M383.69,90.97 l0.63,-3.88 c-1.24,-0.26,-2.34,-0.39,-3.32,-0.39 c-1.6,0,-2.83,0.25,-3.71,0.76 c-0.88,0.5,-1.5,1.17,-1.86,1.99 c-0.36,0.82,-0.54,2.55,-0.54,5.19 l0,14.92 l-3.22,0 l0,3.42 l3.22,0 l0,6.42 l4.37,2.64 l0,-9.06 l4.42,0 l0,-3.42 l-4.42,0 l0,-15.16 c0,-1.25,0.08,-2.06,0.23,-2.42 c0.15,-0.36,0.41,-0.64,0.76,-0.85 c0.35,-0.21,0.85,-0.32,1.5,-0.32 c0.49,0,1.13,0.06,1.93,0.17 Z M387.99,87.04 l0,35.79 l4.39,0 l0,-12.84 c2.05,2.38,4.64,3.56,7.76,3.56 c1.92,0,3.59,-0.38,5.0,-1.14 c1.42,-0.76,2.43,-1.8,3.04,-3.14 c0.61,-1.33,0.92,-3.27,0.92,-5.81 l0,-16.43 l-4.39,0 l0,16.43 c0,2.2,-0.48,3.8,-1.43,4.8 c-0.95,1.0,-2.3,1.5,-4.04,1.5 c-1.3,0,-2.53,-0.34,-3.67,-1.01 c-1.15,-0.68,-1.97,-1.59,-2.45,-2.75 c-0.49,-1.16,-0.73,-2.75,-0.73,-4.79 l0,-14.18 Z M415.82,117.77 l0,5.05 l4.39,0 l0,-5.05 Z M415.82,87.04 l0,25.93 l4.39,0 l0,-25.93 Z M426.9,87.04 l0,25.93 l3.96,0 l0,-3.69 c1.9,2.85,4.65,4.27,8.25,4.27 c1.56,0,3.0,-0.28,4.31,-0.84 c1.31,-0.56,2.29,-1.3,2.94,-2.21 c0.65,-0.91,1.11,-1.99,1.37,-3.25 c0.16,-0.81,0.24,-2.24,0.24,-4.27 l0,-15.94 l-4.39,0 l0,15.77 c0,1.79,-0.17,3.13,-0.51,4.02 c-0.34,0.89,-0.95,1.6,-1.82,2.12 c-0.87,0.53,-1.89,0.79,-3.06,0.79 c-1.87,0,-3.49,-0.59,-4.85,-1.78 c-1.36,-1.19,-2.04,-3.44,-2.04,-6.76 l0,-14.16 Z M426.9,87.04" fill="rgb(0,0,0)" transform="matrix(1,0,0,-1,0,200)"/>
</svg>