<?xml version="1.0" encoding="UTF-8"?>
<svg height="200" version="1.1" width="800" xmlns="http://www.w3.org/2000/svg" xmlns:xlink="http://www.w3.org/1999/xlink">
 <path d="M0,0 l800,0 l0,200 l-800,0 Z M0,0" fill="rgb(255,255,255)" transform="matrix(1,0,0,-1,0,200)"/>
 <path d="M271.68,74.07 l-15.87,51.86 l9.08,0 l8.25,-29.93 l3.08,-11.13 c0.13,0.55,1.03,4.12,2.69,10.69 l8.25,30.37 l9.03,0 l7.76,-30.08 l2.59,-9.91 l2.98,10.01 l8.89,29.98 l8.54,0 l-16.21,-51.86 l-9.13,0 l-8.25,31.05 l-2.0,8.84 l-10.5,-39.89 Z M331.05,100 c0,9.6,2.67,16.72,8.01,21.34 c4.46,3.84,9.9,5.76,16.31,5.76 c7.13,0,12.96,-2.34,17.48,-7.01 c4.52,-4.67,6.79,-11.12,6.79,-19.36 c0,-6.67,-1.0,-11.92,-3.0,-15.75 c-2.0,-3.82,-4.92,-6.8,-8.74,-8.91 c-3.82,-2.12,-8.0,-3.17,-12.52,-3.17 c-7.26,0,-13.13,2.33,-17.6,6.98 c-4.48,4.65,-6.71,11.36,-6.71,20.12 Z M340.09,100 c0,-6.64,1.45,-11.61,4.35,-14.92 c2.9,-3.3,6.54,-4.96,10.94,-4.96 c4.36,0,7.99,1.66,10.89,4.98 c2.9,3.32,4.35,8.38,4.35,15.19 c0,6.41,-1.46,11.27,-4.37,14.58 c-2.91,3.3,-6.53,4.96,-10.86,4.96 c-4.39,0,-8.04,-1.64,-10.94,-4.93 c-2.9,-3.29,-4.35,-8.25,-4.35,-14.89 Z M389.84,74.07 l0,51.86 l7.91,0 l0,-7.86 c2.02,3.68,3.88,6.1,5.59,7.28 c1.71,1.17,3.59,1.76,5.64,1.76 c2.96,0,5.97,-0.94,9.03,-2.83 l-3.03,-8.15 c-2.15,1.27,-4.3,1.9,-6.45,1.9 c-1.92,0,-3.65,-0.58,-5.18,-1.73 c-1.53,-1.16,-2.62,-2.76,-3.27,-4.81 c-0.98,-3.13,-1.46,-6.54,-1.46,-10.25 l0,-27.15 Z M421.63,69.78 l8.54,-1.27 c0.36,-2.64,1.35,-4.56,2.98,-5.76 c2.18,-1.63,5.16,-2.44,8.94,-2.44 c4.07,0,7.21,0.81,9.42,2.44 c2.21,1.63,3.71,3.91,4.49,6.84 c0.46,1.79,0.67,5.55,0.63,11.28 c-3.84,-4.52,-8.63,-6.79,-14.36,-6.79 c-7.13,0,-12.65,2.57,-16.55,7.71 c-3.91,5.14,-5.86,11.31,-5.86,18.51 c0,4.95,0.9,9.51,2.69,13.7 c1.79,4.18,4.39,7.41,7.79,9.69 c3.4,2.28,7.4,3.42,11.99,3.42 c6.12,0,11.17,-2.47,15.14,-7.42 l0,6.25 l8.11,0 l0,-44.82 c0,-8.07,-0.82,-13.79,-2.47,-17.16 c-1.64,-3.37,-4.25,-6.03,-7.81,-7.98 c-3.56,-1.95,-7.95,-2.93,-13.16,-2.93 c-6.18,0,-11.18,1.39,-14.99,4.17 c-3.81,2.78,-5.65,6.97,-5.52,12.57 Z M428.91,100.93 c0,-6.8,1.35,-11.77,4.05,-14.89 c2.7,-3.13,6.09,-4.69,10.16,-4.69 c4.04,0,7.42,1.55,10.16,4.66 c2.73,3.11,4.1,7.98,4.1,14.62 c0,6.35,-1.41,11.13,-4.22,14.36 c-2.82,3.22,-6.21,4.83,-10.18,4.83 c-3.91,0,-7.23,-1.59,-9.96,-4.76 c-2.73,-3.17,-4.1,-7.89,-4.1,-14.14 Z M478.91,135.55 l0,10.11 l8.79,0 l0,-10.11 Z M478.91,74.07 l0,51.86 l8.79,0 l0,-51.86 Z M534.91,93.07 l8.64,-1.12 c-0.94,-5.96,-3.36,-10.62,-7.25,-13.99 c-3.89,-3.37,-8.67,-5.05,-14.33,-5.05 c-7.1,0,-12.8,2.32,-17.11,6.96 c-4.31,4.64,-6.47,11.29,-6.47,19.95 c0,5.6,0.93,10.5,2.78,14.7 c1.86,4.2,4.68,7.35,8.47,9.45 c3.79,2.1,7.92,3.15,12.38,3.15 c5.63,0,10.24,-1.42,13.82,-4.27 c3.58,-2.85,5.88,-6.89,6.88,-12.13 l-8.54,-1.32 c-0.81,3.48,-2.25,6.1,-4.32,7.86 c-2.07,1.76,-4.57,2.64,-7.5,2.64 c-4.43,0,-8.02,-1.59,-10.79,-4.76 c-2.77,-3.17,-4.15,-8.19,-4.15,-15.06 c0,-6.97,1.33,-12.03,4.0,-15.19 c2.67,-3.16,6.15,-4.74,10.45,-4.74 c3.45,0,6.33,1.06,8.64,3.17 c2.31,2.12,3.78,5.37,4.39,9.77 Z M534.91,93.07" fill="rgb(0,0,0)" transform="matrix(1,0,0,-1,0,200)"/>
</svg>