<?xml version="1.0" encoding="UTF-8"?>
<svg height="200" version="1.1" width="800" xmlns="http://www.w3.org/2000/svg" xmlns:xlink="http://www.w3.org/1999/xlink">
 <path d="M0,0 l800,0 l0,200 l-800,0 Z M0,0" fill="rgb(255,255,255)" transform="matrix(1,0,0,-1,0,200)"/>
 <path d="M272.97,74.07 l-8.15,0 l0,71.58 l8.79,0 l0,-25.54 c3.71,4.65,8.45,6.98,14.21,6.98 c3.19,0,6.21,-0.64,9.06,-1.93 c2.85,-1.29,5.19,-3.09,7.03,-5.42 c1.84,-2.33,3.28,-5.14,4.32,-8.42 c1.04,-3.29,1.56,-6.8,1.56,-10.55 c0,-8.89,-2.2,-15.76,-6.59,-20.61 c-4.39,-4.85,-9.67,-7.28,-15.82,-7.28 c-6.12,0,-10.92,2.56,-14.4,7.67 Z M272.88,100.39 c0,-6.22,0.85,-10.71,2.54,-13.48 c2.77,-4.52,6.51,-6.79,11.23,-6.79 c3.84,0,7.16,1.67,9.96,5.0 c2.8,3.34,4.2,8.31,4.2,14.92 c0,6.77,-1.34,11.77,-4.03,14.99 c-2.69,3.22,-5.93,4.83,-9.74,4.83 c-3.84,0,-7.16,-1.67,-9.96,-5.0 c-2.8,-3.34,-4.2,-8.16,-4.2,-14.48 Z M320.39,74.07 l0,51.86 l7.91,0 l0,-7.86 c2.02,3.68,3.88,6.1,5.59,7.28 c1.71,1.17,3.59,1.76,5.64,1.76 c2.96,0,5.97,-0.94,9.03,-2.83 l-3.03,-8.15 c-2.15,1.27,-4.3,1.9,-6.45,1.9 c-1.92,0,-3.65,-0.58,-5.18,-1.73 c-1.53,-1.16,-2.62,-2.76,-3.27,-4.81 c-0.98,-3.13,-1.46,-6.54,-1.46,-10.25 l0,-27.15 Z M387.77,74.07 l0,7.62 c-4.04,-5.86,-9.52,-8.79,-16.46,-8.79 c-3.06,0,-5.92,0.59,-8.57,1.76 c-2.65,1.17,-4.62,2.64,-5.91,4.42 c-1.29,1.77,-2.19,3.95,-2.71,6.52 c-0.36,1.73,-0.54,4.46,-0.54,8.2 l0,32.13 l8.79,0 l0,-28.76 c0,-4.59,0.18,-7.68,0.54,-9.28 c0.55,-2.31,1.73,-4.13,3.52,-5.44 c1.79,-1.32,4.0,-1.98,6.64,-1.98 c2.64,0,5.11,0.68,7.42,2.03 c2.31,1.35,3.95,3.19,4.91,5.52 c0.96,2.33,1.44,5.7,1.44,10.13 l0,27.78 l8.79,0 l0,-51.86 Z M409.4,74.07 l0,51.86 l7.86,0 l0,-7.28 c1.63,2.54,3.79,4.58,6.49,6.13 c2.7,1.55,5.78,2.32,9.23,2.32 c3.84,0,6.99,-0.8,9.45,-2.39 c2.46,-1.6,4.19,-3.82,5.2,-6.69 c4.1,6.05,9.44,9.08,16.02,9.08 c5.14,0,9.1,-1.42,11.87,-4.27 c2.77,-2.85,4.15,-7.23,4.15,-13.16 l0,-35.6 l-8.74,0 l0,32.67 c0,3.52,-0.28,6.05,-0.85,7.59 c-0.57,1.55,-1.6,2.79,-3.1,3.74 c-1.5,0.94,-3.26,1.42,-5.27,1.42 c-3.65,0,-6.67,-1.21,-9.08,-3.64 c-2.41,-2.43,-3.61,-6.31,-3.61,-11.65 l0,-30.13 l-8.79,0 l0,33.69 c0,3.91,-0.72,6.84,-2.15,8.79 c-1.43,1.95,-3.78,2.93,-7.03,2.93 c-2.47,0,-4.76,-0.65,-6.86,-1.95 c-2.1,-1.3,-3.62,-3.21,-4.57,-5.71 c-0.94,-2.51,-1.42,-6.12,-1.42,-10.84 l0,-26.9 Z M500.81,74.07 l-8.15,0 l0,71.58 l8.79,0 l0,-25.54 c3.71,4.65,8.45,6.98,14.21,6.98 c3.19,0,6.21,-0.64,9.06,-1.93 c2.85,-1.29,5.19,-3.09,7.03,-5.42 c1.84,-2.33,3.28,-5.14,4.32,-8.42 c1.04,-3.29,1.56,-6.8,1.56,-10.55 c0,-8.89,-2.2,-15.76,-6.59,-20.61 c-4.39,-4.85,-9.67,-7.28,-15.82,-7.28 c-6.12,0,-10.92,2.56,-14.4,7.67 Z M500.71,100.39 c0,-6.22,0.85,-10.71,2.54,-13.48 c2.77,-4.52,6.51,-6.79,11.23,-6.79 c3.84,0,7.16,1.67,9.96,5.0 c2.8,3.34,4.2,8.31,4.2,14.92 c0,6.77,-1.34,11.77,-4.03,14.99 c-2.69,3.22,-5.93,4.83,-9.74,4.83 c-3.84,0,-7.16,-1.67,-9.96,-5.0 c-2.8,-3.34,-4.2,-8.16,-4.2,-14.48 Z M500.71,100.39" fill="rgb(0,0,0)" transform="matrix(1,0,0,-1,0,200)"/>
</svg>