<?xml version="1.0" encoding="UTF-8"?>
<svg height="200" version="1.1" width="800" xmlns="http://www.w3.org/2000/svg" xmlns:xlink="http://www.w3.org/1999/xlink">
 <path d="M0,0 l800,0 l0,200 l-800,0 Z M0,0" fill="rgb(255,255,255)" transform="matrix(1,0,0,-1,0,200)"/>
 <path d="M311.34,100 c0,4.8,1.33,8.36,4.0,10.67 c2.23,1.92,4.95,2.88,8.15,2.88 c3.56,0,6.48,-1.17,8.74,-3.5 c2.26,-2.34,3.39,-5.56,3.39,-9.68 c0,-3.34,-0.5,-5.96,-1.5,-7.87 c-1.0,-1.91,-2.46,-3.4,-4.37,-4.46 c-1.91,-1.06,-4.0,-1.59,-6.26,-1.59 c-3.63,0,-6.56,1.16,-8.8,3.49 c-2.24,2.33,-3.36,5.68,-3.36,10.06 Z M315.86,100 c0,-3.32,0.72,-5.81,2.17,-7.46 c1.45,-1.65,3.27,-2.48,5.47,-2.48 c2.18,0,4.0,0.83,5.44,2.49 c1.45,1.66,2.17,4.19,2.17,7.59 c0,3.21,-0.73,5.64,-2.19,7.29 c-1.46,1.65,-3.27,2.48,-5.43,2.48 c-2.2,0,-4.02,-0.82,-5.47,-2.47 c-1.45,-1.64,-2.17,-4.13,-2.17,-7.45 Z M340.73,87.04 l0,25.93 l3.96,0 l0,-3.93 c1.01,1.84,1.94,3.05,2.8,3.64 c0.85,0.59,1.79,0.88,2.82,0.88 c1.48,0,2.99,-0.47,4.52,-1.42 l-1.51,-4.08 c-1.07,0.63,-2.15,0.95,-3.22,0.95 c-0.96,0,-1.82,-0.29,-2.59,-0.87 c-0.76,-0.58,-1.31,-1.38,-1.64,-2.4 c-0.49,-1.56,-0.73,-3.27,-0.73,-5.13 l0,-13.57 Z M357.46,117.77 l0,5.05 l4.39,0 l0,-5.05 Z M357.46,87.04 l0,25.93 l4.39,0 l0,-25.93 Z M368.54,87.04 l0,25.93 l3.96,0 l0,-3.69 c1.9,2.85,4.65,4.27,8.25,4.27 c1.56,0,3.0,-0.28,4.31,-0.84 c1.31,-0.56,2.29,-1.3,2.94,-2.21 c0.65,-0.91,1.11,-1.99,1.37,-3.25 c0.16,-0.81,0.24,-2.24,0.24,-4.27 l0,-15.94 l-4.39,0 l0,15.77 c0,1.79,-0.17,3.13,-0.51,4.02 c-0.34,0.89,-0.95,1.6,-1.82,2.12 c-0.87,0.53,-1.89,0.79,-3.06,0.79 c-1.87,0,-3.49,-0.59,-4.85,-1.78 c-1.36,-1.19,-2.04,-3.44,-2.04,-6.76 l0,-14.16 Z M413.17,87.04 l0,3.27 c-1.64,-2.57,-4.06,-3.86,-7.25,-3.86 c-2.07,0,-3.97,0.57,-5.7,1.71 c-1.73,1.14,-3.08,2.73,-4.03,4.77 c-0.95,2.04,-1.43,4.39,-1.43,7.04 c0,2.59,0.43,4.94,1.29,7.04 c0.86,2.11,2.16,3.72,3.88,4.85 c1.73,1.12,3.65,1.68,5.79,1.68 c1.56,0,2.95,-0.33,4.17,-0.99 c1.22,-0.66,2.21,-1.52,2.98,-2.58 l0,12.84 l4.37,0 l0,-35.79 Z M399.28,99.98 c0,-3.32,0.7,-5.8,2.1,-7.45 c1.4,-1.64,3.05,-2.47,4.96,-2.47 c1.92,0,3.55,0.79,4.9,2.36 c1.34,1.57,2.01,3.97,2.01,7.19 c0,3.55,-0.68,6.15,-2.05,7.81 c-1.37,1.66,-3.05,2.49,-5.05,2.49 c-1.95,0,-3.58,-0.8,-4.9,-2.39 c-1.31,-1.6,-1.97,-4.11,-1.97,-7.54 Z M441.08,90.23 c-1.63,-1.38,-3.19,-2.36,-4.7,-2.93 c-1.51,-0.57,-3.12,-0.85,-4.85,-0.85 c-2.85,0,-5.04,0.7,-6.57,2.09 c-1.53,1.39,-2.29,3.17,-2.29,5.33 c0,1.27,0.29,2.43,0.87,3.48 c0.58,1.05,1.33,1.89,2.27,2.53 c0.94,0.63,1.99,1.11,3.16,1.44 c0.86,0.23,2.16,0.45,3.91,0.66 c3.55,0.42,6.16,0.93,7.84,1.51 c0.02,0.6,0.02,0.98,0.02,1.15 c0,1.79,-0.42,3.05,-1.25,3.78 c-1.12,0.99,-2.79,1.49,-5.0,1.49 c-2.07,0,-3.59,-0.36,-4.58,-1.09 c-0.98,-0.72,-1.71,-2.01,-2.19,-3.85 l-4.3,0.59 c0.39,1.84,1.03,3.32,1.93,4.46 c0.9,1.13,2.19,2.0,3.88,2.61 c1.69,0.61,3.65,0.92,5.88,0.92 c2.21,0,4.01,-0.26,5.4,-0.78 c1.38,-0.52,2.4,-1.18,3.05,-1.97 c0.65,-0.79,1.11,-1.79,1.37,-2.99 c0.15,-0.75,0.22,-2.1,0.22,-4.05 l0,-5.86 c0,-4.09,0.09,-6.67,0.28,-7.75 c0.19,-1.08,0.56,-2.12,1.11,-3.11 l-4.59,0 c-0.46,0.91,-0.75,1.98,-0.88,3.2 Z M440.71,100.05 c-1.6,-0.65,-3.99,-1.2,-7.18,-1.66 c-1.81,-0.26,-3.08,-0.55,-3.83,-0.88 c-0.75,-0.33,-1.33,-0.8,-1.73,-1.43 c-0.41,-0.63,-0.61,-1.32,-0.61,-2.09 c0,-1.17,0.44,-2.15,1.33,-2.93 c0.89,-0.78,2.19,-1.17,3.89,-1.17 c1.69,0,3.2,0.37,4.52,1.11 c1.32,0.74,2.29,1.75,2.91,3.04 c0.47,0.99,0.71,2.46,0.71,4.39 Z M451.92,87.04 l0,25.93 l3.96,0 l0,-3.93 c1.01,1.84,1.94,3.05,2.8,3.64 c0.85,0.59,1.79,0.88,2.82,0.88 c1.48,0,2.99,-0.47,4.52,-1.42 l-1.51,-4.08 c-1.07,0.63,-2.15,0.95,-3.22,0.95 c-0.96,0,-1.82,-0.29,-2.59,-0.87 c-0.76,-0.58,-1.31,-1.38,-1.64,-2.4 c-0.49,-1.56,-0.73,-3.27,-0.73,-5.13 l0,-13.57 Z M468.42,77.05 l-0.49,4.13 c0.96,-0.26,1.8,-0.39,2.51,-0.39 c0.98,0,1.76,0.16,2.34,0.49 c0.59,0.33,1.07,0.78,1.44,1.37 c0.28,0.44,0.72,1.53,1.34,3.27 c0.08,0.24,0.21,0.6,0.39,1.07 l-9.84,25.98 l4.74,0 l5.4,-15.01 c0.7,-1.9,1.33,-3.91,1.88,-6.01 c0.5,2.02,1.11,3.99,1.81,5.91 l5.54,15.11 l4.39,0 l-9.86,-26.37 c-1.06,-2.85,-1.88,-4.81,-2.47,-5.88 c-0.78,-1.45,-1.68,-2.51,-2.69,-3.19 c-1.01,-0.68,-2.21,-1.01,-3.61,-1.01 c-0.85,0,-1.79,0.18,-2.83,0.54 Z M468.42,77.05" fill="rgb(0,0,0)" transform="matrix(1,0,0,-1,0,200)"/>
</svg>