<?xml version="1.0" encoding="UTF-8"?>
<svg height="200" version="1.1" width="800" xmlns="http://www.w3.org/2000/svg" xmlns:xlink="http://www.w3.org/1999/xlink">
 <path d="M0,0 l800,0 l0,200 l-800,0 Z M0,0" fill="rgb(255,255,255)" transform="matrix(1,0,0,-1,0,200)"/>
 <path d="M250.73,74.07 l-8.15,0 l0,71.58 l8.79,0 l0,-25.54 c3.71,4.65,8.45,6.98,14.21,6.98 c3.19,0,6.21,-0.64,9.06,-1.93 c2.85,-1.29,5.19,-3.09,7.03,-5.42 c1.84,-2.33,3.28,-5.14,4.32,-8.42 c1.04,-3.29,1.56,-6.8,1.56,-10.55 c0,-8.89,-2.2,-15.76,-6.59,-20.61 c-4.39,-4.85,-9.67,-7.28,-15.82,-7.28 c-6.12,0,-10.92,2.56,-14.4,7.67 Z M250.63,100.39 c0,-6.22,0.85,-10.71,2.54,-13.48 c2.77,-4.52,6.51,-6.79,11.23,-6.79 c3.84,0,7.16,1.67,9.96,5.0 c2.8,3.34,4.2,8.31,4.2,14.92 c0,6.77,-1.34,11.77,-4.03,14.99 c-2.69,3.22,-5.93,4.83,-9.74,4.83 c-3.84,0,-7.16,-1.67,-9.96,-5.0 c-2.8,-3.34,-4.2,-8.16,-4.2,-14.48 Z M332.23,74.07 l0,7.62 c-4.04,-5.86,-9.52,-8.79,-16.46,-8.79 c-3.06,0,-5.92,0.59,-8.57,1.76 c-2.65,1.17,-4.62,2.64,-5.91,4.42 c-1.29,1.77,-2.19,3.95,-2.71,6.52 c-0.36,1.73,-0.54,4.46,-0.54,8.2 l0,32.13 l8.79,0 l0,-28.76 c0,-4.59,0.18,-7.68,0.54,-9.28 c0.55,-2.31,1.73,-4.13,3.52,-5.44 c1.79,-1.32,4.0,-1.98,6.64,-1.98 c2.64,0,5.11,0.68,7.42,2.03 c2.31,1.35,3.95,3.19,4.91,5.52 c0.96,2.33,1.44,5.7,1.44,10.13 l0,27.78 l8.79,0 l0,-51.86 Z M350.34,89.55 l8.69,1.37 c0.49,-3.48,1.85,-6.15,4.08,-8.01 c2.23,-1.86,5.35,-2.78,9.35,-2.78 c4.04,0,7.03,0.82,8.98,2.47 c1.95,1.64,2.93,3.57,2.93,5.79 c0,1.99,-0.86,3.55,-2.59,4.69 c-1.2,0.78,-4.2,1.77,-8.98,2.98 c-6.45,1.63,-10.91,3.04,-13.4,4.22 c-2.49,1.19,-4.38,2.83,-5.66,4.93 c-1.29,2.1,-1.93,4.42,-1.93,6.96 c0,2.31,0.53,4.45,1.59,6.42 c1.06,1.97,2.5,3.61,4.32,4.91 c1.37,1.01,3.23,1.86,5.59,2.56 c2.36,0.7,4.89,1.05,7.59,1.05 c4.07,0,7.64,-0.59,10.72,-1.76 c3.08,-1.17,5.35,-2.76,6.81,-4.76 c1.46,-2.0,2.47,-4.68,3.03,-8.03 l-8.59,-1.17 c-0.39,2.67,-1.52,4.75,-3.39,6.25 c-1.87,1.5,-4.52,2.25,-7.93,2.25 c-4.04,0,-6.92,-0.67,-8.64,-2.0 c-1.73,-1.33,-2.59,-2.9,-2.59,-4.69 c0,-1.14,0.36,-2.16,1.07,-3.08 c0.72,-0.94,1.84,-1.73,3.37,-2.34 c0.88,-0.33,3.47,-1.07,7.76,-2.25 c6.22,-1.66,10.56,-3.02,13.01,-4.08 c2.46,-1.06,4.39,-2.6,5.79,-4.61 c1.4,-2.02,2.1,-4.52,2.1,-7.52 c0,-2.93,-0.85,-5.69,-2.56,-8.28 c-1.71,-2.59,-4.17,-4.59,-7.4,-6.01 c-3.22,-1.42,-6.87,-2.12,-10.94,-2.12 c-6.74,0,-11.87,1.4,-15.41,4.2 c-3.53,2.8,-5.79,6.95,-6.76,12.45 Z M423.05,81.93 l1.27,-7.76 c-2.47,-0.52,-4.69,-0.78,-6.64,-0.78 c-3.19,0,-5.66,0.5,-7.42,1.51 c-1.76,1.01,-2.99,2.34,-3.71,3.98 c-0.72,1.64,-1.07,5.1,-1.07,10.38 l0,29.83 l-6.45,0 l0,6.84 l6.45,0 l0,12.84 l8.74,5.27 l0,-18.12 l8.84,0 l0,-6.84 l-8.84,0 l0,-30.32 c0,-2.51,0.15,-4.12,0.46,-4.83 c0.31,-0.72,0.81,-1.29,1.51,-1.71 c0.7,-0.42,1.7,-0.63,3.0,-0.63 c0.98,0,2.26,0.11,3.86,0.34 Z M428.37,100 c0,9.6,2.67,16.72,8.01,21.34 c4.46,3.84,9.9,5.76,16.31,5.76 c7.13,0,12.96,-2.34,17.48,-7.01 c4.52,-4.67,6.79,-11.12,6.79,-19.36 c0,-6.67,-1.0,-11.92,-3.0,-15.75 c-2.0,-3.82,-4.92,-6.8,-8.74,-8.91 c-3.82,-2.12,-8.0,-3.17,-12.52,-3.17 c-7.26,0,-13.13,2.33,-17.6,6.98 c-4.48,4.65,-6.71,11.36,-6.71,20.12 Z M437.4,100 c0,-6.64,1.45,-11.61,4.35,-14.92 c2.9,-3.3,6.54,-4.96,10.94,-4.96 c4.36,0,7.99,1.66,10.89,4.98 c2.9,3.32,4.35,8.38,4.35,15.19 c0,6.41,-1.46,11.27,-4.37,14.58 c-2.91,3.3,-6.53,4.96,-10.86,4.96 c-4.39,0,-8.04,-1.64,-10.94,-4.93 c-2.9,-3.29,-4.35,-8.25,-4.35,-14.89 Z M487.16,74.07 l0,51.86 l7.91,0 l0,-7.86 c2.02,3.68,3.88,6.1,5.59,7.28 c1.71,1.17,3.59,1.76,5.64,1.76 c2.96,0,5.97,-0.94,9.03,-2.83 l-3.03,-8.15 c-2.15,1.27,-4.3,1.9,-6.45,1.9 c-1.92,0,-3.65,-0.58,-5.18,-1.73 c-1.53,-1.16,-2.62,-2.76,-3.27,-4.81 c-0.98,-3.13,-1.46,-6.54,-1.46,-10.25 l0,-27.15 Z M520.17,54.1 l-0.98,8.25 c1.92,-0.52,3.6,-0.78,5.03,-0.78 c1.95,0,3.52,0.33,4.69,0.98 c1.17,0.65,2.13,1.56,2.88,2.73 c0.55,0.88,1.45,3.06,2.69,6.54 c0.16,0.49,0.42,1.2,0.78,2.15 l-19.68,51.95 l9.47,0 l10.79,-30.03 c1.4,-3.81,2.65,-7.81,3.76,-12.01 c1.01,4.04,2.21,7.98,3.61,11.82 l11.08,30.22 l8.79,0 l-19.73,-52.73 c-2.12,-5.7,-3.76,-9.62,-4.93,-11.77 c-1.56,-2.9,-3.35,-5.02,-5.37,-6.37 c-2.02,-1.35,-4.43,-2.03,-7.23,-2.03 c-1.69,0,-3.58,0.36,-5.66,1.07 Z M520.17,54.1" fill="rgb(0,0,0)" transform="matrix(1,0,0,-1,0,200)"/>
</svg>