<?xml version="1.0" encoding="UTF-8"?>
<svg height="200" version="1.1" width="800" xmlns="http://www.w3.org/2000/svg" xmlns:xlink="http://www.w3.org/1999/xlink">
 <path d="M0,0 l800,0 l0,200 l-800,0 Z M0,0" fill="rgb(255,255,255)" transform="matrix(1,0,0,-1,0,200)"/>
 <path d="M315.75,77.1 l0,35.86 l4.0,0 l0,-3.37 c0.94,1.32,2.01,2.31,3.2,2.97 c1.19,0.66,2.63,0.99,4.32,0.99 c2.21,0,4.17,-0.57,5.86,-1.71 c1.69,-1.14,2.97,-2.75,3.83,-4.82 c0.86,-2.08,1.29,-4.35,1.29,-6.82 c0,-2.65,-0.48,-5.04,-1.43,-7.17 c-0.95,-2.12,-2.34,-3.75,-4.15,-4.88 c-1.81,-1.13,-3.72,-1.7,-5.73,-1.7 c-1.46,0,-2.78,0.31,-3.94,0.93 c-1.16,0.62,-2.12,1.4,-2.87,2.34 l0,-12.62 Z M319.73,99.85 c0,-3.34,0.68,-5.8,2.03,-7.4 c1.35,-1.6,2.99,-2.39,4.91,-2.39 c1.95,0,3.63,0.83,5.02,2.48 c1.39,1.65,2.09,4.21,2.09,7.68 c0,3.3,-0.68,5.78,-2.04,7.42 c-1.36,1.64,-2.98,2.47,-4.87,2.47 c-1.87,0,-3.53,-0.87,-4.97,-2.62 c-1.44,-1.75,-2.16,-4.29,-2.16,-7.63 Z M343.51,87.04 l0,25.93 l3.96,0 l0,-3.93 c1.01,1.84,1.94,3.05,2.8,3.64 c0.85,0.59,1.79,0.88,2.82,0.88 c1.48,0,2.99,-0.47,4.52,-1.42 l-1.51,-4.08 c-1.07,0.63,-2.15,0.95,-3.22,0.95 c-0.96,0,-1.82,-0.29,-2.59,-0.87 c-0.76,-0.58,-1.31,-1.38,-1.64,-2.4 c-0.49,-1.56,-0.73,-3.27,-0.73,-5.13 l0,-13.57 Z M377.95,95.39 l4.54,-0.56 c-0.72,-2.65,-2.04,-4.71,-3.98,-6.18 c-1.94,-1.46,-4.41,-2.2,-7.42,-2.2 c-3.79,0,-6.8,1.17,-9.02,3.5 c-2.22,2.34,-3.33,5.61,-3.33,9.83 c0,4.36,1.12,7.75,3.37,10.16 c2.25,2.41,5.16,3.61,8.74,3.61 c3.47,0,6.3,-1.18,8.5,-3.54 c2.2,-2.36,3.3,-5.68,3.3,-9.96 c0,-0.26,-0.01,-0.65,-0.02,-1.17 l-19.34,0 c0.16,-2.85,0.97,-5.03,2.42,-6.54 c1.45,-1.51,3.26,-2.27,5.42,-2.27 c1.61,0,2.99,0.42,4.13,1.27 c1.14,0.85,2.04,2.2,2.71,4.05 Z M363.53,102.49 l14.48,0 c-0.2,2.18,-0.75,3.82,-1.66,4.91 c-1.4,1.69,-3.21,2.54,-5.44,2.54 c-2.02,0,-3.71,-0.68,-5.09,-2.03 c-1.38,-1.35,-2.14,-3.16,-2.28,-5.42 Z M392.8,87.04 l-7.93,25.93 l4.54,0 l4.13,-14.97 l1.54,-5.57 c0.07,0.28,0.51,2.06,1.34,5.35 l4.13,15.19 l4.52,0 l3.88,-15.04 l1.29,-4.96 l1.49,5.0 l4.44,14.99 l4.27,0 l-8.11,-25.93 l-4.57,0 l-4.13,15.53 l-1.0,4.42 l-5.25,-19.95 Z M424.15,117.77 l0,5.05 l4.39,0 l0,-5.05 Z M424.15,87.04 l0,25.93 l4.39,0 l0,-25.93 Z M435.23,87.04 l0,25.93 l3.96,0 l0,-3.69 c1.9,2.85,4.65,4.27,8.25,4.27 c1.56,0,3.0,-0.28,4.31,-0.84 c1.31,-0.56,2.29,-1.3,2.94,-2.21 c0.65,-0.91,1.11,-1.99,1.37,-3.25 c0.16,-0.81,0.24,-2.24,0.24,-4.27 l0,-15.94 l-4.39,0 l0,15.77 c0,1.79,-0.17,3.13,-0.51,4.02 c-0.34,0.89,-0.95,1.6,-1.82,2.12 c-0.87,0.53,-1.89,0.79,-3.06,0.79 c-1.87,0,-3.49,-0.59,-4.85,-1.78 c-1.36,-1.19,-2.04,-3.44,-2.04,-6.76 l0,-14.16 Z M462.23,84.89 l4.27,-0.63 c0.18,-1.32,0.68,-2.28,1.49,-2.88 c1.09,-0.81,2.58,-1.22,4.47,-1.22 c2.03,0,3.61,0.41,4.71,1.22 c1.11,0.81,1.86,1.95,2.25,3.42 c0.23,0.9,0.33,2.78,0.32,5.64 c-1.92,-2.26,-4.31,-3.39,-7.18,-3.39 c-3.56,0,-6.32,1.29,-8.28,3.86 c-1.95,2.57,-2.93,5.66,-2.93,9.25 c0,2.47,0.45,4.76,1.34,6.85 c0.9,2.09,2.19,3.71,3.89,4.85 c1.7,1.14,3.7,1.71,5.99,1.71 c3.06,0,5.58,-1.24,7.57,-3.71 l0,3.12 l4.05,0 l0,-22.41 c0,-4.04,-0.41,-6.9,-1.23,-8.58 c-0.82,-1.68,-2.12,-3.02,-3.91,-3.99 c-1.78,-0.98,-3.98,-1.46,-6.58,-1.46 c-3.09,0,-5.59,0.7,-7.5,2.09 c-1.9,1.39,-2.82,3.49,-2.76,6.29 Z M465.87,100.46 c0,-3.4,0.68,-5.88,2.03,-7.45 c1.35,-1.56,3.04,-2.34,5.08,-2.34 c2.02,0,3.71,0.78,5.08,2.33 c1.37,1.55,2.05,3.99,2.05,7.31 c0,3.17,-0.7,5.57,-2.11,7.18 c-1.41,1.61,-3.1,2.42,-5.09,2.42 c-1.95,0,-3.61,-0.79,-4.98,-2.38 c-1.37,-1.59,-2.05,-3.94,-2.05,-7.07 Z M465.87,100.46" fill="rgb(0,0,0)" transform="matrix(1,0,0,-1,0,200)"/>
</svg>