<?xml version="1.0" encoding="UTF-8"?>
<svg height="200" version="1.1" width="800" xmlns="http://www.w3.org/2000/svg" xmlns:xlink="http://www.w3.org/1999/xlink">
 <path d="M0,0 l800,0 l0,200 l-800,0 Z M0,0" fill="rgb(255,255,255)" transform="matrix(1,0,0,-1,0,200)"/>
 <path d="M305.66,94.78 l4.35,0.68 c0.24,-1.74,0.92,-3.08,2.04,-4.0 c1.11,-0.93,2.67,-1.39,4.68,-1.39 c2.02,0,3.52,0.41,4.49,1.23 c0.98,0.82,1.46,1.79,1.46,2.89 c0,0.99,-0.43,1.77,-1.29,2.34 c-0.6,0.39,-2.1,0.89,-4.49,1.49 c-3.22,0.81,-5.46,1.52,-6.7,2.11 c-1.25,0.59,-2.19,1.42,-2.83,2.47 c-0.64,1.05,-0.96,2.21,-0.96,3.48 c0,1.16,0.26,2.23,0.79,3.21 c0.53,0.98,1.25,1.8,2.16,2.45 c0.68,0.5,1.62,0.93,2.8,1.28 c1.18,0.35,2.45,0.52,3.8,0.52 c2.03,0,3.82,-0.29,5.36,-0.88 c1.54,-0.59,2.67,-1.38,3.41,-2.38 c0.73,-1.0,1.24,-2.34,1.51,-4.02 l-4.3,-0.59 c-0.2,1.33,-0.76,2.38,-1.7,3.12 c-0.94,0.75,-2.26,1.12,-3.97,1.12 c-2.02,0,-3.46,-0.33,-4.32,-1.0 c-0.86,-0.67,-1.29,-1.45,-1.29,-2.34 c0,-0.57,0.18,-1.08,0.54,-1.54 c0.36,-0.47,0.92,-0.86,1.68,-1.17 c0.44,-0.16,1.73,-0.54,3.88,-1.12 c3.11,-0.83,5.28,-1.51,6.51,-2.04 c1.23,-0.53,2.19,-1.3,2.89,-2.31 c0.7,-1.01,1.05,-2.26,1.05,-3.76 c0,-1.46,-0.43,-2.84,-1.28,-4.14 c-0.85,-1.29,-2.09,-2.29,-3.7,-3.0 c-1.61,-0.71,-3.43,-1.06,-5.47,-1.06 c-3.37,0,-5.94,0.7,-7.7,2.1 c-1.77,1.4,-2.89,3.47,-3.38,6.23 Z M349.41,87.04 l0,3.81 c-2.02,-2.93,-4.76,-4.39,-8.23,-4.39 c-1.53,0,-2.96,0.29,-4.28,0.88 c-1.33,0.59,-2.31,1.32,-2.95,2.21 c-0.64,0.89,-1.09,1.97,-1.35,3.26 c-0.18,0.86,-0.27,2.23,-0.27,4.1 l0,16.06 l4.39,0 l0,-14.38 c0,-2.29,0.09,-3.84,0.27,-4.64 c0.28,-1.16,0.86,-2.06,1.76,-2.72 c0.9,-0.66,2.0,-0.99,3.32,-0.99 c1.32,0,2.56,0.34,3.71,1.01 c1.16,0.68,1.97,1.6,2.45,2.76 c0.48,1.16,0.72,2.85,0.72,5.07 l0,13.89 l4.39,0 l0,-25.93 Z M364.28,87.04 l-4.08,0 l0,35.79 l4.39,0 l0,-12.77 c1.86,2.33,4.22,3.49,7.1,3.49 c1.6,0,3.1,-0.32,4.53,-0.96 c1.42,-0.64,2.6,-1.55,3.52,-2.71 c0.92,-1.16,1.64,-2.57,2.16,-4.21 c0.52,-1.64,0.78,-3.4,0.78,-5.27 c0,-4.44,-1.1,-7.88,-3.3,-10.3 c-2.2,-2.43,-4.83,-3.64,-7.91,-3.64 c-3.06,0,-5.46,1.28,-7.2,3.83 Z M364.23,100.2 c0,-3.11,0.42,-5.35,1.27,-6.74 c1.38,-2.26,3.26,-3.39,5.62,-3.39 c1.92,0,3.58,0.83,4.98,2.5 c1.4,1.67,2.1,4.15,2.1,7.46 c0,3.39,-0.67,5.88,-2.01,7.5 c-1.34,1.61,-2.97,2.42,-4.87,2.42 c-1.92,0,-3.58,-0.83,-4.98,-2.5 c-1.4,-1.67,-2.1,-4.08,-2.1,-7.24 Z M387.94,87.04 l0,35.79 l4.39,0 l0,-35.79 Z M399.17,117.77 l0,5.05 l4.39,0 l0,-5.05 Z M399.17,87.04 l0,25.93 l4.39,0 l0,-25.93 Z M408.5,94.78 l4.35,0.68 c0.24,-1.74,0.92,-3.08,2.04,-4.0 c1.11,-0.93,2.67,-1.39,4.68,-1.39 c2.02,0,3.52,0.41,4.49,1.23 c0.98,0.82,1.46,1.79,1.46,2.89 c0,0.99,-0.43,1.77,-1.29,2.34 c-0.6,0.39,-2.1,0.89,-4.49,1.49 c-3.22,0.81,-5.46,1.52,-6.7,2.11 c-1.25,0.59,-2.19,1.42,-2.83,2.47 c-0.64,1.05,-0.96,2.21,-0.96,3.48 c0,1.16,0.26,2.23,0.79,3.21 c0.53,0.98,1.25,1.8,2.16,2.45 c0.68,0.5,1.62,0.93,2.8,1.28 c1.18,0.35,2.45,0.52,3.8,0.52 c2.03,0,3.82,-0.29,5.36,-0.88 c1.54,-0.59,2.67,-1.38,3.41,-2.38 c0.73,-1.0,1.24,-2.34,1.51,-4.02 l-4.3,-0.59 c-0.2,1.33,-0.76,2.38,-1.7,3.12 c-0.94,0.75,-2.26,1.12,-3.97,1.12 c-2.02,0,-3.46,-0.33,-4.32,-1.0 c-0.86,-0.67,-1.29,-1.45,-1.29,-2.34 c0,-0.57,0.18,-1.08,0.54,-1.54 c0.36,-0.47,0.92,-0.86,1.68,-1.17 c0.44,-0.16,1.73,-0.54,3.88,-1.12 c3.11,-0.83,5.28,-1.51,6.51,-2.04 c1.23,-0.53,2.19,-1.3,2.89,-2.31 c0.7,-1.01,1.05,-2.26,1.05,-3.76 c0,-1.46,-0.43,-2.84,-1.28,-4.14 c-0.85,-1.29,-2.09,-2.29,-3.7,-3.0 c-1.61,-0.71,-3.43,-1.06,-5.47,-1.06 c-3.37,0,-5.94,0.7,-7.7,2.1 c-1.77,1.4,-2.89,3.47,-3.38,6.23 Z M453.0,95.39 l4.54,-0.56 c-0.72,-2.65,-2.04,-4.71,-3.98,-6.18 c-1.94,-1.46,-4.41,-2.2,-7.42,-2.2 c-3.79,0,-6.8,1.17,-9.02,3.5 c-2.22,2.34,-3.33,5.61,-3.33,9.83 c0,4.36,1.12,7.75,3.37,10.16 c2.25,2.41,5.16,3.61,8.74,3.61 c3.47,0,6.3,-1.18,8.5,-3.54 c2.2,-2.36,3.3,-5.68,3.3,-9.96 c0,-0.26,-0.01,-0.65,-0.02,-1.17 l-19.34,0 c0.16,-2.85,0.97,-5.03,2.42,-6.54 c1.45,-1.51,3.26,-2.27,5.42,-2.27 c1.61,0,2.99,0.42,4.13,1.27 c1.14,0.85,2.04,2.2,2.71,4.05 Z M438.57,102.49 l14.48,0 c-0.2,2.18,-0.75,3.82,-1.66,4.91 c-1.4,1.69,-3.21,2.54,-5.44,2.54 c-2.02,0,-3.71,-0.68,-5.09,-2.03 c-1.38,-1.35,-2.14,-3.16,-2.28,-5.42 Z M462.96,87.04 l0,35.79 l4.39,0 l0,-35.79 Z M473.97,77.05 l-0.49,4.13 c0.96,-0.26,1.8,-0.39,2.51,-0.39 c0.98,0,1.76,0.16,2.34,0.49 c0.59,0.33,1.07,0.78,1.44,1.37 c0.28,0.44,0.72,1.53,1.34,3.27 c0.08,0.24,0.21,0.6,0.39,1.07 l-9.84,25.98 l4.74,0 l5.4,-15.01 c0.7,-1.9,1.33,-3.91,1.88,-6.01 c0.5,2.02,1.11,3.99,1.81,5.91 l5.54,15.11 l4.39,0 l-9.86,-26.37 c-1.06,-2.85,-1.88,-4.81,-2.47,-5.88 c-0.78,-1.45,-1.68,-2.51,-2.69,-3.19 c-1.01,-0.68,-2.21,-1.01,-3.61,-1.01 c-0.85,0,-1.79,0.18,-2.83,0.54 Z M473.97,77.05" fill="rgb(0,0,0)" transform="matrix(1,0,0,-1,0,200)"/>
</svg>