<?xml version="1.0" encoding="UTF-8"?>
<svg height="200" version="1.1" width="800" xmlns="http://www.w3.org/2000/svg" xmlns:xlink="http://www.w3.org/1999/xlink">
 <path d="M0,0 l800,0 l0,200 l-800,0 Z M0,0" fill="rgb(255,255,255)" transform="matrix(1,0,0,-1,0,200)"/>
 <path d="M270.17,74.07 l-8.15,0 l0,71.58 l8.79,0 l0,-25.54 c3.71,4.65,8.45,6.98,14.21,6.98 c3.19,0,6.21,-0.64,9.06,-1.93 c2.85,-1.29,5.19,-3.09,7.03,-5.42 c1.84,-2.33,3.28,-5.14,4.32,-8.42 c1.04,-3.29,1.56,-6.8,1.56,-10.55 c0,-8.89,-2.2,-15.76,-6.59,-20.61 c-4.39,-4.85,-9.67,-7.28,-15.82,-7.28 c-6.12,0,-10.92,2.56,-14.4,7.67 Z M270.07,100.39 c0,-6.22,0.85,-10.71,2.54,-13.48 c2.77,-4.52,6.51,-6.79,11.23,-6.79 c3.84,0,7.16,1.67,9.96,5.0 c2.8,3.34,4.2,8.31,4.2,14.92 c0,6.77,-1.34,11.77,-4.03,14.99 c-2.69,3.22,-5.93,4.83,-9.74,4.83 c-3.84,0,-7.16,-1.67,-9.96,-5.0 c-2.8,-3.34,-4.2,-8.16,-4.2,-14.48 Z M353.17,90.77 l9.08,-1.12 c-1.43,-5.31,-4.09,-9.42,-7.96,-12.35 c-3.87,-2.93,-8.82,-4.39,-14.84,-4.39 c-7.58,0,-13.6,2.34,-18.04,7.01 c-4.44,4.67,-6.67,11.22,-6.67,19.65 c0,8.72,2.25,15.49,6.74,20.31 c4.49,4.82,10.32,7.23,17.48,7.23 c6.93,0,12.6,-2.36,16.99,-7.08 c4.39,-4.72,6.59,-11.36,6.59,-19.92 c0,-0.52,-0.02,-1.3,-0.05,-2.34 l-38.67,0 c0.33,-5.7,1.94,-10.06,4.83,-13.09 c2.9,-3.03,6.51,-4.54,10.84,-4.54 c3.22,0,5.97,0.85,8.25,2.54 c2.28,1.69,4.09,4.39,5.42,8.11 Z M324.32,104.98 l28.96,0 c-0.39,4.36,-1.5,7.63,-3.32,9.81 c-2.8,3.39,-6.43,5.08,-10.89,5.08 c-4.04,0,-7.43,-1.35,-10.18,-4.05 c-2.75,-2.7,-4.27,-6.32,-4.57,-10.84 Z M373.1,74.07 l0,71.58 l8.79,0 l0,-71.58 Z M395.56,135.55 l0,10.11 l8.79,0 l0,-10.11 Z M395.56,74.07 l0,51.86 l8.79,0 l0,-51.86 Z M453.22,90.77 l9.08,-1.12 c-1.43,-5.31,-4.09,-9.42,-7.96,-12.35 c-3.87,-2.93,-8.82,-4.39,-14.84,-4.39 c-7.58,0,-13.6,2.34,-18.04,7.01 c-4.44,4.67,-6.67,11.22,-6.67,19.65 c0,8.72,2.25,15.49,6.74,20.31 c4.49,4.82,10.32,7.23,17.48,7.23 c6.93,0,12.6,-2.36,16.99,-7.08 c4.39,-4.72,6.59,-11.36,6.59,-19.92 c0,-0.52,-0.02,-1.3,-0.05,-2.34 l-38.67,0 c0.33,-5.7,1.94,-10.06,4.83,-13.09 c2.9,-3.03,6.51,-4.54,10.84,-4.54 c3.22,0,5.97,0.85,8.25,2.54 c2.28,1.69,4.09,4.39,5.42,8.11 Z M424.37,104.98 l28.96,0 c-0.39,4.36,-1.5,7.63,-3.32,9.81 c-2.8,3.39,-6.43,5.08,-10.89,5.08 c-4.04,0,-7.43,-1.35,-10.18,-4.05 c-2.75,-2.7,-4.27,-6.32,-4.57,-10.84 Z M492.53,81.93 l1.27,-7.76 c-2.47,-0.52,-4.69,-0.78,-6.64,-0.78 c-3.19,0,-5.66,0.5,-7.42,1.51 c-1.76,1.01,-2.99,2.34,-3.71,3.98 c-0.72,1.64,-1.07,5.1,-1.07,10.38 l0,29.83 l-6.45,0 l0,6.84 l6.45,0 l0,12.84 l8.74,5.27 l0,-18.12 l8.84,0 l0,-6.84 l-8.84,0 l0,-30.32 c0,-2.51,0.15,-4.12,0.46,-4.83 c0.31,-0.72,0.81,-1.29,1.51,-1.71 c0.7,-0.42,1.7,-0.63,3.0,-0.63 c0.98,0,2.26,0.11,3.86,0.34 Z M497.61,89.55 l8.69,1.37 c0.49,-3.48,1.85,-6.15,4.08,-8.01 c2.23,-1.86,5.35,-2.78,9.35,-2.78 c4.04,0,7.03,0.82,8.98,2.47 c1.95,1.64,2.93,3.57,2.93,5.79 c0,1.99,-0.86,3.55,-2.59,4.69 c-1.2,0.78,-4.2,1.77,-8.98,2.98 c-6.45,1.63,-10.91,3.04,-13.4,4.22 c-2.49,1.19,-4.38,2.83,-5.66,4.93 c-1.29,2.1,-1.93,4.42,-1.93,6.96 c0,2.31,0.53,4.45,1.59,6.42 c1.06,1.97,2.5,3.61,4.32,4.91 c1.37,1.01,3.23,1.86,5.59,2.56 c2.36,0.7,4.89,1.05,7.59,1.05 c4.07,0,7.64,-0.59,10.72,-1.76 c3.08,-1.17,5.35,-2.76,6.81,-4.76 c1.46,-2.0,2.47,-4.68,3.03,-8.03 l-8.59,-1.17 c-0.39,2.67,-1.52,4.75,-3.39,6.25 c-1.87,1.5,-4.52,2.25,-7.93,2.25 c-4.04,0,-6.92,-0.67,-8.64,-2.0 c-1.73,-1.33,-2.59,-2.9,-2.59,-4.69 c0,-1.14,0.36,-2.16,1.07,-3.08 c0.72,-0.94,1.84,-1.73,3.37,-2.34 c0.88,-0.33,3.47,-1.07,7.76,-2.25 c6.22,-1.66,10.56,-3.02,13.01,-4.08 c2.46,-1.06,4.39,-2.6,5.79,-4.61 c1.4,-2.02,2.1,-4.52,2.1,-7.52 c0,-2.93,-0.85,-5.69,-2.56,-8.28 c-1.71,-2.59,-4.17,-4.59,-7.4,-6.01 c-3.22,-1.42,-6.87,-2.12,-10.94,-2.12 c-6.74,0,-11.87,1.4,-15.41,4.2 c-3.53,2.8,-5.79,6.95,-6.76,12.45 Z M497.61,89.55" fill="rgb(0,0,0)" transform="matrix(1,0,0,-1,0,200)"/>
</svg>