<?xml version="1.0" encoding="UTF-8"?>
<svg height="200" version="1.1" width="800" xmlns="http://www.w3.org/2000/svg" xmlns:xlink="http://www.w3.org/1999/xlink">
 <path d="M0,0 l800,0 l0,200 l-800,0 Z M0,0" fill="rgb(255,255,255)" transform="matrix(1,0,0,-1,0,200)"/>
 <path d="M318.12,93.07 l8.64,-1.12 c-0.94,-5.96,-3.36,-10.62,-7.25,-13.99 c-3.89,-3.37,-8.67,-5.05,-14.33,-5.05 c-7.1,0,-12.8,2.32,-17.11,6.96 c-4.31,4.64,-6.47,11.29,-6.47,19.95 c0,5.6,0.93,10.5,2.78,14.7 c1.86,4.2,4.68,7.35,8.47,9.45 c3.79,2.1,7.92,3.15,12.38,3.15 c5.63,0,10.24,-1.42,13.82,-4.27 c3.58,-2.85,5.88,-6.89,6.88,-12.13 l-8.54,-1.32 c-0.81,3.48,-2.25,6.1,-4.32,7.86 c-2.07,1.76,-4.57,2.64,-7.5,2.64 c-4.43,0,-8.02,-1.59,-10.79,-4.76 c-2.77,-3.17,-4.15,-8.19,-4.15,-15.06 c0,-6.97,1.33,-12.03,4.0,-15.19 c2.67,-3.16,6.15,-4.74,10.45,-4.74 c3.45,0,6.33,1.06,8.64,3.17 c2.31,2.12,3.78,5.37,4.39,9.77 Z M331.01,100 c0,9.6,2.67,16.72,8.01,21.34 c4.46,3.84,9.9,5.76,16.31,5.76 c7.13,0,12.96,-2.34,17.48,-7.01 c4.52,-4.67,6.79,-11.12,6.79,-19.36 c0,-6.67,-1.0,-11.92,-3.0,-15.75 c-2.0,-3.82,-4.92,-6.8,-8.74,-8.91 c-3.82,-2.12,-8.0,-3.17,-12.52,-3.17 c-7.26,0,-13.13,2.33,-17.6,6.98 c-4.48,4.65,-6.71,11.36,-6.71,20.12 Z M340.04,100 c0,-6.64,1.45,-11.61,4.35,-14.92 c2.9,-3.3,6.54,-4.96,10.94,-4.96 c4.36,0,7.99,1.66,10.89,4.98 c2.9,3.32,4.35,8.38,4.35,15.19 c0,6.41,-1.46,11.27,-4.37,14.58 c-2.91,3.3,-6.53,4.96,-10.86,4.96 c-4.39,0,-8.04,-1.64,-10.94,-4.93 c-2.9,-3.29,-4.35,-8.25,-4.35,-14.89 Z M423.73,80.47 c-3.26,-2.77,-6.39,-4.72,-9.4,-5.86 c-3.01,-1.14,-6.24,-1.71,-9.69,-1.71 c-5.7,0,-10.07,1.39,-13.13,4.17 c-3.06,2.78,-4.59,6.34,-4.59,10.67 c0,2.54,0.58,4.86,1.73,6.96 c1.16,2.1,2.67,3.78,4.54,5.05 c1.87,1.27,3.98,2.23,6.32,2.88 c1.73,0.46,4.33,0.9,7.81,1.32 c7.1,0.85,12.32,1.86,15.67,3.03 c0.03,1.2,0.05,1.97,0.05,2.29 c0,3.58,-0.83,6.1,-2.49,7.57 c-2.25,1.99,-5.58,2.98,-10.01,2.98 c-4.13,0,-7.19,-0.72,-9.16,-2.17 c-1.97,-1.45,-3.43,-4.01,-4.37,-7.69 l-8.59,1.17 c0.78,3.68,2.07,6.65,3.86,8.91 c1.79,2.26,4.38,4.0,7.76,5.22 c3.39,1.22,7.31,1.83,11.77,1.83 c4.43,0,8.02,-0.52,10.79,-1.56 c2.77,-1.04,4.8,-2.35,6.1,-3.93 c1.3,-1.58,2.21,-3.57,2.73,-5.98 c0.29,-1.5,0.44,-4.2,0.44,-8.11 l0,-11.72 c0,-8.17,0.19,-13.34,0.56,-15.5 c0.37,-2.16,1.11,-4.24,2.22,-6.23 l-9.18,0 c-0.91,1.82,-1.5,3.96,-1.76,6.4 Z M423.0,100.1 c-3.19,-1.3,-7.98,-2.41,-14.36,-3.32 c-3.61,-0.52,-6.17,-1.11,-7.67,-1.76 c-1.5,-0.65,-2.65,-1.6,-3.47,-2.86 c-0.81,-1.25,-1.22,-2.64,-1.22,-4.17 c0,-2.34,0.89,-4.3,2.66,-5.86 c1.77,-1.56,4.37,-2.34,7.79,-2.34 c3.39,0,6.4,0.74,9.03,2.22 c2.64,1.48,4.57,3.51,5.81,6.08 c0.94,1.99,1.42,4.92,1.42,8.79 Z M464.7,81.93 l1.27,-7.76 c-2.47,-0.52,-4.69,-0.78,-6.64,-0.78 c-3.19,0,-5.66,0.5,-7.42,1.51 c-1.76,1.01,-2.99,2.34,-3.71,3.98 c-0.72,1.64,-1.07,5.1,-1.07,10.38 l0,29.83 l-6.45,0 l0,6.84 l6.45,0 l0,12.84 l8.74,5.27 l0,-18.12 l8.84,0 l0,-6.84 l-8.84,0 l0,-30.32 c0,-2.51,0.15,-4.12,0.46,-4.83 c0.31,-0.72,0.81,-1.29,1.51,-1.71 c0.7,-0.42,1.7,-0.63,3.0,-0.63 c0.98,0,2.26,0.11,3.86,0.34 Z M508.79,90.77 l9.08,-1.12 c-1.43,-5.31,-4.09,-9.42,-7.96,-12.35 c-3.87,-2.93,-8.82,-4.39,-14.84,-4.39 c-7.58,0,-13.6,2.34,-18.04,7.01 c-4.44,4.67,-6.67,11.22,-6.67,19.65 c0,8.72,2.25,15.49,6.74,20.31 c4.49,4.82,10.32,7.23,17.48,7.23 c6.93,0,12.6,-2.36,16.99,-7.08 c4.39,-4.72,6.59,-11.36,6.59,-19.92 c0,-0.52,-0.02,-1.3,-0.05,-2.34 l-38.67,0 c0.33,-5.7,1.94,-10.06,4.83,-13.09 c2.9,-3.03,6.51,-4.54,10.84,-4.54 c3.22,0,5.97,0.85,8.25,2.54 c2.28,1.69,4.09,4.39,5.42,8.11 Z M479.93,104.98 l28.96,0 c-0.39,4.36,-1.5,7.63,-3.32,9.81 c-2.8,3.39,-6.43,5.08,-10.89,5.08 c-4.04,0,-7.43,-1.35,-10.18,-4.05 c-2.75,-2.7,-4.27,-6.32,-4.57,-10.84 Z M479.93,104.98" fill="rgb(0,0,0)" transform="matrix(1,0,0,-1,0,200)"/>
</svg>