<?xml version="1.0" encoding="UTF-8"?>
<svg height="200" version="1.1" width="500" xmlns="http://www.w3.org/2000/svg" xmlns:xlink="http://www.w3.org/1999/xlink">
 <path d="M0,0 l500,0 l0,200 l-500,0 Z M0,0" fill="rgb(255,255,255)" transform="matrix(1,0,0,-1,0,200)"/>
 <path d="M186.09,83.49 c-5.06,0,-14.61,8.55,-14.61,17.35 c0,6.31,4.32,9.05,7.14,9.05 c5.39,0,14.53,-9.79,14.53,-17.6 c0,-5.89,-4.4,-8.8,-7.06,-8.8 Z M171.23,88.72 c2.07,-5.06,5.15,-9.63,10.62,-9.63 c9.63,0,15.85,9.46,15.85,18.34 c0,8.22,-5.73,16.02,-15.44,16.02 c-2.99,0,-6.31,-0.75,-9.96,-2.57 c1.16,14.36,2.74,20.83,2.74,29.05 c0,1.74,-0.08,3.57,-0.25,5.64 c-2.91,0,-9.63,-0.5,-13.53,-5.89 c0.17,0,0.25,-0.25,0.33,-0.25 c1.08,0.58,1.91,0.75,2.57,0.75 c3.07,0,3.98,-4.15,3.98,-11.12 c0,-10.29,-1.91,-25.98,-1.91,-40.59 c0,-2.08,0,-3.98,0.08,-5.98 c-2.74,-0.66,-4.15,-1.41,-4.15,-1.99 c0,-0.91,1.25,-1.33,3.07,-1.33 c1.99,0,4.4,0.5,5.89,1.99 c0,1.33,-0.66,5.31,-0.66,7.47 c0,0.17,0.25,0.25,0.33,0.25 c0.17,0,0.33,-0.08,0.41,-0.17 Z M207.67,83.57 c-4.32,-0.66,-5.98,-1.33,-5.98,-1.83 c0,-0.75,4.98,-1.24,9.55,-1.24 c3.98,0,7.88,0.25,7.88,1.08 c0,0.42,-1.74,1.25,-6.81,2.16 c0.42,35.19,4.07,47.73,4.07,56.11 c0,1.74,-0.08,3.57,-0.25,5.56 c-7.3,0,-11.29,-2.49,-13.36,-5.31 c0,-0.42,0.08,-0.5,0.25,-0.5 c0.33,0,1.16,0.66,2.41,0.66 c3.07,0,4.07,-3.98,4.07,-11.21 c0,-6.31,-1.91,-29.63,-1.91,-40.17 c0,-1.74,0,-3.57,0.08,-5.31 Z M238.96,113.45 c-9.05,0,-16.43,-7.64,-16.43,-17.02 c0,-9.46,6.97,-17.1,16.43,-17.1 c11.21,0,16.35,7.64,16.35,17.1 c0,9.96,-7.39,17.02,-16.35,17.02 Z M235.64,109.72 c6.56,0,14.44,-7.8,14.44,-16.6 c0,-7.47,-3.32,-10.54,-7.72,-10.54 c-7.14,0,-14.11,8.8,-14.11,18.51 c0,5.23,2.82,8.63,7.39,8.63 Z M278.55,113.45 c-9.05,0,-16.43,-7.64,-16.43,-17.02 c0,-9.46,6.97,-17.1,16.43,-17.1 c11.21,0,16.35,7.64,16.35,17.1 c0,9.96,-7.39,17.02,-16.35,17.02 Z M275.23,109.72 c6.56,0,14.44,-7.8,14.44,-16.6 c0,-7.47,-3.32,-10.54,-7.72,-10.54 c-7.14,0,-14.11,8.8,-14.11,18.51 c0,5.23,2.82,8.63,7.39,8.63 Z M319.06,85.4 c-5.15,0,-11.12,4.48,-11.12,14.11 c0,3.98,1.99,11.21,7.55,11.21 c4.9,0,12.62,-6.56,12.62,-13.61 c0,-4.4,-4.73,-11.7,-9.05,-11.7 Z M325.36,128.81 c0,-4.56,0.75,-10.29,1.33,-18.09 c-3.74,2.41,-5.56,3.15,-8.55,3.15 c-9.79,0,-16.43,-7.97,-16.43,-17.26 c0,-8.63,5.06,-17.51,15.85,-17.51 c2.91,0,8.38,5.56,10.54,10.38 c0.08,0.17,0.33,0.25,0.41,0.25 c0.17,0,0.25,-0.08,0.25,-0.33 c0,-2.24,-0.58,-8.8,-0.58,-9.63 c0.75,-0.66,1.66,-0.91,2.66,-0.91 c3.07,0,6.81,2.49,6.81,3.98 c-0.08,0.25,-0.41,0.33,-0.58,0.33 c-0.66,0,-1.49,-0.66,-4.07,-0.66 c0.08,1.99,0.08,3.9,0.08,5.98 c0,14.61,-2.07,25.98,-2.07,36.27 c0,2.08,0.42,8.13,0.42,9.71 c0,4.81,-0.17,7.55,-0.5,10.96 c-6.72,0,-11.62,-2.66,-13.36,-5.56 c0,-0.25,0.08,-0.25,0.17,-0.25 c0.41,0,1.49,0.66,2.82,0.66 c3.57,0,4.81,-4.32,4.81,-11.45 Z M325.36,128.81" fill="rgb(0,0,0)" transform="matrix(1,0,0,-1,0,200)"/>
</svg>