<?xml version="1.0" encoding="UTF-8"?>
<svg height="200" version="1.1" width="500" xmlns="http://www.w3.org/2000/svg" xmlns:xlink="http://www.w3.org/1999/xlink">
 <path d="M0,0 l500,0 l0,200 l-500,0 Z M0,0" fill="rgb(255,255,255)" transform="matrix(1,0,0,-1,0,200)"/>
 <path d="M187.75,83.49 c-5.06,0,-14.61,8.55,-14.61,17.35 c0,6.31,4.32,9.05,7.14,9.05 c5.4,0,14.53,-9.79,14.53,-17.6 c0,-5.89,-4.4,-8.8,-7.06,-8.8 Z M172.89,88.72 c2.07,-5.06,5.15,-9.63,10.62,-9.63 c9.63,0,15.85,9.46,15.85,18.34 c0,8.22,-5.73,16.02,-15.44,16.02 c-2.99,0,-6.31,-0.75,-9.96,-2.57 c1.16,14.36,2.74,20.83,2.74,29.05 c0,1.74,-0.08,3.57,-0.25,5.64 c-2.91,0,-9.63,-0.5,-13.53,-5.89 c0.17,0,0.25,-0.25,0.33,-0.25 c1.08,0.58,1.91,0.75,2.57,0.75 c3.07,0,3.98,-4.15,3.98,-11.12 c0,-10.29,-1.91,-25.98,-1.91,-40.59 c0,-2.08,0,-3.98,0.08,-5.98 c-2.74,-0.66,-4.15,-1.41,-4.15,-1.99 c0,-0.91,1.25,-1.33,3.07,-1.33 c1.99,0,4.4,0.5,5.89,1.99 c0,1.33,-0.66,5.31,-0.66,7.47 c0,0.17,0.25,0.25,0.33,0.25 c0.17,0,0.33,-0.08,0.41,-0.17 Z M223.02,113.45 c-9.05,0,-16.43,-7.64,-16.43,-17.02 c0,-9.46,6.97,-17.1,16.43,-17.1 c11.21,0,16.35,7.64,16.35,17.1 c0,9.96,-7.39,17.02,-16.35,17.02 Z M219.7,109.72 c6.56,0,14.44,-7.8,14.44,-16.6 c0,-7.47,-3.32,-10.54,-7.72,-10.54 c-7.14,0,-14.11,8.8,-14.11,18.51 c0,5.23,2.82,8.63,7.39,8.63 Z M262.2,111.29 c0,0.25,-0.58,0.33,-1.49,0.33 c-0.75,0,-1.83,-0.08,-2.74,-0.08 c-1.0,0,-1.91,0.08,-2.49,0.41 c-0.5,1.33,-0.66,2.82,-0.66,4.32 c0,3.65,1.0,7.64,1.0,11.12 c0,1.74,-0.25,4.48,-1.58,7.14 c-0.17,0,-0.42,-0.17,-0.42,-0.58 c0,-6.89,-1.49,-6.23,-2.82,-13.11 c-0.83,-4.65,-3.98,-7.22,-7.22,-12.53 c0,-0.41,0.33,-0.66,1.08,-0.66 c1.16,0,2.91,0.41,4.23,0.41 c0.5,0,0.91,0,1.16,-0.17 c-0.25,-5.89,-0.58,-12.53,-0.58,-18.59 c0,-1.99,0,-3.9,0.08,-5.73 c-4.23,-0.66,-5.89,-1.33,-5.89,-1.83 c0,-0.75,4.98,-1.24,9.54,-1.24 c3.98,0,7.8,0.25,7.8,1.08 c0,0.42,-1.66,1.25,-6.81,2.16 c0.17,10.46,0.41,14.77,0.5,21.58 c0,0.42,2.24,1.08,3.15,1.08 c1.08,0,1.08,-5.31,1.49,-5.31 c1.0,0,2.66,7.55,2.66,10.21 Z M283.28,111.29 c0,0.25,-0.58,0.33,-1.49,0.33 c-0.75,0,-1.83,-0.08,-2.74,-0.08 c-1.0,0,-1.91,0.08,-2.49,0.41 c-0.5,1.33,-0.66,2.82,-0.66,4.32 c0,3.65,1.0,7.64,1.0,11.12 c0,1.74,-0.25,4.48,-1.58,7.14 c-0.17,0,-0.42,-0.17,-0.42,-0.58 c0,-6.89,-1.49,-6.23,-2.82,-13.11 c-0.83,-4.65,-3.98,-7.22,-7.22,-12.53 c0,-0.41,0.33,-0.66,1.08,-0.66 c1.16,0,2.91,0.41,4.23,0.41 c0.5,0,0.91,0,1.16,-0.17 c-0.25,-5.89,-0.58,-12.53,-0.58,-18.59 c0,-1.99,0,-3.9,0.08,-5.73 c-4.23,-0.66,-5.89,-1.33,-5.89,-1.83 c0,-0.75,4.98,-1.24,9.55,-1.24 c3.98,0,7.8,0.25,7.8,1.08 c0,0.42,-1.66,1.25,-6.81,2.16 c0.17,10.46,0.42,14.77,0.5,21.58 c0,0.42,2.24,1.08,3.15,1.08 c1.08,0,1.08,-5.31,1.49,-5.31 c1.0,0,2.66,7.55,2.66,10.21 Z M291.08,83.57 c-4.32,-0.66,-5.98,-1.33,-5.98,-1.83 c0,-0.75,4.98,-1.24,9.55,-1.24 c3.98,0,7.88,0.25,7.88,1.08 c0,0.42,-1.74,1.25,-6.81,2.16 c0.41,35.19,4.07,47.73,4.07,56.11 c0,1.74,-0.08,3.57,-0.25,5.56 c-7.3,0,-11.29,-2.49,-13.36,-5.31 c0,-0.42,0.08,-0.5,0.25,-0.5 c0.33,0,1.16,0.66,2.41,0.66 c3.07,0,4.07,-3.98,4.07,-11.21 c0,-6.31,-1.91,-29.63,-1.91,-40.17 c0,-1.74,0,-3.57,0.08,-5.31 Z M331.51,102.83 c0,9.05,-6.06,10.62,-10.46,10.62 c-7.72,0,-15.11,-7.3,-15.11,-18.92 c0,-7.8,6.14,-15.19,16.35,-15.19 c6.31,0,12.78,2.99,12.78,8.22 c0,2.49,-1.33,6.64,-1.91,6.64 c-0.75,0,-0.58,-5.48,-1.91,-7.3 c-1.66,-2.32,-3.65,-1.99,-5.23,-3.98 c-0.5,-0.58,-1.08,-0.91,-1.91,-0.91 c-4.48,0,-12.45,7.22,-12.45,17.76 c0,0.33,19.26,1.91,19.84,3.07 Z M312.08,102.16 c-0.17,0.58,-0.25,1.16,-0.25,1.58 c0,4.4,4.65,5.48,5.48,5.48 c3.15,0,7.97,-3.82,7.97,-4.9 c0,-0.17,-0.08,-0.25,-0.33,-0.25 Z M312.08,102.16" fill="rgb(0,0,0)" transform="matrix(1,0,0,-1,0,200)"/>
</svg>