<?xml version="1.0" encoding="UTF-8"?>
<svg height="200" version="1.1" width="500" xmlns="http://www.w3.org/2000/svg" xmlns:xlink="http://www.w3.org/1999/xlink">
 <path d="M0,0 l500,0 l0,200 l-500,0 Z M0,0" fill="rgb(255,255,255)" transform="matrix(1,0,0,-1,0,200)"/>
 <path d="M193.31,102.83 c0,9.05,-6.06,10.62,-10.46,10.62 c-7.72,0,-15.11,-7.3,-15.11,-18.92 c0,-7.8,6.14,-15.19,16.35,-15.19 c6.31,0,12.78,2.99,12.78,8.22 c0,2.49,-1.33,6.64,-1.91,6.64 c-0.75,0,-0.58,-5.48,-1.91,-7.3 c-1.66,-2.32,-3.65,-1.99,-5.23,-3.98 c-0.5,-0.58,-1.08,-0.91,-1.91,-0.91 c-4.48,0,-12.45,7.22,-12.45,17.76 c0,0.33,19.26,1.91,19.84,3.07 Z M173.89,102.16 c-0.17,0.58,-0.25,1.16,-0.25,1.58 c0,4.4,4.65,5.48,5.48,5.48 c3.15,0,7.97,-3.82,7.97,-4.9 c0,-0.17,-0.08,-0.25,-0.33,-0.25 Z M201.86,107.89 c0,-0.25,0.08,-0.58,0.58,-0.58 c1.25,0,3.24,0.58,5.98,0.58 c-0.25,-6.14,-0.58,-13.36,-0.58,-19.17 c0,-1.91,0,-3.65,0.17,-5.15 c-4.32,-0.66,-5.98,-1.33,-5.98,-1.83 c0,-0.75,4.98,-1.24,9.55,-1.24 c3.98,0,7.88,0.25,7.88,1.08 c0,0.42,-1.74,1.25,-6.81,2.16 c0.08,10.46,0.33,14.77,0.5,21.58 c0,0.42,1.91,1.08,3.07,1.08 c1.08,0,0.75,-5.15,1.58,-5.15 c0.83,0,2.91,8.22,2.91,9.79 c0,0.33,-0.42,0.42,-1.0,0.42 c-1.08,0,-2.74,-0.33,-3.9,-0.33 c-0.41,0,-0.83,0.17,-0.91,0.33 c-2.49,11.37,-3.65,17.26,-3.65,23.24 c0,4.15,1.33,5.23,2.66,5.23 c1.0,0,1.74,-1.08,2.41,-2.66 c2.16,-4.73,3.73,-5.64,6.31,-5.64 c1.08,0,1.58,0.41,1.58,1.58 c0,2.91,-6.89,8.96,-11.95,8.96 c-3.4,0,-7.06,-2.49,-7.06,-8.05 c0,-5.06,2.57,-11.37,2.57,-17.02 c0,-3.9,-1.33,-7.22,-5.89,-9.21 Z M225.1,107.89 c0,-0.25,0.08,-0.58,0.58,-0.58 c1.25,0,3.24,0.58,5.98,0.58 c-0.25,-6.14,-0.58,-13.36,-0.58,-19.17 c0,-1.91,0,-3.65,0.17,-5.15 c-4.32,-0.66,-5.98,-1.33,-5.98,-1.83 c0,-0.75,4.98,-1.24,9.54,-1.24 c3.98,0,7.89,0.25,7.89,1.08 c0,0.42,-1.74,1.25,-6.81,2.16 c0.08,10.46,0.33,14.77,0.5,21.58 c0,0.42,1.91,1.08,3.07,1.08 c1.08,0,0.75,-5.15,1.58,-5.15 c0.83,0,2.91,8.22,2.91,9.79 c0,0.33,-0.42,0.42,-1.0,0.42 c-1.08,0,-2.74,-0.33,-3.9,-0.33 c-0.41,0,-0.83,0.17,-0.91,0.33 c-2.49,11.37,-3.65,17.26,-3.65,23.24 c0,4.15,1.33,5.23,2.66,5.23 c1.0,0,1.74,-1.08,2.41,-2.66 c2.16,-4.73,3.73,-5.64,6.31,-5.64 c1.08,0,1.58,0.41,1.58,1.58 c0,2.91,-6.89,8.96,-11.95,8.96 c-3.4,0,-7.06,-2.49,-7.06,-8.05 c0,-5.06,2.57,-11.37,2.57,-17.02 c0,-3.9,-1.33,-7.22,-5.89,-9.21 Z M274.49,102.83 c0,9.05,-6.06,10.62,-10.46,10.62 c-7.72,0,-15.11,-7.3,-15.11,-18.92 c0,-7.8,6.14,-15.19,16.35,-15.19 c6.31,0,12.78,2.99,12.78,8.22 c0,2.49,-1.33,6.64,-1.91,6.64 c-0.75,0,-0.58,-5.48,-1.91,-7.3 c-1.66,-2.32,-3.65,-1.99,-5.23,-3.98 c-0.5,-0.58,-1.08,-0.91,-1.91,-0.91 c-4.48,0,-12.45,7.22,-12.45,17.76 c0,0.33,19.26,1.91,19.84,3.07 Z M255.06,102.16 c-0.17,0.58,-0.25,1.16,-0.25,1.58 c0,4.4,4.65,5.48,5.48,5.48 c3.15,0,7.97,-3.82,7.97,-4.9 c0,-0.17,-0.08,-0.25,-0.33,-0.25 Z M303.87,82.99 c-0.41,-0.66,-1.16,-1.0,-2.07,-1.0 c-5.73,0,-12.53,9.05,-12.53,18.43 c0,8.38,6.81,9.05,10.29,9.05 c5.64,0,4.65,-8.13,6.81,-8.13 c1.66,0,4.73,4.23,4.73,6.56 c0,3.15,-3.24,5.56,-8.22,5.56 c-12.53,0,-19.17,-8.55,-19.17,-17.35 c0,-9.79,4.98,-16.77,16.1,-16.77 c6.31,0,12.86,2.99,12.86,8.22 c0,2.49,-1.41,6.64,-1.83,6.64 c-0.91,0,-0.5,-5.15,-1.99,-7.3 c-1.58,-2.32,-3.65,-2.07,-4.98,-3.9 Z M334.0,111.29 c0,0.25,-0.58,0.33,-1.49,0.33 c-0.75,0,-1.83,-0.08,-2.74,-0.08 c-1.0,0,-1.91,0.08,-2.49,0.41 c-0.5,1.33,-0.66,2.82,-0.66,4.32 c0,3.65,1.0,7.64,1.0,11.12 c0,1.74,-0.25,4.48,-1.58,7.14 c-0.17,0,-0.42,-0.17,-0.42,-0.58 c0,-6.89,-1.49,-6.23,-2.82,-13.11 c-0.83,-4.65,-3.98,-7.22,-7.22,-12.53 c0,-0.41,0.33,-0.66,1.08,-0.66 c1.16,0,2.91,0.41,4.23,0.41 c0.5,0,0.91,0,1.16,-0.17 c-0.25,-5.89,-0.58,-12.53,-0.58,-18.59 c0,-1.99,0,-3.9,0.08,-5.73 c-4.23,-0.66,-5.89,-1.33,-5.89,-1.83 c0,-0.75,4.98,-1.24,9.55,-1.24 c3.98,0,7.8,0.25,7.8,1.08 c0,0.42,-1.66,1.25,-6.81,2.16 c0.17,10.46,0.42,14.77,0.5,21.58 c0,0.42,2.24,1.08,3.15,1.08 c1.08,0,1.08,-5.31,1.49,-5.31 c1.0,0,2.66,7.55,2.66,10.21 Z M334.0,111.29" fill="rgb(0,0,0)" transform="matrix(1,0,0,-1,0,200)"/>
</svg>