<?xml version="1.0" encoding="UTF-8"?>
<svg height="200" version="1.1" width="500" xmlns="http://www.w3.org/2000/svg" xmlns:xlink="http://www.w3.org/1999/xlink">
 <path d="M0,0 l500,0 l0,200 l-500,0 Z M0,0" fill="rgb(255,255,255)" transform="matrix(1,0,0,-1,0,200)"/>
 <path d="M142.64,107.89 c0,-0.25,0.08,-0.58,0.58,-0.58 c1.25,0,3.24,0.58,5.98,0.58 c-0.25,-6.14,-0.58,-13.36,-0.58,-19.17 c0,-1.91,0,-3.65,0.17,-5.15 c-4.32,-0.66,-5.98,-1.33,-5.98,-1.83 c0,-0.75,4.98,-1.24,9.55,-1.24 c3.98,0,7.88,0.25,7.88,1.08 c0,0.42,-1.74,1.25,-6.81,2.16 c0.08,10.46,0.33,14.77,0.5,21.58 c0,0.42,1.91,1.08,3.07,1.08 c1.08,0,0.75,-5.15,1.58,-5.15 c0.83,0,2.91,8.22,2.91,9.79 c0,0.33,-0.42,0.42,-1.0,0.42 c-1.08,0,-2.74,-0.33,-3.9,-0.33 c-0.41,0,-0.83,0.17,-0.91,0.33 c-2.49,11.37,-3.65,17.26,-3.65,23.24 c0,4.15,1.33,5.23,2.66,5.23 c1.0,0,1.74,-1.08,2.41,-2.66 c2.16,-4.73,3.73,-5.64,6.31,-5.64 c1.08,0,1.58,0.41,1.58,1.58 c0,2.91,-6.89,8.96,-11.95,8.96 c-3.4,0,-7.06,-2.49,-7.06,-8.05 c0,-5.06,2.57,-11.37,2.57,-17.02 c0,-3.9,-1.33,-7.22,-5.89,-9.21 Z M173.52,100.75 c-0.83,1.49,-1.33,2.74,-1.33,3.98 c0,3.82,4.73,6.31,7.8,6.31 c3.73,0,4.73,-4.32,4.73,-6.47 c0,-8.05,-14.19,-10.04,-17.68,-14.36 c-1.16,-1.49,-1.58,-2.82,-1.58,-4.07 c0,-3.15,3.32,-6.81,7.88,-6.81 c4.48,0,11.29,3.49,13.36,6.14 c0.5,-2.08,0.83,-6.89,2.99,-6.89 c3.4,0,6.64,3.9,6.72,5.4 c0,0.25,-0.08,0.33,-0.33,0.33 c-0.5,0,-1.58,-0.42,-3.4,-1.74 c-2.32,6.56,-1.99,14.86,-2.74,21.16 c-0.58,5.4,-1.66,9.71,-8.22,9.71 c-10.29,0,-14.19,-6.97,-14.19,-10.04 c0,-2.08,1.08,-3.65,2.99,-3.65 c0.91,0,1.83,0.33,2.99,1.0 Z M185.22,96.02 c0,-7.89,-1.74,-12.53,-7.14,-12.53 c-3.57,0,-5.15,2.24,-5.15,4.48 c0,3.98,8.8,5.89,11.45,9.46 c0.42,0.5,0.5,1.08,0.58,1.08 c0.25,0,0.25,-0.08,0.25,-2.49 Z M211.86,111.63 c3.73,0,7.88,-7.14,8.8,-7.14 c0.58,0,1.66,2.99,1.66,4.23 c0,3.24,-4.48,5.06,-8.96,5.06 c-5.31,0,-10.29,-3.07,-10.29,-9.05 c0,-10.54,14.86,-11.87,14.86,-17.76 c0,-2.08,-3.32,-4.15,-6.39,-4.15 c-1.58,0,-3.32,0.75,-4.07,1.99 c-1.49,2.49,-4.81,1.74,-6.39,6.06 c-0.33,1.0,-0.66,2.49,-1.0,2.49 c-0.58,0,-0.75,-1.83,-0.75,-2.66 c0,-3.57,3.32,-11.79,11.12,-11.79 c5.64,0,11.87,4.81,11.87,11.45 c0,9.13,-15.02,10.29,-15.02,16.43 c0,1.83,2.66,4.81,4.56,4.81 Z M230.7,83.99 c-3.24,-0.91,-4.48,-1.66,-4.48,-2.24 c0,-0.91,3.24,-1.24,6.64,-1.24 c3.32,0,6.72,0.33,6.72,1.08 c0,0.33,-1.16,0.83,-4.07,1.41 c-0.41,1.66,-0.58,3.9,-0.58,6.31 c0,16.85,4.4,18.34,8.13,18.34 c2.57,0,5.23,-1.74,6.39,-3.32 c4.23,-5.48,1.33,-10.04,3.65,-20.92 c-3.15,-0.5,-4.4,-0.91,-4.4,-1.41 c0,-0.83,4.98,-1.49,8.71,-1.49 c2.41,0,4.32,0.25,4.32,0.83 c0,0.5,-1.08,1.16,-3.9,2.16 c-0.5,3.07,-0.5,6.31,-0.5,9.3 l0,1.58 c0,4.73,-0.08,9.21,-1.74,13.03 c-1.58,3.49,-5.64,6.39,-9.88,6.39 c-4.32,0,-7.88,-6.39,-8.88,-6.39 c0,4.9,3.15,25.32,3.15,34.53 c0,1.49,-0.08,2.74,-0.33,3.49 c-8.8,0,-13.28,-4.15,-13.28,-5.73 c0.41,0,1.25,0.58,2.66,0.58 c3.07,0,4.07,-3.98,4.07,-11.21 c0,-10.29,-2.57,-25.98,-2.57,-40.01 c0,-1.74,0,-3.4,0.17,-5.06 Z M274.28,134.7 c-2.57,0,-5.06,-2.07,-5.06,-4.56 c0,-2.41,1.41,-4.73,4.07,-4.73 c1.25,0,5.06,1.58,5.06,4.73 c0,2.07,-1.91,4.56,-4.07,4.56 Z M275.02,99.67 c0,2.74,1.74,12.2,1.74,16.43 c-0.08,0.17,-0.17,0.17,-0.58,0.17 c-2.49,-3.24,-9.55,-7.72,-12.45,-10.54 c0,-0.42,0.25,-0.58,0.42,-0.58 c1.33,0.5,2.32,0.75,3.15,0.75 c1.83,0,2.49,-1.24,2.49,-4.23 c-0.08,-3.49,-0.58,-6.81,-0.58,-10.21 c0,-2.57,0.25,-5.15,1.16,-7.97 c-4.32,-0.58,-5.98,-1.33,-5.98,-1.74 c0,-0.66,4.98,-1.24,9.55,-1.24 c3.98,0,6.06,0.58,6.06,1.16 c0,0.58,-2.24,1.49,-4.98,1.91 c-0.5,2.24,-0.58,4.4,-0.58,6.31 c0,3.9,0.58,7.22,0.58,9.79 Z M300.42,113.45 c-9.05,0,-16.43,-7.64,-16.43,-17.02 c0,-9.46,6.97,-17.1,16.43,-17.1 c11.21,0,16.35,7.64,16.35,17.1 c0,9.96,-7.39,17.02,-16.35,17.02 Z M297.1,109.72 c6.56,0,14.44,-7.8,14.44,-16.6 c0,-7.47,-3.32,-10.54,-7.72,-10.54 c-7.14,0,-14.11,8.8,-14.11,18.51 c0,5.23,2.82,8.63,7.39,8.63 Z M327.56,83.99 c-3.24,-0.91,-4.48,-1.66,-4.48,-2.32 c0,-0.83,3.49,-1.16,6.72,-1.16 c2.91,0,6.72,0.25,6.72,1.08 c0,0.58,-1.16,0.83,-4.15,1.41 c-0.42,1.91,-0.66,4.15,-0.66,6.39 c0,5.06,0.91,10.21,1.49,12.53 c1.08,4.32,4.15,5.73,6.81,5.73 c2.49,0,5.23,-1.74,6.39,-3.32 c4.15,-5.48,1.25,-10.04,3.57,-20.92 c-3.74,-0.5,-4.32,-1.08,-4.32,-1.41 c0,-0.83,4.9,-1.49,8.72,-1.49 c1.99,0,4.23,0.17,4.23,0.83 c0,0.58,-1.08,1.16,-3.82,2.16 c-0.83,8.96,-0.08,16.43,-1.49,21.75 c-1.83,7.06,-8.22,8.55,-10.71,8.55 c-4.15,0,-7.97,-6.47,-8.72,-6.47 c-0.17,0,-0.17,0.25,-0.17,0.75 c0,1.66,0.58,5.23,0.58,8.05 c-0.17,0.17,-0.25,0.17,-0.58,0.17 c-2.57,-3.24,-9.55,-7.72,-12.45,-10.54 c0,-0.5,0.08,-0.58,0.42,-0.58 c0.41,0,1.49,0.75,3.15,0.75 c1.74,0,2.41,-1.24,2.41,-4.23 c0,-1.58,-0.66,-6.23,-0.66,-10.62 c0,-2.57,0.33,-5.23,1.0,-7.05 Z M327.56,83.99" fill="rgb(0,0,0)" transform="matrix(1,0,0,-1,0,200)"/>
</svg>