<?xml version="1.0" encoding="UTF-8"?>
<svg height="200" version="1.1" width="500" xmlns="http://www.w3.org/2000/svg" xmlns:xlink="http://www.w3.org/1999/xlink">
 <path d="M0,0 l500,0 l0,200 l-500,0 Z M0,0" fill="rgb(255,255,255)" transform="matrix(1,0,0,-1,0,200)"/>
 <path d="M162.02,107.89 c0,-0.25,0.08,-0.58,0.58,-0.58 c1.25,0,3.24,0.58,5.98,0.58 c-0.25,-6.14,-0.58,-13.36,-0.58,-19.17 c0,-1.91,0,-3.65,0.17,-5.15 c-4.32,-0.66,-5.98,-1.33,-5.98,-1.83 c0,-0.75,4.98,-1.24,9.55,-1.24 c3.98,0,7.88,0.25,7.88,1.08 c0,0.42,-1.74,1.25,-6.81,2.16 c0.08,10.46,0.33,14.77,0.5,21.58 c0,0.42,1.91,1.08,3.07,1.08 c1.08,0,0.75,-5.15,1.58,-5.15 c0.83,0,2.91,8.22,2.91,9.79 c0,0.33,-0.42,0.42,-1.0,0.42 c-1.08,0,-2.74,-0.33,-3.9,-0.33 c-0.41,0,-0.83,0.17,-0.91,0.33 c-2.49,11.37,-3.65,17.26,-3.65,23.24 c0,4.15,1.33,5.23,2.66,5.23 c1.0,0,1.74,-1.08,2.41,-2.66 c2.16,-4.73,3.73,-5.64,6.31,-5.64 c1.08,0,1.58,0.41,1.58,1.58 c0,2.91,-6.89,8.96,-11.95,8.96 c-3.4,0,-7.06,-2.49,-7.06,-8.05 c0,-5.06,2.57,-11.37,2.57,-17.02 c0,-3.9,-1.33,-7.22,-5.89,-9.21 Z M202.27,113.45 c-9.05,0,-16.43,-7.64,-16.43,-17.02 c0,-9.46,6.97,-17.1,16.43,-17.1 c11.21,0,16.35,7.64,16.35,17.1 c0,9.96,-7.39,17.02,-16.35,17.02 Z M198.95,109.72 c6.56,0,14.44,-7.8,14.44,-16.6 c0,-7.47,-3.32,-10.54,-7.72,-10.54 c-7.14,0,-14.11,8.8,-14.11,18.51 c0,5.23,2.82,8.63,7.39,8.63 Z M228.17,83.57 c-4.32,-0.66,-5.98,-1.33,-5.98,-1.83 c0,-0.75,4.98,-1.24,9.55,-1.24 c3.98,0,7.88,0.25,7.88,1.08 c0,0.42,-1.74,1.25,-6.81,2.16 c0.42,35.19,4.07,47.73,4.07,56.11 c0,1.74,-0.08,3.57,-0.25,5.56 c-7.3,0,-11.29,-2.49,-13.36,-5.31 c0,-0.42,0.08,-0.5,0.25,-0.5 c0.33,0,1.16,0.66,2.41,0.66 c3.07,0,4.07,-3.98,4.07,-11.21 c0,-6.31,-1.91,-29.63,-1.91,-40.17 c0,-1.74,0,-3.57,0.08,-5.31 Z M245.77,83.57 c-4.32,-0.66,-5.98,-1.33,-5.98,-1.83 c0,-0.75,4.98,-1.24,9.55,-1.24 c3.98,0,7.88,0.25,7.88,1.08 c0,0.42,-1.74,1.25,-6.81,2.16 c0.42,35.19,4.07,47.73,4.07,56.11 c0,1.74,-0.08,3.57,-0.25,5.56 c-7.3,0,-11.29,-2.49,-13.36,-5.31 c0,-0.42,0.08,-0.5,0.25,-0.5 c0.33,0,1.16,0.66,2.41,0.66 c3.07,0,4.07,-3.98,4.07,-11.21 c0,-6.31,-1.91,-29.63,-1.91,-40.17 c0,-1.74,0,-3.57,0.08,-5.31 Z M277.06,113.45 c-9.05,0,-16.43,-7.64,-16.43,-17.02 c0,-9.46,6.97,-17.1,16.43,-17.1 c11.21,0,16.35,7.64,16.35,17.1 c0,9.96,-7.39,17.02,-16.35,17.02 Z M273.74,109.72 c6.56,0,14.44,-7.8,14.44,-16.6 c0,-7.47,-3.32,-10.54,-7.72,-10.54 c-7.14,0,-14.11,8.8,-14.11,18.51 c0,5.23,2.82,8.63,7.39,8.63 Z M318.97,99.76 c6.56,-13.28,3.4,-10.71,8.13,-20.83 c3.98,0,9.13,13.94,11.95,30.54 c2.41,1.41,3.4,2.24,3.4,2.74 c0,0.5,-0.75,0.66,-1.99,0.66 c-5.15,0,-10.71,-2.32,-10.71,-3.07 c0,-0.58,1.16,-1.0,4.23,-1.08 c0.17,-1.0,0.33,-2.24,0.33,-3.57 c0,-5.98,-1.66,-14.69,-4.23,-18.43 c-2.99,5.98,-8.38,24.57,-11.62,24.57 c0,-4.4,-2.49,-13.03,-2.74,-17.6 c-0.33,-5.15,-1.08,-4.48,-2.57,-6.72 c-5.15,10.46,-5.89,19.26,-6.64,23.82 c2.41,0.91,3.32,1.66,3.32,1.91 c0,0.33,-0.58,0.42,-1.58,0.42 c-7.06,0,-13.11,-2.57,-13.11,-3.32 c0,-0.58,1.49,-1.08,5.15,-1.24 c2.66,-6.56,2.49,-10.62,3.74,-14.28 c1.91,-5.56,4.65,-9.46,7.47,-15.52 c2.32,0,6.81,14.28,7.47,21.0 Z M318.97,99.76" fill="rgb(0,0,0)" transform="matrix(1,0,0,-1,0,200)"/>
</svg>