<?xml version="1.0" encoding="UTF-8"?>
<svg height="200" version="1.1" width="500" xmlns="http://www.w3.org/2000/svg" xmlns:xlink="http://www.w3.org/1999/xlink">
 <path d="M0,0 l500,0 l0,200 l-500,0 Z M0,0" fill="rgb(255,255,255)" transform="matrix(1,0,0,-1,0,200)"/>
 <path d="M172.85,89.05 c0,-2.24,-6.31,-7.05,-9.71,-8.55 c2.57,-5.06,9.71,-3.73,9.71,-5.73 c-1.91,-1.99,-12.03,-6.31,-12.03,-9.38 c0,-2.82,8.55,-8.63,15.27,-8.63 c8.05,0,15.6,7.3,15.6,8.71 c0,3.9,-7.72,11.37,-19.67,16.85 c6.22,6.23,12.7,8.72,16.19,15.52 c0.41,-0.17,0.75,-0.25,1.16,-0.25 c2.82,0,6.22,4.4,6.22,9.3 c0,1.91,-1.33,5.64,-2.41,5.64 c-0.33,0,-0.33,-0.41,-0.33,-1.0 c0,-0.5,0,-1.16,-0.17,-1.83 c-0.91,-2.99,-1.25,-7.39,-3.49,-7.39 c-4.07,0,-3.24,11.29,-11.29,11.29 c-4.65,0,-16.6,-9.05,-16.6,-13.03 c0,-5.56,8.55,-11.54,11.54,-11.54 Z M167.54,102.41 c0,2.74,2.41,5.56,6.72,5.56 c5.98,0,9.21,-5.73,9.21,-10.13 c0,-3.57,-1.58,-5.39,-4.65,-5.39 c-4.98,0,-11.29,5.98,-11.29,9.96 Z M176.59,73.36 c3.15,0,1.99,-2.74,6.31,-6.06 c0.66,-0.5,0.91,-0.91,0.91,-1.49 c0,-3.9,-5.15,-6.06,-8.96,-6.06 c-2.74,0,-5.48,1.91,-5.48,4.23 c0,4.23,4.73,9.38,7.22,9.38 Z M207.88,134.7 c-2.57,0,-5.06,-2.07,-5.06,-4.56 c0,-2.41,1.41,-4.73,4.07,-4.73 c1.25,0,5.06,1.58,5.06,4.73 c0,2.07,-1.91,4.56,-4.07,4.56 Z M208.62,99.67 c0,2.74,1.74,12.2,1.74,16.43 c-0.08,0.17,-0.17,0.17,-0.58,0.17 c-2.49,-3.24,-9.54,-7.72,-12.45,-10.54 c0,-0.42,0.25,-0.58,0.41,-0.58 c1.33,0.5,2.32,0.75,3.15,0.75 c1.83,0,2.49,-1.24,2.49,-4.23 c-0.08,-3.49,-0.58,-6.81,-0.58,-10.21 c0,-2.57,0.25,-5.15,1.16,-7.97 c-4.32,-0.58,-5.98,-1.33,-5.98,-1.74 c0,-0.66,4.98,-1.24,9.55,-1.24 c3.98,0,6.06,0.58,6.06,1.16 c0,0.58,-2.24,1.49,-4.98,1.91 c-0.5,2.24,-0.58,4.4,-0.58,6.31 c0,3.9,0.58,7.22,0.58,9.79 Z M230.37,79.01 c3.98,0,11.29,15.94,13.61,30.38 c2.41,1.41,3.32,2.24,3.32,2.74 c0,0.58,-0.75,0.75,-1.91,0.75 c-4.98,0,-10.71,-2.32,-10.71,-3.15 c0,-0.5,1.16,-0.91,4.23,-1.0 c0.17,-0.66,0.25,-1.58,0.25,-2.41 c0,-6.23,-3.32,-16.52,-6.06,-20.5 c-4.07,9.13,-7.06,11.79,-9.3,24.73 c2.32,1.0,3.32,1.66,3.32,2.07 c0,0.25,-0.58,0.42,-1.58,0.42 c-4.56,0,-13.03,-2.16,-13.03,-3.4 c0,-0.5,1.33,-1.0,5.06,-1.33 c2.32,-4.98,2.99,-8.96,4.4,-12.45 c2.66,-6.39,5.31,-10.96,8.38,-16.85 Z M257.59,134.7 c-2.57,0,-5.06,-2.07,-5.06,-4.56 c0,-2.41,1.41,-4.73,4.07,-4.73 c1.25,0,5.06,1.58,5.06,4.73 c0,2.07,-1.91,4.56,-4.07,4.56 Z M258.34,99.67 c0,2.74,1.74,12.2,1.74,16.43 c-0.08,0.17,-0.17,0.17,-0.58,0.17 c-2.49,-3.24,-9.55,-7.72,-12.45,-10.54 c0,-0.42,0.25,-0.58,0.41,-0.58 c1.33,0.5,2.32,0.75,3.15,0.75 c1.83,0,2.49,-1.24,2.49,-4.23 c-0.08,-3.49,-0.58,-6.81,-0.58,-10.21 c0,-2.57,0.25,-5.15,1.16,-7.97 c-4.32,-0.58,-5.98,-1.33,-5.98,-1.74 c0,-0.66,4.98,-1.24,9.54,-1.24 c3.98,0,6.06,0.58,6.06,1.16 c0,0.58,-2.24,1.49,-4.98,1.91 c-0.5,2.24,-0.58,4.4,-0.58,6.31 c0,3.9,0.58,7.22,0.58,9.79 Z M271.29,83.99 c-3.24,-0.91,-4.48,-1.66,-4.48,-2.32 c0,-0.83,3.49,-1.16,6.72,-1.16 c2.91,0,6.72,0.25,6.72,1.08 c0,0.58,-1.16,0.83,-4.15,1.41 c-0.42,1.91,-0.66,4.15,-0.66,6.39 c0,5.06,0.91,10.21,1.49,12.53 c1.08,4.32,4.15,5.73,6.81,5.73 c2.49,0,5.23,-1.74,6.39,-3.32 c4.15,-5.48,1.25,-10.04,3.57,-20.92 c-3.74,-0.5,-4.32,-1.08,-4.32,-1.41 c0,-0.83,4.9,-1.49,8.72,-1.49 c1.99,0,4.23,0.17,4.23,0.83 c0,0.58,-1.08,1.16,-3.82,2.16 c-0.83,8.96,-0.08,16.43,-1.49,21.75 c-1.83,7.06,-8.22,8.55,-10.71,8.55 c-4.15,0,-7.97,-6.47,-8.72,-6.47 c-0.17,0,-0.17,0.25,-0.17,0.75 c0,1.66,0.58,5.23,0.58,8.05 c-0.17,0.17,-0.25,0.17,-0.58,0.17 c-2.57,-3.24,-9.55,-7.72,-12.45,-10.54 c0,-0.5,0.08,-0.58,0.42,-0.58 c0.41,0,1.49,0.75,3.15,0.75 c1.74,0,2.41,-1.24,2.41,-4.23 c0,-1.58,-0.66,-6.23,-0.66,-10.62 c0,-2.57,0.33,-5.23,1.0,-7.05 Z M318.27,89.05 c0,-2.24,-6.31,-7.05,-9.71,-8.55 c2.57,-5.06,9.71,-3.73,9.71,-5.73 c-1.91,-1.99,-12.03,-6.31,-12.03,-9.38 c0,-2.82,8.55,-8.63,15.27,-8.63 c8.05,0,15.6,7.3,15.6,8.71 c0,3.9,-7.72,11.37,-19.67,16.85 c6.23,6.23,12.7,8.72,16.19,15.52 c0.42,-0.17,0.75,-0.25,1.16,-0.25 c2.82,0,6.23,4.4,6.23,9.3 c0,1.91,-1.33,5.64,-2.41,5.64 c-0.33,0,-0.33,-0.41,-0.33,-1.0 c0,-0.5,0,-1.16,-0.17,-1.83 c-0.91,-2.99,-1.25,-7.39,-3.49,-7.39 c-4.07,0,-3.24,11.29,-11.29,11.29 c-4.65,0,-16.6,-9.05,-16.6,-13.03 c0,-5.56,8.55,-11.54,11.54,-11.54 Z M312.96,102.41 c0,2.74,2.41,5.56,6.72,5.56 c5.98,0,9.21,-5.73,9.21,-10.13 c0,-3.57,-1.58,-5.39,-4.65,-5.39 c-4.98,0,-11.29,5.98,-11.29,9.96 Z M322.0,73.36 c3.15,0,1.99,-2.74,6.31,-6.06 c0.66,-0.5,0.91,-0.91,0.91,-1.49 c0,-3.9,-5.15,-6.06,-8.96,-6.06 c-2.74,0,-5.48,1.91,-5.48,4.23 c0,4.23,4.73,9.38,7.22,9.38 Z M322.0,73.36" fill="rgb(0,0,0)" transform="matrix(1,0,0,-1,0,200)"/>
</svg>