<?xml version="1.0" encoding="UTF-8"?>
<svg height="200" version="1.1" width="500" xmlns="http://www.w3.org/2000/svg" xmlns:xlink="http://www.w3.org/1999/xlink">
 <path d="M0,0 l500,0 l0,200 l-500,0 Z M0,0" fill="rgb(255,255,255)" transform="matrix(1,0,0,-1,0,200)"/>
 <path d="M170.03,106.89 c-0.58,0,-0.66,1.25,-1.91,2.57 c-1.49,1.99,-5.23,4.32,-8.88,4.32 c-2.91,0,-4.4,-6.47,-5.73,-6.47 c-0.08,0,-0.25,0.17,-0.25,0.58 c0,1.33,0.66,4.56,0.66,8.22 c-0.17,0.17,-0.25,0.17,-0.66,0.17 c-2.49,-3.24,-9.46,-7.72,-12.37,-10.54 c0,-0.5,0.08,-0.66,0.25,-0.66 c0.5,0,1.58,0.83,3.32,0.83 c1.74,0,2.41,-1.24,2.41,-4.23 c0,-1.66,-0.66,-6.23,-0.66,-10.62 c0,-2.57,0.33,-5.15,1.0,-7.05 c-3.24,-0.91,-4.48,-1.66,-4.48,-2.32 c0,-0.83,3.49,-1.16,6.72,-1.16 c2.91,0,6.56,0.25,6.56,1.08 c0,0.42,-1.08,0.83,-3.98,1.41 c-0.33,1.66,-0.58,3.9,-0.58,6.31 c0,14.69,3.24,18.59,7.3,18.59 c3.24,0,7.39,-5.48,7.39,-9.3 c0,-3.82,-1.08,-7.3,-1.08,-15.19 c-3.82,-0.5,-4.4,-1.08,-4.4,-1.41 c0,-0.83,4.98,-1.49,8.8,-1.49 c1.99,0,4.23,0.25,4.23,0.75 c0,0.58,-1.08,1.24,-3.9,2.24 c1.0,7.47,1.16,11.45,1.16,14.19 c0,1.74,-0.08,2.99,-0.17,4.32 c0.91,4.23,2.41,5.89,4.98,5.89 c2.74,0,7.47,-4.56,7.47,-10.71 c0,-1.49,-0.08,-3.4,-0.08,-5.48 c0,-2.82,0.17,-5.81,0.75,-8.3 c-3.65,-0.5,-4.4,-1.08,-4.4,-1.41 c0,-0.91,4.98,-1.49,8.8,-1.49 c1.99,0,4.23,0.25,4.23,0.75 c0,0.66,-1.08,1.24,-3.9,2.24 c-0.75,8.96,-0.08,16.43,-1.41,21.75 c-1.83,6.97,-8.05,8.55,-10.71,8.55 c-3.9,0,-3.15,-5.06,-6.47,-6.89 Z M206.05,134.7 c-2.57,0,-5.06,-2.07,-5.06,-4.56 c0,-2.41,1.41,-4.73,4.07,-4.73 c1.25,0,5.06,1.58,5.06,4.73 c0,2.07,-1.91,4.56,-4.07,4.56 Z M206.8,99.67 c0,2.74,1.74,12.2,1.74,16.43 c-0.08,0.17,-0.17,0.17,-0.58,0.17 c-2.49,-3.24,-9.54,-7.72,-12.45,-10.54 c0,-0.42,0.25,-0.58,0.41,-0.58 c1.33,0.5,2.32,0.75,3.15,0.75 c1.83,0,2.49,-1.24,2.49,-4.23 c-0.08,-3.49,-0.58,-6.81,-0.58,-10.21 c0,-2.57,0.25,-5.15,1.16,-7.97 c-4.32,-0.58,-5.98,-1.33,-5.98,-1.74 c0,-0.66,4.98,-1.24,9.55,-1.24 c3.98,0,6.06,0.58,6.06,1.16 c0,0.58,-2.24,1.49,-4.98,1.91 c-0.5,2.24,-0.58,4.4,-0.58,6.31 c0,3.9,0.58,7.22,0.58,9.79 Z M218.5,83.57 c-4.32,-0.66,-5.98,-1.33,-5.98,-1.83 c0,-0.75,4.98,-1.24,9.55,-1.24 c3.98,0,7.88,0.25,7.88,1.08 c0,0.42,-1.74,1.25,-6.81,2.16 c0.42,35.19,4.07,47.73,4.07,56.11 c0,1.74,-0.08,3.57,-0.25,5.56 c-7.3,0,-11.29,-2.49,-13.36,-5.31 c0,-0.42,0.08,-0.5,0.25,-0.5 c0.33,0,1.16,0.66,2.41,0.66 c3.07,0,4.07,-3.98,4.07,-11.21 c0,-6.31,-1.91,-29.63,-1.91,-40.17 c0,-1.74,0,-3.57,0.08,-5.31 Z M241.74,134.7 c-2.57,0,-5.06,-2.07,-5.06,-4.56 c0,-2.41,1.41,-4.73,4.07,-4.73 c1.25,0,5.06,1.58,5.06,4.73 c0,2.07,-1.91,4.56,-4.07,4.56 Z M242.49,99.67 c0,2.74,1.74,12.2,1.74,16.43 c-0.08,0.17,-0.17,0.17,-0.58,0.17 c-2.49,-3.24,-9.54,-7.72,-12.45,-10.54 c0,-0.42,0.25,-0.58,0.41,-0.58 c1.33,0.5,2.32,0.75,3.15,0.75 c1.83,0,2.49,-1.24,2.49,-4.23 c-0.08,-3.49,-0.58,-6.81,-0.58,-10.21 c0,-2.57,0.25,-5.15,1.16,-7.97 c-4.32,-0.58,-5.98,-1.33,-5.98,-1.74 c0,-0.66,4.98,-1.24,9.55,-1.24 c3.98,0,6.06,0.58,6.06,1.16 c0,0.58,-2.24,1.49,-4.98,1.91 c-0.5,2.24,-0.58,4.4,-0.58,6.31 c0,3.9,0.58,7.22,0.58,9.79 Z M267.47,111.29 c0,0.25,-0.58,0.33,-1.49,0.33 c-0.75,0,-1.83,-0.08,-2.74,-0.08 c-1.0,0,-1.91,0.08,-2.49,0.41 c-0.5,1.33,-0.66,2.82,-0.66,4.32 c0,3.65,1.0,7.64,1.0,11.12 c0,1.74,-0.25,4.48,-1.58,7.14 c-0.17,0,-0.42,-0.17,-0.42,-0.58 c0,-6.89,-1.49,-6.23,-2.82,-13.11 c-0.83,-4.65,-3.98,-7.22,-7.22,-12.53 c0,-0.41,0.33,-0.66,1.08,-0.66 c1.16,0,2.91,0.41,4.23,0.41 c0.5,0,0.91,0,1.16,-0.17 c-0.25,-5.89,-0.58,-12.53,-0.58,-18.59 c0,-1.99,0,-3.9,0.08,-5.73 c-4.23,-0.66,-5.89,-1.33,-5.89,-1.83 c0,-0.75,4.98,-1.24,9.55,-1.24 c3.98,0,7.8,0.25,7.8,1.08 c0,0.42,-1.66,1.25,-6.81,2.16 c0.17,10.46,0.42,14.77,0.5,21.58 c0,0.42,2.24,1.08,3.15,1.08 c1.08,0,1.08,-5.31,1.49,-5.31 c1.0,0,2.66,7.55,2.66,10.21 Z M279.59,100.75 c-0.83,1.49,-1.33,2.74,-1.33,3.98 c0,3.82,4.73,6.31,7.8,6.31 c3.73,0,4.73,-4.32,4.73,-6.47 c0,-8.05,-14.19,-10.04,-17.68,-14.36 c-1.16,-1.49,-1.58,-2.82,-1.58,-4.07 c0,-3.15,3.32,-6.81,7.88,-6.81 c4.48,0,11.29,3.49,13.36,6.14 c0.5,-2.08,0.83,-6.89,2.99,-6.89 c3.4,0,6.64,3.9,6.72,5.4 c0,0.25,-0.08,0.33,-0.33,0.33 c-0.5,0,-1.58,-0.42,-3.4,-1.74 c-2.32,6.56,-1.99,14.86,-2.74,21.16 c-0.58,5.4,-1.66,9.71,-8.22,9.71 c-10.29,0,-14.19,-6.97,-14.19,-10.04 c0,-2.08,1.08,-3.65,2.99,-3.65 c0.91,0,1.83,0.33,2.99,1.0 Z M291.29,96.02 c0,-7.89,-1.74,-12.53,-7.14,-12.53 c-3.57,0,-5.15,2.24,-5.15,4.48 c0,3.98,8.8,5.89,11.45,9.46 c0.41,0.5,0.5,1.08,0.58,1.08 c0.25,0,0.25,-0.08,0.25,-2.49 Z M324.58,107.39 c0,-1.16,0.66,-2.08,0.66,-3.32 c0,-1.08,-0.83,-2.49,-0.83,-3.24 c0,-0.25,0.17,-0.41,0.58,-0.41 c1.74,0,4.73,4.65,4.73,8.63 c0,2.82,-2.16,5.39,-4.48,5.39 c-3.49,0,-8.13,-7.3,-8.63,-7.3 c-0.17,0,-0.33,0.25,-0.33,0.75 c0,1.49,1.49,5.81,1.49,8.22 c0,0.08,-0.08,0.42,-0.33,0.42 c-0.08,0,-0.17,-0.08,-0.25,-0.25 c-2.49,-3.24,-9.79,-7.97,-12.7,-10.71 c0,-0.33,0.08,-0.42,0.33,-0.42 c0.75,0,2.08,0.75,3.49,0.75 c1.83,0,2.49,-1.24,2.49,-4.23 c0,-1.41,-0.5,-5.06,-0.5,-9.38 c0,-2.91,0.17,-6.06,1.08,-8.8 c-4.32,-0.58,-5.98,-1.33,-5.98,-1.74 c0,-0.66,4.98,-1.24,9.55,-1.24 c3.98,0,6.06,0.5,6.06,1.16 c0,0.58,-2.24,1.49,-4.98,1.91 c-0.5,2.32,-0.66,4.48,-0.66,6.39 c0,3.9,0.66,7.14,0.66,9.71 c0,5.39,5.81,10.04,7.3,10.04 c1.16,0,1.25,-1.25,1.25,-2.32 Z M345.49,81.58 c-1.58,-4.56,-6.56,-20.67,-9.71,-20.67 c-2.66,0,-4.48,7.39,-5.06,7.39 c-1.0,0,-2.24,-2.41,-2.24,-4.15 c0,-5.15,3.98,-7.47,5.23,-7.47 c8.55,0,24.24,41.75,25.81,52.54 c2.41,1.33,3.4,2.24,3.4,2.82 c0,0.58,-1.08,0.75,-2.49,0.75 c-3.82,0,-10.29,-1.66,-10.29,-2.99 c0,-0.41,1.49,-0.75,4.07,-0.91 c-0.5,-5.81,-2.16,-17.35,-5.23,-21.83 c-4.07,9.13,-5.89,10.87,-9.63,22.58 c2.41,0.91,3.4,1.49,3.4,1.91 c0,0.41,-0.91,0.5,-2.16,0.5 c-3.98,0,-12.53,-1.91,-12.53,-3.4 c0,-0.5,1.49,-1.0,5.15,-1.25 c4.56,-11.37,8.38,-21.75,12.28,-25.81 Z M345.49,81.58" fill="rgb(0,0,0)" transform="matrix(1,0,0,-1,0,200)"/>
</svg>