<?xml version="1.0" encoding="UTF-8"?>
<svg height="200" version="1.1" width="500" xmlns="http://www.w3.org/2000/svg" xmlns:xlink="http://www.w3.org/1999/xlink">
 <path d="M0,0 l500,0 l0,200 l-500,0 Z M0,0" fill="rgb(255,255,255)" transform="matrix(1,0,0,-1,0,200)"/>
 <path d="M181.94,111.63 c3.73,0,7.88,-7.14,8.8,-7.14 c0.58,0,1.66,2.99,1.66,4.23 c0,3.24,-4.48,5.06,-8.96,5.06 c-5.31,0,-10.29,-3.07,-10.29,-9.05 c0,-10.54,14.86,-11.87,14.86,-17.76 c0,-2.08,-3.32,-4.15,-6.39,-4.15 c-1.58,0,-3.32,0.75,-4.07,1.99 c-1.49,2.49,-4.81,1.74,-6.39,6.06 c-0.33,1.0,-0.66,2.49,-1.0,2.49 c-0.58,0,-0.75,-1.83,-0.75,-2.66 c0,-3.57,3.32,-11.79,11.12,-11.79 c5.64,0,11.87,4.81,11.87,11.45 c0,9.13,-15.02,10.29,-15.02,16.43 c0,1.83,2.66,4.81,4.56,4.81 Z M224.27,102.83 c0,9.05,-6.06,10.62,-10.46,10.62 c-7.72,0,-15.11,-7.3,-15.11,-18.92 c0,-7.8,6.14,-15.19,16.35,-15.19 c6.31,0,12.78,2.99,12.78,8.22 c0,2.49,-1.33,6.64,-1.91,6.64 c-0.75,0,-0.58,-5.48,-1.91,-7.3 c-1.66,-2.32,-3.65,-1.99,-5.23,-3.98 c-0.5,-0.58,-1.08,-0.91,-1.91,-0.91 c-4.48,0,-12.45,7.22,-12.45,17.76 c0,0.33,19.26,1.91,19.84,3.07 Z M204.85,102.16 c-0.17,0.58,-0.25,1.16,-0.25,1.58 c0,4.4,4.65,5.48,5.48,5.48 c3.15,0,7.97,-3.82,7.97,-4.9 c0,-0.17,-0.08,-0.25,-0.33,-0.25 Z M237.38,83.99 c-3.24,-0.91,-4.48,-1.66,-4.48,-2.32 c0,-0.83,3.49,-1.16,6.72,-1.16 c2.9,0,6.72,0.25,6.72,1.08 c0,0.58,-1.16,0.83,-4.15,1.41 c-0.41,1.91,-0.66,4.15,-0.66,6.39 c0,5.06,0.91,10.21,1.49,12.53 c1.08,4.32,4.15,5.73,6.81,5.73 c2.49,0,5.23,-1.74,6.39,-3.32 c4.15,-5.48,1.25,-10.04,3.57,-20.92 c-3.74,-0.5,-4.32,-1.08,-4.32,-1.41 c0,-0.83,4.9,-1.49,8.72,-1.49 c1.99,0,4.23,0.17,4.23,0.83 c0,0.58,-1.08,1.16,-3.82,2.16 c-0.83,8.96,-0.08,16.43,-1.49,21.75 c-1.83,7.06,-8.22,8.55,-10.71,8.55 c-4.15,0,-7.97,-6.47,-8.72,-6.47 c-0.17,0,-0.17,0.25,-0.17,0.75 c0,1.66,0.58,5.23,0.58,8.05 c-0.17,0.17,-0.25,0.17,-0.58,0.17 c-2.57,-3.24,-9.54,-7.72,-12.45,-10.54 c0,-0.5,0.08,-0.58,0.41,-0.58 c0.41,0,1.49,0.75,3.15,0.75 c1.74,0,2.41,-1.24,2.41,-4.23 c0,-1.58,-0.66,-6.23,-0.66,-10.62 c0,-2.57,0.33,-5.23,1.0,-7.05 Z M284.44,111.63 c3.74,0,7.88,-7.14,8.8,-7.14 c0.58,0,1.66,2.99,1.66,4.23 c0,3.24,-4.48,5.06,-8.96,5.06 c-5.31,0,-10.29,-3.07,-10.29,-9.05 c0,-10.54,14.86,-11.87,14.86,-17.76 c0,-2.08,-3.32,-4.15,-6.39,-4.15 c-1.58,0,-3.32,0.75,-4.07,1.99 c-1.49,2.49,-4.81,1.74,-6.39,6.06 c-0.33,1.0,-0.66,2.49,-1.0,2.49 c-0.58,0,-0.75,-1.83,-0.75,-2.66 c0,-3.57,3.32,-11.79,11.12,-11.79 c5.64,0,11.87,4.81,11.87,11.45 c0,9.13,-15.02,10.29,-15.02,16.43 c0,1.83,2.66,4.81,4.56,4.81 Z M326.77,102.83 c0,9.05,-6.06,10.62,-10.46,10.62 c-7.72,0,-15.11,-7.3,-15.11,-18.92 c0,-7.8,6.14,-15.19,16.35,-15.19 c6.31,0,12.78,2.99,12.78,8.22 c0,2.49,-1.33,6.64,-1.91,6.64 c-0.75,0,-0.58,-5.48,-1.91,-7.3 c-1.66,-2.32,-3.65,-1.99,-5.23,-3.98 c-0.5,-0.58,-1.08,-0.91,-1.91,-0.91 c-4.48,0,-12.45,7.22,-12.45,17.76 c0,0.33,19.26,1.91,19.84,3.07 Z M307.35,102.16 c-0.17,0.58,-0.25,1.16,-0.25,1.58 c0,4.4,4.65,5.48,5.48,5.48 c3.15,0,7.97,-3.82,7.97,-4.9 c0,-0.17,-0.08,-0.25,-0.33,-0.25 Z M307.35,102.16" fill="rgb(0,0,0)" transform="matrix(1,0,0,-1,0,200)"/>
</svg>