<?xml version="1.0" encoding="UTF-8"?>
<svg height="200" version="1.1" width="500" xmlns="http://www.w3.org/2000/svg" xmlns:xlink="http://www.w3.org/1999/xlink">
 <path d="M0,0 l500,0 l0,200 l-500,0 Z M0,0" fill="rgb(255,255,255)" transform="matrix(1,0,0,-1,0,200)"/>
 <path d="M131.52,111.63 c3.73,0,7.88,-7.14,8.8,-7.14 c0.58,0,1.66,2.99,1.66,4.23 c0,3.24,-4.48,5.06,-8.96,5.06 c-5.31,0,-10.29,-3.07,-10.29,-9.05 c0,-10.54,14.86,-11.87,14.86,-17.76 c0,-2.08,-3.32,-4.15,-6.39,-4.15 c-1.58,0,-3.32,0.75,-4.07,1.99 c-1.49,2.49,-4.81,1.74,-6.39,6.06 c-0.33,1.0,-0.66,2.49,-1.0,2.49 c-0.58,0,-0.75,-1.83,-0.75,-2.66 c0,-3.57,3.32,-11.79,11.12,-11.79 c5.64,0,11.87,4.81,11.87,11.45 c0,9.13,-15.02,10.29,-15.02,16.43 c0,1.83,2.66,4.81,4.57,4.81 Z M157.99,57.68 c0.08,0.5,0.08,1.16,0.08,1.91 c0,6.72,-1.91,21.99,-1.91,27.22 c0,1.08,0.08,1.74,0.25,1.74 c1.16,0,2.91,-9.38,11.45,-9.38 c6.31,0,14.52,7.05,14.52,18.01 c0,8.55,-5.48,16.27,-16.43,16.27 c-3.98,0,-8.88,-6.97,-9.79,-6.97 c-0.25,0,-0.33,0.25,-0.33,0.66 c0,0.91,0.33,2.57,0.33,4.81 c-0.66,0.66,-1.66,0.91,-2.74,0.91 c-3.07,0,-6.97,-2.57,-6.97,-4.07 c0,-0.17,0.17,-0.17,0.58,-0.17 c0.5,0,1.33,0.08,2.24,0.08 c0.75,0,1.41,0,2.07,-0.25 c-0.08,-2.32,-0.17,-4.56,-0.17,-6.72 c0,-9.88,1.08,-18.09,1.08,-27.56 c0,-7.05,-1.0,-11.2,-3.98,-11.2 c-1.33,0,-2.32,0.91,-2.74,0.91 c-0.08,0,-0.17,-0.17,-0.17,-0.41 c3.9,-5.31,9.96,-5.81,12.62,-5.81 Z M171.77,84.15 c-5.64,0,-14.53,7.97,-14.53,15.77 c0,5.39,3.65,9.13,7.14,9.13 c5.06,0,14.28,-8.63,14.28,-16.19 c0,-5.81,-3.9,-8.72,-6.89,-8.72 Z M214.77,102.83 c0,9.05,-6.06,10.62,-10.46,10.62 c-7.72,0,-15.11,-7.3,-15.11,-18.92 c0,-7.8,6.14,-15.19,16.35,-15.19 c6.31,0,12.78,2.99,12.78,8.22 c0,2.49,-1.33,6.64,-1.91,6.64 c-0.75,0,-0.58,-5.48,-1.91,-7.3 c-1.66,-2.32,-3.65,-1.99,-5.23,-3.98 c-0.5,-0.58,-1.08,-0.91,-1.91,-0.91 c-4.48,0,-12.45,7.22,-12.45,17.76 c0,0.33,19.26,1.91,19.84,3.07 Z M195.34,102.16 c-0.17,0.58,-0.25,1.16,-0.25,1.58 c0,4.4,4.65,5.48,5.48,5.48 c3.15,0,7.97,-3.82,7.97,-4.9 c0,-0.17,-0.08,-0.25,-0.33,-0.25 Z M230.95,100.75 c-0.83,1.49,-1.33,2.74,-1.33,3.98 c0,3.82,4.73,6.31,7.8,6.31 c3.74,0,4.73,-4.32,4.73,-6.47 c0,-8.05,-14.19,-10.04,-17.68,-14.36 c-1.16,-1.49,-1.58,-2.82,-1.58,-4.07 c0,-3.15,3.32,-6.81,7.88,-6.81 c4.48,0,11.29,3.49,13.36,6.14 c0.5,-2.08,0.83,-6.89,2.99,-6.89 c3.4,0,6.64,3.9,6.72,5.4 c0,0.25,-0.08,0.33,-0.33,0.33 c-0.5,0,-1.58,-0.42,-3.4,-1.74 c-2.32,6.56,-1.99,14.86,-2.74,21.16 c-0.58,5.4,-1.66,9.71,-8.22,9.71 c-10.29,0,-14.19,-6.97,-14.19,-10.04 c0,-2.08,1.08,-3.65,2.99,-3.65 c0.91,0,1.83,0.33,2.99,1.0 Z M242.65,96.02 c0,-7.89,-1.74,-12.53,-7.14,-12.53 c-3.57,0,-5.15,2.24,-5.15,4.48 c0,3.98,8.8,5.89,11.45,9.46 c0.42,0.5,0.5,1.08,0.58,1.08 c0.25,0,0.25,-0.08,0.25,-2.49 Z M265.89,96.69 c0.91,25.9,3.82,33.78,3.82,43.41 c0,1.66,-0.08,3.4,-0.25,5.31 c-7.8,0,-11.54,-2.66,-13.36,-5.31 c0.33,0,1.0,0.17,2.66,0.17 c3.07,0,4.07,-3.98,4.07,-11.21 c0,-10.21,-1.91,-25.56,-1.91,-39.84 c0,-1.83,0,-3.82,0.08,-5.64 c-4.32,-0.66,-5.98,-1.33,-5.98,-1.83 c0,-0.75,4.98,-1.24,9.55,-1.24 c3.98,0,7.88,0.25,7.88,1.08 c0,0.42,-1.74,1.25,-6.81,2.16 c0,3.57,0.08,6.72,0.17,9.88 c0.08,0.25,1.66,0,3.24,1.0 c1.41,0,5.64,-15.02,15.52,-15.02 c2.49,0,4.07,0.66,4.07,1.41 c0,0.08,-0.08,0.17,-0.17,0.25 c-4.07,0.58,-7.88,6.22,-10.21,9.79 c-2.49,3.9,-4.9,5.56,-4.9,6.23 c7.39,6.14,12.12,15.35,12.12,17.1 c0,0.17,-0.25,0.5,-0.58,0.5 c-3.98,-3.15,-11.7,-1.74,-13.03,-3.82 c0,-0.33,0.17,-0.58,0.33,-0.58 c3.07,0,4.81,-0.58,4.81,-2.49 c0,-5.06,-8.3,-11.29,-11.12,-11.29 Z M299.01,134.7 c-2.57,0,-5.06,-2.07,-5.06,-4.56 c0,-2.41,1.41,-4.73,4.07,-4.73 c1.25,0,5.06,1.58,5.06,4.73 c0,2.07,-1.91,4.56,-4.07,4.56 Z M299.76,99.67 c0,2.74,1.74,12.2,1.74,16.43 c-0.08,0.17,-0.17,0.17,-0.58,0.17 c-2.49,-3.24,-9.55,-7.72,-12.45,-10.54 c0,-0.42,0.25,-0.58,0.42,-0.58 c1.33,0.5,2.32,0.75,3.15,0.75 c1.83,0,2.49,-1.24,2.49,-4.23 c-0.08,-3.49,-0.58,-6.81,-0.58,-10.21 c0,-2.57,0.25,-5.15,1.16,-7.97 c-4.32,-0.58,-5.98,-1.33,-5.98,-1.74 c0,-0.66,4.98,-1.24,9.55,-1.24 c3.98,0,6.06,0.58,6.06,1.16 c0,0.58,-2.24,1.49,-4.98,1.91 c-0.5,2.24,-0.58,4.4,-0.58,6.31 c0,3.9,0.58,7.22,0.58,9.79 Z M312.71,83.99 c-3.24,-0.91,-4.48,-1.66,-4.48,-2.32 c0,-0.83,3.49,-1.16,6.72,-1.16 c2.91,0,6.72,0.25,6.72,1.08 c0,0.58,-1.16,0.83,-4.15,1.41 c-0.42,1.91,-0.66,4.15,-0.66,6.39 c0,5.06,0.91,10.21,1.49,12.53 c1.08,4.32,4.15,5.73,6.81,5.73 c2.49,0,5.23,-1.74,6.39,-3.32 c4.15,-5.48,1.25,-10.04,3.57,-20.92 c-3.74,-0.5,-4.32,-1.08,-4.32,-1.41 c0,-0.83,4.9,-1.49,8.72,-1.49 c1.99,0,4.23,0.17,4.23,0.83 c0,0.58,-1.08,1.16,-3.82,2.16 c-0.83,8.96,-0.08,16.43,-1.49,21.75 c-1.83,7.06,-8.22,8.55,-10.71,8.55 c-4.15,0,-7.97,-6.47,-8.72,-6.47 c-0.17,0,-0.17,0.25,-0.17,0.75 c0,1.66,0.58,5.23,0.58,8.05 c-0.17,0.17,-0.25,0.17,-0.58,0.17 c-2.57,-3.24,-9.55,-7.72,-12.45,-10.54 c0,-0.5,0.08,-0.58,0.42,-0.58 c0.41,0,1.49,0.75,3.15,0.75 c1.74,0,2.41,-1.24,2.41,-4.23 c0,-1.58,-0.66,-6.23,-0.66,-10.62 c0,-2.57,0.33,-5.23,1.0,-7.05 Z M359.68,89.05 c0,-2.24,-6.31,-7.05,-9.71,-8.55 c2.57,-5.06,9.71,-3.73,9.71,-5.73 c-1.91,-1.99,-12.03,-6.31,-12.03,-9.38 c0,-2.82,8.55,-8.63,15.27,-8.63 c8.05,0,15.6,7.3,15.6,8.71 c0,3.9,-7.72,11.37,-19.67,16.85 c6.23,6.23,12.7,8.72,16.19,15.52 c0.42,-0.17,0.75,-0.25,1.16,-0.25 c2.82,0,6.23,4.4,6.23,9.3 c0,1.91,-1.33,5.64,-2.41,5.64 c-0.33,0,-0.33,-0.41,-0.33,-1.0 c0,-0.5,0,-1.16,-0.17,-1.83 c-0.91,-2.99,-1.25,-7.39,-3.49,-7.39 c-4.07,0,-3.24,11.29,-11.29,11.29 c-4.65,0,-16.6,-9.05,-16.6,-13.03 c0,-5.56,8.55,-11.54,11.54,-11.54 Z M354.37,102.41 c0,2.74,2.41,5.56,6.72,5.56 c5.98,0,9.21,-5.73,9.21,-10.13 c0,-3.57,-1.58,-5.39,-4.65,-5.39 c-4.98,0,-11.29,5.98,-11.29,9.96 Z M363.42,73.36 c3.15,0,1.99,-2.74,6.31,-6.06 c0.66,-0.5,0.91,-0.91,0.91,-1.49 c0,-3.9,-5.15,-6.06,-8.96,-6.06 c-2.74,0,-5.48,1.91,-5.48,4.23 c0,4.23,4.73,9.38,7.22,9.38 Z M363.42,73.36" fill="rgb(0,0,0)" transform="matrix(1,0,0,-1,0,200)"/>
</svg>