<?xml version="1.0" encoding="UTF-8"?>
<svg height="200" version="1.1" width="500" xmlns="http://www.w3.org/2000/svg" xmlns:xlink="http://www.w3.org/1999/xlink">
 <path d="M0,0 l500,0 l0,200 l-500,0 Z M0,0" fill="rgb(255,255,255)" transform="matrix(1,0,0,-1,0,200)"/>
 <path d="M150.98,111.63 c3.73,0,7.88,-7.14,8.8,-7.14 c0.58,0,1.66,2.99,1.66,4.23 c0,3.24,-4.48,5.06,-8.96,5.06 c-5.31,0,-10.29,-3.07,-10.29,-9.05 c0,-10.54,14.86,-11.87,14.86,-17.76 c0,-2.08,-3.32,-4.15,-6.39,-4.15 c-1.58,0,-3.32,0.75,-4.07,1.99 c-1.49,2.49,-4.81,1.74,-6.39,6.06 c-0.33,1.0,-0.66,2.49,-1.0,2.49 c-0.58,0,-0.75,-1.83,-0.75,-2.66 c0,-3.57,3.32,-11.79,11.12,-11.79 c5.64,0,11.87,4.81,11.87,11.45 c0,9.13,-15.02,10.29,-15.02,16.43 c0,1.83,2.66,4.81,4.56,4.81 Z M197.46,84.65 c0.66,2.49,0.91,6.39,0.91,10.71 c0,5.89,-0.41,12.7,-0.75,18.43 c-3.24,-1.33,-11.79,-3.4,-11.79,-4.56 c0,-1.16,2.41,-1.58,6.31,-1.58 c0.33,-2.08,0.58,-4.48,0.58,-6.89 c0,-11.87,-2.91,-15.85,-7.06,-15.85 c-4.15,0,-8.8,3.82,-8.8,11.62 c0,13.11,-0.58,15.94,-1.0,17.18 c-8.47,-2.74,-11.54,-4.9,-11.54,-6.06 c0,-0.33,0.5,-0.66,2.07,-0.66 c0.91,0,2.41,0.08,4.56,0.42 c0.33,-4.98,0.33,-10.54,0.33,-14.11 c0,-12.62,9.13,-14.36,11.45,-14.36 c4.98,0,8.63,6.56,9.13,6.56 c0.33,0,0.41,-0.25,0.41,-0.66 c0,-0.75,-0.33,-2.24,-0.33,-3.73 c0,-0.75,0,-1.33,0.25,-1.99 c3.32,0.58,10.29,4.98,10.29,6.06 c0,0.33,-0.25,0.5,-0.58,0.5 c-1.0,0,-3.57,-1.0,-4.48,-1.0 Z M228.09,82.99 c-0.41,-0.66,-1.16,-1.0,-2.07,-1.0 c-5.73,0,-12.53,9.05,-12.53,18.43 c0,8.38,6.81,9.05,10.29,9.05 c5.64,0,4.65,-8.13,6.81,-8.13 c1.66,0,4.73,4.23,4.73,6.56 c0,3.15,-3.24,5.56,-8.22,5.56 c-12.53,0,-19.17,-8.55,-19.17,-17.35 c0,-9.79,4.98,-16.77,16.1,-16.77 c6.31,0,12.87,2.99,12.87,8.22 c0,2.49,-1.41,6.64,-1.83,6.64 c-0.91,0,-0.5,-5.15,-1.99,-7.3 c-1.58,-2.32,-3.65,-2.07,-4.98,-3.9 Z M262.45,82.99 c-0.42,-0.66,-1.16,-1.0,-2.07,-1.0 c-5.73,0,-12.53,9.05,-12.53,18.43 c0,8.38,6.81,9.05,10.29,9.05 c5.64,0,4.65,-8.13,6.81,-8.13 c1.66,0,4.73,4.23,4.73,6.56 c0,3.15,-3.24,5.56,-8.22,5.56 c-12.53,0,-19.17,-8.55,-19.17,-17.35 c0,-9.79,4.98,-16.77,16.1,-16.77 c6.31,0,12.87,2.99,12.87,8.22 c0,2.49,-1.41,6.64,-1.83,6.64 c-0.91,0,-0.5,-5.15,-1.99,-7.3 c-1.58,-2.32,-3.65,-2.07,-4.98,-3.9 Z M302.12,102.83 c0,9.05,-6.06,10.62,-10.46,10.62 c-7.72,0,-15.11,-7.3,-15.11,-18.92 c0,-7.8,6.14,-15.19,16.35,-15.19 c6.31,0,12.78,2.99,12.78,8.22 c0,2.49,-1.33,6.64,-1.91,6.64 c-0.75,0,-0.58,-5.48,-1.91,-7.3 c-1.66,-2.32,-3.65,-1.99,-5.23,-3.98 c-0.5,-0.58,-1.08,-0.91,-1.91,-0.91 c-4.48,0,-12.45,7.22,-12.45,17.76 c0,0.33,19.26,1.91,19.84,3.07 Z M282.7,102.16 c-0.17,0.58,-0.25,1.16,-0.25,1.58 c0,4.4,4.65,5.48,5.48,5.48 c3.15,0,7.97,-3.82,7.97,-4.9 c0,-0.17,-0.08,-0.25,-0.33,-0.25 Z M322.29,111.63 c3.74,0,7.88,-7.14,8.8,-7.14 c0.58,0,1.66,2.99,1.66,4.23 c0,3.24,-4.48,5.06,-8.96,5.06 c-5.31,0,-10.29,-3.07,-10.29,-9.05 c0,-10.54,14.86,-11.87,14.86,-17.76 c0,-2.08,-3.32,-4.15,-6.39,-4.15 c-1.58,0,-3.32,0.75,-4.07,1.99 c-1.49,2.49,-4.81,1.74,-6.39,6.06 c-0.33,1.0,-0.66,2.49,-1.0,2.49 c-0.58,0,-0.75,-1.83,-0.75,-2.66 c0,-3.57,3.32,-11.79,11.12,-11.79 c5.64,0,11.87,4.81,11.87,11.45 c0,9.13,-15.02,10.29,-15.02,16.43 c0,1.83,2.66,4.81,4.56,4.81 Z M350.1,111.63 c3.74,0,7.88,-7.14,8.8,-7.14 c0.58,0,1.66,2.99,1.66,4.23 c0,3.24,-4.48,5.06,-8.96,5.06 c-5.31,0,-10.29,-3.07,-10.29,-9.05 c0,-10.54,14.86,-11.87,14.86,-17.76 c0,-2.08,-3.32,-4.15,-6.39,-4.15 c-1.58,0,-3.32,0.75,-4.07,1.99 c-1.49,2.49,-4.81,1.74,-6.39,6.06 c-0.33,1.0,-0.66,2.49,-1.0,2.49 c-0.58,0,-0.75,-1.83,-0.75,-2.66 c0,-3.57,3.32,-11.79,11.12,-11.79 c5.64,0,11.87,4.81,11.87,11.45 c0,9.13,-15.02,10.29,-15.02,16.43 c0,1.83,2.66,4.81,4.56,4.81 Z M350.1,111.63" fill="rgb(0,0,0)" transform="matrix(1,0,0,-1,0,200)"/>
</svg>