<?xml version="1.0" encoding="UTF-8"?>
<svg height="200" version="1.1" width="500" xmlns="http://www.w3.org/2000/svg" xmlns:xlink="http://www.w3.org/1999/xlink">
 <path d="M0,0 l500,0 l0,200 l-500,0 Z M0,0" fill="rgb(255,255,255)" transform="matrix(1,0,0,-1,0,200)"/>
 <path d="M165.3,111.63 c3.73,0,7.88,-7.14,8.8,-7.14 c0.58,0,1.66,2.99,1.66,4.23 c0,3.24,-4.48,5.06,-8.96,5.06 c-5.31,0,-10.29,-3.07,-10.29,-9.05 c0,-10.54,14.86,-11.87,14.86,-17.76 c0,-2.08,-3.32,-4.15,-6.39,-4.15 c-1.58,0,-3.32,0.75,-4.07,1.99 c-1.49,2.49,-4.81,1.74,-6.39,6.06 c-0.33,1.0,-0.66,2.49,-1.0,2.49 c-0.58,0,-0.75,-1.83,-0.75,-2.66 c0,-3.57,3.32,-11.79,11.12,-11.79 c5.64,0,11.87,4.81,11.87,11.45 c0,9.13,-15.02,10.29,-15.02,16.43 c0,1.83,2.66,4.81,4.56,4.81 Z M211.78,84.65 c0.66,2.49,0.91,6.39,0.91,10.71 c0,5.89,-0.41,12.7,-0.75,18.43 c-3.24,-1.33,-11.79,-3.4,-11.79,-4.56 c0,-1.16,2.41,-1.58,6.31,-1.58 c0.33,-2.08,0.58,-4.48,0.58,-6.89 c0,-11.87,-2.91,-15.85,-7.06,-15.85 c-4.15,0,-8.8,3.82,-8.8,11.62 c0,13.11,-0.58,15.94,-1.0,17.18 c-8.47,-2.74,-11.54,-4.9,-11.54,-6.06 c0,-0.33,0.5,-0.66,2.07,-0.66 c0.91,0,2.41,0.08,4.56,0.42 c0.33,-4.98,0.33,-10.54,0.33,-14.11 c0,-12.62,9.13,-14.36,11.45,-14.36 c4.98,0,8.63,6.56,9.13,6.56 c0.33,0,0.41,-0.25,0.41,-0.66 c0,-0.75,-0.33,-2.24,-0.33,-3.73 c0,-0.75,0,-1.33,0.25,-1.99 c3.32,0.58,10.29,4.98,10.29,6.06 c0,0.33,-0.25,0.5,-0.58,0.5 c-1.0,0,-3.57,-1.0,-4.48,-1.0 Z M231.86,57.68 c0.08,0.5,0.08,1.16,0.08,1.91 c0,6.72,-1.91,21.99,-1.91,27.22 c0,1.08,0.08,1.74,0.25,1.74 c1.16,0,2.91,-9.38,11.45,-9.38 c6.31,0,14.53,7.05,14.53,18.01 c0,8.55,-5.48,16.27,-16.43,16.27 c-3.98,0,-8.88,-6.97,-9.79,-6.97 c-0.25,0,-0.33,0.25,-0.33,0.66 c0,0.91,0.33,2.57,0.33,4.81 c-0.66,0.66,-1.66,0.91,-2.74,0.91 c-3.07,0,-6.97,-2.57,-6.97,-4.07 c0,-0.17,0.17,-0.17,0.58,-0.17 c0.5,0,1.33,0.08,2.24,0.08 c0.75,0,1.41,0,2.07,-0.25 c-0.08,-2.32,-0.17,-4.56,-0.17,-6.72 c0,-9.88,1.08,-18.09,1.08,-27.56 c0,-7.05,-1.0,-11.2,-3.98,-11.2 c-1.33,0,-2.32,0.91,-2.74,0.91 c-0.08,0,-0.17,-0.17,-0.17,-0.41 c3.9,-5.31,9.96,-5.81,12.62,-5.81 Z M245.64,84.15 c-5.64,0,-14.53,7.97,-14.53,15.77 c0,5.39,3.65,9.13,7.14,9.13 c5.06,0,14.28,-8.63,14.28,-16.19 c0,-5.81,-3.9,-8.72,-6.89,-8.72 Z M272.78,57.68 c0.08,0.5,0.08,1.16,0.08,1.91 c0,6.72,-1.91,21.99,-1.91,27.22 c0,1.08,0.08,1.74,0.25,1.74 c1.16,0,2.91,-9.38,11.45,-9.38 c6.31,0,14.53,7.05,14.53,18.01 c0,8.55,-5.48,16.27,-16.43,16.27 c-3.98,0,-8.88,-6.97,-9.79,-6.97 c-0.25,0,-0.33,0.25,-0.33,0.66 c0,0.91,0.33,2.57,0.33,4.81 c-0.66,0.66,-1.66,0.91,-2.74,0.91 c-3.07,0,-6.97,-2.57,-6.97,-4.07 c0,-0.17,0.17,-0.17,0.58,-0.17 c0.5,0,1.33,0.08,2.24,0.08 c0.75,0,1.41,0,2.07,-0.25 c-0.08,-2.32,-0.17,-4.56,-0.17,-6.72 c0,-9.88,1.08,-18.09,1.08,-27.56 c0,-7.05,-1.0,-11.2,-3.98,-11.2 c-1.33,0,-2.32,0.91,-2.74,0.91 c-0.08,0,-0.17,-0.17,-0.17,-0.41 c3.9,-5.31,9.96,-5.81,12.62,-5.81 Z M286.56,84.15 c-5.64,0,-14.52,7.97,-14.52,15.77 c0,5.39,3.65,9.13,7.14,9.13 c5.06,0,14.28,-8.63,14.28,-16.19 c0,-5.81,-3.9,-8.72,-6.89,-8.72 Z M306.73,83.57 c-4.32,-0.66,-5.98,-1.33,-5.98,-1.83 c0,-0.75,4.98,-1.24,9.55,-1.24 c3.98,0,7.88,0.25,7.88,1.08 c0,0.42,-1.74,1.25,-6.81,2.16 c0.41,35.19,4.07,47.73,4.07,56.11 c0,1.74,-0.08,3.57,-0.25,5.56 c-7.3,0,-11.29,-2.49,-13.36,-5.31 c0,-0.42,0.08,-0.5,0.25,-0.5 c0.33,0,1.16,0.66,2.41,0.66 c3.07,0,4.07,-3.98,4.07,-11.21 c0,-6.31,-1.91,-29.63,-1.91,-40.17 c0,-1.74,0,-3.57,0.08,-5.31 Z M333.95,81.58 c-1.58,-4.56,-6.56,-20.67,-9.71,-20.67 c-2.66,0,-4.48,7.39,-5.06,7.39 c-1.0,0,-2.24,-2.41,-2.24,-4.15 c0,-5.15,3.98,-7.47,5.23,-7.47 c8.55,0,24.24,41.75,25.81,52.54 c2.41,1.33,3.4,2.24,3.4,2.82 c0,0.58,-1.08,0.75,-2.49,0.75 c-3.82,0,-10.29,-1.66,-10.29,-2.99 c0,-0.41,1.49,-0.75,4.07,-0.91 c-0.5,-5.81,-2.16,-17.35,-5.23,-21.83 c-4.07,9.13,-5.89,10.87,-9.63,22.58 c2.41,0.91,3.4,1.49,3.4,1.91 c0,0.41,-0.91,0.5,-2.16,0.5 c-3.98,0,-12.53,-1.91,-12.53,-3.4 c0,-0.5,1.49,-1.0,5.15,-1.25 c4.56,-11.37,8.38,-21.75,12.28,-25.81 Z M333.95,81.58" fill="rgb(0,0,0)" transform="matrix(1,0,0,-1,0,200)"/>
</svg>