<?xml version="1.0" encoding="UTF-8"?>
<svg height="200" version="1.1" width="500" xmlns="http://www.w3.org/2000/svg" xmlns:xlink="http://www.w3.org/1999/xlink">
 <path d="M0,0 l500,0 l0,200 l-500,0 Z M0,0" fill="rgb(255,255,255)" transform="matrix(1,0,0,-1,0,200)"/>
 <path d="M178.29,111.29 c0,0.25,-0.58,0.33,-1.49,0.33 c-0.75,0,-1.83,-0.08,-2.74,-0.08 c-1.0,0,-1.91,0.08,-2.49,0.41 c-0.5,1.33,-0.66,2.82,-0.66,4.32 c0,3.65,1.0,7.64,1.0,11.12 c0,1.74,-0.25,4.48,-1.58,7.14 c-0.17,0,-0.42,-0.17,-0.42,-0.58 c0,-6.89,-1.49,-6.23,-2.82,-13.11 c-0.83,-4.65,-3.98,-7.22,-7.22,-12.53 c0,-0.41,0.33,-0.66,1.08,-0.66 c1.16,0,2.91,0.41,4.23,0.41 c0.5,0,0.91,0,1.16,-0.17 c-0.25,-5.89,-0.58,-12.53,-0.58,-18.59 c0,-1.99,0,-3.9,0.08,-5.73 c-4.23,-0.66,-5.89,-1.33,-5.89,-1.83 c0,-0.75,4.98,-1.24,9.54,-1.24 c3.98,0,7.8,0.25,7.8,1.08 c0,0.42,-1.66,1.25,-6.81,2.16 c0.17,10.46,0.41,14.77,0.5,21.58 c0,0.42,2.24,1.08,3.15,1.08 c1.08,0,1.08,-5.31,1.49,-5.31 c1.0,0,2.66,7.55,2.66,10.21 Z M199.78,113.45 c-9.05,0,-16.43,-7.64,-16.43,-17.02 c0,-9.46,6.97,-17.1,16.43,-17.1 c11.21,0,16.35,7.64,16.35,17.1 c0,9.96,-7.39,17.02,-16.35,17.02 Z M196.46,109.72 c6.56,0,14.44,-7.8,14.44,-16.6 c0,-7.47,-3.32,-10.54,-7.72,-10.54 c-7.14,0,-14.11,8.8,-14.11,18.51 c0,5.23,2.82,8.63,7.39,8.63 Z M238.96,111.29 c0,0.25,-0.58,0.33,-1.49,0.33 c-0.75,0,-1.83,-0.08,-2.74,-0.08 c-1.0,0,-1.91,0.08,-2.49,0.41 c-0.5,1.33,-0.66,2.82,-0.66,4.32 c0,3.65,1.0,7.64,1.0,11.12 c0,1.74,-0.25,4.48,-1.58,7.14 c-0.17,0,-0.42,-0.17,-0.42,-0.58 c0,-6.89,-1.49,-6.23,-2.82,-13.11 c-0.83,-4.65,-3.98,-7.22,-7.22,-12.53 c0,-0.41,0.33,-0.66,1.08,-0.66 c1.16,0,2.91,0.41,4.23,0.41 c0.5,0,0.91,0,1.16,-0.17 c-0.25,-5.89,-0.58,-12.53,-0.58,-18.59 c0,-1.99,0,-3.9,0.08,-5.73 c-4.23,-0.66,-5.89,-1.33,-5.89,-1.83 c0,-0.75,4.98,-1.24,9.54,-1.24 c3.98,0,7.8,0.25,7.8,1.08 c0,0.42,-1.66,1.25,-6.81,2.16 c0.17,10.46,0.41,14.77,0.5,21.58 c0,0.42,2.24,1.08,3.15,1.08 c1.08,0,1.08,-5.31,1.49,-5.31 c1.0,0,2.66,7.55,2.66,10.21 Z M251.08,100.75 c-0.83,1.49,-1.33,2.74,-1.33,3.98 c0,3.82,4.73,6.31,7.8,6.31 c3.74,0,4.73,-4.32,4.73,-6.47 c0,-8.05,-14.19,-10.04,-17.68,-14.36 c-1.16,-1.49,-1.58,-2.82,-1.58,-4.07 c0,-3.15,3.32,-6.81,7.88,-6.81 c4.48,0,11.29,3.49,13.36,6.14 c0.5,-2.08,0.83,-6.89,2.99,-6.89 c3.4,0,6.64,3.9,6.72,5.4 c0,0.25,-0.08,0.33,-0.33,0.33 c-0.5,0,-1.58,-0.42,-3.4,-1.74 c-2.32,6.56,-1.99,14.86,-2.74,21.16 c-0.58,5.4,-1.66,9.71,-8.22,9.71 c-10.29,0,-14.19,-6.97,-14.19,-10.04 c0,-2.08,1.08,-3.65,2.99,-3.65 c0.91,0,1.83,0.33,2.99,1.0 Z M262.78,96.02 c0,-7.89,-1.74,-12.53,-7.14,-12.53 c-3.57,0,-5.15,2.24,-5.15,4.48 c0,3.98,8.8,5.89,11.45,9.46 c0.41,0.5,0.5,1.08,0.58,1.08 c0.25,0,0.25,-0.08,0.25,-2.49 Z M281.12,83.57 c-4.32,-0.66,-5.98,-1.33,-5.98,-1.83 c0,-0.75,4.98,-1.24,9.55,-1.24 c3.98,0,7.88,0.25,7.88,1.08 c0,0.42,-1.74,1.25,-6.81,2.16 c0.41,35.19,4.07,47.73,4.07,56.11 c0,1.74,-0.08,3.57,-0.25,5.56 c-7.3,0,-11.29,-2.49,-13.36,-5.31 c0,-0.42,0.08,-0.5,0.25,-0.5 c0.33,0,1.16,0.66,2.41,0.66 c3.07,0,4.07,-3.98,4.07,-11.21 c0,-6.31,-1.91,-29.63,-1.91,-40.17 c0,-1.74,0,-3.57,0.08,-5.31 Z M298.72,83.57 c-4.32,-0.66,-5.98,-1.33,-5.98,-1.83 c0,-0.75,4.98,-1.24,9.55,-1.24 c3.98,0,7.88,0.25,7.88,1.08 c0,0.42,-1.74,1.25,-6.81,2.16 c0.41,35.19,4.07,47.73,4.07,56.11 c0,1.74,-0.08,3.57,-0.25,5.56 c-7.3,0,-11.29,-2.49,-13.36,-5.31 c0,-0.42,0.08,-0.5,0.25,-0.5 c0.33,0,1.16,0.66,2.41,0.66 c3.07,0,4.07,-3.98,4.07,-11.21 c0,-6.31,-1.91,-29.63,-1.91,-40.17 c0,-1.74,0,-3.57,0.08,-5.31 Z M325.94,81.58 c-1.58,-4.56,-6.56,-20.67,-9.71,-20.67 c-2.66,0,-4.48,7.39,-5.06,7.39 c-1.0,0,-2.24,-2.41,-2.24,-4.15 c0,-5.15,3.98,-7.47,5.23,-7.47 c8.55,0,24.24,41.75,25.81,52.54 c2.41,1.33,3.4,2.24,3.4,2.82 c0,0.58,-1.08,0.75,-2.49,0.75 c-3.82,0,-10.29,-1.66,-10.29,-2.99 c0,-0.41,1.49,-0.75,4.07,-0.91 c-0.5,-5.81,-2.16,-17.35,-5.23,-21.83 c-4.07,9.13,-5.89,10.87,-9.63,22.58 c2.41,0.91,3.4,1.49,3.4,1.91 c0,0.41,-0.91,0.5,-2.16,0.5 c-3.98,0,-12.53,-1.91,-12.53,-3.4 c0,-0.5,1.49,-1.0,5.15,-1.25 c4.56,-11.37,8.38,-21.75,12.28,-25.81 Z M325.94,81.58" fill="rgb(0,0,0)" transform="matrix(1,0,0,-1,0,200)"/>
</svg>