<?xml version="1.0" encoding="UTF-8"?>
<svg height="200" version="1.1" width="500" xmlns="http://www.w3.org/2000/svg" xmlns:xlink="http://www.w3.org/1999/xlink">
 <path d="M0,0 l500,0 l0,200 l-500,0 Z M0,0" fill="rgb(255,255,255)" transform="matrix(1,0,0,-1,0,200)"/>
 <path d="M201.28,111.29 c0,0.25,-0.58,0.33,-1.49,0.33 c-0.75,0,-1.83,-0.08,-2.74,-0.08 c-1.0,0,-1.91,0.08,-2.49,0.41 c-0.5,1.33,-0.66,2.82,-0.66,4.32 c0,3.65,1.0,7.64,1.0,11.12 c0,1.74,-0.25,4.48,-1.58,7.14 c-0.17,0,-0.42,-0.17,-0.42,-0.58 c0,-6.89,-1.49,-6.23,-2.82,-13.11 c-0.83,-4.65,-3.98,-7.22,-7.22,-12.53 c0,-0.41,0.33,-0.66,1.08,-0.66 c1.16,0,2.91,0.41,4.23,0.41 c0.5,0,0.91,0,1.16,-0.17 c-0.25,-5.89,-0.58,-12.53,-0.58,-18.59 c0,-1.99,0,-3.9,0.08,-5.73 c-4.23,-0.66,-5.89,-1.33,-5.89,-1.83 c0,-0.75,4.98,-1.24,9.54,-1.24 c3.98,0,7.8,0.25,7.8,1.08 c0,0.42,-1.66,1.25,-6.81,2.16 c0.17,10.46,0.41,14.77,0.5,21.58 c0,0.42,2.24,1.08,3.15,1.08 c1.08,0,1.08,-5.31,1.49,-5.31 c1.0,0,2.66,7.55,2.66,10.21 Z M224.02,107.39 c0,-1.16,0.66,-2.08,0.66,-3.32 c0,-1.08,-0.83,-2.49,-0.83,-3.24 c0,-0.25,0.17,-0.41,0.58,-0.41 c1.74,0,4.73,4.65,4.73,8.63 c0,2.82,-2.16,5.39,-4.48,5.39 c-3.49,0,-8.13,-7.3,-8.63,-7.3 c-0.17,0,-0.33,0.25,-0.33,0.75 c0,1.49,1.49,5.81,1.49,8.22 c0,0.08,-0.08,0.42,-0.33,0.42 c-0.08,0,-0.17,-0.08,-0.25,-0.25 c-2.49,-3.24,-9.79,-7.97,-12.7,-10.71 c0,-0.33,0.08,-0.42,0.33,-0.42 c0.75,0,2.07,0.75,3.49,0.75 c1.83,0,2.49,-1.24,2.49,-4.23 c0,-1.41,-0.5,-5.06,-0.5,-9.38 c0,-2.91,0.17,-6.06,1.08,-8.8 c-4.32,-0.58,-5.98,-1.33,-5.98,-1.74 c0,-0.66,4.98,-1.24,9.55,-1.24 c3.98,0,6.06,0.5,6.06,1.16 c0,0.58,-2.24,1.49,-4.98,1.91 c-0.5,2.32,-0.66,4.48,-0.66,6.39 c0,3.9,0.66,7.14,0.66,9.71 c0,5.39,5.81,10.04,7.3,10.04 c1.16,0,1.25,-1.25,1.25,-2.32 Z M262.28,84.65 c0.66,2.49,0.91,6.39,0.91,10.71 c0,5.89,-0.42,12.7,-0.75,18.43 c-3.24,-1.33,-11.79,-3.4,-11.79,-4.56 c0,-1.16,2.41,-1.58,6.31,-1.58 c0.33,-2.08,0.58,-4.48,0.58,-6.89 c0,-11.87,-2.91,-15.85,-7.06,-15.85 c-4.15,0,-8.8,3.82,-8.8,11.62 c0,13.11,-0.58,15.94,-1.0,17.18 c-8.47,-2.74,-11.54,-4.9,-11.54,-6.06 c0,-0.33,0.5,-0.66,2.07,-0.66 c0.91,0,2.41,0.08,4.57,0.42 c0.33,-4.98,0.33,-10.54,0.33,-14.11 c0,-12.62,9.13,-14.36,11.45,-14.36 c4.98,0,8.63,6.56,9.13,6.56 c0.33,0,0.41,-0.25,0.41,-0.66 c0,-0.75,-0.33,-2.24,-0.33,-3.73 c0,-0.75,0,-1.33,0.25,-1.99 c3.32,0.58,10.29,4.98,10.29,6.06 c0,0.33,-0.25,0.5,-0.58,0.5 c-1.0,0,-3.57,-1.0,-4.48,-1.0 Z M283.7,111.63 c3.74,0,7.88,-7.14,8.8,-7.14 c0.58,0,1.66,2.99,1.66,4.23 c0,3.24,-4.48,5.06,-8.96,5.06 c-5.31,0,-10.29,-3.07,-10.29,-9.05 c0,-10.54,14.86,-11.87,14.86,-17.76 c0,-2.08,-3.32,-4.15,-6.39,-4.15 c-1.58,0,-3.32,0.75,-4.07,1.99 c-1.49,2.49,-4.81,1.74,-6.39,6.06 c-0.33,1.0,-0.66,2.49,-1.0,2.49 c-0.58,0,-0.75,-1.83,-0.75,-2.66 c0,-3.57,3.32,-11.79,11.12,-11.79 c5.64,0,11.87,4.81,11.87,11.45 c0,9.13,-15.02,10.29,-15.02,16.43 c0,1.83,2.66,4.81,4.56,4.81 Z M316.48,111.29 c0,0.25,-0.58,0.33,-1.49,0.33 c-0.75,0,-1.83,-0.08,-2.74,-0.08 c-1.0,0,-1.91,0.08,-2.49,0.41 c-0.5,1.33,-0.66,2.82,-0.66,4.32 c0,3.65,1.0,7.64,1.0,11.12 c0,1.74,-0.25,4.48,-1.58,7.14 c-0.17,0,-0.42,-0.17,-0.42,-0.58 c0,-6.89,-1.49,-6.23,-2.82,-13.11 c-0.83,-4.65,-3.98,-7.22,-7.22,-12.53 c0,-0.41,0.33,-0.66,1.08,-0.66 c1.16,0,2.91,0.41,4.23,0.41 c0.5,0,0.91,0,1.16,-0.17 c-0.25,-5.89,-0.58,-12.53,-0.58,-18.59 c0,-1.99,0,-3.9,0.08,-5.73 c-4.23,-0.66,-5.89,-1.33,-5.89,-1.83 c0,-0.75,4.98,-1.24,9.55,-1.24 c3.98,0,7.8,0.25,7.8,1.08 c0,0.42,-1.66,1.25,-6.81,2.16 c0.17,10.46,0.42,14.77,0.5,21.58 c0,0.42,2.24,1.08,3.15,1.08 c1.08,0,1.08,-5.31,1.49,-5.31 c1.0,0,2.66,7.55,2.66,10.21 Z M316.48,111.29" fill="rgb(0,0,0)" transform="matrix(1,0,0,-1,0,200)"/>
</svg>