<?xml version="1.0" encoding="UTF-8"?>
<svg height="200" version="1.1" width="500" xmlns="http://www.w3.org/2000/svg" xmlns:xlink="http://www.w3.org/1999/xlink">
 <path d="M0,0 l500,0 l0,200 l-500,0 Z M0,0" fill="rgb(255,255,255)" transform="matrix(1,0,0,-1,0,200)"/>
 <path d="M164.76,99.76 c6.56,-13.28,3.4,-10.71,8.13,-20.83 c3.98,0,9.13,13.94,11.95,30.54 c2.41,1.41,3.4,2.24,3.4,2.74 c0,0.5,-0.75,0.66,-1.99,0.66 c-5.15,0,-10.71,-2.32,-10.71,-3.07 c0,-0.58,1.16,-1.0,4.23,-1.08 c0.17,-1.0,0.33,-2.24,0.33,-3.57 c0,-5.98,-1.66,-14.69,-4.23,-18.43 c-2.99,5.98,-8.38,24.57,-11.62,24.57 c0,-4.4,-2.49,-13.03,-2.74,-17.6 c-0.33,-5.15,-1.08,-4.48,-2.57,-6.72 c-5.15,10.46,-5.89,19.26,-6.64,23.82 c2.41,0.91,3.32,1.66,3.32,1.91 c0,0.33,-0.58,0.42,-1.58,0.42 c-7.06,0,-13.11,-2.57,-13.11,-3.32 c0,-0.58,1.49,-1.08,5.15,-1.24 c2.66,-6.56,2.49,-10.62,3.74,-14.28 c1.91,-5.56,4.65,-9.46,7.47,-15.52 c2.32,0,6.81,14.28,7.47,21.0 Z M215.56,102.83 c0,9.05,-6.06,10.62,-10.46,10.62 c-7.72,0,-15.11,-7.3,-15.11,-18.92 c0,-7.8,6.14,-15.19,16.35,-15.19 c6.31,0,12.78,2.99,12.78,8.22 c0,2.49,-1.33,6.64,-1.91,6.64 c-0.75,0,-0.58,-5.48,-1.91,-7.3 c-1.66,-2.32,-3.65,-1.99,-5.23,-3.98 c-0.5,-0.58,-1.08,-0.91,-1.91,-0.91 c-4.48,0,-12.45,7.22,-12.45,17.76 c0,0.33,19.26,1.91,19.84,3.07 Z M196.13,102.16 c-0.17,0.58,-0.25,1.16,-0.25,1.58 c0,4.4,4.65,5.48,5.48,5.48 c3.15,0,7.97,-3.82,7.97,-4.9 c0,-0.17,-0.08,-0.25,-0.33,-0.25 Z M227.42,83.57 c-4.32,-0.66,-5.98,-1.33,-5.98,-1.83 c0,-0.75,4.98,-1.24,9.55,-1.24 c3.98,0,7.88,0.25,7.88,1.08 c0,0.42,-1.74,1.25,-6.81,2.16 c0.42,35.19,4.07,47.73,4.07,56.11 c0,1.74,-0.08,3.57,-0.25,5.56 c-7.3,0,-11.29,-2.49,-13.36,-5.31 c0,-0.42,0.08,-0.5,0.25,-0.5 c0.33,0,1.16,0.66,2.41,0.66 c3.07,0,4.07,-3.98,4.07,-11.21 c0,-6.31,-1.91,-29.63,-1.91,-40.17 c0,-1.74,0,-3.57,0.08,-5.31 Z M241.7,107.89 c0,-0.25,0.08,-0.58,0.58,-0.58 c1.25,0,3.24,0.58,5.98,0.58 c-0.25,-6.14,-0.58,-13.36,-0.58,-19.17 c0,-1.91,0,-3.65,0.17,-5.15 c-4.32,-0.66,-5.98,-1.33,-5.98,-1.83 c0,-0.75,4.98,-1.24,9.55,-1.24 c3.98,0,7.88,0.25,7.88,1.08 c0,0.42,-1.74,1.25,-6.81,2.16 c0.08,10.46,0.33,14.77,0.5,21.58 c0,0.42,1.91,1.08,3.07,1.08 c1.08,0,0.75,-5.15,1.58,-5.15 c0.83,0,2.91,8.22,2.91,9.79 c0,0.33,-0.42,0.42,-1.0,0.42 c-1.08,0,-2.74,-0.33,-3.9,-0.33 c-0.41,0,-0.83,0.17,-0.91,0.33 c-2.49,11.37,-3.65,17.26,-3.65,23.24 c0,4.15,1.33,5.23,2.66,5.23 c1.0,0,1.74,-1.08,2.41,-2.66 c2.16,-4.73,3.74,-5.64,6.31,-5.64 c1.08,0,1.58,0.41,1.58,1.58 c0,2.91,-6.89,8.96,-11.95,8.96 c-3.4,0,-7.06,-2.49,-7.06,-8.05 c0,-5.06,2.57,-11.37,2.57,-17.02 c0,-3.9,-1.33,-7.22,-5.89,-9.21 Z M272.58,100.75 c-0.83,1.49,-1.33,2.74,-1.33,3.98 c0,3.82,4.73,6.31,7.8,6.31 c3.73,0,4.73,-4.32,4.73,-6.47 c0,-8.05,-14.19,-10.04,-17.68,-14.36 c-1.16,-1.49,-1.58,-2.82,-1.58,-4.07 c0,-3.15,3.32,-6.81,7.88,-6.81 c4.48,0,11.29,3.49,13.36,6.14 c0.5,-2.08,0.83,-6.89,2.99,-6.89 c3.4,0,6.64,3.9,6.72,5.4 c0,0.25,-0.08,0.33,-0.33,0.33 c-0.5,0,-1.58,-0.42,-3.4,-1.74 c-2.32,6.56,-1.99,14.86,-2.74,21.16 c-0.58,5.4,-1.66,9.71,-8.22,9.71 c-10.29,0,-14.19,-6.97,-14.19,-10.04 c0,-2.08,1.08,-3.65,2.99,-3.65 c0.91,0,1.83,0.33,2.99,1.0 Z M284.28,96.02 c0,-7.89,-1.74,-12.53,-7.14,-12.53 c-3.57,0,-5.15,2.24,-5.15,4.48 c0,3.98,8.8,5.89,11.45,9.46 c0.41,0.5,0.5,1.08,0.58,1.08 c0.25,0,0.25,-0.08,0.25,-2.49 Z M317.56,107.39 c0,-1.16,0.66,-2.08,0.66,-3.32 c0,-1.08,-0.83,-2.49,-0.83,-3.24 c0,-0.25,0.17,-0.41,0.58,-0.41 c1.74,0,4.73,4.65,4.73,8.63 c0,2.82,-2.16,5.39,-4.48,5.39 c-3.49,0,-8.13,-7.3,-8.63,-7.3 c-0.17,0,-0.33,0.25,-0.33,0.75 c0,1.49,1.49,5.81,1.49,8.22 c0,0.08,-0.08,0.42,-0.33,0.42 c-0.08,0,-0.17,-0.08,-0.25,-0.25 c-2.49,-3.24,-9.79,-7.97,-12.7,-10.71 c0,-0.33,0.08,-0.42,0.33,-0.42 c0.75,0,2.08,0.75,3.49,0.75 c1.83,0,2.49,-1.24,2.49,-4.23 c0,-1.41,-0.5,-5.06,-0.5,-9.38 c0,-2.91,0.17,-6.06,1.08,-8.8 c-4.32,-0.58,-5.98,-1.33,-5.98,-1.74 c0,-0.66,4.98,-1.24,9.55,-1.24 c3.98,0,6.06,0.5,6.06,1.16 c0,0.58,-2.24,1.49,-4.98,1.91 c-0.5,2.32,-0.66,4.48,-0.66,6.39 c0,3.9,0.66,7.14,0.66,9.71 c0,5.39,5.81,10.04,7.3,10.04 c1.16,0,1.25,-1.25,1.25,-2.32 Z M351.67,102.83 c0,9.05,-6.06,10.62,-10.46,10.62 c-7.72,0,-15.11,-7.3,-15.11,-18.92 c0,-7.8,6.14,-15.19,16.35,-15.19 c6.31,0,12.78,2.99,12.78,8.22 c0,2.49,-1.33,6.64,-1.91,6.64 c-0.75,0,-0.58,-5.48,-1.91,-7.3 c-1.66,-2.32,-3.65,-1.99,-5.23,-3.98 c-0.5,-0.58,-1.08,-0.91,-1.91,-0.91 c-4.48,0,-12.45,7.22,-12.45,17.76 c0,0.33,19.26,1.91,19.84,3.07 Z M332.25,102.16 c-0.17,0.58,-0.25,1.16,-0.25,1.58 c0,4.4,4.65,5.48,5.48,5.48 c3.15,0,7.97,-3.82,7.97,-4.9 c0,-0.17,-0.08,-0.25,-0.33,-0.25 Z M332.25,102.16" fill="rgb(0,0,0)" transform="matrix(1,0,0,-1,0,200)"/>
</svg>