<?xml version="1.0" encoding="UTF-8"?>
<svg height="200" version="1.1" width="500" xmlns="http://www.w3.org/2000/svg" xmlns:xlink="http://www.w3.org/1999/xlink">
 <path d="M0,0 l500,0 l0,200 l-500,0 Z M0,0" fill="rgb(255,255,255)" transform="matrix(1,0,0,-1,0,200)"/>
 <path d="M161.96,80 l-5.3,0 l0,46.53 l5.71,0 l0,-16.6 c2.41,3.03,5.49,4.54,9.24,4.54 c2.07,0,4.04,-0.42,5.89,-1.25 c1.85,-0.84,3.37,-2.01,4.57,-3.52 c1.2,-1.51,2.13,-3.34,2.81,-5.47 c0.68,-2.14,1.02,-4.42,1.02,-6.86 c0,-5.78,-1.43,-10.24,-4.28,-13.39 c-2.86,-3.15,-6.28,-4.73,-10.28,-4.73 c-3.98,0,-7.1,1.66,-9.36,4.98 Z M161.89,97.11 c0,-4.04,0.55,-6.96,1.65,-8.76 c1.8,-2.94,4.23,-4.41,7.3,-4.41 c2.5,0,4.65,1.08,6.47,3.25 c1.82,2.17,2.73,5.4,2.73,9.7 c0,4.4,-0.87,7.65,-2.62,9.74 c-1.75,2.09,-3.86,3.14,-6.33,3.14 c-2.5,0,-4.65,-1.08,-6.47,-3.25 c-1.82,-2.17,-2.73,-5.31,-2.73,-9.41 Z M215.91,90.85 l5.9,-0.73 c-0.93,-3.45,-2.66,-6.13,-5.17,-8.03 c-2.52,-1.9,-5.73,-2.86,-9.65,-2.86 c-4.93,0,-8.84,1.52,-11.73,4.55 c-2.89,3.04,-4.33,7.29,-4.33,12.77 c0,5.67,1.46,10.07,4.38,13.2 c2.92,3.13,6.71,4.7,11.36,4.7 c4.51,0,8.19,-1.53,11.04,-4.6 c2.86,-3.07,4.28,-7.38,4.28,-12.95 c0,-0.34,-0.01,-0.85,-0.03,-1.52 l-25.14,0 c0.21,-3.7,1.26,-6.54,3.14,-8.51 c1.88,-1.97,4.23,-2.95,7.05,-2.95 c2.09,0,3.88,0.55,5.36,1.65 c1.48,1.1,2.66,2.86,3.52,5.27 Z M197.16,100.09 l18.82,0 c-0.25,2.84,-0.97,4.96,-2.16,6.38 c-1.82,2.2,-4.18,3.3,-7.08,3.3 c-2.62,0,-4.83,-0.88,-6.62,-2.63 c-1.79,-1.76,-2.78,-4.1,-2.97,-7.05 Z M228.99,80 l0,46.53 l5.71,0 l0,-16.69 c2.67,3.09,6.03,4.63,10.09,4.63 c2.5,0,4.67,-0.49,6.51,-1.48 c1.84,-0.98,3.16,-2.34,3.95,-4.08 c0.79,-1.74,1.19,-4.25,1.19,-7.55 l0,-21.36 l-5.71,0 l0,21.36 c0,2.86,-0.62,4.94,-1.86,6.24 c-1.24,1.3,-2.99,1.95,-5.25,1.95 c-1.69,0,-3.28,-0.44,-4.78,-1.32 c-1.49,-0.88,-2.55,-2.07,-3.19,-3.57 c-0.63,-1.5,-0.95,-3.58,-0.95,-6.22 l0,-18.44 Z M265.17,119.96 l0,6.57 l5.71,0 l0,-6.57 Z M265.17,80 l0,33.71 l5.71,0 l0,-33.71 Z M279.58,80 l0,33.71 l5.14,0 l0,-4.79 c2.48,3.7,6.05,5.55,10.73,5.55 c2.03,0,3.9,-0.36,5.6,-1.09 c1.7,-0.73,2.98,-1.69,3.82,-2.87 c0.85,-1.18,1.44,-2.59,1.78,-4.22 c0.21,-1.06,0.32,-2.91,0.32,-5.55 l0,-20.73 l-5.71,0 l0,20.5 c0,2.33,-0.22,4.07,-0.67,5.22 c-0.44,1.15,-1.23,2.07,-2.36,2.76 c-1.13,0.69,-2.46,1.03,-3.98,1.03 c-2.43,0,-4.53,-0.77,-6.3,-2.32 c-1.77,-1.54,-2.65,-4.48,-2.65,-8.79 l0,-18.41 Z M337.6,80 l0,4.25 c-2.14,-3.34,-5.28,-5.01,-9.43,-5.01 c-2.69,0,-5.16,0.74,-7.41,2.22 c-2.25,1.48,-4.0,3.55,-5.24,6.2 c-1.24,2.66,-1.86,5.71,-1.86,9.16 c0,3.36,0.56,6.42,1.68,9.16 c1.12,2.74,2.8,4.84,5.05,6.3 c2.24,1.46,4.75,2.19,7.52,2.19 c2.03,0,3.84,-0.43,5.43,-1.29 c1.59,-0.86,2.88,-1.97,3.87,-3.35 l0,16.69 l5.68,0 l0,-46.53 Z M319.54,96.82 c0,-4.32,0.91,-7.54,2.73,-9.68 c1.82,-2.14,3.97,-3.21,6.44,-3.21 c2.5,0,4.62,1.02,6.36,3.06 c1.75,2.04,2.62,5.16,2.62,9.35 c0,4.61,-0.89,8.0,-2.67,10.16 c-1.78,2.16,-3.97,3.24,-6.57,3.24 c-2.54,0,-4.66,-1.04,-6.36,-3.11 c-1.7,-2.07,-2.55,-5.34,-2.55,-9.81 Z M319.54,96.82" fill="rgb(0,0,0)" transform="matrix(1,0,0,-1,0,200)"/>
</svg>