<?xml version="1.0" encoding="UTF-8"?>
<svg height="200" version="1.1" width="500" xmlns="http://www.w3.org/2000/svg" xmlns:xlink="http://www.w3.org/1999/xlink">
 <path d="M0,0 l500,0 l0,200 l-500,0 Z M0,0" fill="rgb(255,255,255)" transform="matrix(1,0,0,-1,0,200)"/>
 <path d="M145.49,90.85 l5.9,-0.73 c-0.93,-3.45,-2.66,-6.13,-5.17,-8.03 c-2.52,-1.9,-5.73,-2.86,-9.65,-2.86 c-4.93,0,-8.84,1.52,-11.73,4.55 c-2.89,3.04,-4.33,7.29,-4.33,12.77 c0,5.67,1.46,10.07,4.38,13.2 c2.92,3.13,6.71,4.7,11.36,4.7 c4.51,0,8.19,-1.53,11.04,-4.6 c2.86,-3.07,4.28,-7.38,4.28,-12.95 c0,-0.34,-0.01,-0.85,-0.03,-1.52 l-25.14,0 c0.21,-3.7,1.26,-6.54,3.14,-8.51 c1.88,-1.97,4.23,-2.95,7.05,-2.95 c2.09,0,3.88,0.55,5.36,1.65 c1.48,1.1,2.66,2.86,3.52,5.27 Z M126.73,100.09 l18.82,0 c-0.25,2.84,-0.97,4.96,-2.16,6.38 c-1.82,2.2,-4.18,3.3,-7.08,3.3 c-2.62,0,-4.83,-0.88,-6.62,-2.63 c-1.79,-1.76,-2.78,-4.1,-2.97,-7.05 Z M180.56,92.35 l5.62,-0.73 c-0.61,-3.87,-2.18,-6.9,-4.71,-9.09 c-2.53,-2.19,-5.63,-3.28,-9.32,-3.28 c-4.61,0,-8.32,1.51,-11.12,4.52 c-2.8,3.02,-4.21,7.34,-4.21,12.97 c0,3.64,0.6,6.82,1.81,9.55 c1.21,2.73,3.04,4.78,5.51,6.14 c2.47,1.36,5.15,2.05,8.05,2.05 c3.66,0,6.65,-0.93,8.98,-2.78 c2.33,-1.85,3.82,-4.48,4.48,-7.89 l-5.55,-0.86 c-0.53,2.26,-1.47,3.97,-2.81,5.11 c-1.34,1.14,-2.97,1.71,-4.87,1.71 c-2.88,0,-5.22,-1.03,-7.01,-3.09 c-1.8,-2.06,-2.7,-5.33,-2.7,-9.79 c0,-4.53,0.87,-7.82,2.6,-9.87 c1.74,-2.05,4.0,-3.08,6.79,-3.08 c2.24,0,4.12,0.69,5.62,2.06 c1.5,1.38,2.45,3.49,2.86,6.35 Z M188.94,96.85 c0,6.24,1.74,10.87,5.21,13.87 c2.9,2.5,6.43,3.75,10.6,3.75 c4.63,0,8.42,-1.52,11.36,-4.55 c2.94,-3.04,4.41,-7.23,4.41,-12.58 c0,-4.34,-0.65,-7.75,-1.95,-10.24 c-1.3,-2.49,-3.19,-4.42,-5.68,-5.79 c-2.49,-1.38,-5.2,-2.06,-8.14,-2.06 c-4.72,0,-8.53,1.51,-11.44,4.54 c-2.91,3.03,-4.36,7.38,-4.36,13.08 Z M194.81,96.85 c0,-4.32,0.94,-7.55,2.82,-9.7 c1.88,-2.15,4.25,-3.22,7.11,-3.22 c2.84,0,5.19,1.08,7.08,3.24 c1.88,2.16,2.82,5.45,2.82,9.87 c0,4.17,-0.95,7.33,-2.84,9.47 c-1.89,2.15,-4.25,3.22,-7.06,3.22 c-2.86,0,-5.23,-1.07,-7.11,-3.21 c-1.88,-2.14,-2.82,-5.36,-2.82,-9.68 Z M227.21,80 l0,33.71 l5.14,0 l0,-4.79 c2.48,3.7,6.05,5.55,10.73,5.55 c2.03,0,3.9,-0.36,5.6,-1.09 c1.7,-0.73,2.98,-1.69,3.82,-2.87 c0.85,-1.18,1.44,-2.59,1.78,-4.22 c0.21,-1.06,0.32,-2.91,0.32,-5.55 l0,-20.73 l-5.71,0 l0,20.5 c0,2.33,-0.22,4.07,-0.67,5.22 c-0.44,1.15,-1.23,2.07,-2.36,2.76 c-1.13,0.69,-2.46,1.03,-3.98,1.03 c-2.43,0,-4.53,-0.77,-6.3,-2.32 c-1.77,-1.54,-2.65,-4.48,-2.65,-8.79 l0,-18.41 Z M261.24,96.85 c0,6.24,1.74,10.87,5.21,13.87 c2.9,2.5,6.43,3.75,10.6,3.75 c4.63,0,8.42,-1.52,11.36,-4.55 c2.94,-3.04,4.41,-7.23,4.41,-12.58 c0,-4.34,-0.65,-7.75,-1.95,-10.24 c-1.3,-2.49,-3.19,-4.42,-5.68,-5.79 c-2.49,-1.38,-5.2,-2.06,-8.14,-2.06 c-4.72,0,-8.53,1.51,-11.44,4.54 c-2.91,3.03,-4.36,7.38,-4.36,13.08 Z M267.11,96.85 c0,-4.32,0.94,-7.55,2.82,-9.7 c1.88,-2.15,4.25,-3.22,7.11,-3.22 c2.84,0,5.19,1.08,7.08,3.24 c1.88,2.16,2.82,5.45,2.82,9.87 c0,4.17,-0.95,7.33,-2.84,9.47 c-1.89,2.15,-4.25,3.22,-7.06,3.22 c-2.86,0,-5.23,-1.07,-7.11,-3.21 c-1.88,-2.14,-2.82,-5.36,-2.82,-9.68 Z M299.51,80 l0,33.71 l5.11,0 l0,-4.73 c1.06,1.65,2.46,2.98,4.22,3.98 c1.76,1.01,3.76,1.51,6.0,1.51 c2.5,0,4.54,-0.52,6.14,-1.56 c1.6,-1.04,2.72,-2.49,3.38,-4.35 c2.67,3.94,6.14,5.9,10.41,5.9 c3.34,0,5.91,-0.93,7.71,-2.78 c1.8,-1.85,2.7,-4.7,2.7,-8.55 l0,-23.14 l-5.68,0 l0,21.23 c0,2.29,-0.19,3.93,-0.56,4.94 c-0.37,1.01,-1.04,1.81,-2.02,2.43 c-0.97,0.61,-2.12,0.92,-3.43,0.92 c-2.37,0,-4.34,-0.79,-5.9,-2.36 c-1.57,-1.58,-2.35,-4.1,-2.35,-7.57 l0,-19.58 l-5.71,0 l0,21.9 c0,2.54,-0.47,4.44,-1.4,5.71 c-0.93,1.27,-2.45,1.9,-4.57,1.9 c-1.61,0,-3.09,-0.42,-4.46,-1.27 c-1.36,-0.85,-2.35,-2.08,-2.97,-3.71 c-0.61,-1.63,-0.92,-3.98,-0.92,-7.05 l0,-17.49 Z M353.4,67.02 l-0.63,5.36 c1.25,-0.34,2.34,-0.51,3.27,-0.51 c1.27,0,2.29,0.21,3.05,0.63 c0.76,0.42,1.39,1.02,1.87,1.78 c0.36,0.57,0.94,1.99,1.75,4.25 c0.11,0.32,0.28,0.78,0.51,1.4 l-12.79,33.77 l6.16,0 l7.01,-19.52 c0.91,-2.48,1.72,-5.08,2.44,-7.81 c0.66,2.62,1.44,5.18,2.35,7.68 l7.2,19.65 l5.71,0 l-12.82,-34.28 c-1.38,-3.7,-2.44,-6.25,-3.21,-7.65 c-1.02,-1.88,-2.18,-3.26,-3.49,-4.14 c-1.31,-0.88,-2.88,-1.32,-4.7,-1.32 c-1.1,0,-2.33,0.23,-3.68,0.7 Z M353.4,67.02" fill="rgb(0,0,0)" transform="matrix(1,0,0,-1,0,200)"/>
</svg>