<?xml version="1.0" encoding="UTF-8"?>
<svg height="200" version="1.1" width="500" xmlns="http://www.w3.org/2000/svg" xmlns:xlink="http://www.w3.org/1999/xlink">
 <path d="M0,0 l500,0 l0,200 l-500,0 Z M0,0" fill="rgb(255,255,255)" transform="matrix(1,0,0,-1,0,200)"/>
 <path d="M174.37,90.85 l5.9,-0.73 c-0.93,-3.45,-2.66,-6.13,-5.17,-8.03 c-2.52,-1.9,-5.73,-2.86,-9.65,-2.86 c-4.93,0,-8.84,1.52,-11.73,4.55 c-2.89,3.04,-4.33,7.29,-4.33,12.77 c0,5.67,1.46,10.07,4.38,13.2 c2.92,3.13,6.71,4.7,11.36,4.7 c4.51,0,8.19,-1.53,11.04,-4.6 c2.86,-3.07,4.28,-7.38,4.28,-12.95 c0,-0.34,-0.01,-0.85,-0.03,-1.52 l-25.14,0 c0.21,-3.7,1.26,-6.54,3.14,-8.51 c1.88,-1.97,4.23,-2.95,7.05,-2.95 c2.09,0,3.88,0.55,5.36,1.65 c1.48,1.1,2.66,2.86,3.52,5.27 Z M155.61,100.09 l18.82,0 c-0.25,2.84,-0.97,4.96,-2.16,6.38 c-1.82,2.2,-4.18,3.3,-7.08,3.3 c-2.62,0,-4.83,-0.88,-6.62,-2.63 c-1.79,-1.76,-2.78,-4.1,-2.97,-7.05 Z M208.93,67.08 l0,16.5 c-0.89,-1.25,-2.13,-2.29,-3.73,-3.11 c-1.6,-0.83,-3.3,-1.24,-5.09,-1.24 c-4.0,0,-7.44,1.6,-10.33,4.79 c-2.89,3.2,-4.33,7.57,-4.33,13.14 c0,3.39,0.59,6.42,1.76,9.11 c1.17,2.69,2.88,4.72,5.11,6.11 c2.23,1.39,4.68,2.08,7.35,2.08 c4.17,0,7.45,-1.76,9.84,-5.27 l0,4.51 l5.14,0 l0,-46.62 Z M191.32,96.95 c0,-4.34,0.91,-7.59,2.73,-9.76 c1.82,-2.17,4.0,-3.25,6.54,-3.25 c2.43,0,4.53,1.03,6.28,3.09 c1.76,2.06,2.63,5.2,2.63,9.41 c0,4.49,-0.93,7.86,-2.78,10.12 c-1.85,2.26,-4.03,3.4,-6.52,3.4 c-2.48,0,-4.58,-1.05,-6.3,-3.16 c-1.72,-2.11,-2.59,-5.39,-2.59,-9.85 Z M245.68,80 l0,4.95 c-2.62,-3.81,-6.19,-5.71,-10.7,-5.71 c-1.99,0,-3.85,0.38,-5.57,1.14 c-1.72,0.76,-3.0,1.72,-3.84,2.87 c-0.84,1.15,-1.42,2.57,-1.76,4.24 c-0.23,1.12,-0.35,2.9,-0.35,5.33 l0,20.88 l5.71,0 l0,-18.69 c0,-2.98,0.12,-4.99,0.35,-6.03 c0.36,-1.5,1.12,-2.68,2.29,-3.54 c1.16,-0.86,2.6,-1.29,4.32,-1.29 c1.71,0,3.32,0.44,4.82,1.32 c1.5,0.88,2.57,2.07,3.19,3.59 c0.62,1.51,0.94,3.71,0.94,6.59 l0,18.06 l5.71,0 l0,-33.71 Z M281.74,84.16 c-2.12,-1.8,-4.15,-3.07,-6.11,-3.81 c-1.96,-0.74,-4.06,-1.11,-6.3,-1.11 c-3.7,0,-6.55,0.9,-8.54,2.71 c-1.99,1.81,-2.98,4.12,-2.98,6.93 c0,1.65,0.38,3.16,1.13,4.52 c0.75,1.36,1.74,2.46,2.95,3.28 c1.22,0.83,2.59,1.45,4.11,1.87 c1.12,0.3,2.81,0.58,5.08,0.86 c4.61,0.55,8.01,1.21,10.19,1.97 c0.02,0.78,0.03,1.28,0.03,1.49 c0,2.33,-0.54,3.97,-1.62,4.92 c-1.46,1.29,-3.63,1.94,-6.51,1.94 c-2.69,0,-4.67,-0.47,-5.95,-1.41 c-1.28,-0.94,-2.23,-2.61,-2.84,-5.0 l-5.59,0.76 c0.51,2.39,1.34,4.32,2.51,5.79 c1.16,1.47,2.85,2.6,5.05,3.4 c2.2,0.79,4.75,1.19,7.65,1.19 c2.88,0,5.22,-0.34,7.01,-1.02 c1.8,-0.68,3.12,-1.53,3.97,-2.55 c0.85,-1.03,1.44,-2.32,1.78,-3.89 c0.19,-0.97,0.29,-2.73,0.29,-5.27 l0,-7.62 c0,-5.31,0.12,-8.67,0.36,-10.08 c0.24,-1.41,0.72,-2.76,1.44,-4.05 l-5.97,0 c-0.59,1.18,-0.97,2.57,-1.14,4.16 Z M281.26,96.92 c-2.07,-0.85,-5.18,-1.57,-9.33,-2.16 c-2.35,-0.34,-4.01,-0.72,-4.98,-1.14 c-0.97,-0.42,-1.72,-1.04,-2.25,-1.86 c-0.53,-0.81,-0.79,-1.72,-0.79,-2.71 c0,-1.52,0.58,-2.79,1.73,-3.81 c1.15,-1.02,2.84,-1.52,5.06,-1.52 c2.2,0,4.16,0.48,5.87,1.44 c1.71,0.96,2.97,2.28,3.78,3.95 c0.61,1.29,0.92,3.19,0.92,5.71 Z M295.77,80 l0,46.53 l5.71,0 l0,-46.53 Z M310.21,80 l0,46.53 l5.71,0 l0,-46.53 Z M324.52,67.02 l-0.63,5.36 c1.25,-0.34,2.34,-0.51,3.27,-0.51 c1.27,0,2.29,0.21,3.05,0.63 c0.76,0.42,1.39,1.02,1.87,1.78 c0.36,0.57,0.94,1.99,1.75,4.25 c0.11,0.32,0.28,0.78,0.51,1.4 l-12.79,33.77 l6.16,0 l7.01,-19.52 c0.91,-2.48,1.72,-5.08,2.44,-7.81 c0.66,2.62,1.44,5.18,2.35,7.68 l7.2,19.65 l5.71,0 l-12.82,-34.28 c-1.38,-3.7,-2.44,-6.25,-3.21,-7.65 c-1.02,-1.88,-2.18,-3.26,-3.49,-4.14 c-1.31,-0.88,-2.88,-1.32,-4.7,-1.32 c-1.1,0,-2.33,0.23,-3.68,0.7 Z M324.52,67.02" fill="rgb(0,0,0)" transform="matrix(1,0,0,-1,0,200)"/>
</svg>