<?xml version="1.0" encoding="UTF-8"?>
<svg height="200" version="1.1" width="500" xmlns="http://www.w3.org/2000/svg" xmlns:xlink="http://www.w3.org/1999/xlink">
 <path d="M0,0 l500,0 l0,200 l-500,0 Z M0,0" fill="rgb(255,255,255)" transform="matrix(1,0,0,-1,0,200)"/>
 <path d="M187.0,80 l0,29.26 l-5.05,0 l0,4.44 l5.05,0 l0,3.59 c0,2.26,0.2,3.95,0.6,5.05 c0.55,1.48,1.52,2.68,2.9,3.6 c1.39,0.92,3.33,1.38,5.82,1.38 c1.61,0,3.39,-0.19,5.33,-0.57 l-0.86,-4.98 c-1.18,0.21,-2.31,0.32,-3.36,0.32 c-1.74,0,-2.96,-0.37,-3.68,-1.11 c-0.72,-0.74,-1.08,-2.13,-1.08,-4.16 l0,-3.11 l6.57,0 l0,-4.44 l-6.57,0 l0,-29.26 Z M203.73,119.96 l0,6.57 l5.71,0 l0,-6.57 Z M203.73,80 l0,33.71 l5.71,0 l0,-33.71 Z M214.33,80 l12.31,17.52 l-11.39,16.19 l7.14,0 l5.17,-7.9 c0.97,-1.5,1.76,-2.76,2.35,-3.78 c0.93,1.4,1.79,2.63,2.57,3.71 l5.68,7.97 l6.82,0 l-11.65,-15.87 l12.54,-17.84 l-7.01,0 l-6.92,10.47 l-1.84,2.82 l-8.85,-13.3 Z M273.71,90.85 l5.9,-0.73 c-0.93,-3.45,-2.66,-6.13,-5.17,-8.03 c-2.52,-1.9,-5.73,-2.86,-9.65,-2.86 c-4.93,0,-8.84,1.52,-11.73,4.55 c-2.89,3.04,-4.33,7.29,-4.33,12.77 c0,5.67,1.46,10.07,4.38,13.2 c2.92,3.13,6.71,4.7,11.36,4.7 c4.51,0,8.19,-1.53,11.04,-4.6 c2.86,-3.07,4.28,-7.38,4.28,-12.95 c0,-0.34,-0.01,-0.85,-0.03,-1.52 l-25.14,0 c0.21,-3.7,1.26,-6.54,3.14,-8.51 c1.88,-1.97,4.23,-2.95,7.05,-2.95 c2.09,0,3.88,0.55,5.36,1.65 c1.48,1.1,2.66,2.86,3.52,5.27 Z M254.95,100.09 l18.82,0 c-0.25,2.84,-0.97,4.96,-2.16,6.38 c-1.82,2.2,-4.18,3.3,-7.08,3.3 c-2.62,0,-4.83,-0.88,-6.62,-2.63 c-1.79,-1.76,-2.78,-4.1,-2.97,-7.05 Z M308.65,80 l0,4.25 c-2.14,-3.34,-5.28,-5.01,-9.43,-5.01 c-2.69,0,-5.16,0.74,-7.41,2.22 c-2.25,1.48,-4.0,3.55,-5.24,6.2 c-1.24,2.66,-1.86,5.71,-1.86,9.16 c0,3.36,0.56,6.42,1.68,9.16 c1.12,2.74,2.8,4.84,5.05,6.3 c2.24,1.46,4.75,2.19,7.52,2.19 c2.03,0,3.84,-0.43,5.43,-1.29 c1.59,-0.86,2.88,-1.97,3.87,-3.35 l0,16.69 l5.68,0 l0,-46.53 Z M290.59,96.82 c0,-4.32,0.91,-7.54,2.73,-9.68 c1.82,-2.14,3.97,-3.21,6.44,-3.21 c2.5,0,4.62,1.02,6.36,3.06 c1.75,2.04,2.62,5.16,2.62,9.35 c0,4.61,-0.89,8.0,-2.67,10.16 c-1.78,2.16,-3.97,3.24,-6.57,3.24 c-2.54,0,-4.66,-1.04,-6.36,-3.11 c-1.7,-2.07,-2.55,-5.34,-2.55,-9.81 Z M290.59,96.82" fill="rgb(0,0,0)" transform="matrix(1,0,0,-1,0,200)"/>
</svg>