<?xml version="1.0" encoding="UTF-8"?>
<svg height="200" version="1.1" width="500" xmlns="http://www.w3.org/2000/svg" xmlns:xlink="http://www.w3.org/1999/xlink">
 <path d="M0,0 l500,0 l0,200 l-500,0 Z M0,0" fill="rgb(255,255,255)" transform="matrix(1,0,0,-1,0,200)"/>
 <path d="M176.12,114.53 l0,-11.43 l-1.21,0 c-0.93,3.59,-2.12,6.03,-3.57,7.32 c-1.45,1.29,-3.3,1.94,-5.55,1.94 c-1.71,0,-3.09,-0.45,-4.14,-1.35 c-1.05,-0.9,-1.57,-1.9,-1.57,-3.0 c0,-1.37,0.39,-2.54,1.17,-3.52 c0.76,-1.0,2.29,-2.06,4.61,-3.19 l5.35,-2.6 c4.96,-2.42,7.43,-5.6,7.43,-9.56 c0,-3.05,-1.15,-5.51,-3.46,-7.38 c-2.31,-1.87,-4.89,-2.8,-7.75,-2.8 c-2.05,0,-4.39,0.37,-7.03,1.1 c-0.81,0.24,-1.46,0.37,-1.98,0.37 c-0.56,0,-1.0,-0.32,-1.32,-0.95 l-1.21,0 l0,11.98 l1.21,0 c0.68,-3.42,1.99,-5.99,3.92,-7.73 c1.93,-1.73,4.09,-2.6,6.48,-2.6 c1.68,0,3.06,0.49,4.12,1.48 c1.06,0.99,1.59,2.18,1.59,3.57 c0,1.68,-0.59,3.1,-1.78,4.25 c-1.18,1.15,-3.55,2.6,-7.09,4.36 c-3.54,1.76,-5.86,3.34,-6.96,4.76 c-1.1,1.39,-1.65,3.15,-1.65,5.27 c0,2.76,0.95,5.07,2.84,6.92 c1.89,1.86,4.34,2.78,7.34,2.78 c1.32,0,2.92,-0.28,4.8,-0.84 c1.25,-0.37,2.08,-0.55,2.49,-0.55 c0.39,0,0.7,0.09,0.92,0.26 c0.22,0.17,0.48,0.55,0.77,1.14 Z M193.37,124.57 l0,-11.02 l7.84,0 l0,-2.56 l-7.84,0 l0,-21.75 c0,-2.17,0.31,-3.64,0.93,-4.39 c0.62,-0.76,1.42,-1.14,2.4,-1.14 c0.81,0,1.59,0.25,2.34,0.75 c0.76,0.5,1.34,1.24,1.76,2.22 l1.43,0 c-0.85,-2.39,-2.06,-4.19,-3.63,-5.4 c-1.56,-1.21,-3.17,-1.81,-4.83,-1.81 c-1.12,0,-2.22,0.31,-3.3,0.93 c-1.07,0.62,-1.87,1.51,-2.38,2.67 c-0.51,1.16,-0.77,2.95,-0.77,5.36 l0,22.56 l-5.31,0 l0,1.21 c1.34,0.54,2.72,1.45,4.12,2.73 c1.4,1.28,2.66,2.8,3.75,4.56 c0.56,0.93,1.34,2.62,2.34,5.09 Z M214.28,114.53 l0,-7.54 c2.81,5.03,5.69,7.54,8.64,7.54 c1.34,0,2.45,-0.41,3.33,-1.23 c0.88,-0.82,1.32,-1.76,1.32,-2.84 c0,-0.95,-0.32,-1.76,-0.95,-2.42 c-0.63,-0.66,-1.39,-0.99,-2.27,-0.99 c-0.85,0,-1.81,0.42,-2.87,1.26 c-1.06,0.84,-1.85,1.26,-2.36,1.26 c-0.44,0,-0.92,-0.24,-1.43,-0.73 c-1.1,-1.0,-2.23,-2.65,-3.41,-4.94 l0,-16.08 c0,-1.86,0.23,-3.26,0.7,-4.21 c0.32,-0.66,0.88,-1.21,1.68,-1.65 c0.81,-0.44,1.97,-0.66,3.48,-0.66 l0,-1.32 l-17.18,0 l0,1.32 c1.71,0,2.98,0.27,3.81,0.81 c0.61,0.39,1.04,1.01,1.28,1.87 c0.12,0.42,0.18,1.6,0.18,3.55 l0,13.0 c0,3.91,-0.08,6.23,-0.24,6.98 c-0.16,0.74,-0.45,1.29,-0.88,1.63 c-0.43,0.34,-0.96,0.51,-1.59,0.51 c-0.76,0,-1.61,-0.18,-2.56,-0.55 l-0.37,1.32 l10.14,4.1 Z M235.08,100.91 c-0.02,-4.98,1.18,-8.89,3.63,-11.72 c2.44,-2.83,5.31,-4.25,8.61,-4.25 c2.2,0,4.11,0.6,5.73,1.81 c1.62,1.21,2.98,3.28,4.08,6.21 l1.14,-0.73 c-0.51,-3.34,-2.0,-6.39,-4.47,-9.14 c-2.47,-2.75,-5.55,-4.12,-9.27,-4.12 c-4.03,0,-7.48,1.57,-10.35,4.71 c-2.87,3.14,-4.3,7.35,-4.3,12.65 c0,5.74,1.47,10.21,4.41,13.42 c2.94,3.21,6.63,4.82,11.08,4.82 c3.76,0,6.85,-1.24,9.27,-3.72 c2.42,-2.48,3.63,-5.79,3.63,-9.94 Z M235.08,103.03 l15.53,0 c-0.12,2.15,-0.38,3.66,-0.77,4.54 c-0.61,1.37,-1.52,2.44,-2.73,3.22 c-1.21,0.78,-2.47,1.17,-3.79,1.17 c-2.03,0,-3.84,-0.79,-5.44,-2.36 c-1.6,-1.57,-2.53,-3.77,-2.8,-6.57 Z M272.5,107.43 c3.93,4.74,7.68,7.1,11.24,7.1 c1.83,0,3.41,-0.46,4.72,-1.37 c1.32,-0.92,2.37,-2.42,3.15,-4.52 c0.54,-1.46,0.81,-3.71,0.81,-6.74 l0,-14.32 c0,-2.12,0.17,-3.56,0.51,-4.32 c0.27,-0.61,0.7,-1.09,1.3,-1.43 c0.6,-0.34,1.7,-0.51,3.31,-0.51 l0,-1.32 l-16.59,0 l0,1.32 l0.7,0 c1.56,0,2.66,0.24,3.28,0.71 c0.62,0.48,1.06,1.18,1.3,2.11 c0.1,0.37,0.15,1.51,0.15,3.44 l0,13.73 c0,3.05,-0.4,5.27,-1.19,6.65 c-0.79,1.38,-2.13,2.07,-4.01,2.07 c-2.91,0,-5.8,-1.59,-8.68,-4.76 l0,-17.69 c0,-2.27,0.13,-3.67,0.4,-4.21 c0.34,-0.71,0.81,-1.23,1.41,-1.56 c0.6,-0.33,1.81,-0.49,3.64,-0.49 l0,-1.32 l-16.59,0 l0,1.32 l0.73,0 c1.71,0,2.86,0.43,3.46,1.3 c0.6,0.87,0.9,2.52,0.9,4.96 l0,12.45 c0,4.03,-0.09,6.48,-0.27,7.36 c-0.18,0.88,-0.46,1.48,-0.84,1.79 c-0.38,0.32,-0.89,0.48,-1.52,0.48 c-0.68,0,-1.5,-0.18,-2.45,-0.55 l-0.55,1.32 l10.11,4.1 l1.57,0 Z M321.91,114.53 l0,-11.43 l-1.21,0 c-0.93,3.59,-2.12,6.03,-3.57,7.32 c-1.45,1.29,-3.3,1.94,-5.55,1.94 c-1.71,0,-3.09,-0.45,-4.14,-1.35 c-1.05,-0.9,-1.57,-1.9,-1.57,-3.0 c0,-1.37,0.39,-2.54,1.17,-3.52 c0.76,-1.0,2.29,-2.06,4.61,-3.19 l5.35,-2.6 c4.96,-2.42,7.43,-5.6,7.43,-9.56 c0,-3.05,-1.15,-5.51,-3.46,-7.38 c-2.31,-1.87,-4.89,-2.8,-7.75,-2.8 c-2.05,0,-4.39,0.37,-7.03,1.1 c-0.81,0.24,-1.46,0.37,-1.98,0.37 c-0.56,0,-1.0,-0.32,-1.32,-0.95 l-1.21,0 l0,11.98 l1.21,0 c0.68,-3.42,1.99,-5.99,3.92,-7.73 c1.93,-1.73,4.09,-2.6,6.48,-2.6 c1.68,0,3.06,0.49,4.12,1.48 c1.06,0.99,1.59,2.18,1.59,3.57 c0,1.68,-0.59,3.1,-1.78,4.25 c-1.18,1.15,-3.55,2.6,-7.09,4.36 c-3.54,1.76,-5.86,3.34,-6.96,4.76 c-1.1,1.39,-1.65,3.15,-1.65,5.27 c0,2.76,0.95,5.07,2.84,6.92 c1.89,1.86,4.34,2.78,7.34,2.78 c1.32,0,2.92,-0.28,4.8,-0.84 c1.25,-0.37,2.08,-0.55,2.49,-0.55 c0.39,0,0.7,0.09,0.92,0.26 c0.22,0.17,0.48,0.55,0.77,1.14 Z M339.15,124.57 l0,-11.02 l7.84,0 l0,-2.56 l-7.84,0 l0,-21.75 c0,-2.17,0.31,-3.64,0.93,-4.39 c0.62,-0.76,1.42,-1.14,2.4,-1.14 c0.81,0,1.59,0.25,2.34,0.75 c0.76,0.5,1.34,1.24,1.76,2.22 l1.43,0 c-0.85,-2.39,-2.06,-4.19,-3.63,-5.4 c-1.56,-1.21,-3.17,-1.81,-4.83,-1.81 c-1.12,0,-2.22,0.31,-3.3,0.93 c-1.07,0.62,-1.87,1.51,-2.38,2.67 c-0.51,1.16,-0.77,2.95,-0.77,5.36 l0,22.56 l-5.31,0 l0,1.21 c1.34,0.54,2.72,1.45,4.12,2.73 c1.4,1.28,2.66,2.8,3.75,4.56 c0.56,0.93,1.34,2.62,2.34,5.09 Z M339.15,124.57" fill="rgb(0,0,0)" transform="matrix(1,0,0,-1,0,200)"/>
</svg>