<?xml version="1.0" encoding="UTF-8"?>
<svg height="200" version="1.1" width="500" xmlns="http://www.w3.org/2000/svg" xmlns:xlink="http://www.w3.org/1999/xlink">
 <path d="M0,0 l500,0 l0,200 l-500,0 Z M0,0" fill="rgb(255,255,255)" transform="matrix(1,0,0,-1,0,200)"/>
 <path d="M162.77,100.75 c-0.83,1.49,-1.33,2.74,-1.33,3.98 c0,3.82,4.73,6.31,7.8,6.31 c3.74,0,4.73,-4.32,4.73,-6.47 c0,-8.05,-14.19,-10.04,-17.68,-14.36 c-1.16,-1.49,-1.58,-2.82,-1.58,-4.07 c0,-3.15,3.32,-6.81,7.88,-6.81 c4.48,0,11.29,3.49,13.36,6.14 c0.5,-2.08,0.83,-6.89,2.99,-6.89 c3.4,0,6.64,3.9,6.72,5.4 c0,0.25,-0.08,0.33,-0.33,0.33 c-0.5,0,-1.58,-0.42,-3.4,-1.74 c-2.32,6.56,-1.99,14.86,-2.74,21.16 c-0.58,5.4,-1.66,9.71,-8.22,9.71 c-10.29,0,-14.19,-6.97,-14.19,-10.04 c0,-2.08,1.08,-3.65,2.99,-3.65 c0.91,0,1.83,0.33,2.99,1.0 Z M174.47,96.02 c0,-7.89,-1.74,-12.53,-7.14,-12.53 c-3.57,0,-5.15,2.24,-5.15,4.48 c0,3.98,8.8,5.89,11.45,9.46 c0.42,0.5,0.5,1.08,0.58,1.08 c0.25,0,0.25,-0.08,0.25,-2.49 Z M211.65,83.49 c-5.06,0,-14.61,8.55,-14.61,17.35 c0,6.31,4.32,9.05,7.14,9.05 c5.4,0,14.53,-9.79,14.53,-17.6 c0,-5.89,-4.4,-8.8,-7.06,-8.8 Z M196.8,88.72 c2.07,-5.06,5.15,-9.63,10.62,-9.63 c9.63,0,15.85,9.46,15.85,18.34 c0,8.22,-5.73,16.02,-15.44,16.02 c-2.99,0,-6.31,-0.75,-9.96,-2.57 c1.16,14.36,2.74,20.83,2.74,29.05 c0,1.74,-0.08,3.57,-0.25,5.64 c-2.91,0,-9.63,-0.5,-13.53,-5.89 c0.17,0,0.25,-0.25,0.33,-0.25 c1.08,0.58,1.91,0.75,2.57,0.75 c3.07,0,3.98,-4.15,3.98,-11.12 c0,-10.29,-1.91,-25.98,-1.91,-40.59 c0,-2.08,0,-3.98,0.08,-5.98 c-2.74,-0.66,-4.15,-1.41,-4.15,-1.99 c0,-0.91,1.25,-1.33,3.07,-1.33 c1.99,0,4.4,0.5,5.89,1.99 c0,1.33,-0.66,5.31,-0.66,7.47 c0,0.17,0.25,0.25,0.33,0.25 c0.17,0,0.33,-0.08,0.41,-0.17 Z M246.93,113.45 c-9.05,0,-16.43,-7.64,-16.43,-17.02 c0,-9.46,6.97,-17.1,16.43,-17.1 c11.21,0,16.35,7.64,16.35,17.1 c0,9.96,-7.39,17.02,-16.35,17.02 Z M243.61,109.72 c6.56,0,14.44,-7.8,14.44,-16.6 c0,-7.47,-3.32,-10.54,-7.72,-10.54 c-7.14,0,-14.11,8.8,-14.11,18.51 c0,5.23,2.82,8.63,7.39,8.63 Z M299.8,84.65 c0.66,2.49,0.91,6.39,0.91,10.71 c0,5.89,-0.41,12.7,-0.75,18.43 c-3.24,-1.33,-11.79,-3.4,-11.79,-4.56 c0,-1.16,2.41,-1.58,6.31,-1.58 c0.33,-2.08,0.58,-4.48,0.58,-6.89 c0,-11.87,-2.91,-15.85,-7.06,-15.85 c-4.15,0,-8.8,3.82,-8.8,11.62 c0,13.11,-0.58,15.94,-1.0,17.18 c-8.47,-2.74,-11.54,-4.9,-11.54,-6.06 c0,-0.33,0.5,-0.66,2.07,-0.66 c0.91,0,2.41,0.08,4.56,0.42 c0.33,-4.98,0.33,-10.54,0.33,-14.11 c0,-12.62,9.13,-14.36,11.45,-14.36 c4.98,0,8.63,6.56,9.13,6.56 c0.33,0,0.42,-0.25,0.42,-0.66 c0,-0.75,-0.33,-2.24,-0.33,-3.73 c0,-0.75,0,-1.33,0.25,-1.99 c3.32,0.58,10.29,4.98,10.29,6.06 c0,0.33,-0.25,0.5,-0.58,0.5 c-1.0,0,-3.57,-1.0,-4.48,-1.0 Z M319.89,57.68 c0.08,0.5,0.08,1.16,0.08,1.91 c0,6.72,-1.91,21.99,-1.91,27.22 c0,1.08,0.08,1.74,0.25,1.74 c1.16,0,2.91,-9.38,11.45,-9.38 c6.31,0,14.53,7.05,14.53,18.01 c0,8.55,-5.48,16.27,-16.43,16.27 c-3.98,0,-8.88,-6.97,-9.79,-6.97 c-0.25,0,-0.33,0.25,-0.33,0.66 c0,0.91,0.33,2.57,0.33,4.81 c-0.66,0.66,-1.66,0.91,-2.74,0.91 c-3.07,0,-6.97,-2.57,-6.97,-4.07 c0,-0.17,0.17,-0.17,0.58,-0.17 c0.5,0,1.33,0.08,2.24,0.08 c0.75,0,1.41,0,2.07,-0.25 c-0.08,-2.32,-0.17,-4.56,-0.17,-6.72 c0,-9.88,1.08,-18.09,1.08,-27.56 c0,-7.05,-1.0,-11.2,-3.98,-11.2 c-1.33,0,-2.32,0.91,-2.74,0.91 c-0.08,0,-0.17,-0.17,-0.17,-0.41 c3.9,-5.31,9.96,-5.81,12.62,-5.81 Z M333.66,84.15 c-5.64,0,-14.52,7.97,-14.52,15.77 c0,5.39,3.65,9.13,7.14,9.13 c5.06,0,14.28,-8.63,14.28,-16.19 c0,-5.81,-3.9,-8.72,-6.89,-8.72 Z M333.66,84.15" fill="rgb(0,0,0)" transform="matrix(1,0,0,-1,0,200)"/>
</svg>