<?xml version="1.0" encoding="UTF-8"?>
<svg height="200" version="1.1" width="500" xmlns="http://www.w3.org/2000/svg" xmlns:xlink="http://www.w3.org/1999/xlink">
 <path d="M0,0 l500,0 l0,200 l-500,0 Z M0,0" fill="rgb(255,255,255)" transform="matrix(1,0,0,-1,0,200)"/>
 <path d="M147.58,83.49 c-5.06,0,-14.61,8.55,-14.61,17.35 c0,6.31,4.32,9.05,7.14,9.05 c5.39,0,14.53,-9.79,14.53,-17.6 c0,-5.89,-4.4,-8.8,-7.06,-8.8 Z M132.72,88.72 c2.07,-5.06,5.15,-9.63,10.62,-9.63 c9.63,0,15.85,9.46,15.85,18.34 c0,8.22,-5.73,16.02,-15.44,16.02 c-2.99,0,-6.31,-0.75,-9.96,-2.57 c1.16,14.36,2.74,20.83,2.74,29.05 c0,1.74,-0.08,3.57,-0.25,5.64 c-2.91,0,-9.63,-0.5,-13.53,-5.89 c0.17,0,0.25,-0.25,0.33,-0.25 c1.08,0.58,1.91,0.75,2.57,0.75 c3.07,0,3.98,-4.15,3.98,-11.12 c0,-10.29,-1.91,-25.98,-1.91,-40.59 c0,-2.08,0,-3.98,0.08,-5.98 c-2.74,-0.66,-4.15,-1.41,-4.15,-1.99 c0,-0.91,1.25,-1.33,3.07,-1.33 c1.99,0,4.4,0.5,5.89,1.99 c0,1.33,-0.66,5.31,-0.66,7.47 c0,0.17,0.25,0.25,0.33,0.25 c0.17,0,0.33,-0.08,0.41,-0.17 Z M173.47,100.75 c-0.83,1.49,-1.33,2.74,-1.33,3.98 c0,3.82,4.73,6.31,7.8,6.31 c3.74,0,4.73,-4.32,4.73,-6.47 c0,-8.05,-14.19,-10.04,-17.68,-14.36 c-1.16,-1.49,-1.58,-2.82,-1.58,-4.07 c0,-3.15,3.32,-6.81,7.88,-6.81 c4.48,0,11.29,3.49,13.36,6.14 c0.5,-2.08,0.83,-6.89,2.99,-6.89 c3.4,0,6.64,3.9,6.72,5.4 c0,0.25,-0.08,0.33,-0.33,0.33 c-0.5,0,-1.58,-0.42,-3.4,-1.74 c-2.32,6.56,-1.99,14.86,-2.74,21.16 c-0.58,5.4,-1.66,9.71,-8.22,9.71 c-10.29,0,-14.19,-6.97,-14.19,-10.04 c0,-2.08,1.08,-3.65,2.99,-3.65 c0.91,0,1.83,0.33,2.99,1.0 Z M185.18,96.02 c0,-7.89,-1.74,-12.53,-7.14,-12.53 c-3.57,0,-5.15,2.24,-5.15,4.48 c0,3.98,8.8,5.89,11.45,9.46 c0.42,0.5,0.5,1.08,0.58,1.08 c0.25,0,0.25,-0.08,0.25,-2.49 Z M221.03,82.99 c-0.41,-0.66,-1.16,-1.0,-2.07,-1.0 c-5.73,0,-12.53,9.05,-12.53,18.43 c0,8.38,6.81,9.05,10.29,9.05 c5.64,0,4.65,-8.13,6.81,-8.13 c1.66,0,4.73,4.23,4.73,6.56 c0,3.15,-3.24,5.56,-8.22,5.56 c-12.53,0,-19.17,-8.55,-19.17,-17.35 c0,-9.79,4.98,-16.77,16.1,-16.77 c6.31,0,12.87,2.99,12.87,8.22 c0,2.49,-1.41,6.64,-1.83,6.64 c-0.91,0,-0.5,-5.15,-1.99,-7.3 c-1.58,-2.32,-3.65,-2.07,-4.98,-3.9 Z M242.78,96.69 c0.91,25.9,3.82,33.78,3.82,43.41 c0,1.66,-0.08,3.4,-0.25,5.31 c-7.8,0,-11.54,-2.66,-13.36,-5.31 c0.33,0,1.0,0.17,2.66,0.17 c3.07,0,4.07,-3.98,4.07,-11.21 c0,-10.21,-1.91,-25.56,-1.91,-39.84 c0,-1.83,0,-3.82,0.08,-5.64 c-4.32,-0.66,-5.98,-1.33,-5.98,-1.83 c0,-0.75,4.98,-1.24,9.55,-1.24 c3.98,0,7.88,0.25,7.88,1.08 c0,0.42,-1.74,1.25,-6.81,2.16 c0,3.57,0.08,6.72,0.17,9.88 c0.08,0.25,1.66,0,3.24,1.0 c1.41,0,5.64,-15.02,15.52,-15.02 c2.49,0,4.07,0.66,4.07,1.41 c0,0.08,-0.08,0.17,-0.17,0.25 c-4.07,0.58,-7.88,6.22,-10.21,9.79 c-2.49,3.9,-4.9,5.56,-4.9,6.23 c7.39,6.14,12.12,15.35,12.12,17.1 c0,0.17,-0.25,0.5,-0.58,0.5 c-3.98,-3.15,-11.7,-1.74,-13.03,-3.82 c0,-0.33,0.17,-0.58,0.33,-0.58 c3.07,0,4.81,-0.58,4.81,-2.49 c0,-5.06,-8.3,-11.29,-11.12,-11.29 Z M270.25,83.57 c-4.32,-0.66,-5.98,-1.33,-5.98,-1.83 c0,-0.75,4.98,-1.24,9.55,-1.24 c3.98,0,7.88,0.25,7.88,1.08 c0,0.42,-1.74,1.25,-6.81,2.16 c0.41,35.19,4.07,47.73,4.07,56.11 c0,1.74,-0.08,3.57,-0.25,5.56 c-7.3,0,-11.29,-2.49,-13.36,-5.31 c0,-0.42,0.08,-0.5,0.25,-0.5 c0.33,0,1.16,0.66,2.41,0.66 c3.07,0,4.07,-3.98,4.07,-11.21 c0,-6.31,-1.91,-29.63,-1.91,-40.17 c0,-1.74,0,-3.57,0.08,-5.31 Z M293.49,134.7 c-2.57,0,-5.06,-2.07,-5.06,-4.56 c0,-2.41,1.41,-4.73,4.07,-4.73 c1.25,0,5.06,1.58,5.06,4.73 c0,2.07,-1.91,4.56,-4.07,4.56 Z M294.24,99.67 c0,2.74,1.74,12.2,1.74,16.43 c-0.08,0.17,-0.17,0.17,-0.58,0.17 c-2.49,-3.24,-9.55,-7.72,-12.45,-10.54 c0,-0.42,0.25,-0.58,0.42,-0.58 c1.33,0.5,2.32,0.75,3.15,0.75 c1.83,0,2.49,-1.24,2.49,-4.23 c-0.08,-3.49,-0.58,-6.81,-0.58,-10.21 c0,-2.57,0.25,-5.15,1.16,-7.97 c-4.32,-0.58,-5.98,-1.33,-5.98,-1.74 c0,-0.66,4.98,-1.24,9.55,-1.24 c3.98,0,6.06,0.58,6.06,1.16 c0,0.58,-2.24,1.49,-4.98,1.91 c-0.5,2.24,-0.58,4.4,-0.58,6.31 c0,3.9,0.58,7.22,0.58,9.79 Z M307.19,83.99 c-3.24,-0.91,-4.48,-1.66,-4.48,-2.32 c0,-0.83,3.49,-1.16,6.72,-1.16 c2.91,0,6.72,0.25,6.72,1.08 c0,0.58,-1.16,0.83,-4.15,1.41 c-0.42,1.91,-0.66,4.15,-0.66,6.39 c0,5.06,0.91,10.21,1.49,12.53 c1.08,4.32,4.15,5.73,6.81,5.73 c2.49,0,5.23,-1.74,6.39,-3.32 c4.15,-5.48,1.25,-10.04,3.57,-20.92 c-3.74,-0.5,-4.32,-1.08,-4.32,-1.41 c0,-0.83,4.9,-1.49,8.72,-1.49 c1.99,0,4.23,0.17,4.23,0.83 c0,0.58,-1.08,1.16,-3.82,2.16 c-0.83,8.96,-0.08,16.43,-1.49,21.75 c-1.83,7.06,-8.22,8.55,-10.71,8.55 c-4.15,0,-7.97,-6.47,-8.72,-6.47 c-0.17,0,-0.17,0.25,-0.17,0.75 c0,1.66,0.58,5.23,0.58,8.05 c-0.17,0.17,-0.25,0.17,-0.58,0.17 c-2.57,-3.24,-9.55,-7.72,-12.45,-10.54 c0,-0.5,0.08,-0.58,0.42,-0.58 c0.41,0,1.49,0.75,3.15,0.75 c1.74,0,2.41,-1.24,2.41,-4.23 c0,-1.58,-0.66,-6.23,-0.66,-10.62 c0,-2.57,0.33,-5.23,1.0,-7.05 Z M354.17,89.05 c0,-2.24,-6.31,-7.05,-9.71,-8.55 c2.57,-5.06,9.71,-3.73,9.71,-5.73 c-1.91,-1.99,-12.03,-6.31,-12.03,-9.38 c0,-2.82,8.55,-8.63,15.27,-8.63 c8.05,0,15.6,7.3,15.6,8.71 c0,3.9,-7.72,11.37,-19.67,16.85 c6.23,6.23,12.7,8.72,16.19,15.52 c0.42,-0.17,0.75,-0.25,1.16,-0.25 c2.82,0,6.23,4.4,6.23,9.3 c0,1.91,-1.33,5.64,-2.41,5.64 c-0.33,0,-0.33,-0.41,-0.33,-1.0 c0,-0.5,0,-1.16,-0.17,-1.83 c-0.91,-2.99,-1.25,-7.39,-3.49,-7.39 c-4.07,0,-3.24,11.29,-11.29,11.29 c-4.65,0,-16.6,-9.05,-16.6,-13.03 c0,-5.56,8.55,-11.54,11.54,-11.54 Z M348.85,102.41 c0,2.74,2.41,5.56,6.72,5.56 c5.98,0,9.21,-5.73,9.21,-10.13 c0,-3.57,-1.58,-5.39,-4.65,-5.39 c-4.98,0,-11.29,5.98,-11.29,9.96 Z M357.9,73.36 c3.15,0,1.99,-2.74,6.31,-6.06 c0.66,-0.5,0.91,-0.91,0.91,-1.49 c0,-3.9,-5.15,-6.06,-8.96,-6.06 c-2.74,0,-5.48,1.91,-5.48,4.23 c0,4.23,4.73,9.38,7.22,9.38 Z M357.9,73.36" fill="rgb(0,0,0)" transform="matrix(1,0,0,-1,0,200)"/>
</svg>