<?xml version="1.0" encoding="UTF-8"?>
<svg height="200" version="1.1" width="500" xmlns="http://www.w3.org/2000/svg" xmlns:xlink="http://www.w3.org/1999/xlink">
 <path d="M0,0 l500,0 l0,200 l-500,0 Z M0,0" fill="rgb(255,255,255)" transform="matrix(1,0,0,-1,0,200)"/>
 <path d="M104.42,82.99 c-0.41,-0.66,-1.16,-1.0,-2.08,-1.0 c-5.73,0,-12.53,9.05,-12.53,18.43 c0,8.38,6.81,9.05,10.29,9.05 c5.64,0,4.65,-8.13,6.81,-8.13 c1.66,0,4.73,4.23,4.73,6.56 c0,3.15,-3.24,5.56,-8.22,5.56 c-12.53,0,-19.17,-8.55,-19.17,-17.35 c0,-9.79,4.98,-16.77,16.1,-16.77 c6.31,0,12.87,2.99,12.87,8.22 c0,2.49,-1.41,6.64,-1.83,6.64 c-0.91,0,-0.5,-5.15,-1.99,-7.3 c-1.58,-2.32,-3.65,-2.07,-4.98,-3.9 Z M134.96,113.45 c-9.05,0,-16.43,-7.64,-16.43,-17.02 c0,-9.46,6.97,-17.1,16.43,-17.1 c11.21,0,16.35,7.64,16.35,17.1 c0,9.96,-7.39,17.02,-16.35,17.02 Z M131.64,109.72 c6.56,0,14.44,-7.8,14.44,-16.6 c0,-7.47,-3.32,-10.54,-7.72,-10.54 c-7.14,0,-14.11,8.8,-14.11,18.51 c0,5.23,2.82,8.63,7.39,8.63 Z M185.43,106.89 c-0.58,0,-0.66,1.25,-1.91,2.57 c-1.49,1.99,-5.23,4.32,-8.88,4.32 c-2.91,0,-4.4,-6.47,-5.73,-6.47 c-0.08,0,-0.25,0.17,-0.25,0.58 c0,1.33,0.66,4.56,0.66,8.22 c-0.17,0.17,-0.25,0.17,-0.66,0.17 c-2.49,-3.24,-9.46,-7.72,-12.37,-10.54 c0,-0.5,0.08,-0.66,0.25,-0.66 c0.5,0,1.58,0.83,3.32,0.83 c1.74,0,2.41,-1.24,2.41,-4.23 c0,-1.66,-0.66,-6.23,-0.66,-10.62 c0,-2.57,0.33,-5.15,1.0,-7.05 c-3.24,-0.91,-4.48,-1.66,-4.48,-2.32 c0,-0.83,3.49,-1.16,6.72,-1.16 c2.91,0,6.56,0.25,6.56,1.08 c0,0.42,-1.08,0.83,-3.98,1.41 c-0.33,1.66,-0.58,3.9,-0.58,6.31 c0,14.69,3.24,18.59,7.3,18.59 c3.24,0,7.39,-5.48,7.39,-9.3 c0,-3.82,-1.08,-7.3,-1.08,-15.19 c-3.82,-0.5,-4.4,-1.08,-4.4,-1.41 c0,-0.83,4.98,-1.49,8.8,-1.49 c1.99,0,4.23,0.25,4.23,0.75 c0,0.58,-1.08,1.24,-3.9,2.24 c1.0,7.47,1.16,11.45,1.16,14.19 c0,1.74,-0.08,2.99,-0.17,4.32 c0.91,4.23,2.41,5.89,4.98,5.89 c2.74,0,7.47,-4.56,7.47,-10.71 c0,-1.49,-0.08,-3.4,-0.08,-5.48 c0,-2.82,0.17,-5.81,0.75,-8.3 c-3.65,-0.5,-4.4,-1.08,-4.4,-1.41 c0,-0.91,4.98,-1.49,8.8,-1.49 c1.99,0,4.23,0.25,4.23,0.75 c0,0.66,-1.08,1.24,-3.9,2.24 c-0.75,8.96,-0.08,16.43,-1.41,21.75 c-1.83,6.97,-8.05,8.55,-10.71,8.55 c-3.9,0,-3.15,-5.06,-6.47,-6.89 Z M240.37,106.89 c-0.58,0,-0.66,1.25,-1.91,2.57 c-1.49,1.99,-5.23,4.32,-8.88,4.32 c-2.9,0,-4.4,-6.47,-5.73,-6.47 c-0.08,0,-0.25,0.17,-0.25,0.58 c0,1.33,0.66,4.56,0.66,8.22 c-0.17,0.17,-0.25,0.17,-0.66,0.17 c-2.49,-3.24,-9.46,-7.72,-12.37,-10.54 c0,-0.5,0.08,-0.66,0.25,-0.66 c0.5,0,1.58,0.83,3.32,0.83 c1.74,0,2.41,-1.24,2.41,-4.23 c0,-1.66,-0.66,-6.23,-0.66,-10.62 c0,-2.57,0.33,-5.15,1.0,-7.05 c-3.24,-0.91,-4.48,-1.66,-4.48,-2.32 c0,-0.83,3.49,-1.16,6.72,-1.16 c2.91,0,6.56,0.25,6.56,1.08 c0,0.42,-1.08,0.83,-3.98,1.41 c-0.33,1.66,-0.58,3.9,-0.58,6.31 c0,14.69,3.24,18.59,7.3,18.59 c3.24,0,7.39,-5.48,7.39,-9.3 c0,-3.82,-1.08,-7.3,-1.08,-15.19 c-3.82,-0.5,-4.4,-1.08,-4.4,-1.41 c0,-0.83,4.98,-1.49,8.8,-1.49 c1.99,0,4.23,0.25,4.23,0.75 c0,0.58,-1.08,1.24,-3.9,2.24 c1.0,7.47,1.16,11.45,1.16,14.19 c0,1.74,-0.08,2.99,-0.17,4.32 c0.91,4.23,2.41,5.89,4.98,5.89 c2.74,0,7.47,-4.56,7.47,-10.71 c0,-1.49,-0.08,-3.4,-0.08,-5.48 c0,-2.82,0.17,-5.81,0.75,-8.3 c-3.65,-0.5,-4.4,-1.08,-4.4,-1.41 c0,-0.91,4.98,-1.49,8.8,-1.49 c1.99,0,4.23,0.25,4.23,0.75 c0,0.66,-1.08,1.24,-3.9,2.24 c-0.75,8.96,-0.08,16.43,-1.41,21.75 c-1.83,6.97,-8.05,8.55,-10.71,8.55 c-3.9,0,-3.15,-5.06,-6.47,-6.89 Z M276.39,134.7 c-2.57,0,-5.06,-2.07,-5.06,-4.56 c0,-2.41,1.41,-4.73,4.07,-4.73 c1.25,0,5.06,1.58,5.06,4.73 c0,2.07,-1.91,4.56,-4.07,4.56 Z M277.14,99.67 c0,2.74,1.74,12.2,1.74,16.43 c-0.08,0.17,-0.17,0.17,-0.58,0.17 c-2.49,-3.24,-9.55,-7.72,-12.45,-10.54 c0,-0.42,0.25,-0.58,0.42,-0.58 c1.33,0.5,2.32,0.75,3.15,0.75 c1.83,0,2.49,-1.24,2.49,-4.23 c-0.08,-3.49,-0.58,-6.81,-0.58,-10.21 c0,-2.57,0.25,-5.15,1.16,-7.97 c-4.32,-0.58,-5.98,-1.33,-5.98,-1.74 c0,-0.66,4.98,-1.24,9.55,-1.24 c3.98,0,6.06,0.58,6.06,1.16 c0,0.58,-2.24,1.49,-4.98,1.91 c-0.5,2.24,-0.58,4.4,-0.58,6.31 c0,3.9,0.58,7.22,0.58,9.79 Z M297.14,111.63 c3.74,0,7.88,-7.14,8.8,-7.14 c0.58,0,1.66,2.99,1.66,4.23 c0,3.24,-4.48,5.06,-8.96,5.06 c-5.31,0,-10.29,-3.07,-10.29,-9.05 c0,-10.54,14.86,-11.87,14.86,-17.76 c0,-2.08,-3.32,-4.15,-6.39,-4.15 c-1.58,0,-3.32,0.75,-4.07,1.99 c-1.49,2.49,-4.81,1.74,-6.39,6.06 c-0.33,1.0,-0.66,2.49,-1.0,2.49 c-0.58,0,-0.75,-1.83,-0.75,-2.66 c0,-3.57,3.32,-11.79,11.12,-11.79 c5.64,0,11.87,4.81,11.87,11.45 c0,9.13,-15.02,10.29,-15.02,16.43 c0,1.83,2.66,4.81,4.56,4.81 Z M324.95,111.63 c3.74,0,7.88,-7.14,8.8,-7.14 c0.58,0,1.66,2.99,1.66,4.23 c0,3.24,-4.48,5.06,-8.96,5.06 c-5.31,0,-10.29,-3.07,-10.29,-9.05 c0,-10.54,14.86,-11.87,14.86,-17.76 c0,-2.08,-3.32,-4.15,-6.39,-4.15 c-1.58,0,-3.32,0.75,-4.07,1.99 c-1.49,2.49,-4.81,1.74,-6.39,6.06 c-0.33,1.0,-0.66,2.49,-1.0,2.49 c-0.58,0,-0.75,-1.83,-0.75,-2.66 c0,-3.57,3.32,-11.79,11.12,-11.79 c5.64,0,11.87,4.81,11.87,11.45 c0,9.13,-15.02,10.29,-15.02,16.43 c0,1.83,2.66,4.81,4.56,4.81 Z M341.13,107.89 c0,-0.25,0.08,-0.58,0.58,-0.58 c1.25,0,3.24,0.58,5.98,0.58 c-0.25,-6.14,-0.58,-13.36,-0.58,-19.17 c0,-1.91,0,-3.65,0.17,-5.15 c-4.32,-0.66,-5.98,-1.33,-5.98,-1.83 c0,-0.75,4.98,-1.24,9.55,-1.24 c3.98,0,7.88,0.25,7.88,1.08 c0,0.42,-1.74,1.25,-6.81,2.16 c0.08,10.46,0.33,14.77,0.5,21.58 c0,0.42,1.91,1.08,3.07,1.08 c1.08,0,0.75,-5.15,1.58,-5.15 c0.83,0,2.91,8.22,2.91,9.79 c0,0.33,-0.42,0.42,-1.0,0.42 c-1.08,0,-2.74,-0.33,-3.9,-0.33 c-0.42,0,-0.83,0.17,-0.91,0.33 c-2.49,11.37,-3.65,17.26,-3.65,23.24 c0,4.15,1.33,5.23,2.66,5.23 c1.0,0,1.74,-1.08,2.41,-2.66 c2.16,-4.73,3.74,-5.64,6.31,-5.64 c1.08,0,1.58,0.41,1.58,1.58 c0,2.91,-6.89,8.96,-11.95,8.96 c-3.4,0,-7.06,-2.49,-7.06,-8.05 c0,-5.06,2.57,-11.37,2.57,-17.02 c0,-3.9,-1.33,-7.22,-5.89,-9.21 Z M394.67,84.65 c0.66,2.49,0.91,6.39,0.91,10.71 c0,5.89,-0.41,12.7,-0.75,18.43 c-3.24,-1.33,-11.79,-3.4,-11.79,-4.56 c0,-1.16,2.41,-1.58,6.31,-1.58 c0.33,-2.08,0.58,-4.48,0.58,-6.89 c0,-11.87,-2.91,-15.85,-7.06,-15.85 c-4.15,0,-8.8,3.82,-8.8,11.62 c0,13.11,-0.58,15.94,-1.0,17.18 c-8.47,-2.74,-11.54,-4.9,-11.54,-6.06 c0,-0.33,0.5,-0.66,2.07,-0.66 c0.91,0,2.41,0.08,4.56,0.42 c0.33,-4.98,0.33,-10.54,0.33,-14.11 c0,-12.62,9.13,-14.36,11.45,-14.36 c4.98,0,8.63,6.56,9.13,6.56 c0.33,0,0.42,-0.25,0.42,-0.66 c0,-0.75,-0.33,-2.24,-0.33,-3.73 c0,-0.75,0,-1.33,0.25,-1.99 c3.32,0.58,10.29,4.98,10.29,6.06 c0,0.33,-0.25,0.5,-0.58,0.5 c-1.0,0,-3.57,-1.0,-4.48,-1.0 Z M407.78,83.57 c-4.32,-0.66,-5.98,-1.33,-5.98,-1.83 c0,-0.75,4.98,-1.24,9.55,-1.24 c3.98,0,7.88,0.25,7.88,1.08 c0,0.42,-1.74,1.25,-6.81,2.16 c0.41,35.19,4.07,47.73,4.07,56.11 c0,1.74,-0.08,3.57,-0.25,5.56 c-7.3,0,-11.29,-2.49,-13.36,-5.31 c0,-0.42,0.08,-0.5,0.25,-0.5 c0.33,0,1.16,0.66,2.41,0.66 c3.07,0,4.07,-3.98,4.07,-11.21 c0,-6.31,-1.91,-29.63,-1.91,-40.17 c0,-1.74,0,-3.57,0.08,-5.31 Z M407.78,83.57" fill="rgb(0,0,0)" transform="matrix(1,0,0,-1,0,200)"/>
</svg>