<?xml version="1.0" encoding="UTF-8"?>
<svg height="200" version="1.1" width="500" xmlns="http://www.w3.org/2000/svg" xmlns:xlink="http://www.w3.org/1999/xlink">
 <path d="M0,0 l500,0 l0,200 l-500,0 Z M0,0" fill="rgb(255,255,255)" transform="matrix(1,0,0,-1,0,200)"/>
 <path d="M188.62,57.68 c0.08,0.5,0.08,1.16,0.08,1.91 c0,6.72,-1.91,21.99,-1.91,27.22 c0,1.08,0.08,1.74,0.25,1.74 c1.16,0,2.91,-9.38,11.45,-9.38 c6.31,0,14.53,7.05,14.53,18.01 c0,8.55,-5.48,16.27,-16.43,16.27 c-3.98,0,-8.88,-6.97,-9.79,-6.97 c-0.25,0,-0.33,0.25,-0.33,0.66 c0,0.91,0.33,2.57,0.33,4.81 c-0.66,0.66,-1.66,0.91,-2.74,0.91 c-3.07,0,-6.97,-2.57,-6.97,-4.07 c0,-0.17,0.17,-0.17,0.58,-0.17 c0.5,0,1.33,0.08,2.24,0.08 c0.75,0,1.41,0,2.07,-0.25 c-0.08,-2.32,-0.17,-4.56,-0.17,-6.72 c0,-9.88,1.08,-18.09,1.08,-27.56 c0,-7.05,-1.0,-11.2,-3.98,-11.2 c-1.33,0,-2.32,0.91,-2.74,0.91 c-0.08,0,-0.17,-0.17,-0.17,-0.41 c3.9,-5.31,9.96,-5.81,12.62,-5.81 Z M202.4,84.15 c-5.64,0,-14.53,7.97,-14.53,15.77 c0,5.39,3.65,9.13,7.14,9.13 c5.06,0,14.28,-8.63,14.28,-16.19 c0,-5.81,-3.9,-8.72,-6.89,-8.72 Z M226.88,100.75 c-0.83,1.49,-1.33,2.74,-1.33,3.98 c0,3.82,4.73,6.31,7.8,6.31 c3.74,0,4.73,-4.32,4.73,-6.47 c0,-8.05,-14.19,-10.04,-17.68,-14.36 c-1.16,-1.49,-1.58,-2.82,-1.58,-4.07 c0,-3.15,3.32,-6.81,7.88,-6.81 c4.48,0,11.29,3.49,13.36,6.14 c0.5,-2.08,0.83,-6.89,2.99,-6.89 c3.4,0,6.64,3.9,6.72,5.4 c0,0.25,-0.08,0.33,-0.33,0.33 c-0.5,0,-1.58,-0.42,-3.4,-1.74 c-2.32,6.56,-1.99,14.86,-2.74,21.16 c-0.58,5.4,-1.66,9.71,-8.22,9.71 c-10.29,0,-14.19,-6.97,-14.19,-10.04 c0,-2.08,1.08,-3.65,2.99,-3.65 c0.91,0,1.83,0.33,2.99,1.0 Z M238.59,96.02 c0,-7.89,-1.74,-12.53,-7.14,-12.53 c-3.57,0,-5.15,2.24,-5.15,4.48 c0,3.98,8.8,5.89,11.45,9.46 c0.42,0.5,0.5,1.08,0.58,1.08 c0.25,0,0.25,-0.08,0.25,-2.49 Z M265.23,111.63 c3.74,0,7.88,-7.14,8.8,-7.14 c0.58,0,1.66,2.99,1.66,4.23 c0,3.24,-4.48,5.06,-8.96,5.06 c-5.31,0,-10.29,-3.07,-10.29,-9.05 c0,-10.54,14.86,-11.87,14.86,-17.76 c0,-2.08,-3.32,-4.15,-6.39,-4.15 c-1.58,0,-3.32,0.75,-4.07,1.99 c-1.49,2.49,-4.81,1.74,-6.39,6.06 c-0.33,1.0,-0.66,2.49,-1.0,2.49 c-0.58,0,-0.75,-1.83,-0.75,-2.66 c0,-3.57,3.32,-11.79,11.12,-11.79 c5.64,0,11.87,4.81,11.87,11.45 c0,9.13,-15.02,10.29,-15.02,16.43 c0,1.83,2.66,4.81,4.56,4.81 Z M290.38,134.7 c-2.57,0,-5.06,-2.07,-5.06,-4.56 c0,-2.41,1.41,-4.73,4.07,-4.73 c1.25,0,5.06,1.58,5.06,4.73 c0,2.07,-1.91,4.56,-4.07,4.56 Z M291.13,99.67 c0,2.74,1.74,12.2,1.74,16.43 c-0.08,0.17,-0.17,0.17,-0.58,0.17 c-2.49,-3.24,-9.55,-7.72,-12.45,-10.54 c0,-0.42,0.25,-0.58,0.42,-0.58 c1.33,0.5,2.32,0.75,3.15,0.75 c1.83,0,2.49,-1.24,2.49,-4.23 c-0.08,-3.49,-0.58,-6.81,-0.58,-10.21 c0,-2.57,0.25,-5.15,1.16,-7.97 c-4.32,-0.58,-5.98,-1.33,-5.98,-1.74 c0,-0.66,4.98,-1.24,9.55,-1.24 c3.98,0,6.06,0.58,6.06,1.16 c0,0.58,-2.24,1.49,-4.98,1.91 c-0.5,2.24,-0.58,4.4,-0.58,6.31 c0,3.9,0.58,7.22,0.58,9.79 Z M311.13,111.63 c3.74,0,7.88,-7.14,8.8,-7.14 c0.58,0,1.66,2.99,1.66,4.23 c0,3.24,-4.48,5.06,-8.96,5.06 c-5.31,0,-10.29,-3.07,-10.29,-9.05 c0,-10.54,14.86,-11.87,14.86,-17.76 c0,-2.08,-3.32,-4.15,-6.39,-4.15 c-1.58,0,-3.32,0.75,-4.07,1.99 c-1.49,2.49,-4.81,1.74,-6.39,6.06 c-0.33,1.0,-0.66,2.49,-1.0,2.49 c-0.58,0,-0.75,-1.83,-0.75,-2.66 c0,-3.57,3.32,-11.79,11.12,-11.79 c5.64,0,11.87,4.81,11.87,11.45 c0,9.13,-15.02,10.29,-15.02,16.43 c0,1.83,2.66,4.81,4.56,4.81 Z M311.13,111.63" fill="rgb(0,0,0)" transform="matrix(1,0,0,-1,0,200)"/>
</svg>