<?xml version="1.0" encoding="UTF-8"?>
<svg height="200" version="1.1" width="500" xmlns="http://www.w3.org/2000/svg" xmlns:xlink="http://www.w3.org/1999/xlink">
 <path d="M0,0 l500,0 l0,200 l-500,0 Z M0,0" fill="rgb(255,255,255)" transform="matrix(1,0,0,-1,0,200)"/>
 <path d="M184.06,107.39 c0,-1.16,0.66,-2.08,0.66,-3.32 c0,-1.08,-0.83,-2.49,-0.83,-3.24 c0,-0.25,0.17,-0.41,0.58,-0.41 c1.74,0,4.73,4.65,4.73,8.63 c0,2.82,-2.16,5.39,-4.48,5.39 c-3.49,0,-8.13,-7.3,-8.63,-7.3 c-0.17,0,-0.33,0.25,-0.33,0.75 c0,1.49,1.49,5.81,1.49,8.22 c0,0.08,-0.08,0.42,-0.33,0.42 c-0.08,0,-0.17,-0.08,-0.25,-0.25 c-2.49,-3.24,-9.79,-7.97,-12.7,-10.71 c0,-0.33,0.08,-0.42,0.33,-0.42 c0.75,0,2.07,0.75,3.49,0.75 c1.83,0,2.49,-1.24,2.49,-4.23 c0,-1.41,-0.5,-5.06,-0.5,-9.38 c0,-2.91,0.17,-6.06,1.08,-8.8 c-4.32,-0.58,-5.98,-1.33,-5.98,-1.74 c0,-0.66,4.98,-1.24,9.55,-1.24 c3.98,0,6.06,0.5,6.06,1.16 c0,0.58,-2.24,1.49,-4.98,1.91 c-0.5,2.32,-0.66,4.48,-0.66,6.39 c0,3.9,0.66,7.14,0.66,9.71 c0,5.39,5.81,10.04,7.3,10.04 c1.16,0,1.25,-1.25,1.25,-2.32 Z M200.99,134.7 c-2.57,0,-5.06,-2.07,-5.06,-4.56 c0,-2.41,1.41,-4.73,4.07,-4.73 c1.25,0,5.06,1.58,5.06,4.73 c0,2.07,-1.91,4.56,-4.07,4.56 Z M201.74,99.67 c0,2.74,1.74,12.2,1.74,16.43 c-0.08,0.17,-0.17,0.17,-0.58,0.17 c-2.49,-3.24,-9.54,-7.72,-12.45,-10.54 c0,-0.42,0.25,-0.58,0.41,-0.58 c1.33,0.5,2.32,0.75,3.15,0.75 c1.83,0,2.49,-1.24,2.49,-4.23 c-0.08,-3.49,-0.58,-6.81,-0.58,-10.21 c0,-2.57,0.25,-5.15,1.16,-7.97 c-4.32,-0.58,-5.98,-1.33,-5.98,-1.74 c0,-0.66,4.98,-1.24,9.55,-1.24 c3.98,0,6.06,0.58,6.06,1.16 c0,0.58,-2.24,1.49,-4.98,1.91 c-0.5,2.24,-0.58,4.4,-0.58,6.31 c0,3.9,0.58,7.22,0.58,9.79 Z M228.05,85.4 c-5.15,0,-11.12,4.48,-11.12,14.11 c0,3.98,1.99,11.21,7.55,11.21 c4.9,0,12.62,-6.56,12.62,-13.61 c0,-4.4,-4.73,-11.7,-9.05,-11.7 Z M234.35,128.81 c0,-4.56,0.75,-10.29,1.33,-18.09 c-3.73,2.41,-5.56,3.15,-8.55,3.15 c-9.79,0,-16.43,-7.97,-16.43,-17.26 c0,-8.63,5.06,-17.51,15.85,-17.51 c2.91,0,8.38,5.56,10.54,10.38 c0.08,0.17,0.33,0.25,0.41,0.25 c0.17,0,0.25,-0.08,0.25,-0.33 c0,-2.24,-0.58,-8.8,-0.58,-9.63 c0.75,-0.66,1.66,-0.91,2.66,-0.91 c3.07,0,6.81,2.49,6.81,3.98 c-0.08,0.25,-0.41,0.33,-0.58,0.33 c-0.66,0,-1.49,-0.66,-4.07,-0.66 c0.08,1.99,0.08,3.9,0.08,5.98 c0,14.61,-2.07,25.98,-2.07,36.27 c0,2.08,0.42,8.13,0.42,9.71 c0,4.81,-0.17,7.55,-0.5,10.96 c-6.72,0,-11.62,-2.66,-13.36,-5.56 c0,-0.25,0.08,-0.25,0.17,-0.25 c0.41,0,1.49,0.66,2.82,0.66 c3.57,0,4.81,-4.32,4.81,-11.45 Z M268.63,85.4 c-5.15,0,-11.12,4.48,-11.12,14.11 c0,3.98,1.99,11.21,7.55,11.21 c4.9,0,12.62,-6.56,12.62,-13.61 c0,-4.4,-4.73,-11.7,-9.05,-11.7 Z M274.94,128.81 c0,-4.56,0.75,-10.29,1.33,-18.09 c-3.74,2.41,-5.56,3.15,-8.55,3.15 c-9.79,0,-16.43,-7.97,-16.43,-17.26 c0,-8.63,5.06,-17.51,15.85,-17.51 c2.9,0,8.38,5.56,10.54,10.38 c0.08,0.17,0.33,0.25,0.41,0.25 c0.17,0,0.25,-0.08,0.25,-0.33 c0,-2.24,-0.58,-8.8,-0.58,-9.63 c0.75,-0.66,1.66,-0.91,2.66,-0.91 c3.07,0,6.81,2.49,6.81,3.98 c-0.08,0.25,-0.41,0.33,-0.58,0.33 c-0.66,0,-1.49,-0.66,-4.07,-0.66 c0.08,1.99,0.08,3.9,0.08,5.98 c0,14.61,-2.07,25.98,-2.07,36.27 c0,2.08,0.42,8.13,0.42,9.71 c0,4.81,-0.17,7.55,-0.5,10.96 c-6.72,0,-11.62,-2.66,-13.36,-5.56 c0,-0.25,0.08,-0.25,0.17,-0.25 c0.41,0,1.49,0.66,2.82,0.66 c3.57,0,4.81,-4.32,4.81,-11.45 Z M294.61,83.57 c-4.32,-0.66,-5.98,-1.33,-5.98,-1.83 c0,-0.75,4.98,-1.24,9.55,-1.24 c3.98,0,7.88,0.25,7.88,1.08 c0,0.42,-1.74,1.25,-6.81,2.16 c0.41,35.19,4.07,47.73,4.07,56.11 c0,1.74,-0.08,3.57,-0.25,5.56 c-7.3,0,-11.29,-2.49,-13.36,-5.31 c0,-0.42,0.08,-0.5,0.25,-0.5 c0.33,0,1.16,0.66,2.41,0.66 c3.07,0,4.07,-3.98,4.07,-11.21 c0,-6.31,-1.91,-29.63,-1.91,-40.17 c0,-1.74,0,-3.57,0.08,-5.31 Z M321.84,81.58 c-1.58,-4.56,-6.56,-20.67,-9.71,-20.67 c-2.66,0,-4.48,7.39,-5.06,7.39 c-1.0,0,-2.24,-2.41,-2.24,-4.15 c0,-5.15,3.98,-7.47,5.23,-7.47 c8.55,0,24.24,41.75,25.81,52.54 c2.41,1.33,3.4,2.24,3.4,2.82 c0,0.58,-1.08,0.75,-2.49,0.75 c-3.82,0,-10.29,-1.66,-10.29,-2.99 c0,-0.41,1.49,-0.75,4.07,-0.91 c-0.5,-5.81,-2.16,-17.35,-5.23,-21.83 c-4.07,9.13,-5.89,10.87,-9.63,22.58 c2.41,0.91,3.4,1.49,3.4,1.91 c0,0.41,-0.91,0.5,-2.16,0.5 c-3.98,0,-12.53,-1.91,-12.53,-3.4 c0,-0.5,1.49,-1.0,5.15,-1.25 c4.56,-11.37,8.38,-21.75,12.28,-25.81 Z M321.84,81.58" fill="rgb(0,0,0)" transform="matrix(1,0,0,-1,0,200)"/>
</svg>