<?xml version="1.0" encoding="UTF-8"?>
<svg height="200" version="1.1" width="500" xmlns="http://www.w3.org/2000/svg" xmlns:xlink="http://www.w3.org/1999/xlink">
 <path d="M0,0 l500,0 l0,200 l-500,0 Z M0,0" fill="rgb(255,255,255)" transform="matrix(1,0,0,-1,0,200)"/>
 <path d="M182.69,107.39 c0,-1.16,0.66,-2.08,0.66,-3.32 c0,-1.08,-0.83,-2.49,-0.83,-3.24 c0,-0.25,0.17,-0.41,0.58,-0.41 c1.74,0,4.73,4.65,4.73,8.63 c0,2.82,-2.16,5.39,-4.48,5.39 c-3.49,0,-8.13,-7.3,-8.63,-7.3 c-0.17,0,-0.33,0.25,-0.33,0.75 c0,1.49,1.49,5.81,1.49,8.22 c0,0.08,-0.08,0.42,-0.33,0.42 c-0.08,0,-0.17,-0.08,-0.25,-0.25 c-2.49,-3.24,-9.79,-7.97,-12.7,-10.71 c0,-0.33,0.08,-0.42,0.33,-0.42 c0.75,0,2.07,0.75,3.49,0.75 c1.83,0,2.49,-1.24,2.49,-4.23 c0,-1.41,-0.5,-5.06,-0.5,-9.38 c0,-2.91,0.17,-6.06,1.08,-8.8 c-4.32,-0.58,-5.98,-1.33,-5.98,-1.74 c0,-0.66,4.98,-1.24,9.55,-1.24 c3.98,0,6.06,0.5,6.06,1.16 c0,0.58,-2.24,1.49,-4.98,1.91 c-0.5,2.32,-0.66,4.48,-0.66,6.39 c0,3.9,0.66,7.14,0.66,9.71 c0,5.39,5.81,10.04,7.3,10.04 c1.16,0,1.25,-1.25,1.25,-2.32 Z M220.95,84.65 c0.66,2.49,0.91,6.39,0.91,10.71 c0,5.89,-0.41,12.7,-0.75,18.43 c-3.24,-1.33,-11.79,-3.4,-11.79,-4.56 c0,-1.16,2.41,-1.58,6.31,-1.58 c0.33,-2.08,0.58,-4.48,0.58,-6.89 c0,-11.87,-2.91,-15.85,-7.06,-15.85 c-4.15,0,-8.8,3.82,-8.8,11.62 c0,13.11,-0.58,15.94,-1.0,17.18 c-8.47,-2.74,-11.54,-4.9,-11.54,-6.06 c0,-0.33,0.5,-0.66,2.07,-0.66 c0.91,0,2.41,0.08,4.56,0.42 c0.33,-4.98,0.33,-10.54,0.33,-14.11 c0,-12.62,9.13,-14.36,11.45,-14.36 c4.98,0,8.63,6.56,9.13,6.56 c0.33,0,0.41,-0.25,0.41,-0.66 c0,-0.75,-0.33,-2.24,-0.33,-3.73 c0,-0.75,0,-1.33,0.25,-1.99 c3.32,0.58,10.29,4.98,10.29,6.06 c0,0.33,-0.25,0.5,-0.58,0.5 c-1.0,0,-3.57,-1.0,-4.48,-1.0 Z M252.91,83.49 c-5.06,0,-14.61,8.55,-14.61,17.35 c0,6.31,4.32,9.05,7.14,9.05 c5.4,0,14.53,-9.79,14.53,-17.6 c0,-5.89,-4.4,-8.8,-7.06,-8.8 Z M238.05,88.72 c2.07,-5.06,5.15,-9.63,10.62,-9.63 c9.63,0,15.85,9.46,15.85,18.34 c0,8.22,-5.73,16.02,-15.44,16.02 c-2.99,0,-6.31,-0.75,-9.96,-2.57 c1.16,14.36,2.74,20.83,2.74,29.05 c0,1.74,-0.08,3.57,-0.25,5.64 c-2.91,0,-9.63,-0.5,-13.53,-5.89 c0.17,0,0.25,-0.25,0.33,-0.25 c1.08,0.58,1.91,0.75,2.57,0.75 c3.07,0,3.98,-4.15,3.98,-11.12 c0,-10.29,-1.91,-25.98,-1.91,-40.59 c0,-2.08,0,-3.98,0.08,-5.98 c-2.74,-0.66,-4.15,-1.41,-4.15,-1.99 c0,-0.91,1.25,-1.33,3.07,-1.33 c1.99,0,4.4,0.5,5.89,1.99 c0,1.33,-0.66,5.31,-0.66,7.47 c0,0.17,0.25,0.25,0.33,0.25 c0.17,0,0.33,-0.08,0.41,-0.17 Z M274.49,83.57 c-4.32,-0.66,-5.98,-1.33,-5.98,-1.83 c0,-0.75,4.98,-1.24,9.55,-1.24 c3.98,0,7.88,0.25,7.88,1.08 c0,0.42,-1.74,1.25,-6.81,2.16 c0.41,35.19,4.07,47.73,4.07,56.11 c0,1.74,-0.08,3.57,-0.25,5.56 c-7.3,0,-11.29,-2.49,-13.36,-5.31 c0,-0.42,0.08,-0.5,0.25,-0.5 c0.33,0,1.16,0.66,2.41,0.66 c3.07,0,4.07,-3.98,4.07,-11.21 c0,-6.31,-1.91,-29.63,-1.91,-40.17 c0,-1.74,0,-3.57,0.08,-5.31 Z M297.73,134.7 c-2.57,0,-5.06,-2.07,-5.06,-4.56 c0,-2.41,1.41,-4.73,4.07,-4.73 c1.25,0,5.06,1.58,5.06,4.73 c0,2.07,-1.91,4.56,-4.07,4.56 Z M298.47,99.67 c0,2.74,1.74,12.2,1.74,16.43 c-0.08,0.17,-0.17,0.17,-0.58,0.17 c-2.49,-3.24,-9.55,-7.72,-12.45,-10.54 c0,-0.42,0.25,-0.58,0.42,-0.58 c1.33,0.5,2.32,0.75,3.15,0.75 c1.83,0,2.49,-1.24,2.49,-4.23 c-0.08,-3.49,-0.58,-6.81,-0.58,-10.21 c0,-2.57,0.25,-5.15,1.16,-7.97 c-4.32,-0.58,-5.98,-1.33,-5.98,-1.74 c0,-0.66,4.98,-1.24,9.55,-1.24 c3.98,0,6.06,0.58,6.06,1.16 c0,0.58,-2.24,1.49,-4.98,1.91 c-0.5,2.24,-0.58,4.4,-0.58,6.31 c0,3.9,0.58,7.22,0.58,9.79 Z M327.69,82.99 c-0.41,-0.66,-1.16,-1.0,-2.07,-1.0 c-5.73,0,-12.53,9.05,-12.53,18.43 c0,8.38,6.81,9.05,10.29,9.05 c5.64,0,4.65,-8.13,6.81,-8.13 c1.66,0,4.73,4.23,4.73,6.56 c0,3.15,-3.24,5.56,-8.22,5.56 c-12.53,0,-19.17,-8.55,-19.17,-17.35 c0,-9.79,4.98,-16.77,16.1,-16.77 c6.31,0,12.86,2.99,12.86,8.22 c0,2.49,-1.41,6.64,-1.83,6.64 c-0.91,0,-0.5,-5.15,-1.99,-7.3 c-1.58,-2.32,-3.65,-2.07,-4.98,-3.9 Z M327.69,82.99" fill="rgb(0,0,0)" transform="matrix(1,0,0,-1,0,200)"/>
</svg>