<?xml version="1.0" encoding="UTF-8"?>
<svg height="200" version="1.1" width="500" xmlns="http://www.w3.org/2000/svg" xmlns:xlink="http://www.w3.org/1999/xlink">
 <path d="M0,0 l500,0 l0,200 l-500,0 Z M0,0" fill="rgb(255,255,255)" transform="matrix(1,0,0,-1,0,200)"/>
 <path d="M116.16,111.63 c3.73,0,7.88,-7.14,8.8,-7.14 c0.58,0,1.66,2.99,1.66,4.23 c0,3.24,-4.48,5.06,-8.96,5.06 c-5.31,0,-10.29,-3.07,-10.29,-9.05 c0,-10.54,14.86,-11.87,14.86,-17.76 c0,-2.08,-3.32,-4.15,-6.39,-4.15 c-1.58,0,-3.32,0.75,-4.07,1.99 c-1.49,2.49,-4.81,1.74,-6.39,6.06 c-0.33,1.0,-0.66,2.49,-1.0,2.49 c-0.58,0,-0.75,-1.83,-0.75,-2.66 c0,-3.57,3.32,-11.79,11.12,-11.79 c5.64,0,11.87,4.81,11.87,11.45 c0,9.13,-15.02,10.29,-15.02,16.43 c0,1.83,2.66,4.81,4.57,4.81 Z M141.31,134.7 c-2.57,0,-5.06,-2.07,-5.06,-4.56 c0,-2.41,1.41,-4.73,4.07,-4.73 c1.25,0,5.06,1.58,5.06,4.73 c0,2.07,-1.91,4.56,-4.07,4.56 Z M142.06,99.67 c0,2.74,1.74,12.2,1.74,16.43 c-0.08,0.17,-0.17,0.17,-0.58,0.17 c-2.49,-3.24,-9.54,-7.72,-12.45,-10.54 c0,-0.42,0.25,-0.58,0.41,-0.58 c1.33,0.5,2.32,0.75,3.15,0.75 c1.83,0,2.49,-1.24,2.49,-4.23 c-0.08,-3.49,-0.58,-6.81,-0.58,-10.21 c0,-2.57,0.25,-5.15,1.16,-7.97 c-4.32,-0.58,-5.98,-1.33,-5.98,-1.74 c0,-0.66,4.98,-1.24,9.55,-1.24 c3.98,0,6.06,0.58,6.06,1.16 c0,0.58,-2.24,1.49,-4.98,1.91 c-0.5,2.24,-0.58,4.4,-0.58,6.31 c0,3.9,0.58,7.22,0.58,9.79 Z M178.33,106.89 c-0.58,0,-0.66,1.25,-1.91,2.57 c-1.49,1.99,-5.23,4.32,-8.88,4.32 c-2.9,0,-4.4,-6.47,-5.73,-6.47 c-0.08,0,-0.25,0.17,-0.25,0.58 c0,1.33,0.66,4.56,0.66,8.22 c-0.17,0.17,-0.25,0.17,-0.66,0.17 c-2.49,-3.24,-9.46,-7.72,-12.37,-10.54 c0,-0.5,0.08,-0.66,0.25,-0.66 c0.5,0,1.58,0.83,3.32,0.83 c1.74,0,2.41,-1.24,2.41,-4.23 c0,-1.66,-0.66,-6.23,-0.66,-10.62 c0,-2.57,0.33,-5.15,1.0,-7.05 c-3.24,-0.91,-4.48,-1.66,-4.48,-2.32 c0,-0.83,3.49,-1.16,6.72,-1.16 c2.91,0,6.56,0.25,6.56,1.08 c0,0.42,-1.08,0.83,-3.98,1.41 c-0.33,1.66,-0.58,3.9,-0.58,6.31 c0,14.69,3.24,18.59,7.3,18.59 c3.24,0,7.39,-5.48,7.39,-9.3 c0,-3.82,-1.08,-7.3,-1.08,-15.19 c-3.82,-0.5,-4.4,-1.08,-4.4,-1.41 c0,-0.83,4.98,-1.49,8.8,-1.49 c1.99,0,4.23,0.25,4.23,0.75 c0,0.58,-1.08,1.24,-3.9,2.24 c1.0,7.47,1.16,11.45,1.16,14.19 c0,1.74,-0.08,2.99,-0.17,4.32 c0.91,4.23,2.41,5.89,4.98,5.89 c2.74,0,7.47,-4.56,7.47,-10.71 c0,-1.49,-0.08,-3.4,-0.08,-5.48 c0,-2.82,0.17,-5.81,0.75,-8.3 c-3.65,-0.5,-4.4,-1.08,-4.4,-1.41 c0,-0.91,4.98,-1.49,8.8,-1.49 c1.99,0,4.23,0.25,4.23,0.75 c0,0.66,-1.08,1.24,-3.9,2.24 c-0.75,8.96,-0.08,16.43,-1.41,21.75 c-1.83,6.97,-8.05,8.55,-10.71,8.55 c-3.9,0,-3.15,-5.06,-6.47,-6.89 Z M214.35,134.7 c-2.57,0,-5.06,-2.07,-5.06,-4.56 c0,-2.41,1.41,-4.73,4.07,-4.73 c1.25,0,5.06,1.58,5.06,4.73 c0,2.07,-1.91,4.56,-4.07,4.56 Z M215.1,99.67 c0,2.74,1.74,12.2,1.74,16.43 c-0.08,0.17,-0.17,0.17,-0.58,0.17 c-2.49,-3.24,-9.54,-7.72,-12.45,-10.54 c0,-0.42,0.25,-0.58,0.41,-0.58 c1.33,0.5,2.32,0.75,3.15,0.75 c1.83,0,2.49,-1.24,2.49,-4.23 c-0.08,-3.49,-0.58,-6.81,-0.58,-10.21 c0,-2.57,0.25,-5.15,1.16,-7.97 c-4.32,-0.58,-5.98,-1.33,-5.98,-1.74 c0,-0.66,4.98,-1.24,9.55,-1.24 c3.98,0,6.06,0.58,6.06,1.16 c0,0.58,-2.24,1.49,-4.98,1.91 c-0.5,2.24,-0.58,4.4,-0.58,6.31 c0,3.9,0.58,7.22,0.58,9.79 Z M228.05,83.99 c-3.24,-0.91,-4.48,-1.66,-4.48,-2.32 c0,-0.83,3.49,-1.16,6.72,-1.16 c2.91,0,6.72,0.25,6.72,1.08 c0,0.58,-1.16,0.83,-4.15,1.41 c-0.41,1.91,-0.66,4.15,-0.66,6.39 c0,5.06,0.91,10.21,1.49,12.53 c1.08,4.32,4.15,5.73,6.81,5.73 c2.49,0,5.23,-1.74,6.39,-3.32 c4.15,-5.48,1.25,-10.04,3.57,-20.92 c-3.73,-0.5,-4.32,-1.08,-4.32,-1.41 c0,-0.83,4.9,-1.49,8.72,-1.49 c1.99,0,4.23,0.17,4.23,0.83 c0,0.58,-1.08,1.16,-3.82,2.16 c-0.83,8.96,-0.08,16.43,-1.49,21.75 c-1.83,7.06,-8.22,8.55,-10.71,8.55 c-4.15,0,-7.97,-6.47,-8.72,-6.47 c-0.17,0,-0.17,0.25,-0.17,0.75 c0,1.66,0.58,5.23,0.58,8.05 c-0.17,0.17,-0.25,0.17,-0.58,0.17 c-2.57,-3.24,-9.54,-7.72,-12.45,-10.54 c0,-0.5,0.08,-0.58,0.41,-0.58 c0.41,0,1.49,0.75,3.15,0.75 c1.74,0,2.41,-1.24,2.41,-4.23 c0,-1.58,-0.66,-6.23,-0.66,-10.62 c0,-2.57,0.33,-5.23,1.0,-7.05 Z M272.45,134.7 c-2.57,0,-5.06,-2.07,-5.06,-4.56 c0,-2.41,1.41,-4.73,4.07,-4.73 c1.25,0,5.06,1.58,5.06,4.73 c0,2.07,-1.91,4.56,-4.07,4.56 Z M273.2,99.67 c0,2.74,1.74,12.2,1.74,16.43 c-0.08,0.17,-0.17,0.17,-0.58,0.17 c-2.49,-3.24,-9.55,-7.72,-12.45,-10.54 c0,-0.42,0.25,-0.58,0.42,-0.58 c1.33,0.5,2.32,0.75,3.15,0.75 c1.83,0,2.49,-1.24,2.49,-4.23 c-0.08,-3.49,-0.58,-6.81,-0.58,-10.21 c0,-2.57,0.25,-5.15,1.16,-7.97 c-4.32,-0.58,-5.98,-1.33,-5.98,-1.74 c0,-0.66,4.98,-1.24,9.55,-1.24 c3.98,0,6.06,0.58,6.06,1.16 c0,0.58,-2.24,1.49,-4.98,1.91 c-0.5,2.24,-0.58,4.4,-0.58,6.31 c0,3.9,0.58,7.22,0.58,9.79 Z M286.15,108.55 c0.5,0.66,1.25,0.91,1.74,0.91 c0.25,0,4.48,-1.0,8.13,-1.0 c0.91,0,1.66,0.08,2.32,0.17 c0,-1.91,-15.52,-25.15,-15.52,-27.39 c0,-0.17,0,-0.25,0.17,-0.25 c0.83,0,9.96,-0.75,16.27,-0.75 c3.07,0,5.56,0.25,5.81,0.75 c0.58,1.16,2.08,5.98,2.08,9.38 c0,1.91,-0.5,2.24,-0.58,2.24 c-0.25,0,-0.42,-0.17,-0.5,-0.58 c-0.83,-3.73,-4.48,-8.47,-5.81,-8.47 c-1.49,0.17,-9.55,0.66,-9.55,1.49 c0.08,0.42,15.11,21.33,15.11,25.98 c0,0.58,-13.45,1.74,-19.42,1.74 c-1.49,0,-2.49,-0.08,-2.66,-0.25 c-0.58,-0.58,-1.83,-6.06,-1.91,-9.21 c-0.08,-1.58,0.17,-2.08,0.75,-2.08 c0.58,4.15,1.33,4.4,3.57,7.3 Z M338.52,102.83 c0,9.05,-6.06,10.62,-10.46,10.62 c-7.72,0,-15.11,-7.3,-15.11,-18.92 c0,-7.8,6.14,-15.19,16.35,-15.19 c6.31,0,12.78,2.99,12.78,8.22 c0,2.49,-1.33,6.64,-1.91,6.64 c-0.75,0,-0.58,-5.48,-1.91,-7.3 c-1.66,-2.32,-3.65,-1.99,-5.23,-3.98 c-0.5,-0.58,-1.08,-0.91,-1.91,-0.91 c-4.48,0,-12.45,7.22,-12.45,17.76 c0,0.33,19.26,1.91,19.84,3.07 Z M319.1,102.16 c-0.17,0.58,-0.25,1.16,-0.25,1.58 c0,4.4,4.65,5.48,5.48,5.48 c3.15,0,7.97,-3.82,7.97,-4.9 c0,-0.17,-0.08,-0.25,-0.33,-0.25 Z M365.33,107.39 c0,-1.16,0.66,-2.08,0.66,-3.32 c0,-1.08,-0.83,-2.49,-0.83,-3.24 c0,-0.25,0.17,-0.41,0.58,-0.41 c1.74,0,4.73,4.65,4.73,8.63 c0,2.82,-2.16,5.39,-4.48,5.39 c-3.49,0,-8.13,-7.3,-8.63,-7.3 c-0.17,0,-0.33,0.25,-0.33,0.75 c0,1.49,1.49,5.81,1.49,8.22 c0,0.08,-0.08,0.42,-0.33,0.42 c-0.08,0,-0.17,-0.08,-0.25,-0.25 c-2.49,-3.24,-9.79,-7.97,-12.7,-10.71 c0,-0.33,0.08,-0.42,0.33,-0.42 c0.75,0,2.08,0.75,3.49,0.75 c1.83,0,2.49,-1.24,2.49,-4.23 c0,-1.41,-0.5,-5.06,-0.5,-9.38 c0,-2.91,0.17,-6.06,1.08,-8.8 c-4.32,-0.58,-5.98,-1.33,-5.98,-1.74 c0,-0.66,4.98,-1.24,9.55,-1.24 c3.98,0,6.06,0.5,6.06,1.16 c0,0.58,-2.24,1.49,-4.98,1.91 c-0.5,2.32,-0.66,4.48,-0.66,6.39 c0,3.9,0.66,7.14,0.66,9.71 c0,5.39,5.81,10.04,7.3,10.04 c1.16,0,1.25,-1.25,1.25,-2.32 Z M384.92,111.63 c3.74,0,7.88,-7.14,8.8,-7.14 c0.58,0,1.66,2.99,1.66,4.23 c0,3.24,-4.48,5.06,-8.96,5.06 c-5.31,0,-10.29,-3.07,-10.29,-9.05 c0,-10.54,14.86,-11.87,14.86,-17.76 c0,-2.08,-3.32,-4.15,-6.39,-4.15 c-1.58,0,-3.32,0.75,-4.07,1.99 c-1.49,2.49,-4.81,1.74,-6.39,6.06 c-0.33,1.0,-0.66,2.49,-1.0,2.49 c-0.58,0,-0.75,-1.83,-0.75,-2.66 c0,-3.57,3.32,-11.79,11.12,-11.79 c5.64,0,11.87,4.81,11.87,11.45 c0,9.13,-15.02,10.29,-15.02,16.43 c0,1.83,2.66,4.81,4.56,4.81 Z M384.92,111.63" fill="rgb(0,0,0)" transform="matrix(1,0,0,-1,0,200)"/>
</svg>