<?xml version="1.0" encoding="UTF-8"?>
<svg height="200" version="1.1" width="500" xmlns="http://www.w3.org/2000/svg" xmlns:xlink="http://www.w3.org/1999/xlink">
 <path d="M0,0 l500,0 l0,200 l-500,0 Z M0,0" fill="rgb(255,255,255)" transform="matrix(1,0,0,-1,0,200)"/>
 <path d="M184.64,84.65 c0.66,2.49,0.91,6.39,0.91,10.71 c0,5.89,-0.41,12.7,-0.75,18.43 c-3.24,-1.33,-11.79,-3.4,-11.79,-4.56 c0,-1.16,2.41,-1.58,6.31,-1.58 c0.33,-2.08,0.58,-4.48,0.58,-6.89 c0,-11.87,-2.91,-15.85,-7.06,-15.85 c-4.15,0,-8.8,3.82,-8.8,11.62 c0,13.11,-0.58,15.94,-1.0,17.18 c-8.47,-2.74,-11.54,-4.9,-11.54,-6.06 c0,-0.33,0.5,-0.66,2.07,-0.66 c0.91,0,2.41,0.08,4.57,0.42 c0.33,-4.98,0.33,-10.54,0.33,-14.11 c0,-12.62,9.13,-14.36,11.45,-14.36 c4.98,0,8.63,6.56,9.13,6.56 c0.33,0,0.41,-0.25,0.41,-0.66 c0,-0.75,-0.33,-2.24,-0.33,-3.73 c0,-0.75,0,-1.33,0.25,-1.99 c3.32,0.58,10.29,4.98,10.29,6.06 c0,0.33,-0.25,0.5,-0.58,0.5 c-1.0,0,-3.57,-1.0,-4.48,-1.0 Z M204.72,57.68 c0.08,0.5,0.08,1.16,0.08,1.91 c0,6.72,-1.91,21.99,-1.91,27.22 c0,1.08,0.08,1.74,0.25,1.74 c1.16,0,2.91,-9.38,11.45,-9.38 c6.31,0,14.52,7.05,14.52,18.01 c0,8.55,-5.48,16.27,-16.43,16.27 c-3.98,0,-8.88,-6.97,-9.79,-6.97 c-0.25,0,-0.33,0.25,-0.33,0.66 c0,0.91,0.33,2.57,0.33,4.81 c-0.66,0.66,-1.66,0.91,-2.74,0.91 c-3.07,0,-6.97,-2.57,-6.97,-4.07 c0,-0.17,0.17,-0.17,0.58,-0.17 c0.5,0,1.33,0.08,2.24,0.08 c0.75,0,1.41,0,2.07,-0.25 c-0.08,-2.32,-0.17,-4.56,-0.17,-6.72 c0,-9.88,1.08,-18.09,1.08,-27.56 c0,-7.05,-1.0,-11.2,-3.98,-11.2 c-1.33,0,-2.32,0.91,-2.74,0.91 c-0.08,0,-0.17,-0.17,-0.17,-0.41 c3.9,-5.31,9.96,-5.81,12.62,-5.81 Z M218.5,84.15 c-5.64,0,-14.53,7.97,-14.53,15.77 c0,5.39,3.65,9.13,7.14,9.13 c5.06,0,14.28,-8.63,14.28,-16.19 c0,-5.81,-3.9,-8.72,-6.89,-8.72 Z M257.51,83.49 c-5.06,0,-14.61,8.55,-14.61,17.35 c0,6.31,4.32,9.05,7.14,9.05 c5.4,0,14.53,-9.79,14.53,-17.6 c0,-5.89,-4.4,-8.8,-7.06,-8.8 Z M242.65,88.72 c2.07,-5.06,5.15,-9.63,10.62,-9.63 c9.63,0,15.85,9.46,15.85,18.34 c0,8.22,-5.73,16.02,-15.44,16.02 c-2.99,0,-6.31,-0.75,-9.96,-2.57 c1.16,14.36,2.74,20.83,2.74,29.05 c0,1.74,-0.08,3.57,-0.25,5.64 c-2.91,0,-9.63,-0.5,-13.53,-5.89 c0.17,0,0.25,-0.25,0.33,-0.25 c1.08,0.58,1.91,0.75,2.57,0.75 c3.07,0,3.98,-4.15,3.98,-11.12 c0,-10.29,-1.91,-25.98,-1.91,-40.59 c0,-2.08,0,-3.98,0.08,-5.98 c-2.74,-0.66,-4.15,-1.41,-4.15,-1.99 c0,-0.91,1.25,-1.33,3.07,-1.33 c1.99,0,4.4,0.5,5.89,1.99 c0,1.33,-0.66,5.31,-0.66,7.47 c0,0.17,0.25,0.25,0.33,0.25 c0.17,0,0.33,-0.08,0.41,-0.17 Z M301.92,102.83 c0,9.05,-6.06,10.62,-10.46,10.62 c-7.72,0,-15.11,-7.3,-15.11,-18.92 c0,-7.8,6.14,-15.19,16.35,-15.19 c6.31,0,12.78,2.99,12.78,8.22 c0,2.49,-1.33,6.64,-1.91,6.64 c-0.75,0,-0.58,-5.48,-1.91,-7.3 c-1.66,-2.32,-3.65,-1.99,-5.23,-3.98 c-0.5,-0.58,-1.08,-0.91,-1.91,-0.91 c-4.48,0,-12.45,7.22,-12.45,17.76 c0,0.33,19.26,1.91,19.84,3.07 Z M282.49,102.16 c-0.17,0.58,-0.25,1.16,-0.25,1.58 c0,4.4,4.65,5.48,5.48,5.48 c3.15,0,7.97,-3.82,7.97,-4.9 c0,-0.17,-0.08,-0.25,-0.33,-0.25 Z M313.79,83.57 c-4.32,-0.66,-5.98,-1.33,-5.98,-1.83 c0,-0.75,4.98,-1.24,9.55,-1.24 c3.98,0,7.88,0.25,7.88,1.08 c0,0.42,-1.74,1.25,-6.81,2.16 c0.41,35.19,4.07,47.73,4.07,56.11 c0,1.74,-0.08,3.57,-0.25,5.56 c-7.3,0,-11.29,-2.49,-13.36,-5.31 c0,-0.42,0.08,-0.5,0.25,-0.5 c0.33,0,1.16,0.66,2.41,0.66 c3.07,0,4.07,-3.98,4.07,-11.21 c0,-6.31,-1.91,-29.63,-1.91,-40.17 c0,-1.74,0,-3.57,0.08,-5.31 Z M328.06,107.89 c0,-0.25,0.08,-0.58,0.58,-0.58 c1.25,0,3.24,0.58,5.98,0.58 c-0.25,-6.14,-0.58,-13.36,-0.58,-19.17 c0,-1.91,0,-3.65,0.17,-5.15 c-4.32,-0.66,-5.98,-1.33,-5.98,-1.83 c0,-0.75,4.98,-1.24,9.55,-1.24 c3.98,0,7.88,0.25,7.88,1.08 c0,0.42,-1.74,1.25,-6.81,2.16 c0.08,10.46,0.33,14.77,0.5,21.58 c0,0.42,1.91,1.08,3.07,1.08 c1.08,0,0.75,-5.15,1.58,-5.15 c0.83,0,2.91,8.22,2.91,9.79 c0,0.33,-0.42,0.42,-1.0,0.42 c-1.08,0,-2.74,-0.33,-3.9,-0.33 c-0.42,0,-0.83,0.17,-0.91,0.33 c-2.49,11.37,-3.65,17.26,-3.65,23.24 c0,4.15,1.33,5.23,2.66,5.23 c1.0,0,1.74,-1.08,2.41,-2.66 c2.16,-4.73,3.74,-5.64,6.31,-5.64 c1.08,0,1.58,0.41,1.58,1.58 c0,2.91,-6.89,8.96,-11.95,8.96 c-3.4,0,-7.06,-2.49,-7.06,-8.05 c0,-5.06,2.57,-11.37,2.57,-17.02 c0,-3.9,-1.33,-7.22,-5.89,-9.21 Z M328.06,107.89" fill="rgb(0,0,0)" transform="matrix(1,0,0,-1,0,200)"/>
</svg>