<?xml version="1.0" encoding="UTF-8"?>
<svg height="200" version="1.1" width="500" xmlns="http://www.w3.org/2000/svg" xmlns:xlink="http://www.w3.org/1999/xlink">
 <path d="M0,0 l500,0 l0,200 l-500,0 Z M0,0" fill="rgb(255,255,255)" transform="matrix(1,0,0,-1,0,200)"/>
 <path d="M120.92,107.38 l21.47,0 l-0.91,6.28 l-8.78,0 l-0.49,3.54 c-0.55,4.03,0.85,5.49,2.99,5.49 c2.44,0,3.84,-0.67,4.64,-1.16 l0.92,5.92 c-1.4,0.98,-3.54,1.71,-6.53,1.71 c-6.41,0,-10.55,-4.15,-9.45,-12.44 l0.43,-3.05 l-5.19,0 Z M128.67,66.82 c6.41,0,9.82,5.37,8.54,14.27 l-1.77,12.75 l-7.44,0 l1.95,-13.73 c0.43,-3.42,-0.91,-6.1,-4.03,-6.1 c-1.1,0,-2.32,0.24,-3.11,0.67 l3.36,-7.26 c0.43,-0.24,1.65,-0.61,2.5,-0.61 Z M175.7,80.42 c8.05,1.89,12.26,8.97,11.1,17.26 c-1.04,7.56,-7.01,14.21,-15.43,16.29 l0.61,-7.2 c3.9,-1.83,6.77,-5.73,7.38,-10.07 c0.61,-4.15,-0.79,-7.75,-4.27,-9.39 Z M165.82,80.3 l-0.61,7.2 c-3.9,1.71,-6.71,5.49,-7.38,10.07 c-0.55,3.96,0.91,7.56,4.27,9.39 l-0.61,6.83 c-7.75,-2.07,-12.14,-9.15,-11.04,-17.08 c1.16,-7.99,6.83,-14.52,15.37,-16.41 Z M195.89,80.67 l7.56,0 l-6.71,48.01 l-7.5,-0.43 Z M226.27,79.81 l-0.49,6.28 c-4.88,0.55,-9.52,4.88,-10.43,11.28 c-0.98,6.71,2.62,11.1,8.05,11.1 c4.7,0,8.05,-2.93,9.64,-5.55 l2.68,-18.91 c0.37,-2.14,2.07,-3.66,2.99,-4.33 l5.98,2.62 c-0.98,1.46,-1.71,3.9,-2.14,6.89 l-5.55,39.47 l-7.44,-0.43 l2.56,-17.57 c-1.59,1.71,-4.7,3.78,-9.76,3.78 c-9.52,0,-15.8,-7.87,-14.4,-17.93 c1.4,-9.88,8.48,-16.71,18.3,-16.71 Z M250.61,93.84 l7.56,0 l-1.22,7.87 c1.59,3.23,4.21,5.49,7.81,5.49 c3.29,0,6.34,-2.56,6.89,-6.28 l2.81,-20.25 l7.5,0 l-2.87,20.74 c-1.28,9.03,-5.49,13.05,-12.99,13.05 c-5.19,0,-8.6,-3.23,-9.94,-5.49 l-0.79,4.7 l-7.56,0 Z M303.07,114.34 l0.49,-6.28 c3.9,-0.79,6.95,-3.78,7.5,-7.93 l-6.22,0.24 l0.79,-5.73 l12.75,0.18 c0.18,0.85,0.24,2.81,0.06,4.45 c-1.04,7.32,-6.16,14.09,-15.37,15.07 Z M286.48,96.4 c1.4,-10.13,9.15,-16.59,19.83,-16.59 c6.34,0,11.28,1.59,13.72,3.72 l-2.32,5.73 c-2.2,-1.95,-6.41,-2.93,-11.04,-2.93 c-5.55,0,-11.04,3.11,-12.02,8.54 l-2.26,17.26 c-4.76,-3.05,-6.89,-8.97,-5.92,-15.74 Z M331.8,95.61 l-1.1,9.15 c-0.31,2.2,2.56,3.6,6.47,3.6 c4.82,0,9.21,-2.38,10.19,-3.66 l1.22,6.04 c-0.79,0.79,-5.0,3.72,-11.47,3.72 c-8.24,0,-14.76,-4.15,-13.85,-10.74 c0.67,-4.64,4.15,-6.83,8.54,-8.11 Z M347.23,80.91 c4.64,1.59,6.89,5.12,6.1,10.55 c-0.73,5.31,-4.7,7.26,-11.96,8.84 l0.61,-7.02 c2.32,-0.73,3.97,-1.89,4.15,-3.35 Z M337.47,79.87 l-0.49,6.41 c-4.94,0.49,-9.33,2.81,-10.8,4.33 l-0.18,-7.26 c1.52,-1.04,5.25,-3.11,11.47,-3.48 Z M366.27,95.61 l-1.1,9.15 c-0.31,2.2,2.56,3.6,6.47,3.6 c4.82,0,9.21,-2.38,10.19,-3.66 l1.22,6.04 c-0.79,0.79,-5.0,3.72,-11.47,3.72 c-8.24,0,-14.76,-4.15,-13.85,-10.74 c0.67,-4.64,4.15,-6.83,8.54,-8.11 Z M381.7,80.91 c4.64,1.59,6.89,5.12,6.1,10.55 c-0.73,5.31,-4.7,7.26,-11.96,8.84 l0.61,-7.02 c2.32,-0.73,3.97,-1.89,4.15,-3.35 Z M371.94,79.87 l-0.49,6.41 c-4.94,0.49,-9.33,2.81,-10.8,4.33 l-0.18,-7.26 c1.52,-1.04,5.25,-3.11,11.47,-3.48 Z M371.94,79.87" fill="rgb(0,0,0)" transform="matrix(1,0,0,-1,0,200)"/>
</svg>