<?xml version="1.0" encoding="UTF-8"?>
<svg height="200" version="1.1" width="500" xmlns="http://www.w3.org/2000/svg" xmlns:xlink="http://www.w3.org/1999/xlink">
 <path d="M0,0 l500,0 l0,200 l-500,0 Z M0,0" fill="rgb(255,255,255)" transform="matrix(1,0,0,-1,0,200)"/>
 <path d="M138.89,80.67 l7.56,0 l-3.29,22.69 c1.16,2.38,3.54,4.27,6.47,4.27 c3.29,0,6.1,-2.68,6.65,-6.53 l1.04,-7.26 l7.44,0 l-1.1,7.75 c-1.16,8.3,-5.37,12.87,-12.51,12.87 c-5.25,0,-8.36,-2.68,-10.13,-4.88 c-1.65,2.56,-4.45,4.88,-9.15,4.88 c-4.51,0,-8.23,-2.75,-9.82,-5.0 l-0.73,4.21 l-7.56,0 l2.81,-19.82 l7.56,0 l-1.4,9.15 c1.34,2.5,4.27,4.45,7.08,4.45 c3.23,0,5.67,-2.5,6.22,-6.16 Z M186.22,79.81 l-0.55,6.71 c-2.44,0.49,-4.82,2.38,-5.25,5.73 l-3.05,21.41 l-7.5,0 l3.11,-21.9 c1.16,-8.54,6.89,-11.9,13.24,-11.96 Z M198.36,79.63 l6.34,2.68 c-0.98,1.46,-1.71,3.9,-2.13,6.89 l-3.48,24.46 l-7.56,0 l4.15,-29.46 c0.49,-2.26,1.95,-3.84,2.68,-4.58 Z M211.23,93.84 l7.5,0 l-1.28,8.72 c0.98,3.17,2.87,5.25,6.04,5.25 c1.83,0,3.05,-0.91,3.78,-1.77 l1.16,7.38 c-1.1,0.67,-2.5,1.04,-3.84,1.04 c-4.51,0,-6.83,-2.07,-7.99,-4.64 l-0.67,3.84 l-7.5,0 Z M250.82,107.87 c3.72,0,7.02,-1.22,8.84,-2.75 l1.52,6.77 c-2.93,1.65,-6.83,2.56,-10.92,2.56 Z M234.05,96.71 c1.28,-9.03,9.09,-16.9,20.5,-16.9 c5.49,0,8.91,1.53,11.28,3.36 l-2.68,6.22 c-1.28,-1.89,-4.51,-3.05,-8.72,-3.05 c-7.26,0,-12.14,5.37,-12.93,11.04 l-1.77,13.85 c-4.39,-3.17,-6.47,-8.6,-5.67,-14.52 Z M273.03,80.67 l7.56,0 l-3.05,21.05 c1.28,3.23,4.09,5.49,7.75,5.49 c3.9,0,6.34,-2.87,6.77,-6.16 l1.04,-7.2 l7.44,0 l-1.1,7.69 c-1.1,8.17,-5.55,12.93,-12.69,12.93 c-5.31,0,-8.66,-3.11,-10.0,-5.43 l-2.87,19.64 l-7.5,-0.43 Z M307.92,120.19 c2.99,0,4.39,2.38,4.03,4.7 c-0.24,2.01,-2.01,3.9,-4.45,3.9 c-2.93,0,-4.51,-2.38,-4.21,-4.76 c0.31,-1.95,1.95,-3.84,4.64,-3.84 Z M309.93,80.67 l7.56,0 l-4.64,33.18 l-7.5,-0.49 Z M323.96,93.84 l7.56,0 l-1.22,7.87 c1.59,3.23,4.21,5.49,7.81,5.49 c3.29,0,6.34,-2.56,6.89,-6.28 l2.81,-20.25 l7.5,0 l-2.87,20.74 c-1.28,9.03,-5.49,13.05,-12.99,13.05 c-5.19,0,-8.6,-3.23,-9.94,-5.49 l-0.79,4.7 l-7.56,0 Z M380.08,92.01 c6.59,1.1,10.0,5.61,9.21,11.41 c-0.24,1.65,-1.04,3.42,-2.07,4.39 c0.67,0.85,2.01,1.22,3.78,1.22 l-0.37,5.43 c-3.42,0,-5.49,-1.46,-6.59,-2.93 c-1.83,1.4,-3.9,2.32,-6.71,2.75 l0.49,-6.22 c2.44,-0.85,4.33,-2.93,4.7,-5.49 c0.31,-2.14,-0.61,-3.72,-2.87,-4.58 Z M362.33,89.45 c0.67,-4.58,7.32,-7.87,15.37,-7.38 c4.27,0.24,7.14,-0.49,8.78,-1.53 l8.6,0.31 c-1.95,4.57,-6.83,7.38,-15.13,7.01 c-6.65,-0.24,-10.86,1.04,-11.22,3.6 c-0.06,0.79,0.24,1.65,0.55,1.83 c1.1,-0.61,2.5,-1.04,4.21,-1.34 l-0.49,6.16 c-2.44,0.92,-4.33,2.87,-4.7,5.31 c-0.31,2.2,0.79,3.84,2.93,4.7 l-0.49,5.98 c-5.98,-1.16,-10.19,-5.61,-9.33,-11.53 c0.49,-3.6,2.68,-5.8,4.09,-6.83 c-1.34,-0.55,-3.6,-2.99,-3.17,-6.28 Z M363.73,77.56 c0.92,-6.65,7.08,-10.86,17.63,-10.86 c7.26,0,12.44,2.44,14.03,6.71 l-14.4,-0.18 c-6.65,0,-9.82,2.32,-10.31,4.27 l-6.89,2.01 c-0.12,-0.55,-0.18,-1.22,-0.06,-1.95 Z M363.73,77.56" fill="rgb(0,0,0)" transform="matrix(1,0,0,-1,0,200)"/>
</svg>