<?xml version="1.0" encoding="UTF-8"?>
<svg height="200" version="1.1" width="500" xmlns="http://www.w3.org/2000/svg" xmlns:xlink="http://www.w3.org/1999/xlink">
 <path d="M0,0 l500,0 l0,200 l-500,0 Z M0,0" fill="rgb(255,255,255)" transform="matrix(1,0,0,-1,0,200)"/>
 <path d="M193.51,80.42 c8.05,1.89,12.26,8.97,11.1,17.26 c-1.04,7.56,-7.01,14.21,-15.43,16.29 l0.61,-7.2 c3.9,-1.83,6.77,-5.73,7.38,-10.07 c0.61,-4.15,-0.79,-7.75,-4.27,-9.39 Z M183.63,80.3 l-0.61,7.2 c-3.9,1.71,-6.71,5.49,-7.38,10.07 c-0.55,3.96,0.91,7.56,4.27,9.39 l-0.61,6.83 c-7.75,-2.07,-12.14,-9.15,-11.04,-17.08 c1.16,-7.99,6.83,-14.52,15.37,-16.41 Z M213.7,80.67 l7.56,0 l-6.71,48.01 l-7.5,-0.43 Z M244.08,79.81 l-0.49,6.28 c-4.88,0.55,-9.52,4.88,-10.43,11.28 c-0.98,6.71,2.62,11.1,8.05,11.1 c4.7,0,8.05,-2.93,9.64,-5.55 l2.68,-18.91 c0.37,-2.14,2.07,-3.66,2.99,-4.33 l5.98,2.62 c-0.98,1.46,-1.71,3.9,-2.13,6.89 l-5.55,39.47 l-7.44,-0.43 l2.56,-17.57 c-1.59,1.71,-4.7,3.78,-9.76,3.78 c-9.52,0,-15.8,-7.87,-14.4,-17.93 c1.4,-9.88,8.48,-16.71,18.3,-16.71 Z M283.43,114.34 l0.49,-6.28 c3.9,-0.79,6.95,-3.78,7.5,-7.93 l-6.22,0.24 l0.79,-5.73 l12.75,0.18 c0.18,0.85,0.24,2.81,0.06,4.45 c-1.04,7.32,-6.16,14.09,-15.37,15.07 Z M266.84,96.4 c1.4,-10.13,9.15,-16.59,19.83,-16.59 c6.34,0,11.28,1.59,13.72,3.72 l-2.32,5.73 c-2.2,-1.95,-6.41,-2.93,-11.04,-2.93 c-5.55,0,-11.04,3.11,-12.02,8.54 l-2.26,17.26 c-4.76,-3.05,-6.89,-8.97,-5.92,-15.74 Z M322.35,79.81 l-0.49,6.28 c-4.88,0.55,-9.52,4.88,-10.43,11.28 c-0.98,6.71,2.62,11.1,8.05,11.1 c4.7,0,8.05,-2.93,9.64,-5.55 l2.68,-18.91 c0.37,-2.14,2.07,-3.66,2.99,-4.33 l5.98,2.62 c-0.98,1.46,-1.71,3.9,-2.13,6.89 l-5.55,39.47 l-7.44,-0.43 l2.56,-17.57 c-1.59,1.71,-4.7,3.78,-9.76,3.78 c-9.52,0,-15.8,-7.87,-14.4,-17.93 c1.4,-9.88,8.48,-16.71,18.3,-16.71 Z M322.35,79.81" fill="rgb(0,0,0)" transform="matrix(1,0,0,-1,0,200)"/>
</svg>