<?xml version="1.0" encoding="UTF-8"?>
<svg height="200" version="1.1" width="500" xmlns="http://www.w3.org/2000/svg" xmlns:xlink="http://www.w3.org/1999/xlink">
 <path d="M0,0 l500,0 l0,200 l-500,0 Z M0,0" fill="rgb(255,255,255)" transform="matrix(1,0,0,-1,0,200)"/>
 <path d="M152.98,108.86 l-0.72,6 c-0.2,1.44,1.68,2.36,4.24,2.36 c3.16,0,6.04,-1.56,6.68,-2.4 l0.8,3.96 c-0.52,0.52,-3.28,2.44,-7.52,2.44 c-5.4,0,-9.68,-2.72,-9.08,-7.04 c0.44,-3.04,2.72,-4.48,5.6,-5.32 Z M163.1,99.22 c3.04,1.04,4.52,3.36,4,6.92 c-0.48,3.48,-3.08,4.76,-7.84,5.8 l0.4,-4.6 c1.52,-0.48,2.6,-1.24,2.72,-2.2 Z M156.7,98.54 l-0.32,4.2 c-3.24,0.32,-6.12,1.84,-7.08,2.84 l-0.12,-4.76 c1,-0.68,3.44,-2.04,7.52,-2.28 Z M181.22,116.9 c2.44,0,4.6,-0.8,5.8,-1.8 l1,4.44 c-1.92,1.08,-4.48,1.68,-7.16,1.68 Z M170.22,109.58 c0.84,-5.92,5.96,-11.08,13.44,-11.08 c3.6,0,5.84,1,7.4,2.2 l-1.76,4.08 c-0.84,-1.24,-2.96,-2,-5.72,-2 c-4.76,0,-7.96,3.52,-8.48,7.24 l-1.16,9.08 c-2.88,-2.08,-4.24,-5.64,-3.72,-9.52 Z M195.78,99.06 l4.96,0 l-2,13.8 c0.84,2.12,2.68,3.6,5.08,3.6 c2.56,0,4.16,-1.88,4.44,-4.04 l0.68,-4.72 l4.88,0 l-0.72,5.04 c-0.72,5.36,-3.64,8.48,-8.32,8.48 c-3.48,0,-5.68,-2.04,-6.56,-3.56 l-1.88,12.88 l-4.92,-0.28 Z M218.66,124.98 c1.96,0,2.88,1.56,2.64,3.08 c-0.16,1.32,-1.32,2.56,-2.92,2.56 c-1.92,0,-2.96,-1.56,-2.76,-3.12 c0.2,-1.28,1.28,-2.52,3.04,-2.52 Z M219.98,99.06 l4.96,0 l-3.04,21.76 l-4.92,-0.32 Z M239.02,121.14 l0.32,-4.12 c2.56,-0.52,4.56,-2.48,4.92,-5.2 l-4.08,0.16 l0.52,-3.76 l8.36,0.12 c0.12,0.56,0.16,1.84,0.04,2.92 c-0.68,4.8,-4.04,9.24,-10.08,9.88 Z M228.14,109.38 c0.92,-6.64,6,-10.88,13,-10.88 c4.16,0,7.4,1.04,9,2.44 l-1.52,3.76 c-1.44,-1.28,-4.2,-1.92,-7.24,-1.92 c-3.64,0,-7.24,2.04,-7.88,5.6 l-1.48,11.32 c-3.12,-2,-4.52,-5.88,-3.88,-10.32 Z M265.78,99.06 l-11.68,21.64 l-5.16,0 l11.68,-21.64 Z M264.66,113.9 l3.32,-6.2 l3.44,13 l-5.04,0 Z M285.66,121.14 l0.32,-4.12 c2.56,-0.52,4.56,-2.48,4.92,-5.2 l-4.08,0.16 l0.52,-3.76 l8.36,0.12 c0.12,0.56,0.16,1.84,0.04,2.92 c-0.68,4.8,-4.04,9.24,-10.08,9.88 Z M274.78,109.38 c0.92,-6.64,6,-10.88,13,-10.88 c4.16,0,7.4,1.04,9,2.44 l-1.52,3.76 c-1.44,-1.28,-4.2,-1.92,-7.24,-1.92 c-3.64,0,-7.24,2.04,-7.88,5.6 l-1.48,11.32 c-3.12,-2,-4.52,-5.88,-3.88,-10.32 Z M300.62,107.7 l4.92,0 l-0.84,5.72 c0.64,2.08,1.88,3.44,3.96,3.44 c1.2,0,2,-0.6,2.48,-1.16 l0.76,4.84 c-0.72,0.44,-1.64,0.68,-2.52,0.68 c-2.96,0,-4.48,-1.36,-5.24,-3.04 l-0.44,2.52 l-4.92,0 Z M317.66,124.98 c1.96,0,2.88,1.56,2.64,3.08 c-0.16,1.32,-1.32,2.56,-2.92,2.56 c-1.92,0,-2.96,-1.56,-2.76,-3.12 c0.2,-1.28,1.28,-2.52,3.04,-2.52 Z M318.98,99.06 l4.96,0 l-3.04,21.76 l-4.92,-0.32 Z M329.78,99.06 l4.96,0 l-4.4,31.48 l-4.92,-0.28 Z M343.62,107.7 l1.52,5.92 l-4.36,7.08 l-5.44,0 Z M342.3,89.98 c5.12,0,8.44,3.52,10.16,10.52 l5.04,20.2 l-5.2,0 l-4.64,-19.24 c-1.28,-5.04,-4,-7.36,-6.92,-7.36 c-1,0,-1.64,0.24,-2.04,0.44 l1.88,-4.2 c0.28,-0.16,1.08,-0.36,1.72,-0.36 Z M342.3,89.98" fill="rgb(0,0,0)" transform="matrix(1,0,0,-1,0,200)"/>
</svg>