<?xml version="1.0" encoding="UTF-8"?>
<svg height="200" version="1.1" width="500" xmlns="http://www.w3.org/2000/svg" xmlns:xlink="http://www.w3.org/1999/xlink">
 <path d="M0,0 l500,0 l0,200 l-500,0 Z M0,0" fill="rgb(255,255,255)" transform="matrix(1,0,0,-1,0,200)"/>
 <path d="M136.84,93.84 l2.32,10.8 l-3.72,9.03 l-7.69,0 Z M143.13,80.67 l6.34,0 l4.45,22.51 l10.43,-22.51 l7.26,0 l-15.31,33.0 l-7.14,0 Z M173.93,93.9 l3.6,19.76 l-7.5,0 l-1.16,-8.3 Z M207.85,80.42 c8.05,1.89,12.26,8.97,11.1,17.26 c-1.04,7.56,-7.01,14.21,-15.43,16.29 l0.61,-7.2 c3.9,-1.83,6.77,-5.73,7.38,-10.07 c0.61,-4.15,-0.79,-7.75,-4.27,-9.39 Z M197.97,80.3 l-0.61,7.2 c-3.9,1.71,-6.71,5.49,-7.38,10.07 c-0.55,3.96,0.91,7.56,4.27,9.39 l-0.61,6.83 c-7.75,-2.07,-12.14,-9.15,-11.04,-17.08 c1.16,-7.99,6.83,-14.52,15.37,-16.41 Z M225.6,93.84 l7.56,0 l-1.22,7.87 c1.59,3.23,4.21,5.49,7.81,5.49 c3.29,0,6.34,-2.56,6.89,-6.28 l2.81,-20.25 l7.5,0 l-2.87,20.74 c-1.28,9.03,-5.49,13.05,-12.99,13.05 c-5.19,0,-8.6,-3.23,-9.94,-5.49 l-0.79,4.7 l-7.56,0 Z M279.77,79.81 l-0.49,6.28 c-4.88,0.55,-9.52,4.88,-10.43,11.28 c-0.98,6.71,2.62,11.1,8.05,11.1 c4.7,0,8.05,-2.93,9.64,-5.55 l2.68,-18.91 c0.37,-2.14,2.07,-3.66,2.99,-4.33 l5.98,2.62 c-0.98,1.46,-1.71,3.9,-2.14,6.89 l-5.55,39.47 l-7.44,-0.43 l2.56,-17.57 c-1.59,1.71,-4.7,3.78,-9.76,3.78 c-9.52,0,-15.8,-7.87,-14.4,-17.93 c1.4,-9.88,8.48,-16.71,18.3,-16.71 Z M327.71,80.42 c8.05,1.89,12.26,8.97,11.1,17.26 c-1.04,7.56,-7.01,14.21,-15.43,16.29 l0.61,-7.2 c3.9,-1.83,6.77,-5.73,7.38,-10.07 c0.61,-4.15,-0.79,-7.75,-4.27,-9.39 Z M317.83,80.3 l-0.61,7.2 c-3.9,1.71,-6.71,5.49,-7.38,10.07 c-0.55,3.96,0.92,7.56,4.27,9.39 l-0.61,6.83 c-7.75,-2.07,-12.14,-9.15,-11.04,-17.08 c1.16,-7.99,6.83,-14.52,15.37,-16.41 Z M345.46,93.84 l7.56,0 l-1.22,7.87 c1.59,3.23,4.21,5.49,7.81,5.49 c3.29,0,6.34,-2.56,6.89,-6.28 l2.81,-20.25 l7.5,0 l-2.87,20.74 c-1.28,9.03,-5.49,13.05,-12.99,13.05 c-5.19,0,-8.6,-3.23,-9.94,-5.49 l-0.79,4.7 l-7.56,0 Z M345.46,93.84" fill="rgb(0,0,0)" transform="matrix(1,0,0,-1,0,200)"/>
</svg>