<?xml version="1.0" encoding="UTF-8"?>
<svg height="200" version="1.1" width="500" xmlns="http://www.w3.org/2000/svg" xmlns:xlink="http://www.w3.org/1999/xlink">
 <path d="M0,0 l500,0 l0,200 l-500,0 Z M0,0" fill="rgb(255,255,255)" transform="matrix(1,0,0,-1,0,200)"/>
 <path d="M190.4,107.7 l1.52,7.08 l-2.44,5.92 l-5.04,0 Z M194.52,99.06 l4.16,0 l2.92,14.76 l6.84,-14.76 l4.76,0 l-10.04,21.64 l-4.68,0 Z M214.72,107.74 l2.36,12.96 l-4.92,0 l-0.76,-5.44 Z M222.16,107.7 l4.92,0 l-0.84,5.72 c0.64,2.08,1.88,3.44,3.96,3.44 c1.2,0,2,-0.6,2.48,-1.16 l0.76,4.84 c-0.72,0.44,-1.64,0.68,-2.52,0.68 c-2.96,0,-4.48,-1.36,-5.24,-3.04 l-0.44,2.52 l-4.92,0 Z M253.68,98.9 c5.28,1.24,8.04,5.88,7.28,11.32 c-0.68,4.96,-4.6,9.32,-10.12,10.68 l0.4,-4.72 c2.56,-1.2,4.44,-3.76,4.84,-6.6 c0.4,-2.72,-0.52,-5.08,-2.8,-6.16 Z M247.2,98.82 l-0.4,4.72 c-2.56,1.12,-4.4,3.6,-4.84,6.6 c-0.36,2.6,0.6,4.96,2.8,6.16 l-0.4,4.48 c-5.08,-1.36,-7.96,-6,-7.24,-11.2 c0.76,-5.24,4.48,-9.52,10.08,-10.76 Z M266.64,107.7 l1.52,7.08 l-2.44,5.92 l-5.04,0 Z M270.76,99.06 l4.16,0 l2.92,14.76 l6.84,-14.76 l4.76,0 l-10.04,21.64 l-4.68,0 Z M290.96,107.74 l2.36,12.96 l-4.92,0 l-0.76,-5.44 Z M298,107.7 l4.96,0 l-0.8,5.16 c1.04,2.12,2.76,3.6,5.12,3.6 c2.16,0,4.16,-1.68,4.52,-4.12 l1.84,-13.28 l4.92,0 l-1.88,13.6 c-0.84,5.92,-3.6,8.56,-8.52,8.56 c-3.4,0,-5.64,-2.12,-6.52,-3.6 l-0.52,3.08 l-4.96,0 Z M298,107.7" fill="rgb(0,0,0)" transform="matrix(1,0,0,-1,0,200)"/>
</svg>