<?xml version="1.0" encoding="UTF-8"?>
<svg height="200" version="1.1" width="500" xmlns="http://www.w3.org/2000/svg" xmlns:xlink="http://www.w3.org/1999/xlink">
 <path d="M0,0 l500,0 l0,200 l-500,0 Z M0,0" fill="rgb(255,255,255)" transform="matrix(1,0,0,-1,0,200)"/>
 <path d="M168.54,85.16 c1.55,0,2.99,0.25,4.33,0.75 c1.33,0.5,2.55,1.28,3.66,2.36 l0,5.38 l-8.32,0 c-1.37,0,-2.45,-0.3,-3.24,-0.89 c-0.79,-0.59,-1.19,-1.74,-1.19,-3.44 c0,-1.33,0.37,-2.36,1.11,-3.08 c0.74,-0.72,1.96,-1.08,3.66,-1.08 Z M166.71,79.45 c-3.03,0,-5.57,0.81,-7.62,2.44 c-2.05,1.63,-3.08,4.01,-3.08,7.15 c0,3.03,1.04,5.37,3.11,7.02 c2.07,1.65,4.71,2.47,7.93,2.47 l9.48,0 l0,4.27 c0,1.66,-0.5,2.88,-1.5,3.66 c-1.0,0.78,-2.5,1.16,-4.49,1.16 c-2.03,0,-3.55,-0.34,-4.55,-1.03 c-1.0,-0.68,-1.76,-2.08,-2.27,-4.19 l-6.93,1.39 c0.74,3.55,2.2,6.11,4.38,7.68 c2.18,1.57,5.36,2.36,9.54,2.36 c4.33,0.0,7.72,-0.87,10.18,-2.61 c2.46,-1.74,3.69,-4.44,3.69,-8.1 l0,-13.42 c0,-1.7,0.5,-2.75,1.5,-3.16 c1.0,-0.41,2.44,-0.48,4.33,-0.22 l0,-6.27 c-2.7,-0.55,-5.02,-0.47,-6.96,0.25 c-1.94,0.72,-3.15,2.38,-3.63,4.96 l-1.39,0 c-1.11,-1.59,-2.7,-2.96,-4.77,-4.1 c-2.07,-1.15,-4.38,-1.72,-6.93,-1.72 Z M215.78,80 l-4.6,18.69 l-4.38,-18.69 l-7.99,0 l-5.71,33.27 l7.38,0 l3.38,-25.29 l3.99,19.46 l6.43,0 l4.44,-18.8 l3.22,24.62 l7.32,0 l-5.71,-33.27 Z M243.62,80 l0,26.9 l-9.15,0 l0,6.38 l9.15,0 l0,2.0 c-0.0,3.29,1.24,5.86,3.72,7.71 c2.48,1.85,5.71,2.77,9.7,2.77 c1.63,0,3.17,-0.13,4.63,-0.39 c1.46,-0.26,2.82,-0.59,4.08,-1.0 l-1.11,-5.82 c-1.04,0.33,-2.13,0.6,-3.27,0.8 c-1.15,0.2,-2.35,0.31,-3.6,0.31 c-1.81,0,-3.23,-0.4,-4.27,-1.19 c-1.04,-0.79,-1.55,-2.01,-1.55,-3.63 l0,-1.55 l13.03,0 l0,-6.38 l-13.03,0 l0,-26.9 Z M283.88,79.45 c-2.88,0,-5.28,0.95,-7.18,2.86 c-1.9,1.9,-2.86,4.52,-2.86,7.85 l0,23.12 l8.32,0 l0,-21.02 c0,-2.0,0.42,-3.49,1.25,-4.49 c0.83,-1.0,2.06,-1.5,3.69,-1.5 c1.44,0,2.86,0.45,4.24,1.36 c1.39,0.91,2.76,2.21,4.13,3.91 l0,21.74 l8.32,0 l0,-33.27 l-8.32,0 l0,5.82 l-1.66,0 c-0.89,-2.11,-2.27,-3.7,-4.16,-4.77 c-1.89,-1.07,-3.81,-1.61,-5.77,-1.61 Z M313.22,80 l0,6.38 l10.81,0 l0,31.61 l-10.81,0 l0,6.38 l19.13,0 l0,-37.99 l10.54,0 l0,-6.38 Z M313.22,80" fill="rgb(0,0,0)" transform="matrix(1,0,0,-1,0,200)"/>
</svg>