<?xml version="1.0" encoding="UTF-8"?>
<svg height="200" version="1.1" width="500" xmlns="http://www.w3.org/2000/svg" xmlns:xlink="http://www.w3.org/1999/xlink">
 <path d="M0,0 l500,0 l0,200 l-500,0 Z M0,0" fill="rgb(255,255,255)" transform="matrix(1,0,0,-1,0,200)"/>
 <path d="M165.99,80 l0,26.9 l-9.15,0 l0,6.38 l9.15,0 l0,2.0 c0,3.29,1.24,5.86,3.72,7.71 c2.48,1.85,5.71,2.77,9.7,2.77 c1.63,0,3.17,-0.13,4.63,-0.39 c1.46,-0.26,2.82,-0.59,4.08,-1.0 l-1.11,-5.82 c-1.04,0.33,-2.13,0.6,-3.27,0.8 c-1.15,0.2,-2.35,0.31,-3.6,0.31 c-1.81,0,-3.23,-0.4,-4.27,-1.19 c-1.04,-0.79,-1.55,-2.01,-1.55,-3.63 l0,-1.55 l13.03,0 l0,-6.38 l-13.03,0 l0,-26.9 Z M211.18,79.45 c-4.73,0,-8.41,1.1,-11.04,3.3 c-2.62,2.2,-3.94,5.3,-3.94,9.29 l0,8.98 c0,4.07,1.32,7.22,3.97,9.45 c2.64,2.24,6.33,3.36,11.06,3.36 c4.73,0.0,8.4,-1.14,11.01,-3.41 c2.61,-2.27,3.91,-5.44,3.91,-9.51 l0,-8.98 c0,-3.96,-1.31,-7.02,-3.94,-9.21 c-2.62,-2.18,-6.3,-3.27,-11.04,-3.27 Z M211.18,85.82 c2.29,0,3.97,0.53,5.05,1.58 c1.07,1.05,1.61,2.69,1.61,4.91 l0,8.48 c0,2.29,-0.54,3.97,-1.61,5.05 c-1.07,1.07,-2.75,1.61,-5.05,1.61 c-2.29,0,-3.97,-0.54,-5.05,-1.61 c-1.07,-1.07,-1.61,-2.74,-1.61,-4.99 l0,-8.37 c0,-2.29,0.54,-3.97,1.61,-5.05 c1.07,-1.07,2.75,-1.61,5.05,-1.61 Z M236.97,80 l0,33.27 l8.32,0 l0,-5.82 l1.66,0 c0.81,2.22,2.06,3.84,3.74,4.85 c1.68,1.02,3.69,1.53,6.02,1.52 c2.66,0.0,4.78,-0.82,6.35,-2.47 c1.57,-1.65,2.36,-3.96,2.36,-6.96 l0,-5.6 l-7.65,0 l0,3.05 c0,1.7,-0.38,2.99,-1.14,3.88 c-0.76,0.89,-1.99,1.33,-3.69,1.33 c-1.48,0,-2.87,-0.36,-4.19,-1.08 c-1.31,-0.72,-2.47,-1.89,-3.47,-3.52 l0,-22.46 Z M279.17,103.68 l0,-23.68 l-7.04,0 l0,33.27 l6.99,0 l0,-4.44 l1.39,0 c0.7,1.55,1.57,2.75,2.61,3.6 c1.04,0.85,2.18,1.28,3.44,1.28 c1.33,0,2.48,-0.42,3.44,-1.25 c0.96,-0.83,1.63,-2.04,2.0,-3.63 l1.39,0 c0.67,1.55,1.57,2.75,2.72,3.6 c1.15,0.85,2.44,1.28,3.88,1.28 c1.7,0,3.06,-0.71,4.08,-2.14 c1.02,-1.42,1.52,-3.35,1.52,-5.8 l0,-25.79 l-7.04,0 l0,24.34 c0,1.26,-0.17,2.21,-0.5,2.86 c-0.33,0.65,-0.81,0.97,-1.44,0.97 c-0.59,-0.0,-1.28,-0.4,-2.05,-1.19 c-0.78,-0.79,-1.52,-1.89,-2.22,-3.3 l0,-23.68 l-6.93,0 l0,24.34 c0,1.26,-0.18,2.21,-0.53,2.86 c-0.35,0.65,-0.82,0.97,-1.41,0.97 c-0.59,-0.0,-1.27,-0.38,-2.02,-1.14 c-0.76,-0.76,-1.51,-1.88,-2.25,-3.35 Z M327.91,79.56 c-2.88,0,-5.7,0.4,-8.46,1.19 c-2.75,0.79,-5.2,1.97,-7.35,3.52 l2.5,5.49 c2.0,-1.4,4.19,-2.48,6.57,-3.22 c2.38,-0.74,4.67,-1.11,6.85,-1.11 c1.81,0,3.32,0.27,4.52,0.8 c1.2,0.54,1.8,1.54,1.8,3.02 c0,1.37,-0.55,2.35,-1.66,2.94 c-1.11,0.59,-3.09,1.07,-5.93,1.44 c-4.4,0.48,-7.75,1.41,-10.06,2.8 c-2.31,1.39,-3.47,3.67,-3.47,6.85 c0,3.33,1.28,5.92,3.85,7.76 c2.57,1.85,5.81,2.77,9.73,2.77 c2.44,0.0,4.9,-0.39,7.38,-1.16 c2.48,-0.78,4.73,-1.85,6.77,-3.22 l-2.22,-5.27 c-1.89,1.22,-3.83,2.15,-5.82,2.8 c-2.0,0.65,-3.96,0.97,-5.88,0.97 c-1.59,0,-2.91,-0.29,-3.97,-0.86 c-1.05,-0.57,-1.58,-1.54,-1.58,-2.91 c0,-1.37,0.62,-2.33,1.86,-2.88 c1.24,-0.55,3.41,-1.02,6.52,-1.39 c4.29,-0.52,7.49,-1.56,9.59,-3.13 c2.11,-1.57,3.16,-3.8,3.16,-6.68 c0,-3.44,-1.38,-6.05,-4.13,-7.85 c-2.75,-1.79,-6.28,-2.69,-10.56,-2.69 Z M327.91,79.56" fill="rgb(0,0,0)" transform="matrix(1,0,0,-1,0,200)"/>
</svg>