<?xml version="1.0" encoding="UTF-8"?>
<svg height="200" version="1.1" width="500" xmlns="http://www.w3.org/2000/svg" xmlns:xlink="http://www.w3.org/1999/xlink">
 <path d="M0,0 l500,0 l0,200 l-500,0 Z M0,0" fill="rgb(255,255,255)" transform="matrix(1,0,0,-1,0,200)"/>
 <path d="M143.31,103.68 l0,-23.68 l-7.04,0 l0,33.27 l6.99,0 l0,-4.44 l1.39,0 c0.7,1.55,1.57,2.75,2.61,3.6 c1.04,0.85,2.18,1.28,3.44,1.28 c1.33,0,2.48,-0.42,3.44,-1.25 c0.96,-0.83,1.63,-2.04,2.0,-3.63 l1.39,0 c0.67,1.55,1.57,2.75,2.72,3.6 c1.15,0.85,2.44,1.28,3.88,1.28 c1.7,0,3.06,-0.71,4.08,-2.14 c1.02,-1.42,1.53,-3.35,1.53,-5.8 l0,-25.79 l-7.04,0 l0,24.34 c0,1.26,-0.17,2.21,-0.5,2.86 c-0.33,0.65,-0.81,0.97,-1.44,0.97 c-0.59,-0.0,-1.28,-0.4,-2.05,-1.19 c-0.78,-0.79,-1.52,-1.89,-2.22,-3.3 l0,-23.68 l-6.93,0 l0,24.34 c0,1.26,-0.18,2.21,-0.53,2.86 c-0.35,0.65,-0.82,0.97,-1.41,0.97 c-0.59,-0.0,-1.27,-0.38,-2.02,-1.14 c-0.76,-0.76,-1.51,-1.88,-2.25,-3.35 Z M187.95,85.16 c1.55,0,2.99,0.25,4.33,0.75 c1.33,0.5,2.55,1.28,3.66,2.36 l0,5.38 l-8.32,0 c-1.37,0,-2.45,-0.3,-3.24,-0.89 c-0.79,-0.59,-1.19,-1.74,-1.19,-3.44 c0,-1.33,0.37,-2.36,1.11,-3.08 c0.74,-0.72,1.96,-1.08,3.66,-1.08 Z M186.12,79.45 c-3.03,0,-5.57,0.81,-7.62,2.44 c-2.05,1.63,-3.08,4.01,-3.08,7.15 c0,3.03,1.04,5.37,3.11,7.02 c2.07,1.65,4.71,2.47,7.93,2.47 l9.48,0 l0,4.27 c0,1.66,-0.5,2.88,-1.5,3.66 c-1.0,0.78,-2.5,1.16,-4.49,1.16 c-2.03,0,-3.55,-0.34,-4.55,-1.03 c-1.0,-0.68,-1.76,-2.08,-2.27,-4.19 l-6.93,1.39 c0.74,3.55,2.2,6.11,4.38,7.68 c2.18,1.57,5.36,2.36,9.54,2.36 c4.33,0.0,7.72,-0.87,10.18,-2.61 c2.46,-1.74,3.69,-4.44,3.69,-8.1 l0,-13.42 c0,-1.7,0.5,-2.75,1.5,-3.16 c1.0,-0.41,2.44,-0.48,4.33,-0.22 l0,-6.27 c-2.7,-0.55,-5.02,-0.47,-6.96,0.25 c-1.94,0.72,-3.15,2.38,-3.63,4.96 l-1.39,0 c-1.11,-1.59,-2.7,-2.96,-4.77,-4.1 c-2.07,-1.15,-4.38,-1.72,-6.93,-1.72 Z M230.87,79.56 c-2.88,0,-5.7,0.4,-8.46,1.19 c-2.75,0.79,-5.2,1.97,-7.35,3.52 l2.5,5.49 c2.0,-1.4,4.19,-2.48,6.57,-3.22 c2.38,-0.74,4.67,-1.11,6.85,-1.11 c1.81,0,3.32,0.27,4.52,0.8 c1.2,0.54,1.8,1.54,1.8,3.02 c0,1.37,-0.55,2.35,-1.66,2.94 c-1.11,0.59,-3.09,1.07,-5.93,1.44 c-4.4,0.48,-7.75,1.41,-10.06,2.8 c-2.31,1.39,-3.47,3.67,-3.47,6.85 c0,3.33,1.28,5.92,3.85,7.76 c2.57,1.85,5.81,2.77,9.73,2.77 c2.44,0.0,4.9,-0.39,7.38,-1.16 c2.48,-0.78,4.73,-1.85,6.77,-3.22 l-2.22,-5.27 c-1.89,1.22,-3.83,2.15,-5.82,2.8 c-2.0,0.65,-3.96,0.97,-5.88,0.97 c-1.59,0,-2.91,-0.29,-3.97,-0.86 c-1.05,-0.57,-1.58,-1.54,-1.58,-2.91 c0,-1.37,0.62,-2.33,1.86,-2.88 c1.24,-0.55,3.41,-1.02,6.52,-1.39 c4.29,-0.52,7.49,-1.56,9.59,-3.13 c2.11,-1.57,3.16,-3.8,3.16,-6.68 c0,-3.44,-1.38,-6.05,-4.13,-7.85 c-2.75,-1.79,-6.28,-2.69,-10.56,-2.69 Z M275.23,79.45 c-4.14,0,-7.35,0.98,-9.62,2.94 c-2.27,1.96,-3.41,4.84,-3.41,8.65 l0,15.86 l-8.6,0 l0,6.38 l8.6,0 l0,11.09 l8.32,0 l0,-11.09 l13.31,0 l0,-6.38 l-13.31,0 l0,-14.81 c0,-2.11,0.5,-3.65,1.5,-4.63 c1.0,-0.98,2.4,-1.47,4.21,-1.47 c1.15,0,2.31,0.08,3.49,0.25 c1.18,0.17,2.35,0.45,3.49,0.86 l1.11,-6.32 c-1.0,-0.37,-2.28,-0.68,-3.85,-0.94 c-1.57,-0.26,-3.32,-0.39,-5.24,-0.39 Z M323.64,87.6 c-1.22,-2.99,-2.93,-5.1,-5.13,-6.32 c-2.2,-1.22,-5.57,-1.83,-10.12,-1.83 c-4.51,0,-8.16,1.06,-10.95,3.19 c-2.79,2.13,-4.19,5.3,-4.19,9.51 l0,8.87 c0,4.14,1.36,7.31,4.08,9.51 c2.72,2.2,6.37,3.3,10.95,3.3 c4.62,0.0,8.26,-1.11,10.92,-3.33 c2.66,-2.22,3.99,-5.45,3.99,-9.7 l0,-5.82 l-21.63,0 l0,-3.22 c0,-2.18,0.55,-3.81,1.66,-4.88 c1.11,-1.07,2.87,-1.61,5.27,-1.61 c2.11,0,3.76,0.31,4.96,0.94 c1.2,0.63,2.19,1.76,2.97,3.38 Z M301.57,101.57 l0,-1.72 l13.31,0 l0,1.22 c0,2.55,-0.52,4.37,-1.55,5.46 c-1.04,1.09,-2.74,1.64,-5.1,1.64 c-2.37,-0.0,-4.07,-0.52,-5.1,-1.55 c-1.04,-1.04,-1.55,-2.72,-1.55,-5.05 Z M334.01,80 l0,33.27 l8.32,0 l0,-5.82 l1.66,0 c0.81,2.22,2.06,3.84,3.74,4.85 c1.68,1.02,3.69,1.53,6.02,1.52 c2.66,0.0,4.78,-0.82,6.35,-2.47 c1.57,-1.65,2.36,-3.96,2.36,-6.96 l0,-5.6 l-7.65,0 l0,3.05 c0,1.7,-0.38,2.99,-1.14,3.88 c-0.76,0.89,-1.99,1.33,-3.69,1.33 c-1.48,0,-2.87,-0.36,-4.19,-1.08 c-1.31,-0.72,-2.47,-1.89,-3.47,-3.52 l0,-22.46 Z M334.01,80" fill="rgb(0,0,0)" transform="matrix(1,0,0,-1,0,200)"/>
</svg>