<?xml version="1.0" encoding="UTF-8"?>
<svg height="200" version="1.1" width="500" xmlns="http://www.w3.org/2000/svg" xmlns:xlink="http://www.w3.org/1999/xlink">
 <path d="M0,0 l500,0 l0,200 l-500,0 Z M0,0" fill="rgb(255,255,255)" transform="matrix(1,0,0,-1,0,200)"/>
 <path d="M162.71,103.68 l0,-23.68 l-7.04,0 l0,33.27 l6.99,0 l0,-4.44 l1.39,0 c0.7,1.55,1.57,2.75,2.61,3.6 c1.04,0.85,2.18,1.28,3.44,1.28 c1.33,0,2.48,-0.42,3.44,-1.25 c0.96,-0.83,1.63,-2.04,2.0,-3.63 l1.39,0 c0.67,1.55,1.57,2.75,2.72,3.6 c1.15,0.85,2.44,1.28,3.88,1.28 c1.7,0,3.06,-0.71,4.08,-2.14 c1.02,-1.42,1.53,-3.35,1.53,-5.8 l0,-25.79 l-7.04,0 l0,24.34 c0,1.26,-0.17,2.21,-0.5,2.86 c-0.33,0.65,-0.81,0.97,-1.44,0.97 c-0.59,-0.0,-1.28,-0.4,-2.05,-1.19 c-0.78,-0.79,-1.52,-1.89,-2.22,-3.3 l0,-23.68 l-6.93,0 l0,24.34 c0,1.26,-0.18,2.21,-0.53,2.86 c-0.35,0.65,-0.82,0.97,-1.41,0.97 c-0.59,-0.0,-1.27,-0.38,-2.02,-1.14 c-0.76,-0.76,-1.51,-1.88,-2.25,-3.35 Z M211.18,79.45 c-4.73,0,-8.41,1.1,-11.04,3.3 c-2.62,2.2,-3.94,5.3,-3.94,9.29 l0,8.98 c0,4.07,1.32,7.22,3.97,9.45 c2.64,2.24,6.33,3.36,11.06,3.36 c4.73,0.0,8.4,-1.14,11.01,-3.41 c2.61,-2.27,3.91,-5.44,3.91,-9.51 l0,-8.98 c0,-3.96,-1.31,-7.02,-3.94,-9.21 c-2.62,-2.18,-6.3,-3.27,-11.04,-3.27 Z M211.18,85.82 c2.29,0,3.97,0.53,5.05,1.58 c1.07,1.05,1.61,2.69,1.61,4.91 l0,8.48 c0,2.29,-0.54,3.97,-1.61,5.05 c-1.07,1.07,-2.75,1.61,-5.05,1.61 c-2.29,0,-3.97,-0.54,-5.05,-1.61 c-1.07,-1.07,-1.61,-2.74,-1.61,-4.99 l0,-8.37 c0,-2.29,0.54,-3.97,1.61,-5.05 c1.07,-1.07,2.75,-1.61,5.05,-1.61 Z M245.06,79.45 c-2.88,0,-5.28,0.95,-7.18,2.86 c-1.9,1.9,-2.86,4.52,-2.86,7.85 l0,23.12 l8.32,0 l0,-21.02 c0,-2.0,0.42,-3.49,1.25,-4.49 c0.83,-1.0,2.06,-1.5,3.69,-1.5 c1.44,0,2.86,0.45,4.24,1.36 c1.39,0.91,2.76,2.21,4.13,3.91 l0,21.74 l8.32,0 l0,-33.27 l-8.32,0 l0,5.82 l-1.66,0 c-0.89,-2.11,-2.27,-3.7,-4.16,-4.77 c-1.89,-1.07,-3.81,-1.61,-5.77,-1.61 Z M294.64,79.45 c-4.14,0,-7.35,0.98,-9.62,2.94 c-2.27,1.96,-3.41,4.84,-3.41,8.65 l0,15.86 l-8.6,0 l0,6.38 l8.6,0 l0,11.09 l8.32,0 l0,-11.09 l13.31,0 l0,-6.38 l-13.31,0 l0,-14.81 c0,-2.11,0.5,-3.65,1.5,-4.63 c1.0,-0.98,2.4,-1.47,4.21,-1.47 c1.15,0,2.31,0.08,3.49,0.25 c1.18,0.17,2.35,0.45,3.49,0.86 l1.11,-6.32 c-1.0,-0.37,-2.28,-0.68,-3.85,-0.94 c-1.57,-0.26,-3.32,-0.39,-5.24,-0.39 Z M312.66,80 l0,44.36 l8.32,0 l0,-16.91 l1.66,0 c0.85,2.0,2.16,3.56,3.94,4.69 c1.77,1.13,3.79,1.69,6.04,1.69 c3.07,0.0,5.5,-0.96,7.29,-2.88 c1.79,-1.92,2.69,-4.51,2.69,-7.76 l0,-23.18 l-8.32,0 l0,21.07 c0,1.92,-0.42,3.4,-1.25,4.44 c-0.83,1.04,-2.04,1.55,-3.63,1.55 c-1.4,0,-2.83,-0.46,-4.27,-1.39 c-1.44,-0.92,-2.83,-2.24,-4.16,-3.94 l0,-21.74 Z M312.66,80" fill="rgb(0,0,0)" transform="matrix(1,0,0,-1,0,200)"/>
</svg>