<?xml version="1.0" encoding="UTF-8"?>
<svg height="200" version="1.1" width="500" xmlns="http://www.w3.org/2000/svg" xmlns:xlink="http://www.w3.org/1999/xlink">
 <path d="M0,0 l500,0 l0,200 l-500,0 Z M0,0" fill="rgb(255,255,255)" transform="matrix(1,0,0,-1,0,200)"/>
 <path d="M75.21,85.88 c2.33,0,4.04,0.5,5.13,1.5 c1.09,1.0,1.64,2.62,1.64,4.88 l0,8.65 c0,2.11,-0.44,3.66,-1.33,4.66 c-0.89,1.0,-2.2,1.5,-3.94,1.5 c-1.44,0,-2.8,-0.35,-4.08,-1.05 c-1.28,-0.7,-2.6,-1.79,-3.97,-3.27 l0,-15.08 c1.04,-0.59,2.05,-1.04,3.05,-1.33 c1.0,-0.3,2.16,-0.44,3.49,-0.44 Z M76.26,79.56 c-1.26,0,-2.55,0.12,-3.88,0.36 c-1.33,0.24,-2.57,0.6,-3.72,1.08 l0,-12.09 l-8.32,0 l0,44.36 l8.32,0 l0,-5.82 l1.66,0 c0.89,1.96,2.22,3.51,3.99,4.66 c1.77,1.15,3.73,1.72,5.88,1.72 c3.11,0.0,5.56,-1.06,7.38,-3.19 c1.81,-2.13,2.72,-5.02,2.72,-8.68 l0,-9.82 c0,-3.84,-1.26,-6.9,-3.77,-9.18 c-2.51,-2.27,-5.93,-3.41,-10.26,-3.41 Z M101.1,80 l0,33.27 l8.32,0 l0,-5.82 l1.66,0 c0.81,2.22,2.06,3.84,3.74,4.85 c1.68,1.02,3.69,1.53,6.02,1.52 c2.66,0.0,4.78,-0.82,6.35,-2.47 c1.57,-1.65,2.36,-3.96,2.36,-6.96 l0,-5.6 l-7.65,0 l0,3.05 c0.0,1.7,-0.38,2.99,-1.14,3.88 c-0.76,0.89,-1.99,1.33,-3.69,1.33 c-1.48,0,-2.87,-0.36,-4.19,-1.08 c-1.31,-0.72,-2.47,-1.89,-3.47,-3.52 l0,-22.46 Z M152.95,79.45 c-4.73,0,-8.41,1.1,-11.04,3.3 c-2.62,2.2,-3.94,5.3,-3.94,9.29 l0,8.98 c0,4.07,1.32,7.22,3.97,9.45 c2.64,2.24,6.33,3.36,11.06,3.36 c4.73,0.0,8.4,-1.14,11.01,-3.41 c2.61,-2.27,3.91,-5.44,3.91,-9.51 l0,-8.98 c0,-3.96,-1.31,-7.02,-3.94,-9.21 c-2.62,-2.18,-6.3,-3.27,-11.04,-3.27 Z M152.95,85.82 c2.29,0,3.97,0.53,5.05,1.58 c1.07,1.05,1.61,2.69,1.61,4.91 l0,8.48 c0,2.29,-0.54,3.97,-1.61,5.05 c-1.07,1.07,-2.75,1.61,-5.05,1.61 c-2.29,0,-3.97,-0.54,-5.05,-1.61 c-1.07,-1.07,-1.61,-2.74,-1.61,-4.99 l0,-8.37 c0,-2.29,0.54,-3.97,1.61,-5.05 c1.07,-1.07,2.75,-1.61,5.05,-1.61 Z M190.39,86.27 c1.44,0,2.81,0.35,4.1,1.05 c1.29,0.7,2.61,1.77,3.94,3.22 l0,15.14 c-0.92,0.59,-1.94,1.04,-3.05,1.33 c-1.11,0.3,-2.26,0.44,-3.44,0.44 c-2.29,0,-4.0,-0.53,-5.13,-1.58 c-1.13,-1.05,-1.69,-2.65,-1.69,-4.8 l0,-8.65 c0,-2.11,0.45,-3.66,1.36,-4.66 c0.91,-1.0,2.21,-1.5,3.91,-1.5 Z M196.76,85.82 c-0.92,-2.0,-2.25,-3.56,-3.97,-4.69 c-1.72,-1.13,-3.69,-1.69,-5.91,-1.69 c-3.22,0,-5.7,1.11,-7.46,3.33 c-1.76,2.22,-2.63,5.06,-2.63,8.54 l0,9.82 c0,3.96,1.24,7.04,3.72,9.26 c2.48,2.22,5.92,3.33,10.31,3.33 c1.33,0,2.64,-0.12,3.94,-0.36 c1.29,-0.24,2.51,-0.58,3.66,-1.03 l0,12.03 l8.32,0 l0,-44.36 l-8.32,0 l0,5.82 Z M225.66,79.45 c-2.88,0,-5.28,0.95,-7.18,2.86 c-1.9,1.9,-2.86,4.52,-2.86,7.85 l0,23.12 l8.32,0 l0,-21.02 c0,-2.0,0.42,-3.49,1.25,-4.49 c0.83,-1.0,2.06,-1.5,3.69,-1.5 c1.44,0,2.86,0.45,4.24,1.36 c1.39,0.91,2.76,2.21,4.13,3.91 l0,21.74 l8.32,0 l0,-33.27 l-8.32,0 l0,5.82 l-1.66,0 c-0.89,-2.11,-2.27,-3.7,-4.16,-4.77 c-1.89,-1.07,-3.81,-1.61,-5.77,-1.61 Z M270.07,79.45 c-5.1,0,-8.98,1.1,-11.65,3.3 c-2.66,2.2,-3.99,5.39,-3.99,9.57 l0,8.65 c0,4.18,1.33,7.37,3.99,9.57 c2.66,2.2,6.53,3.3,11.59,3.3 c4.7,0.0,8.22,-1.04,10.56,-3.11 c2.35,-2.07,3.72,-5.03,4.13,-8.87 l-8.04,-0.61 c-0.15,2.22,-0.77,3.81,-1.86,4.77 c-1.09,0.96,-2.76,1.44,-5.02,1.44 c-2.44,0,-4.22,-0.54,-5.35,-1.61 c-1.13,-1.07,-1.69,-2.83,-1.69,-5.27 l0,-7.99 c0,-2.37,0.57,-4.09,1.72,-5.16 c1.15,-1.07,2.96,-1.61,5.43,-1.61 c2.22,0,3.86,0.4,4.94,1.19 c1.07,0.79,1.68,2.1,1.83,3.91 l8.04,-0.61 c-0.26,-3.51,-1.51,-6.2,-3.74,-8.07 c-2.24,-1.87,-5.87,-2.8,-10.9,-2.8 Z M314.05,79.45 c-4.14,0,-7.35,0.98,-9.62,2.94 c-2.27,1.96,-3.41,4.84,-3.41,8.65 l0,15.86 l-8.6,0 l0,6.38 l8.6,0 l0,11.09 l8.32,0 l0,-11.09 l13.31,0 l0,-6.38 l-13.31,0 l0,-14.81 c0,-2.11,0.5,-3.65,1.5,-4.63 c1.0,-0.98,2.4,-1.47,4.21,-1.47 c1.15,0,2.31,0.08,3.49,0.25 c1.18,0.17,2.35,0.45,3.49,0.86 l1.11,-6.32 c-1.0,-0.37,-2.28,-0.68,-3.85,-0.94 c-1.57,-0.26,-3.32,-0.39,-5.24,-0.39 Z M332.35,80 l0,6.38 l10.54,0 l0,20.52 l-10.54,0 l0,6.38 l18.85,0 l0,-26.9 l10.54,0 l0,-6.38 Z M347.38,118.82 c-1.77,0,-3.21,0.28,-4.3,0.83 c-1.09,0.55,-1.64,1.52,-1.64,2.88 l0,0.61 c0,1.4,0.55,2.39,1.64,2.97 c1.09,0.57,2.52,0.86,4.3,0.86 c1.77,0,3.21,-0.29,4.3,-0.86 c1.09,-0.57,1.64,-1.56,1.64,-2.97 l0,-0.61 c0,-1.37,-0.55,-2.33,-1.66,-2.88 c-1.11,-0.55,-2.53,-0.83,-4.27,-0.83 Z M385.86,79.45 c-4.73,0,-8.41,1.1,-11.04,3.3 c-2.62,2.2,-3.94,5.3,-3.94,9.29 l0,8.98 c0,4.07,1.32,7.22,3.96,9.45 c2.64,2.24,6.33,3.36,11.06,3.36 c4.73,0.0,8.4,-1.14,11.01,-3.41 c2.61,-2.27,3.91,-5.44,3.91,-9.51 l0,-8.98 c0,-3.96,-1.31,-7.02,-3.94,-9.21 c-2.62,-2.18,-6.3,-3.27,-11.04,-3.27 Z M385.86,85.82 c2.29,0,3.97,0.53,5.05,1.58 c1.07,1.05,1.61,2.69,1.61,4.91 l0,8.48 c-0.0,2.29,-0.54,3.97,-1.61,5.05 c-1.07,1.07,-2.75,1.61,-5.05,1.61 c-2.29,0,-3.97,-0.54,-5.05,-1.61 c-1.07,-1.07,-1.61,-2.74,-1.61,-4.99 l0,-8.37 c0,-2.29,0.54,-3.97,1.61,-5.05 c1.07,-1.07,2.75,-1.61,5.05,-1.61 Z M409.71,80 l0,33.27 l8.32,0 l0,-5.82 l1.66,0 c0.85,2.0,2.19,3.56,4.02,4.69 c1.83,1.13,3.91,1.69,6.24,1.69 c3.03,0.0,5.41,-0.95,7.13,-2.86 c1.72,-1.9,2.58,-4.52,2.58,-7.85 l0,-23.12 l-8.32,0 l0,21.63 c0.0,1.77,-0.42,3.12,-1.25,4.05 c-0.83,0.92,-2.04,1.39,-3.63,1.39 c-1.4,0,-2.85,-0.4,-4.33,-1.19 c-1.48,-0.79,-2.85,-1.99,-4.1,-3.58 l0,-22.29 Z M409.71,80" fill="rgb(0,0,0)" transform="matrix(1,0,0,-1,0,200)"/>
</svg>