<?xml version="1.0" encoding="UTF-8"?>
<svg height="200" version="1.1" width="500" xmlns="http://www.w3.org/2000/svg" xmlns:xlink="http://www.w3.org/1999/xlink">
 <path d="M0,0 l500,0 l0,200 l-500,0 Z M0,0" fill="rgb(255,255,255)" transform="matrix(1,0,0,-1,0,200)"/>
 <path d="M139.92,80 l0,33.27 l8.32,0 l0,-5.82 l1.66,0 c0.81,2.22,2.06,3.84,3.74,4.85 c1.68,1.02,3.69,1.53,6.02,1.52 c2.66,0.0,4.78,-0.82,6.35,-2.47 c1.57,-1.65,2.36,-3.96,2.36,-6.96 l0,-5.6 l-7.65,0 l0,3.05 c0,1.7,-0.38,2.99,-1.14,3.88 c-0.76,0.89,-1.99,1.33,-3.69,1.33 c-1.48,0,-2.87,-0.36,-4.19,-1.08 c-1.31,-0.72,-2.47,-1.89,-3.47,-3.52 l0,-22.46 Z M207.19,87.6 c-1.22,-2.99,-2.93,-5.1,-5.13,-6.32 c-2.2,-1.22,-5.57,-1.83,-10.12,-1.83 c-4.51,0,-8.16,1.06,-10.95,3.19 c-2.79,2.13,-4.19,5.3,-4.19,9.51 l0,8.87 c0,4.14,1.36,7.31,4.08,9.51 c2.72,2.2,6.37,3.3,10.95,3.3 c4.62,0.0,8.26,-1.11,10.92,-3.33 c2.66,-2.22,3.99,-5.45,3.99,-9.7 l0,-5.82 l-21.63,0 l0,-3.22 c0,-2.18,0.55,-3.81,1.66,-4.88 c1.11,-1.07,2.87,-1.61,5.27,-1.61 c2.11,0,3.76,0.31,4.96,0.94 c1.2,0.63,2.19,1.76,2.97,3.38 Z M185.12,101.57 l0,-1.72 l13.31,0 l0,1.22 c0,2.55,-0.52,4.37,-1.55,5.46 c-1.04,1.09,-2.74,1.64,-5.1,1.64 c-2.37,-0.0,-4.07,-0.52,-5.1,-1.55 c-1.04,-1.04,-1.55,-2.72,-1.55,-5.05 Z M216.17,80 l0,6.38 l10.81,0 l0,31.61 l-10.81,0 l0,6.38 l19.13,0 l0,-37.99 l10.54,0 l0,-6.38 Z M254.71,80 l0,6.38 l10.54,0 l0,20.52 l-10.54,0 l0,6.38 l18.85,0 l0,-26.9 l10.54,0 l0,-6.38 Z M269.74,118.82 c-1.77,0,-3.21,0.28,-4.3,0.83 c-1.09,0.55,-1.64,1.52,-1.64,2.88 l0,0.61 c0,1.4,0.55,2.39,1.64,2.97 c1.09,0.57,2.52,0.86,4.3,0.86 c1.77,0,3.21,-0.29,4.3,-0.86 c1.09,-0.57,1.64,-1.56,1.64,-2.97 l0,-0.61 c0,-1.37,-0.55,-2.33,-1.66,-2.88 c-1.11,-0.55,-2.53,-0.83,-4.27,-0.83 Z M323.64,87.6 c-1.22,-2.99,-2.93,-5.1,-5.13,-6.32 c-2.2,-1.22,-5.57,-1.83,-10.12,-1.83 c-4.51,0,-8.16,1.06,-10.95,3.19 c-2.79,2.13,-4.19,5.3,-4.19,9.51 l0,8.87 c0,4.14,1.36,7.31,4.08,9.51 c2.72,2.2,6.37,3.3,10.95,3.3 c4.62,0.0,8.26,-1.11,10.92,-3.33 c2.66,-2.22,3.99,-5.45,3.99,-9.7 l0,-5.82 l-21.63,0 l0,-3.22 c0,-2.18,0.55,-3.81,1.66,-4.88 c1.11,-1.07,2.87,-1.61,5.27,-1.61 c2.11,0,3.76,0.31,4.96,0.94 c1.2,0.63,2.19,1.76,2.97,3.38 Z M301.57,101.57 l0,-1.72 l13.31,0 l0,1.22 c0,2.55,-0.52,4.37,-1.55,5.46 c-1.04,1.09,-2.74,1.64,-5.1,1.64 c-2.37,-0.0,-4.07,-0.52,-5.1,-1.55 c-1.04,-1.04,-1.55,-2.72,-1.55,-5.05 Z M340.67,80 l0,26.9 l-9.15,0 l0,6.38 l9.15,0 l0,2.0 c0,3.29,1.24,5.86,3.72,7.71 c2.48,1.85,5.71,2.77,9.7,2.77 c1.63,0,3.17,-0.13,4.63,-0.39 c1.46,-0.26,2.82,-0.59,4.08,-1.0 l-1.11,-5.82 c-1.04,0.33,-2.13,0.6,-3.27,0.8 c-1.15,0.2,-2.35,0.31,-3.6,0.31 c-1.81,0,-3.23,-0.4,-4.27,-1.19 c-1.04,-0.79,-1.55,-2.01,-1.55,-3.63 l0,-1.55 l13.03,0 l0,-6.38 l-13.03,0 l0,-26.9 Z M340.67,80" fill="rgb(0,0,0)" transform="matrix(1,0,0,-1,0,200)"/>
</svg>