<?xml version="1.0" encoding="UTF-8"?>
<svg height="200" version="1.1" width="500" xmlns="http://www.w3.org/2000/svg" xmlns:xlink="http://www.w3.org/1999/xlink">
 <path d="M0,0 l500,0 l0,200 l-500,0 Z M0,0" fill="rgb(255,255,255)" transform="matrix(1,0,0,-1,0,200)"/>
 <path d="M153.23,79.56 c-2.88,0,-5.7,0.4,-8.46,1.19 c-2.75,0.79,-5.2,1.97,-7.35,3.52 l2.5,5.49 c2.0,-1.4,4.19,-2.48,6.57,-3.22 c2.38,-0.74,4.67,-1.11,6.85,-1.11 c1.81,0,3.32,0.27,4.52,0.8 c1.2,0.54,1.8,1.54,1.8,3.02 c0,1.37,-0.55,2.35,-1.66,2.94 c-1.11,0.59,-3.09,1.07,-5.93,1.44 c-4.4,0.48,-7.75,1.41,-10.06,2.8 c-2.31,1.39,-3.47,3.67,-3.47,6.85 c0,3.33,1.28,5.92,3.85,7.76 c2.57,1.85,5.81,2.77,9.73,2.77 c2.44,0.0,4.9,-0.39,7.38,-1.16 c2.48,-0.78,4.73,-1.85,6.77,-3.22 l-2.22,-5.27 c-1.89,1.22,-3.83,2.15,-5.82,2.8 c-2.0,0.65,-3.96,0.97,-5.88,0.97 c-1.59,0,-2.91,-0.29,-3.97,-0.86 c-1.05,-0.57,-1.58,-1.54,-1.58,-2.91 c0,-1.37,0.62,-2.33,1.86,-2.88 c1.24,-0.55,3.41,-1.02,6.52,-1.39 c4.29,-0.52,7.49,-1.56,9.59,-3.13 c2.11,-1.57,3.16,-3.8,3.16,-6.68 c0,-3.44,-1.38,-6.05,-4.13,-7.85 c-2.75,-1.79,-6.28,-2.69,-10.56,-2.69 Z M186.84,79.45 c-2.88,0,-5.28,0.95,-7.18,2.86 c-1.9,1.9,-2.86,4.52,-2.86,7.85 l0,23.12 l8.32,0 l0,-21.02 c0,-2.0,0.42,-3.49,1.25,-4.49 c0.83,-1.0,2.06,-1.5,3.69,-1.5 c1.44,0,2.86,0.45,4.24,1.36 c1.39,0.91,2.76,2.21,4.13,3.91 l0,21.74 l8.32,0 l0,-33.27 l-8.32,0 l0,5.82 l-1.66,0 c-0.89,-2.11,-2.27,-3.7,-4.16,-4.77 c-1.89,-1.07,-3.81,-1.61,-5.77,-1.61 Z M230.48,85.88 c2.33,0,4.04,0.5,5.13,1.5 c1.09,1.0,1.64,2.62,1.64,4.88 l0,8.65 c0,2.11,-0.44,3.66,-1.33,4.66 c-0.89,1.0,-2.2,1.5,-3.94,1.5 c-1.44,0,-2.8,-0.35,-4.08,-1.05 c-1.28,-0.7,-2.6,-1.79,-3.97,-3.27 l0,-15.08 c1.04,-0.59,2.05,-1.04,3.05,-1.33 c1.0,-0.3,2.16,-0.44,3.49,-0.44 Z M231.53,79.56 c-1.26,0,-2.55,0.12,-3.88,0.36 c-1.33,0.24,-2.57,0.6,-3.72,1.08 l0,-12.09 l-8.32,0 l0,44.36 l8.32,0 l0,-5.82 l1.66,0 c0.89,1.96,2.22,3.51,3.99,4.66 c1.77,1.15,3.73,1.72,5.88,1.72 c3.11,0.0,5.56,-1.06,7.38,-3.19 c1.81,-2.13,2.72,-5.02,2.72,-8.68 l0,-9.82 c0,-3.84,-1.26,-6.9,-3.77,-9.18 c-2.51,-2.27,-5.93,-3.41,-10.26,-3.41 Z M269.3,85.88 c2.33,0,4.04,0.5,5.13,1.5 c1.09,1.0,1.64,2.62,1.64,4.88 l0,8.65 c0,2.11,-0.44,3.66,-1.33,4.66 c-0.89,1.0,-2.2,1.5,-3.94,1.5 c-1.44,0,-2.8,-0.35,-4.08,-1.05 c-1.28,-0.7,-2.6,-1.79,-3.96,-3.27 l0,-15.08 c1.04,-0.59,2.05,-1.04,3.05,-1.33 c1.0,-0.3,2.16,-0.44,3.49,-0.44 Z M270.35,79.56 c-1.26,0,-2.55,0.12,-3.88,0.36 c-1.33,0.24,-2.57,0.6,-3.72,1.08 l0,-12.09 l-8.32,0 l0,44.36 l8.32,0 l0,-5.82 l1.66,0 c0.89,1.96,2.22,3.51,3.99,4.66 c1.77,1.15,3.73,1.72,5.88,1.72 c3.11,0.0,5.56,-1.06,7.38,-3.19 c1.81,-2.13,2.72,-5.02,2.72,-8.68 l0,-9.82 c0,-3.84,-1.26,-6.9,-3.77,-9.18 c-2.51,-2.27,-5.93,-3.41,-10.26,-3.41 Z M293.81,80 l0,6.38 l10.81,0 l0,31.61 l-10.81,0 l0,6.38 l19.13,0 l0,-37.99 l10.54,0 l0,-6.38 Z M337.84,68.41 c-1.07,0,-2.19,0.06,-3.35,0.17 c-1.16,0.11,-2.38,0.26,-3.63,0.44 l0.72,6.38 c1.29,-0.26,2.46,-0.45,3.49,-0.58 c1.04,-0.13,1.96,-0.19,2.77,-0.19 c1.89,0,3.41,0.44,4.57,1.33 c1.16,0.89,2.1,2.48,2.8,4.77 l0.11,0.39 l-4.55,0 l-10.43,32.16 l8.65,0 l8.04,-26.62 l8.32,26.62 l8.32,0 l-11.2,-33.38 c-1.37,-4.18,-3.2,-7.14,-5.49,-8.87 c-2.29,-1.74,-5.34,-2.61,-9.15,-2.61 Z M337.84,68.41" fill="rgb(0,0,0)" transform="matrix(1,0,0,-1,0,200)"/>
</svg>