<?xml version="1.0" encoding="UTF-8"?>
<svg height="200" version="1.1" width="500" xmlns="http://www.w3.org/2000/svg" xmlns:xlink="http://www.w3.org/1999/xlink">
 <path d="M0,0 l500,0 l0,200 l-500,0 Z M0,0" fill="rgb(255,255,255)" transform="matrix(1,0,0,-1,0,200)"/>
 <path d="M178.19,79.45 c-4.14,0,-7.35,0.98,-9.62,2.94 c-2.27,1.96,-3.41,4.84,-3.41,8.65 l0,15.86 l-8.6,0 l0,6.38 l8.6,0 l0,11.09 l8.32,0 l0,-11.09 l13.31,0 l0,-6.38 l-13.31,0 l0,-14.81 c0,-2.11,0.5,-3.65,1.5,-4.63 c1.0,-0.98,2.4,-1.47,4.21,-1.47 c1.15,0,2.31,0.08,3.49,0.25 c1.18,0.17,2.35,0.45,3.49,0.86 l1.11,-6.32 c-1.0,-0.37,-2.28,-0.68,-3.85,-0.94 c-1.57,-0.26,-3.32,-0.39,-5.24,-0.39 Z M196.21,80 l0,44.36 l8.32,0 l0,-16.91 l1.66,0 c0.85,2.0,2.16,3.56,3.94,4.69 c1.77,1.13,3.79,1.69,6.04,1.69 c3.07,0.0,5.5,-0.96,7.29,-2.88 c1.79,-1.92,2.69,-4.51,2.69,-7.76 l0,-23.18 l-8.32,0 l0,21.07 c0,1.92,-0.42,3.4,-1.25,4.44 c-0.83,1.04,-2.04,1.55,-3.63,1.55 c-1.4,0,-2.83,-0.46,-4.27,-1.39 c-1.44,-0.92,-2.83,-2.24,-4.16,-3.94 l0,-21.74 Z M235.3,80 l0,6.38 l10.54,0 l0,20.52 l-10.54,0 l0,6.38 l18.85,0 l0,-26.9 l10.54,0 l0,-6.38 Z M250.33,118.82 c-1.77,0,-3.21,0.28,-4.3,0.83 c-1.09,0.55,-1.64,1.52,-1.64,2.88 l0,0.61 c0,1.4,0.55,2.39,1.64,2.97 c1.09,0.57,2.52,0.86,4.3,0.86 c1.77,0,3.21,-0.29,4.3,-0.86 c1.09,-0.57,1.64,-1.56,1.64,-2.97 l0,-0.61 c0,-1.37,-0.55,-2.33,-1.66,-2.88 c-1.11,-0.55,-2.53,-0.83,-4.27,-0.83 Z M289.48,79.45 c-5.1,0,-8.98,1.1,-11.65,3.3 c-2.66,2.2,-3.99,5.39,-3.99,9.57 l0,8.65 c0,4.18,1.33,7.37,3.99,9.57 c2.66,2.2,6.53,3.3,11.59,3.3 c4.7,0.0,8.22,-1.04,10.56,-3.11 c2.35,-2.07,3.72,-5.03,4.13,-8.87 l-8.04,-0.61 c-0.15,2.22,-0.77,3.81,-1.86,4.77 c-1.09,0.96,-2.76,1.44,-5.02,1.44 c-2.44,0,-4.22,-0.54,-5.35,-1.61 c-1.13,-1.07,-1.69,-2.83,-1.69,-5.27 l0,-7.99 c0,-2.37,0.57,-4.09,1.72,-5.16 c1.15,-1.07,2.96,-1.61,5.43,-1.61 c2.22,0,3.86,0.4,4.94,1.19 c1.07,0.79,1.68,2.1,1.83,3.91 l8.04,-0.61 c-0.26,-3.51,-1.51,-6.2,-3.74,-8.07 c-2.24,-1.87,-5.87,-2.8,-10.9,-2.8 Z M322.65,94.36 l0,-14.36 l-8.32,0 l0,44.36 l8.32,0 l0,-24.07 l2.44,0 l9.59,12.98 l9.04,0 l-11.81,-15.19 l11.65,-18.08 l-9.04,0 l-9.43,14.36 Z M322.65,94.36" fill="rgb(0,0,0)" transform="matrix(1,0,0,-1,0,200)"/>
</svg>