<?xml version="1.0" encoding="UTF-8"?>
<svg height="200" version="1.1" width="500" xmlns="http://www.w3.org/2000/svg" xmlns:xlink="http://www.w3.org/1999/xlink">
 <path d="M0,0 l500,0 l0,200 l-500,0 Z M0,0" fill="rgb(255,255,255)" transform="matrix(1,0,0,-1,0,200)"/>
 <path d="M178.19,79.45 c-4.14,0,-7.35,0.98,-9.62,2.94 c-2.27,1.96,-3.41,4.84,-3.41,8.65 l0,15.86 l-8.6,0 l0,6.38 l8.6,0 l0,11.09 l8.32,0 l0,-11.09 l13.31,0 l0,-6.38 l-13.31,0 l0,-14.81 c0,-2.11,0.5,-3.65,1.5,-4.63 c1.0,-0.98,2.4,-1.47,4.21,-1.47 c1.15,0,2.31,0.08,3.49,0.25 c1.18,0.17,2.35,0.45,3.49,0.86 l1.11,-6.32 c-1.0,-0.37,-2.28,-0.68,-3.85,-0.94 c-1.57,-0.26,-3.32,-0.39,-5.24,-0.39 Z M196.21,80 l0,44.36 l8.32,0 l0,-16.91 l1.66,0 c0.85,2.0,2.16,3.56,3.94,4.69 c1.77,1.13,3.79,1.69,6.04,1.69 c3.07,0.0,5.5,-0.96,7.29,-2.88 c1.79,-1.92,2.69,-4.51,2.69,-7.76 l0,-23.18 l-8.32,0 l0,21.07 c0,1.92,-0.42,3.4,-1.25,4.44 c-0.83,1.04,-2.04,1.55,-3.63,1.55 c-1.4,0,-2.83,-0.46,-4.27,-1.39 c-1.44,-0.92,-2.83,-2.24,-4.16,-3.94 l0,-21.74 Z M235.3,80 l0,6.38 l10.54,0 l0,20.52 l-10.54,0 l0,6.38 l18.85,0 l0,-26.9 l10.54,0 l0,-6.38 Z M250.33,118.82 c-1.77,0,-3.21,0.28,-4.3,0.83 c-1.09,0.55,-1.64,1.52,-1.64,2.88 l0,0.61 c0,1.4,0.55,2.39,1.64,2.97 c1.09,0.57,2.52,0.86,4.3,0.86 c1.77,0,3.21,-0.29,4.3,-0.86 c1.09,-0.57,1.64,-1.56,1.64,-2.97 l0,-0.61 c0,-1.37,-0.55,-2.33,-1.66,-2.88 c-1.11,-0.55,-2.53,-0.83,-4.27,-0.83 Z M273.85,80 l0,33.27 l8.32,0 l0,-5.82 l1.66,0 c0.85,2.0,2.19,3.56,4.02,4.69 c1.83,1.13,3.91,1.69,6.24,1.69 c3.03,0.0,5.41,-0.95,7.13,-2.86 c1.72,-1.9,2.58,-4.52,2.58,-7.85 l0,-23.12 l-8.32,0 l0,21.63 c0,1.77,-0.42,3.12,-1.25,4.05 c-0.83,0.92,-2.04,1.39,-3.63,1.39 c-1.4,0,-2.85,-0.4,-4.33,-1.19 c-1.48,-0.79,-2.85,-1.99,-4.1,-3.58 l0,-22.29 Z M344.83,77.95 c0,-3.03,-1.13,-5.39,-3.38,-7.07 c-2.26,-1.68,-5.16,-2.52,-8.71,-2.52 l-9.98,0 c-3.88,0,-6.9,0.71,-9.07,2.13 c-2.16,1.42,-3.24,3.35,-3.24,5.8 c0,1.81,0.54,3.27,1.61,4.38 c1.07,1.11,2.48,1.76,4.21,1.94 l0,1.11 c-1.33,0.33,-2.44,0.92,-3.33,1.77 c-0.89,0.85,-1.33,2.16,-1.33,3.94 c0,1.85,0.62,3.41,1.86,4.69 c1.24,1.28,2.99,2.02,5.24,2.25 l0,1.05 c-1.89,0.52,-3.24,1.36,-4.08,2.52 c-0.83,1.16,-1.25,2.43,-1.25,3.8 l0,0.78 c0,2.7,1.16,4.83,3.49,6.41 c2.33,1.57,5.38,2.36,9.15,2.36 l18.13,0 l0,-5.55 l-8.87,1.16 l0,-1.05 c1.4,-0.37,2.52,-1.1,3.36,-2.19 c0.83,-1.09,1.25,-2.25,1.25,-3.47 l0,-0.83 c0,-2.66,-1.12,-4.75,-3.36,-6.27 c-2.24,-1.52,-5.37,-2.27,-9.4,-2.27 l-5.77,0 c-1.11,0,-1.97,-0.22,-2.58,-0.67 c-0.61,-0.44,-0.92,-1.2,-0.92,-2.27 c0,-1.04,0.35,-1.79,1.05,-2.27 c0.7,-0.48,1.72,-0.72,3.05,-0.72 l11.2,0 c3.44,0,6.24,-0.72,8.4,-2.16 c2.16,-1.44,3.24,-3.7,3.24,-6.77 Z M326.69,97.41 c1.89,0,3.28,0.37,4.19,1.11 c0.91,0.74,1.36,1.79,1.36,3.16 l0,2.27 c0,1.33,-0.46,2.35,-1.39,3.05 c-0.92,0.7,-2.31,1.05,-4.16,1.05 c-1.89,0,-3.28,-0.35,-4.19,-1.05 c-0.91,-0.7,-1.36,-1.72,-1.36,-3.05 l0,-2.27 c0,-1.37,0.45,-2.42,1.36,-3.16 c0.91,-0.74,2.3,-1.11,4.19,-1.11 Z M322.76,73.62 l10.26,0 c1.44,0,2.62,0.24,3.52,0.72 c0.91,0.48,1.36,1.4,1.36,2.77 c0,1.37,-0.43,2.29,-1.28,2.77 c-0.85,0.48,-1.96,0.72,-3.33,0.72 l-14.86,0 l0,-3.22 c0,-1.26,0.36,-2.2,1.08,-2.83 c0.72,-0.63,1.8,-0.94,3.24,-0.94 Z M322.76,73.62" fill="rgb(0,0,0)" transform="matrix(1,0,0,-1,0,200)"/>
</svg>