<?xml version="1.0" encoding="UTF-8"?>
<svg height="200" version="1.1" width="500" xmlns="http://www.w3.org/2000/svg" xmlns:xlink="http://www.w3.org/1999/xlink">
 <path d="M0,0 l500,0 l0,200 l-500,0 Z M0,0" fill="rgb(255,255,255)" transform="matrix(1,0,0,-1,0,200)"/>
 <path d="M158.78,79.45 c-4.14,0,-7.35,0.98,-9.62,2.94 c-2.27,1.96,-3.41,4.84,-3.41,8.65 l0,15.86 l-8.6,0 l0,6.38 l8.6,0 l0,11.09 l8.32,0 l0,-11.09 l13.31,0 l0,-6.38 l-13.31,0 l0,-14.81 c0,-2.11,0.5,-3.65,1.5,-4.63 c1.0,-0.98,2.4,-1.47,4.21,-1.47 c1.15,0,2.31,0.08,3.49,0.25 c1.18,0.17,2.35,0.45,3.49,0.86 l1.11,-6.32 c-1.0,-0.37,-2.28,-0.68,-3.85,-0.94 c-1.57,-0.26,-3.32,-0.39,-5.24,-0.39 Z M191.77,79.45 c-4.73,0,-8.41,1.1,-11.04,3.3 c-2.62,2.2,-3.94,5.3,-3.94,9.29 l0,8.98 c0,4.07,1.32,7.22,3.97,9.45 c2.64,2.24,6.33,3.36,11.06,3.36 c4.73,0.0,8.4,-1.14,11.01,-3.41 c2.61,-2.27,3.91,-5.44,3.91,-9.51 l0,-8.98 c0,-3.96,-1.31,-7.02,-3.94,-9.21 c-2.62,-2.18,-6.3,-3.27,-11.04,-3.27 Z M191.77,85.82 c2.29,0,3.97,0.53,5.05,1.58 c1.07,1.05,1.61,2.69,1.61,4.91 l0,8.48 c0,2.29,-0.54,3.97,-1.61,5.05 c-1.07,1.07,-2.75,1.61,-5.05,1.61 c-2.29,0,-3.97,-0.54,-5.05,-1.61 c-1.07,-1.07,-1.61,-2.74,-1.61,-4.99 l0,-8.37 c0,-2.29,0.54,-3.97,1.61,-5.05 c1.07,-1.07,2.75,-1.61,5.05,-1.61 Z M235.19,80 l-4.6,18.69 l-4.38,-18.69 l-7.99,0 l-5.71,33.27 l7.38,0 l3.38,-25.29 l3.99,19.46 l6.43,0 l4.44,-18.8 l3.22,24.62 l7.32,0 l-5.71,-33.27 Z M265.58,85.16 c1.55,0,2.99,0.25,4.33,0.75 c1.33,0.5,2.55,1.28,3.66,2.36 l0,5.38 l-8.32,0 c-1.37,0,-2.45,-0.3,-3.24,-0.89 c-0.79,-0.59,-1.19,-1.74,-1.19,-3.44 c0,-1.33,0.37,-2.36,1.11,-3.08 c0.74,-0.72,1.96,-1.08,3.66,-1.08 Z M263.75,79.45 c-3.03,0,-5.57,0.81,-7.62,2.44 c-2.05,1.63,-3.08,4.01,-3.08,7.15 c0,3.03,1.04,5.37,3.11,7.02 c2.07,1.65,4.71,2.47,7.93,2.47 l9.48,0 l0,4.27 c0,1.66,-0.5,2.88,-1.5,3.66 c-1.0,0.78,-2.5,1.16,-4.49,1.16 c-2.03,0,-3.55,-0.34,-4.55,-1.03 c-1.0,-0.68,-1.76,-2.08,-2.27,-4.19 l-6.93,1.39 c0.74,3.55,2.2,6.11,4.38,7.68 c2.18,1.57,5.36,2.36,9.54,2.36 c4.33,0.0,7.72,-0.87,10.18,-2.61 c2.46,-1.74,3.69,-4.44,3.69,-8.1 l0,-13.42 c0,-1.7,0.5,-2.75,1.5,-3.16 c1.0,-0.41,2.44,-0.48,4.33,-0.22 l0,-6.27 c-2.7,-0.55,-5.02,-0.47,-6.96,0.25 c-1.94,0.72,-3.15,2.38,-3.63,4.96 l-1.39,0 c-1.11,-1.59,-2.7,-2.96,-4.77,-4.1 c-2.07,-1.15,-4.38,-1.72,-6.93,-1.72 Z M295.2,80 l0,33.27 l8.32,0 l0,-5.82 l1.66,0 c0.81,2.22,2.06,3.84,3.74,4.85 c1.68,1.02,3.69,1.53,6.02,1.52 c2.66,0.0,4.78,-0.82,6.35,-2.47 c1.57,-1.65,2.36,-3.96,2.36,-6.96 l0,-5.6 l-7.65,0 l0,3.05 c0,1.7,-0.38,2.99,-1.14,3.88 c-0.76,0.89,-1.99,1.33,-3.69,1.33 c-1.48,0,-2.87,-0.36,-4.19,-1.08 c-1.31,-0.72,-2.47,-1.89,-3.47,-3.52 l0,-22.46 Z M345.66,86.27 c1.44,0,2.81,0.35,4.1,1.05 c1.29,0.7,2.61,1.77,3.94,3.22 l0,15.14 c-0.92,0.59,-1.94,1.04,-3.05,1.33 c-1.11,0.3,-2.26,0.44,-3.44,0.44 c-2.29,0,-4.0,-0.53,-5.13,-1.58 c-1.13,-1.05,-1.69,-2.65,-1.69,-4.8 l0,-8.65 c0,-2.11,0.45,-3.66,1.36,-4.66 c0.91,-1.0,2.21,-1.5,3.91,-1.5 Z M352.04,85.82 c-0.92,-2.0,-2.25,-3.56,-3.96,-4.69 c-1.72,-1.13,-3.69,-1.69,-5.91,-1.69 c-3.22,0,-5.7,1.11,-7.46,3.33 c-1.76,2.22,-2.63,5.06,-2.63,8.54 l0,9.82 c0,3.96,1.24,7.04,3.72,9.26 c2.48,2.22,5.92,3.33,10.31,3.33 c1.33,0,2.64,-0.12,3.94,-0.36 c1.29,-0.24,2.51,-0.58,3.66,-1.03 l0,12.03 l8.32,0 l0,-44.36 l-8.32,0 l0,5.82 Z M352.04,85.82" fill="rgb(0,0,0)" transform="matrix(1,0,0,-1,0,200)"/>
</svg>