<?xml version="1.0" encoding="UTF-8"?>
<svg height="200" version="1.1" width="500" xmlns="http://www.w3.org/2000/svg" xmlns:xlink="http://www.w3.org/1999/xlink">
 <path d="M0,0 l500,0 l0,200 l-500,0 Z M0,0" fill="rgb(255,255,255)" transform="matrix(1,0,0,-1,0,200)"/>
 <path d="M170.45,103.27 l0.17,-0.17 c-16.63,-16.8,-19.24,-16.55,-20.92,-16.88 c-1.26,-0.25,-1.6,1.26,-1.68,1.68 c0,4.12,2.44,9.24,22.43,15.37 Z M165.92,91.93 l0.17,-0.17 c-1.09,-2.27,-3.11,-6.72,-3.11,-9.41 c0,-2.44,1.26,-4.45,4.03,-4.45 c4.12,0,15.37,8.99,18.98,13.1 l-0.67,3.11 c-3.61,-2.44,-8.4,-6.72,-11.93,-6.72 c-1.34,0,-2.6,0.59,-2.6,2.02 c0,3.95,7.31,9.83,7.31,12.52 c0,1.85,-0.84,2.77,-2.44,3.44 c0.76,0.25,2.94,1.09,2.94,2.1 c0,1.01,-1.6,4.12,-5.46,4.03 c-9.74,-0.25,-31.58,-11.0,-31.25,-21.5 c0.17,-4.37,5.04,-9.91,7.39,-9.91 c1.93,0,7.31,4.37,8.9,5.63 Z M198.17,104.02 c0.5,-2.86,0.84,-5.12,1.09,-6.89 c-0.25,-4.87,-1.6,-6.3,-6.64,-9.41 c-1.6,2.18,-3.44,4.79,-6.55,4.96 Z M209.6,90.58 c-4.12,-3.11,-7.39,-5.63,-12.77,-4.7 c5.38,3.28,10.92,8.4,10.92,15.29 c0,3.7,-1.26,6.55,-1.6,9.74 c-0.25,2.35,-0.76,3.11,-3.28,3.11 c-3.02,0,-4.62,-2.69,-4.79,-5.46 l-18.23,-16.72 c-0.67,-0.67,-2.02,-1.85,-2.02,-2.94 c0,-0.76,0.59,-1.6,1.43,-1.6 c0.76,0,1.34,0.59,1.85,1.09 c1.51,-6.13,7.73,-9.32,13.36,-9.58 c6.72,-0.34,15.88,7.31,21,12.43 l-0.84,3.19 Z M255.63,132.67 c0,1.18,-0.92,2.1,-2.1,2.18 c-3.7,0.25,-23.86,-15.88,-32.93,-30.16 c-2.86,-4.45,-6.22,-8.82,-6.22,-14.2 c0,-2.02,0.76,-10.16,3.7,-10.16 c1.6,0,2.35,1.26,3.02,2.52 c1.26,2.1,2.6,4.03,4.45,5.71 c2.6,-4.03,6.47,-10.42,12.01,-10.42 c5.63,0,15.71,9.66,19.91,13.36 l-0.84,3.44 c-10.42,-8.32,-13.69,-9.49,-15.29,-9.41 c-2.94,0.17,-3.86,1.51,-5.46,3.7 c5.63,3.36,16.97,7.64,16.97,15.46 c0,2.44,-1.51,6.05,-4.37,6.05 c-5.71,0,-23.52,-15.37,-28.06,-19.49 l0.17,2.27 c5.04,5.54,35.03,33.35,35.03,39.14 Z M233.54,91.68 c-0.92,0.84,-2.02,1.43,-3.19,1.85 c2.1,2.86,10.92,8.74,14.03,8.74 c0.42,0,1.09,-0.17,1.09,-0.67 c0,-1.76,-2.77,-3.53,-4.03,-4.45 Z M279.23,94.11 c-3.36,-2.44,-7.73,-6.89,-12.18,-6.89 c-3.86,0,-5.12,1.85,-4.45,5.29 c3.53,2.44,11.84,9.91,11.84,14.11 c0,1.85,-2.27,2.35,-3.7,2.35 c-5.04,0,-15.54,-10.0,-15.54,-20.24 c0,-4.28,2.27,-10.0,7.22,-10.0 c6.38,0,13.78,7.56,17.56,12.18 Z M275.28,110.66 c3.61,0,6.72,4.12,6.72,7.48 c0,1.51,-1.26,2.6,-2.77,2.6 c-3.28,0,-7.31,-3.02,-7.31,-6.47 c0,-2.02,1.34,-3.61,3.36,-3.61 Z M313.92,92.43 c-1.51,-1.26,-5.21,-4.2,-7.22,-4.2 c-0.84,0,-1.51,0.76,-1.51,1.51 c0,5.8,10.33,12.18,10.33,15.46 c-0.25,1.76,-0.76,3.28,-1.26,4.54 c-0.5,1.18,-1.01,1.6,-1.34,1.6 c-2.44,0,-17.89,-10.33,-24.61,-18.9 c-0.34,-0.42,-1.09,-1.18,-1.68,-1.18 c-0.5,0,-0.92,0.42,-0.92,0.92 c0,2.02,10.58,10.5,10.58,13.78 c0,0.5,0.42,1.68,-4.62,1.85 c-1.43,0,-2.18,-0.08,-3.28,-1.01 c-4.87,-4.12,-10.16,-12.6,-9.91,-18.4 c0.08,-2.86,1.01,-8.15,4.7,-8.15 c2.27,0,5.38,4.12,6.64,5.71 c3.78,4.87,8.06,9.24,12.94,12.85 l0.17,-0.17 c-2.69,-3.86,-7.22,-9.41,-7.22,-14.45 c0,-2.86,1.51,-5.54,4.7,-5.54 c6.13,0,14.78,10.33,19.24,14.28 l-0.67,3.7 Z M334.84,80.67 c-4.62,-3.36,-17.39,-13.94,-17.39,-19.99 c0,-1.09,0.76,-2.02,1.93,-2.02 c3.28,0,10.67,5.38,19.49,19.4 l17.72,13.27 l-0.42,3.53 l-12.77,-9.16 l-0.17,0.17 l6.3,11.76 c0.59,1.09,1.76,3.02,1.76,4.28 c0,1.43,-1.51,4.28,-3.19,4.28 c-1.34,0,-2.35,-1.43,-3.19,-2.35 l-8.99,-9.91 c-3.19,-3.44,-8.32,-5.46,-10.67,-5.21 c-0.76,0,-1.26,0.17,-1.34,0.84 c-0.76,6.13,5.46,8.48,10.75,11.34 l9.58,5.21 c1.09,0.76,2.77,1.93,2.77,3.44 c0,1.85,-3.28,2.18,-4.45,2.1 c-6.47,-0.59,-24.78,-9.49,-24.78,-20.5 c0,-3.7,1.6,-9.83,6.3,-9.83 c4.62,0,13.44,7.64,16.46,11.0 l0.17,-0.17 Z M334.84,80.67" fill="rgb(0,0,0)" transform="matrix(1,0,0,-1,0,200)"/>
</svg>