<?xml version="1.0" encoding="UTF-8"?>
<svg height="200" version="1.1" width="500" xmlns="http://www.w3.org/2000/svg" xmlns:xlink="http://www.w3.org/1999/xlink">
 <path d="M0,0 l500,0 l0,200 l-500,0 Z M0,0" fill="rgb(255,255,255)" transform="matrix(1,0,0,-1,0,200)"/>
 <path d="M178.68,108.73 c5.38,5.21,17.81,17.81,17.81,25.45 c0,1.6,-0.76,3.11,-2.44,3.11 c-3.53,0,-16.72,-10.25,-23.52,-18.4 c-6.64,-7.9,-11.59,-16.88,-11.59,-27.47 c0,-4.03,0.76,-12.18,6.22,-12.18 c5.54,0,11.42,5.12,15.04,8.9 c5.38,0.08,9.66,1.43,13.44,5.38 l-0.84,2.77 c-2.69,-1.93,-5.46,-3.78,-8.9,-3.11 c1.43,3.11,4.03,6.97,4.03,10.5 c0,1.6,-0.5,3.7,-2.52,3.7 c-4.96,0,-11.68,-8.23,-11.68,-13.1 c0,-1.34,0.5,-2.18,1.18,-3.28 c-1.43,-1.68,-2.94,-3.95,-5.63,-4.37 c-3.19,-0.42,-5.21,3.95,-3.7,9.24 Z M189.44,130.06 l0.17,-0.17 c-1.43,-3.02,-3.28,-7.81,-20.83,-25.28 l-0.17,0.17 c4.96,9.74,12.52,18.23,20.83,25.28 Z M222.95,95.71 c-4.45,-3.53,-11.51,-9.66,-17.47,-9.66 c-2.69,0,-5.46,1.09,-5.21,4.28 l0.17,1.85 c16.13,5.29,20.24,11.51,20.24,15.62 c0,3.36,-3.36,4.03,-6.05,4.03 c-10.92,0.08,-23.1,-11.17,-22.76,-22.18 c0.17,-5.54,3.02,-11.0,9.16,-11.0 c8.32,0,17.56,7.9,22.68,13.86 Z M200.94,96.3 c2.27,5.54,7.14,9.58,11.34,10.67 c0.59,0.17,1.01,-0.34,1.01,-0.92 c0.08,-1.43,-4.96,-7.22,-12.35,-9.74 Z M224.38,65.97 c-1.26,2.44,-2.02,4.79,-1.68,7.48 c0.34,2.77,1.68,5.8,3.86,9.49 c2.02,-0.76,3.36,-0.84,6.05,-0.67 c0.76,-6.3,-3.02,-12.85,-8.23,-16.3 Z M248.66,116.46 c1.85,2.6,4.37,8.48,4.37,11.76 c0,1.34,-0.17,3.7,-2.02,3.7 c-4.28,0,-15.12,-19.99,-17.3,-24.11 c-2.6,-4.79,-5.29,-8.74,-10.25,-11.42 c-2.44,-1.34,-4.7,-2.27,-4.7,-5.63 c0,-2.1,1.09,-3.36,2.44,-4.79 c-2.27,-4.79,-5.88,-11.42,-5.88,-16.88 c0,-2.77,1.09,-10.58,4.96,-10.0 c6.13,0.92,17.89,10.16,18.56,20.16 c0.08,1.51,0.25,3.02,-0.08,4.62 c4.12,2.02,7.48,4.96,10.84,7.98 l-0.92,3.11 l-11.34,-7.06 c-1.09,2.44,-1.93,5.21,-4.37,6.64 Z M282.0,96.13 c-2.6,-1.93,-4.96,-5.12,-8.65,-4.45 c1.6,3.28,3.28,6.22,3.28,9.91 c0,2.52,-0.5,4.28,-3.02,4.96 c0.92,0.5,1.93,1.01,1.93,2.27 c0,2.27,-2.77,3.11,-4.62,3.02 c-5.12,-0.25,-11.17,-2.52,-15.71,-6.22 c-4.7,-3.61,-7.81,-7.81,-7.64,-14.11 c0.34,-7.64,4.37,-12.01,8.74,-12.01 c5.29,0,9.41,2.69,12.94,6.3 c6.13,0,9.83,2.02,13.61,6.8 Z M266.55,102.68 c0.34,-0.17,-3.61,-5.46,-3.61,-9.83 c0,-1.43,0.42,-2.52,1.01,-3.86 c-1.93,-1.76,-3.7,-3.36,-6.47,-3.36 c-2.1,0,-3.7,0.76,-3.7,3.19 c0,2.6,1.6,5.88,3.44,7.73 c2.52,2.44,6.47,4.45,9.32,6.13 Z M296.45,100.16 l0.17,-0.17 c-3.36,-4.03,-7.73,-8.48,-7.73,-14.2 c0,-3.19,2.18,-6.47,5.71,-6.47 c4.79,0,14.45,9.32,17.64,12.94 l-0.59,3.11 c-2.77,-2.1,-8.06,-7.56,-11.68,-7.56 c-1.26,0,-2.6,1.01,-2.6,2.35 c0,3.36,4.12,7.48,6.55,9.58 c1.93,1.6,3.53,2.86,3.53,5.46 c-0.17,1.51,-0.76,2.86,-2.02,4.45 c-0.84,1.01,-5.46,0,-13.36,-1.09 c0.34,0.76,0.59,1.51,0.59,2.35 c0,0.76,-0.67,1.43,-1.51,1.43 c-2.02,0,-10.58,-6.05,-10.58,-12.1 c0,-1.76,0.5,-2.44,2.27,-2.6 c-1.6,-2.27,-3.36,-4.37,-5.54,-6.13 l0.34,-3.7 c3.61,3.61,7.14,5.8,10.08,10.42 Z M341.48,95.71 c-4.45,-3.53,-11.51,-9.66,-17.47,-9.66 c-2.69,0,-5.46,1.09,-5.21,4.28 l0.17,1.85 c16.13,5.29,20.24,11.51,20.24,15.62 c0,3.36,-3.36,4.03,-6.05,4.03 c-10.92,0.08,-23.1,-11.17,-22.76,-22.18 c0.17,-5.54,3.02,-11.0,9.16,-11.0 c8.32,0,17.56,7.9,22.68,13.86 Z M319.47,96.3 c2.27,5.54,7.14,9.58,11.34,10.67 c0.59,0.17,1.01,-0.34,1.01,-0.92 c0.08,-1.43,-4.96,-7.22,-12.35,-9.74 Z M319.47,96.3" fill="rgb(0,0,0)" transform="matrix(1,0,0,-1,0,200)"/>
</svg>