<?xml version="1.0" encoding="UTF-8"?>
<svg height="200" version="1.1" width="500" xmlns="http://www.w3.org/2000/svg" xmlns:xlink="http://www.w3.org/1999/xlink">
 <path d="M0,0 l500,0 l0,200 l-500,0 Z M0,0" fill="rgb(255,255,255)" transform="matrix(1,0,0,-1,0,200)"/>
 <path d="M184.44,108.73 c5.38,5.21,17.81,17.81,17.81,25.45 c0,1.6,-0.76,3.11,-2.44,3.11 c-3.53,0,-16.72,-10.25,-23.52,-18.4 c-6.64,-7.9,-11.59,-16.88,-11.59,-27.47 c0,-4.03,0.76,-12.18,6.22,-12.18 c5.54,0,11.42,5.12,15.04,8.9 c5.38,0.08,9.66,1.43,13.44,5.38 l-0.84,2.77 c-2.69,-1.93,-5.46,-3.78,-8.9,-3.11 c1.43,3.11,4.03,6.97,4.03,10.5 c0,1.6,-0.5,3.7,-2.52,3.7 c-4.96,0,-11.68,-8.23,-11.68,-13.1 c0,-1.34,0.5,-2.18,1.18,-3.28 c-1.43,-1.68,-2.94,-3.95,-5.63,-4.37 c-3.19,-0.42,-5.21,3.95,-3.7,9.24 Z M195.19,130.06 l0.17,-0.17 c-1.43,-3.02,-3.28,-7.81,-20.83,-25.28 l-0.17,0.17 c4.96,9.74,12.52,18.23,20.83,25.28 Z M207.45,103.86 c3.95,8.65,8.74,16.21,12.85,18.23 c-1.51,-4.79,-6.72,-12.85,-12.68,-18.4 Z M223.83,94.95 c-3.36,-3.02,-9.83,-8.4,-14.45,-8.4 c-2.27,0,-3.44,1.68,-4.2,3.61 c-0.42,2.02,-0.17,4.37,0.59,5.8 c18.23,17.64,20.41,25.03,21,33.01 c0.08,1.09,-0.25,3.11,-1.68,3.11 c-2.69,0,-10.67,-7.81,-18.06,-16.97 c-5.46,-6.72,-9.24,-16.21,-9.24,-25.03 c0,-4.96,1.34,-10.92,7.48,-10.92 c7.22,0,15.12,8.48,19.74,13.27 Z M249.45,103.27 l0.17,-0.17 c-16.63,-16.8,-19.24,-16.55,-20.92,-16.88 c-1.26,-0.25,-1.6,1.26,-1.68,1.68 c0,4.12,2.44,9.24,22.43,15.37 Z M244.92,91.93 l0.17,-0.17 c-1.09,-2.27,-3.11,-6.72,-3.11,-9.41 c0,-2.44,1.26,-4.45,4.03,-4.45 c4.12,0,15.37,8.99,18.98,13.1 l-0.67,3.11 c-3.61,-2.44,-8.4,-6.72,-11.93,-6.72 c-1.34,0,-2.6,0.59,-2.6,2.02 c0,3.95,7.31,9.83,7.31,12.52 c0,1.85,-0.84,2.77,-2.44,3.44 c0.76,0.25,2.94,1.09,2.94,2.1 c0,1.01,-1.6,4.12,-5.46,4.03 c-9.74,-0.25,-31.58,-11.0,-31.25,-21.5 c0.17,-4.37,5.04,-9.91,7.39,-9.91 c1.93,0,7.31,4.37,8.9,5.63 Z M280.7,101.08 c0.08,-1.6,0.92,-3.7,2.86,-3.7 c2.27,0,8.9,6.47,8.9,11.09 c0,2.52,-1.18,3.86,-3.78,3.86 c-4.7,0,-12.77,-4.54,-16.55,-7.39 c-5.46,-4.12,-7.98,-6.72,-7.98,-13.78 c0,-6.22,3.11,-12.26,9.58,-12.26 c7.98,0,17.39,8.32,22.51,13.78 l-1.01,3.28 c-4.87,-3.78,-12.18,-9.66,-18.56,-9.66 c-4.37,0,-6.38,2.6,-6.38,4.54 c0,2.35,1.51,3.61,3.36,4.96 Z M334.63,132.67 c0,1.18,-0.92,2.1,-2.1,2.18 c-3.7,0.25,-23.86,-15.88,-32.93,-30.16 c-2.86,-4.45,-6.22,-8.82,-6.22,-14.2 c0,-2.02,0.76,-10.16,3.7,-10.16 c1.6,0,2.35,1.26,3.02,2.52 c1.26,2.1,2.6,4.03,4.45,5.71 c2.6,-4.03,6.47,-10.42,12.01,-10.42 c5.63,0,15.71,9.66,19.91,13.36 l-0.84,3.44 c-10.42,-8.32,-13.69,-9.49,-15.29,-9.41 c-2.94,0.17,-3.86,1.51,-5.46,3.7 c5.63,3.36,16.97,7.64,16.97,15.46 c0,2.44,-1.51,6.05,-4.37,6.05 c-5.71,0,-23.52,-15.37,-28.06,-19.49 l0.17,2.27 c5.04,5.54,35.03,33.35,35.03,39.14 Z M312.54,91.68 c-0.92,0.84,-2.02,1.43,-3.19,1.85 c2.1,2.86,10.92,8.74,14.03,8.74 c0.42,0,1.09,-0.17,1.09,-0.67 c0,-1.76,-2.77,-3.53,-4.03,-4.45 Z M312.54,91.68" fill="rgb(0,0,0)" transform="matrix(1,0,0,-1,0,200)"/>
</svg>