<?xml version="1.0" encoding="UTF-8"?>
<svg height="200" version="1.1" width="500" xmlns="http://www.w3.org/2000/svg" xmlns:xlink="http://www.w3.org/1999/xlink">
 <path d="M0,0 l500,0 l0,200 l-500,0 Z M0,0" fill="rgb(255,255,255)" transform="matrix(1,0,0,-1,0,200)"/>
 <path d="M182.72,95.71 c-4.45,-3.53,-11.51,-9.66,-17.47,-9.66 c-2.69,0,-5.46,1.09,-5.21,4.28 l0.17,1.85 c16.13,5.29,20.24,11.51,20.24,15.62 c0,3.36,-3.36,4.03,-6.05,4.03 c-10.92,0.08,-23.1,-11.17,-22.76,-22.18 c0.17,-5.54,3.02,-11.0,9.16,-11.0 c8.32,0,17.56,7.9,22.68,13.86 Z M160.71,96.3 c2.27,5.54,7.14,9.58,11.34,10.67 c0.59,0.17,1.01,-0.34,1.01,-0.92 c0.08,-1.43,-4.96,-7.22,-12.35,-9.74 Z M216.57,92.43 c-1.51,-1.26,-5.21,-4.2,-7.22,-4.2 c-0.84,0,-1.51,0.76,-1.51,1.51 c0,5.8,10.33,12.18,10.33,15.46 c-0.25,1.76,-0.76,3.28,-1.26,4.54 c-0.5,1.18,-1.01,1.6,-1.34,1.6 c-2.44,0,-17.89,-10.33,-24.61,-18.9 c-0.34,-0.42,-1.09,-1.18,-1.68,-1.18 c-0.5,0,-0.92,0.42,-0.92,0.92 c0,2.02,10.58,10.5,10.58,13.78 c0,0.5,0.42,1.68,-4.62,1.85 c-1.43,0,-2.18,-0.08,-3.28,-1.01 c-4.87,-4.12,-10.16,-12.6,-9.91,-18.4 c0.08,-2.86,1.01,-8.15,4.7,-8.15 c2.27,0,5.38,4.12,6.64,5.71 c3.78,4.87,8.06,9.24,12.94,12.85 l0.17,-0.17 c-2.69,-3.86,-7.22,-9.41,-7.22,-14.45 c0,-2.86,1.51,-5.54,4.7,-5.54 c6.13,0,14.78,10.33,19.24,14.28 l-0.67,3.7 Z M251.34,95.71 c-4.45,-3.53,-11.51,-9.66,-17.47,-9.66 c-2.69,0,-5.46,1.09,-5.21,4.28 l0.17,1.85 c16.13,5.29,20.24,11.51,20.24,15.62 c0,3.36,-3.36,4.03,-6.05,4.03 c-10.92,0.08,-23.1,-11.17,-22.76,-22.18 c0.17,-5.54,3.02,-11.0,9.16,-11.0 c8.32,0,17.56,7.9,22.68,13.86 Z M229.34,96.3 c2.27,5.54,7.14,9.58,11.34,10.67 c0.59,0.17,1.01,-0.34,1.01,-0.92 c0.08,-1.43,-4.96,-7.22,-12.35,-9.74 Z M292.67,97.3 l0.17,-0.17 c-2.1,-3.44,-6.22,-9.41,-6.22,-13.61 c0,-2.44,1.76,-4.87,4.28,-4.87 c4.7,0,16.8,9.91,20.75,13.02 l-0.5,3.95 c-10.33,-7.06,-11.26,-7.06,-13.02,-7.48 c-1.01,-0.25,-2.1,1.09,-2.02,2.1 c0.08,1.93,0.59,3.28,7.14,10.5 c0.92,1.01,2.6,2.86,2.6,4.28 c0,1.18,-0.92,2.44,-1.51,3.36 c-0.25,0.34,-1.09,2.35,-1.76,2.35 c-1.01,0,-3.11,-1.68,-3.95,-2.35 l-18.65,-14.7 l-0.17,0.17 c1.85,3.28,7.81,10.08,7.81,13.78 c0,2.18,-1.18,3.86,-3.44,3.86 c-5.46,0,-20.41,-14.95,-24.53,-19.24 c-0.25,-0.25,-1.26,-1.34,-1.68,-1.34 c-0.34,0,-0.59,0.59,-0.59,0.76 c0,1.76,1.51,3.11,2.44,4.37 c1.26,1.85,3.11,3.36,4.62,5.12 c1.01,1.18,3.36,3.7,3.36,5.38 c0,1.76,-2.52,1.76,-3.78,1.93 c-5.04,0.67,-13.94,-10.58,-14.03,-18.82 c0,-3.02,1.18,-9.58,5.21,-9.58 c1.51,0,2.69,1.26,3.61,2.35 c3.95,4.87,8.65,9.91,13.02,14.53 c0.59,0.59,2.44,2.6,3.28,2.6 c0.34,0,0.59,-0.25,0.59,-0.59 c0,-0.25,-0.34,-0.92,-0.5,-1.09 c-5.46,-8.32,-7.48,-12.18,-7.39,-14.62 c0.08,-2.02,1.68,-3.53,3.7,-3.53 c2.86,0,5.88,3.44,7.81,5.29 Z M349.62,93.86 l-0.67,3.11 l-18.65,-16.55 l-0.17,0.17 l12.43,18.48 c1.18,1.76,3.44,5.21,3.44,7.39 c0,1.18,-0.84,4.45,-2.27,4.2 c-1.6,-0.25,-6.97,-6.05,-15.62,-14.03 c-3.53,-3.28,-7.56,-6.89,-12.01,-7.39 c0.08,1.76,0.59,3.44,1.6,4.87 c2.77,2.18,12.26,10.92,12.26,14.11 c0,1.18,-2.35,3.86,-3.61,3.86 c-2.35,-0.08,-16.72,-10.75,-16.38,-20.83 c0.25,-6.22,4.28,-9.74,6.64,-9.91 c1.01,-0.08,7.14,4.45,14.03,10.25 l0.17,-0.17 l-11.26,-18.98 c-0.67,-1.09,-2.27,-3.7,-2.27,-5.04 c0,-1.43,0.76,-5.54,2.52,-5.54 c1.34,0,3.7,3.28,4.54,4.2 Z M349.62,93.86" fill="rgb(0,0,0)" transform="matrix(1,0,0,-1,0,200)"/>
</svg>