<?xml version="1.0" encoding="UTF-8"?>
<svg height="200" version="1.1" width="500" xmlns="http://www.w3.org/2000/svg" xmlns:xlink="http://www.w3.org/1999/xlink">
 <path d="M0,0 l500,0 l0,200 l-500,0 Z M0,0" fill="rgb(255,255,255)" transform="matrix(1,0,0,-1,0,200)"/>
 <path d="M195.82,95.71 c-4.45,-3.53,-11.51,-9.66,-17.47,-9.66 c-2.69,0,-5.46,1.09,-5.21,4.28 l0.17,1.85 c16.13,5.29,20.24,11.51,20.24,15.62 c0,3.36,-3.36,4.03,-6.05,4.03 c-10.92,0.08,-23.1,-11.17,-22.76,-22.18 c0.17,-5.54,3.02,-11.0,9.16,-11.0 c8.32,0,17.56,7.9,22.68,13.86 Z M173.81,96.3 c2.27,5.54,7.14,9.58,11.34,10.67 c0.59,0.17,1.01,-0.34,1.01,-0.92 c0.08,-1.43,-4.96,-7.22,-12.35,-9.74 Z M229.67,92.43 c-1.51,-1.26,-5.21,-4.2,-7.22,-4.2 c-0.84,0,-1.51,0.76,-1.51,1.51 c0,5.8,10.33,12.18,10.33,15.46 c-0.25,1.76,-0.76,3.28,-1.26,4.54 c-0.5,1.18,-1.01,1.6,-1.34,1.6 c-2.44,0,-17.89,-10.33,-24.61,-18.9 c-0.34,-0.42,-1.09,-1.18,-1.68,-1.18 c-0.5,0,-0.92,0.42,-0.92,0.92 c0,2.02,10.58,10.5,10.58,13.78 c0,0.5,0.42,1.68,-4.62,1.85 c-1.43,0,-2.18,-0.08,-3.28,-1.01 c-4.87,-4.12,-10.16,-12.6,-9.91,-18.4 c0.08,-2.86,1.01,-8.15,4.7,-8.15 c2.27,0,5.38,4.12,6.64,5.71 c3.78,4.87,8.06,9.24,12.94,12.85 l0.17,-0.17 c-2.69,-3.86,-7.22,-9.41,-7.22,-14.45 c0,-2.86,1.51,-5.54,4.7,-5.54 c6.13,0,14.78,10.33,19.24,14.28 l-0.67,3.7 Z M264.78,91.26 l-0.5,3.7 l-13.69,-8.06 l-0.17,0.17 l8.74,16.88 c0.67,1.26,1.93,3.7,1.93,5.12 c0,2.18,-1.68,3.02,-3.7,3.11 c-3.02,0.08,-9.91,-2.86,-12.77,-3.86 c-3.11,-1.09,-6.38,-2.27,-7.22,-3.61 c-0.84,-1.34,-0.92,-3.36,-2.94,-8.23 c6.3,1.18,12.01,4.45,18.23,6.22 l-10.75,-20.83 c-4.62,-3.36,-13.02,-11.09,-13.02,-17.14 c0,-1.51,0.59,-3.36,2.35,-3.36 c4.96,0,12.85,15.37,15.62,19.32 Z M258.48,114.52 c3.61,0,6.72,4.12,6.72,7.48 c0,1.51,-1.26,2.6,-2.77,2.6 c-3.28,0,-7.31,-3.02,-7.31,-6.47 c0,-2.02,1.34,-3.61,3.36,-3.61 Z M297.63,96.13 c-2.6,-1.93,-4.96,-5.12,-8.65,-4.45 c1.6,3.28,3.28,6.22,3.28,9.91 c0,2.52,-0.5,4.28,-3.02,4.96 c0.92,0.5,1.93,1.01,1.93,2.27 c0,2.27,-2.77,3.11,-4.62,3.02 c-5.12,-0.25,-11.17,-2.52,-15.71,-6.22 c-4.7,-3.61,-7.81,-7.81,-7.64,-14.11 c0.34,-7.64,4.37,-12.01,8.74,-12.01 c5.29,0,9.41,2.69,12.94,6.3 c6.13,0,9.83,2.02,13.61,6.8 Z M282.17,102.68 c0.34,-0.17,-3.61,-5.46,-3.61,-9.83 c0,-1.43,0.42,-2.52,1.01,-3.86 c-1.93,-1.76,-3.7,-3.36,-6.47,-3.36 c-2.1,0,-3.7,0.76,-3.7,3.19 c0,2.6,1.6,5.88,3.44,7.73 c2.52,2.44,6.47,4.45,9.32,6.13 Z M336.52,93.86 l-0.67,3.11 l-18.65,-16.55 l-0.17,0.17 l12.43,18.48 c1.18,1.76,3.44,5.21,3.44,7.39 c0,1.18,-0.84,4.45,-2.27,4.2 c-1.6,-0.25,-6.97,-6.05,-15.62,-14.03 c-3.53,-3.28,-7.56,-6.89,-12.01,-7.39 c0.08,1.76,0.59,3.44,1.6,4.87 c2.77,2.18,12.26,10.92,12.26,14.11 c0,1.18,-2.35,3.86,-3.61,3.86 c-2.35,-0.08,-16.72,-10.75,-16.38,-20.83 c0.25,-6.22,4.28,-9.74,6.64,-9.91 c1.01,-0.08,7.14,4.45,14.03,10.25 l0.17,-0.17 l-11.26,-18.98 c-0.67,-1.09,-2.27,-3.7,-2.27,-5.04 c0,-1.43,0.76,-5.54,2.52,-5.54 c1.34,0,3.7,3.28,4.54,4.2 Z M336.52,93.86" fill="rgb(0,0,0)" transform="matrix(1,0,0,-1,0,200)"/>
</svg>