<?xml version="1.0" encoding="UTF-8"?>
<svg height="200" version="1.1" width="500" xmlns="http://www.w3.org/2000/svg" xmlns:xlink="http://www.w3.org/1999/xlink">
 <path d="M0,0 l500,0 l0,200 l-500,0 Z M0,0" fill="rgb(255,255,255)" transform="matrix(1,0,0,-1,0,200)"/>
 <path d="M183.72,65.97 c-1.26,2.44,-2.02,4.79,-1.68,7.48 c0.34,2.77,1.68,5.8,3.86,9.49 c2.02,-0.76,3.36,-0.84,6.05,-0.67 c0.76,-6.3,-3.02,-12.85,-8.23,-16.3 Z M207.08,94.36 l-10.42,-6.47 c-1.09,2.44,-1.93,5.21,-4.37,6.64 l15.71,21.92 c1.85,2.6,4.37,8.48,4.37,11.76 c0,1.34,-0.17,3.7,-2.02,3.7 c-4.28,0,-15.12,-19.99,-17.3,-24.11 c-2.6,-4.79,-5.29,-8.74,-10.25,-11.42 c-2.44,-1.34,-4.7,-2.27,-4.7,-5.63 c0,-2.1,1.09,-3.36,2.44,-4.79 c-2.27,-4.79,-5.88,-11.42,-5.88,-16.88 c0,-2.77,1.09,-10.58,4.96,-10.0 c6.13,0.92,17.89,10.16,18.56,20.16 c0.08,1.51,0.25,3.02,-0.08,4.62 c3.02,1.43,5.54,3.44,7.81,5.54 l0.17,-0.17 c-0.08,-0.08,-0.08,-0.25,-0.08,-0.5 c0,-4.28,2.27,-10.0,7.22,-10.0 c6.38,0,13.78,7.56,17.56,12.18 l-0.76,3.19 c-3.36,-2.44,-7.73,-6.89,-12.18,-6.89 c-3.86,0,-5.12,1.85,-4.45,5.29 c3.53,2.44,11.84,9.91,11.84,14.11 c0,1.85,-2.27,2.35,-3.7,2.35 c-4.12,0,-11.84,-6.55,-14.45,-14.62 Z M226.06,110.66 c3.61,0,6.72,4.12,6.72,7.48 c0,1.51,-1.26,2.6,-2.77,2.6 c-3.28,0,-7.31,-3.02,-7.31,-6.47 c0,-2.02,1.34,-3.61,3.36,-3.61 Z M232.28,65.97 c-1.26,2.44,-2.02,4.79,-1.68,7.48 c0.34,2.77,1.68,5.8,3.86,9.49 c2.02,-0.76,3.36,-0.84,6.05,-0.67 c0.76,-6.3,-3.02,-12.85,-8.23,-16.3 Z M256.55,116.46 c1.85,2.6,4.37,8.48,4.37,11.76 c0,1.34,-0.17,3.7,-2.02,3.7 c-4.28,0,-15.12,-19.99,-17.3,-24.11 c-2.6,-4.79,-5.29,-8.74,-10.25,-11.42 c-2.44,-1.34,-4.7,-2.27,-4.7,-5.63 c0,-2.1,1.09,-3.36,2.44,-4.79 c-2.27,-4.79,-5.88,-11.42,-5.88,-16.88 c0,-2.77,1.09,-10.58,4.96,-10.0 c6.13,0.92,17.89,10.16,18.56,20.16 c0.08,1.51,0.25,3.02,-0.08,4.62 c4.12,2.02,7.48,4.96,10.84,7.98 l-0.92,3.11 l-11.34,-7.06 c-1.09,2.44,-1.93,5.21,-4.37,6.64 Z M280.41,115.45 c0.84,1.18,3.28,3.95,3.28,5.46 c0,1.34,-1.6,1.6,-2.69,1.6 c-4.87,0,-6.72,-3.95,-9.24,-7.39 c-8.99,-0.34,-9.66,-1.68,-14.2,-9.07 l-0.92,-1.51 c4.45,0.67,2.86,0.34,7.98,0.34 c-3.11,-5.29,-7.73,-9.58,-12.77,-13.44 l0.92,-3.19 l4.28,3.44 l0.17,-0.17 c-1.09,-2.44,-2.18,-5.63,-2.18,-8.4 c0,-3.36,2.02,-5.63,5.29,-5.63 c7.14,0,16.21,8.99,21.17,13.52 l-0.42,3.7 c-8.74,-6.22,-11.76,-8.74,-14.45,-8.74 c-1.93,0,-2.52,1.09,-2.52,2.94 c0,5.04,4.79,11.93,7.64,15.62 c9.24,-0.59,9.91,2.52,13.86,10.5 Z M320.06,93.86 l-0.67,3.11 l-18.65,-16.55 l-0.17,0.17 l12.43,18.48 c1.18,1.76,3.44,5.21,3.44,7.39 c0,1.18,-0.84,4.45,-2.27,4.2 c-1.6,-0.25,-6.97,-6.05,-15.62,-14.03 c-3.53,-3.28,-7.56,-6.89,-12.01,-7.39 c0.08,1.76,0.59,3.44,1.6,4.87 c2.77,2.18,12.26,10.92,12.26,14.11 c0,1.18,-2.35,3.86,-3.61,3.86 c-2.35,-0.08,-16.72,-10.75,-16.38,-20.83 c0.25,-6.22,4.28,-9.74,6.64,-9.91 c1.01,-0.08,7.14,4.45,14.03,10.25 l0.17,-0.17 l-11.26,-18.98 c-0.67,-1.09,-2.27,-3.7,-2.27,-5.04 c0,-1.43,0.76,-5.54,2.52,-5.54 c1.34,0,3.7,3.28,4.54,4.2 Z M320.06,93.86" fill="rgb(0,0,0)" transform="matrix(1,0,0,-1,0,200)"/>
</svg>