<?xml version="1.0" encoding="UTF-8"?>
<svg height="200" version="1.1" width="500" xmlns="http://www.w3.org/2000/svg" xmlns:xlink="http://www.w3.org/1999/xlink">
 <path d="M0,0 l500,0 l0,200 l-500,0 Z M0,0" fill="rgb(255,255,255)" transform="matrix(1,0,0,-1,0,200)"/>
 <path d="M165.24,65.97 c-1.26,2.44,-2.02,4.79,-1.68,7.48 c0.34,2.77,1.68,5.8,3.86,9.49 c2.02,-0.76,3.36,-0.84,6.05,-0.67 c0.76,-6.3,-3.02,-12.85,-8.23,-16.3 Z M189.52,116.46 c1.85,2.6,4.37,8.48,4.37,11.76 c0,1.34,-0.17,3.7,-2.02,3.7 c-4.28,0,-15.12,-19.99,-17.3,-24.11 c-2.6,-4.79,-5.29,-8.74,-10.25,-11.42 c-2.44,-1.34,-4.7,-2.27,-4.7,-5.63 c0,-2.1,1.09,-3.36,2.44,-4.79 c-2.27,-4.79,-5.88,-11.42,-5.88,-16.88 c0,-2.77,1.09,-10.58,4.96,-10.0 c6.13,0.92,17.89,10.16,18.56,20.16 c0.08,1.51,0.25,3.02,-0.08,4.62 c4.12,2.02,7.48,4.96,10.84,7.98 l-0.92,3.11 l-11.34,-7.06 c-1.09,2.44,-1.93,5.21,-4.37,6.64 Z M222.87,96.13 c-2.6,-1.93,-4.96,-5.12,-8.65,-4.45 c1.6,3.28,3.28,6.22,3.28,9.91 c0,2.52,-0.5,4.28,-3.02,4.96 c0.92,0.5,1.93,1.01,1.93,2.27 c0,2.27,-2.77,3.11,-4.62,3.02 c-5.12,-0.25,-11.17,-2.52,-15.71,-6.22 c-4.7,-3.61,-7.81,-7.81,-7.64,-14.11 c0.34,-7.64,4.37,-12.01,8.74,-12.01 c5.29,0,9.41,2.69,12.94,6.3 c6.13,0,9.83,2.02,13.61,6.8 Z M207.41,102.68 c0.34,-0.17,-3.61,-5.46,-3.61,-9.83 c0,-1.43,0.42,-2.52,1.01,-3.86 c-1.93,-1.76,-3.7,-3.36,-6.47,-3.36 c-2.1,0,-3.7,0.76,-3.7,3.19 c0,2.6,1.6,5.88,3.44,7.73 c2.52,2.44,6.47,4.45,9.32,6.13 Z M237.32,100.16 l0.17,-0.17 c-3.36,-4.03,-7.73,-8.48,-7.73,-14.2 c0,-3.19,2.18,-6.47,5.71,-6.47 c4.79,0,14.45,9.32,17.64,12.94 l-0.59,3.11 c-2.77,-2.1,-8.06,-7.56,-11.68,-7.56 c-1.26,0,-2.6,1.01,-2.6,2.35 c0,3.36,4.12,7.48,6.55,9.58 c1.93,1.6,3.53,2.86,3.53,5.46 c-0.17,1.51,-0.76,2.86,-2.02,4.45 c-0.84,1.01,-5.46,0,-13.36,-1.09 c0.34,0.76,0.59,1.51,0.59,2.35 c0,0.76,-0.67,1.43,-1.51,1.43 c-2.02,0,-10.58,-6.05,-10.58,-12.1 c0,-1.76,0.5,-2.44,2.27,-2.6 c-1.6,-2.27,-3.36,-4.37,-5.54,-6.13 l0.34,-3.7 c3.61,3.61,7.14,5.8,10.08,10.42 Z M282.34,95.71 c-4.45,-3.53,-11.51,-9.66,-17.47,-9.66 c-2.69,0,-5.46,1.09,-5.21,4.28 l0.17,1.85 c16.13,5.29,20.24,11.51,20.24,15.62 c0,3.36,-3.36,4.03,-6.05,4.03 c-10.92,0.08,-23.1,-11.17,-22.76,-22.18 c0.17,-5.54,3.02,-11.0,9.16,-11.0 c8.32,0,17.56,7.9,22.68,13.86 Z M260.33,96.3 c2.27,5.54,7.14,9.58,11.34,10.67 c0.59,0.17,1.01,-0.34,1.01,-0.92 c0.08,-1.43,-4.96,-7.22,-12.35,-9.74 Z M294.69,104.02 c0.5,-2.86,0.84,-5.12,1.09,-6.89 c-0.25,-4.87,-1.6,-6.3,-6.64,-9.41 c-1.6,2.18,-3.44,4.79,-6.55,4.96 Z M306.11,90.58 c-4.12,-3.11,-7.39,-5.63,-12.77,-4.7 c5.38,3.28,10.92,8.4,10.92,15.29 c0,3.7,-1.26,6.55,-1.6,9.74 c-0.25,2.35,-0.76,3.11,-3.28,3.11 c-3.02,0,-4.62,-2.69,-4.79,-5.46 l-18.23,-16.72 c-0.67,-0.67,-2.02,-1.85,-2.02,-2.94 c0,-0.76,0.59,-1.6,1.43,-1.6 c0.76,0,1.34,0.59,1.85,1.09 c1.51,-6.13,7.73,-9.32,13.36,-9.58 c6.72,-0.34,15.88,7.31,21,12.43 l-0.84,3.19 Z M336.02,115.45 c0.84,1.18,3.28,3.95,3.28,5.46 c0,1.34,-1.6,1.6,-2.69,1.6 c-4.87,0,-6.72,-3.95,-9.24,-7.39 c-8.99,-0.34,-9.66,-1.68,-14.2,-9.07 l-0.92,-1.51 c4.45,0.67,2.86,0.34,7.98,0.34 c-3.11,-5.29,-7.73,-9.58,-12.77,-13.44 l0.92,-3.19 l4.28,3.44 l0.17,-0.17 c-1.09,-2.44,-2.18,-5.63,-2.18,-8.4 c0,-3.36,2.02,-5.63,5.29,-5.63 c7.14,0,16.21,8.99,21.17,13.52 l-0.42,3.7 c-8.74,-6.22,-11.76,-8.74,-14.45,-8.74 c-1.93,0,-2.52,1.09,-2.52,2.94 c0,5.04,4.79,11.93,7.64,15.62 c9.24,-0.59,9.91,2.52,13.86,10.5 Z M336.02,115.45" fill="rgb(0,0,0)" transform="matrix(1,0,0,-1,0,200)"/>
</svg>