<?xml version="1.0" encoding="UTF-8"?>
<svg height="200" version="1.1" width="500" xmlns="http://www.w3.org/2000/svg" xmlns:xlink="http://www.w3.org/1999/xlink">
 <path d="M0,0 l500,0 l0,200 l-500,0 Z M0,0" fill="rgb(255,255,255)" transform="matrix(1,0,0,-1,0,200)"/>
 <path d="M110.56,93.86 c5.38,5.29,32.09,33.01,32.09,38.72 c0,1.68,-2.27,2.27,-3.61,2.27 c-2.86,0,-19.57,-14.7,-29.48,-31.08 c-2.94,-4.79,-5.12,-8.82,-5.12,-14.62 c0,-1.93,0.42,-8.48,3.36,-8.48 c2.69,0,6.89,8.9,21.25,18.73 l0.17,-0.17 c-3.02,-3.95,-8.82,-10.33,-8.82,-15.62 c0,-2.27,1.34,-4.45,3.86,-4.45 c4.62,0,14.78,8.23,18.65,11.17 l-0.42,3.44 c-2.44,-1.6,-8.57,-6.13,-11.34,-6.13 c-1.01,0,-1.85,0.67,-1.85,1.76 c0,0.84,-0.25,1.09,4.96,7.39 c1.01,1.18,4.37,4.87,4.37,6.47 c0,1.93,-2.02,4.03,-4.03,4.03 c-4.62,0,-19.91,-13.44,-24.02,-16.72 Z M157.94,94.87 c-3.95,-3.53,-8.57,-5.96,-10.08,-5.96 c-0.59,0,-0.67,0.84,-0.67,1.26 c0,3.53,2.02,5.38,4.62,7.22 c3.28,2.35,3.78,3.11,6.38,6.05 c0.92,0.76,3.19,3.11,3.36,4.45 c0.34,2.52,-3.95,1.76,-5.12,1.76 c-1.43,0,-2.52,-0.17,-3.7,-0.92 c-5.38,-3.53,-11.68,-11.93,-11.68,-20.08 c0,-3.61,2.27,-8.32,6.38,-8.32 c4.62,0,10.25,7.56,13.52,10.42 l0.17,-0.17 c-0.84,-2.18,-1.76,-4.54,-1.76,-7.06 c0,-2.94,1.85,-5.54,4.96,-5.54 c6.22,0,15.12,9.66,19.4,13.78 l-0.5,3.61 c-2.52,-2.02,-9.74,-7.9,-12.94,-7.9 c-1.34,0,-2.1,0.5,-2.1,1.85 c0,3.78,5.96,10.42,8.65,12.85 c1.34,1.18,3.61,3.11,3.44,5.12 c-0.34,4.37,-1.26,4.62,-1.93,4.62 c-2.1,0,-10.33,-7.98,-12.1,-9.58 Z M216.82,92.43 c-1.51,-1.26,-5.21,-4.2,-7.22,-4.2 c-0.84,0,-1.51,0.76,-1.51,1.51 c0,5.8,10.33,12.18,10.33,15.46 c-0.25,1.76,-0.76,3.28,-1.26,4.54 c-0.5,1.18,-1.01,1.6,-1.34,1.6 c-2.44,0,-17.89,-10.33,-24.61,-18.9 c-0.34,-0.42,-1.09,-1.18,-1.68,-1.18 c-0.5,0,-0.92,0.42,-0.92,0.92 c0,2.02,10.58,10.5,10.58,13.78 c0,0.5,0.42,1.68,-4.62,1.85 c-1.43,0,-2.18,-0.08,-3.28,-1.01 c-4.87,-4.12,-10.16,-12.6,-9.91,-18.4 c0.08,-2.86,1.01,-8.15,4.7,-8.15 c2.27,0,5.38,4.12,6.64,5.71 c3.78,4.87,8.06,9.24,12.94,12.85 l0.17,-0.17 c-2.69,-3.86,-7.22,-9.41,-7.22,-14.45 c0,-2.86,1.51,-5.54,4.7,-5.54 c6.13,0,14.78,10.33,19.24,14.28 l-0.67,3.7 Z M263.36,119.23 c1.34,2.1,3.61,5.54,3.61,8.06 c0,1.51,-1.01,3.19,-2.69,3.19 c-6.13,0,-13.52,-17.39,-16.3,-22.18 c-1.09,1.26,-1.76,2.44,-3.53,2.35 c-7.14,-0.42,-23.86,-8.82,-23.86,-18.73 c0,-2.94,2.35,-11.0,6.13,-11.0 c3.78,0,11.59,8.15,14.53,10.67 c-0.34,-2.1,-0.67,-4.28,-0.67,-6.38 c0,-2.69,1.26,-6.05,4.45,-6.05 c6.13,0,14.78,8.82,18.73,13.19 l-0.59,2.77 c-2.69,-1.76,-10.42,-8.57,-13.27,-8.57 c-1.85,0,-1.93,2.86,-1.93,4.2 c0,5.38,4.03,10.84,6.8,15.2 Z M245.13,103.35 c-1.34,-4.96,-14.87,-15.04,-15.88,-14.78 c-0.92,0.17,-1.34,0.84,-1.26,1.6 c0.5,5.54,2.35,8.4,17.14,13.19 Z M277.89,100.16 l0.17,-0.17 c-3.36,-4.03,-7.73,-8.48,-7.73,-14.2 c0,-3.19,2.18,-6.47,5.71,-6.47 c4.79,0,14.45,9.32,17.64,12.94 l-0.59,3.11 c-2.77,-2.1,-8.06,-7.56,-11.68,-7.56 c-1.26,0,-2.6,1.01,-2.6,2.35 c0,3.36,4.12,7.48,6.55,9.58 c1.93,1.6,3.53,2.86,3.53,5.46 c-0.17,1.51,-0.76,2.86,-2.02,4.45 c-0.84,1.01,-5.46,0,-13.36,-1.09 c0.34,0.76,0.59,1.51,0.59,2.35 c0,0.76,-0.67,1.43,-1.51,1.43 c-2.02,0,-10.58,-6.05,-10.58,-12.1 c0,-1.76,0.5,-2.44,2.27,-2.6 c-1.6,-2.27,-3.36,-4.37,-5.54,-6.13 l0.34,-3.7 c3.61,3.61,7.14,5.8,10.08,10.42 Z M322.91,95.71 c-4.45,-3.53,-11.51,-9.66,-17.47,-9.66 c-2.69,0,-5.46,1.09,-5.21,4.28 l0.17,1.85 c16.13,5.29,20.24,11.51,20.24,15.62 c0,3.36,-3.36,4.03,-6.05,4.03 c-10.92,0.08,-23.1,-11.17,-22.76,-22.18 c0.17,-5.54,3.02,-11.0,9.16,-11.0 c8.32,0,17.56,7.9,22.68,13.86 Z M300.9,96.3 c2.27,5.54,7.14,9.58,11.34,10.67 c0.59,0.17,1.01,-0.34,1.01,-0.92 c0.08,-1.43,-4.96,-7.22,-12.35,-9.74 Z M364.66,119.23 c1.34,2.1,3.61,5.54,3.61,8.06 c0,1.51,-1.01,3.19,-2.69,3.19 c-6.13,0,-13.52,-17.39,-16.3,-22.18 c-1.09,1.26,-1.76,2.44,-3.53,2.35 c-7.14,-0.42,-23.86,-8.82,-23.86,-18.73 c0,-2.94,2.35,-11.0,6.13,-11.0 c3.78,0,11.59,8.15,14.53,10.67 c-0.34,-2.1,-0.67,-4.28,-0.67,-6.38 c0,-2.69,1.26,-6.05,4.45,-6.05 c6.13,0,14.78,8.82,18.73,13.19 l-0.59,2.77 c-2.69,-1.76,-10.42,-8.57,-13.27,-8.57 c-1.85,0,-1.93,2.86,-1.93,4.2 c0,5.38,4.03,10.84,6.8,15.2 Z M346.43,103.35 c-1.34,-4.96,-14.87,-15.04,-15.88,-14.78 c-0.92,0.17,-1.34,0.84,-1.26,1.6 c0.5,5.54,2.35,8.4,17.14,13.19 Z M377.34,104.02 c0.5,-2.86,0.84,-5.12,1.09,-6.89 c-0.25,-4.87,-1.6,-6.3,-6.64,-9.41 c-1.6,2.18,-3.44,4.79,-6.55,4.96 Z M388.77,90.58 c-4.12,-3.11,-7.39,-5.63,-12.77,-4.7 c5.38,3.28,10.92,8.4,10.92,15.29 c0,3.7,-1.26,6.55,-1.6,9.74 c-0.25,2.35,-0.76,3.11,-3.28,3.11 c-3.02,0,-4.62,-2.69,-4.79,-5.46 l-18.23,-16.72 c-0.67,-0.67,-2.02,-1.85,-2.02,-2.94 c0,-0.76,0.59,-1.6,1.43,-1.6 c0.76,0,1.34,0.59,1.85,1.09 c1.51,-6.13,7.73,-9.32,13.36,-9.58 c6.72,-0.34,15.88,7.31,21,12.43 l-0.84,3.19 Z M388.77,90.58" fill="rgb(0,0,0)" transform="matrix(1,0,0,-1,0,200)"/>
</svg>