<?xml version="1.0" encoding="UTF-8"?>
<svg height="200" version="1.1" width="500" xmlns="http://www.w3.org/2000/svg" xmlns:xlink="http://www.w3.org/1999/xlink">
 <path d="M0,0 l500,0 l0,200 l-500,0 Z M0,0" fill="rgb(255,255,255)" transform="matrix(1,0,0,-1,0,200)"/>
 <path d="M171.67,88.65 c-2.27,0.76,-4.62,1.01,-7.06,0.84 c2.27,3.02,4.62,5.88,7.73,8.15 c1.09,0.76,5.12,3.36,6.47,3.36 c0.67,0,0.92,-0.59,0.92,-1.18 c0,-1.51,-1.18,-2.94,-2.1,-4.12 Z M158.9,81.43 c1.09,-0.25,2.18,-0.5,3.36,-0.5 c1.34,0,2.6,0.25,3.86,0.5 c2.02,-1.01,3.7,-1.68,5.96,-1.68 c9.07,0,16.63,6.05,22.85,12.1 l-0.59,3.86 c-8.99,-7.73,-10.67,-9.07,-17.89,-8.57 c9.41,8.32,13.61,14.11,13.61,18.73 c0,2.18,-1.26,3.95,-3.53,3.95 c-4.54,0,-13.02,-5.54,-16.63,-8.15 l-0.17,0.17 c1.68,3.78,4.28,6.89,7.14,9.91 c1.34,1.43,5.71,5.46,5.71,7.31 c0,1.6,-2.69,2.02,-3.86,2.02 c-3.19,0,-4.7,-2.44,-6.72,-4.62 l-22.26,-23.94 l0.34,-3.95 l13.27,12.68 l0.17,-0.17 c-5.46,-9.24,-9.66,-16.13,-13.52,-21.59 c-3.44,-4.87,-5.29,-9.07,-5.21,-13.27 c0,-1.51,0.5,-3.78,2.44,-3.78 c1.6,0,3.11,2.27,3.78,3.53 Z M209.81,94.87 c-3.95,-3.53,-8.57,-5.96,-10.08,-5.96 c-0.59,0,-0.67,0.84,-0.67,1.26 c0,3.53,2.02,5.38,4.62,7.22 c3.28,2.35,3.78,3.11,6.38,6.05 c0.92,0.76,3.19,3.11,3.36,4.45 c0.34,2.52,-3.95,1.76,-5.12,1.76 c-1.43,0,-2.52,-0.17,-3.7,-0.92 c-5.38,-3.53,-11.68,-11.93,-11.68,-20.08 c0,-3.61,2.27,-8.32,6.38,-8.32 c4.62,0,10.25,7.56,13.52,10.42 l0.17,-0.17 c-0.84,-2.18,-1.76,-4.54,-1.76,-7.06 c0,-2.94,1.85,-5.54,4.96,-5.54 c6.22,0,15.12,9.66,19.4,13.78 l-0.5,3.61 c-2.52,-2.02,-9.74,-7.9,-12.94,-7.9 c-1.34,0,-2.1,0.5,-2.1,1.85 c0,3.78,5.96,10.42,8.65,12.85 c1.34,1.18,3.61,3.11,3.44,5.12 c-0.34,4.37,-1.26,4.62,-1.93,4.62 c-2.1,0,-10.33,-7.98,-12.1,-9.58 Z M254.16,108.73 c5.38,5.21,17.81,17.81,17.81,25.45 c0,1.6,-0.76,3.11,-2.44,3.11 c-3.53,0,-16.72,-10.25,-23.52,-18.4 c-6.64,-7.9,-11.59,-16.88,-11.59,-27.47 c0,-4.03,0.76,-12.18,6.22,-12.18 c5.54,0,11.42,5.12,15.04,8.9 c5.38,0.08,9.66,1.43,13.44,5.38 l-0.84,2.77 c-2.69,-1.93,-5.46,-3.78,-8.9,-3.11 c1.43,3.11,4.03,6.97,4.03,10.5 c0,1.6,-0.5,3.7,-2.52,3.7 c-4.96,0,-11.68,-8.23,-11.68,-13.1 c0,-1.34,0.5,-2.18,1.18,-3.28 c-1.43,-1.68,-2.94,-3.95,-5.63,-4.37 c-3.19,-0.42,-5.21,3.95,-3.7,9.24 Z M264.91,130.06 l0.17,-0.17 c-1.43,-3.02,-3.28,-7.81,-20.83,-25.28 l-0.17,0.17 c4.96,9.74,12.52,18.23,20.83,25.28 Z M277.17,103.86 c3.95,8.65,8.74,16.21,12.85,18.23 c-1.51,-4.79,-6.72,-12.85,-12.68,-18.4 Z M293.55,94.95 c-3.36,-3.02,-9.83,-8.4,-14.45,-8.4 c-2.27,0,-3.44,1.68,-4.2,3.61 c-0.42,2.02,-0.17,4.37,0.59,5.8 c18.23,17.64,20.41,25.03,21,33.01 c0.08,1.09,-0.25,3.11,-1.68,3.11 c-2.69,0,-10.67,-7.81,-18.06,-16.97 c-5.46,-6.72,-9.24,-16.21,-9.24,-25.03 c0,-4.96,1.34,-10.92,7.48,-10.92 c7.22,0,15.12,8.48,19.74,13.27 Z M316.15,94.11 c-3.36,-2.44,-7.73,-6.89,-12.18,-6.89 c-3.86,0,-5.12,1.85,-4.45,5.29 c3.53,2.44,11.84,9.91,11.84,14.11 c0,1.85,-2.27,2.35,-3.7,2.35 c-5.04,0,-15.54,-10.0,-15.54,-20.24 c0,-4.28,2.27,-10.0,7.22,-10.0 c6.38,0,13.78,7.56,17.56,12.18 Z M312.2,110.66 c3.61,0,6.72,4.12,6.72,7.48 c0,1.51,-1.26,2.6,-2.77,2.6 c-3.28,0,-7.31,-3.02,-7.31,-6.47 c0,-2.02,1.34,-3.61,3.36,-3.61 Z M332.87,101.08 c0.08,-1.6,0.92,-3.7,2.86,-3.7 c2.27,0,8.9,6.47,8.9,11.09 c0,2.52,-1.18,3.86,-3.78,3.86 c-4.7,0,-12.77,-4.54,-16.55,-7.39 c-5.46,-4.12,-7.98,-6.72,-7.98,-13.78 c0,-6.22,3.11,-12.26,9.58,-12.26 c7.98,0,17.39,8.32,22.51,13.78 l-1.01,3.28 c-4.87,-3.78,-12.18,-9.66,-18.56,-9.66 c-4.37,0,-6.38,2.6,-6.38,4.54 c0,2.35,1.51,3.61,3.36,4.96 Z M332.87,101.08" fill="rgb(0,0,0)" transform="matrix(1,0,0,-1,0,200)"/>
</svg>