<?xml version="1.0" encoding="UTF-8"?>
<svg height="200" version="1.1" width="500" xmlns="http://www.w3.org/2000/svg" xmlns:xlink="http://www.w3.org/1999/xlink">
 <path d="M0,0 l500,0 l0,200 l-500,0 Z M0,0" fill="rgb(255,255,255)" transform="matrix(1,0,0,-1,0,200)"/>
 <path d="M175.49,104.02 c0.5,-2.86,0.84,-5.12,1.09,-6.89 c-0.25,-4.87,-1.6,-6.3,-6.64,-9.41 c-1.6,2.18,-3.44,4.79,-6.55,4.96 Z M186.92,90.58 c-4.12,-3.11,-7.39,-5.63,-12.77,-4.7 c5.38,3.28,10.92,8.4,10.92,15.29 c0,3.7,-1.26,6.55,-1.6,9.74 c-0.25,2.35,-0.76,3.11,-3.28,3.11 c-3.02,0,-4.62,-2.69,-4.79,-5.46 l-18.23,-16.72 c-0.67,-0.67,-2.02,-1.85,-2.02,-2.94 c0,-0.76,0.59,-1.6,1.43,-1.6 c0.76,0,1.34,0.59,1.85,1.09 c1.51,-6.13,7.73,-9.32,13.36,-9.58 c6.72,-0.34,15.88,7.31,21,12.43 l-0.84,3.19 Z M198.17,93.86 c5.38,5.29,32.09,33.01,32.09,38.72 c0,1.68,-2.27,2.27,-3.61,2.27 c-2.86,0,-19.57,-14.7,-29.48,-31.08 c-2.94,-4.79,-5.12,-8.82,-5.12,-14.62 c0,-1.93,0.42,-8.48,3.36,-8.48 c2.69,0,6.89,8.9,21.25,18.73 l0.17,-0.17 c-3.02,-3.95,-8.82,-10.33,-8.82,-15.62 c0,-2.27,1.34,-4.45,3.86,-4.45 c4.62,0,14.78,8.23,18.65,11.17 l-0.42,3.44 c-2.44,-1.6,-8.57,-6.13,-11.34,-6.13 c-1.01,0,-1.85,0.67,-1.85,1.76 c0,0.84,-0.25,1.09,4.96,7.39 c1.01,1.18,4.37,4.87,4.37,6.47 c0,1.93,-2.02,4.03,-4.03,4.03 c-4.62,0,-19.91,-13.44,-24.02,-16.72 Z M263.44,96.13 c-2.6,-1.93,-4.96,-5.12,-8.65,-4.45 c1.6,3.28,3.28,6.22,3.28,9.91 c0,2.52,-0.5,4.28,-3.02,4.96 c0.92,0.5,1.93,1.01,1.93,2.27 c0,2.27,-2.77,3.11,-4.62,3.02 c-5.12,-0.25,-11.17,-2.52,-15.71,-6.22 c-4.7,-3.61,-7.81,-7.81,-7.64,-14.11 c0.34,-7.64,4.37,-12.01,8.74,-12.01 c5.29,0,9.41,2.69,12.94,6.3 c6.13,0,9.83,2.02,13.61,6.8 Z M247.98,102.68 c0.34,-0.17,-3.61,-5.46,-3.61,-9.83 c0,-1.43,0.42,-2.52,1.01,-3.86 c-1.93,-1.76,-3.7,-3.36,-6.47,-3.36 c-2.1,0,-3.7,0.76,-3.7,3.19 c0,2.6,1.6,5.88,3.44,7.73 c2.52,2.44,6.47,4.45,9.32,6.13 Z M296.7,96.13 c-2.6,-1.93,-4.96,-5.12,-8.65,-4.45 c1.6,3.28,3.28,6.22,3.28,9.91 c0,2.52,-0.5,4.28,-3.02,4.96 c0.92,0.5,1.93,1.01,1.93,2.27 c0,2.27,-2.77,3.11,-4.62,3.02 c-5.12,-0.25,-11.17,-2.52,-15.71,-6.22 c-4.7,-3.61,-7.81,-7.81,-7.64,-14.11 c0.34,-7.64,4.37,-12.01,8.74,-12.01 c5.29,0,9.41,2.69,12.94,6.3 c6.13,0,9.83,2.02,13.61,6.8 Z M281.25,102.68 c0.34,-0.17,-3.61,-5.46,-3.61,-9.83 c0,-1.43,0.42,-2.52,1.01,-3.86 c-1.93,-1.76,-3.7,-3.36,-6.47,-3.36 c-2.1,0,-3.7,0.76,-3.7,3.19 c0,2.6,1.6,5.88,3.44,7.73 c2.52,2.44,6.47,4.45,9.32,6.13 Z M336.6,132.67 c0,1.18,-0.92,2.1,-2.1,2.18 c-3.7,0.25,-23.86,-15.88,-32.93,-30.16 c-2.86,-4.45,-6.22,-8.82,-6.22,-14.2 c0,-2.02,0.76,-10.16,3.7,-10.16 c1.6,0,2.35,1.26,3.02,2.52 c1.26,2.1,2.6,4.03,4.45,5.71 c2.6,-4.03,6.47,-10.42,12.01,-10.42 c5.63,0,15.71,9.66,19.91,13.36 l-0.84,3.44 c-10.42,-8.32,-13.69,-9.49,-15.29,-9.41 c-2.94,0.17,-3.86,1.51,-5.46,3.7 c5.63,3.36,16.97,7.64,16.97,15.46 c0,2.44,-1.51,6.05,-4.37,6.05 c-5.71,0,-23.52,-15.37,-28.06,-19.49 l0.17,2.27 c5.04,5.54,35.03,33.35,35.03,39.14 Z M314.51,91.68 c-0.92,0.84,-2.02,1.43,-3.19,1.85 c2.1,2.86,10.92,8.74,14.03,8.74 c0.42,0,1.09,-0.17,1.09,-0.67 c0,-1.76,-2.77,-3.53,-4.03,-4.45 Z M314.51,91.68" fill="rgb(0,0,0)" transform="matrix(1,0,0,-1,0,200)"/>
</svg>