<?xml version="1.0" encoding="UTF-8"?>
<svg height="200" version="1.1" width="500" xmlns="http://www.w3.org/2000/svg" xmlns:xlink="http://www.w3.org/1999/xlink">
 <path d="M0,0 l500,0 l0,200 l-500,0 Z M0,0" fill="rgb(255,255,255)" transform="matrix(1,0,0,-1,0,200)"/>
 <path d="M126.06,115.45 c0.84,1.18,3.28,3.95,3.28,5.46 c0,1.34,-1.6,1.6,-2.69,1.6 c-4.87,0,-6.72,-3.95,-9.24,-7.39 c-8.99,-0.34,-9.66,-1.68,-14.2,-9.07 l-0.92,-1.51 c4.45,0.67,2.86,0.34,7.98,0.34 c-3.11,-5.29,-7.73,-9.58,-12.77,-13.44 l0.92,-3.19 l4.28,3.44 l0.17,-0.17 c-1.09,-2.44,-2.18,-5.63,-2.18,-8.4 c0,-3.36,2.02,-5.63,5.29,-5.63 c7.14,0,16.21,8.99,21.17,13.52 l-0.42,3.7 c-8.74,-6.22,-11.76,-8.74,-14.45,-8.74 c-1.93,0,-2.52,1.09,-2.52,2.94 c0,5.04,4.79,11.93,7.64,15.62 c9.24,-0.59,9.91,2.52,13.86,10.5 Z M160.08,96.13 c-2.6,-1.93,-4.96,-5.12,-8.65,-4.45 c1.6,3.28,3.28,6.22,3.28,9.91 c0,2.52,-0.5,4.28,-3.02,4.96 c0.92,0.5,1.93,1.01,1.93,2.27 c0,2.27,-2.77,3.11,-4.62,3.02 c-5.12,-0.25,-11.17,-2.52,-15.71,-6.22 c-4.7,-3.61,-7.81,-7.81,-7.64,-14.11 c0.34,-7.64,4.37,-12.01,8.74,-12.01 c5.29,0,9.41,2.69,12.94,6.3 c6.13,0,9.83,2.02,13.61,6.8 Z M144.62,102.68 c0.34,-0.17,-3.61,-5.46,-3.61,-9.83 c0,-1.43,0.42,-2.52,1.01,-3.86 c-1.93,-1.76,-3.7,-3.36,-6.47,-3.36 c-2.1,0,-3.7,0.76,-3.7,3.19 c0,2.6,1.6,5.88,3.44,7.73 c2.52,2.44,6.47,4.45,9.32,6.13 Z M201.66,97.3 l0.17,-0.17 c-2.1,-3.44,-6.22,-9.41,-6.22,-13.61 c0,-2.44,1.76,-4.87,4.28,-4.87 c4.7,0,16.8,9.91,20.75,13.02 l-0.5,3.95 c-10.33,-7.06,-11.26,-7.06,-13.02,-7.48 c-1.01,-0.25,-2.1,1.09,-2.02,2.1 c0.08,1.93,0.59,3.28,7.14,10.5 c0.92,1.01,2.6,2.86,2.6,4.28 c0,1.18,-0.92,2.44,-1.51,3.36 c-0.25,0.34,-1.09,2.35,-1.76,2.35 c-1.01,0,-3.11,-1.68,-3.95,-2.35 l-18.65,-14.7 l-0.17,0.17 c1.85,3.28,7.81,10.08,7.81,13.78 c0,2.18,-1.18,3.86,-3.44,3.86 c-5.46,0,-20.41,-14.95,-24.53,-19.24 c-0.25,-0.25,-1.26,-1.34,-1.68,-1.34 c-0.34,0,-0.59,0.59,-0.59,0.76 c0,1.76,1.51,3.11,2.44,4.37 c1.26,1.85,3.11,3.36,4.62,5.12 c1.01,1.18,3.36,3.7,3.36,5.38 c0,1.76,-2.52,1.76,-3.78,1.93 c-5.04,0.67,-13.94,-10.58,-14.03,-18.82 c0,-3.02,1.18,-9.58,5.21,-9.58 c1.51,0,2.69,1.26,3.61,2.35 c3.95,4.87,8.65,9.91,13.02,14.53 c0.59,0.59,2.44,2.6,3.28,2.6 c0.34,0,0.59,-0.25,0.59,-0.59 c0,-0.25,-0.34,-0.92,-0.5,-1.09 c-5.46,-8.32,-7.48,-12.18,-7.39,-14.62 c0.08,-2.02,1.68,-3.53,3.7,-3.53 c2.86,0,5.88,3.44,7.81,5.29 Z M252.98,96.13 c-2.6,-1.93,-4.96,-5.12,-8.65,-4.45 c1.6,3.28,3.28,6.22,3.28,9.91 c0,2.52,-0.5,4.28,-3.02,4.96 c0.92,0.5,1.93,1.01,1.93,2.27 c0,2.27,-2.77,3.11,-4.62,3.02 c-5.12,-0.25,-11.17,-2.52,-15.71,-6.22 c-4.7,-3.61,-7.81,-7.81,-7.64,-14.11 c0.34,-7.64,4.37,-12.01,8.74,-12.01 c5.29,0,9.41,2.69,12.94,6.3 c6.13,0,9.83,2.02,13.61,6.8 Z M237.53,102.68 c0.34,-0.17,-3.61,-5.46,-3.61,-9.83 c0,-1.43,0.42,-2.52,1.01,-3.86 c-1.93,-1.76,-3.7,-3.36,-6.47,-3.36 c-2.1,0,-3.7,0.76,-3.7,3.19 c0,2.6,1.6,5.88,3.44,7.73 c2.52,2.44,6.47,4.45,9.32,6.13 Z M267.43,100.16 l0.17,-0.17 c-3.36,-4.03,-7.73,-8.48,-7.73,-14.2 c0,-3.19,2.18,-6.47,5.71,-6.47 c4.79,0,14.45,9.32,17.64,12.94 l-0.59,3.11 c-2.77,-2.1,-8.06,-7.56,-11.68,-7.56 c-1.26,0,-2.6,1.01,-2.6,2.35 c0,3.36,4.12,7.48,6.55,9.58 c1.93,1.6,3.53,2.86,3.53,5.46 c-0.17,1.51,-0.76,2.86,-2.02,4.45 c-0.84,1.01,-5.46,0,-13.36,-1.09 c0.34,0.76,0.59,1.51,0.59,2.35 c0,0.76,-0.67,1.43,-1.51,1.43 c-2.02,0,-10.58,-6.05,-10.58,-12.1 c0,-1.76,0.5,-2.44,2.27,-2.6 c-1.6,-2.27,-3.36,-4.37,-5.54,-6.13 l0.34,-3.7 c3.61,3.61,7.14,5.8,10.08,10.42 Z M296.66,100.16 l0.17,-0.17 c-3.36,-4.03,-7.73,-8.48,-7.73,-14.2 c0,-3.19,2.18,-6.47,5.71,-6.47 c4.79,0,14.45,9.32,17.64,12.94 l-0.59,3.11 c-2.77,-2.1,-8.06,-7.56,-11.68,-7.56 c-1.26,0,-2.6,1.01,-2.6,2.35 c0,3.36,4.12,7.48,6.55,9.58 c1.93,1.6,3.53,2.86,3.53,5.46 c-0.17,1.51,-0.76,2.86,-2.02,4.45 c-0.84,1.01,-5.46,0,-13.36,-1.09 c0.34,0.76,0.59,1.51,0.59,2.35 c0,0.76,-0.67,1.43,-1.51,1.43 c-2.02,0,-10.58,-6.05,-10.58,-12.1 c0,-1.76,0.5,-2.44,2.27,-2.6 c-1.6,-2.27,-3.36,-4.37,-5.54,-6.13 l0.34,-3.7 c3.61,3.61,7.14,5.8,10.08,10.42 Z M344.71,96.13 c-2.6,-1.93,-4.96,-5.12,-8.65,-4.45 c1.6,3.28,3.28,6.22,3.28,9.91 c0,2.52,-0.5,4.28,-3.02,4.96 c0.92,0.5,1.93,1.01,1.93,2.27 c0,2.27,-2.77,3.11,-4.62,3.02 c-5.12,-0.25,-11.17,-2.52,-15.71,-6.22 c-4.7,-3.61,-7.81,-7.81,-7.64,-14.11 c0.34,-7.64,4.37,-12.01,8.74,-12.01 c5.29,0,9.41,2.69,12.94,6.3 c6.13,0,9.83,2.02,13.61,6.8 Z M329.25,102.68 c0.34,-0.17,-3.61,-5.46,-3.61,-9.83 c0,-1.43,0.42,-2.52,1.01,-3.86 c-1.93,-1.76,-3.7,-3.36,-6.47,-3.36 c-2.1,0,-3.7,0.76,-3.7,3.19 c0,2.6,1.6,5.88,3.44,7.73 c2.52,2.44,6.47,4.45,9.32,6.13 Z M360.25,93.52 c-1.18,-1.18,-6.89,-6.22,-8.23,-6.22 c-0.76,0,-0.92,1.18,-0.92,1.85 c0,1.76,0.42,4.28,0.67,4.79 c3.44,2.69,14.28,11.76,14.28,16.04 c0,1.34,-1.18,2.52,-4.96,2.69 c-1.76,0.08,-3.28,-0.25,-10.42,-7.48 c-4.2,-4.2,-6.8,-7.81,-6.97,-14.03 c-0.17,-6.72,4.12,-11.0,8.82,-11.26 c4.12,-0.25,9.74,7.31,12.85,10.08 c-0.5,-7.98,0.59,-8.65,1.51,-9.83 c0.84,-0.92,1.76,-1.6,3.02,-1.6 c4.62,0,11.17,7.73,14.78,10.42 c1.85,-1.09,2.86,-1.68,5.04,-1.68 c3.86,0,6.72,2.44,9.24,5.04 l-0.17,3.7 c-1.6,-1.26,-4.54,-3.78,-6.64,-3.78 c-1.26,0,-1.85,0.5,-2.94,1.18 c2.77,3.36,5.71,7.22,5.71,11.84 c0,1.51,-0.67,4.2,-2.69,4.2 c-2.44,0,-5.8,-4.12,-7.14,-5.88 c-4.37,-5.63,-4.28,-7.14,-3.86,-10.33 c-1.76,-1.51,-5.8,-6.22,-8.15,-6.22 c-1.01,0,-1.6,0.76,-1.6,1.68 c0,3.11,5.71,12.85,7.56,15.71 c0.59,0.92,1.93,3.11,1.93,4.2 c0,1.01,-3.19,1.76,-4.03,1.76 c-1.18,0,-4.12,-3.78,-4.79,-4.62 Z M360.25,93.52" fill="rgb(0,0,0)" transform="matrix(1,0,0,-1,0,200)"/>
</svg>