<?xml version="1.0" encoding="UTF-8"?>
<svg height="200" version="1.1" width="800" xmlns="http://www.w3.org/2000/svg" xmlns:xlink="http://www.w3.org/1999/xlink">
 <path d="M0,0 l800,0 l0,200 l-800,0 Z M0,0" fill="rgb(255,255,255)" transform="matrix(1,0,0,-1,0,200)"/>
 <path d="M350.62,97.78 c7.15,0.9,11.5,6.5,10.2,15.45 c-1.05,7.85,-6.85,12.8,-13.35,12.8 c-4.65,0,-7.35,-2.85,-8.05,-4.35 l-2.35,16 l-6.1,-0.35 l4.05,-28.95 c0.55,-3.9,3.25,-7.65,7.35,-9.55 l-2.35,17.35 c0.6,2.25,2.85,4.75,5.85,4.75 c4.85,0,8.25,-4.1,8.85,-8.4 c0.65,-4.65,-1,-8.25,-4.55,-9.3 Z M378.73,125.93 l0.4,-5.15 c3.2,-0.65,5.7,-3.1,6.15,-6.5 l-5.1,0.2 l0.65,-4.7 l10.45,0.15 c0.15,0.7,0.2,2.3,0.05,3.65 c-0.85,6,-5.05,11.55,-12.6,12.35 Z M365.12,111.23 c1.15,-8.3,7.5,-13.6,16.25,-13.6 c5.2,0,9.25,1.3,11.25,3.05 l-1.9,4.7 c-1.8,-1.6,-5.25,-2.4,-9.05,-2.4 c-4.55,0,-9.05,2.55,-9.85,7 l-1.85,14.15 c-3.9,-2.5,-5.65,-7.35,-4.85,-12.9 Z M398.93,98.33 l6.2,0 l-5.5,39.35 l-6.15,-0.35 Z M410.68,130.72 c2.45,0,3.6,1.95,3.3,3.85 c-0.2,1.65,-1.65,3.2,-3.65,3.2 c-2.4,0,-3.7,-1.95,-3.45,-3.9 c0.25,-1.6,1.6,-3.15,3.8,-3.15 Z M412.32,98.33 l6.2,0 l-3.8,27.2 l-6.15,-0.4 Z M436.12,125.93 l0.4,-5.15 c3.2,-0.65,5.7,-3.1,6.15,-6.5 l-5.1,0.2 l0.65,-4.7 l10.45,0.15 c0.15,0.7,0.2,2.3,0.05,3.65 c-0.85,6,-5.05,11.55,-12.6,12.35 Z M422.52,111.23 c1.15,-8.3,7.5,-13.6,16.25,-13.6 c5.2,0,9.25,1.3,11.25,3.05 l-1.9,4.7 c-1.8,-1.6,-5.25,-2.4,-9.05,-2.4 c-4.55,0,-9.05,2.55,-9.85,7 l-1.85,14.15 c-3.9,-2.5,-5.65,-7.35,-4.85,-12.9 Z M453.12,120.23 l17.6,0 l-0.75,5.15 l-7.2,0 l-0.4,2.9 c-0.45,3.3,0.7,4.5,2.45,4.5 c2,0,3.15,-0.55,3.8,-0.95 l0.75,4.85 c-1.15,0.8,-2.9,1.4,-5.35,1.4 c-5.25,0,-8.65,-3.4,-7.75,-10.2 l0.35,-2.5 l-4.25,0 Z M459.47,86.97 c5.25,0,8.05,4.4,7,11.7 l-1.45,10.45 l-6.1,0 l1.6,-11.25 c0.35,-2.8,-0.75,-5,-3.3,-5 c-0.9,0,-1.9,0.2,-2.55,0.55 l2.75,-5.95 c0.35,-0.2,1.35,-0.5,2.05,-0.5 Z M459.47,86.97" fill="rgb(0,0,0)" transform="matrix(1,0,0,-1,0,200)"/>
</svg>