<?xml version="1.0" encoding="UTF-8"?>
<svg height="200" version="1.1" width="800" xmlns="http://www.w3.org/2000/svg" xmlns:xlink="http://www.w3.org/1999/xlink">
 <path d="M0,0 l800,0 l0,200 l-800,0 Z M0,0" fill="rgb(255,255,255)" transform="matrix(1,0,0,-1,0,200)"/>
 <path d="M325.75,71.85 c14.3,1.8,23,13,20.4,30.9 c-2.1,15.7,-13.7,25.6,-26.7,25.6 c-9.3,0,-14.7,-5.7,-16.1,-8.7 l-4.7,32.0 l-12.2,-0.7 l8.1,-57.9 c1.1,-7.8,6.5,-15.3,14.7,-19.1 l-4.7,34.7 c1.2,4.5,5.7,9.5,11.7,9.5 c9.7,0,16.5,-8.2,17.7,-16.8 c1.3,-9.3,-2,-16.5,-9.1,-18.6 Z M358.45,137.75 c4.9,0,7.2,3.9,6.6,7.7 c-0.4,3.3,-3.3,6.4,-7.3,6.4 c-4.8,0,-7.4,-3.9,-6.9,-7.8 c0.5,-3.2,3.2,-6.3,7.6,-6.3 Z M361.75,72.95 l12.4,0 l-7.6,54.4 l-12.3,-0.8 Z M385.75,94.55 l12.3,0 l-2.1,14.3 c1.6,5.2,4.7,8.6,9.9,8.6 c3,0,5,-1.5,6.2,-2.9 l1.9,12.1 c-1.8,1.1,-4.1,1.7,-6.3,1.7 c-7.4,0,-11.2,-3.4,-13.1,-7.6 l-1.1,6.3 l-12.3,0 Z M422.15,116.65 l34.7,0 l-1.5,10.4 l-13.8,0 l-2.3,16.5 l-12.3,-0.7 l2.2,-15.8 l-8.5,0 Z M453.85,71.55 c6,0,10.2,2.2,12.3,4.7 l-4,9.1 c-1.5,-1.7,-3.7,-2.5,-6.8,-2.5 c-4.3,0,-8,3.2,-8.8,8.6 l-0.4,3.1 l-12.4,0 l0.5,-3.9 c2,-13.6,8.9,-19.1,19.6,-19.1 Z M476.75,72.95 l12.4,0 l-5,34.5 c2.1,5.3,6.7,9,12.7,9 c6.4,0,10.4,-4.7,11.1,-10.1 l1.7,-11.8 l12.2,0 l-1.8,12.6 c-1.8,13.4,-9.1,21.2,-20.8,21.2 c-8.7,0,-14.2,-5.1,-16.4,-8.9 l-4.7,32.2 l-12.3,-0.7 Z M476.75,72.95" fill="rgb(0,0,0)" transform="matrix(1,0,0,-1,0,200)"/>
</svg>