<?xml version="1.0" encoding="UTF-8"?>
<svg height="200" version="1.1" width="800" xmlns="http://www.w3.org/2000/svg" xmlns:xlink="http://www.w3.org/1999/xlink">
 <path d="M0,0 l800,0 l0,200 l-800,0 Z M0,0" fill="rgb(255,255,255)" transform="matrix(1,0,0,-1,0,200)"/>
 <path d="M243,71.85 c14.3,1.8,23,13,20.4,30.9 c-2.1,15.7,-13.7,25.6,-26.7,25.6 c-9.3,0,-14.7,-5.7,-16.1,-8.7 l-4.7,32.0 l-12.2,-0.7 l8.1,-57.9 c1.1,-7.8,6.5,-15.3,14.7,-19.1 l-4.7,34.7 c1.2,4.5,5.7,9.5,11.7,9.5 c9.7,0,16.5,-8.2,17.7,-16.8 c1.3,-9.3,-2,-16.5,-9.1,-18.6 Z M275.6,94.55 l12.3,0 l-2.1,14.3 c1.6,5.2,4.7,8.6,9.9,8.6 c3,0,5,-1.5,6.2,-2.9 l1.9,12.1 c-1.8,1.1,-4.1,1.7,-6.3,1.7 c-7.4,0,-11.2,-3.4,-13.1,-7.6 l-1.1,6.3 l-12.3,0 Z M354.4,72.55 c13.2,3.1,20.1,14.7,18.2,28.3 c-1.7,12.4,-11.5,23.3,-25.3,26.7 l1,-11.8 c6.4,-3,11.1,-9.4,12.1,-16.5 c1,-6.8,-1.3,-12.7,-7,-15.4 Z M338.2,72.35 l-1,11.8 c-6.4,2.8,-11,9,-12.1,16.5 c-0.9,6.5,1.5,12.4,7,15.4 l-1,11.2 c-12.7,-3.4,-19.9,-15,-18.1,-28.0 c1.9,-13.1,11.2,-23.8,25.2,-26.9 Z M406.7,71.55 l-0.9,11 c-4,0.8,-7.9,3.9,-8.6,9.4 l-5,35.1 l-12.3,0 l5.1,-35.9 c1.9,-14,11.3,-19.5,21.7,-19.6 Z M426.6,71.25 l10.4,4.4 c-1.6,2.4,-2.8,6.4,-3.5,11.3 l-5.7,40.1 l-12.4,0 l6.8,-48.3 c0.8,-3.7,3.2,-6.3,4.4,-7.5 Z M477.3,91.55 c10.8,1.8,16.4,9.2,15.1,18.7 c-0.4,2.7,-1.7,5.6,-3.4,7.2 c1.1,1.4,3.3,2,6.2,2 l-0.6,8.9 c-5.6,0,-9,-2.4,-10.8,-4.8 c-3,2.3,-6.4,3.8,-11,4.5 l0.8,-10.2 c4,-1.4,7.1,-4.8,7.7,-9 c0.5,-3.5,-1,-6.1,-4.7,-7.5 Z M448.2,87.35 c1.1,-7.5,12,-12.9,25.2,-12.1 c7,0.4,11.7,-0.8,14.4,-2.5 l14.1,0.5 c-3.2,7.5,-11.2,12.1,-24.8,11.5 c-10.9,-0.4,-17.8,1.7,-18.4,5.9 c-0.1,1.3,0.4,2.7,0.9,3 c1.8,-1,4.1,-1.7,6.9,-2.2 l-0.8,10.1 c-4,1.5,-7.1,4.7,-7.7,8.7 c-0.5,3.6,1.3,6.3,4.8,7.7 l-0.8,9.8 c-9.8,-1.9,-16.7,-9.2,-15.3,-18.9 c0.8,-5.9,4.4,-9.5,6.7,-11.2 c-2.2,-0.9,-5.9,-4.9,-5.2,-10.3 Z M450.5,67.85 c1.5,-10.9,11.6,-17.8,28.9,-17.8 c11.9,0,20.4,4,23,11.0 l-23.6,-0.3 c-10.9,0,-16.1,3.8,-16.9,7 l-11.3,3.3 c-0.2,-0.9,-0.3,-2,-0.1,-3.2 Z M514,72.95 l12.4,0 l-5,34.5 c2.1,5.3,6.7,9,12.7,9 c6.4,0,10.4,-4.7,11.1,-10.1 l1.7,-11.8 l12.2,0 l-1.8,12.6 c-1.8,13.4,-9.1,21.2,-20.8,21.2 c-8.7,0,-14.2,-5.1,-16.4,-8.9 l-4.7,32.2 l-12.3,-0.7 Z M565,116.65 l34.7,0 l-1.5,10.4 l-13.8,0 l-2.3,16.5 l-12.3,-0.7 l2.2,-15.8 l-8.5,0 Z M596.7,71.55 c6,0,10.2,2.2,12.3,4.7 l-4,9.1 c-1.5,-1.7,-3.7,-2.5,-6.8,-2.5 c-4.3,0,-8,3.2,-8.8,8.6 l-0.4,3.1 l-12.4,0 l0.5,-3.9 c2,-13.6,8.9,-19.1,19.6,-19.1 Z M596.7,71.55" fill="rgb(0,0,0)" transform="matrix(1,0,0,-1,0,200)"/>
</svg>