<?xml version="1.0" encoding="UTF-8"?>
<svg height="200" version="1.1" width="800" xmlns="http://www.w3.org/2000/svg" xmlns:xlink="http://www.w3.org/1999/xlink">
 <path d="M0,0 l800,0 l0,200 l-800,0 Z M0,0" fill="rgb(255,255,255)" transform="matrix(1,0,0,-1,0,200)"/>
 <path d="M307.75,114.25 c10.8,1.8,16.4,9.2,15.1,18.7 c-0.4,2.7,-1.7,5.6,-3.4,7.2 c1.1,1.4,3.3,2,6.2,2 l-0.6,8.9 c-5.6,0,-9,-2.4,-10.8,-4.8 c-3,2.3,-6.4,3.8,-11,4.5 l0.8,-10.2 c4,-1.4,7.1,-4.8,7.7,-9 c0.5,-3.5,-1,-6.1,-4.7,-7.5 Z M278.65,110.05 c1.1,-7.5,12,-12.9,25.2,-12.1 c7,0.4,11.7,-0.8,14.4,-2.5 l14.1,0.5 c-3.2,7.5,-11.2,12.1,-24.8,11.5 c-10.9,-0.4,-17.8,1.7,-18.4,5.9 c-0.1,1.3,0.4,2.7,0.9,3 c1.8,-1,4.1,-1.7,6.9,-2.2 l-0.8,10.1 c-4,1.5,-7.1,4.7,-7.7,8.7 c-0.5,3.6,1.3,6.3,4.8,7.7 l-0.8,9.8 c-9.8,-1.9,-16.7,-9.2,-15.3,-18.9 c0.8,-5.9,4.4,-9.5,6.7,-11.2 c-2.2,-0.9,-5.9,-4.9,-5.2,-10.3 Z M280.95,90.55 c1.5,-10.9,11.6,-17.8,28.9,-17.8 c11.9,0,20.4,4,23,11 l-23.6,-0.3 c-10.9,0,-16.1,3.8,-16.9,7 l-11.3,3.3 c-0.2,-0.9,-0.3,-2,-0.1,-3.2 Z M344.45,95.65 l12.4,0 l-11,78.7 l-12.3,-0.7 Z M394.25,94.45 l-0.8,10.1 c-8.6,1.1,-15.9,9.3,-17.3,19 c-1.5,10.5,4.4,17.6,13.4,17.6 c7.7,0,13.3,-4.7,15.8,-9 l4.3,-30.4 c2,-5.5,7.9,-7.3,11.5,-7.3 c5.6,0,9,2.4,10.2,5.1 l-3.8,6.1 c-0.3,-0.6,-1.1,-0.8,-2,-0.8 c-2.9,0,-4.3,2.8,-5,7.3 l-5.4,37.6 l-12,0 l0.9,-6.5 c-2.1,3,-8.1,7.8,-16.3,7.8 c-15.5,0,-25.9,-12.3,-23.6,-28.7 c2.1,-15.2,15.1,-27.5,30.1,-27.9 Z M447.75,120.15 l-1.8,15 c-0.5,3.6,4.2,5.9,10.6,5.9 c7.9,0,15.1,-3.9,16.7,-6 l2,9.9 c-1.3,1.3,-8.2,6.1,-18.8,6.1 c-13.5,0,-24.2,-6.8,-22.7,-17.6 c1.1,-7.6,6.8,-11.2,14,-13.3 Z M473.05,96.05 c7.6,2.6,11.3,8.4,10,17.3 c-1.2,8.7,-7.7,11.9,-19.6,14.5 l1,-11.5 c3.8,-1.2,6.5,-3.1,6.8,-5.5 Z M457.05,94.35 l-0.8,10.5 c-8.1,0.8,-15.3,4.6,-17.7,7.1 l-0.3,-11.9 c2.5,-1.7,8.6,-5.1,18.8,-5.7 Z M504.25,120.15 l-1.8,15 c-0.5,3.6,4.2,5.9,10.6,5.9 c7.9,0,15.1,-3.9,16.7,-6 l2,9.9 c-1.3,1.3,-8.2,6.1,-18.8,6.1 c-13.5,0,-24.2,-6.8,-22.7,-17.6 c1.1,-7.6,6.8,-11.2,14,-13.3 Z M529.55,96.05 c7.6,2.6,11.3,8.4,10,17.3 c-1.2,8.7,-7.7,11.9,-19.6,14.5 l1,-11.5 c3.8,-1.2,6.5,-3.1,6.8,-5.5 Z M513.55,94.35 l-0.8,10.5 c-8.1,0.8,-15.3,4.6,-17.7,7.1 l-0.3,-11.9 c2.5,-1.7,8.6,-5.1,18.8,-5.7 Z M513.55,94.35" fill="rgb(0,0,0)" transform="matrix(1,0,0,-1,0,200)"/>
</svg>