<?xml version="1.0" encoding="UTF-8"?>
<svg height="200" version="1.1" width="800" xmlns="http://www.w3.org/2000/svg" xmlns:xlink="http://www.w3.org/1999/xlink">
 <path d="M0,0 l800,0 l0,200 l-800,0 Z M0,0" fill="rgb(255,255,255)" transform="matrix(1,0,0,-1,0,200)"/>
 <path d="M206.9,95.65 l12.4,0 l-5,34.5 c2.1,5.3,6.7,9,12.7,9 c6.4,0,10.4,-4.7,11.1,-10.1 l1.7,-11.8 l12.2,0 l-1.8,12.6 c-1.8,13.4,-9.1,21.2,-20.8,21.2 c-8.7,0,-14.2,-5.1,-16.4,-8.9 l-4.7,32.2 l-12.3,-0.7 Z M286.2,94.25 l-0.9,11 c-4,0.8,-7.9,3.9,-8.6,9.4 l-5,35.1 l-12.3,0 l5.1,-35.9 c1.9,-14,11.3,-19.5,21.7,-19.6 Z M306.1,93.95 l10.4,4.4 c-1.6,2.4,-2.8,6.4,-3.5,11.3 l-5.7,40.1 l-12.4,0 l6.8,-48.3 c0.8,-3.7,3.2,-6.3,4.4,-7.5 Z M326.2,117.25 l12.4,0 l-2,12.9 c2.6,5.3,6.9,9,12.8,9 c5.4,0,10.4,-4.2,11.3,-10.3 l4.6,-33.2 l12.3,0 l-4.7,34 c-2.1,14.8,-9,21.4,-21.3,21.4 c-8.5,0,-14.1,-5.3,-16.3,-9 l-1.3,7.7 l-12.4,0 Z M415,94.25 l-0.8,10.3 c-8,0.9,-15.6,8,-17.1,18.5 c-1.6,11,4.3,18.2,13.2,18.2 c7.7,0,13.2,-4.8,15.8,-9.1 l4.4,-31 c0.6,-3.5,3.4,-6,4.9,-7.1 l9.8,4.3 c-1.6,2.4,-2.8,6.4,-3.5,11.3 l-9.1,64.7 l-12.2,-0.7 l4.2,-28.8 c-2.6,2.8,-7.7,6.2,-16,6.2 c-15.6,0,-25.9,-12.9,-23.6,-29.4 c2.3,-16.2,13.9,-27.4,30,-27.4 Z M455.9,117.25 l12.3,0 l-2.1,14.3 c1.6,5.2,4.7,8.6,9.9,8.6 c3,0,5,-1.5,6.2,-2.9 l1.9,12.1 c-1.8,1.1,-4.1,1.7,-6.3,1.7 c-7.4,0,-11.2,-3.4,-13.1,-7.6 l-1.1,6.3 l-12.3,0 Z M520.6,150.85 l0.8,-10.3 c6.4,-1.3,11.4,-6.2,12.3,-13 l-10.2,0.4 l1.3,-9.4 l20.9,0.3 c0.3,1.4,0.4,4.6,0.1,7.3 c-1.7,12,-10.1,23.1,-25.2,24.7 Z M493.4,121.45 c2.3,-16.6,15,-27.2,32.5,-27.2 c10.4,0,18.5,2.6,22.5,6.1 l-3.8,9.4 c-3.6,-3.2,-10.5,-4.8,-18.1,-4.8 c-9.1,0,-18.1,5.1,-19.7,14 l-3.7,28.3 c-7.8,-5,-11.3,-14.7,-9.7,-25.8 Z M584.4,94.25 l-0.8,10.3 c-8,0.9,-15.6,8,-17.1,18.5 c-1.6,11,4.3,18.2,13.2,18.2 c7.7,0,13.2,-4.8,15.8,-9.1 l4.4,-31 c0.6,-3.5,3.4,-6,4.9,-7.1 l9.8,4.3 c-1.6,2.4,-2.8,6.4,-3.5,11.3 l-9.1,64.7 l-12.2,-0.7 l4.2,-28.8 c-2.6,2.8,-7.7,6.2,-16,6.2 c-15.6,0,-25.9,-12.9,-23.6,-29.4 c2.3,-16.2,13.9,-27.4,30,-27.4 Z M584.4,94.25" fill="rgb(0,0,0)" transform="matrix(1,0,0,-1,0,200)"/>
</svg>