<?xml version="1.0" encoding="UTF-8"?>
<svg height="200" version="1.1" width="800" xmlns="http://www.w3.org/2000/svg" xmlns:xlink="http://www.w3.org/1999/xlink">
 <path d="M0,0 l800,0 l0,200 l-800,0 Z M0,0" fill="rgb(255,255,255)" transform="matrix(1,0,0,-1,0,200)"/>
 <path d="M327.6,120.23 l17.6,0 l-0.75,5.15 l-7.2,0 l-0.4,2.9 c-0.45,3.3,0.7,4.5,2.45,4.5 c2,0,3.15,-0.55,3.8,-0.95 l0.75,4.85 c-1.15,0.8,-2.9,1.4,-5.35,1.4 c-5.25,0,-8.65,-3.4,-7.75,-10.2 l0.35,-2.5 l-4.25,0 Z M333.95,86.97 c5.25,0,8.05,4.4,7,11.7 l-1.45,10.45 l-6.1,0 l1.6,-11.25 c0.35,-2.8,-0.75,-5,-3.3,-5 c-0.9,0,-1.9,0.2,-2.55,0.55 l2.75,-5.95 c0.35,-0.2,1.35,-0.5,2.05,-0.5 Z M365.45,125.93 l0.4,-5.15 c3.2,-0.65,5.7,-3.1,6.15,-6.5 l-5.1,0.2 l0.65,-4.7 l10.45,0.15 c0.15,0.7,0.2,2.3,0.05,3.65 c-0.85,6,-5.05,11.55,-12.6,12.35 Z M351.85,111.23 c1.15,-8.3,7.5,-13.6,16.25,-13.6 c5.2,0,9.25,1.3,11.25,3.05 l-1.9,4.7 c-1.8,-1.6,-5.25,-2.4,-9.05,-2.4 c-4.55,0,-9.05,2.55,-9.85,7 l-1.85,14.15 c-3.9,-2.5,-5.65,-7.35,-4.85,-12.9 Z M385.65,98.33 l6.2,0 l-5.5,39.35 l-6.15,-0.35 Z M398.85,98.33 l6.2,0 l-5.5,39.35 l-6.15,-0.35 Z M429.4,98.12 c6.6,1.55,10.05,7.35,9.1,14.15 c-0.85,6.2,-5.75,11.65,-12.65,13.35 l0.5,-5.9 c3.2,-1.5,5.55,-4.7,6.05,-8.25 c0.5,-3.4,-0.65,-6.35,-3.5,-7.7 Z M421.3,98.03 l-0.5,5.9 c-3.2,1.4,-5.5,4.5,-6.05,8.25 c-0.45,3.25,0.75,6.2,3.5,7.7 l-0.5,5.6 c-6.35,-1.7,-9.95,-7.5,-9.05,-14 c0.95,-6.55,5.6,-11.9,12.6,-13.45 Z M445.6,109.12 l1.9,8.85 l-3.05,7.4 l-6.3,0 Z M450.75,98.33 l5.2,0 l3.65,18.45 l8.55,-18.45 l5.95,0 l-12.55,27.05 l-5.85,0 Z M476,109.18 l2.95,16.2 l-6.15,0 l-0.95,-6.8 Z M476,109.18" fill="rgb(0,0,0)" transform="matrix(1,0,0,-1,0,200)"/>
</svg>