<?xml version="1.0" encoding="UTF-8"?>
<svg height="200" version="1.1" width="800" xmlns="http://www.w3.org/2000/svg" xmlns:xlink="http://www.w3.org/1999/xlink">
 <path d="M0,0 l800,0 l0,200 l-800,0 Z M0,0" fill="rgb(255,255,255)" transform="matrix(1,0,0,-1,0,200)"/>
 <path d="M358.7,106.7 l14.08,0 l-0.6,4.12 l-5.76,0 l-0.32,2.32 c-0.36,2.64,0.56,3.6,1.96,3.6 c1.6,0,2.52,-0.44,3.04,-0.76 l0.6,3.88 c-0.92,0.64,-2.32,1.12,-4.28,1.12 c-4.2,0,-6.92,-2.72,-6.2,-8.16 l0.28,-2 l-3.4,0 Z M379.58,115.1 c1.96,0,2.88,1.56,2.64,3.08 c-0.16,1.32,-1.32,2.56,-2.92,2.56 c-1.92,0,-2.96,-1.56,-2.76,-3.12 c0.2,-1.28,1.28,-2.52,3.04,-2.52 Z M380.9,89.18 l4.96,0 l-3.04,21.76 l-4.92,-0.32 Z M363.78,80.1 c4.2,0,6.44,3.52,5.6,9.36 l-1.16,8.36 l-4.88,0 l1.28,-9 c0.28,-2.24,-0.6,-4,-2.64,-4 c-0.72,0,-1.52,0.16,-2.04,0.44 l2.2,-4.76 c0.28,-0.16,1.08,-0.4,1.64,-0.4 Z M389.14,106.7 l14.08,0 l-0.6,4.12 l-5.76,0 l-0.32,2.32 c-0.36,2.64,0.56,3.6,1.96,3.6 c1.6,0,2.52,-0.44,3.04,-0.76 l0.6,3.88 c-0.92,0.64,-2.32,1.12,-4.28,1.12 c-4.2,0,-6.92,-2.72,-6.2,-8.16 l0.28,-2 l-3.4,0 Z M394.22,80.1 c4.2,0,6.44,3.52,5.6,9.36 l-1.16,8.36 l-4.88,0 l1.28,-9 c0.28,-2.24,-0.6,-4,-2.64,-4 c-0.72,0,-1.52,0.16,-2.04,0.44 l2.2,-4.76 c0.28,-0.16,1.08,-0.4,1.64,-0.4 Z M407.54,106.66 l13.88,0 l-0.6,4.16 l-5.52,0 l-0.92,6.6 l-4.92,-0.28 l0.88,-6.32 l-3.4,0 Z M420.22,88.62 c2.4,0,4.08,0.88,4.92,1.88 l-1.6,3.64 c-0.6,-0.68,-1.48,-1,-2.72,-1 c-1.72,0,-3.2,1.28,-3.52,3.44 l-0.16,1.24 l-4.96,0 l0.2,-1.56 c0.8,-5.44,3.56,-7.64,7.84,-7.64 Z M432.66,97.82 l1.52,5.92 l-4.36,7.08 l-5.44,0 Z M431.34,80.1 c5.12,0,8.44,3.52,10.16,10.52 l5.04,20.2 l-5.2,0 l-4.64,-19.24 c-1.28,-5.04,-4,-7.36,-6.92,-7.36 c-1,0,-1.64,0.24,-2.04,0.44 l1.88,-4.2 c0.28,-0.16,1.08,-0.36,1.72,-0.36 Z M431.34,80.1" fill="rgb(0,0,0)" transform="matrix(1,0,0,-1,0,200)"/>
</svg>