<?xml version="1.0" encoding="UTF-8"?>
<svg height="200" version="1.1" width="800" xmlns="http://www.w3.org/2000/svg" xmlns:xlink="http://www.w3.org/1999/xlink">
 <path d="M0,0 l800,0 l0,200 l-800,0 Z M0,0" fill="rgb(255,255,255)" transform="matrix(1,0,0,-1,0,200)"/>
 <path d="M339,106.7 l14.08,0 l-0.6,4.12 l-5.76,0 l-0.32,2.32 c-0.36,2.64,0.56,3.6,1.96,3.6 c1.6,0,2.52,-0.44,3.04,-0.76 l0.6,3.88 c-0.92,0.64,-2.32,1.12,-4.28,1.12 c-4.2,0,-6.92,-2.72,-6.2,-8.16 l0.28,-2 l-3.4,0 Z M344.08,80.1 c4.2,0,6.44,3.52,5.6,9.36 l-1.16,8.36 l-4.88,0 l1.28,-9 c0.28,-2.24,-0.6,-4,-2.64,-4 c-0.72,0,-1.52,0.16,-2.04,0.44 l2.2,-4.76 c0.28,-0.16,1.08,-0.4,1.64,-0.4 Z M374.92,89.02 c5.28,1.24,8.04,5.88,7.28,11.32 c-0.68,4.96,-4.6,9.32,-10.12,10.68 l0.4,-4.72 c2.56,-1.2,4.44,-3.76,4.84,-6.6 c0.4,-2.72,-0.52,-5.08,-2.8,-6.16 Z M368.44,88.94 l-0.4,4.72 c-2.56,1.12,-4.4,3.6,-4.84,6.6 c-0.36,2.6,0.6,4.96,2.8,6.16 l-0.4,4.48 c-5.08,-1.36,-7.96,-6,-7.24,-11.2 c0.76,-5.24,4.48,-9.52,10.08,-10.76 Z M386.96,97.82 l4.92,0 l-0.84,5.72 c0.64,2.08,1.88,3.44,3.96,3.44 c1.2,0,2,-0.6,2.48,-1.16 l0.76,4.84 c-0.72,0.44,-1.64,0.68,-2.52,0.68 c-2.96,0,-4.48,-1.36,-5.24,-3.04 l-0.44,2.52 l-4.92,0 Z M415.24,96.62 c4.32,0.72,6.56,3.68,6.04,7.48 c-0.16,1.08,-0.68,2.24,-1.36,2.88 c0.44,0.56,1.32,0.8,2.48,0.8 l-0.24,3.56 c-2.24,0,-3.6,-0.96,-4.32,-1.92 c-1.2,0.92,-2.56,1.52,-4.4,1.8 l0.32,-4.08 c1.6,-0.56,2.84,-1.92,3.08,-3.6 c0.2,-1.4,-0.4,-2.44,-1.88,-3 Z M403.6,94.94 c0.44,-3,4.8,-5.16,10.08,-4.84 c2.8,0.16,4.68,-0.32,5.76,-1 l5.64,0.2 c-1.28,3,-4.48,4.84,-9.92,4.6 c-4.36,-0.16,-7.12,0.68,-7.36,2.36 c-0.04,0.52,0.16,1.08,0.36,1.2 c0.72,-0.4,1.64,-0.68,2.76,-0.88 l-0.32,4.04 c-1.6,0.6,-2.84,1.88,-3.08,3.48 c-0.2,1.44,0.52,2.52,1.92,3.08 l-0.32,3.92 c-3.92,-0.76,-6.68,-3.68,-6.12,-7.56 c0.32,-2.36,1.76,-3.8,2.68,-4.48 c-0.88,-0.36,-2.36,-1.96,-2.08,-4.12 Z M404.52,87.14 c0.6,-4.36,4.64,-7.12,11.56,-7.12 c4.76,0,8.16,1.6,9.2,4.4 l-9.44,-0.12 c-4.36,0,-6.44,1.52,-6.76,2.8 l-4.52,1.32 c-0.08,-0.36,-0.12,-0.8,-0.04,-1.28 Z M438.16,111.26 l0.32,-4.12 c2.56,-0.52,4.56,-2.48,4.92,-5.2 l-4.08,0.16 l0.52,-3.76 l8.36,0.12 c0.12,0.56,0.16,1.84,0.04,2.92 c-0.68,4.8,-4.04,9.24,-10.08,9.88 Z M427.28,99.5 c0.92,-6.64,6,-10.88,13,-10.88 c4.16,0,7.4,1.04,9,2.44 l-1.52,3.76 c-1.44,-1.28,-4.2,-1.92,-7.24,-1.92 c-3.64,0,-7.24,2.04,-7.88,5.6 l-1.48,11.32 c-3.12,-2,-4.52,-5.88,-3.88,-10.32 Z M450.68,106.66 l13.88,0 l-0.6,4.16 l-5.52,0 l-0.92,6.6 l-4.92,-0.28 l0.88,-6.32 l-3.4,0 Z M463.36,88.62 c2.4,0,4.08,0.88,4.92,1.88 l-1.6,3.64 c-0.6,-0.68,-1.48,-1,-2.72,-1 c-1.72,0,-3.2,1.28,-3.52,3.44 l-0.16,1.24 l-4.96,0 l0.2,-1.56 c0.8,-5.44,3.56,-7.64,7.84,-7.64 Z M463.36,88.62" fill="rgb(0,0,0)" transform="matrix(1,0,0,-1,0,200)"/>
</svg>