<?xml version="1.0" encoding="UTF-8"?>
<svg height="200" version="1.1" width="800" xmlns="http://www.w3.org/2000/svg" xmlns:xlink="http://www.w3.org/1999/xlink">
 <path d="M0,0 l800,0 l0,200 l-800,0 Z M0,0" fill="rgb(255,255,255)" transform="matrix(1,0,0,-1,0,200)"/>
 <path d="M278.35,97.73 l-0.4,5.05 c-4.3,0.55,-7.95,4.65,-8.65,9.5 c-0.75,5.25,2.2,8.8,6.7,8.8 c3.85,0,6.65,-2.35,7.9,-4.5 l2.15,-15.2 c1,-2.75,3.95,-3.65,5.75,-3.65 c2.8,0,4.5,1.2,5.1,2.55 l-1.9,3.05 c-0.15,-0.3,-0.55,-0.4,-1,-0.4 c-1.45,0,-2.15,1.4,-2.5,3.65 l-2.7,18.8 l-6,0 l0.45,-3.25 c-1.05,1.5,-4.05,3.9,-8.15,3.9 c-7.75,0,-12.95,-6.15,-11.8,-14.35 c1.05,-7.6,7.55,-13.75,15.05,-13.95 Z M301.75,98.33 l6.2,0 l-5.5,39.35 l-6.15,-0.35 Z M310.4,120.18 l17.35,0 l-0.75,5.2 l-6.9,0 l-1.15,8.25 l-6.15,-0.35 l1.1,-7.9 l-4.25,0 Z M326.25,97.62 c3,0,5.1,1.1,6.15,2.35 l-2,4.55 c-0.75,-0.85,-1.85,-1.25,-3.4,-1.25 c-2.15,0,-4,1.6,-4.4,4.3 l-0.2,1.55 l-6.2,0 l0.25,-1.95 c1,-6.8,4.45,-9.55,9.8,-9.55 Z M348.0,125.93 l0.4,-5.15 c3.2,-0.65,5.7,-3.1,6.15,-6.5 l-5.1,0.2 l0.65,-4.7 l10.45,0.15 c0.15,0.7,0.2,2.3,0.05,3.65 c-0.85,6,-5.05,11.55,-12.6,12.35 Z M334.4,111.23 c1.15,-8.3,7.5,-13.6,16.25,-13.6 c5.2,0,9.25,1.3,11.25,3.05 l-1.9,4.7 c-1.8,-1.6,-5.25,-2.4,-9.05,-2.4 c-4.55,0,-9.05,2.55,-9.85,7 l-1.85,14.15 c-3.9,-2.5,-5.65,-7.35,-4.85,-12.9 Z M366.7,109.12 l6.15,0 l-1.05,7.15 c0.8,2.6,2.35,4.3,4.95,4.3 c1.5,0,2.5,-0.75,3.1,-1.45 l0.95,6.05 c-0.9,0.55,-2.05,0.85,-3.15,0.85 c-3.7,0,-5.6,-1.7,-6.55,-3.8 l-0.55,3.15 l-6.15,0 Z M387.45,109.12 l6.2,0 l-1,6.45 c1.3,2.65,3.45,4.5,6.4,4.5 c2.7,0,5.2,-2.1,5.65,-5.15 l2.3,-16.6 l6.15,0 l-2.35,17 c-1.05,7.4,-4.5,10.7,-10.65,10.7 c-4.25,0,-7.05,-2.65,-8.15,-4.5 l-0.65,3.85 l-6.2,0 Z M431.85,97.73 l-0.4,5.05 c-4.3,0.55,-7.95,4.65,-8.65,9.5 c-0.75,5.25,2.2,8.8,6.7,8.8 c3.85,0,6.65,-2.35,7.9,-4.5 l2.15,-15.2 c1,-2.75,3.95,-3.65,5.75,-3.65 c2.8,0,4.5,1.2,5.1,2.55 l-1.9,3.05 c-0.15,-0.3,-0.55,-0.4,-1,-0.4 c-1.45,0,-2.15,1.4,-2.5,3.65 l-2.7,18.8 l-6,0 l0.45,-3.25 c-1.05,1.5,-4.05,3.9,-8.15,3.9 c-7.75,0,-12.95,-6.15,-11.8,-14.35 c1.05,-7.6,7.55,-13.75,15.05,-13.95 Z M450.7,120.18 l17.35,0 l-0.75,5.2 l-6.9,0 l-1.15,8.25 l-6.15,-0.35 l1.1,-7.9 l-4.25,0 Z M466.55,97.62 c3,0,5.1,1.1,6.15,2.35 l-2,4.55 c-0.75,-0.85,-1.85,-1.25,-3.4,-1.25 c-2.15,0,-4,1.6,-4.4,4.3 l-0.2,1.55 l-6.2,0 l0.25,-1.95 c1,-6.8,4.45,-9.55,9.8,-9.55 Z M476.55,130.72 c2.45,0,3.6,1.95,3.3,3.85 c-0.2,1.65,-1.65,3.2,-3.65,3.2 c-2.4,0,-3.7,-1.95,-3.45,-3.9 c0.25,-1.6,1.6,-3.15,3.8,-3.15 Z M478.2,98.33 l6.2,0 l-3.8,27.2 l-6.15,-0.4 Z M505.9,98.33 l-14.6,27.05 l-6.45,0 l14.6,-27.05 Z M504.5,116.88 l4.15,-7.75 l4.3,16.25 l-6.3,0 Z M530.75,125.93 l0.4,-5.15 c3.2,-0.65,5.7,-3.1,6.15,-6.5 l-5.1,0.2 l0.65,-4.7 l10.45,0.15 c0.15,0.7,0.2,2.3,0.05,3.65 c-0.85,6,-5.05,11.55,-12.6,12.35 Z M517.15,111.23 c1.15,-8.3,7.5,-13.6,16.25,-13.6 c5.2,0,9.25,1.3,11.25,3.05 l-1.9,4.7 c-1.8,-1.6,-5.25,-2.4,-9.05,-2.4 c-4.55,0,-9.05,2.55,-9.85,7 l-1.85,14.15 c-3.9,-2.5,-5.65,-7.35,-4.85,-12.9 Z M517.15,111.23" fill="rgb(0,0,0)" transform="matrix(1,0,0,-1,0,200)"/>
</svg>