<?xml version="1.0" encoding="UTF-8"?>
<svg height="200" version="1.1" width="800" xmlns="http://www.w3.org/2000/svg" xmlns:xlink="http://www.w3.org/1999/xlink">
 <path d="M0,0 l800,0 l0,200 l-800,0 Z M0,0" fill="rgb(255,255,255)" transform="matrix(1,0,0,-1,0,200)"/>
 <path d="M299.55,116.75 l35.2,0 l-1.5,10.3 l-14.4,0 l-0.8,5.8 c-0.9,6.6,1.4,9,4.9,9 c4,0,6.3,-1.1,7.6,-1.9 l1.5,9.7 c-2.3,1.6,-5.8,2.8,-10.7,2.8 c-10.5,0,-17.3,-6.8,-15.5,-20.4 l0.7,-5 l-8.5,0 Z M312.25,50.25 c10.5,0,16.1,8.8,14,23.4 l-2.9,20.9 l-12.2,0 l3.2,-22.5 c0.7,-5.6,-1.5,-10.0,-6.6,-10.0 c-1.8,0,-3.8,0.4,-5.1,1.1 l5.5,-11.9 c0.7,-0.4,2.7,-1,4.1,-1 Z M373.85,71.55 l-0.9,11 c-4,0.8,-7.9,3.9,-8.6,9.4 l-5,35.1 l-12.3,0 l5.1,-35.9 c1.9,-14,11.3,-19.5,21.7,-19.6 Z M393.75,71.25 l10.4,4.4 c-1.6,2.4,-2.8,6.4,-3.5,11.3 l-5.7,40.1 l-12.4,0 l6.8,-48.3 c0.8,-3.7,3.2,-6.3,4.4,-7.5 Z M417.85,72.95 l12.4,0 l-11,78.7 l-12.3,-0.7 Z M444.25,72.95 l12.4,0 l-11,78.7 l-12.3,-0.7 Z M478.85,94.55 l3.8,14.8 l-10.9,17.7 l-13.6,0 Z M475.55,50.25 c12.8,0,21.1,8.8,25.4,26.3 l12.6,50.5 l-13,0 l-11.6,-48.1 c-3.2,-12.6,-10,-18.4,-17.3,-18.4 c-2.5,0,-4.1,0.6,-5.1,1.1 l4.7,-10.5 c0.7,-0.4,2.7,-0.9,4.3,-0.9 Z M475.55,50.25" fill="rgb(0,0,0)" transform="matrix(1,0,0,-1,0,200)"/>
</svg>