<?xml version="1.0" encoding="UTF-8"?>
<svg height="200" version="1.1" width="800" xmlns="http://www.w3.org/2000/svg" xmlns:xlink="http://www.w3.org/1999/xlink">
 <path d="M0,0 l800,0 l0,200 l-800,0 Z M0,0" fill="rgb(255,255,255)" transform="matrix(1,0,0,-1,0,200)"/>
 <path d="M249.85,116.75 l35.2,0 l-1.5,10.3 l-14.4,0 l-0.8,5.8 c-0.9,6.6,1.4,9,4.9,9 c4,0,6.3,-1.1,7.6,-1.9 l1.5,9.7 c-2.3,1.6,-5.8,2.8,-10.7,2.8 c-10.5,0,-17.3,-6.8,-15.5,-20.4 l0.7,-5 l-8.5,0 Z M262.55,50.25 c10.5,0,16.1,8.8,14,23.4 l-2.9,20.9 l-12.2,0 l3.2,-22.5 c0.7,-5.6,-1.5,-10.0,-6.6,-10.0 c-1.8,0,-3.8,0.4,-5.1,1.1 l5.5,-11.9 c0.7,-0.4,2.7,-1,4.1,-1 Z M324.15,71.55 l-0.9,11 c-4,0.8,-7.9,3.9,-8.6,9.4 l-5,35.1 l-12.3,0 l5.1,-35.9 c1.9,-14,11.3,-19.5,21.7,-19.6 Z M344.05,71.25 l10.4,4.4 c-1.6,2.4,-2.8,6.4,-3.5,11.3 l-5.7,40.1 l-12.4,0 l6.8,-48.3 c0.8,-3.7,3.2,-6.3,4.4,-7.5 Z M359.05,116.65 l34.7,0 l-1.5,10.4 l-13.8,0 l-2.3,16.5 l-12.3,-0.7 l2.2,-15.8 l-8.5,0 Z M390.75,71.55 c6,0,10.2,2.2,12.3,4.7 l-4,9.1 c-1.5,-1.7,-3.7,-2.5,-6.8,-2.5 c-4.3,0,-8,3.2,-8.8,8.6 l-0.4,3.1 l-12.4,0 l0.5,-3.9 c2,-13.6,8.9,-19.1,19.6,-19.1 Z M432.85,71.55 l-0.9,11 c-4,0.8,-7.9,3.9,-8.6,9.4 l-5,35.1 l-12.3,0 l5.1,-35.9 c1.9,-14,11.3,-19.5,21.7,-19.6 Z M452.75,71.25 l10.4,4.4 c-1.6,2.4,-2.8,6.4,-3.5,11.3 l-5.7,40.1 l-12.4,0 l6.8,-48.3 c0.8,-3.7,3.2,-6.3,4.4,-7.5 Z M473.85,94.55 l12.3,0 l-2.1,14.3 c1.6,5.2,4.7,8.6,9.9,8.6 c3,0,5,-1.5,6.2,-2.9 l1.9,12.1 c-1.8,1.1,-4.1,1.7,-6.3,1.7 c-7.4,0,-11.2,-3.4,-13.1,-7.6 l-1.1,6.3 l-12.3,0 Z M538.55,128.15 l0.8,-10.3 c6.4,-1.3,11.4,-6.2,12.3,-13 l-10.2,0.4 l1.3,-9.4 l20.9,0.3 c0.3,1.4,0.4,4.6,0.1,7.3 c-1.7,12,-10.1,23.1,-25.2,24.7 Z M511.35,98.75 c2.3,-16.6,15,-27.2,32.5,-27.2 c10.4,0,18.5,2.6,22.5,6.1 l-3.8,9.4 c-3.6,-3.2,-10.5,-4.8,-18.1,-4.8 c-9.1,0,-18.1,5.1,-19.7,14 l-3.7,28.3 c-7.8,-5,-11.3,-14.7,-9.7,-25.8 Z M511.35,98.75" fill="rgb(0,0,0)" transform="matrix(1,0,0,-1,0,200)"/>
</svg>