<?xml version="1.0" encoding="UTF-8"?>
<svg height="200" version="1.1" width="800" xmlns="http://www.w3.org/2000/svg" xmlns:xlink="http://www.w3.org/1999/xlink">
 <path d="M0,0 l800,0 l0,200 l-800,0 Z M0,0" fill="rgb(255,255,255)" transform="matrix(1,0,0,-1,0,200)"/>
 <path d="M345.75,98.33 l6.2,0 l-5.5,39.35 l-6.15,-0.35 Z M357.5,130.72 c2.45,0,3.6,1.95,3.3,3.85 c-0.2,1.65,-1.65,3.2,-3.65,3.2 c-2.4,0,-3.7,-1.95,-3.45,-3.9 c0.25,-1.6,1.6,-3.15,3.8,-3.15 Z M359.15,98.33 l6.2,0 l-3.8,27.2 l-6.15,-0.4 Z M372.65,98.33 l6.2,0 l-1.35,9.5 l2.65,3.3 l1.65,-2 l7.35,0 l-5.2,6.45 l8.05,9.8 l-7.3,0 l-8.2,-9.85 l-3.25,22.8 l-6.05,-1 Z M409.15,125.93 l0.4,-5.15 c3.2,-0.65,5.7,-3.1,6.15,-6.5 l-5.1,0.2 l0.65,-4.7 l10.45,0.15 c0.15,0.7,0.2,2.3,0.05,3.65 c-0.85,6,-5.05,11.55,-12.6,12.35 Z M395.55,111.23 c1.15,-8.3,7.5,-13.6,16.25,-13.6 c5.2,0,9.25,1.3,11.25,3.05 l-1.9,4.7 c-1.8,-1.6,-5.25,-2.4,-9.05,-2.4 c-4.55,0,-9.05,2.55,-9.85,7 l-1.85,14.15 c-3.9,-2.5,-5.65,-7.35,-4.85,-12.9 Z M429.35,98.33 l6.2,0 l-5.5,39.35 l-6.15,-0.35 Z M446.65,109.12 l1.9,7.4 l-5.45,8.85 l-6.8,0 Z M445,86.97 c6.4,0,10.55,4.4,12.7,13.15 l6.3,25.25 l-6.5,0 l-5.8,-24.05 c-1.6,-6.3,-5,-9.2,-8.65,-9.2 c-1.25,0,-2.05,0.3,-2.55,0.55 l2.35,-5.25 c0.35,-0.2,1.35,-0.45,2.15,-0.45 Z M445,86.97" fill="rgb(0,0,0)" transform="matrix(1,0,0,-1,0,200)"/>
</svg>