<?xml version="1.0" encoding="UTF-8"?>
<svg height="200" version="1.1" width="800" xmlns="http://www.w3.org/2000/svg" xmlns:xlink="http://www.w3.org/1999/xlink">
 <path d="M0,0 l800,0 l0,200 l-800,0 Z M0,0" fill="rgb(255,255,255)" transform="matrix(1,0,0,-1,0,200)"/>
 <path d="M231.05,139.35 l34.7,0 l-1.5,10.4 l-13.8,0 l-2.3,16.5 l-12.3,-0.7 l2.2,-15.8 l-8.5,0 Z M262.75,94.25 c6,0,10.2,2.2,12.3,4.7 l-4,9.1 c-1.5,-1.7,-3.7,-2.5,-6.8,-2.5 c-4.3,0,-8,3.2,-8.8,8.6 l-0.4,3.1 l-12.4,0 l0.5,-3.9 c2,-13.6,8.9,-19.1,19.6,-19.1 Z M286.85,117.25 l3.8,17.7 l-6.1,14.8 l-12.6,0 Z M297.15,95.65 l10.4,0 l7.3,36.9 l17.1,-36.9 l11.9,0 l-25.1,54.1 l-11.7,0 Z M347.65,117.35 l5.9,32.4 l-12.3,0 l-1.9,-13.6 Z M389.15,150.85 l0.8,-10.3 c6.4,-1.3,11.4,-6.2,12.3,-13 l-10.2,0.4 l1.3,-9.4 l20.9,0.3 c0.3,1.4,0.4,4.6,0.1,7.3 c-1.7,12,-10.1,23.1,-25.2,24.7 Z M361.95,121.45 c2.3,-16.6,15,-27.2,32.5,-27.2 c10.4,0,18.5,2.6,22.5,6.1 l-3.8,9.4 c-3.6,-3.2,-10.5,-4.8,-18.1,-4.8 c-9.1,0,-18.1,5.1,-19.7,14 l-3.7,28.3 c-7.8,-5,-11.3,-14.7,-9.7,-25.8 Z M425.55,117.25 l12.4,0 l-2,12.9 c2.6,5.3,6.9,9,12.8,9 c5.4,0,10.4,-4.2,11.3,-10.3 l4.6,-33.2 l12.3,0 l-4.7,34 c-2.1,14.8,-9,21.4,-21.3,21.4 c-8.5,0,-14.1,-5.3,-16.3,-9 l-1.3,7.7 l-12.4,0 Z M481.85,139.35 l34.7,0 l-1.5,10.4 l-13.8,0 l-2.3,16.5 l-12.3,-0.7 l2.2,-15.8 l-8.5,0 Z M513.55,94.25 c6,0,10.2,2.2,12.3,4.7 l-4,9.1 c-1.5,-1.7,-3.7,-2.5,-6.8,-2.5 c-4.3,0,-8.0,3.2,-8.8,8.6 l-0.4,3.1 l-12.4,0 l0.5,-3.9 c2,-13.6,8.9,-19.1,19.6,-19.1 Z M544.65,117.25 l3.8,14.8 l-10.9,17.7 l-13.6,0 Z M541.35,72.95 c12.8,0,21.1,8.8,25.4,26.3 l12.6,50.5 l-13,0 l-11.6,-48.1 c-3.2,-12.6,-10,-18.4,-17.3,-18.4 c-2.5,0,-4.1,0.6,-5.1,1.1 l4.7,-10.5 c0.7,-0.4,2.7,-0.9,4.3,-0.9 Z M541.35,72.95" fill="rgb(0,0,0)" transform="matrix(1,0,0,-1,0,200)"/>
</svg>