<?xml version="1.0" encoding="UTF-8"?>
<svg height="200" version="1.1" width="800" xmlns="http://www.w3.org/2000/svg" xmlns:xlink="http://www.w3.org/1999/xlink">
 <path d="M0,0 l800,0 l0,200 l-800,0 Z M0,0" fill="rgb(255,255,255)" transform="matrix(1,0,0,-1,0,200)"/>
 <path d="M266.1,117.25 l3.8,17.7 l-6.1,14.8 l-12.6,0 Z M276.4,95.65 l10.4,0 l7.3,36.9 l17.1,-36.9 l11.9,0 l-25.1,54.1 l-11.7,0 Z M326.9,117.35 l5.9,32.4 l-12.3,0 l-1.9,-13.6 Z M345.6,160.45 c4.9,0,7.2,3.9,6.6,7.7 c-0.4,3.3,-3.3,6.4,-7.3,6.4 c-4.8,0,-7.4,-3.9,-6.9,-7.8 c0.5,-3.2,3.2,-6.3,7.6,-6.3 Z M348.9,95.65 l12.4,0 l-7.6,54.4 l-12.3,-0.8 Z M366.8,139.35 l34.7,0 l-1.5,10.4 l-13.8,0 l-2.3,16.5 l-12.3,-0.7 l2.2,-15.8 l-8.5,0 Z M398.5,94.25 c6,0,10.2,2.2,12.3,4.7 l-4,9.1 c-1.5,-1.7,-3.7,-2.5,-6.8,-2.5 c-4.3,0,-8,3.2,-8.8,8.6 l-0.4,3.1 l-12.4,0 l0.5,-3.9 c2,-13.6,8.9,-19.1,19.6,-19.1 Z M421.4,95.65 l12.4,0 l-5,34.5 c2.1,5.3,6.7,9,12.7,9 c6.4,0,10.4,-4.7,11.1,-10.1 l1.7,-11.8 l12.2,0 l-1.8,12.6 c-1.8,13.4,-9.1,21.2,-20.8,21.2 c-8.7,0,-14.2,-5.1,-16.4,-8.9 l-4.7,32.2 l-12.3,-0.7 Z M478.6,160.45 c4.9,0,7.2,3.9,6.6,7.7 c-0.4,3.3,-3.3,6.4,-7.3,6.4 c-4.8,0,-7.4,-3.9,-6.9,-7.8 c0.5,-3.2,3.2,-6.3,7.6,-6.3 Z M481.9,95.65 l12.4,0 l-7.6,54.4 l-12.3,-0.8 Z M504.9,117.25 l12.4,0 l-2,12.9 c2.6,5.3,6.9,9,12.8,9 c5.4,0,10.4,-4.2,11.3,-10.3 l4.6,-33.2 l12.3,0 l-4.7,34 c-2.1,14.8,-9,21.4,-21.3,21.4 c-8.5,0,-14.1,-5.3,-16.3,-9 l-1.3,7.7 l-12.4,0 Z M504.9,117.25" fill="rgb(0,0,0)" transform="matrix(1,0,0,-1,0,200)"/>
</svg>