<?xml version="1.0" encoding="UTF-8"?>
<svg height="200" version="1.1" width="800" xmlns="http://www.w3.org/2000/svg" xmlns:xlink="http://www.w3.org/1999/xlink">
 <path d="M0,0 l800,0 l0,200 l-800,0 Z M0,0" fill="rgb(255,255,255)" transform="matrix(1,0,0,-1,0,200)"/>
 <path d="M292.12,87.53 l6.2,0 l-4.05,28.35 c0.6,2.1,2.8,5,6.5,5 c5,0,8.55,-3.65,9.35,-9.1 c0.5,-3.9,-0.85,-8.45,-5.7,-8.95 l0.4,-5.2 c7.85,0.15,12.55,6.35,11.3,14.95 c-1.05,7.45,-6.25,13.45,-14.2,13.45 c-4.2,0,-7.05,-2.4,-8.35,-4.65 l-0.65,4 l-6.15,0 Z M322.12,109.12 l6.15,0 l-1.05,7.15 c0.8,2.6,2.35,4.3,4.95,4.3 c1.5,0,2.5,-0.75,3.1,-1.45 l0.95,6.05 c-0.9,0.55,-2.05,0.85,-3.15,0.85 c-3.7,0,-5.6,-1.7,-6.55,-3.8 l-0.55,3.15 l-6.15,0 Z M361.52,98.12 c6.6,1.55,10.05,7.35,9.1,14.15 c-0.85,6.2,-5.75,11.65,-12.65,13.35 l0.5,-5.9 c3.2,-1.5,5.55,-4.7,6.05,-8.25 c0.5,-3.4,-0.65,-6.35,-3.5,-7.7 Z M353.43,98.03 l-0.5,5.9 c-3.2,1.4,-5.5,4.5,-6.05,8.25 c-0.45,3.25,0.75,6.2,3.5,7.7 l-0.5,5.6 c-6.35,-1.7,-9.95,-7.5,-9.05,-14 c0.95,-6.55,5.6,-11.9,12.6,-13.45 Z M391.77,97.78 c7.15,0.9,11.5,6.5,10.2,15.45 c-1.05,7.85,-6.85,12.8,-13.35,12.8 c-4.65,0,-7.35,-2.85,-8.05,-4.35 l-2.35,16 l-6.1,-0.35 l4.05,-28.95 c0.55,-3.9,3.25,-7.65,7.35,-9.55 l-2.35,17.35 c0.6,2.25,2.85,4.75,5.85,4.75 c4.85,0,8.25,-4.1,8.85,-8.4 c0.65,-4.65,-1,-8.25,-4.55,-9.3 Z M409.57,98.33 l6.2,0 l-5.5,39.35 l-6.15,-0.35 Z M433.07,125.93 l0.4,-5.15 c3.2,-0.65,5.7,-3.1,6.15,-6.5 l-5.1,0.2 l0.65,-4.7 l10.45,0.15 c0.15,0.7,0.2,2.3,0.05,3.65 c-0.85,6,-5.05,11.55,-12.6,12.35 Z M419.47,111.23 c1.15,-8.3,7.5,-13.6,16.25,-13.6 c5.2,0,9.25,1.3,11.25,3.05 l-1.9,4.7 c-1.8,-1.6,-5.25,-2.4,-9.05,-2.4 c-4.55,0,-9.05,2.55,-9.85,7 l-1.85,14.15 c-3.9,-2.5,-5.65,-7.35,-4.85,-12.9 Z M469.57,98.33 l6.2,0 l-2.7,18.6 c0.95,1.95,2.9,3.5,5.3,3.5 c2.7,0,5.0,-2.2,5.45,-5.35 l0.85,-5.95 l6.1,0 l-0.9,6.35 c-0.95,6.8,-4.4,10.55,-10.25,10.55 c-4.3,0,-6.85,-2.2,-8.3,-4 c-1.35,2.1,-3.65,4,-7.5,4 c-3.7,0,-6.75,-2.25,-8.05,-4.1 l-0.6,3.45 l-6.2,0 l2.3,-16.25 l6.2,0 l-1.15,7.5 c1.1,2.05,3.5,3.65,5.8,3.65 c2.65,0,4.65,-2.05,5.1,-5.05 Z M502.12,110.58 l-0.9,7.5 c-0.25,1.8,2.1,2.95,5.3,2.95 c3.95,0,7.55,-1.95,8.35,-3 l1,4.95 c-0.65,0.65,-4.1,3.05,-9.4,3.05 c-6.75,0,-12.1,-3.4,-11.35,-8.8 c0.55,-3.8,3.4,-5.6,7,-6.65 Z M514.77,98.53 c3.8,1.3,5.65,4.2,5,8.65 c-0.6,4.35,-3.85,5.95,-9.8,7.25 l0.5,-5.75 c1.9,-0.6,3.25,-1.55,3.4,-2.75 Z M506.77,97.67 l-0.4,5.25 c-4.05,0.4,-7.65,2.3,-8.85,3.55 l-0.15,-5.95 c1.25,-0.85,4.3,-2.55,9.4,-2.85 Z M506.77,97.67" fill="rgb(0,0,0)" transform="matrix(1,0,0,-1,0,200)"/>
</svg>