<?xml version="1.0" encoding="UTF-8"?>
<svg height="200" version="1.1" width="800" xmlns="http://www.w3.org/2000/svg" xmlns:xlink="http://www.w3.org/1999/xlink">
 <path d="M0,0 l800,0 l0,200 l-800,0 Z M0,0" fill="rgb(255,255,255)" transform="matrix(1,0,0,-1,0,200)"/>
 <path d="M318.88,87.53 l6.2,0 l-4.05,28.35 c0.6,2.1,2.8,5,6.5,5 c5,0,8.55,-3.65,9.35,-9.1 c0.5,-3.9,-0.85,-8.45,-5.7,-8.95 l0.4,-5.2 c7.85,0.15,12.55,6.35,11.3,14.95 c-1.05,7.45,-6.25,13.45,-14.2,13.45 c-4.2,0,-7.05,-2.4,-8.35,-4.65 l-0.65,4 l-6.15,0 Z M348.88,109.12 l6.15,0 l-1.05,7.15 c0.8,2.6,2.35,4.3,4.95,4.3 c1.5,0,2.5,-0.75,3.1,-1.45 l0.95,6.05 c-0.9,0.55,-2.05,0.85,-3.15,0.85 c-3.7,0,-5.6,-1.7,-6.55,-3.8 l-0.55,3.15 l-6.15,0 Z M388.27,98.12 c6.6,1.55,10.05,7.35,9.1,14.15 c-0.85,6.2,-5.75,11.65,-12.65,13.35 l0.5,-5.9 c3.2,-1.5,5.55,-4.7,6.05,-8.25 c0.5,-3.4,-0.65,-6.35,-3.5,-7.7 Z M380.18,98.03 l-0.5,5.9 c-3.2,1.4,-5.5,4.5,-6.05,8.25 c-0.45,3.25,0.75,6.2,3.5,7.7 l-0.5,5.6 c-6.35,-1.7,-9.95,-7.5,-9.05,-14 c0.95,-6.55,5.6,-11.9,12.6,-13.45 Z M403.27,130.72 c2.45,0,3.6,1.95,3.3,3.85 c-0.2,1.65,-1.65,3.2,-3.65,3.2 c-2.4,0,-3.65,-1.95,-3.4,-3.9 c0.25,-1.6,1.55,-3.15,3.75,-3.15 Z M403.38,109.12 l6.2,0 l-2.3,16.4 l-6.15,-0.4 Z M403.92,86.97 c5.1,0,8.2,4.2,7.15,11.55 l-6.15,-0.4 c0.4,-3,-0.65,-5.25,-3.3,-5.25 c-0.8,0,-1.8,0.2,-2.45,0.5 l2.7,-5.9 c0.25,-0.25,1.25,-0.5,2.05,-0.5 Z M428.73,125.93 l0.4,-5.15 c3.2,-0.65,5.7,-3.1,6.15,-6.5 l-5.1,0.2 l0.65,-4.7 l10.45,0.15 c0.15,0.7,0.2,2.3,0.05,3.65 c-0.85,6,-5.05,11.55,-12.6,12.35 Z M415.12,111.23 c1.15,-8.3,7.5,-13.6,16.25,-13.6 c5.2,0,9.25,1.3,11.25,3.05 l-1.9,4.7 c-1.8,-1.6,-5.25,-2.4,-9.05,-2.4 c-4.55,0,-9.05,2.55,-9.85,7 l-1.85,14.15 c-3.9,-2.5,-5.65,-7.35,-4.85,-12.9 Z M459.32,120.62 c3.05,0,5.75,-1,7.25,-2.25 l1.25,5.55 c-2.4,1.35,-5.6,2.1,-8.95,2.1 Z M445.57,111.48 c1.05,-7.4,7.45,-13.85,16.8,-13.85 c4.5,0,7.3,1.25,9.25,2.75 l-2.2,5.1 c-1.05,-1.55,-3.7,-2.5,-7.15,-2.5 c-5.95,0,-9.95,4.4,-10.6,9.05 l-1.45,11.35 c-3.6,-2.6,-5.3,-7.05,-4.65,-11.9 Z M472.97,120.18 l17.35,0 l-0.75,5.2 l-6.9,0 l-1.15,8.25 l-6.15,-0.35 l1.1,-7.9 l-4.25,0 Z M488.82,97.62 c3,0,5.1,1.1,6.15,2.35 l-2,4.55 c-0.75,-0.85,-1.85,-1.25,-3.4,-1.25 c-2.15,0,-4,1.6,-4.4,4.3 l-0.2,1.55 l-6.2,0 l0.25,-1.95 c1,-6.8,4.45,-9.55,9.8,-9.55 Z M488.82,97.62" fill="rgb(0,0,0)" transform="matrix(1,0,0,-1,0,200)"/>
</svg>