<?xml version="1.0" encoding="UTF-8"?>
<svg height="200" version="1.1" width="800" xmlns="http://www.w3.org/2000/svg" xmlns:xlink="http://www.w3.org/1999/xlink">
 <path d="M0,0 l800,0 l0,200 l-800,0 Z M0,0" fill="rgb(255,255,255)" transform="matrix(1,0,0,-1,0,200)"/>
 <path d="M281.8,94.55 l12.3,0 l-2.1,14.3 c1.6,5.2,4.7,8.6,9.9,8.6 c3,0,5,-1.5,6.2,-2.9 l1.9,12.1 c-1.8,1.1,-4.1,1.7,-6.3,1.7 c-7.4,0,-11.2,-3.4,-13.1,-7.6 l-1.1,6.3 l-12.3,0 Z M346.5,128.15 l0.8,-10.3 c6.4,-1.3,11.4,-6.2,12.3,-13 l-10.2,0.4 l1.3,-9.4 l20.9,0.3 c0.3,1.4,0.4,4.6,0.1,7.3 c-1.7,12,-10.1,23.1,-25.2,24.7 Z M319.3,98.75 c2.3,-16.6,15,-27.2,32.5,-27.2 c10.4,0,18.5,2.6,22.5,6.1 l-3.8,9.4 c-3.6,-3.2,-10.5,-4.8,-18.1,-4.8 c-9.1,0,-18.1,5.1,-19.7,14 l-3.7,28.3 c-7.8,-5,-11.3,-14.7,-9.7,-25.8 Z M386.9,72.95 l12.4,0 l-11,78.7 l-12.3,-0.7 Z M410.4,137.75 c4.9,0,7.2,3.9,6.6,7.7 c-0.4,3.3,-3.3,6.4,-7.3,6.4 c-4.8,0,-7.4,-3.9,-6.9,-7.8 c0.5,-3.2,3.2,-6.3,7.6,-6.3 Z M413.7,72.95 l12.4,0 l-7.6,54.4 l-12.3,-0.8 Z M461.3,128.15 l0.8,-10.3 c6.4,-1.3,11.4,-6.2,12.3,-13 l-10.2,0.4 l1.3,-9.4 l20.9,0.3 c0.3,1.4,0.4,4.6,0.1,7.3 c-1.7,12,-10.1,23.1,-25.2,24.7 Z M434.1,98.75 c2.3,-16.6,15,-27.2,32.5,-27.2 c10.4,0,18.5,2.6,22.5,6.1 l-3.8,9.4 c-3.6,-3.2,-10.5,-4.8,-18.1,-4.8 c-9.1,0,-18.1,5.1,-19.7,14 l-3.7,28.3 c-7.8,-5,-11.3,-14.7,-9.7,-25.8 Z M495.3,116.75 l35.2,0 l-1.5,10.3 l-14.4,0 l-0.8,5.8 c-0.9,6.6,1.4,9,4.9,9 c4,0,6.3,-1.1,7.6,-1.9 l1.5,9.7 c-2.3,1.6,-5.8,2.8,-10.7,2.8 c-10.5,0,-17.3,-6.8,-15.5,-20.4 l0.7,-5 l-8.5,0 Z M508,50.25 c10.5,0,16.1,8.8,14,23.4 l-2.9,20.9 l-12.2,0 l3.2,-22.5 c0.7,-5.6,-1.5,-10.0,-6.6,-10.0 c-1.8,0,-3.8,0.4,-5.1,1.1 l5.5,-11.9 c0.7,-0.4,2.7,-1,4.1,-1 Z M508,50.25" fill="rgb(0,0,0)" transform="matrix(1,0,0,-1,0,200)"/>
</svg>