<?xml version="1.0" encoding="UTF-8"?>
<svg height="200" version="1.1" width="800" xmlns="http://www.w3.org/2000/svg" xmlns:xlink="http://www.w3.org/1999/xlink">
 <path d="M0,0 l800,0 l0,200 l-800,0 Z M0,0" fill="rgb(255,255,255)" transform="matrix(1,0,0,-1,0,200)"/>
 <path d="M330.65,110.58 l-0.9,7.5 c-0.25,1.8,2.1,2.95,5.3,2.95 c3.95,0,7.55,-1.95,8.35,-3 l1,4.95 c-0.65,0.65,-4.1,3.05,-9.4,3.05 c-6.75,0,-12.1,-3.4,-11.35,-8.8 c0.55,-3.8,3.4,-5.6,7,-6.65 Z M343.3,98.53 c3.8,1.3,5.65,4.2,5,8.65 c-0.6,4.35,-3.85,5.95,-9.8,7.25 l0.5,-5.75 c1.9,-0.6,3.25,-1.55,3.4,-2.75 Z M335.3,97.67 l-0.4,5.25 c-4.05,0.4,-7.65,2.3,-8.85,3.55 l-0.15,-5.95 c1.25,-0.85,4.3,-2.55,9.4,-2.85 Z M354.1,130.72 c2.45,0,3.6,1.95,3.3,3.85 c-0.2,1.65,-1.65,3.2,-3.65,3.2 c-2.4,0,-3.7,-1.95,-3.45,-3.9 c0.25,-1.6,1.6,-3.15,3.8,-3.15 Z M355.75,98.33 l6.2,0 l-3.8,27.2 l-6.15,-0.4 Z M385.55,98.33 l6.2,0 l-2.7,18.6 c0.95,1.95,2.9,3.5,5.3,3.5 c2.7,0,5.0,-2.2,5.45,-5.35 l0.85,-5.95 l6.1,0 l-0.9,6.35 c-0.95,6.8,-4.4,10.55,-10.25,10.55 c-4.3,0,-6.85,-2.2,-8.3,-4 c-1.35,2.1,-3.65,4,-7.5,4 c-3.7,0,-6.75,-2.25,-8.05,-4.1 l-0.6,3.45 l-6.2,0 l2.3,-16.25 l6.2,0 l-1.15,7.5 c1.1,2.05,3.5,3.65,5.8,3.65 c2.65,0,4.65,-2.05,5.1,-5.05 Z M416.3,87.53 l6.2,0 l-4.05,28.35 c0.6,2.1,2.8,5,6.5,5 c5,0,8.55,-3.65,9.35,-9.1 c0.5,-3.9,-0.85,-8.45,-5.7,-8.95 l0.4,-5.2 c7.85,0.15,12.55,6.35,11.3,14.95 c-1.05,7.45,-6.25,13.45,-14.2,13.45 c-4.2,0,-7.05,-2.4,-8.35,-4.65 l-0.65,4 l-6.15,0 Z M447.8,98.33 l6.2,0 l-5.5,39.35 l-6.15,-0.35 Z M465.1,109.12 l1.9,7.4 l-5.45,8.85 l-6.8,0 Z M463.45,86.97 c6.4,0,10.55,4.4,12.7,13.15 l6.3,25.25 l-6.5,0 l-5.8,-24.05 c-1.6,-6.3,-5,-9.2,-8.65,-9.2 c-1.25,0,-2.05,0.3,-2.55,0.55 l2.35,-5.25 c0.35,-0.2,1.35,-0.45,2.15,-0.45 Z M463.45,86.97" fill="rgb(0,0,0)" transform="matrix(1,0,0,-1,0,200)"/>
</svg>