<?xml version="1.0" encoding="UTF-8"?>
<svg height="200" version="1.1" width="800" xmlns="http://www.w3.org/2000/svg" xmlns:xlink="http://www.w3.org/1999/xlink">
 <path d="M0,0 l800,0 l0,200 l-800,0 Z M0,0" fill="rgb(255,255,255)" transform="matrix(1,0,0,-1,0,200)"/>
 <path d="M347.62,98.98 l-0.72,6 c-0.2,1.44,1.68,2.36,4.24,2.36 c3.16,0,6.04,-1.56,6.68,-2.4 l0.8,3.96 c-0.52,0.52,-3.28,2.44,-7.52,2.44 c-5.4,0,-9.68,-2.72,-9.08,-7.04 c0.44,-3.04,2.72,-4.48,5.6,-5.32 Z M357.74,89.34 c3.04,1.04,4.52,3.36,4,6.92 c-0.48,3.48,-3.08,4.76,-7.84,5.8 l0.4,-4.6 c1.52,-0.48,2.6,-1.24,2.72,-2.2 Z M351.34,88.66 l-0.32,4.2 c-3.24,0.32,-6.12,1.84,-7.08,2.84 l-0.12,-4.76 c1,-0.68,3.44,-2.04,7.52,-2.28 Z M368.78,80.54 l4.96,0 l-3.24,22.68 c0.48,1.68,2.24,4.0,5.2,4.0 c4,0,6.84,-2.92,7.48,-7.28 c0.4,-3.12,-0.68,-6.76,-4.56,-7.16 l0.32,-4.16 c6.28,0.12,10.04,5.08,9.04,11.96 c-0.84,5.96,-5,10.76,-11.36,10.76 c-3.36,0,-5.64,-1.92,-6.68,-3.72 l-0.52,3.2 l-4.92,0 Z M403.34,88.7 l-0.32,4.04 c-3.44,0.44,-6.36,3.72,-6.92,7.6 c-0.6,4.2,1.76,7.04,5.36,7.04 c3.08,0,5.32,-1.88,6.32,-3.6 l1.72,-12.16 c0.8,-2.2,3.16,-2.92,4.6,-2.92 c2.24,0,3.6,0.96,4.08,2.04 l-1.52,2.44 c-0.12,-0.24,-0.44,-0.32,-0.8,-0.32 c-1.16,0,-1.72,1.12,-2,2.92 l-2.16,15.04 l-4.8,0 l0.36,-2.6 c-0.84,1.2,-3.24,3.12,-6.52,3.12 c-6.2,0,-10.36,-4.92,-9.44,-11.48 c0.84,-6.08,6.04,-11,12.04,-11.16 Z M430.38,107.02 c2.44,0,4.6,-0.8,5.8,-1.8 l1,4.44 c-1.92,1.08,-4.48,1.68,-7.16,1.68 Z M419.38,99.7 c0.84,-5.92,5.96,-11.08,13.44,-11.08 c3.6,0,5.84,1,7.4,2.2 l-1.76,4.08 c-0.84,-1.24,-2.96,-2,-5.72,-2 c-4.76,0,-7.96,3.52,-8.48,7.24 l-1.16,9.08 c-2.88,-2.08,-4.24,-5.64,-3.72,-9.52 Z M452.98,111.26 l0.32,-4.12 c2.56,-0.52,4.56,-2.48,4.92,-5.2 l-4.08,0.16 l0.52,-3.76 l8.36,0.12 c0.12,0.56,0.16,1.84,0.04,2.92 c-0.68,4.8,-4.04,9.24,-10.08,9.88 Z M442.1,99.5 c0.92,-6.64,6,-10.88,13,-10.88 c4.16,0,7.4,1.04,9,2.44 l-1.52,3.76 c-1.44,-1.28,-4.2,-1.92,-7.24,-1.92 c-3.64,0,-7.24,2.04,-7.88,5.6 l-1.48,11.32 c-3.12,-2,-4.52,-5.88,-3.88,-10.32 Z M442.1,99.5" fill="rgb(0,0,0)" transform="matrix(1,0,0,-1,0,200)"/>
</svg>