<?xml version="1.0" encoding="UTF-8"?>
<svg height="200" version="1.1" width="800" xmlns="http://www.w3.org/2000/svg" xmlns:xlink="http://www.w3.org/1999/xlink">
 <path d="M0,0 l800,0 l0,200 l-800,0 Z M0,0" fill="rgb(255,255,255)" transform="matrix(1,0,0,-1,0,200)"/>
 <path d="M308.2,71.85 c14.3,1.8,23,13,20.4,30.9 c-2.1,15.7,-13.7,25.6,-26.7,25.6 c-9.3,0,-14.7,-5.7,-16.1,-8.7 l-4.7,32.0 l-12.2,-0.7 l8.1,-57.9 c1.1,-7.8,6.5,-15.3,14.7,-19.1 l-4.7,34.7 c1.2,4.5,5.7,9.5,11.7,9.5 c9.7,0,16.5,-8.2,17.7,-16.8 c1.3,-9.3,-2,-16.5,-9.1,-18.6 Z M367.2,71.75 l-0.8,10.1 c-8.6,1.1,-15.9,9.3,-17.3,19 c-1.5,10.5,4.4,17.6,13.4,17.6 c7.7,0,13.3,-4.7,15.8,-9 l4.3,-30.4 c2,-5.5,7.9,-7.3,11.5,-7.3 c5.6,0,9,2.4,10.2,5.1 l-3.8,6.1 c-0.3,-0.6,-1.1,-0.8,-2,-0.8 c-2.9,0,-4.3,2.8,-5,7.3 l-5.4,37.6 l-12,0 l0.9,-6.5 c-2.1,3,-8.1,7.8,-16.3,7.8 c-15.5,0,-25.9,-12.3,-23.6,-28.7 c2.1,-15.2,15.1,-27.5,30.1,-27.9 Z M420.7,97.45 l-1.8,15 c-0.5,3.6,4.2,5.9,10.6,5.9 c7.9,0,15.1,-3.9,16.7,-6 l2,9.9 c-1.3,1.3,-8.2,6.1,-18.8,6.1 c-13.5,0,-24.2,-6.8,-22.7,-17.6 c1.1,-7.6,6.8,-11.2,14,-13.3 Z M446,73.35 c7.6,2.6,11.3,8.4,10,17.3 c-1.2,8.7,-7.7,11.9,-19.6,14.5 l1,-11.5 c3.8,-1.2,6.5,-3.1,6.8,-5.5 Z M430,71.65 l-0.8,10.5 c-8.1,0.8,-15.3,4.6,-17.7,7.1 l-0.3,-11.9 c2.5,-1.7,8.6,-5.1,18.8,-5.7 Z M467.6,137.75 c4.9,0,7.2,3.9,6.6,7.7 c-0.4,3.3,-3.3,6.4,-7.3,6.4 c-4.8,0,-7.4,-3.9,-6.9,-7.8 c0.5,-3.2,3.2,-6.3,7.6,-6.3 Z M470.9,72.95 l12.4,0 l-7.6,54.4 l-12.3,-0.8 Z M504.6,97.45 l-1.8,15 c-0.5,3.6,4.2,5.9,10.6,5.9 c7.9,0,15.1,-3.9,16.7,-6 l2,9.9 c-1.3,1.3,-8.2,6.1,-18.8,6.1 c-13.5,0,-24.2,-6.8,-22.7,-17.6 c1.1,-7.6,6.8,-11.2,14,-13.3 Z M529.9,73.35 c7.6,2.6,11.3,8.4,10,17.3 c-1.2,8.7,-7.7,11.9,-19.6,14.5 l1,-11.5 c3.8,-1.2,6.5,-3.1,6.8,-5.5 Z M513.9,71.65 l-0.8,10.5 c-8.1,0.8,-15.3,4.6,-17.7,7.1 l-0.3,-11.9 c2.5,-1.7,8.6,-5.1,18.8,-5.7 Z M513.9,71.65" fill="rgb(0,0,0)" transform="matrix(1,0,0,-1,0,200)"/>
</svg>