<?xml version="1.0" encoding="UTF-8"?>
<svg height="200" version="1.1" width="800" xmlns="http://www.w3.org/2000/svg" xmlns:xlink="http://www.w3.org/1999/xlink">
 <path d="M0,0 l800,0 l0,200 l-800,0 Z M0,0" fill="rgb(255,255,255)" transform="matrix(1,0,0,-1,0,200)"/>
 <path d="M346.5,110.58 l-0.9,7.5 c-0.25,1.8,2.1,2.95,5.3,2.95 c3.95,0,7.55,-1.95,8.35,-3 l1,4.95 c-0.65,0.65,-4.1,3.05,-9.4,3.05 c-6.75,0,-12.1,-3.4,-11.35,-8.8 c0.55,-3.8,3.4,-5.6,7,-6.65 Z M359.15,98.53 c3.8,1.3,5.65,4.2,5,8.65 c-0.6,4.35,-3.85,5.95,-9.8,7.25 l0.5,-5.75 c1.9,-0.6,3.25,-1.55,3.4,-2.75 Z M351.15,97.67 l-0.4,5.25 c-4.05,0.4,-7.65,2.3,-8.85,3.55 l-0.15,-5.95 c1.25,-0.85,4.3,-2.55,9.4,-2.85 Z M366.85,120.18 l17.35,0 l-0.75,5.2 l-6.9,0 l-1.15,8.25 l-6.15,-0.35 l1.1,-7.9 l-4.25,0 Z M382.7,97.62 c3,0,5.1,1.1,6.15,2.35 l-2,4.55 c-0.75,-0.85,-1.85,-1.25,-3.4,-1.25 c-2.15,0,-4,1.6,-4.4,4.3 l-0.2,1.55 l-6.2,0 l0.25,-1.95 c1,-6.8,4.45,-9.55,9.8,-9.55 Z M403.75,97.62 l-0.45,5.5 c-2,0.4,-3.95,1.95,-4.3,4.7 l-2.5,17.55 l-6.15,0 l2.55,-17.95 c0.95,-7,5.65,-9.75,10.85,-9.8 Z M413.7,97.48 l5.2,2.2 c-0.8,1.2,-1.4,3.2,-1.75,5.65 l-2.85,20.05 l-6.2,0 l3.4,-24.15 c0.4,-1.85,1.6,-3.15,2.2,-3.75 Z M422.55,120.23 l17.6,0 l-0.75,5.15 l-7.2,0 l-0.4,2.9 c-0.45,3.3,0.7,4.5,2.45,4.5 c2,0,3.15,-0.55,3.8,-0.95 l0.75,4.85 c-1.15,0.8,-2.9,1.4,-5.35,1.4 c-5.25,0,-8.65,-3.4,-7.75,-10.2 l0.35,-2.5 l-4.25,0 Z M428.9,86.97 c5.25,0,8.05,4.4,7,11.7 l-1.45,10.45 l-6.1,0 l1.6,-11.25 c0.35,-2.8,-0.75,-5,-3.3,-5 c-0.9,0,-1.9,0.2,-2.55,0.55 l2.75,-5.95 c0.35,-0.2,1.35,-0.5,2.05,-0.5 Z M446.9,120.23 l17.6,0 l-0.75,5.15 l-7.2,0 l-0.4,2.9 c-0.45,3.3,0.7,4.5,2.45,4.5 c2,0,3.15,-0.55,3.8,-0.95 l0.75,4.85 c-1.15,0.8,-2.9,1.4,-5.35,1.4 c-5.25,0,-8.65,-3.4,-7.75,-10.2 l0.35,-2.5 l-4.25,0 Z M453.25,86.97 c5.25,0,8.05,4.4,7,11.7 l-1.45,10.45 l-6.1,0 l1.6,-11.25 c0.35,-2.8,-0.75,-5,-3.3,-5 c-0.9,0,-1.9,0.2,-2.55,0.55 l2.75,-5.95 c0.35,-0.2,1.35,-0.5,2.05,-0.5 Z M453.25,86.97" fill="rgb(0,0,0)" transform="matrix(1,0,0,-1,0,200)"/>
</svg>