<?xml version="1.0" encoding="UTF-8"?>
<svg height="200" version="1.1" width="800" xmlns="http://www.w3.org/2000/svg" xmlns:xlink="http://www.w3.org/1999/xlink">
 <path d="M0,0 l800,0 l0,200 l-800,0 Z M0,0" fill="rgb(255,255,255)" transform="matrix(1,0,0,-1,0,200)"/>
 <path d="M255.85,97.45 l-1.8,15 c-0.5,3.6,4.2,5.9,10.6,5.9 c7.9,0,15.1,-3.9,16.7,-6 l2,9.9 c-1.3,1.3,-8.2,6.1,-18.8,6.1 c-13.5,0,-24.2,-6.8,-22.7,-17.6 c1.1,-7.6,6.8,-11.2,14,-13.3 Z M281.15,73.35 c7.6,2.6,11.3,8.4,10,17.3 c-1.2,8.7,-7.7,11.9,-19.6,14.5 l1,-11.5 c3.8,-1.2,6.5,-3.1,6.8,-5.5 Z M265.15,71.65 l-0.8,10.5 c-8.1,0.8,-15.3,4.6,-17.7,7.1 l-0.3,-11.9 c2.5,-1.7,8.6,-5.1,18.8,-5.7 Z M324.85,71.55 l-0.9,11 c-4,0.8,-7.9,3.9,-8.6,9.4 l-5,35.1 l-12.3,0 l5.1,-35.9 c1.9,-14,11.3,-19.5,21.7,-19.6 Z M344.75,71.25 l10.4,4.4 c-1.6,2.4,-2.8,6.4,-3.5,11.3 l-5.7,40.1 l-12.4,0 l6.8,-48.3 c0.8,-3.7,3.2,-6.3,4.4,-7.5 Z M371.95,51.35 l12.4,0 l-8.1,56.7 c1.2,4.2,5.6,10,13,10 c10,0,17.1,-7.3,18.7,-18.2 c1,-7.8,-1.7,-16.9,-11.4,-17.9 l0.8,-10.4 c15.7,0.3,25.1,12.7,22.6,29.9 c-2.1,14.9,-12.5,26.9,-28.4,26.9 c-8.4,0,-14.1,-4.8,-16.7,-9.3 l-1.3,8 l-12.3,0 Z M438.05,51.35 l12.4,0 l-8.1,56.7 c1.2,4.2,5.6,10,13,10 c10,0,17.1,-7.3,18.7,-18.2 c1,-7.8,-1.7,-16.9,-11.4,-17.9 l0.8,-10.4 c15.7,0.3,25.1,12.7,22.6,29.9 c-2.1,14.9,-12.5,26.9,-28.4,26.9 c-8.4,0,-14.1,-4.8,-16.7,-9.3 l-1.3,8 l-12.3,0 Z M501.05,72.95 l12.4,0 l-11,78.7 l-12.3,-0.7 Z M535.65,94.55 l3.8,14.8 l-10.9,17.7 l-13.6,0 Z M532.35,50.25 c12.8,0,21.1,8.8,25.4,26.3 l12.6,50.5 l-13,0 l-11.6,-48.1 c-3.2,-12.6,-10,-18.4,-17.3,-18.4 c-2.5,0,-4.1,0.6,-5.1,1.1 l4.7,-10.5 c0.7,-0.4,2.7,-0.9,4.3,-0.9 Z M532.35,50.25" fill="rgb(0,0,0)" transform="matrix(1,0,0,-1,0,200)"/>
</svg>