<?xml version="1.0" encoding="UTF-8"?>
<svg height="200" version="1.1" width="800" xmlns="http://www.w3.org/2000/svg" xmlns:xlink="http://www.w3.org/1999/xlink">
 <path d="M0,0 l800,0 l0,200 l-800,0 Z M0,0" fill="rgb(255,255,255)" transform="matrix(1,0,0,-1,0,200)"/>
 <path d="M234.6,116.65 l34.7,0 l-1.5,10.4 l-13.8,0 l-2.3,16.5 l-12.3,-0.7 l2.2,-15.8 l-8.5,0 Z M266.3,71.55 c6,0,10.2,2.2,12.3,4.7 l-4,9.1 c-1.5,-1.7,-3.7,-2.5,-6.8,-2.5 c-4.3,0,-8,3.2,-8.8,8.6 l-0.4,3.1 l-12.4,0 l0.5,-3.9 c2,-13.6,8.9,-19.1,19.6,-19.1 Z M312.6,71.75 l-0.8,10.1 c-8.6,1.1,-15.9,9.3,-17.3,19 c-1.5,10.5,4.4,17.6,13.4,17.6 c7.7,0,13.3,-4.7,15.8,-9 l4.3,-30.4 c2,-5.5,7.9,-7.3,11.5,-7.3 c5.6,0,9,2.4,10.2,5.1 l-3.8,6.1 c-0.3,-0.6,-1.1,-0.8,-2,-0.8 c-2.9,0,-4.3,2.8,-5,7.3 l-5.4,37.6 l-12,0 l0.9,-6.5 c-2.1,3,-8.1,7.8,-16.3,7.8 c-15.5,0,-25.9,-12.3,-23.6,-28.7 c2.1,-15.2,15.1,-27.5,30.1,-27.9 Z M378.6,71.55 l-0.9,11 c-4,0.8,-7.9,3.9,-8.6,9.4 l-5,35.1 l-12.3,0 l5.1,-35.9 c1.9,-14,11.3,-19.5,21.7,-19.6 Z M398.5,71.25 l10.4,4.4 c-1.6,2.4,-2.8,6.4,-3.5,11.3 l-5.7,40.1 l-12.4,0 l6.8,-48.3 c0.8,-3.7,3.2,-6.3,4.4,-7.5 Z M449.2,91.55 c10.8,1.8,16.4,9.2,15.1,18.7 c-0.4,2.7,-1.7,5.6,-3.4,7.2 c1.1,1.4,3.3,2,6.2,2 l-0.6,8.9 c-5.6,0,-9,-2.4,-10.8,-4.8 c-3,2.3,-6.4,3.8,-11,4.5 l0.8,-10.2 c4,-1.4,7.1,-4.8,7.7,-9 c0.5,-3.5,-1,-6.1,-4.7,-7.5 Z M420.1,87.35 c1.1,-7.5,12,-12.9,25.2,-12.1 c7,0.4,11.7,-0.8,14.4,-2.5 l14.1,0.5 c-3.2,7.5,-11.2,12.1,-24.8,11.5 c-10.9,-0.4,-17.8,1.7,-18.4,5.9 c-0.1,1.3,0.4,2.7,0.9,3 c1.8,-1,4.1,-1.7,6.9,-2.2 l-0.8,10.1 c-4,1.5,-7.1,4.7,-7.7,8.7 c-0.5,3.6,1.3,6.3,4.8,7.7 l-0.8,9.8 c-9.8,-1.9,-16.7,-9.2,-15.3,-18.9 c0.8,-5.9,4.4,-9.5,6.7,-11.2 c-2.2,-0.9,-5.9,-4.9,-5.2,-10.3 Z M422.4,67.85 c1.5,-10.9,11.6,-17.8,28.9,-17.8 c11.9,0,20.4,4,23,11.0 l-23.6,-0.3 c-10.9,0,-16.1,3.8,-16.9,7 l-11.3,3.3 c-0.2,-0.9,-0.3,-2,-0.1,-3.2 Z M485.9,72.95 l12.4,0 l-5,34.5 c2.1,5.3,6.7,9,12.7,9 c6.4,0,10.4,-4.7,11.1,-10.1 l1.7,-11.8 l12.2,0 l-1.8,12.6 c-1.8,13.4,-9.1,21.2,-20.8,21.2 c-8.7,0,-14.2,-5.1,-16.4,-8.9 l-4.7,32.2 l-12.3,-0.7 Z M536.9,116.65 l34.7,0 l-1.5,10.4 l-13.8,0 l-2.3,16.5 l-12.3,-0.7 l2.2,-15.8 l-8.5,0 Z M568.6,71.55 c6,0,10.2,2.2,12.3,4.7 l-4,9.1 c-1.5,-1.7,-3.7,-2.5,-6.8,-2.5 c-4.3,0,-8,3.2,-8.8,8.6 l-0.4,3.1 l-12.4,0 l0.5,-3.9 c2,-13.6,8.9,-19.1,19.6,-19.1 Z M568.6,71.55" fill="rgb(0,0,0)" transform="matrix(1,0,0,-1,0,200)"/>
</svg>