<?xml version="1.0" encoding="UTF-8"?>
<svg height="200" version="1.1" width="500" xmlns="http://www.w3.org/2000/svg" xmlns:xlink="http://www.w3.org/1999/xlink">
 <path d="M0,0 l500,0 l0,200 l-500,0 Z M0,0" fill="rgb(255,255,255)" transform="matrix(1,0,0,-1,0,200)"/>
 <path d="M177.87,79.93 l-0.49,6.16 c-5.25,0.67,-9.7,5.67,-10.55,11.59 c-0.91,6.41,2.68,10.74,8.17,10.74 c4.7,0,8.11,-2.87,9.64,-5.49 l2.62,-18.54 c1.22,-3.36,4.82,-4.45,7.01,-4.45 c3.42,0,5.49,1.46,6.22,3.11 l-2.32,3.72 c-0.18,-0.37,-0.67,-0.49,-1.22,-0.49 c-1.77,0,-2.62,1.71,-3.05,4.45 l-3.29,22.94 l-7.32,0 l0.55,-3.96 c-1.28,1.83,-4.94,4.76,-9.94,4.76 c-9.45,0,-15.8,-7.5,-14.4,-17.51 c1.28,-9.27,9.21,-16.77,18.36,-17.02 Z M223.13,80.0 c8.72,1.1,14.03,7.93,12.44,18.85 c-1.28,9.58,-8.36,15.62,-16.29,15.62 c-5.67,0,-8.97,-3.48,-9.82,-5.31 l-2.87,19.52 l-7.44,-0.43 l4.94,-35.32 c0.67,-4.76,3.97,-9.33,8.97,-11.65 l-2.87,21.17 c0.73,2.75,3.48,5.8,7.14,5.8 c5.92,0,10.06,-5.0,10.8,-10.25 c0.79,-5.67,-1.22,-10.06,-5.55,-11.35 Z M243.08,120.19 c2.99,0,4.39,2.38,4.03,4.7 c-0.24,2.01,-2.01,3.9,-4.45,3.9 c-2.93,0,-4.51,-2.38,-4.21,-4.76 c0.31,-1.95,1.95,-3.84,4.64,-3.84 Z M245.09,80.67 l7.56,0 l-4.64,33.18 l-7.5,-0.49 Z M261.56,80.67 l7.56,0 l-6.71,48.01 l-7.5,-0.43 Z M275.89,120.19 c2.99,0,4.39,2.38,4.03,4.7 c-0.24,2.01,-2.01,3.9,-4.45,3.9 c-2.93,0,-4.51,-2.38,-4.21,-4.76 c0.31,-1.95,1.95,-3.84,4.64,-3.84 Z M277.91,80.67 l7.56,0 l-4.64,33.18 l-7.5,-0.49 Z M288.83,107.32 l21.17,0 l-0.91,6.34 l-8.42,0 l-1.4,10.07 l-7.5,-0.43 l1.34,-9.64 l-5.19,0 Z M308.16,79.81 c3.66,0,6.22,1.34,7.5,2.87 l-2.44,5.55 c-0.91,-1.04,-2.26,-1.53,-4.15,-1.53 c-2.62,0,-4.88,1.95,-5.37,5.25 l-0.24,1.89 l-7.56,0 l0.3,-2.38 c1.22,-8.3,5.43,-11.65,11.96,-11.65 Z M327.13,93.84 l2.32,9.03 l-6.65,10.8 l-8.3,0 Z M325.12,66.82 c7.81,0,12.87,5.37,15.49,16.04 l7.69,30.8 l-7.93,0 l-7.08,-29.34 c-1.95,-7.69,-6.1,-11.22,-10.55,-11.22 c-1.52,0,-2.5,0.37,-3.11,0.67 l2.87,-6.41 c0.43,-0.24,1.65,-0.55,2.62,-0.55 Z M325.12,66.82" fill="rgb(0,0,0)" transform="matrix(1,0,0,-1,0,200)"/>
</svg>