<?xml version="1.0" encoding="UTF-8"?>
<svg height="200" version="1.1" width="500" xmlns="http://www.w3.org/2000/svg" xmlns:xlink="http://www.w3.org/1999/xlink">
 <path d="M0,0 l500,0 l0,200 l-500,0 Z M0,0" fill="rgb(255,255,255)" transform="matrix(1,0,0,-1,0,200)"/>
 <path d="M146.45,79.93 l-0.49,6.16 c-5.25,0.67,-9.7,5.67,-10.55,11.59 c-0.91,6.41,2.68,10.74,8.17,10.74 c4.7,0,8.11,-2.87,9.64,-5.49 l2.62,-18.54 c1.22,-3.36,4.82,-4.45,7.01,-4.45 c3.42,0,5.49,1.46,6.22,3.11 l-2.32,3.72 c-0.18,-0.37,-0.67,-0.49,-1.22,-0.49 c-1.77,0,-2.62,1.71,-3.05,4.45 l-3.29,22.94 l-7.32,0 l0.55,-3.96 c-1.28,1.83,-4.94,4.76,-9.94,4.76 c-9.45,0,-15.8,-7.5,-14.4,-17.51 c1.28,-9.27,9.21,-16.77,18.36,-17.02 Z M187.69,107.87 c3.72,0,7.01,-1.22,8.84,-2.75 l1.52,6.77 c-2.93,1.65,-6.83,2.56,-10.92,2.56 Z M170.91,96.71 c1.28,-9.03,9.09,-16.9,20.5,-16.9 c5.49,0,8.91,1.53,11.28,3.36 l-2.68,6.22 c-1.28,-1.89,-4.51,-3.05,-8.72,-3.05 c-7.26,0,-12.14,5.37,-12.93,11.04 l-1.77,13.85 c-4.39,-3.17,-6.47,-8.6,-5.67,-14.52 Z M222.28,107.87 c3.72,0,7.01,-1.22,8.84,-2.75 l1.52,6.77 c-2.93,1.65,-6.83,2.56,-10.92,2.56 Z M205.5,96.71 c1.28,-9.03,9.09,-16.9,20.5,-16.9 c5.49,0,8.91,1.53,11.28,3.36 l-2.68,6.22 c-1.28,-1.89,-4.51,-3.05,-8.72,-3.05 c-7.26,0,-12.14,5.37,-12.93,11.04 l-1.77,13.85 c-4.39,-3.17,-6.47,-8.6,-5.67,-14.52 Z M265.34,80.42 c8.05,1.89,12.26,8.97,11.1,17.26 c-1.04,7.56,-7.01,14.21,-15.43,16.29 l0.61,-7.2 c3.9,-1.83,6.77,-5.73,7.38,-10.07 c0.61,-4.15,-0.79,-7.75,-4.27,-9.39 Z M255.46,80.3 l-0.61,7.2 c-3.9,1.71,-6.71,5.49,-7.38,10.07 c-0.55,3.96,0.91,7.56,4.27,9.39 l-0.61,6.83 c-7.75,-2.07,-12.14,-9.15,-11.04,-17.08 c1.16,-7.99,6.83,-14.52,15.37,-16.41 Z M297.24,79.81 l-0.55,6.71 c-2.44,0.49,-4.82,2.38,-5.25,5.73 l-3.05,21.41 l-7.5,0 l3.11,-21.9 c1.16,-8.54,6.89,-11.9,13.24,-11.96 Z M309.38,79.63 l6.34,2.68 c-0.98,1.46,-1.71,3.9,-2.13,6.89 l-3.48,24.46 l-7.56,0 l4.15,-29.46 c0.49,-2.26,1.95,-3.84,2.68,-4.58 Z M321.64,93.84 l7.56,0 l-1.22,7.87 c1.59,3.23,4.21,5.49,7.81,5.49 c3.29,0,6.34,-2.56,6.89,-6.28 l2.81,-20.25 l7.5,0 l-2.87,20.74 c-1.28,9.03,-5.49,13.05,-12.99,13.05 c-5.19,0,-8.6,-3.23,-9.94,-5.49 l-0.79,4.7 l-7.56,0 Z M355.99,107.32 l21.17,0 l-0.91,6.34 l-8.42,0 l-1.4,10.07 l-7.5,-0.43 l1.34,-9.64 l-5.19,0 Z M375.32,79.81 c3.66,0,6.22,1.34,7.5,2.87 l-2.44,5.55 c-0.91,-1.04,-2.26,-1.53,-4.15,-1.53 c-2.62,0,-4.88,1.95,-5.37,5.25 l-0.24,1.89 l-7.56,0 l0.3,-2.38 c1.22,-8.3,5.43,-11.65,11.96,-11.65 Z M375.32,79.81" fill="rgb(0,0,0)" transform="matrix(1,0,0,-1,0,200)"/>
</svg>