<?xml version="1.0" encoding="UTF-8"?>
<svg height="200" version="1.1" width="500" xmlns="http://www.w3.org/2000/svg" xmlns:xlink="http://www.w3.org/1999/xlink">
 <path d="M0,0 l500,0 l0,200 l-500,0 Z M0,0" fill="rgb(255,255,255)" transform="matrix(1,0,0,-1,0,200)"/>
 <path d="M180.19,80.0 c8.72,1.1,14.03,7.93,12.44,18.85 c-1.28,9.58,-8.36,15.62,-16.29,15.62 c-5.67,0,-8.97,-3.48,-9.82,-5.31 l-2.87,19.52 l-7.44,-0.43 l4.94,-35.32 c0.67,-4.76,3.97,-9.33,8.97,-11.65 l-2.87,21.17 c0.73,2.75,3.48,5.8,7.14,5.8 c5.92,0,10.06,-5.0,10.8,-10.25 c0.79,-5.67,-1.22,-10.06,-5.55,-11.35 Z M214.47,114.34 l0.49,-6.28 c3.9,-0.79,6.95,-3.78,7.5,-7.93 l-6.22,0.24 l0.79,-5.73 l12.75,0.18 c0.18,0.85,0.24,2.81,0.06,4.45 c-1.04,7.32,-6.16,14.09,-15.37,15.07 Z M197.88,96.4 c1.4,-10.13,9.15,-16.59,19.82,-16.59 c6.34,0,11.28,1.59,13.72,3.72 l-2.32,5.73 c-2.2,-1.95,-6.41,-2.93,-11.04,-2.93 c-5.55,0,-11.04,3.11,-12.02,8.54 l-2.26,17.26 c-4.76,-3.05,-6.89,-8.97,-5.92,-15.74 Z M255.34,92.01 c6.59,1.1,10.0,5.61,9.21,11.41 c-0.24,1.65,-1.04,3.42,-2.07,4.39 c0.67,0.85,2.01,1.22,3.78,1.22 l-0.37,5.43 c-3.42,0,-5.49,-1.46,-6.59,-2.93 c-1.83,1.4,-3.9,2.32,-6.71,2.75 l0.49,-6.22 c2.44,-0.85,4.33,-2.93,4.7,-5.49 c0.31,-2.14,-0.61,-3.72,-2.87,-4.58 Z M237.59,89.45 c0.67,-4.58,7.32,-7.87,15.37,-7.38 c4.27,0.24,7.14,-0.49,8.78,-1.53 l8.6,0.31 c-1.95,4.57,-6.83,7.38,-15.13,7.01 c-6.65,-0.24,-10.86,1.04,-11.22,3.6 c-0.06,0.79,0.24,1.65,0.55,1.83 c1.1,-0.61,2.5,-1.04,4.21,-1.34 l-0.49,6.16 c-2.44,0.92,-4.33,2.87,-4.7,5.31 c-0.3,2.2,0.79,3.84,2.93,4.7 l-0.49,5.98 c-5.98,-1.16,-10.19,-5.61,-9.33,-11.53 c0.49,-3.6,2.68,-5.8,4.09,-6.83 c-1.34,-0.55,-3.6,-2.99,-3.17,-6.28 Z M238.99,77.56 c0.91,-6.65,7.08,-10.86,17.63,-10.86 c7.26,0,12.44,2.44,14.03,6.71 l-14.4,-0.18 c-6.65,0,-9.82,2.32,-10.31,4.27 l-6.89,2.01 c-0.12,-0.55,-0.18,-1.22,-0.06,-1.95 Z M292.0,79.93 l-0.49,6.16 c-5.25,0.67,-9.7,5.67,-10.55,11.59 c-0.92,6.41,2.68,10.74,8.17,10.74 c4.7,0,8.11,-2.87,9.64,-5.49 l2.62,-18.54 c1.22,-3.36,4.82,-4.45,7.01,-4.45 c3.42,0,5.49,1.46,6.22,3.11 l-2.32,3.72 c-0.18,-0.37,-0.67,-0.49,-1.22,-0.49 c-1.77,0,-2.62,1.71,-3.05,4.45 l-3.29,22.94 l-7.32,0 l0.55,-3.96 c-1.28,1.83,-4.94,4.76,-9.94,4.76 c-9.46,0,-15.8,-7.5,-14.4,-17.51 c1.28,-9.27,9.21,-16.77,18.36,-17.02 Z M318.11,93.84 l7.56,0 l-1.22,7.87 c1.59,3.23,4.21,5.49,7.81,5.49 c3.29,0,6.34,-2.56,6.89,-6.28 l2.81,-20.25 l7.5,0 l-2.87,20.74 c-1.28,9.03,-5.49,13.05,-12.99,13.05 c-5.19,0,-8.6,-3.23,-9.94,-5.49 l-0.79,4.7 l-7.56,0 Z M318.11,93.84" fill="rgb(0,0,0)" transform="matrix(1,0,0,-1,0,200)"/>
</svg>