<?xml version="1.0" encoding="UTF-8"?>
<svg height="200" version="1.1" width="800" xmlns="http://www.w3.org/2000/svg" xmlns:xlink="http://www.w3.org/1999/xlink">
 <path d="M0,0 l800,0 l0,200 l-800,0 Z M0,0" fill="rgb(255,255,255)" transform="matrix(1,0,0,-1,0,200)"/>
 <path d="M332.98,98.62 l-0.32,4.12 c-3.2,0.36,-6.24,3.2,-6.84,7.4 c-0.64,4.4,1.72,7.28,5.28,7.28 c3.08,0,5.28,-1.92,6.32,-3.64 l1.76,-12.4 c0.24,-1.4,1.36,-2.4,1.96,-2.84 l3.92,1.72 c-0.64,0.96,-1.12,2.56,-1.4,4.52 l-3.64,25.88 l-4.88,-0.28 l1.68,-11.52 c-1.04,1.12,-3.08,2.48,-6.4,2.48 c-6.24,0,-10.36,-5.16,-9.44,-11.76 c0.92,-6.48,5.56,-10.96,12,-10.96 Z M358.78,121.26 l0.32,-4.12 c2.56,-0.52,4.56,-2.48,4.92,-5.2 l-4.08,0.16 l0.52,-3.76 l8.36,0.12 c0.12,0.56,0.16,1.84,0.04,2.92 c-0.68,4.8,-4.04,9.24,-10.08,9.88 Z M347.9,109.5 c0.92,-6.64,6,-10.88,13,-10.88 c4.16,0,7.4,1.04,9,2.44 l-1.52,3.76 c-1.44,-1.28,-4.2,-1.92,-7.24,-1.92 c-3.64,0,-7.24,2.04,-7.88,5.6 l-1.48,11.32 c-3.12,-2,-4.52,-5.88,-3.88,-10.32 Z M372.38,116.7 l14.08,0 l-0.6,4.12 l-5.76,0 l-0.32,2.32 c-0.36,2.64,0.56,3.6,1.96,3.6 c1.6,0,2.52,-0.44,3.04,-0.76 l0.6,3.88 c-0.92,0.64,-2.32,1.12,-4.28,1.12 c-4.2,0,-6.92,-2.72,-6.2,-8.16 l0.28,-2 l-3.4,0 Z M377.46,90.1 c4.2,0,6.44,3.52,5.6,9.36 l-1.16,8.36 l-4.88,0 l1.28,-9 c0.28,-2.24,-0.6,-4,-2.64,-4 c-0.72,0,-1.52,0.16,-2.04,0.44 l2.2,-4.76 c0.28,-0.16,1.08,-0.4,1.64,-0.4 Z M402.66,121.26 l0.32,-4.12 c2.56,-0.52,4.56,-2.48,4.92,-5.2 l-4.08,0.16 l0.52,-3.76 l8.36,0.12 c0.12,0.56,0.16,1.84,0.04,2.92 c-0.68,4.8,-4.04,9.24,-10.08,9.88 Z M391.78,109.5 c0.92,-6.64,6,-10.88,13,-10.88 c4.16,0,7.4,1.04,9,2.44 l-1.52,3.76 c-1.44,-1.28,-4.2,-1.92,-7.24,-1.92 c-3.64,0,-7.24,2.04,-7.88,5.6 l-1.48,11.32 c-3.12,-2,-4.52,-5.88,-3.88,-10.32 Z M417.22,107.82 l4.96,0 l-0.8,5.16 c1.04,2.12,2.76,3.6,5.12,3.6 c2.16,0,4.16,-1.68,4.52,-4.12 l1.84,-13.28 l4.92,0 l-1.88,13.6 c-0.84,5.92,-3.6,8.56,-8.52,8.56 c-3.4,0,-5.64,-2.12,-6.52,-3.6 l-0.52,3.08 l-4.96,0 Z M451.7,117.02 c2.44,0,4.6,-0.8,5.8,-1.8 l1,4.44 c-1.92,1.08,-4.48,1.68,-7.16,1.68 Z M440.7,109.7 c0.84,-5.92,5.96,-11.08,13.44,-11.08 c3.6,0,5.84,1,7.4,2.2 l-1.76,4.08 c-0.84,-1.24,-2.96,-2,-5.72,-2 c-4.76,0,-7.96,3.52,-8.48,7.24 l-1.16,9.08 c-2.88,-2.08,-4.24,-5.64,-3.72,-9.52 Z M474.3,121.26 l0.32,-4.12 c2.56,-0.52,4.56,-2.48,4.92,-5.2 l-4.08,0.16 l0.52,-3.76 l8.36,0.12 c0.12,0.56,0.16,1.84,0.04,2.92 c-0.68,4.8,-4.04,9.24,-10.08,9.88 Z M463.42,109.5 c0.92,-6.64,6,-10.88,13,-10.88 c4.16,0,7.4,1.04,9,2.44 l-1.52,3.76 c-1.44,-1.28,-4.2,-1.92,-7.24,-1.92 c-3.64,0,-7.24,2.04,-7.88,5.6 l-1.48,11.32 c-3.12,-2,-4.52,-5.88,-3.88,-10.32 Z M463.42,109.5" fill="rgb(0,0,0)" transform="matrix(1,0,0,-1,0,200)"/>
</svg>