<?xml version="1.0" encoding="UTF-8"?>
<svg height="200" version="1.1" width="500" xmlns="http://www.w3.org/2000/svg" xmlns:xlink="http://www.w3.org/1999/xlink">
 <path d="M0,0 l500,0 l0,200 l-500,0 Z M0,0" fill="rgb(255,255,255)" transform="matrix(1,0,0,-1,0,200)"/>
 <path d="M181.44,79.81 l-0.49,6.28 c-4.88,0.55,-9.52,4.88,-10.43,11.28 c-0.98,6.71,2.62,11.1,8.05,11.1 c4.7,0,8.05,-2.93,9.64,-5.55 l2.68,-18.91 c0.37,-2.14,2.07,-3.66,2.99,-4.33 l5.98,2.62 c-0.98,1.46,-1.71,3.9,-2.14,6.89 l-5.55,39.47 l-7.44,-0.43 l2.56,-17.57 c-1.59,1.71,-4.7,3.78,-9.76,3.78 c-9.52,0,-15.8,-7.87,-14.4,-17.93 c1.4,-9.88,8.48,-16.71,18.3,-16.71 Z M229.38,80.42 c8.05,1.89,12.26,8.97,11.1,17.26 c-1.04,7.56,-7.01,14.21,-15.43,16.29 l0.61,-7.2 c3.9,-1.83,6.77,-5.73,7.38,-10.07 c0.61,-4.15,-0.79,-7.75,-4.27,-9.39 Z M219.5,80.3 l-0.61,7.2 c-3.9,1.71,-6.71,5.49,-7.38,10.07 c-0.55,3.96,0.91,7.56,4.27,9.39 l-0.61,6.83 c-7.75,-2.07,-12.14,-9.15,-11.04,-17.08 c1.16,-7.99,6.83,-14.52,15.37,-16.41 Z M261.28,79.81 l-0.55,6.71 c-2.44,0.49,-4.82,2.38,-5.25,5.73 l-3.05,21.41 l-7.5,0 l3.11,-21.9 c1.16,-8.54,6.89,-11.9,13.24,-11.96 Z M273.42,79.63 l6.34,2.68 c-0.98,1.46,-1.71,3.9,-2.13,6.89 l-3.48,24.46 l-7.56,0 l4.15,-29.46 c0.49,-2.26,1.95,-3.84,2.68,-4.58 Z M304.84,80.0 c8.72,1.1,14.03,7.93,12.44,18.85 c-1.28,9.58,-8.36,15.62,-16.29,15.62 c-5.67,0,-8.97,-3.48,-9.82,-5.31 l-2.87,19.52 l-7.44,-0.43 l4.94,-35.32 c0.67,-4.76,3.96,-9.33,8.97,-11.65 l-2.87,21.17 c0.73,2.75,3.48,5.8,7.14,5.8 c5.92,0,10.07,-5.0,10.8,-10.25 c0.79,-5.67,-1.22,-10.06,-5.55,-11.35 Z M321.0,107.32 l21.17,0 l-0.91,6.34 l-8.42,0 l-1.4,10.07 l-7.5,-0.43 l1.34,-9.64 l-5.19,0 Z M340.34,79.81 c3.66,0,6.22,1.34,7.5,2.87 l-2.44,5.55 c-0.91,-1.04,-2.26,-1.53,-4.15,-1.53 c-2.62,0,-4.88,1.95,-5.37,5.25 l-0.24,1.89 l-7.56,0 l0.3,-2.38 c1.22,-8.3,5.43,-11.65,11.96,-11.65 Z M340.34,79.81" fill="rgb(0,0,0)" transform="matrix(1,0,0,-1,0,200)"/>
</svg>