<?xml version="1.0" encoding="UTF-8"?>
<svg height="200" version="1.1" width="500" xmlns="http://www.w3.org/2000/svg" xmlns:xlink="http://www.w3.org/1999/xlink">
 <path d="M0,0 l500,0 l0,200 l-500,0 Z M0,0" fill="rgb(255,255,255)" transform="matrix(1,0,0,-1,0,200)"/>
 <path d="M215.8,98.5 l-0.32,4.12 c-3.2,0.36,-6.24,3.2,-6.84,7.4 c-0.64,4.4,1.72,7.28,5.28,7.28 c3.08,0,5.28,-1.92,6.32,-3.64 l1.76,-12.4 c0.24,-1.4,1.36,-2.4,1.96,-2.84 l3.92,1.72 c-0.64,0.96,-1.12,2.56,-1.4,4.52 l-3.64,25.88 l-4.88,-0.28 l1.68,-11.52 c-1.04,1.12,-3.08,2.48,-6.4,2.48 c-6.24,0,-10.36,-5.16,-9.44,-11.76 c0.92,-6.48,5.56,-10.96,12,-10.96 Z M232.16,107.7 l4.92,0 l-0.84,5.72 c0.64,2.08,1.88,3.44,3.96,3.44 c1.2,0,2,-0.6,2.48,-1.16 l0.76,4.84 c-0.72,0.44,-1.64,0.68,-2.52,0.68 c-2.96,0,-4.48,-1.36,-5.24,-3.04 l-0.44,2.52 l-4.92,0 Z M249.2,124.98 c1.96,0,2.88,1.56,2.64,3.08 c-0.16,1.32,-1.32,2.56,-2.92,2.56 c-1.92,0,-2.96,-1.56,-2.76,-3.12 c0.2,-1.28,1.28,-2.52,3.04,-2.52 Z M250.52,99.06 l4.96,0 l-3.04,21.76 l-4.92,-0.32 Z M259.72,107.7 l4.96,0 l-0.8,5.16 c1.04,2.12,2.76,3.6,5.12,3.6 c2.16,0,4.16,-1.68,4.52,-4.12 l1.84,-13.28 l4.92,0 l-1.88,13.6 c-0.84,5.92,-3.6,8.56,-8.52,8.56 c-3.4,0,-5.64,-2.12,-6.52,-3.6 l-0.52,3.08 l-4.96,0 Z M285.88,99.06 l4.96,0 l-1.08,7.6 l2.12,2.64 l1.32,-1.6 l5.88,0 l-4.16,5.16 l6.44,7.84 l-5.84,0 l-6.56,-7.88 l-2.6,18.24 l-4.84,-0.8 Z M285.88,99.06" fill="rgb(0,0,0)" transform="matrix(1,0,0,-1,0,200)"/>
</svg>