<?xml version="1.0" encoding="UTF-8"?>
<svg height="200" version="1.1" width="500" xmlns="http://www.w3.org/2000/svg" xmlns:xlink="http://www.w3.org/1999/xlink">
 <path d="M0,0 l500,0 l0,200 l-500,0 Z M0,0" fill="rgb(255,255,255)" transform="matrix(1,0,0,-1,0,200)"/>
 <path d="M178.54,92.01 c6.59,1.1,10.0,5.61,9.21,11.41 c-0.24,1.65,-1.04,3.42,-2.07,4.39 c0.67,0.85,2.01,1.22,3.78,1.22 l-0.37,5.43 c-3.42,0,-5.49,-1.46,-6.59,-2.93 c-1.83,1.4,-3.9,2.32,-6.71,2.75 l0.49,-6.22 c2.44,-0.85,4.33,-2.93,4.7,-5.49 c0.31,-2.14,-0.61,-3.72,-2.87,-4.58 Z M160.79,89.45 c0.67,-4.58,7.32,-7.87,15.37,-7.38 c4.27,0.24,7.14,-0.49,8.78,-1.53 l8.6,0.31 c-1.95,4.57,-6.83,7.38,-15.13,7.01 c-6.65,-0.24,-10.86,1.04,-11.22,3.6 c-0.06,0.79,0.24,1.65,0.55,1.83 c1.1,-0.61,2.5,-1.04,4.21,-1.34 l-0.49,6.16 c-2.44,0.92,-4.33,2.87,-4.7,5.31 c-0.3,2.2,0.79,3.84,2.93,4.7 l-0.49,5.98 c-5.98,-1.16,-10.19,-5.61,-9.33,-11.53 c0.49,-3.6,2.68,-5.8,4.09,-6.83 c-1.34,-0.55,-3.6,-2.99,-3.17,-6.28 Z M162.19,77.56 c0.91,-6.65,7.08,-10.86,17.63,-10.86 c7.26,0,12.44,2.44,14.03,6.71 l-14.4,-0.18 c-6.65,0,-9.82,2.32,-10.31,4.27 l-6.89,2.01 c-0.12,-0.55,-0.18,-1.22,-0.06,-1.95 Z M222.09,80.42 c8.05,1.89,12.26,8.97,11.1,17.26 c-1.04,7.56,-7.01,14.21,-15.43,16.29 l0.61,-7.2 c3.9,-1.83,6.77,-5.73,7.38,-10.07 c0.61,-4.15,-0.79,-7.75,-4.27,-9.39 Z M212.21,80.3 l-0.61,7.2 c-3.9,1.71,-6.71,5.49,-7.38,10.07 c-0.55,3.96,0.91,7.56,4.27,9.39 l-0.61,6.83 c-7.75,-2.07,-12.14,-9.15,-11.04,-17.08 c1.16,-7.99,6.83,-14.52,15.37,-16.41 Z M263.45,80.42 c8.05,1.89,12.26,8.97,11.1,17.26 c-1.04,7.56,-7.01,14.21,-15.43,16.29 l0.61,-7.2 c3.9,-1.83,6.77,-5.73,7.38,-10.07 c0.61,-4.15,-0.79,-7.75,-4.27,-9.39 Z M253.57,80.3 l-0.61,7.2 c-3.9,1.71,-6.71,5.49,-7.38,10.07 c-0.55,3.96,0.91,7.56,4.27,9.39 l-0.61,6.83 c-7.75,-2.07,-12.14,-9.15,-11.04,-17.08 c1.16,-7.99,6.83,-14.52,15.37,-16.41 Z M297.92,79.81 l-0.49,6.28 c-4.88,0.55,-9.52,4.88,-10.43,11.28 c-0.98,6.71,2.62,11.1,8.05,11.1 c4.7,0,8.05,-2.93,9.64,-5.55 l2.68,-18.91 c0.37,-2.14,2.07,-3.66,2.99,-4.33 l5.98,2.62 c-0.98,1.46,-1.71,3.9,-2.14,6.89 l-5.55,39.47 l-7.44,-0.43 l2.56,-17.57 c-1.59,1.71,-4.7,3.78,-9.76,3.78 c-9.52,0,-15.8,-7.87,-14.4,-17.93 c1.4,-9.88,8.48,-16.71,18.3,-16.71 Z M328.78,95.61 l-1.1,9.15 c-0.31,2.2,2.56,3.6,6.47,3.6 c4.82,0,9.21,-2.38,10.19,-3.66 l1.22,6.04 c-0.79,0.79,-5.0,3.72,-11.47,3.72 c-8.24,0,-14.76,-4.15,-13.85,-10.74 c0.67,-4.64,4.15,-6.83,8.54,-8.11 Z M344.21,80.91 c4.64,1.59,6.89,5.12,6.1,10.55 c-0.73,5.31,-4.7,7.26,-11.96,8.84 l0.61,-7.02 c2.32,-0.73,3.97,-1.89,4.15,-3.35 Z M334.45,79.87 l-0.49,6.41 c-4.94,0.49,-9.33,2.81,-10.8,4.33 l-0.18,-7.26 c1.52,-1.04,5.25,-3.11,11.47,-3.48 Z M334.45,79.87" fill="rgb(0,0,0)" transform="matrix(1,0,0,-1,0,200)"/>
</svg>