<?xml version="1.0" encoding="UTF-8"?>
<svg height="200" version="1.1" width="800" xmlns="http://www.w3.org/2000/svg" xmlns:xlink="http://www.w3.org/1999/xlink">
 <path d="M0,0 l800,0 l0,200 l-800,0 Z M0,0" fill="rgb(255,255,255)" transform="matrix(1,0,0,-1,0,200)"/>
 <path d="M346.08,106.62 c4.32,0.72,6.56,3.68,6.04,7.48 c-0.16,1.08,-0.68,2.24,-1.36,2.88 c0.44,0.56,1.32,0.8,2.48,0.8 l-0.24,3.56 c-2.24,0,-3.6,-0.96,-4.32,-1.92 c-1.2,0.92,-2.56,1.52,-4.4,1.8 l0.32,-4.08 c1.6,-0.56,2.84,-1.92,3.08,-3.6 c0.2,-1.4,-0.4,-2.44,-1.88,-3 Z M334.44,104.94 c0.44,-3,4.8,-5.16,10.08,-4.84 c2.8,0.16,4.68,-0.32,5.76,-1 l5.64,0.2 c-1.28,3,-4.48,4.84,-9.92,4.6 c-4.36,-0.16,-7.12,0.68,-7.36,2.36 c-0.04,0.52,0.16,1.08,0.36,1.2 c0.72,-0.4,1.64,-0.68,2.76,-0.88 l-0.32,4.04 c-1.6,0.6,-2.84,1.88,-3.08,3.48 c-0.2,1.44,0.52,2.52,1.92,3.08 l-0.32,3.92 c-3.92,-0.76,-6.68,-3.68,-6.12,-7.56 c0.32,-2.36,1.76,-3.8,2.68,-4.48 c-0.88,-0.36,-2.36,-1.96,-2.08,-4.12 Z M335.36,97.14 c0.6,-4.36,4.64,-7.12,11.56,-7.12 c4.76,0,8.16,1.6,9.2,4.4 l-9.44,-0.12 c-4.36,0,-6.44,1.52,-6.76,2.8 l-4.52,1.32 c-0.08,-0.36,-0.12,-0.8,-0.04,-1.28 Z M359.56,107.82 l4.92,0 l-0.84,5.72 c0.64,2.08,1.88,3.44,3.96,3.44 c1.2,0,2,-0.6,2.48,-1.16 l0.76,4.84 c-0.72,0.44,-1.64,0.68,-2.52,0.68 c-2.96,0,-4.48,-1.36,-5.24,-3.04 l-0.44,2.52 l-4.92,0 Z M391.08,99.02 c5.28,1.24,8.04,5.88,7.28,11.32 c-0.68,4.96,-4.6,9.32,-10.12,10.68 l0.4,-4.72 c2.56,-1.2,4.44,-3.76,4.84,-6.6 c0.4,-2.72,-0.52,-5.08,-2.8,-6.16 Z M384.6,98.94 l-0.4,4.72 c-2.56,1.12,-4.4,3.6,-4.84,6.6 c-0.36,2.6,0.6,4.96,2.8,6.16 l-0.4,4.48 c-5.08,-1.36,-7.96,-6,-7.24,-11.2 c0.76,-5.24,4.48,-9.52,10.08,-10.76 Z M412,98.62 l-0.36,4.4 c-1.6,0.32,-3.16,1.56,-3.44,3.76 l-2,14.04 l-4.92,0 l2.04,-14.36 c0.76,-5.6,4.52,-7.8,8.68,-7.84 Z M419.96,98.5 l4.16,1.76 c-0.64,0.96,-1.12,2.56,-1.4,4.52 l-2.28,16.04 l-4.96,0 l2.72,-19.32 c0.32,-1.48,1.28,-2.52,1.76,-3 Z M430.84,90.54 l4.96,0 l-3.24,22.68 c0.48,1.68,2.24,4.0,5.2,4.0 c4,0,6.84,-2.92,7.48,-7.28 c0.4,-3.12,-0.68,-6.76,-4.56,-7.16 l0.32,-4.16 c6.28,0.12,10.04,5.08,9.04,11.96 c-0.84,5.96,-5,10.76,-11.36,10.76 c-3.36,0,-5.64,-1.92,-6.68,-3.72 l-0.52,3.2 l-4.92,0 Z M458.72,108.98 l-0.72,6 c-0.2,1.44,1.68,2.36,4.24,2.36 c3.16,0,6.04,-1.56,6.68,-2.4 l0.8,3.96 c-0.52,0.52,-3.28,2.44,-7.52,2.44 c-5.4,0,-9.68,-2.72,-9.08,-7.04 c0.44,-3.04,2.72,-4.48,5.6,-5.32 Z M468.84,99.34 c3.04,1.04,4.52,3.36,4,6.92 c-0.48,3.48,-3.08,4.76,-7.84,5.8 l0.4,-4.6 c1.52,-0.48,2.6,-1.24,2.72,-2.2 Z M462.44,98.66 l-0.32,4.2 c-3.24,0.32,-6.12,1.84,-7.08,2.84 l-0.12,-4.76 c1,-0.68,3.44,-2.04,7.52,-2.28 Z M462.44,98.66" fill="rgb(0,0,0)" transform="matrix(1,0,0,-1,0,200)"/>
</svg>