<?xml version="1.0" encoding="UTF-8"?>
<svg height="200" version="1.1" width="500" xmlns="http://www.w3.org/2000/svg" xmlns:xlink="http://www.w3.org/1999/xlink">
 <path d="M0,0 l500,0 l0,200 l-500,0 Z M0,0" fill="rgb(255,255,255)" transform="matrix(1,0,0,-1,0,200)"/>
 <path d="M190.56,80.67 l7.56,0 l-3.29,22.69 c1.16,2.38,3.54,4.27,6.47,4.27 c3.29,0,6.1,-2.68,6.65,-6.53 l1.04,-7.26 l7.44,0 l-1.1,7.75 c-1.16,8.3,-5.37,12.87,-12.5,12.87 c-5.25,0,-8.36,-2.68,-10.13,-4.88 c-1.65,2.56,-4.45,4.88,-9.15,4.88 c-4.51,0,-8.24,-2.75,-9.82,-5.0 l-0.73,4.21 l-7.56,0 l2.81,-19.82 l7.56,0 l-1.4,9.15 c1.34,2.5,4.27,4.45,7.08,4.45 c3.23,0,5.67,-2.5,6.22,-6.16 Z M237.89,79.81 l-0.55,6.71 c-2.44,0.49,-4.82,2.38,-5.25,5.73 l-3.05,21.41 l-7.5,0 l3.11,-21.9 c1.16,-8.54,6.89,-11.9,13.24,-11.96 Z M250.03,79.63 l6.34,2.68 c-0.98,1.46,-1.71,3.9,-2.14,6.89 l-3.48,24.46 l-7.56,0 l4.15,-29.46 c0.49,-2.26,1.95,-3.84,2.68,-4.58 Z M268.82,95.61 l-1.1,9.15 c-0.31,2.2,2.56,3.6,6.47,3.6 c4.82,0,9.21,-2.38,10.19,-3.66 l1.22,6.04 c-0.79,0.79,-5.0,3.72,-11.47,3.72 c-8.24,0,-14.76,-4.15,-13.85,-10.74 c0.67,-4.64,4.15,-6.83,8.54,-8.11 Z M284.25,80.91 c4.64,1.59,6.89,5.12,6.1,10.55 c-0.73,5.31,-4.7,7.26,-11.96,8.84 l0.61,-7.02 c2.32,-0.73,3.97,-1.89,4.15,-3.35 Z M274.49,79.87 l-0.49,6.41 c-4.94,0.49,-9.33,2.81,-10.8,4.33 l-0.18,-7.26 c1.52,-1.04,5.25,-3.11,11.47,-3.48 Z M297.43,120.19 c2.99,0,4.39,2.38,4.03,4.7 c-0.24,2.01,-2.01,3.9,-4.45,3.9 c-2.93,0,-4.51,-2.38,-4.21,-4.76 c0.31,-1.95,1.95,-3.84,4.64,-3.84 Z M299.44,80.67 l7.56,0 l-4.64,33.18 l-7.5,-0.49 Z M328.6,107.87 c3.72,0,7.02,-1.22,8.85,-2.75 l1.52,6.77 c-2.93,1.65,-6.83,2.56,-10.92,2.56 Z M311.82,96.71 c1.28,-9.03,9.09,-16.9,20.5,-16.9 c5.49,0,8.91,1.53,11.29,3.36 l-2.68,6.22 c-1.28,-1.89,-4.51,-3.05,-8.72,-3.05 c-7.26,0,-12.14,5.37,-12.93,11.04 l-1.77,13.85 c-4.39,-3.17,-6.47,-8.6,-5.67,-14.52 Z M311.82,96.71" fill="rgb(0,0,0)" transform="matrix(1,0,0,-1,0,200)"/>
</svg>