<?xml version="1.0" encoding="UTF-8"?>
<svg height="200" version="1.1" width="500" xmlns="http://www.w3.org/2000/svg" xmlns:xlink="http://www.w3.org/1999/xlink">
 <path d="M0,0 l500,0 l0,200 l-500,0 Z M0,0" fill="rgb(255,255,255)" transform="matrix(1,0,0,-1,0,200)"/>
 <path d="M165.39,95.61 l-1.1,9.15 c-0.31,2.2,2.56,3.6,6.47,3.6 c4.82,0,9.21,-2.38,10.19,-3.66 l1.22,6.04 c-0.79,0.79,-5.0,3.72,-11.47,3.72 c-8.23,0,-14.76,-4.15,-13.85,-10.74 c0.67,-4.64,4.15,-6.83,8.54,-8.11 Z M180.83,80.91 c4.64,1.59,6.89,5.12,6.1,10.55 c-0.73,5.31,-4.7,7.26,-11.96,8.84 l0.61,-7.02 c2.32,-0.73,3.97,-1.89,4.15,-3.35 Z M171.07,79.87 l-0.49,6.41 c-4.94,0.49,-9.33,2.81,-10.8,4.33 l-0.18,-7.26 c1.53,-1.04,5.25,-3.11,11.47,-3.48 Z M194.0,120.19 c2.99,0,4.39,2.38,4.03,4.7 c-0.24,2.01,-2.01,3.9,-4.45,3.9 c-2.93,0,-4.51,-2.38,-4.21,-4.76 c0.31,-1.95,1.95,-3.84,4.64,-3.84 Z M196.01,80.67 l7.56,0 l-4.64,33.18 l-7.5,-0.49 Z M232.37,80.67 l7.56,0 l-3.29,22.69 c1.16,2.38,3.54,4.27,6.47,4.27 c3.29,0,6.1,-2.68,6.65,-6.53 l1.04,-7.26 l7.44,0 l-1.1,7.75 c-1.16,8.3,-5.37,12.87,-12.5,12.87 c-5.25,0,-8.36,-2.68,-10.13,-4.88 c-1.65,2.56,-4.45,4.88,-9.15,4.88 c-4.51,0,-8.24,-2.75,-9.82,-5.0 l-0.73,4.21 l-7.56,0 l2.81,-19.82 l7.56,0 l-1.4,9.15 c1.34,2.5,4.27,4.45,7.08,4.45 c3.23,0,5.67,-2.5,6.22,-6.16 Z M269.89,67.49 l7.56,0 l-4.94,34.59 c0.73,2.56,3.42,6.1,7.93,6.1 c6.1,0,10.43,-4.45,11.41,-11.1 c0.61,-4.76,-1.04,-10.31,-6.95,-10.92 l0.49,-6.34 c9.58,0.18,15.31,7.75,13.79,18.24 c-1.28,9.09,-7.62,16.41,-17.32,16.41 c-5.12,0,-8.6,-2.93,-10.19,-5.67 l-0.79,4.88 l-7.5,0 Z M308.32,80.67 l7.56,0 l-6.71,48.01 l-7.5,-0.43 Z M329.42,93.84 l2.32,9.03 l-6.65,10.8 l-8.3,0 Z M327.41,66.82 c7.81,0,12.87,5.37,15.49,16.04 l7.69,30.8 l-7.93,0 l-7.08,-29.34 c-1.95,-7.69,-6.1,-11.22,-10.55,-11.22 c-1.52,0,-2.5,0.37,-3.11,0.67 l2.87,-6.41 c0.43,-0.24,1.65,-0.55,2.62,-0.55 Z M327.41,66.82" fill="rgb(0,0,0)" transform="matrix(1,0,0,-1,0,200)"/>
</svg>