<?xml version="1.0" encoding="UTF-8"?>
<svg height="200" version="1.1" width="800" xmlns="http://www.w3.org/2000/svg" xmlns:xlink="http://www.w3.org/1999/xlink">
 <path d="M0,0 l800,0 l0,200 l-800,0 Z M0,0" fill="rgb(255,255,255)" transform="matrix(1,0,0,-1,0,200)"/>
 <path d="M342.34,108.98 l-0.72,6 c-0.2,1.44,1.68,2.36,4.24,2.36 c3.16,0,6.04,-1.56,6.68,-2.4 l0.8,3.96 c-0.52,0.52,-3.28,2.44,-7.52,2.44 c-5.4,0,-9.68,-2.72,-9.08,-7.04 c0.44,-3.04,2.72,-4.48,5.6,-5.32 Z M352.46,99.34 c3.04,1.04,4.52,3.36,4,6.92 c-0.48,3.48,-3.08,4.76,-7.84,5.8 l0.4,-4.6 c1.52,-0.48,2.6,-1.24,2.72,-2.2 Z M346.06,98.66 l-0.32,4.2 c-3.24,0.32,-6.12,1.84,-7.08,2.84 l-0.12,-4.76 c1,-0.68,3.44,-2.04,7.52,-2.28 Z M369.94,98.62 l-0.36,4.4 c-1.6,0.32,-3.16,1.56,-3.44,3.76 l-2,14.04 l-4.92,0 l2.04,-14.36 c0.76,-5.6,4.52,-7.8,8.68,-7.84 Z M377.9,98.5 l4.16,1.76 c-0.64,0.96,-1.12,2.56,-1.4,4.52 l-2.28,16.04 l-4.96,0 l2.72,-19.32 c0.32,-1.48,1.28,-2.52,1.76,-3 Z M388.78,90.54 l4.96,0 l-3.24,22.68 c0.48,1.68,2.24,4.0,5.2,4.0 c4,0,6.84,-2.92,7.48,-7.28 c0.4,-3.12,-0.68,-6.76,-4.56,-7.16 l0.32,-4.16 c6.28,0.12,10.04,5.08,9.04,11.96 c-0.84,5.96,-5,10.76,-11.36,10.76 c-3.36,0,-5.64,-1.92,-6.68,-3.72 l-0.52,3.2 l-4.92,0 Z M415.22,90.54 l4.96,0 l-3.24,22.68 c0.48,1.68,2.24,4.0,5.2,4.0 c4,0,6.84,-2.92,7.48,-7.28 c0.4,-3.12,-0.68,-6.76,-4.56,-7.16 l0.32,-4.16 c6.28,0.12,10.04,5.08,9.04,11.96 c-0.84,5.96,-5,10.76,-11.36,10.76 c-3.36,0,-5.64,-1.92,-6.68,-3.72 l-0.52,3.2 l-4.92,0 Z M440.42,99.18 l4.96,0 l-4.4,31.48 l-4.92,-0.28 Z M454.26,107.82 l1.52,5.92 l-4.36,7.08 l-5.44,0 Z M452.94,90.1 c5.12,0,8.44,3.52,10.16,10.52 l5.04,20.2 l-5.2,0 l-4.64,-19.24 c-1.28,-5.04,-4,-7.36,-6.92,-7.36 c-1,0,-1.64,0.24,-2.04,0.44 l1.88,-4.2 c0.28,-0.16,1.08,-0.36,1.72,-0.36 Z M452.94,90.1" fill="rgb(0,0,0)" transform="matrix(1,0,0,-1,0,200)"/>
</svg>