<?xml version="1.0" encoding="UTF-8"?>
<svg height="200" version="1.1" width="500" xmlns="http://www.w3.org/2000/svg" xmlns:xlink="http://www.w3.org/1999/xlink">
 <path d="M0,0 l500,0 l0,200 l-500,0 Z M0,0" fill="rgb(255,255,255)" transform="matrix(1,0,0,-1,0,200)"/>
 <path d="M167.89,93.84 l2.32,10.8 l-3.72,9.03 l-7.69,0 Z M174.18,80.67 l6.34,0 l4.45,22.51 l10.43,-22.51 l7.26,0 l-15.31,33.0 l-7.14,0 Z M204.98,93.9 l3.6,19.76 l-7.5,0 l-1.16,-8.3 Z M218.16,80.67 l7.56,0 l-3.05,21.05 c1.28,3.23,4.09,5.49,7.75,5.49 c3.9,0,6.34,-2.87,6.77,-6.16 l1.04,-7.2 l7.44,0 l-1.1,7.69 c-1.1,8.17,-5.55,12.93,-12.69,12.93 c-5.31,0,-8.66,-3.11,-10.0,-5.43 l-2.87,19.64 l-7.5,-0.43 Z M267.38,114.34 l0.49,-6.28 c3.9,-0.79,6.95,-3.78,7.5,-7.93 l-6.22,0.24 l0.79,-5.73 l12.75,0.18 c0.18,0.85,0.24,2.81,0.06,4.45 c-1.04,7.32,-6.16,14.09,-15.37,15.07 Z M250.79,96.4 c1.4,-10.13,9.15,-16.59,19.82,-16.59 c6.34,0,11.29,1.59,13.73,3.72 l-2.32,5.73 c-2.2,-1.95,-6.4,-2.93,-11.04,-2.93 c-5.55,0,-11.04,3.11,-12.02,8.54 l-2.26,17.26 c-4.76,-3.05,-6.89,-8.97,-5.92,-15.74 Z M290.2,93.84 l7.5,0 l-1.28,8.72 c0.98,3.17,2.87,5.25,6.04,5.25 c1.83,0,3.05,-0.91,3.78,-1.77 l1.16,7.38 c-1.1,0.67,-2.5,1.04,-3.84,1.04 c-4.51,0,-6.83,-2.07,-7.99,-4.64 l-0.67,3.84 l-7.5,0 Z M329.67,114.34 l0.49,-6.28 c3.9,-0.79,6.95,-3.78,7.5,-7.93 l-6.22,0.24 l0.79,-5.73 l12.75,0.18 c0.18,0.85,0.24,2.81,0.06,4.45 c-1.04,7.32,-6.16,14.09,-15.37,15.07 Z M313.07,96.4 c1.4,-10.13,9.15,-16.59,19.83,-16.59 c6.34,0,11.28,1.59,13.72,3.72 l-2.32,5.73 c-2.2,-1.95,-6.41,-2.93,-11.04,-2.93 c-5.55,0,-11.04,3.11,-12.02,8.54 l-2.26,17.26 c-4.76,-3.05,-6.89,-8.97,-5.92,-15.74 Z M313.07,96.4" fill="rgb(0,0,0)" transform="matrix(1,0,0,-1,0,200)"/>
</svg>