<?xml version="1.0" encoding="UTF-8"?>
<svg height="200" version="1.1" width="500" xmlns="http://www.w3.org/2000/svg" xmlns:xlink="http://www.w3.org/1999/xlink">
 <path d="M0,0 l500,0 l0,200 l-500,0 Z M0,0" fill="rgb(255,255,255)" transform="matrix(1,0,0,-1,0,200)"/>
 <path d="M94.34,79.56 c-2.44,0,-4.93,0.35,-7.46,1.05 c-2.53,0.7,-4.91,1.7,-7.13,2.99 l0,40.76 l8.32,0 l0,-16.91 l1.66,0 c0.92,2.03,2.25,3.6,3.96,4.71 c1.72,1.11,3.69,1.66,5.91,1.66 c3.14,0.0,5.61,-1.05,7.4,-3.16 c1.79,-2.11,2.69,-5.01,2.69,-8.71 l0,-9.82 c0,-4.03,-1.32,-7.14,-3.96,-9.32 c-2.64,-2.18,-6.44,-3.27,-11.4,-3.27 Z M94.62,85.88 c2.26,0,3.95,0.51,5.07,1.53 c1.13,1.02,1.69,2.63,1.69,4.85 l0,8.6 c0,2.11,-0.45,3.67,-1.36,4.69 c-0.91,1.02,-2.21,1.53,-3.91,1.53 c-1.4,0,-2.76,-0.36,-4.08,-1.08 c-1.31,-0.72,-2.63,-1.8,-3.97,-3.24 l0,-15.14 c1.04,-0.59,2.08,-1.03,3.13,-1.3 c1.05,-0.28,2.19,-0.42,3.41,-0.42 Z M120.51,80 l0,33.27 l8.32,0 l0,-5.82 l1.66,0 c0.81,2.22,2.06,3.84,3.74,4.85 c1.68,1.02,3.69,1.53,6.02,1.52 c2.66,0.0,4.78,-0.82,6.35,-2.47 c1.57,-1.65,2.36,-3.96,2.36,-6.96 l0,-5.6 l-7.65,0 l0,3.05 c0,1.7,-0.38,2.99,-1.14,3.88 c-0.76,0.89,-1.99,1.33,-3.69,1.33 c-1.48,0,-2.87,-0.36,-4.19,-1.08 c-1.31,-0.72,-2.47,-1.89,-3.47,-3.52 l0,-22.46 Z M167.43,79.45 c-2.88,0,-5.28,0.95,-7.18,2.86 c-1.9,1.9,-2.86,4.52,-2.86,7.85 l0,23.12 l8.32,0 l0,-21.02 c0,-2.0,0.42,-3.49,1.25,-4.49 c0.83,-1.0,2.06,-1.5,3.69,-1.5 c1.44,0,2.86,0.45,4.24,1.36 c1.39,0.91,2.76,2.21,4.13,3.91 l0,21.74 l8.32,0 l0,-33.27 l-8.32,0 l0,5.82 l-1.66,0 c-0.89,-2.11,-2.27,-3.7,-4.16,-4.77 c-1.89,-1.07,-3.81,-1.61,-5.77,-1.61 Z M201.53,103.68 l0,-23.68 l-7.04,0 l0,33.27 l6.99,0 l0,-4.44 l1.39,0 c0.7,1.55,1.57,2.75,2.61,3.6 c1.04,0.85,2.18,1.28,3.44,1.28 c1.33,0,2.48,-0.42,3.44,-1.25 c0.96,-0.83,1.63,-2.04,2.0,-3.63 l1.39,0 c0.67,1.55,1.57,2.75,2.72,3.6 c1.15,0.85,2.44,1.28,3.88,1.28 c1.7,0,3.06,-0.71,4.08,-2.14 c1.02,-1.42,1.53,-3.35,1.53,-5.8 l0,-25.79 l-7.04,0 l0,24.34 c-0.0,1.26,-0.17,2.21,-0.5,2.86 c-0.33,0.65,-0.81,0.97,-1.44,0.97 c-0.59,-0.0,-1.28,-0.4,-2.05,-1.19 c-0.78,-0.79,-1.52,-1.89,-2.22,-3.3 l0,-23.68 l-6.93,0 l0,24.34 c0,1.26,-0.18,2.21,-0.53,2.86 c-0.35,0.65,-0.82,0.97,-1.41,0.97 c-0.59,-0.0,-1.27,-0.38,-2.02,-1.14 c-0.76,-0.76,-1.51,-1.88,-2.25,-3.35 Z M240.35,103.68 l0,-23.68 l-7.04,0 l0,33.27 l6.99,0 l0,-4.44 l1.39,0 c0.7,1.55,1.57,2.75,2.61,3.6 c1.04,0.85,2.18,1.28,3.44,1.28 c1.33,0,2.48,-0.42,3.44,-1.25 c0.96,-0.83,1.63,-2.04,2.0,-3.63 l1.39,0 c0.67,1.55,1.57,2.75,2.72,3.6 c1.15,0.85,2.44,1.28,3.88,1.28 c1.7,0,3.06,-0.71,4.08,-2.14 c1.02,-1.42,1.52,-3.35,1.52,-5.8 l0,-25.79 l-7.04,0 l0,24.34 c0,1.26,-0.17,2.21,-0.5,2.86 c-0.33,0.65,-0.81,0.97,-1.44,0.97 c-0.59,-0.0,-1.28,-0.4,-2.05,-1.19 c-0.78,-0.79,-1.52,-1.89,-2.22,-3.3 l0,-23.68 l-6.93,0 l0,24.34 c0,1.26,-0.18,2.21,-0.53,2.86 c-0.35,0.65,-0.82,0.97,-1.41,0.97 c-0.59,-0.0,-1.27,-0.38,-2.02,-1.14 c-0.76,-0.76,-1.51,-1.88,-2.25,-3.35 Z M274.12,80 l0,6.38 l10.54,0 l0,20.52 l-10.54,0 l0,6.38 l18.85,0 l0,-26.9 l10.54,0 l0,-6.38 Z M289.15,118.82 c-1.77,0,-3.21,0.28,-4.3,0.83 c-1.09,0.55,-1.64,1.52,-1.64,2.88 l0,0.61 c0,1.4,0.55,2.39,1.64,2.97 c1.09,0.57,2.52,0.86,4.3,0.86 c1.77,0,3.21,-0.29,4.3,-0.86 c1.09,-0.57,1.64,-1.56,1.64,-2.97 l0,-0.61 c0,-1.37,-0.55,-2.33,-1.66,-2.88 c-1.11,-0.55,-2.53,-0.83,-4.27,-0.83 Z M333.46,79.45 c-4.14,0,-7.35,0.98,-9.62,2.94 c-2.27,1.96,-3.41,4.84,-3.41,8.65 l0,15.86 l-8.6,0 l0,6.38 l8.6,0 l0,11.09 l8.32,0 l0,-11.09 l13.31,0 l0,-6.38 l-13.31,0 l0,-14.81 c0,-2.11,0.5,-3.65,1.5,-4.63 c1.0,-0.98,2.4,-1.47,4.21,-1.47 c1.15,0,2.31,0.08,3.49,0.25 c1.18,0.17,2.35,0.45,3.49,0.86 l1.11,-6.32 c-1.0,-0.37,-2.28,-0.68,-3.85,-0.94 c-1.57,-0.26,-3.32,-0.39,-5.24,-0.39 Z M351.76,80 l0,6.38 l10.54,0 l0,20.52 l-10.54,0 l0,6.38 l18.85,0 l0,-26.9 l10.54,0 l0,-6.38 Z M366.79,118.82 c-1.77,0,-3.21,0.28,-4.3,0.83 c-1.09,0.55,-1.64,1.52,-1.64,2.88 l0,0.61 c0,1.4,0.55,2.39,1.64,2.97 c1.09,0.57,2.52,0.86,4.3,0.86 c1.77,0,3.21,-0.29,4.3,-0.86 c1.09,-0.57,1.64,-1.56,1.64,-2.97 l0,-0.61 c0,-1.37,-0.55,-2.33,-1.66,-2.88 c-1.11,-0.55,-2.53,-0.83,-4.27,-0.83 Z M405.94,79.45 c-5.1,0,-8.98,1.1,-11.65,3.3 c-2.66,2.2,-3.99,5.39,-3.99,9.57 l0,8.65 c0,4.18,1.33,7.37,3.99,9.57 c2.66,2.2,6.53,3.3,11.59,3.3 c4.7,0.0,8.22,-1.04,10.56,-3.11 c2.35,-2.07,3.72,-5.03,4.13,-8.87 l-8.04,-0.61 c-0.15,2.22,-0.77,3.81,-1.86,4.77 c-1.09,0.96,-2.76,1.44,-5.02,1.44 c-2.44,0,-4.22,-0.54,-5.35,-1.61 c-1.13,-1.07,-1.69,-2.83,-1.69,-5.27 l0,-7.99 c0,-2.37,0.57,-4.09,1.72,-5.16 c1.15,-1.07,2.96,-1.61,5.43,-1.61 c2.22,0,3.86,0.4,4.94,1.19 c1.07,0.79,1.68,2.1,1.83,3.91 l8.04,-0.61 c-0.26,-3.51,-1.51,-6.2,-3.74,-8.07 c-2.24,-1.87,-5.87,-2.8,-10.9,-2.8 Z M405.94,79.45" fill="rgb(0,0,0)" transform="matrix(1,0,0,-1,0,200)"/>
</svg>