<?xml version="1.0" encoding="UTF-8"?>
<svg height="200" version="1.1" width="500" xmlns="http://www.w3.org/2000/svg" xmlns:xlink="http://www.w3.org/1999/xlink">
 <path d="M0,0 l500,0 l0,200 l-500,0 Z M0,0" fill="rgb(255,255,255)" transform="matrix(1,0,0,-1,0,200)"/>
 <path d="M54.52,86.27 c1.44,0,2.81,0.35,4.1,1.05 c1.29,0.7,2.61,1.77,3.94,3.22 l0,15.14 c-0.92,0.59,-1.94,1.04,-3.05,1.33 c-1.11,0.3,-2.26,0.44,-3.44,0.44 c-2.29,0,-4.0,-0.53,-5.13,-1.58 c-1.13,-1.05,-1.69,-2.65,-1.69,-4.8 l0,-8.65 c0.0,-2.11,0.45,-3.66,1.36,-4.66 c0.91,-1.0,2.21,-1.5,3.91,-1.5 Z M60.9,85.82 c-0.92,-2.0,-2.25,-3.56,-3.97,-4.69 c-1.72,-1.13,-3.69,-1.69,-5.91,-1.69 c-3.22,0,-5.7,1.11,-7.46,3.33 c-1.76,2.22,-2.63,5.06,-2.63,8.54 l0,9.82 c0,3.96,1.24,7.04,3.72,9.26 c2.48,2.22,5.92,3.33,10.31,3.33 c1.33,0,2.64,-0.12,3.94,-0.36 c1.29,-0.24,2.51,-0.58,3.66,-1.03 l0,12.03 l8.32,0 l0,-44.36 l-8.32,0 l0,5.82 Z M80.03,80 l0,6.38 l10.54,0 l0,20.52 l-10.54,0 l0,6.38 l18.85,0 l0,-26.9 l10.54,0 l0,-6.38 Z M95.06,118.82 c-1.77,0,-3.21,0.28,-4.3,0.83 c-1.09,0.55,-1.64,1.52,-1.64,2.88 l0,0.61 c0,1.4,0.55,2.39,1.64,2.97 c1.09,0.57,2.52,0.86,4.3,0.86 c1.77,0,3.21,-0.29,4.3,-0.86 c1.09,-0.57,1.64,-1.56,1.64,-2.97 l0,-0.61 c0,-1.37,-0.55,-2.33,-1.66,-2.88 c-1.11,-0.55,-2.53,-0.83,-4.27,-0.83 Z M133.82,79.56 c-2.88,0,-5.7,0.4,-8.46,1.19 c-2.75,0.79,-5.2,1.97,-7.35,3.52 l2.5,5.49 c2.0,-1.4,4.19,-2.48,6.57,-3.22 c2.38,-0.74,4.67,-1.11,6.85,-1.11 c1.81,0,3.32,0.27,4.52,0.8 c1.2,0.54,1.8,1.54,1.8,3.02 c0,1.37,-0.55,2.35,-1.66,2.94 c-1.11,0.59,-3.09,1.07,-5.93,1.44 c-4.4,0.48,-7.75,1.41,-10.06,2.8 c-2.31,1.39,-3.47,3.67,-3.47,6.85 c0,3.33,1.28,5.92,3.85,7.76 c2.57,1.85,5.81,2.77,9.73,2.77 c2.44,0.0,4.9,-0.39,7.38,-1.16 c2.48,-0.78,4.73,-1.85,6.77,-3.22 l-2.22,-5.27 c-1.89,1.22,-3.83,2.15,-5.82,2.8 c-2.0,0.65,-3.96,0.97,-5.88,0.97 c-1.59,0,-2.91,-0.29,-3.97,-0.86 c-1.05,-0.57,-1.58,-1.54,-1.58,-2.91 c0,-1.37,0.62,-2.33,1.86,-2.88 c1.24,-0.55,3.41,-1.02,6.52,-1.39 c4.29,-0.52,7.49,-1.56,9.59,-3.13 c2.11,-1.57,3.16,-3.8,3.16,-6.68 c0,-3.44,-1.38,-6.05,-4.13,-7.85 c-2.75,-1.79,-6.28,-2.69,-10.56,-2.69 Z M173.03,79.45 c-5.1,0,-8.98,1.1,-11.65,3.3 c-2.66,2.2,-3.99,5.39,-3.99,9.57 l0,8.65 c0,4.18,1.33,7.37,3.99,9.57 c2.66,2.2,6.53,3.3,11.59,3.3 c4.7,0.0,8.22,-1.04,10.56,-3.11 c2.35,-2.07,3.72,-5.03,4.13,-8.87 l-8.04,-0.61 c-0.15,2.22,-0.77,3.81,-1.86,4.77 c-1.09,0.96,-2.76,1.44,-5.02,1.44 c-2.44,0,-4.22,-0.54,-5.35,-1.61 c-1.13,-1.07,-1.69,-2.83,-1.69,-5.27 l0,-7.99 c0,-2.37,0.57,-4.09,1.72,-5.16 c1.15,-1.07,2.96,-1.61,5.43,-1.61 c2.22,0,3.86,0.4,4.94,1.19 c1.07,0.79,1.68,2.1,1.83,3.91 l8.04,-0.61 c-0.26,-3.51,-1.51,-6.2,-3.74,-8.07 c-2.24,-1.87,-5.87,-2.8,-10.9,-2.8 Z M211.18,79.45 c-4.73,0,-8.41,1.1,-11.04,3.3 c-2.62,2.2,-3.94,5.3,-3.94,9.29 l0,8.98 c0,4.07,1.32,7.22,3.97,9.45 c2.64,2.24,6.33,3.36,11.06,3.36 c4.73,0.0,8.4,-1.14,11.01,-3.41 c2.61,-2.27,3.91,-5.44,3.91,-9.51 l0,-8.98 c0,-3.96,-1.31,-7.02,-3.94,-9.21 c-2.62,-2.18,-6.3,-3.27,-11.04,-3.27 Z M211.18,85.82 c2.29,0,3.97,0.53,5.05,1.58 c1.07,1.05,1.61,2.69,1.61,4.91 l0,8.48 c0,2.29,-0.54,3.97,-1.61,5.05 c-1.07,1.07,-2.75,1.61,-5.05,1.61 c-2.29,0,-3.97,-0.54,-5.05,-1.61 c-1.07,-1.07,-1.61,-2.74,-1.61,-4.99 l0,-8.37 c0,-2.29,0.54,-3.97,1.61,-5.05 c1.07,-1.07,2.75,-1.61,5.05,-1.61 Z M255.38,80 l-10.81,0 l-10.7,33.27 l8.26,0 l7.99,-26.78 l8.04,26.78 l7.93,0 Z M304.23,87.6 c-1.22,-2.99,-2.93,-5.1,-5.13,-6.32 c-2.2,-1.22,-5.57,-1.83,-10.12,-1.83 c-4.51,0,-8.16,1.06,-10.95,3.19 c-2.79,2.13,-4.19,5.3,-4.19,9.51 l0,8.87 c0,4.14,1.36,7.31,4.08,9.51 c2.72,2.2,6.37,3.3,10.95,3.3 c4.62,0.0,8.26,-1.11,10.92,-3.33 c2.66,-2.22,3.99,-5.45,3.99,-9.7 l0,-5.82 l-21.63,0 l0,-3.22 c0,-2.18,0.55,-3.81,1.66,-4.88 c1.11,-1.07,2.87,-1.61,5.27,-1.61 c2.11,0,3.76,0.31,4.96,0.94 c1.2,0.63,2.19,1.76,2.97,3.38 Z M282.16,101.57 l0,-1.72 l13.31,0 l0,1.22 c0,2.55,-0.52,4.37,-1.55,5.46 c-1.04,1.09,-2.74,1.64,-5.1,1.64 c-2.37,-0.0,-4.07,-0.52,-5.1,-1.55 c-1.04,-1.04,-1.55,-2.72,-1.55,-5.05 Z M314.6,80 l0,33.27 l8.32,0 l0,-5.82 l1.66,0 c0.81,2.22,2.06,3.84,3.74,4.85 c1.68,1.02,3.69,1.53,6.02,1.52 c2.66,0.0,4.78,-0.82,6.35,-2.47 c1.57,-1.65,2.36,-3.96,2.36,-6.96 l0,-5.6 l-7.65,0 l0,3.05 c0,1.7,-0.38,2.99,-1.14,3.88 c-0.76,0.89,-1.99,1.33,-3.69,1.33 c-1.48,0,-2.87,-0.36,-4.19,-1.08 c-1.31,-0.72,-2.47,-1.89,-3.47,-3.52 l0,-22.46 Z M381.87,87.6 c-1.22,-2.99,-2.93,-5.1,-5.13,-6.32 c-2.2,-1.22,-5.57,-1.83,-10.12,-1.83 c-4.51,0,-8.16,1.06,-10.95,3.19 c-2.79,2.13,-4.19,5.3,-4.19,9.51 l0,8.87 c0,4.14,1.36,7.31,4.08,9.51 c2.72,2.2,6.37,3.3,10.95,3.3 c4.62,0.0,8.26,-1.11,10.92,-3.33 c2.66,-2.22,3.99,-5.45,3.99,-9.7 l0,-5.82 l-21.63,0 l0,-3.22 c0,-2.18,0.55,-3.81,1.66,-4.88 c1.11,-1.07,2.87,-1.61,5.27,-1.61 c2.11,0,3.76,0.31,4.96,0.94 c1.2,0.63,2.19,1.76,2.97,3.38 Z M359.8,101.57 l0,-1.72 l13.31,0 l0,1.22 c0,2.55,-0.52,4.37,-1.55,5.46 c-1.04,1.09,-2.74,1.64,-5.1,1.64 c-2.37,-0.0,-4.07,-0.52,-5.1,-1.55 c-1.04,-1.04,-1.55,-2.72,-1.55,-5.05 Z M390.3,80 l0,33.27 l8.32,0 l0,-5.82 l1.66,0 c0.85,2.0,2.19,3.56,4.02,4.69 c1.83,1.13,3.91,1.69,6.24,1.69 c3.03,0.0,5.41,-0.95,7.13,-2.86 c1.72,-1.9,2.58,-4.52,2.58,-7.85 l0,-23.12 l-8.32,0 l0,21.63 c0.0,1.77,-0.42,3.12,-1.25,4.05 c-0.83,0.92,-2.04,1.39,-3.63,1.39 c-1.4,0,-2.85,-0.4,-4.33,-1.19 c-1.48,-0.79,-2.85,-1.99,-4.1,-3.58 l0,-22.29 Z M449.91,79.45 c-4.14,0,-7.35,0.98,-9.62,2.94 c-2.27,1.96,-3.41,4.84,-3.41,8.65 l0,15.86 l-8.6,0 l0,6.38 l8.6,0 l0,11.09 l8.32,0 l0,-11.09 l13.31,0 l0,-6.38 l-13.31,0 l0,-14.81 c-0.0,-2.11,0.5,-3.65,1.5,-4.63 c1.0,-0.98,2.4,-1.47,4.21,-1.47 c1.15,0,2.31,0.08,3.49,0.25 c1.18,0.17,2.35,0.45,3.49,0.86 l1.11,-6.32 c-1.0,-0.37,-2.28,-0.68,-3.85,-0.94 c-1.57,-0.26,-3.32,-0.39,-5.24,-0.39 Z M449.91,79.45" fill="rgb(0,0,0)" transform="matrix(1,0,0,-1,0,200)"/>
</svg>