<?xml version="1.0" encoding="UTF-8"?>
<svg height="200" version="1.1" width="500" xmlns="http://www.w3.org/2000/svg" xmlns:xlink="http://www.w3.org/1999/xlink">
 <path d="M0,0 l500,0 l0,200 l-500,0 Z M0,0" fill="rgb(255,255,255)" transform="matrix(1,0,0,-1,0,200)"/>
 <path d="M55.91,79.45 c-4.73,0,-8.41,1.1,-11.04,3.3 c-2.62,2.2,-3.94,5.3,-3.94,9.29 l0,8.98 c0,4.07,1.32,7.22,3.97,9.45 c2.64,2.24,6.33,3.36,11.06,3.36 c4.73,0.0,8.4,-1.14,11.01,-3.41 c2.61,-2.27,3.91,-5.44,3.91,-9.51 l0,-8.98 c0,-3.96,-1.31,-7.02,-3.94,-9.21 c-2.62,-2.18,-6.3,-3.27,-11.04,-3.27 Z M55.91,85.82 c2.29,0,3.97,0.53,5.05,1.58 c1.07,1.05,1.61,2.69,1.61,4.91 l0,8.48 c0,2.29,-0.54,3.97,-1.61,5.05 c-1.07,1.07,-2.75,1.61,-5.05,1.61 c-2.29,0,-3.97,-0.54,-5.05,-1.61 c-1.07,-1.07,-1.61,-2.74,-1.61,-4.99 l0,-8.37 c0.0,-2.29,0.54,-3.97,1.61,-5.05 c1.07,-1.07,2.75,-1.61,5.05,-1.61 Z M95.39,79.45 c-5.1,0,-8.98,1.1,-11.65,3.3 c-2.66,2.2,-3.99,5.39,-3.99,9.57 l0,8.65 c0,4.18,1.33,7.37,3.99,9.57 c2.66,2.2,6.53,3.3,11.59,3.3 c4.7,0.0,8.22,-1.04,10.56,-3.11 c2.35,-2.07,3.72,-5.03,4.13,-8.87 l-8.04,-0.61 c-0.15,2.22,-0.77,3.81,-1.86,4.77 c-1.09,0.96,-2.76,1.44,-5.02,1.44 c-2.44,0,-4.22,-0.54,-5.35,-1.61 c-1.13,-1.07,-1.69,-2.83,-1.69,-5.27 l0,-7.99 c0,-2.37,0.57,-4.09,1.72,-5.16 c1.15,-1.07,2.96,-1.61,5.43,-1.61 c2.22,0,3.86,0.4,4.94,1.19 c1.07,0.79,1.68,2.1,1.83,3.91 l8.04,-0.61 c-0.26,-3.51,-1.51,-6.2,-3.74,-8.07 c-2.24,-1.87,-5.87,-2.8,-10.9,-2.8 Z M134.21,79.45 c-5.1,0,-8.98,1.1,-11.65,3.3 c-2.66,2.2,-3.99,5.39,-3.99,9.57 l0,8.65 c0,4.18,1.33,7.37,3.99,9.57 c2.66,2.2,6.53,3.3,11.59,3.3 c4.7,0.0,8.22,-1.04,10.56,-3.11 c2.35,-2.07,3.72,-5.03,4.13,-8.87 l-8.04,-0.61 c-0.15,2.22,-0.77,3.81,-1.86,4.77 c-1.09,0.96,-2.76,1.44,-5.02,1.44 c-2.44,0,-4.22,-0.54,-5.35,-1.61 c-1.13,-1.07,-1.69,-2.83,-1.69,-5.27 l0,-7.99 c0,-2.37,0.57,-4.09,1.72,-5.16 c1.15,-1.07,2.96,-1.61,5.43,-1.61 c2.22,0,3.86,0.4,4.94,1.19 c1.07,0.79,1.68,2.1,1.83,3.91 l8.04,-0.61 c-0.26,-3.51,-1.51,-6.2,-3.74,-8.07 c-2.24,-1.87,-5.87,-2.8,-10.9,-2.8 Z M172.36,79.45 c-4.73,0,-8.41,1.1,-11.04,3.3 c-2.62,2.2,-3.94,5.3,-3.94,9.29 l0,8.98 c0,4.07,1.32,7.22,3.97,9.45 c2.64,2.24,6.33,3.36,11.06,3.36 c4.73,0.0,8.4,-1.14,11.01,-3.41 c2.61,-2.27,3.91,-5.44,3.91,-9.51 l0,-8.98 c0,-3.96,-1.31,-7.02,-3.94,-9.21 c-2.62,-2.18,-6.3,-3.27,-11.04,-3.27 Z M172.36,85.82 c2.29,0,3.97,0.53,5.05,1.58 c1.07,1.05,1.61,2.69,1.61,4.91 l0,8.48 c0,2.29,-0.54,3.97,-1.61,5.05 c-1.07,1.07,-2.75,1.61,-5.05,1.61 c-2.29,0,-3.97,-0.54,-5.05,-1.61 c-1.07,-1.07,-1.61,-2.74,-1.61,-4.99 l0,-8.37 c0,-2.29,0.54,-3.97,1.61,-5.05 c1.07,-1.07,2.75,-1.61,5.05,-1.61 Z M228.37,77.95 c0,-3.03,-1.13,-5.39,-3.38,-7.07 c-2.26,-1.68,-5.16,-2.52,-8.71,-2.52 l-9.98,0 c-3.88,0,-6.9,0.71,-9.07,2.13 c-2.16,1.42,-3.24,3.35,-3.24,5.8 c0,1.81,0.54,3.27,1.61,4.38 c1.07,1.11,2.48,1.76,4.21,1.94 l0,1.11 c-1.33,0.33,-2.44,0.92,-3.33,1.77 c-0.89,0.85,-1.33,2.16,-1.33,3.94 c0,1.85,0.62,3.41,1.86,4.69 c1.24,1.28,2.99,2.02,5.24,2.25 l0,1.05 c-1.89,0.52,-3.24,1.36,-4.08,2.52 c-0.83,1.16,-1.25,2.43,-1.25,3.8 l0,0.78 c0,2.7,1.16,4.83,3.49,6.41 c2.33,1.57,5.38,2.36,9.15,2.36 l18.13,0 l0,-5.55 l-8.87,1.16 l0,-1.05 c1.4,-0.37,2.52,-1.1,3.35,-2.19 c0.83,-1.09,1.25,-2.25,1.25,-3.47 l0,-0.83 c0,-2.66,-1.12,-4.75,-3.35,-6.27 c-2.24,-1.52,-5.37,-2.27,-9.4,-2.27 l-5.77,0 c-1.11,0,-1.97,-0.22,-2.58,-0.67 c-0.61,-0.44,-0.91,-1.2,-0.91,-2.27 c0,-1.04,0.35,-1.79,1.05,-2.27 c0.7,-0.48,1.72,-0.72,3.05,-0.72 l11.2,0 c3.44,0,6.24,-0.72,8.4,-2.16 c2.16,-1.44,3.24,-3.7,3.24,-6.77 Z M210.24,97.41 c1.89,0,3.28,0.37,4.19,1.11 c0.91,0.74,1.36,1.79,1.36,3.16 l0,2.27 c0,1.33,-0.46,2.35,-1.39,3.05 c-0.92,0.7,-2.31,1.05,-4.16,1.05 c-1.89,0,-3.28,-0.35,-4.19,-1.05 c-0.91,-0.7,-1.36,-1.72,-1.36,-3.05 l0,-2.27 c0,-1.37,0.45,-2.42,1.36,-3.16 c0.91,-0.74,2.3,-1.11,4.19,-1.11 Z M206.3,73.62 l10.26,0 c1.44,0,2.62,0.24,3.52,0.72 c0.91,0.48,1.36,1.4,1.36,2.77 c0,1.37,-0.43,2.29,-1.28,2.77 c-0.85,0.48,-1.96,0.72,-3.33,0.72 l-14.86,0 l0,-3.22 c0,-1.26,0.36,-2.2,1.08,-2.83 c0.72,-0.63,1.8,-0.94,3.24,-0.94 Z M235.03,80 l0,33.27 l8.32,0 l0,-5.82 l1.66,0 c0.85,2.0,2.19,3.56,4.02,4.69 c1.83,1.13,3.91,1.69,6.24,1.69 c3.03,0.0,5.41,-0.95,7.13,-2.86 c1.72,-1.9,2.58,-4.52,2.58,-7.85 l0,-23.12 l-8.32,0 l0,21.63 c0,1.77,-0.42,3.12,-1.25,4.05 c-0.83,0.92,-2.04,1.39,-3.63,1.39 c-1.4,0,-2.85,-0.4,-4.33,-1.19 c-1.48,-0.79,-2.85,-1.99,-4.1,-3.58 l0,-22.29 Z M284.99,85.16 c1.55,0,2.99,0.25,4.33,0.75 c1.33,0.5,2.55,1.28,3.66,2.36 l0,5.38 l-8.32,0 c-1.37,0,-2.45,-0.3,-3.24,-0.89 c-0.79,-0.59,-1.19,-1.74,-1.19,-3.44 c0,-1.33,0.37,-2.36,1.11,-3.08 c0.74,-0.72,1.96,-1.08,3.66,-1.08 Z M283.16,79.45 c-3.03,0,-5.57,0.81,-7.62,2.44 c-2.05,1.63,-3.08,4.01,-3.08,7.15 c0,3.03,1.04,5.37,3.11,7.02 c2.07,1.65,4.71,2.47,7.93,2.47 l9.48,0 l0,4.27 c0,1.66,-0.5,2.88,-1.5,3.66 c-1.0,0.78,-2.5,1.16,-4.49,1.16 c-2.03,0,-3.55,-0.34,-4.55,-1.03 c-1.0,-0.68,-1.76,-2.08,-2.27,-4.19 l-6.93,1.39 c0.74,3.55,2.2,6.11,4.38,7.68 c2.18,1.57,5.36,2.36,9.54,2.36 c4.33,0.0,7.72,-0.87,10.18,-2.61 c2.46,-1.74,3.69,-4.44,3.69,-8.1 l0,-13.42 c0,-1.7,0.5,-2.75,1.5,-3.16 c1.0,-0.41,2.44,-0.48,4.33,-0.22 l0,-6.27 c-2.7,-0.55,-5.02,-0.47,-6.96,0.25 c-1.94,0.72,-3.15,2.38,-3.63,4.96 l-1.39,0 c-1.11,-1.59,-2.7,-2.96,-4.77,-4.1 c-2.07,-1.15,-4.38,-1.72,-6.93,-1.72 Z M313.22,80 l0,6.38 l10.81,0 l0,31.61 l-10.81,0 l0,6.38 l19.13,0 l0,-37.99 l10.54,0 l0,-6.38 Z M351.76,80 l0,6.38 l10.54,0 l0,20.52 l-10.54,0 l0,6.38 l18.85,0 l0,-26.9 l10.54,0 l0,-6.38 Z M366.79,118.82 c-1.77,0,-3.21,0.28,-4.3,0.83 c-1.09,0.55,-1.64,1.52,-1.64,2.88 l0,0.61 c0,1.4,0.55,2.39,1.64,2.97 c1.09,0.57,2.52,0.86,4.3,0.86 c1.77,0,3.21,-0.29,4.3,-0.86 c1.09,-0.57,1.64,-1.56,1.64,-2.97 l0,-0.61 c0,-1.37,-0.55,-2.33,-1.66,-2.88 c-1.11,-0.55,-2.53,-0.83,-4.27,-0.83 Z M411.1,79.45 c-4.14,0,-7.35,0.98,-9.62,2.94 c-2.27,1.96,-3.41,4.84,-3.41,8.65 l0,15.86 l-8.6,0 l0,6.38 l8.6,0 l0,11.09 l8.32,0 l0,-11.09 l13.31,0 l0,-6.38 l-13.31,0 l0,-14.81 c0,-2.11,0.5,-3.65,1.5,-4.63 c1.0,-0.98,2.4,-1.47,4.21,-1.47 c1.15,0,2.31,0.08,3.49,0.25 c1.18,0.17,2.35,0.45,3.49,0.86 l1.11,-6.32 c-1.0,-0.37,-2.28,-0.68,-3.85,-0.94 c-1.57,-0.26,-3.32,-0.39,-5.24,-0.39 Z M434.89,68.41 c-1.07,0,-2.19,0.06,-3.35,0.17 c-1.16,0.11,-2.38,0.26,-3.63,0.44 l0.72,6.38 c1.29,-0.26,2.46,-0.45,3.49,-0.58 c1.04,-0.13,1.96,-0.19,2.77,-0.19 c1.89,0,3.41,0.44,4.57,1.33 c1.16,0.89,2.1,2.48,2.8,4.77 l0.11,0.39 l-4.55,0 l-10.43,32.16 l8.65,0 l8.04,-26.62 l8.32,26.62 l8.32,0 l-11.2,-33.38 c-1.37,-4.18,-3.2,-7.14,-5.49,-8.87 c-2.29,-1.74,-5.34,-2.61,-9.15,-2.61 Z M434.89,68.41" fill="rgb(0,0,0)" transform="matrix(1,0,0,-1,0,200)"/>
</svg>