<?xml version="1.0" encoding="UTF-8"?>
<svg height="200" version="1.1" width="500" xmlns="http://www.w3.org/2000/svg" xmlns:xlink="http://www.w3.org/1999/xlink">
 <path d="M0,0 l500,0 l0,200 l-500,0 Z M0,0" fill="rgb(255,255,255)" transform="matrix(1,0,0,-1,0,200)"/>
 <path d="M75.21,85.88 c2.33,0,4.04,0.5,5.13,1.5 c1.09,1.0,1.64,2.62,1.64,4.88 l0,8.65 c0,2.11,-0.44,3.66,-1.33,4.66 c-0.89,1.0,-2.2,1.5,-3.94,1.5 c-1.44,0,-2.8,-0.35,-4.08,-1.05 c-1.28,-0.7,-2.6,-1.79,-3.97,-3.27 l0,-15.08 c1.04,-0.59,2.05,-1.04,3.05,-1.33 c1.0,-0.3,2.16,-0.44,3.49,-0.44 Z M76.26,79.56 c-1.26,0,-2.55,0.12,-3.88,0.36 c-1.33,0.24,-2.57,0.6,-3.72,1.08 l0,-12.09 l-8.32,0 l0,44.36 l8.32,0 l0,-5.82 l1.66,0 c0.89,1.96,2.22,3.51,3.99,4.66 c1.77,1.15,3.73,1.72,5.88,1.72 c3.11,0.0,5.56,-1.06,7.38,-3.19 c1.81,-2.13,2.72,-5.02,2.72,-8.68 l0,-9.82 c0,-3.84,-1.26,-6.9,-3.77,-9.18 c-2.51,-2.27,-5.93,-3.41,-10.26,-3.41 Z M101.1,80 l0,33.27 l8.32,0 l0,-5.82 l1.66,0 c0.81,2.22,2.06,3.84,3.74,4.85 c1.68,1.02,3.69,1.53,6.02,1.52 c2.66,0.0,4.78,-0.82,6.35,-2.47 c1.57,-1.65,2.36,-3.96,2.36,-6.96 l0,-5.6 l-7.65,0 l0,3.05 c0.0,1.7,-0.38,2.99,-1.14,3.88 c-0.76,0.89,-1.99,1.33,-3.69,1.33 c-1.48,0,-2.87,-0.36,-4.19,-1.08 c-1.31,-0.72,-2.47,-1.89,-3.47,-3.52 l0,-22.46 Z M168.37,87.6 c-1.22,-2.99,-2.93,-5.1,-5.13,-6.32 c-2.2,-1.22,-5.57,-1.83,-10.12,-1.83 c-4.51,0,-8.16,1.06,-10.95,3.19 c-2.79,2.13,-4.19,5.3,-4.19,9.51 l0,8.87 c0,4.14,1.36,7.31,4.08,9.51 c2.72,2.2,6.37,3.3,10.95,3.3 c4.62,0.0,8.26,-1.11,10.92,-3.33 c2.66,-2.22,3.99,-5.45,3.99,-9.7 l0,-5.82 l-21.63,0 l0,-3.22 c0,-2.18,0.55,-3.81,1.66,-4.88 c1.11,-1.07,2.87,-1.61,5.27,-1.61 c2.11,0,3.76,0.31,4.96,0.94 c1.2,0.63,2.19,1.76,2.97,3.38 Z M146.3,101.57 l0,-1.72 l13.31,0 l0,1.22 c0,2.55,-0.52,4.37,-1.55,5.46 c-1.04,1.09,-2.74,1.64,-5.1,1.64 c-2.37,-0.0,-4.07,-0.52,-5.1,-1.55 c-1.04,-1.04,-1.55,-2.72,-1.55,-5.05 Z M197.6,79.45 c-4.14,0,-7.35,0.98,-9.62,2.94 c-2.27,1.96,-3.41,4.84,-3.41,8.65 l0,15.86 l-8.6,0 l0,6.38 l8.6,0 l0,11.09 l8.32,0 l0,-11.09 l13.31,0 l0,-6.38 l-13.31,0 l0,-14.81 c0,-2.11,0.5,-3.65,1.5,-4.63 c1.0,-0.98,2.4,-1.47,4.21,-1.47 c1.15,0,2.31,0.08,3.49,0.25 c1.18,0.17,2.35,0.45,3.49,0.86 l1.11,-6.32 c-1.0,-0.37,-2.28,-0.68,-3.85,-0.94 c-1.57,-0.26,-3.32,-0.39,-5.24,-0.39 Z M246.01,87.6 c-1.22,-2.99,-2.93,-5.1,-5.13,-6.32 c-2.2,-1.22,-5.57,-1.83,-10.12,-1.83 c-4.51,0,-8.16,1.06,-10.95,3.19 c-2.79,2.13,-4.19,5.3,-4.19,9.51 l0,8.87 c0,4.14,1.36,7.31,4.08,9.51 c2.72,2.2,6.37,3.3,10.95,3.3 c4.62,0.0,8.26,-1.11,10.92,-3.33 c2.66,-2.22,3.99,-5.45,3.99,-9.7 l0,-5.82 l-21.63,0 l0,-3.22 c0,-2.18,0.55,-3.81,1.66,-4.88 c1.11,-1.07,2.87,-1.61,5.27,-1.61 c2.11,0,3.76,0.31,4.96,0.94 c1.2,0.63,2.19,1.76,2.97,3.38 Z M223.94,101.57 l0,-1.72 l13.31,0 l0,1.22 c0,2.55,-0.52,4.37,-1.55,5.46 c-1.04,1.09,-2.74,1.64,-5.1,1.64 c-2.37,-0.0,-4.07,-0.52,-5.1,-1.55 c-1.04,-1.04,-1.55,-2.72,-1.55,-5.05 Z M270.07,79.45 c-5.1,0,-8.98,1.1,-11.65,3.3 c-2.66,2.2,-3.99,5.39,-3.99,9.57 l0,8.65 c0,4.18,1.33,7.37,3.99,9.57 c2.66,2.2,6.53,3.3,11.59,3.3 c4.7,0.0,8.22,-1.04,10.56,-3.11 c2.35,-2.07,3.72,-5.03,4.13,-8.87 l-8.04,-0.61 c-0.15,2.22,-0.77,3.81,-1.86,4.77 c-1.09,0.96,-2.76,1.44,-5.02,1.44 c-2.44,0,-4.22,-0.54,-5.35,-1.61 c-1.13,-1.07,-1.69,-2.83,-1.69,-5.27 l0,-7.99 c0,-2.37,0.57,-4.09,1.72,-5.16 c1.15,-1.07,2.96,-1.61,5.43,-1.61 c2.22,0,3.86,0.4,4.94,1.19 c1.07,0.79,1.68,2.1,1.83,3.91 l8.04,-0.61 c-0.26,-3.51,-1.51,-6.2,-3.74,-8.07 c-2.24,-1.87,-5.87,-2.8,-10.9,-2.8 Z M314.05,79.45 c-4.14,0,-7.35,0.98,-9.62,2.94 c-2.27,1.96,-3.41,4.84,-3.41,8.65 l0,15.86 l-8.6,0 l0,6.38 l8.6,0 l0,11.09 l8.32,0 l0,-11.09 l13.31,0 l0,-6.38 l-13.31,0 l0,-14.81 c0,-2.11,0.5,-3.65,1.5,-4.63 c1.0,-0.98,2.4,-1.47,4.21,-1.47 c1.15,0,2.31,0.08,3.49,0.25 c1.18,0.17,2.35,0.45,3.49,0.86 l1.11,-6.32 c-1.0,-0.37,-2.28,-0.68,-3.85,-0.94 c-1.57,-0.26,-3.32,-0.39,-5.24,-0.39 Z M362.46,87.6 c-1.22,-2.99,-2.93,-5.1,-5.13,-6.32 c-2.2,-1.22,-5.57,-1.83,-10.12,-1.83 c-4.51,0,-8.16,1.06,-10.95,3.19 c-2.79,2.13,-4.19,5.3,-4.19,9.51 l0,8.87 c0,4.14,1.36,7.31,4.08,9.51 c2.72,2.2,6.37,3.3,10.95,3.3 c4.62,0.0,8.26,-1.11,10.92,-3.33 c2.66,-2.22,3.99,-5.45,3.99,-9.7 l0,-5.82 l-21.63,0 l0,-3.22 c0,-2.18,0.55,-3.81,1.66,-4.88 c1.11,-1.07,2.87,-1.61,5.27,-1.61 c2.11,0,3.76,0.31,4.96,0.94 c1.2,0.63,2.19,1.76,2.97,3.38 Z M340.39,101.57 l0,-1.72 l13.31,0 l0,1.22 c0,2.55,-0.52,4.37,-1.55,5.46 c-1.04,1.09,-2.74,1.64,-5.1,1.64 c-2.37,-0.0,-4.07,-0.52,-5.1,-1.55 c-1.04,-1.04,-1.55,-2.72,-1.55,-5.05 Z M371.45,80 l0,6.38 l10.81,0 l0,31.61 l-10.81,0 l0,6.38 l19.13,0 l0,-37.99 l10.54,0 l0,-6.38 Z M415.48,68.41 c-1.07,0,-2.19,0.06,-3.35,0.17 c-1.16,0.11,-2.38,0.26,-3.63,0.44 l0.72,6.38 c1.29,-0.26,2.46,-0.45,3.49,-0.58 c1.04,-0.13,1.96,-0.19,2.77,-0.19 c1.89,0,3.41,0.44,4.57,1.33 c1.16,0.89,2.1,2.48,2.8,4.77 l0.11,0.39 l-4.55,0 l-10.43,32.16 l8.65,0 l8.04,-26.62 l8.32,26.62 l8.32,0 l-11.2,-33.38 c-1.37,-4.18,-3.2,-7.14,-5.49,-8.87 c-2.29,-1.74,-5.34,-2.61,-9.15,-2.61 Z M415.48,68.41" fill="rgb(0,0,0)" transform="matrix(1,0,0,-1,0,200)"/>
</svg>