<?xml version="1.0" encoding="UTF-8"?>
<svg height="200" version="1.1" width="500" xmlns="http://www.w3.org/2000/svg" xmlns:xlink="http://www.w3.org/1999/xlink">
 <path d="M0,0 l500,0 l0,200 l-500,0 Z M0,0" fill="rgb(255,255,255)" transform="matrix(1,0,0,-1,0,200)"/>
 <path d="M97.87,79.93 l-0.49,6.16 c-5.25,0.67,-9.7,5.67,-10.55,11.59 c-0.91,6.41,2.68,10.74,8.17,10.74 c4.7,0,8.11,-2.87,9.64,-5.49 l2.62,-18.54 c1.22,-3.36,4.82,-4.45,7.02,-4.45 c3.42,0,5.49,1.46,6.22,3.11 l-2.32,3.72 c-0.18,-0.37,-0.67,-0.49,-1.22,-0.49 c-1.77,0,-2.62,1.71,-3.05,4.45 l-3.29,22.94 l-7.32,0 l0.55,-3.96 c-1.28,1.83,-4.94,4.76,-9.94,4.76 c-9.45,0,-15.8,-7.5,-14.4,-17.51 c1.28,-9.27,9.21,-16.77,18.36,-17.02 Z M138.13,79.81 l-0.55,6.71 c-2.44,0.49,-4.82,2.38,-5.25,5.73 l-3.05,21.41 l-7.5,0 l3.11,-21.9 c1.16,-8.54,6.89,-11.9,13.24,-11.96 Z M150.27,79.63 l6.34,2.68 c-0.98,1.46,-1.71,3.9,-2.14,6.89 l-3.48,24.46 l-7.56,0 l4.15,-29.46 c0.49,-2.26,1.95,-3.84,2.68,-4.58 Z M159.42,107.32 l21.17,0 l-0.91,6.34 l-8.42,0 l-1.4,10.07 l-7.5,-0.43 l1.34,-9.64 l-5.19,0 Z M178.75,79.81 c3.66,0,6.22,1.34,7.5,2.87 l-2.44,5.55 c-0.92,-1.04,-2.26,-1.53,-4.15,-1.53 c-2.62,0,-4.88,1.95,-5.37,5.25 l-0.24,1.89 l-7.56,0 l0.31,-2.38 c1.22,-8.3,5.43,-11.65,11.96,-11.65 Z M187.17,107.32 l21.17,0 l-0.91,6.34 l-8.42,0 l-1.4,10.07 l-7.5,-0.43 l1.34,-9.64 l-5.19,0 Z M206.51,79.81 c3.66,0,6.22,1.34,7.5,2.87 l-2.44,5.55 c-0.92,-1.04,-2.26,-1.53,-4.15,-1.53 c-2.62,0,-4.88,1.95,-5.37,5.25 l-0.24,1.89 l-7.56,0 l0.31,-2.38 c1.22,-8.3,5.43,-11.65,11.96,-11.65 Z M233.04,114.34 l0.49,-6.28 c3.9,-0.79,6.95,-3.78,7.5,-7.93 l-6.22,0.24 l0.79,-5.73 l12.75,0.18 c0.18,0.85,0.24,2.81,0.06,4.45 c-1.04,7.32,-6.16,14.09,-15.37,15.07 Z M216.45,96.4 c1.4,-10.13,9.15,-16.59,19.82,-16.59 c6.34,0,11.28,1.59,13.72,3.72 l-2.32,5.73 c-2.2,-1.95,-6.41,-2.93,-11.04,-2.93 c-5.55,0,-11.04,3.11,-12.02,8.54 l-2.26,17.26 c-4.76,-3.05,-6.89,-8.97,-5.92,-15.74 Z M269.4,79.81 l-0.55,6.71 c-2.44,0.49,-4.82,2.38,-5.25,5.73 l-3.05,21.41 l-7.5,0 l3.11,-21.9 c1.16,-8.54,6.89,-11.9,13.24,-11.96 Z M281.54,79.63 l6.34,2.68 c-0.98,1.46,-1.71,3.9,-2.13,6.89 l-3.48,24.46 l-7.56,0 l4.15,-29.46 c0.49,-2.26,1.95,-3.84,2.68,-4.58 Z M313.56,80.67 l-17.81,33.0 l-7.87,0 l17.81,-33.0 Z M311.85,103.3 l5.06,-9.45 l5.25,19.82 l-7.69,0 Z M329.91,93.84 l7.5,0 l-1.28,8.72 c0.98,3.17,2.87,5.25,6.04,5.25 c1.83,0,3.05,-0.91,3.78,-1.77 l1.16,7.38 c-1.1,0.67,-2.5,1.04,-3.84,1.04 c-4.51,0,-6.83,-2.07,-7.99,-4.64 l-0.67,3.84 l-7.5,0 Z M355.9,120.19 c2.99,0,4.39,2.38,4.03,4.7 c-0.24,2.01,-2.01,3.9,-4.45,3.9 c-2.93,0,-4.51,-2.38,-4.21,-4.76 c0.31,-1.95,1.95,-3.84,4.64,-3.84 Z M357.91,80.67 l7.56,0 l-4.64,33.18 l-7.5,-0.49 Z M368.83,107.32 l21.17,0 l-0.91,6.34 l-8.42,0 l-1.4,10.07 l-7.5,-0.43 l1.34,-9.64 l-5.19,0 Z M388.17,79.81 c3.66,0,6.22,1.34,7.5,2.87 l-2.44,5.55 c-0.91,-1.04,-2.26,-1.53,-4.15,-1.53 c-2.62,0,-4.88,1.95,-5.37,5.25 l-0.24,1.89 l-7.56,0 l0.3,-2.38 c1.22,-8.3,5.43,-11.65,11.96,-11.65 Z M407.14,93.84 l2.32,9.03 l-6.65,10.8 l-8.3,0 Z M405.12,66.82 c7.81,0,12.87,5.37,15.49,16.04 l7.69,30.8 l-7.93,0 l-7.08,-29.34 c-1.95,-7.69,-6.1,-11.22,-10.55,-11.22 c-1.52,0,-2.5,0.37,-3.11,0.67 l2.87,-6.41 c0.43,-0.24,1.65,-0.55,2.62,-0.55 Z M405.12,66.82" fill="rgb(0,0,0)" transform="matrix(1,0,0,-1,0,200)"/>
</svg>