<?xml version="1.0" encoding="UTF-8"?>
<svg height="200" version="1.1" width="500" xmlns="http://www.w3.org/2000/svg" xmlns:xlink="http://www.w3.org/1999/xlink">
 <path d="M0,0 l500,0 l0,200 l-500,0 Z M0,0" fill="rgb(255,255,255)" transform="matrix(1,0,0,-1,0,200)"/>
 <path d="M160.62,84.16 c-2.12,-1.8,-4.15,-3.07,-6.11,-3.81 c-1.96,-0.74,-4.06,-1.11,-6.3,-1.11 c-3.7,0,-6.55,0.9,-8.54,2.71 c-1.99,1.81,-2.98,4.12,-2.98,6.93 c0,1.65,0.38,3.16,1.13,4.52 c0.75,1.36,1.74,2.46,2.95,3.28 c1.22,0.83,2.59,1.45,4.11,1.87 c1.12,0.3,2.81,0.58,5.08,0.86 c4.61,0.55,8.01,1.21,10.19,1.97 c0.02,0.78,0.03,1.28,0.03,1.49 c0,2.33,-0.54,3.97,-1.62,4.92 c-1.46,1.29,-3.63,1.94,-6.51,1.94 c-2.69,0,-4.67,-0.47,-5.95,-1.41 c-1.28,-0.94,-2.23,-2.61,-2.84,-5.0 l-5.59,0.76 c0.51,2.39,1.34,4.32,2.51,5.79 c1.16,1.47,2.85,2.6,5.05,3.4 c2.2,0.79,4.75,1.19,7.65,1.19 c2.88,0,5.22,-0.34,7.01,-1.02 c1.8,-0.68,3.12,-1.53,3.97,-2.55 c0.85,-1.03,1.44,-2.32,1.78,-3.89 c0.19,-0.97,0.29,-2.73,0.29,-5.27 l0,-7.62 c0,-5.31,0.12,-8.67,0.36,-10.08 c0.24,-1.41,0.72,-2.76,1.44,-4.05 l-5.97,0 c-0.59,1.18,-0.97,2.57,-1.14,4.16 Z M160.15,96.92 c-2.07,-0.85,-5.18,-1.57,-9.33,-2.16 c-2.35,-0.34,-4.01,-0.72,-4.98,-1.14 c-0.97,-0.42,-1.72,-1.04,-2.25,-1.86 c-0.53,-0.81,-0.79,-1.72,-0.79,-2.71 c0,-1.52,0.58,-2.79,1.73,-3.81 c1.15,-1.02,2.84,-1.52,5.06,-1.52 c2.2,0,4.16,0.48,5.87,1.44 c1.71,0.96,2.97,2.28,3.78,3.95 c0.61,1.29,0.92,3.19,0.92,5.71 Z M196.65,80 l0,4.25 c-2.14,-3.34,-5.28,-5.01,-9.43,-5.01 c-2.69,0,-5.16,0.74,-7.41,2.22 c-2.25,1.48,-4.0,3.55,-5.24,6.2 c-1.24,2.66,-1.86,5.71,-1.86,9.16 c0,3.36,0.56,6.42,1.68,9.16 c1.12,2.74,2.8,4.84,5.05,6.3 c2.24,1.46,4.75,2.19,7.52,2.19 c2.03,0,3.84,-0.43,5.43,-1.29 c1.59,-0.86,2.88,-1.97,3.87,-3.35 l0,16.69 l5.68,0 l0,-46.53 Z M178.59,96.82 c0,-4.32,0.91,-7.54,2.73,-9.68 c1.82,-2.14,3.97,-3.21,6.44,-3.21 c2.5,0,4.62,1.02,6.36,3.06 c1.75,2.04,2.62,5.16,2.62,9.35 c0,4.61,-0.89,8.0,-2.67,10.16 c-1.78,2.16,-3.97,3.24,-6.57,3.24 c-2.54,0,-4.66,-1.04,-6.36,-3.11 c-1.7,-2.07,-2.55,-5.34,-2.55,-9.81 Z M220.29,80 l-12.82,33.71 l6.03,0 l7.24,-20.19 c0.78,-2.18,1.5,-4.44,2.16,-6.79 c0.51,1.78,1.22,3.91,2.13,6.41 l7.49,20.57 l5.87,0 l-12.76,-33.71 Z M265.42,84.16 c-2.12,-1.8,-4.15,-3.07,-6.11,-3.81 c-1.96,-0.74,-4.06,-1.11,-6.3,-1.11 c-3.7,0,-6.55,0.9,-8.54,2.71 c-1.99,1.81,-2.98,4.12,-2.98,6.93 c0,1.65,0.38,3.16,1.13,4.52 c0.75,1.36,1.74,2.46,2.95,3.28 c1.22,0.83,2.59,1.45,4.11,1.87 c1.12,0.3,2.81,0.58,5.08,0.86 c4.61,0.55,8.01,1.21,10.19,1.97 c0.02,0.78,0.03,1.28,0.03,1.49 c0,2.33,-0.54,3.97,-1.62,4.92 c-1.46,1.29,-3.63,1.94,-6.51,1.94 c-2.69,0,-4.67,-0.47,-5.95,-1.41 c-1.28,-0.94,-2.23,-2.61,-2.84,-5.0 l-5.59,0.76 c0.51,2.39,1.34,4.32,2.51,5.79 c1.16,1.47,2.85,2.6,5.05,3.4 c2.2,0.79,4.75,1.19,7.65,1.19 c2.88,0,5.22,-0.34,7.01,-1.02 c1.8,-0.68,3.12,-1.53,3.97,-2.55 c0.85,-1.03,1.44,-2.32,1.78,-3.89 c0.19,-0.97,0.29,-2.73,0.29,-5.27 l0,-7.62 c0,-5.31,0.12,-8.67,0.36,-10.08 c0.24,-1.41,0.72,-2.76,1.44,-4.05 l-5.97,0 c-0.59,1.18,-0.97,2.57,-1.14,4.16 Z M264.95,96.92 c-2.07,-0.85,-5.18,-1.57,-9.33,-2.16 c-2.35,-0.34,-4.01,-0.72,-4.98,-1.14 c-0.97,-0.42,-1.72,-1.04,-2.25,-1.86 c-0.53,-0.81,-0.79,-1.72,-0.79,-2.71 c0,-1.52,0.58,-2.79,1.73,-3.81 c1.15,-1.02,2.84,-1.52,5.06,-1.52 c2.2,0,4.16,0.48,5.87,1.44 c1.71,0.96,2.97,2.28,3.78,3.95 c0.61,1.29,0.92,3.19,0.92,5.71 Z M279.58,80 l0,33.71 l5.14,0 l0,-4.79 c2.48,3.7,6.05,5.55,10.73,5.55 c2.03,0,3.9,-0.36,5.6,-1.09 c1.7,-0.73,2.98,-1.69,3.82,-2.87 c0.85,-1.18,1.44,-2.59,1.78,-4.22 c0.21,-1.06,0.32,-2.91,0.32,-5.55 l0,-20.73 l-5.71,0 l0,20.5 c0,2.33,-0.22,4.07,-0.67,5.22 c-0.44,1.15,-1.23,2.07,-2.36,2.76 c-1.13,0.69,-2.46,1.03,-3.98,1.03 c-2.43,0,-4.53,-0.77,-6.3,-2.32 c-1.77,-1.54,-2.65,-4.48,-2.65,-8.79 l0,-18.41 Z M328.2,85.11 l0.83,-5.05 c-1.61,-0.34,-3.05,-0.51,-4.32,-0.51 c-2.07,0,-3.68,0.33,-4.82,0.98 c-1.14,0.66,-1.95,1.52,-2.41,2.59 c-0.47,1.07,-0.7,3.32,-0.7,6.74 l0,19.39 l-4.19,0 l0,4.44 l4.19,0 l0,8.35 l5.68,3.43 l0,-11.77 l5.74,0 l0,-4.44 l-5.74,0 l0,-19.71 c0,-1.63,0.1,-2.68,0.3,-3.14 c0.2,-0.47,0.53,-0.84,0.98,-1.11 c0.45,-0.28,1.11,-0.41,1.95,-0.41 c0.63,0,1.47,0.07,2.51,0.22 Z M333.79,80 l0,46.53 l5.71,0 l0,-16.69 c2.67,3.09,6.03,4.63,10.09,4.63 c2.5,0,4.67,-0.49,6.51,-1.48 c1.84,-0.98,3.16,-2.34,3.95,-4.08 c0.79,-1.74,1.19,-4.25,1.19,-7.55 l0,-21.36 l-5.71,0 l0,21.36 c0,2.86,-0.62,4.94,-1.86,6.24 c-1.24,1.3,-2.99,1.95,-5.25,1.95 c-1.69,0,-3.28,-0.44,-4.78,-1.32 c-1.49,-0.88,-2.55,-2.07,-3.19,-3.57 c-0.63,-1.5,-0.95,-3.58,-0.95,-6.22 l0,-18.44 Z M333.79,80" fill="rgb(0,0,0)" transform="matrix(1,0,0,-1,0,200)"/>
</svg>