<?xml version="1.0" encoding="UTF-8"?>
<svg height="200" version="1.1" width="500" xmlns="http://www.w3.org/2000/svg" xmlns:xlink="http://www.w3.org/1999/xlink">
 <path d="M0,0 l500,0 l0,200 l-500,0 Z M0,0" fill="rgb(255,255,255)" transform="matrix(1,0,0,-1,0,200)"/>
 <path d="M156.28,80 l0,29.26 l-5.05,0 l0,4.44 l5.05,0 l0,3.59 c0,2.26,0.2,3.95,0.6,5.05 c0.55,1.48,1.52,2.68,2.9,3.6 c1.39,0.92,3.33,1.38,5.82,1.38 c1.61,0,3.39,-0.19,5.33,-0.57 l-0.86,-4.98 c-1.18,0.21,-2.31,0.32,-3.36,0.32 c-1.74,0,-2.96,-0.37,-3.68,-1.11 c-0.72,-0.74,-1.08,-2.13,-1.08,-4.16 l0,-3.11 l6.57,0 l0,-4.44 l-6.57,0 l0,-29.26 Z M195.06,80 l0,4.95 c-2.62,-3.81,-6.19,-5.71,-10.7,-5.71 c-1.99,0,-3.85,0.38,-5.57,1.14 c-1.72,0.76,-3.0,1.72,-3.84,2.87 c-0.84,1.15,-1.42,2.57,-1.76,4.24 c-0.23,1.12,-0.35,2.9,-0.35,5.33 l0,20.88 l5.71,0 l0,-18.69 c0,-2.98,0.12,-4.99,0.35,-6.03 c0.36,-1.5,1.12,-2.68,2.29,-3.54 c1.16,-0.86,2.6,-1.29,4.32,-1.29 c1.71,0,3.32,0.44,4.82,1.32 c1.5,0.88,2.57,2.07,3.19,3.59 c0.62,1.51,0.94,3.71,0.94,6.59 l0,18.06 l5.71,0 l0,-33.71 Z M209.06,80 l0,33.71 l5.14,0 l0,-5.11 c1.31,2.39,2.52,3.97,3.63,4.73 c1.11,0.76,2.33,1.14,3.67,1.14 c1.93,0,3.88,-0.61,5.87,-1.84 l-1.97,-5.3 c-1.4,0.83,-2.79,1.24,-4.19,1.24 c-1.25,0,-2.37,-0.38,-3.36,-1.13 c-0.99,-0.75,-1.7,-1.79,-2.13,-3.13 c-0.63,-2.03,-0.95,-4.25,-0.95,-6.67 l0,-17.65 Z M230.77,80 l0,33.71 l5.14,0 l0,-4.79 c2.48,3.7,6.05,5.55,10.73,5.55 c2.03,0,3.9,-0.36,5.6,-1.09 c1.7,-0.73,2.98,-1.69,3.82,-2.87 c0.85,-1.18,1.44,-2.59,1.78,-4.22 c0.21,-1.06,0.32,-2.91,0.32,-5.55 l0,-20.73 l-5.71,0 l0,20.5 c0,2.33,-0.22,4.07,-0.67,5.22 c-0.44,1.15,-1.23,2.07,-2.36,2.76 c-1.13,0.69,-2.46,1.03,-3.98,1.03 c-2.43,0,-4.53,-0.77,-6.3,-2.32 c-1.77,-1.54,-2.65,-4.48,-2.65,-8.79 l0,-18.41 Z M266.95,119.96 l0,6.57 l5.71,0 l0,-6.57 Z M266.95,80 l0,33.71 l5.71,0 l0,-33.71 Z M281.36,80 l0,33.71 l5.14,0 l0,-4.79 c2.48,3.7,6.05,5.55,10.73,5.55 c2.03,0,3.9,-0.36,5.6,-1.09 c1.7,-0.73,2.98,-1.69,3.82,-2.87 c0.85,-1.18,1.44,-2.59,1.78,-4.22 c0.21,-1.06,0.32,-2.91,0.32,-5.55 l0,-20.73 l-5.71,0 l0,20.5 c0,2.33,-0.22,4.07,-0.67,5.22 c-0.44,1.15,-1.23,2.07,-2.36,2.76 c-1.13,0.69,-2.46,1.03,-3.98,1.03 c-2.43,0,-4.53,-0.77,-6.3,-2.32 c-1.77,-1.54,-2.65,-4.48,-2.65,-8.79 l0,-18.41 Z M316.46,77.21 l5.55,-0.83 c0.23,-1.71,0.88,-2.96,1.94,-3.75 c1.42,-1.06,3.35,-1.59,5.81,-1.59 c2.64,0,4.69,0.53,6.13,1.59 c1.44,1.06,2.41,2.54,2.92,4.44 c0.3,1.16,0.43,3.61,0.41,7.33 c-2.5,-2.94,-5.61,-4.41,-9.33,-4.41 c-4.63,0,-8.22,1.67,-10.76,5.01 c-2.54,3.34,-3.81,7.35,-3.81,12.03 c0,3.22,0.58,6.18,1.75,8.9 c1.16,2.72,2.85,4.82,5.06,6.3 c2.21,1.48,4.81,2.22,7.79,2.22 c3.98,0,7.26,-1.61,9.84,-4.82 l0,4.06 l5.27,0 l0,-29.14 c0,-5.25,-0.53,-8.97,-1.6,-11.16 c-1.07,-2.19,-2.76,-3.92,-5.08,-5.19 c-2.32,-1.27,-5.17,-1.9,-8.55,-1.9 c-4.02,0,-7.27,0.9,-9.74,2.71 c-2.48,1.81,-3.67,4.53,-3.59,8.17 Z M321.19,97.46 c0,-4.42,0.88,-7.65,2.63,-9.68 c1.76,-2.03,3.96,-3.05,6.6,-3.05 c2.62,0,4.82,1.01,6.6,3.03 c1.78,2.02,2.67,5.19,2.67,9.51 c0,4.13,-0.92,7.24,-2.75,9.33 c-1.83,2.09,-4.04,3.14,-6.62,3.14 c-2.54,0,-4.7,-1.03,-6.47,-3.09 c-1.78,-2.06,-2.67,-5.13,-2.67,-9.19 Z M321.19,97.46" fill="rgb(0,0,0)" transform="matrix(1,0,0,-1,0,200)"/>
</svg>