<?xml version="1.0" encoding="UTF-8"?>
<svg height="200" version="1.1" width="500" xmlns="http://www.w3.org/2000/svg" xmlns:xlink="http://www.w3.org/1999/xlink">
 <path d="M0,0 l500,0 l0,200 l-500,0 Z M0,0" fill="rgb(255,255,255)" transform="matrix(1,0,0,-1,0,200)"/>
 <path d="M205.49,80 l0,33.71 l5.14,0 l0,-5.11 c1.31,2.39,2.52,3.97,3.63,4.73 c1.11,0.76,2.33,1.14,3.67,1.14 c1.93,0,3.88,-0.61,5.87,-1.84 l-1.97,-5.3 c-1.4,0.83,-2.79,1.24,-4.19,1.24 c-1.25,0,-2.37,-0.38,-3.36,-1.13 c-0.99,-0.75,-1.7,-1.79,-2.13,-3.13 c-0.63,-2.03,-0.95,-4.25,-0.95,-6.67 l0,-17.65 Z M227.23,119.96 l0,6.57 l5.71,0 l0,-6.57 Z M227.23,80 l0,33.71 l5.71,0 l0,-33.71 Z M251.0,80 l-12.82,33.71 l6.03,0 l7.24,-20.19 c0.78,-2.18,1.5,-4.44,2.16,-6.79 c0.51,1.78,1.22,3.91,2.13,6.41 l7.49,20.57 l5.87,0 l-12.76,-33.71 Z M274.17,119.96 l0,6.57 l5.71,0 l0,-6.57 Z M274.17,80 l0,33.71 l5.71,0 l0,-33.71 Z M288.45,80 l0,46.53 l5.71,0 l0,-46.53 Z M288.45,80" fill="rgb(0,0,0)" transform="matrix(1,0,0,-1,0,200)"/>
</svg>