<?xml version="1.0" encoding="UTF-8"?>
<svg height="200" version="1.1" width="500" xmlns="http://www.w3.org/2000/svg" xmlns:xlink="http://www.w3.org/1999/xlink">
 <path d="M0,0 l500,0 l0,200 l-500,0 Z M0,0" fill="rgb(255,255,255)" transform="matrix(1,0,0,-1,0,200)"/>
 <path d="M137.66,80 l-10.31,33.71 l5.9,0 l5.36,-19.46 l2.0,-7.24 c0.08,0.36,0.67,2.68,1.75,6.95 l5.36,19.74 l5.87,0 l5.05,-19.55 l1.68,-6.44 l1.94,6.51 l5.78,19.49 l5.55,0 l-10.54,-33.71 l-5.94,0 l-5.36,20.19 l-1.3,5.74 l-6.82,-25.93 Z M178.38,80 l0,46.53 l5.71,0 l0,-16.69 c2.67,3.09,6.03,4.63,10.09,4.63 c2.5,0,4.67,-0.49,6.51,-1.48 c1.84,-0.98,3.16,-2.34,3.95,-4.08 c0.79,-1.74,1.19,-4.25,1.19,-7.55 l0,-21.36 l-5.71,0 l0,21.36 c0,2.86,-0.62,4.94,-1.86,6.24 c-1.24,1.3,-2.99,1.95,-5.25,1.95 c-1.69,0,-3.28,-0.44,-4.78,-1.32 c-1.49,-0.88,-2.55,-2.07,-3.19,-3.57 c-0.63,-1.5,-0.95,-3.58,-0.95,-6.22 l0,-18.44 Z M236.53,84.16 c-2.12,-1.8,-4.15,-3.07,-6.11,-3.81 c-1.96,-0.74,-4.06,-1.11,-6.3,-1.11 c-3.7,0,-6.55,0.9,-8.54,2.71 c-1.99,1.81,-2.98,4.12,-2.98,6.93 c0,1.65,0.38,3.16,1.13,4.52 c0.75,1.36,1.74,2.46,2.95,3.28 c1.22,0.83,2.59,1.45,4.11,1.87 c1.12,0.3,2.81,0.58,5.08,0.86 c4.61,0.55,8.01,1.21,10.19,1.97 c0.02,0.78,0.03,1.28,0.03,1.49 c0,2.33,-0.54,3.97,-1.62,4.92 c-1.46,1.29,-3.63,1.94,-6.51,1.94 c-2.69,0,-4.67,-0.47,-5.95,-1.41 c-1.28,-0.94,-2.23,-2.61,-2.84,-5.0 l-5.59,0.76 c0.51,2.39,1.34,4.32,2.51,5.79 c1.16,1.47,2.85,2.6,5.05,3.4 c2.2,0.79,4.75,1.19,7.65,1.19 c2.88,0,5.22,-0.34,7.01,-1.02 c1.8,-0.68,3.12,-1.53,3.97,-2.55 c0.85,-1.03,1.44,-2.32,1.78,-3.89 c0.19,-0.97,0.29,-2.73,0.29,-5.27 l0,-7.62 c0,-5.31,0.12,-8.67,0.36,-10.08 c0.24,-1.41,0.72,-2.76,1.44,-4.05 l-5.97,0 c-0.59,1.18,-0.97,2.57,-1.14,4.16 Z M236.05,96.92 c-2.07,-0.85,-5.18,-1.57,-9.33,-2.16 c-2.35,-0.34,-4.01,-0.72,-4.98,-1.14 c-0.97,-0.42,-1.72,-1.04,-2.25,-1.86 c-0.53,-0.81,-0.79,-1.72,-0.79,-2.71 c0,-1.52,0.58,-2.79,1.73,-3.81 c1.15,-1.02,2.84,-1.52,5.06,-1.52 c2.2,0,4.16,0.48,5.87,1.44 c1.71,0.96,2.97,2.28,3.78,3.95 c0.61,1.29,0.92,3.19,0.92,5.71 Z M263.16,85.11 l0.83,-5.05 c-1.61,-0.34,-3.05,-0.51,-4.32,-0.51 c-2.07,0,-3.68,0.33,-4.82,0.98 c-1.14,0.66,-1.95,1.52,-2.41,2.59 c-0.47,1.07,-0.7,3.32,-0.7,6.74 l0,19.39 l-4.19,0 l0,4.44 l4.19,0 l0,8.35 l5.68,3.43 l0,-11.77 l5.74,0 l0,-4.44 l-5.74,0 l0,-19.71 c0,-1.63,0.1,-2.68,0.3,-3.14 c0.2,-0.47,0.53,-0.84,0.98,-1.11 c0.45,-0.28,1.11,-0.41,1.95,-0.41 c0.63,0,1.47,0.07,2.51,0.22 Z M290.83,80 l0,4.95 c-2.62,-3.81,-6.19,-5.71,-10.7,-5.71 c-1.99,0,-3.85,0.38,-5.57,1.14 c-1.72,0.76,-3.0,1.72,-3.84,2.87 c-0.84,1.15,-1.42,2.57,-1.76,4.24 c-0.23,1.12,-0.35,2.9,-0.35,5.33 l0,20.88 l5.71,0 l0,-18.69 c0,-2.98,0.12,-4.99,0.35,-6.03 c0.36,-1.5,1.12,-2.68,2.29,-3.54 c1.16,-0.86,2.6,-1.29,4.32,-1.29 c1.71,0,3.32,0.44,4.82,1.32 c1.5,0.88,2.57,2.07,3.19,3.59 c0.62,1.51,0.94,3.71,0.94,6.59 l0,18.06 l5.71,0 l0,-33.71 Z M304.83,80 l0,33.71 l5.14,0 l0,-5.11 c1.31,2.39,2.52,3.97,3.63,4.73 c1.11,0.76,2.33,1.14,3.67,1.14 c1.93,0,3.88,-0.61,5.87,-1.84 l-1.97,-5.3 c-1.4,0.83,-2.79,1.24,-4.19,1.24 c-1.25,0,-2.37,-0.38,-3.36,-1.13 c-0.99,-0.75,-1.7,-1.79,-2.13,-3.13 c-0.63,-2.03,-0.95,-4.25,-0.95,-6.67 l0,-17.65 Z M348.53,84.16 c-2.12,-1.8,-4.15,-3.07,-6.11,-3.81 c-1.96,-0.74,-4.06,-1.11,-6.3,-1.11 c-3.7,0,-6.55,0.9,-8.54,2.71 c-1.99,1.81,-2.98,4.12,-2.98,6.93 c0,1.65,0.38,3.16,1.13,4.52 c0.75,1.36,1.74,2.46,2.95,3.28 c1.22,0.83,2.59,1.45,4.11,1.87 c1.12,0.3,2.81,0.58,5.08,0.86 c4.61,0.55,8.01,1.21,10.19,1.97 c0.02,0.78,0.03,1.28,0.03,1.49 c0,2.33,-0.54,3.97,-1.62,4.92 c-1.46,1.29,-3.63,1.94,-6.51,1.94 c-2.69,0,-4.67,-0.47,-5.95,-1.41 c-1.28,-0.94,-2.23,-2.61,-2.84,-5.0 l-5.59,0.76 c0.51,2.39,1.34,4.32,2.51,5.79 c1.16,1.47,2.85,2.6,5.05,3.4 c2.2,0.79,4.75,1.19,7.65,1.19 c2.88,0,5.22,-0.34,7.01,-1.02 c1.8,-0.68,3.12,-1.53,3.97,-2.55 c0.85,-1.03,1.44,-2.32,1.78,-3.89 c0.19,-0.97,0.29,-2.73,0.29,-5.27 l0,-7.62 c0,-5.31,0.12,-8.67,0.36,-10.08 c0.24,-1.41,0.72,-2.76,1.44,-4.05 l-5.97,0 c-0.59,1.18,-0.97,2.57,-1.14,4.16 Z M348.06,96.92 c-2.07,-0.85,-5.18,-1.57,-9.33,-2.16 c-2.35,-0.34,-4.01,-0.72,-4.98,-1.14 c-0.97,-0.42,-1.72,-1.04,-2.25,-1.86 c-0.53,-0.81,-0.79,-1.72,-0.79,-2.71 c0,-1.52,0.58,-2.79,1.73,-3.81 c1.15,-1.02,2.84,-1.52,5.06,-1.52 c2.2,0,4.16,0.48,5.87,1.44 c1.71,0.96,2.97,2.28,3.78,3.95 c0.61,1.29,0.92,3.19,0.92,5.71 Z M362.56,80 l0,46.53 l5.71,0 l0,-46.53 Z M362.56,80" fill="rgb(0,0,0)" transform="matrix(1,0,0,-1,0,200)"/>
</svg>